<svg xmlns="http://www.w3.org/2000/svg" xmlns:xlink="http://www.w3.org/1999/xlink" width="40" height="40" viewBox="0 0 40 40">
  <defs>
    <clipPath id="clip-path">
      <rect id="Rectangle_2130" data-name="Rectangle 2130" width="23.435" height="23.435" fill="#e46b70"/>
    </clipPath>
  </defs>
  <g id="Group_4259" data-name="Group 4259" transform="translate(-1096.283 -41.181)">
    <circle id="Ellipse_9" data-name="Ellipse 9" cx="20" cy="20" r="20" transform="translate(1096.283 41.181)" fill="#fff"/>
    <g id="Group_4257" data-name="Group 4257" transform="translate(1104.829 49.727)">
      <g id="Group_4256" data-name="Group 4256" clip-path="url(#clip-path)">
        <path id="Path_1250" data-name="Path 1250" d="M11.716,2.111c3.129,0,3.5.012,4.735.068a6.483,6.483,0,0,1,2.176.4,3.631,3.631,0,0,1,1.347.877,3.631,3.631,0,0,1,.876,1.347,6.483,6.483,0,0,1,.4,2.176c.056,1.236.068,1.606.068,4.735s-.012,3.5-.068,4.735a6.483,6.483,0,0,1-.4,2.176,3.88,3.88,0,0,1-2.224,2.224,6.483,6.483,0,0,1-2.176.4c-1.235.056-1.606.068-4.735.068s-3.5-.012-4.735-.068a6.483,6.483,0,0,1-2.176-.4,3.631,3.631,0,0,1-1.347-.877,3.631,3.631,0,0,1-.876-1.347,6.485,6.485,0,0,1-.4-2.176c-.056-1.236-.068-1.606-.068-4.735s.012-3.5.068-4.735a6.485,6.485,0,0,1,.4-2.176A3.631,3.631,0,0,1,3.459,3.46a3.631,3.631,0,0,1,1.347-.877,6.483,6.483,0,0,1,2.176-.4c1.236-.056,1.606-.068,4.735-.068m0-2.111C8.534,0,8.135.013,6.885.071A8.6,8.6,0,0,0,4.041.615,5.744,5.744,0,0,0,1.966,1.967,5.744,5.744,0,0,0,.614,4.042,8.6,8.6,0,0,0,.07,6.886C.013,8.136,0,8.535,0,11.717S.013,15.3.07,16.549a8.6,8.6,0,0,0,.545,2.844,5.744,5.744,0,0,0,1.352,2.075A5.744,5.744,0,0,0,4.041,22.82a8.6,8.6,0,0,0,2.844.545c1.25.057,1.649.071,4.831.071s3.581-.013,4.831-.071a8.6,8.6,0,0,0,2.844-.545,5.992,5.992,0,0,0,3.427-3.427,8.6,8.6,0,0,0,.545-2.844c.057-1.25.07-1.649.07-4.831s-.013-3.581-.07-4.831a8.6,8.6,0,0,0-.545-2.844,5.745,5.745,0,0,0-1.352-2.075A5.744,5.744,0,0,0,19.392.615,8.6,8.6,0,0,0,16.548.071C15.3.013,14.9,0,11.716,0" transform="translate(0.001 0)" fill="#e46b70"/>
        <path id="Path_1251" data-name="Path 1251" d="M128.572,122.556a6.017,6.017,0,1,0,6.017,6.017,6.017,6.017,0,0,0-6.017-6.017m0,9.923a3.906,3.906,0,1,1,3.906-3.906,3.906,3.906,0,0,1-3.906,3.906" transform="translate(-116.855 -116.856)" fill="#e46b70"/>
        <path id="Path_1252" data-name="Path 1252" d="M358.978,88.621a1.406,1.406,0,1,1-1.406-1.406,1.406,1.406,0,0,1,1.406,1.406" transform="translate(-339.6 -83.158)" fill="#e46b70"/>
      </g>
    </g>
  </g>
</svg>
