<svg xmlns="http://www.w3.org/2000/svg" xmlns:xlink="http://www.w3.org/1999/xlink" width="643" height="114.422" viewBox="0 0 643 114.422">
  <defs>
    <clipPath id="clip-path">
      <rect id="Rectangle_25" data-name="Rectangle 25" width="643" height="114.422" fill="none"/>
    </clipPath>
  </defs>
  <g id="brand-2" transform="translate(0 19)" style="mix-blend-mode: overlay;isolation: isolate">
    <g id="Group_26" data-name="Group 26" transform="translate(0 -19)">
      <g id="Group_26-2" data-name="Group 26" transform="translate(0 0)" clip-path="url(#clip-path)">
        <path id="Path_85" data-name="Path 85" d="M19.98,94.434c0,1.093.242,2.424,1.937,2.424l4.6.122v1.331c-4.481,0-9.081-.12-13.562-.12-4.723,0-8.233.12-12.956.12V96.98l4.119-.122c1.573,0,1.937-1.331,1.937-2.424v-75.8c0-1.089-.242-2.419-1.937-2.419L.606,16.1V14.763h9.2A63.131,63.131,0,0,0,19.98,13.8v6.416c3.512-4.6,6.78-7.022,12.471-7.022,13.076,0,18.041,13.2,18.041,28.575,0,15.984-5.085,28.455-18.041,28.455-5.691,0-9.2-2.424-12.471-6.782Zm14.771-67.8C33.9,19.85,31.6,16.944,28.7,16.944c-4.723,0-6.9,3.148-8.717,5.567V61.017C22.037,63.8,24.1,66.466,28.7,66.466c2.906,0,5.449-3.028,6.054-9.686a135.241,135.241,0,0,0,.971-15.015,117.406,117.406,0,0,0-.971-15.135" transform="translate(0 16.112)"/>
        <path id="Path_86" data-name="Path 86" d="M73.079,62.956c-2.908,4.6-7.749,7.264-11.987,7.264-6.054,0-9.446-3.634-9.808-7.264C47.045,68.525,43.049,70.22,37.6,70.22c-5.689,0-13.078-2.906-13.078-14.169,0-15.5,15.864-18.4,26.518-18.4V23.482c0-5.207-1.815-8.959-6.9-8.959A15.458,15.458,0,0,0,32.759,19.97v.606c4.965-.726,8.6,1.937,8.6,6.66a6.9,6.9,0,0,1-6.9,6.9c-3.148,0-7.509-1.935-7.509-7.264,0-7.871,9.2-13.682,18.285-13.682,14.044,0,19.371,6.9,19.371,12.594V59.926c0,2.184.484,5.087,3.392,5.087a6.187,6.187,0,0,0,4.479-2.786ZM51.042,39.224c-5.327,0-10.048,1.937-11.5,8.111a34.171,34.171,0,0,0-.6,6.782,32.994,32.994,0,0,0,.484,6.78c.726,2.541,2.179,4.236,4.6,4.236a8.344,8.344,0,0,0,7.022-3.994Z" transform="translate(29.956 16.112)"/>
        <path id="Path_87" data-name="Path 87" d="M66.049,80.138c0,1.091.242,2.421,1.819,2.421l3.266.122v1.331c-4.479,0-7.749-.12-12.227-.12-4.723,0-7.389.12-12.232.12V82.682l3.514-.122C51.88,82.56,52,81.229,52,80.138V33.885c0-1.089-.122-2.421-1.813-2.421l-3.757-.122V30.01h9.324a64.457,64.457,0,0,0,10.292-.969ZM58.662,16.573A7.807,7.807,0,0,1,50.794,8.58,7.779,7.779,0,0,1,58.662.709a7.934,7.934,0,1,1,0,15.864" transform="translate(56.718 0.866)"/>
        <path id="Path_88" data-name="Path 88" d="M68.334,14.763a64.431,64.431,0,0,0,10.292-.969V23c5.207-6.538,9.808-9.808,16.346-9.808,7.144,0,12.471,5.327,12.471,12.716V64.891c0,1.093.12,2.421,1.817,2.421l3.148.122v1.333c-4.481,0-7.871-.122-12.352-.122-4.6,0-7.506.122-12.229.122V67.434l3.754-.122c1.575,0,1.815-1.328,1.815-2.421V27.356C93.4,20.334,91.219,19,88.556,19c-4.6,0-8.235,3.754-9.93,6.3V64.891c0,1.093.242,2.421,1.937,2.421l3.752.122v1.333c-4.479,0-8.233-.122-12.711-.122-4.843,0-7.389.122-12.229.122V67.434l3.39-.122c1.7,0,1.817-1.328,1.817-2.421V18.637c0-1.089-.122-2.421-1.817-2.421L59.13,16.1V14.763Z" transform="translate(72.227 16.112)"/>
        <path id="Path_89" data-name="Path 89" d="M108.115,70.339c-16.226,0-23.37-14.651-23.37-28.573,0-14.046,7.266-28.575,23.37-28.575,15.135,0,23.37,12.227,23.37,28.575s-8.235,28.573-23.37,28.573m7.871-43.588c-.849-8.355-3.512-12.469-7.871-12.469s-7.144,4.114-7.871,12.469c-.242,2.3-.6,7.384-.6,15.015,0,6.9.482,12.711.6,15.015.726,8.351,3.512,12.469,7.871,12.469s7.144-4,7.871-12.469c.24-2.3.6-7.993.6-15.015,0-7.631-.482-12.716-.6-15.015" transform="translate(103.515 16.113)"/>
        <path id="Path_90" data-name="Path 90" d="M126.911,22.446c2.421-3.874,5.931-9.2,11.743-9.2,6.056,0,8.719,5.085,8.6,9.93-.12,4.236-2.541,8.233-7.749,8.233-4.723,0-7.267-3.754-7.267-7.629a7.974,7.974,0,0,1,4.723-7.264l-.12-.726c-4.116,0-7.991,5.811-9.928,8.719V64.826c0,1.091.24,2.421,1.937,2.421l4.963.122V68.7c-4.479,0-9.444-.12-13.922-.12-4.845,0-7.386.12-12.232.12V67.369l3.39-.122c1.7,0,1.817-1.331,1.817-2.421V18.572c0-1.089-.12-2.421-1.817-2.421l-3.63-.122V14.7h9.2a64.457,64.457,0,0,0,10.292-.969Z" transform="translate(131.209 16.179)"/>
        <path id="Path_91" data-name="Path 91" d="M145.708,94.434c0,1.093.242,2.424,1.937,2.424l4.6.122v1.331c-4.481,0-9.081-.12-13.562-.12-4.723,0-8.233.12-12.956.12V96.98l4.119-.122c1.573,0,1.937-1.331,1.937-2.424v-75.8c0-1.089-.242-2.419-1.937-2.419l-3.512-.122V14.763h9.2a63.131,63.131,0,0,0,10.172-.966v6.416c3.512-4.6,6.78-7.022,12.471-7.022,13.076,0,18.041,13.2,18.041,28.575,0,15.984-5.085,28.455-18.041,28.455-5.691,0-9.2-2.424-12.471-6.782Zm14.771-67.8c-.849-6.78-3.148-9.686-6.054-9.686-4.723,0-6.9,3.148-8.717,5.567V61.017c2.057,2.784,4.116,5.449,8.717,5.449,2.906,0,5.449-3.028,6.054-9.686a135.246,135.246,0,0,0,.971-15.015,117.407,117.407,0,0,0-.971-15.135" transform="translate(153.576 16.112)"/>
        <path id="Path_92" data-name="Path 92" d="M169.971,81c0,1.091.242,2.421,1.937,2.421l3.148.122v1.331c-4.481,0-7.629-.122-12.107-.122-4.843,0-7.506.122-12.352.122V83.548l3.512-.122c1.7,0,1.937-1.331,1.937-2.421V4.845c0-1.091-.364-2.424-1.937-2.424l-4.239-.12V.971h9.93A64.191,64.191,0,0,0,169.971,0Z" transform="translate(183.066 0)"/>
        <path id="Path_93" data-name="Path 93" d="M187.1,70.22c-13.44,0-24.094-9.2-24.094-28.815,0-17.923,11.139-28.215,23.366-28.215s20.464,8.6,20.464,24.219V39.1H178.019v2.421a143.506,143.506,0,0,0,.726,14.773c.849,6.538,3.512,11.381,9.808,11.381,9.081,0,13.8-6.538,17.192-15.377l1.453.729c-3.63,10.292-9.926,17.192-20.1,17.192m4.965-45.889c-.487-5.207-1.937-10.048-6.66-10.048-4.239,0-6.418,4.841-6.9,10.17a119.672,119.672,0,0,0-.486,13.076h14.166c0-3.392.12-9.688-.12-13.2" transform="translate(199.111 16.112)"/>
        <path id="Path_94" data-name="Path 94" d="M233.032,62.956c-2.908,4.6-7.749,7.264-11.987,7.264-6.054,0-9.446-3.634-9.808-7.264C207,68.525,203,70.22,197.555,70.22c-5.689,0-13.078-2.906-13.078-14.169,0-15.5,15.864-18.4,26.518-18.4V23.482c0-5.207-1.815-8.959-6.9-8.959a15.458,15.458,0,0,0-11.383,5.447v.606c4.965-.726,8.6,1.937,8.6,6.66a6.9,6.9,0,0,1-6.9,6.9c-3.148,0-7.509-1.935-7.509-7.264,0-7.871,9.2-13.682,18.285-13.682,14.044,0,19.371,6.9,19.371,12.594V59.926c0,2.184.484,5.087,3.392,5.087a6.187,6.187,0,0,0,4.479-2.786ZM210.995,39.224c-5.327,0-10.048,1.937-11.5,8.111a34.175,34.175,0,0,0-.6,6.782,32.995,32.995,0,0,0,.484,6.78c.726,2.541,2.179,4.236,4.6,4.236a8.344,8.344,0,0,0,7.022-3.994Z" transform="translate(225.337 16.112)"/>
        <path id="Path_95" data-name="Path 95" d="M226.383,70.22c-8.355,0-15.377-4.236-16.588-4.236-.6,0-1.7,2.177-2.059,3.146h-.966V48.667h1.451c1.575,9.081,7.509,20.1,17.559,20.1,6.78,0,10.774-4.6,10.774-10.534,0-7.024-5.207-8.355-13.68-10.292-8.235-1.937-15.379-5.447-15.379-17.8A16.935,16.935,0,0,1,224.568,13.19c8.111,0,13.682,3.512,14.771,3.512.6,0,1.089-1.211,1.333-2.3h1.089V31.353h-1.211c-1.453-6.418-7.022-16.71-15.861-16.71-5.934,0-8.717,3.994-8.717,8.839,0,5.689,2.906,8.111,11.016,9.808C238.37,35.711,245.15,39.1,245.15,51.573c0,9.566-6.9,18.647-18.767,18.647" transform="translate(252.567 16.112)"/>
        <path id="Path_96" data-name="Path 96" d="M244.712,55.84c0,7.024,2.059,8.357,4.723,8.357,4.6,0,8.233-3.754,9.928-6.3v-39.6c0-1.091-.242-2.421-1.817-2.421l-4.359-.122V14.429h9.688a65.88,65.88,0,0,0,10.292-.966v51.1c0,1.091.12,2.421,1.815,2.421l3.632.12v1.333h-8.959a64.689,64.689,0,0,0-10.292.969V60.2c-5.207,6.78-9.688,9.806-16.226,9.806-7.144,0-12.469-5.327-12.469-12.714V18.306c0-1.091-.244-2.421-1.819-2.421l-3.388-.122V14.429h8.959a65.88,65.88,0,0,0,10.292-.966Z" transform="translate(275.399 16.445)"/>
        <path id="Path_97" data-name="Path 97" d="M270.189,22.446c2.421-3.874,5.931-9.2,11.743-9.2,6.056,0,8.719,5.085,8.6,9.93-.12,4.236-2.541,8.233-7.749,8.233-4.723,0-7.266-3.754-7.266-7.629a7.974,7.974,0,0,1,4.723-7.264l-.12-.726c-4.116,0-7.991,5.811-9.928,8.719V64.826c0,1.091.24,2.421,1.937,2.421l4.963.122V68.7c-4.479,0-9.444-.12-13.922-.12-4.845,0-7.386.12-12.232.12V67.369l3.39-.122c1.7,0,1.817-1.331,1.817-2.421V18.572c0-1.089-.12-2.421-1.817-2.421l-3.63-.122V14.7h9.2a64.456,64.456,0,0,0,10.292-.969Z" transform="translate(306.222 16.179)"/>
        <path id="Path_98" data-name="Path 98" d="M293.648,70.22c-13.44,0-24.1-9.2-24.1-28.815,0-17.923,11.141-28.215,23.368-28.215s20.462,8.6,20.462,24.219V39.1H284.566v2.421a142.88,142.88,0,0,0,.726,14.773c.846,6.538,3.51,11.381,9.808,11.381,9.079,0,13.8-6.538,17.192-15.377l1.453.729c-3.632,10.292-9.928,17.192-20.1,17.192m4.963-45.889c-.484-5.207-1.937-10.048-6.66-10.048-4.236,0-6.418,4.841-6.9,10.17a120.2,120.2,0,0,0-.484,13.076h14.166c0-3.392.12-9.688-.122-13.2" transform="translate(329.255 16.112)"/>
      </g>
    </g>
  </g>
</svg>
