<svg xmlns="http://www.w3.org/2000/svg" xmlns:xlink="http://www.w3.org/1999/xlink" width="353.417" height="16.555" viewBox="0 0 353.417 16.555">
  <defs>
    <clipPath id="clip-path">
      <rect id="Rectangle_139" data-name="Rectangle 139" width="96.598" height="13.512" transform="translate(0 0)" fill="none"/>
    </clipPath>
    <clipPath id="clip-path-4">
      <rect id="Rectangle_20" data-name="Rectangle 20" width="13.795" height="16.555" fill="#141419"/>
    </clipPath>
  </defs>
  <g id="Group_119" data-name="Group 119" transform="translate(-264 -4424.701)">
    <g id="Group_114" data-name="Group 114" transform="translate(264 4425.744)">
      <g id="Group_113" data-name="Group 113" transform="translate(0 0)" clip-path="url(#clip-path)">
        <path id="Path_2130" data-name="Path 2130" d="M3.067,16.058a5.606,5.606,0,0,1-2.252-2.1A5.792,5.792,0,0,1,0,10.9,5.794,5.794,0,0,1,.815,7.841a5.605,5.605,0,0,1,2.252-2.1A6.865,6.865,0,0,1,6.3,4.992a7.093,7.093,0,0,1,2.938.581,5.451,5.451,0,0,1,2.131,1.679L8.959,9.4a3.085,3.085,0,0,0-2.47-1.324,2.522,2.522,0,0,0-1.921.767A2.869,2.869,0,0,0,3.842,10.9a2.869,2.869,0,0,0,.727,2.058,2.522,2.522,0,0,0,1.921.767A3.085,3.085,0,0,0,8.959,12.4l2.405,2.147a5.45,5.45,0,0,1-2.131,1.679,7.082,7.082,0,0,1-2.938.581,6.865,6.865,0,0,1-3.229-.751" transform="translate(0 -3.297)"/>
        <path id="Path_2131" data-name="Path 2131" d="M45.132,7.728a4.018,4.018,0,0,1,.993,2.97v5.037H42.476V11.328q0-1.517-1.082-1.517a1.263,1.263,0,0,0-.993.428,2,2,0,0,0-.379,1.348v4.149H36.374V3.757h3.648V7.615a3.69,3.69,0,0,1,2.486-.872,3.563,3.563,0,0,1,2.623.985" transform="translate(-24.025 -2.481)"/>
        <path id="Path_2132" data-name="Path 2132" d="M70.868,21.117a4.535,4.535,0,0,1-1.832-1.63,4.557,4.557,0,0,1,0-4.73,4.475,4.475,0,0,1,1.832-1.622,6.319,6.319,0,0,1,5.295,0,4.416,4.416,0,0,1,1.824,1.622,4.6,4.6,0,0,1,0,4.73,4.475,4.475,0,0,1-1.824,1.63,6.24,6.24,0,0,1-5.295,0M74.54,18.4a1.882,1.882,0,0,0,.4-1.283,1.85,1.85,0,0,0-.4-1.275,1.406,1.406,0,0,0-2.066,0,1.848,1.848,0,0,0-.4,1.275,1.88,1.88,0,0,0,.4,1.283,1.391,1.391,0,0,0,2.066,0" transform="translate(-45.161 -8.291)"/>
        <path id="Path_2133" data-name="Path 2133" d="M101.5,3.188a1.684,1.684,0,0,1-.606-1.332A1.685,1.685,0,0,1,101.5.525,2.342,2.342,0,0,1,103.092,0a2.408,2.408,0,0,1,1.6.5,1.608,1.608,0,0,1,.6,1.291,1.78,1.78,0,0,1-.6,1.38,2.291,2.291,0,0,1-1.6.541,2.341,2.341,0,0,1-1.59-.525m-.234,1.235h3.648v8.83h-3.648Z" transform="translate(-66.641 0)"/>
        <path id="Path_2134" data-name="Path 2134" d="M146,13.538a4.1,4.1,0,0,1,.96,2.97v5.037h-3.648V17.137q0-1.517-.985-1.517a1.02,1.02,0,0,0-.831.387,1.941,1.941,0,0,0-.315,1.227v4.31h-3.648V17.137q0-1.517-.985-1.517a1.019,1.019,0,0,0-.831.387,1.941,1.941,0,0,0-.315,1.227v4.31h-3.648v-8.83h3.471v.823a3.39,3.39,0,0,1,2.5-.985,3.745,3.745,0,0,1,1.6.331,2.8,2.8,0,0,1,1.162,1.009,3.589,3.589,0,0,1,1.291-.993,3.947,3.947,0,0,1,1.663-.347,3.411,3.411,0,0,1,2.559.985" transform="translate(-87.024 -8.291)"/>
        <path id="Path_2135" data-name="Path 2135" d="M180.717,3.188a1.684,1.684,0,0,1-.606-1.332,1.685,1.685,0,0,1,.606-1.332A2.342,2.342,0,0,1,182.307,0a2.408,2.408,0,0,1,1.6.5,1.608,1.608,0,0,1,.6,1.291,1.78,1.78,0,0,1-.6,1.38,2.291,2.291,0,0,1-1.6.541,2.341,2.341,0,0,1-1.59-.525m-.234,1.235h3.648v8.83h-3.648Z" transform="translate(-118.963 0)"/>
        <path id="Path_2136" data-name="Path 2136" d="M196.865,21.464a6.394,6.394,0,0,1-1.776-.629l1-2.405a5.227,5.227,0,0,0,1.453.581,6.679,6.679,0,0,0,1.63.21,2.535,2.535,0,0,0,.88-.105.34.34,0,0,0,.25-.315q0-.21-.315-.29a8.568,8.568,0,0,0-1.025-.162,13.488,13.488,0,0,1-1.84-.331,2.882,2.882,0,0,1-1.332-.783,2.268,2.268,0,0,1-.573-1.663,2.466,2.466,0,0,1,.517-1.534,3.485,3.485,0,0,1,1.542-1.082,6.725,6.725,0,0,1,2.462-.4,10.325,10.325,0,0,1,1.961.186,5.96,5.96,0,0,1,1.638.541l-1,2.405a5.167,5.167,0,0,0-2.551-.646q-1.194,0-1.194.42,0,.21.323.3a7.47,7.47,0,0,0,1.017.169,12.4,12.4,0,0,1,1.832.339,2.95,2.95,0,0,1,1.323.791,2.268,2.268,0,0,1,.573,1.662,2.42,2.42,0,0,1-.517,1.5,3.477,3.477,0,0,1-1.549,1.082,6.9,6.9,0,0,1-2.5.4,10.319,10.319,0,0,1-2.228-.242" transform="translate(-128.856 -8.291)"/>
        <path id="Path_2137" data-name="Path 2137" d="M224.685,21.117a4.533,4.533,0,0,1-1.832-1.63,4.555,4.555,0,0,1,0-4.73,4.473,4.473,0,0,1,1.832-1.622,6.319,6.319,0,0,1,5.295,0,4.42,4.42,0,0,1,1.824,1.622,4.6,4.6,0,0,1,0,4.73,4.479,4.479,0,0,1-1.824,1.63,6.24,6.24,0,0,1-5.295,0m3.672-2.712a1.882,1.882,0,0,0,.4-1.283,1.85,1.85,0,0,0-.4-1.275,1.407,1.407,0,0,0-2.067,0,1.85,1.85,0,0,0-.4,1.275,1.882,1.882,0,0,0,.4,1.283,1.391,1.391,0,0,0,2.067,0" transform="translate(-146.756 -8.291)"/>
        <path id="Path_2138" data-name="Path 2138" d="M264.565,13.538a4.018,4.018,0,0,1,.993,2.97v5.037H261.91V17.137q0-1.517-1.082-1.517a1.262,1.262,0,0,0-.993.428,2,2,0,0,0-.38,1.348v4.149h-3.648v-8.83h3.471v.872a3.362,3.362,0,0,1,1.194-.775,4.1,4.1,0,0,1,1.469-.258,3.563,3.563,0,0,1,2.623.985" transform="translate(-168.96 -8.291)"/>
      </g>
    </g>
    <g id="Group_116" data-name="Group 116" transform="translate(392.41 4425.744)">
      <g id="Group_113-2" data-name="Group 113" transform="translate(0 0)" clip-path="url(#clip-path)">
        <path id="Path_2130-2" data-name="Path 2130" d="M3.067,16.058a5.606,5.606,0,0,1-2.252-2.1A5.792,5.792,0,0,1,0,10.9,5.794,5.794,0,0,1,.815,7.841a5.605,5.605,0,0,1,2.252-2.1A6.865,6.865,0,0,1,6.3,4.992a7.093,7.093,0,0,1,2.938.581,5.451,5.451,0,0,1,2.131,1.679L8.959,9.4a3.085,3.085,0,0,0-2.47-1.324,2.522,2.522,0,0,0-1.921.767A2.869,2.869,0,0,0,3.842,10.9a2.869,2.869,0,0,0,.727,2.058,2.522,2.522,0,0,0,1.921.767A3.085,3.085,0,0,0,8.959,12.4l2.405,2.147a5.45,5.45,0,0,1-2.131,1.679,7.082,7.082,0,0,1-2.938.581,6.865,6.865,0,0,1-3.229-.751" transform="translate(0 -3.297)"/>
        <path id="Path_2131-2" data-name="Path 2131" d="M45.132,7.728a4.018,4.018,0,0,1,.993,2.97v5.037H42.476V11.328q0-1.517-1.082-1.517a1.263,1.263,0,0,0-.993.428,2,2,0,0,0-.379,1.348v4.149H36.374V3.757h3.648V7.615a3.69,3.69,0,0,1,2.486-.872,3.563,3.563,0,0,1,2.623.985" transform="translate(-24.025 -2.481)"/>
        <path id="Path_2132-2" data-name="Path 2132" d="M70.868,21.117a4.535,4.535,0,0,1-1.832-1.63,4.557,4.557,0,0,1,0-4.73,4.475,4.475,0,0,1,1.832-1.622,6.319,6.319,0,0,1,5.295,0,4.416,4.416,0,0,1,1.824,1.622,4.6,4.6,0,0,1,0,4.73,4.475,4.475,0,0,1-1.824,1.63,6.24,6.24,0,0,1-5.295,0M74.54,18.4a1.882,1.882,0,0,0,.4-1.283,1.85,1.85,0,0,0-.4-1.275,1.406,1.406,0,0,0-2.066,0,1.848,1.848,0,0,0-.4,1.275,1.88,1.88,0,0,0,.4,1.283,1.391,1.391,0,0,0,2.066,0" transform="translate(-45.161 -8.291)"/>
        <path id="Path_2133-2" data-name="Path 2133" d="M101.5,3.188a1.684,1.684,0,0,1-.606-1.332A1.685,1.685,0,0,1,101.5.525,2.342,2.342,0,0,1,103.092,0a2.408,2.408,0,0,1,1.6.5,1.608,1.608,0,0,1,.6,1.291,1.78,1.78,0,0,1-.6,1.38,2.291,2.291,0,0,1-1.6.541,2.341,2.341,0,0,1-1.59-.525m-.234,1.235h3.648v8.83h-3.648Z" transform="translate(-66.641 0)"/>
        <path id="Path_2134-2" data-name="Path 2134" d="M146,13.538a4.1,4.1,0,0,1,.96,2.97v5.037h-3.648V17.137q0-1.517-.985-1.517a1.02,1.02,0,0,0-.831.387,1.941,1.941,0,0,0-.315,1.227v4.31h-3.648V17.137q0-1.517-.985-1.517a1.019,1.019,0,0,0-.831.387,1.941,1.941,0,0,0-.315,1.227v4.31h-3.648v-8.83h3.471v.823a3.39,3.39,0,0,1,2.5-.985,3.745,3.745,0,0,1,1.6.331,2.8,2.8,0,0,1,1.162,1.009,3.589,3.589,0,0,1,1.291-.993,3.947,3.947,0,0,1,1.663-.347,3.411,3.411,0,0,1,2.559.985" transform="translate(-87.024 -8.291)"/>
        <path id="Path_2135-2" data-name="Path 2135" d="M180.717,3.188a1.684,1.684,0,0,1-.606-1.332,1.685,1.685,0,0,1,.606-1.332A2.342,2.342,0,0,1,182.307,0a2.408,2.408,0,0,1,1.6.5,1.608,1.608,0,0,1,.6,1.291,1.78,1.78,0,0,1-.6,1.38,2.291,2.291,0,0,1-1.6.541,2.341,2.341,0,0,1-1.59-.525m-.234,1.235h3.648v8.83h-3.648Z" transform="translate(-118.963 0)"/>
        <path id="Path_2136-2" data-name="Path 2136" d="M196.865,21.464a6.394,6.394,0,0,1-1.776-.629l1-2.405a5.227,5.227,0,0,0,1.453.581,6.679,6.679,0,0,0,1.63.21,2.535,2.535,0,0,0,.88-.105.34.34,0,0,0,.25-.315q0-.21-.315-.29a8.568,8.568,0,0,0-1.025-.162,13.488,13.488,0,0,1-1.84-.331,2.882,2.882,0,0,1-1.332-.783,2.268,2.268,0,0,1-.573-1.663,2.466,2.466,0,0,1,.517-1.534,3.485,3.485,0,0,1,1.542-1.082,6.725,6.725,0,0,1,2.462-.4,10.325,10.325,0,0,1,1.961.186,5.96,5.96,0,0,1,1.638.541l-1,2.405a5.167,5.167,0,0,0-2.551-.646q-1.194,0-1.194.42,0,.21.323.3a7.47,7.47,0,0,0,1.017.169,12.4,12.4,0,0,1,1.832.339,2.95,2.95,0,0,1,1.323.791,2.268,2.268,0,0,1,.573,1.662,2.42,2.42,0,0,1-.517,1.5,3.477,3.477,0,0,1-1.549,1.082,6.9,6.9,0,0,1-2.5.4,10.319,10.319,0,0,1-2.228-.242" transform="translate(-128.856 -8.291)"/>
        <path id="Path_2137-2" data-name="Path 2137" d="M224.685,21.117a4.533,4.533,0,0,1-1.832-1.63,4.555,4.555,0,0,1,0-4.73,4.473,4.473,0,0,1,1.832-1.622,6.319,6.319,0,0,1,5.295,0,4.42,4.42,0,0,1,1.824,1.622,4.6,4.6,0,0,1,0,4.73,4.479,4.479,0,0,1-1.824,1.63,6.24,6.24,0,0,1-5.295,0m3.672-2.712a1.882,1.882,0,0,0,.4-1.283,1.85,1.85,0,0,0-.4-1.275,1.407,1.407,0,0,0-2.067,0,1.85,1.85,0,0,0-.4,1.275,1.882,1.882,0,0,0,.4,1.283,1.391,1.391,0,0,0,2.067,0" transform="translate(-146.756 -8.291)"/>
        <path id="Path_2138-2" data-name="Path 2138" d="M264.565,13.538a4.018,4.018,0,0,1,.993,2.97v5.037H261.91V17.137q0-1.517-1.082-1.517a1.262,1.262,0,0,0-.993.428,2,2,0,0,0-.38,1.348v4.149h-3.648v-8.83h3.471v.872a3.362,3.362,0,0,1,1.194-.775,4.1,4.1,0,0,1,1.469-.258,3.563,3.563,0,0,1,2.623.985" transform="translate(-168.96 -8.291)"/>
      </g>
    </g>
    <g id="Group_118" data-name="Group 118" transform="translate(520.819 4425.744)">
      <g id="Group_113-3" data-name="Group 113" transform="translate(0 0)" clip-path="url(#clip-path)">
        <path id="Path_2130-3" data-name="Path 2130" d="M3.067,16.058a5.606,5.606,0,0,1-2.252-2.1A5.792,5.792,0,0,1,0,10.9,5.794,5.794,0,0,1,.815,7.841a5.605,5.605,0,0,1,2.252-2.1A6.865,6.865,0,0,1,6.3,4.992a7.093,7.093,0,0,1,2.938.581,5.451,5.451,0,0,1,2.131,1.679L8.959,9.4a3.085,3.085,0,0,0-2.47-1.324,2.522,2.522,0,0,0-1.921.767A2.869,2.869,0,0,0,3.842,10.9a2.869,2.869,0,0,0,.727,2.058,2.522,2.522,0,0,0,1.921.767A3.085,3.085,0,0,0,8.959,12.4l2.405,2.147a5.45,5.45,0,0,1-2.131,1.679,7.082,7.082,0,0,1-2.938.581,6.865,6.865,0,0,1-3.229-.751" transform="translate(0 -3.297)"/>
        <path id="Path_2131-3" data-name="Path 2131" d="M45.132,7.728a4.018,4.018,0,0,1,.993,2.97v5.037H42.476V11.328q0-1.517-1.082-1.517a1.263,1.263,0,0,0-.993.428,2,2,0,0,0-.379,1.348v4.149H36.374V3.757h3.648V7.615a3.69,3.69,0,0,1,2.486-.872,3.563,3.563,0,0,1,2.623.985" transform="translate(-24.025 -2.481)"/>
        <path id="Path_2132-3" data-name="Path 2132" d="M70.868,21.117a4.535,4.535,0,0,1-1.832-1.63,4.557,4.557,0,0,1,0-4.73,4.475,4.475,0,0,1,1.832-1.622,6.319,6.319,0,0,1,5.295,0,4.416,4.416,0,0,1,1.824,1.622,4.6,4.6,0,0,1,0,4.73,4.475,4.475,0,0,1-1.824,1.63,6.24,6.24,0,0,1-5.295,0M74.54,18.4a1.882,1.882,0,0,0,.4-1.283,1.85,1.85,0,0,0-.4-1.275,1.406,1.406,0,0,0-2.066,0,1.848,1.848,0,0,0-.4,1.275,1.88,1.88,0,0,0,.4,1.283,1.391,1.391,0,0,0,2.066,0" transform="translate(-45.161 -8.291)"/>
        <path id="Path_2133-3" data-name="Path 2133" d="M101.5,3.188a1.684,1.684,0,0,1-.606-1.332A1.685,1.685,0,0,1,101.5.525,2.342,2.342,0,0,1,103.092,0a2.408,2.408,0,0,1,1.6.5,1.608,1.608,0,0,1,.6,1.291,1.78,1.78,0,0,1-.6,1.38,2.291,2.291,0,0,1-1.6.541,2.341,2.341,0,0,1-1.59-.525m-.234,1.235h3.648v8.83h-3.648Z" transform="translate(-66.641 0)"/>
        <path id="Path_2134-3" data-name="Path 2134" d="M146,13.538a4.1,4.1,0,0,1,.96,2.97v5.037h-3.648V17.137q0-1.517-.985-1.517a1.02,1.02,0,0,0-.831.387,1.941,1.941,0,0,0-.315,1.227v4.31h-3.648V17.137q0-1.517-.985-1.517a1.019,1.019,0,0,0-.831.387,1.941,1.941,0,0,0-.315,1.227v4.31h-3.648v-8.83h3.471v.823a3.39,3.39,0,0,1,2.5-.985,3.745,3.745,0,0,1,1.6.331,2.8,2.8,0,0,1,1.162,1.009,3.589,3.589,0,0,1,1.291-.993,3.947,3.947,0,0,1,1.663-.347,3.411,3.411,0,0,1,2.559.985" transform="translate(-87.024 -8.291)"/>
        <path id="Path_2135-3" data-name="Path 2135" d="M180.717,3.188a1.684,1.684,0,0,1-.606-1.332,1.685,1.685,0,0,1,.606-1.332A2.342,2.342,0,0,1,182.307,0a2.408,2.408,0,0,1,1.6.5,1.608,1.608,0,0,1,.6,1.291,1.78,1.78,0,0,1-.6,1.38,2.291,2.291,0,0,1-1.6.541,2.341,2.341,0,0,1-1.59-.525m-.234,1.235h3.648v8.83h-3.648Z" transform="translate(-118.963 0)"/>
        <path id="Path_2136-3" data-name="Path 2136" d="M196.865,21.464a6.394,6.394,0,0,1-1.776-.629l1-2.405a5.227,5.227,0,0,0,1.453.581,6.679,6.679,0,0,0,1.63.21,2.535,2.535,0,0,0,.88-.105.34.34,0,0,0,.25-.315q0-.21-.315-.29a8.568,8.568,0,0,0-1.025-.162,13.488,13.488,0,0,1-1.84-.331,2.882,2.882,0,0,1-1.332-.783,2.268,2.268,0,0,1-.573-1.663,2.466,2.466,0,0,1,.517-1.534,3.485,3.485,0,0,1,1.542-1.082,6.725,6.725,0,0,1,2.462-.4,10.325,10.325,0,0,1,1.961.186,5.96,5.96,0,0,1,1.638.541l-1,2.405a5.167,5.167,0,0,0-2.551-.646q-1.194,0-1.194.42,0,.21.323.3a7.47,7.47,0,0,0,1.017.169,12.4,12.4,0,0,1,1.832.339,2.95,2.95,0,0,1,1.323.791,2.268,2.268,0,0,1,.573,1.662,2.42,2.42,0,0,1-.517,1.5,3.477,3.477,0,0,1-1.549,1.082,6.9,6.9,0,0,1-2.5.4,10.319,10.319,0,0,1-2.228-.242" transform="translate(-128.856 -8.291)"/>
        <path id="Path_2137-3" data-name="Path 2137" d="M224.685,21.117a4.533,4.533,0,0,1-1.832-1.63,4.555,4.555,0,0,1,0-4.73,4.473,4.473,0,0,1,1.832-1.622,6.319,6.319,0,0,1,5.295,0,4.42,4.42,0,0,1,1.824,1.622,4.6,4.6,0,0,1,0,4.73,4.479,4.479,0,0,1-1.824,1.63,6.24,6.24,0,0,1-5.295,0m3.672-2.712a1.882,1.882,0,0,0,.4-1.283,1.85,1.85,0,0,0-.4-1.275,1.407,1.407,0,0,0-2.067,0,1.85,1.85,0,0,0-.4,1.275,1.882,1.882,0,0,0,.4,1.283,1.391,1.391,0,0,0,2.067,0" transform="translate(-146.756 -8.291)"/>
        <path id="Path_2138-3" data-name="Path 2138" d="M264.565,13.538a4.018,4.018,0,0,1,.993,2.97v5.037H261.91V17.137q0-1.517-1.082-1.517a1.262,1.262,0,0,0-.993.428,2,2,0,0,0-.38,1.348v4.149h-3.648v-8.83h3.471v.872a3.362,3.362,0,0,1,1.194-.775,4.1,4.1,0,0,1,1.469-.258,3.563,3.563,0,0,1,2.623.985" transform="translate(-168.96 -8.291)"/>
      </g>
    </g>
    <g id="Group_115" data-name="Group 115" transform="translate(369.606 4424.701)">
      <g id="Group_16" data-name="Group 16" clip-path="url(#clip-path-4)">
        <path id="Path_75" data-name="Path 75" d="M13.521,8.6c-4.48.877-5.592,2.127-6.285,7.664a.342.342,0,0,1-.677,0C5.866,10.727,4.754,9.477.274,8.6a.328.328,0,0,1,0-.647C4.754,7.076,5.866,5.826,6.559.289a.342.342,0,0,1,.677,0c.693,5.537,1.805,6.787,6.285,7.664a.328.328,0,0,1,0,.647" transform="translate(0 0.001)" fill="#141419"/>
      </g>
    </g>
    <g id="Group_117" data-name="Group 117" transform="translate(498.016 4424.701)">
      <g id="Group_16-2" data-name="Group 16" clip-path="url(#clip-path-4)">
        <path id="Path_75-2" data-name="Path 75" d="M13.521,8.6c-4.48.877-5.592,2.127-6.285,7.664a.342.342,0,0,1-.677,0C5.866,10.727,4.754,9.477.274,8.6a.328.328,0,0,1,0-.647C4.754,7.076,5.866,5.826,6.559.289a.342.342,0,0,1,.677,0c.693,5.537,1.805,6.787,6.285,7.664a.328.328,0,0,1,0,.647" transform="translate(0 0.001)" fill="#141419"/>
      </g>
    </g>
  </g>
</svg>
