<svg xmlns="http://www.w3.org/2000/svg" xmlns:xlink="http://www.w3.org/1999/xlink" width="1366" height="159" viewBox="0 0 1366 159">
  <defs>
    <clipPath id="clip-path">
      <rect id="Rectangle_129" data-name="Rectangle 129" width="1366" height="159" transform="translate(0 1086)" fill="#fff"/>
    </clipPath>
    <clipPath id="clip-path-2">
      <rect id="Rectangle_18" data-name="Rectangle 18" width="1191.143" height="91.821" fill="none"/>
    </clipPath>
  </defs>
  <g id="fukuoka-parco" transform="translate(0 -1086)" clip-path="url(#clip-path)" style="mix-blend-mode: overlay;isolation: isolate">
    <g id="Group_13" data-name="Group 13" transform="translate(-567 -11.222)">
      <g id="Group_11" data-name="Group 11" transform="translate(29 1128.311)">
        <path id="Path_56" data-name="Path 56" d="M0,.761V88.567H29.6v-28.1h36.63V38.143H29.6V23.09H71.373V.761Z" transform="translate(0 1.248)"/>
        <g id="Group_10" data-name="Group 10" transform="translate(0 0)">
          <g id="Group_9" data-name="Group 9" clip-path="url(#clip-path-2)">
            <path id="Path_57" data-name="Path 57" d="M41.623,79.661Q30.334,68.747,30.335,49.054V.761h29.6V48.175q0,9.663,3.451,14.05t9.972,4.39q6.521,0,9.975-4.39t3.448-14.05V.761h29.1V49.054q0,19.695-11.288,30.607T73.112,90.575q-20.2,0-31.488-10.914" transform="translate(49.691 1.247)"/>
            <path id="Path_58" data-name="Path 58" d="M103.65,59.464,97,66.864v21.7H67.9V.762H97v31.86L125.852.762h32.237L122.966,39.394l36.88,49.171H125.6Z" transform="translate(111.223 1.249)"/>
            <path id="Path_59" data-name="Path 59" d="M115.276,79.661q-11.29-10.914-11.288-30.607V.761h29.6V48.175q0,9.663,3.451,14.05t9.972,4.39q6.521,0,9.975-4.39t3.448-14.05V.761h29.1V49.054q0,19.695-11.288,30.607T146.765,90.575q-20.2,0-31.488-10.914" transform="translate(170.341 1.247)"/>
            <path id="Path_60" data-name="Path 60" d="M164.3,85.928a43.975,43.975,0,0,1-24.083-40.017A43.975,43.975,0,0,1,164.3,5.9a57.935,57.935,0,0,1,50.928,0,43.983,43.983,0,0,1,24.086,40.014A43.984,43.984,0,0,1,215.23,85.928a57.958,57.958,0,0,1-50.928,0M199.74,65.166a19.314,19.314,0,0,0,7.089-7.65,24.357,24.357,0,0,0,2.633-11.6,24.361,24.361,0,0,0-2.633-11.6,19.315,19.315,0,0,0-7.089-7.65,19.778,19.778,0,0,0-19.947,0,19.309,19.309,0,0,0-7.086,7.65,24.392,24.392,0,0,0-2.633,11.6,24.388,24.388,0,0,0,2.633,11.6,19.309,19.309,0,0,0,7.086,7.65,19.794,19.794,0,0,0,19.947,0" transform="translate(229.691 0.001)"/>
            <path id="Path_61" data-name="Path 61" d="M216.669,59.464l-6.648,7.4v21.7h-29.1V.762h29.1v31.86L238.872.762h32.237L235.985,39.394l36.88,49.171H238.621Z" transform="translate(296.364 1.249)"/>
            <path id="Path_62" data-name="Path 62" d="M284.95,73.262H251.583l-5.9,15.3h-30.1L253.968.762h29.1l38.384,87.8h-30.61ZM276.8,51.938l-8.529-22.075-8.532,22.075Z" transform="translate(353.145 1.249)"/>
            <path id="Path_63" data-name="Path 63" d="M335.256,4.774a31.242,31.242,0,0,1,13.926,11.542,31.526,31.526,0,0,1,4.891,17.562,31.517,31.517,0,0,1-4.891,17.559,31.242,31.242,0,0,1-13.926,11.542q-9.03,4.013-21.2,4.013H301.388V88.564h-29.6V.761h42.273q12.164,0,21.2,4.013m-14.048,36.69a9.663,9.663,0,0,0,3.01-7.587,9.669,9.669,0,0,0-3.01-7.59q-3.011-2.7-9.033-2.7H301.388V44.16h10.787q6.023,0,9.033-2.7" transform="translate(445.209 1.247)"/>
            <path id="Path_64" data-name="Path 64" d="M370.014,73.262H336.647l-5.9,15.3h-30.1L339.032.762h29.1l38.384,87.8h-30.61Zm-8.154-21.324-8.529-22.075L344.8,51.938Z" transform="translate(492.487 1.249)"/>
            <path id="Path_65" data-name="Path 65" d="M381.163,66.489h-8.025V88.567h-29.6V.761h42.273a51.84,51.84,0,0,1,21.2,4.015,31.238,31.238,0,0,1,13.926,11.539,31.525,31.525,0,0,1,4.891,17.562,31.021,31.021,0,0,1-4.266,16.43,30.092,30.092,0,0,1-12.291,11.164l18.435,27.1H396.092Zm11.795-40.2q-3.011-2.695-9.033-2.7H373.138V44.163h10.787q6.023,0,9.033-2.7a9.663,9.663,0,0,0,3.01-7.587,9.673,9.673,0,0,0-3.01-7.59" transform="translate(562.741 1.247)"/>
            <path id="Path_66" data-name="Path 66" d="M402.411,85.988a43.562,43.562,0,0,1-17.5-16.309,45.007,45.007,0,0,1-6.334-23.769,45.02,45.02,0,0,1,6.334-23.769,43.556,43.556,0,0,1,17.5-16.306A53.344,53.344,0,0,1,427.5,0a55.073,55.073,0,0,1,22.827,4.516,42.354,42.354,0,0,1,16.557,13.048L448.193,34.245Q440.041,23.964,429,23.959q-9.287,0-14.926,5.959t-5.646,15.992q0,10.039,5.646,15.995T429,67.862q11.036,0,19.189-10.286l18.691,16.683A42.348,42.348,0,0,1,450.327,87.3,55.031,55.031,0,0,1,427.5,91.821a53.343,53.343,0,0,1-25.088-5.833" transform="translate(620.145 0.001)"/>
            <path id="Path_67" data-name="Path 67" d="M438.04,85.928a43.971,43.971,0,0,1-24.086-40.017A43.97,43.97,0,0,1,438.04,5.9a57.935,57.935,0,0,1,50.928,0,43.975,43.975,0,0,1,24.083,40.014,43.975,43.975,0,0,1-24.083,40.017,57.958,57.958,0,0,1-50.928,0m35.435-20.762a19.315,19.315,0,0,0,7.089-7.65,24.358,24.358,0,0,0,2.635-11.6,24.362,24.362,0,0,0-2.635-11.6,19.315,19.315,0,0,0-7.089-7.65,19.773,19.773,0,0,0-19.944,0,19.29,19.29,0,0,0-7.086,7.65,24.361,24.361,0,0,0-2.635,11.6,24.357,24.357,0,0,0,2.635,11.6,19.29,19.29,0,0,0,7.086,7.65,19.789,19.789,0,0,0,19.944,0" transform="translate(678.092 0.001)"/>
          </g>
        </g>
      </g>
      <g id="Group_12" data-name="Group 12" transform="translate(1279.7 1128.311)">
        <path id="Path_56-2" data-name="Path 56" d="M0,.761V88.567H29.6v-28.1h36.63V38.143H29.6V23.09H71.373V.761Z" transform="translate(0 1.248)"/>
        <g id="Group_10-2" data-name="Group 10" transform="translate(0 0)">
          <g id="Group_9-2" data-name="Group 9" clip-path="url(#clip-path-2)">
            <path id="Path_57-2" data-name="Path 57" d="M41.623,79.661Q30.334,68.747,30.335,49.054V.761h29.6V48.175q0,9.663,3.451,14.05t9.972,4.39q6.521,0,9.975-4.39t3.448-14.05V.761h29.1V49.054q0,19.695-11.288,30.607T73.112,90.575q-20.2,0-31.488-10.914" transform="translate(49.691 1.247)"/>
            <path id="Path_58-2" data-name="Path 58" d="M103.65,59.464,97,66.864v21.7H67.9V.762H97v31.86L125.852.762h32.237L122.966,39.394l36.88,49.171H125.6Z" transform="translate(111.223 1.249)"/>
            <path id="Path_59-2" data-name="Path 59" d="M115.276,79.661q-11.29-10.914-11.288-30.607V.761h29.6V48.175q0,9.663,3.451,14.05t9.972,4.39q6.521,0,9.975-4.39t3.448-14.05V.761h29.1V49.054q0,19.695-11.288,30.607T146.765,90.575q-20.2,0-31.488-10.914" transform="translate(170.341 1.247)"/>
            <path id="Path_60-2" data-name="Path 60" d="M164.3,85.928a43.975,43.975,0,0,1-24.083-40.017A43.975,43.975,0,0,1,164.3,5.9a57.935,57.935,0,0,1,50.928,0,43.983,43.983,0,0,1,24.086,40.014A43.984,43.984,0,0,1,215.23,85.928a57.958,57.958,0,0,1-50.928,0M199.74,65.166a19.314,19.314,0,0,0,7.089-7.65,24.357,24.357,0,0,0,2.633-11.6,24.361,24.361,0,0,0-2.633-11.6,19.315,19.315,0,0,0-7.089-7.65,19.778,19.778,0,0,0-19.947,0,19.309,19.309,0,0,0-7.086,7.65,24.392,24.392,0,0,0-2.633,11.6,24.388,24.388,0,0,0,2.633,11.6,19.309,19.309,0,0,0,7.086,7.65,19.794,19.794,0,0,0,19.947,0" transform="translate(229.691 0.001)"/>
            <path id="Path_61-2" data-name="Path 61" d="M216.669,59.464l-6.648,7.4v21.7h-29.1V.762h29.1v31.86L238.872.762h32.237L235.985,39.394l36.88,49.171H238.621Z" transform="translate(296.364 1.249)"/>
            <path id="Path_62-2" data-name="Path 62" d="M284.95,73.262H251.583l-5.9,15.3h-30.1L253.968.762h29.1l38.384,87.8h-30.61ZM276.8,51.938l-8.529-22.075-8.532,22.075Z" transform="translate(353.145 1.249)"/>
            <path id="Path_63-2" data-name="Path 63" d="M335.256,4.774a31.242,31.242,0,0,1,13.926,11.542,31.526,31.526,0,0,1,4.891,17.562,31.517,31.517,0,0,1-4.891,17.559,31.242,31.242,0,0,1-13.926,11.542q-9.03,4.013-21.2,4.013H301.388V88.564h-29.6V.761h42.273q12.164,0,21.2,4.013m-14.048,36.69a9.663,9.663,0,0,0,3.01-7.587,9.669,9.669,0,0,0-3.01-7.59q-3.011-2.7-9.033-2.7H301.388V44.16h10.787q6.023,0,9.033-2.7" transform="translate(445.209 1.247)"/>
            <path id="Path_64-2" data-name="Path 64" d="M370.014,73.262H336.647l-5.9,15.3h-30.1L339.032.762h29.1l38.384,87.8h-30.61Zm-8.154-21.324-8.529-22.075L344.8,51.938Z" transform="translate(492.487 1.249)"/>
            <path id="Path_65-2" data-name="Path 65" d="M381.163,66.489h-8.025V88.567h-29.6V.761h42.273a51.84,51.84,0,0,1,21.2,4.015,31.238,31.238,0,0,1,13.926,11.539,31.525,31.525,0,0,1,4.891,17.562,31.021,31.021,0,0,1-4.266,16.43,30.092,30.092,0,0,1-12.291,11.164l18.435,27.1H396.092Zm11.795-40.2q-3.011-2.695-9.033-2.7H373.138V44.163h10.787q6.023,0,9.033-2.7a9.663,9.663,0,0,0,3.01-7.587,9.673,9.673,0,0,0-3.01-7.59" transform="translate(562.741 1.247)"/>
            <path id="Path_66-2" data-name="Path 66" d="M402.411,85.988a43.562,43.562,0,0,1-17.5-16.309,45.007,45.007,0,0,1-6.334-23.769,45.02,45.02,0,0,1,6.334-23.769,43.556,43.556,0,0,1,17.5-16.306A53.344,53.344,0,0,1,427.5,0a55.073,55.073,0,0,1,22.827,4.516,42.354,42.354,0,0,1,16.557,13.048L448.193,34.245Q440.041,23.964,429,23.959q-9.287,0-14.926,5.959t-5.646,15.992q0,10.039,5.646,15.995T429,67.862q11.036,0,19.189-10.286l18.691,16.683A42.348,42.348,0,0,1,450.327,87.3,55.031,55.031,0,0,1,427.5,91.821a53.343,53.343,0,0,1-25.088-5.833" transform="translate(620.145 0.001)"/>
            <path id="Path_67-2" data-name="Path 67" d="M438.04,85.928a43.971,43.971,0,0,1-24.086-40.017A43.97,43.97,0,0,1,438.04,5.9a57.935,57.935,0,0,1,50.928,0,43.975,43.975,0,0,1,24.083,40.014,43.975,43.975,0,0,1-24.083,40.017,57.958,57.958,0,0,1-50.928,0m35.435-20.762a19.315,19.315,0,0,0,7.089-7.65,24.358,24.358,0,0,0,2.635-11.6,24.362,24.362,0,0,0-2.635-11.6,19.315,19.315,0,0,0-7.089-7.65,19.773,19.773,0,0,0-19.944,0,19.29,19.29,0,0,0-7.086,7.65,24.361,24.361,0,0,0-2.635,11.6,24.357,24.357,0,0,0,2.635,11.6,19.29,19.29,0,0,0,7.086,7.65,19.789,19.789,0,0,0,19.944,0" transform="translate(678.092 0.001)"/>
          </g>
        </g>
      </g>
    </g>
  </g>
</svg>
