<svg xmlns="http://www.w3.org/2000/svg" xmlns:xlink="http://www.w3.org/1999/xlink" width="423.012" height="32.609" viewBox="0 0 423.012 32.609">
  <defs>
    <clipPath id="clip-path">
      <rect id="Rectangle_165" data-name="Rectangle 165" width="423.012" height="32.609" fill="none"/>
    </clipPath>
  </defs>
  <g id="fukuoka-parco" transform="translate(0 0)">
    <path id="Path_2139" data-name="Path 2139" d="M0,.761V31.944H10.512v-9.98H23.52V14.037H10.512V8.691H25.347V.761Z" transform="translate(0 -0.048)"/>
    <g id="Group_139" data-name="Group 139" transform="translate(0 0)">
      <g id="Group_138" data-name="Group 138" clip-path="url(#clip-path)">
        <path id="Path_2140" data-name="Path 2140" d="M34.344,28.781q-4.009-3.876-4.009-10.87V.761H40.848V17.6q0,3.432,1.225,4.99a4.235,4.235,0,0,0,3.541,1.559,4.238,4.238,0,0,0,3.542-1.559q1.224-1.558,1.224-4.99V.761H60.716v17.15q0,6.994-4.009,10.87T45.526,32.657q-7.174,0-11.182-3.876" transform="translate(-1.915 -0.048)"/>
        <path id="Path_2141" data-name="Path 2141" d="M80.595,21.609l-2.362,2.628v7.707H67.9V.762H78.233V12.076L88.479.762H99.928L87.454,14.481l13.1,17.462H88.389Z" transform="translate(-4.287 -0.048)"/>
        <path id="Path_2142" data-name="Path 2142" d="M108,28.781q-4.009-3.876-4.009-10.87V.761H114.5V17.6q0,3.432,1.225,4.99a4.8,4.8,0,0,0,7.084,0q1.224-1.558,1.224-4.99V.761h10.335v17.15q0,6.994-4.009,10.87t-11.181,3.876q-7.174,0-11.182-3.876" transform="translate(-6.565 -0.048)"/>
        <path id="Path_2143" data-name="Path 2143" d="M148.772,30.516A15.617,15.617,0,0,1,140.219,16.3a15.617,15.617,0,0,1,8.553-14.21,20.575,20.575,0,0,1,18.086,0,15.62,15.62,0,0,1,8.554,14.21,15.62,15.62,0,0,1-8.554,14.211,20.583,20.583,0,0,1-18.086,0m12.585-7.373a6.859,6.859,0,0,0,2.517-2.717,8.65,8.65,0,0,0,.935-4.121,8.651,8.651,0,0,0-.935-4.12,6.859,6.859,0,0,0-2.517-2.717,7.024,7.024,0,0,0-7.084,0,6.857,6.857,0,0,0-2.516,2.717,8.662,8.662,0,0,0-.935,4.12,8.661,8.661,0,0,0,.935,4.121,6.857,6.857,0,0,0,2.516,2.717,7.03,7.03,0,0,0,7.084,0" transform="translate(-8.852 0)"/>
        <path id="Path_2144" data-name="Path 2144" d="M193.616,21.609l-2.361,2.628v7.707H180.921V.762h10.335V12.076L201.5.762h11.449L200.476,14.481l13.1,17.462H201.412Z" transform="translate(-11.422 -0.048)"/>
        <path id="Path_2145" data-name="Path 2145" d="M240.218,26.509h-11.85l-2.094,5.435H215.584L229.215.762H239.55l13.631,31.182h-10.87Zm-2.9-7.573-3.029-7.84-3.03,7.84Z" transform="translate(-13.61 -0.048)"/>
        <path id="Path_2146" data-name="Path 2146" d="M294.326,2.186a11.1,11.1,0,0,1,4.946,4.1,11.2,11.2,0,0,1,1.737,6.237,11.193,11.193,0,0,1-1.737,6.236,11.1,11.1,0,0,1-4.946,4.1,18.41,18.41,0,0,1-7.528,1.425h-4.5v7.662H271.786V.761H286.8a18.41,18.41,0,0,1,7.528,1.425m-4.989,13.03a3.432,3.432,0,0,0,1.069-2.694,3.434,3.434,0,0,0-1.069-2.7,4.676,4.676,0,0,0-3.208-.957H282.3v7.3h3.831a4.676,4.676,0,0,0,3.208-.957" transform="translate(-17.159 -0.048)"/>
        <path id="Path_2147" data-name="Path 2147" d="M325.282,26.509H313.432l-2.094,5.435H300.648L314.279.762h10.335l13.631,31.182h-10.87Zm-2.9-7.573-3.029-7.84-3.03,7.84Z" transform="translate(-18.981 -0.048)"/>
        <path id="Path_2148" data-name="Path 2148" d="M356.9,24.1h-2.85v7.841H343.536V.761h15.012a18.41,18.41,0,0,1,7.528,1.426,11.094,11.094,0,0,1,4.946,4.1,11.2,11.2,0,0,1,1.737,6.237,11.016,11.016,0,0,1-1.515,5.835,10.687,10.687,0,0,1-4.365,3.965l6.547,9.623H362.2Zm4.189-14.277a4.681,4.681,0,0,0-3.208-.957h-3.831v7.306h3.831a4.672,4.672,0,0,0,3.208-.958,3.432,3.432,0,0,0,1.069-2.694,3.435,3.435,0,0,0-1.069-2.7" transform="translate(-21.689 -0.048)"/>
        <path id="Path_2149" data-name="Path 2149" d="M387.043,30.537a15.471,15.471,0,0,1-6.214-5.792,15.983,15.983,0,0,1-2.249-8.441,15.988,15.988,0,0,1,2.249-8.441,15.468,15.468,0,0,1,6.214-5.791A18.944,18.944,0,0,1,395.952,0a19.558,19.558,0,0,1,8.107,1.6,15.041,15.041,0,0,1,5.88,4.634L403.3,12.161a8.517,8.517,0,0,0-6.815-3.653,6.963,6.963,0,0,0-5.3,2.116,7.917,7.917,0,0,0-2,5.679,7.917,7.917,0,0,0,2,5.68,6.963,6.963,0,0,0,5.3,2.115,8.512,8.512,0,0,0,6.815-3.653l6.638,5.925A15.039,15.039,0,0,1,404.059,31a19.543,19.543,0,0,1-8.107,1.6,18.944,18.944,0,0,1-8.91-2.071" transform="translate(-23.901 0)"/>
        <path id="Path_2150" data-name="Path 2150" d="M422.508,30.516A15.615,15.615,0,0,1,413.954,16.3a15.615,15.615,0,0,1,8.554-14.21,20.575,20.575,0,0,1,18.086,0,15.617,15.617,0,0,1,8.553,14.21,15.617,15.617,0,0,1-8.553,14.211,20.583,20.583,0,0,1-18.086,0m12.584-7.373a6.859,6.859,0,0,0,2.517-2.717,8.651,8.651,0,0,0,.936-4.121,8.652,8.652,0,0,0-.936-4.12,6.859,6.859,0,0,0-2.517-2.717,7.022,7.022,0,0,0-7.083,0,6.85,6.85,0,0,0-2.516,2.717,8.651,8.651,0,0,0-.936,4.12,8.65,8.65,0,0,0,.936,4.121,6.85,6.85,0,0,0,2.516,2.717,7.028,7.028,0,0,0,7.083,0" transform="translate(-26.134 0)"/>
      </g>
    </g>
  </g>
</svg>
