<svg xmlns="http://www.w3.org/2000/svg" width="50" height="50" viewBox="0 0 50 50">
  <g id="ins" transform="translate(-658 -10151)">
    <g id="Ellipse_7" data-name="Ellipse 7" transform="translate(658 10151)" fill="#fff" stroke="#fff" stroke-width="1">
      <circle cx="25" cy="25" r="25" stroke="none"/>
      <circle cx="25" cy="25" r="24.5" fill="none"/>
    </g>
    <path id="Icon_akar-instagram-fill" data-name="Icon akar-instagram-fill" d="M7.11,1.557C8.128,1.51,8.452,1.5,11.045,1.5s2.917.011,3.934.057A7.025,7.025,0,0,1,17.3,2a4.886,4.886,0,0,1,2.791,2.792,7.02,7.02,0,0,1,.444,2.317c.047,1.02.057,1.344.057,3.936s-.011,2.917-.057,3.935a7,7,0,0,1-.444,2.317A4.873,4.873,0,0,1,17.3,20.089a7.02,7.02,0,0,1-2.317.444c-1.019.047-1.343.057-3.936.057s-2.917-.011-3.935-.057a7,7,0,0,1-2.317-.444A4.878,4.878,0,0,1,2,17.3a7.045,7.045,0,0,1-.443-2.317c-.047-1.02-.057-1.344-.057-3.936s.011-2.917.057-3.934A7.025,7.025,0,0,1,2,4.792,4.682,4.682,0,0,1,3.1,3.1,4.679,4.679,0,0,1,4.792,2a7.045,7.045,0,0,1,2.317-.443ZM14.9,3.275c-1.007-.046-1.309-.056-3.857-.056s-2.851.01-3.857.056A5.276,5.276,0,0,0,5.415,3.6,3.152,3.152,0,0,0,3.6,5.415a5.276,5.276,0,0,0-.329,1.773C3.229,8.195,3.22,8.5,3.22,11.045s.01,2.851.056,3.857A5.276,5.276,0,0,0,3.6,16.675a3.152,3.152,0,0,0,1.811,1.811,5.276,5.276,0,0,0,1.773.329c1.007.046,1.308.056,3.857.056s2.851-.01,3.857-.056a5.276,5.276,0,0,0,1.773-.329,3.152,3.152,0,0,0,1.811-1.811,5.276,5.276,0,0,0,.329-1.773c.046-1.007.056-1.309.056-3.857s-.01-2.851-.056-3.857a5.276,5.276,0,0,0-.329-1.773A3.152,3.152,0,0,0,16.675,3.6,5.276,5.276,0,0,0,14.9,3.275ZM9.826,13.988a3.185,3.185,0,1,0-1.965-2.942,3.184,3.184,0,0,0,1.965,2.942ZM7.576,7.576a4.906,4.906,0,1,1,0,6.939,4.906,4.906,0,0,1,0-6.939ZM17.04,6.87a1.16,1.16,0,1,0-1.616-.024,1.16,1.16,0,0,0,1.616.024Z" transform="translate(673 10164.719)" fill="#141419"/>
  </g>
</svg>
