<svg xmlns="http://www.w3.org/2000/svg" xmlns:xlink="http://www.w3.org/1999/xlink" width="269.398" height="15.899" viewBox="0 0 269.398 15.899">
  <defs>
    <clipPath id="clip-path">
      <rect id="Rectangle_17" data-name="Rectangle 17" width="269.398" height="15.899" fill="#fff"/>
    </clipPath>
  </defs>
  <g id="inv" transform="translate(0 0)">
    <g id="Group_8" data-name="Group 8" transform="translate(0 0)" clip-path="url(#clip-path)">
      <path id="Path_33" data-name="Path 33" d="M4.206,15c0,.2.044.44.33.44l1.189.022v.264c-.792,0-2.048-.022-2.841-.022-.88,0-2,.022-2.885.022v-.264l1.124-.022c.308,0,.33-.242.33-.44V1.193c0-.2-.022-.44-.33-.44L0,.73V.466c.881,0,2,.022,2.885.022.793,0,2.049-.022,2.841-.022V.73L4.537.752c-.287,0-.33.242-.33.44Z" transform="translate(0 -0.158)" fill="#fff"/>
      <path id="Path_34" data-name="Path 34" d="M19.362,15.9H18.217L11.17,2.227V14.449c0,.594.221.969.727.991l.66.022v.264c-.4,0-1.035-.022-1.542-.022-.528,0-1.277.022-1.674.022v-.264l.727-.022c.506-.022.726-.375.726-.991V1.192c0-.2-.022-.44-.33-.44L9.342.729V.465c.837,0,1.343.023,2.18.023.7,0,1.3-.023,1.806-.023l5.747,11.1V1.743c0-.595-.242-.969-.727-.991L17.556.729V.465c.4,0,1.189.023,1.7.023.529,0,1.278-.023,1.674-.023V.729l-.749.023c-.484.022-.726.374-.726.991Z" transform="translate(-3.155 -0.157)" fill="#fff"/>
      <path id="Path_35" data-name="Path 35" d="M33.481,15.792H32.359L28.284,1.171c-.066-.242-.176-.419-.441-.419L27.029.73V.466c.749,0,1.74.022,2.51.022.86,0,2.18-.022,3.061-.022V.73L31.345.752c-.2,0-.265.176-.2.374l3.016,11.055,2.886-10.5c.176-.551-.067-.925-.6-.925L35.683.73V.466c.594,0,1.123.022,1.717.022.485,0,.947-.022,1.432-.022V.73l-.507.022c-.308,0-.748.419-.9.925Z" transform="translate(-9.128 -0.158)" fill="#fff"/>
      <path id="Path_36" data-name="Path 36" d="M49.32,15c0,.2.044.44.33.44l1.189.022v.264c-.792,0-2.048-.022-2.841-.022-.88,0-2,.022-2.885.022v-.264l1.124-.022c.308,0,.33-.242.33-.44V1.193c0-.2-.022-.44-.33-.44L45.114.73V.466c.881,0,2,.022,2.885.022.793,0,2.049-.022,2.841-.022V.73L49.651.752c-.287,0-.33.242-.33.44Z" transform="translate(-15.235 -0.158)" fill="#fff"/>
      <path id="Path_37" data-name="Path 37" d="M61.7.752c-.309,0-.352.242-.352.44V15c0,.2.044.44.352.44l1.233.022v.264c-.814,0-2.135-.022-2.951-.022-.859,0-2.048.022-2.906.022v-.264l1.189-.022c.286,0,.352-.242.352-.44V1.193c0-.2-.044-.44-.352-.44h-.925c-.529,0-1.233.815-1.849,1.916a15.855,15.855,0,0,0-.9,2.048h-.2l.242-4.25h10.7l.243,4.25h-.2a13.108,13.108,0,0,0-.9-2.048C63.837,1.479,63.154.752,62.626.752Z" transform="translate(-18.367 -0.158)" fill="#fff"/>
      <path id="Path_38" data-name="Path 38" d="M76.8,15.877a15.4,15.4,0,0,1-3.656-.771c-.221,0-.33.242-.4.463h-.242V10.438h.264c.4,2,1.608,5.153,4.14,5.153,2.048,0,2.687-1.63,2.687-3.039a2.906,2.906,0,0,0-1.454-2.708c-.881-.44-2.092-.727-3.259-1.3a3.9,3.9,0,0,1-2.29-3.92A4.414,4.414,0,0,1,77.133,0a11.613,11.613,0,0,1,3.348.77c.22,0,.33-.242.4-.462h.287V5.087h-.287C80.392,3.1,79.577.264,77.133.264a2.673,2.673,0,0,0-2.466,2.862,2.808,2.808,0,0,0,1.586,2.709c.858.44,2.07.7,3.237,1.277a3.777,3.777,0,0,1,2.334,3.721,4.742,4.742,0,0,1-5.02,5.043" transform="translate(-24.486 0)" fill="#fff"/>
      <path id="Path_39" data-name="Path 39" d="M94.813.752c-.308,0-.352.242-.352.44V15c0,.2.044.44.352.44l1.233.022v.264c-.815,0-2.136-.022-2.951-.022-.859,0-2.049.022-2.907.022v-.264l1.189-.022c.287,0,.353-.242.353-.44V1.193c0-.2-.044-.44-.353-.44h-.925c-.529,0-1.233.815-1.85,1.916a15.855,15.855,0,0,0-.9,2.048h-.2l.242-4.25h10.7l.242,4.25h-.2a13.045,13.045,0,0,0-.9-2.048C96.949,1.479,96.266.752,95.737.752Z" transform="translate(-29.549 -0.158)" fill="#fff"/>
      <path id="Path_40" data-name="Path 40" d="M109.26,15c0,.2.044.44.33.44l1.189.022v.264c-.792,0-2.048-.022-2.841-.022-.88,0-2,.022-2.885.022v-.264l1.124-.022c.308,0,.33-.242.33-.44V1.193c0-.2-.022-.44-.33-.44L105.054.73V.466c.881,0,2,.022,2.885.022.793,0,2.048-.022,2.841-.022V.73l-1.189.022c-.287,0-.33.242-.33.44Z" transform="translate(-35.476 -0.158)" fill="#fff"/>
      <path id="Path_41" data-name="Path 41" d="M120.4,15.878c-3.9,0-5.638-4.008-5.638-7.928C114.763,4.009,116.525,0,120.4,0c3.633,0,5.659,3.391,5.659,7.949s-2.025,7.928-5.659,7.928M122.844,3.59c-.2-2.092-1.1-3.347-2.444-3.347-1.322,0-2.225,1.321-2.423,3.347a36.21,36.21,0,0,0-.2,4.36,35.6,35.6,0,0,0,.2,4.316c.2,2.092,1.1,3.347,2.423,3.347,1.343,0,2.268-1.277,2.444-3.347.088-1.167.2-2.092.2-4.316a42.176,42.176,0,0,0-.2-4.36" transform="translate(-38.755 -0.001)" fill="#fff"/>
      <path id="Path_42" data-name="Path 42" d="M142.934,15.9h-1.145L134.742,2.227V14.449c0,.594.221.969.727.991l.66.022v.264c-.4,0-1.035-.022-1.542-.022-.528,0-1.277.022-1.674.022v-.264l.727-.022c.506-.022.726-.375.726-.991V1.192c0-.2-.022-.44-.33-.44L132.914.729V.465c.837,0,1.343.023,2.18.023.7,0,1.3-.023,1.806-.023l5.747,11.1V1.743c0-.595-.242-.969-.727-.991l-.793-.023V.465c.4,0,1.189.023,1.7.023.529,0,1.278-.023,1.674-.023V.729l-.749.023c-.484.022-.726.374-.726.991Z" transform="translate(-44.884 -0.157)" fill="#fff"/>
      <path id="Path_43" data-name="Path 43" d="M166.1,1.566c.352-.551.154-.815-.264-.815l-.991-.023V.465c.727,0,1.256.023,1.96.023.574,0,1.322-.023,1.872-.023V.729l-.815.023a1.71,1.71,0,0,0-1.388.881l-2.841,4.294,4.735,9.029a.806.806,0,0,0,.726.485l.617.022v.264h-5.77v-.264l1.1-.022c.264,0,.375-.176.242-.419L161.853,8.26h-.33V15c0,.2.044.44.33.44l1.079.022v.264c-.815,0-1.96-.022-2.775-.022-.858,0-1.982.022-2.841.022v-.264l1.124-.022c.308,0,.33-.242.33-.44V1.192c0-.2-.022-.44-.33-.44L157.316.729V.465c.859,0,1.982.023,2.841.023.815,0,2-.023,2.819-.023V.729l-1.123.023c-.287,0-.33.242-.33.44V7.931h.374Z" transform="translate(-53.125 -0.157)" fill="#fff"/>
      <path id="Path_44" data-name="Path 44" d="M181.573,15.878c-3.9,0-5.638-4.008-5.638-7.928C175.935,4.009,177.7,0,181.573,0c3.633,0,5.659,3.391,5.659,7.949s-2.025,7.928-5.659,7.928M184.016,3.59c-.2-2.092-1.1-3.347-2.444-3.347-1.322,0-2.225,1.321-2.423,3.347a36.208,36.208,0,0,0-.2,4.36,35.6,35.6,0,0,0,.2,4.316c.2,2.092,1.1,3.347,2.423,3.347,1.343,0,2.268-1.277,2.444-3.347.088-1.167.2-2.092.2-4.316a42.167,42.167,0,0,0-.2-4.36" transform="translate(-59.412 -0.001)" fill="#fff"/>
      <path id="Path_45" data-name="Path 45" d="M200.428.465c1.607,0,4.184.595,4.184,3.744,0,2.62-1.894,3.435-3.876,3.7a4.01,4.01,0,0,1,3.106,1.982,6.981,6.981,0,0,1,.507,2.643c.176,2.334.484,2.929,1.145,2.929a2.149,2.149,0,0,0,1.057-.419l.088.242a4.592,4.592,0,0,1-2.313.77c-1.519,0-2.906-.727-3.016-3.941-.044-1.167-.066-2.8-.6-3.479a1.579,1.579,0,0,0-1.211-.573h-1.211V15c0,.2.044.44.33.44l1.145.022v.264c-.815,0-2.026-.022-2.841-.022-.858,0-1.982.022-2.841.022v-.264l1.124-.022c.308,0,.33-.242.33-.44V1.192c0-.2-.022-.44-.33-.44L194.085.729V.465c.859,0,1.982.023,2.841.023Zm-2.137,7.311c2.621,0,3.281-.44,3.281-3.479,0-2.731-.881-3.545-2.532-3.545h-.419c-.287,0-.33.242-.33.44Z" transform="translate(-65.542 -0.157)" fill="#fff"/>
      <path id="Path_46" data-name="Path 46" d="M219.519,15.44c1.013,0,1.828-1.035,2.334-1.916A15.174,15.174,0,0,0,223,10.75h.242l-.286,4.977-7.311-.022c-.858,0-1.982.022-2.841.022v-.264l1.123-.022c.309,0,.331-.242.331-.44V1.193c0-.2-.022-.44-.331-.44L212.8.73V.466c.859,0,1.982.022,2.841.022l7-.022.132,4.272h-.242a10.509,10.509,0,0,0-.858-2.092c-.44-.88-1.211-1.894-1.806-1.894h-2.533c-.286,0-.33.242-.33.44V7.6c2.356,0,2.929-.66,3.259-3.061h.242v6.408h-.264c-.375-2.774-1.321-3.061-3.237-3.061V15c0,.2.044.44.33.44Z" transform="translate(-71.863 -0.158)" fill="#fff"/>
      <path id="Path_47" data-name="Path 47" d="M239.663,15.031c.066.242.176.375.44.375l.815.022v.264c-.77,0-1.762-.022-2.51-.022-.881,0-2.158.022-3.039.022v-.264l1.278-.022c.221,0,.264-.176.221-.375l-1.233-4.426H231.8l-1.057,3.788c-.177.595.022,1.013.44,1.013l1.233.022v.264c-.594,0-1.475-.022-2.07-.022-.484,0-.969.022-1.453.022v-.264l.529-.022c.4,0,.748-.33.9-.991L234.488.366h1.1Zm-5.857-11.1-1.894,6.32h3.633Z" transform="translate(-77.297 -0.124)" fill="#fff"/>
      <path id="Path_48" data-name="Path 48" d="M257.331,15.9h-1.145L249.139,2.227V14.449c0,.594.221.969.727.991l.66.022v.264c-.4,0-1.035-.022-1.542-.022-.528,0-1.277.022-1.674.022v-.264l.727-.022c.506-.022.726-.375.726-.991V1.192c0-.2-.022-.44-.33-.44L247.311.729V.465c.837,0,1.343.023,2.18.023.7,0,1.3-.023,1.806-.023l5.747,11.1V1.743c0-.595-.242-.969-.727-.991l-.793-.023V.465c.4,0,1.189.023,1.7.023.529,0,1.278-.023,1.674-.023V.729l-.749.023c-.484.022-.726.374-.726.991Z" transform="translate(-83.516 -0.157)" fill="#fff"/>
      <path id="Path_49" data-name="Path 49" d="M273.168,1.192c0-.2-.022-.44-.33-.44L271.714.729V.465c.859,0,1.982.022,2.841.022l3.5-.022c1.607,0,4.184.661,4.184,4.008,0,3.435-2.29,4.558-4.559,4.536a7.863,7.863,0,0,1-1.762-.176V15c0,.2.044.44.331.44l1.1.022v.264c-.792,0-2-.022-2.8-.022-.858,0-1.982.022-2.841.022v-.264l1.124-.022c.308,0,.33-.242.33-.44ZM275.92,8.5a3.859,3.859,0,0,0,1.123.154c1.476,0,2.18-1.5,2.18-4.1,0-2.951-.881-3.81-2.532-3.81h-.44c-.287,0-.331.242-.331.44Z" transform="translate(-91.756 -0.157)" fill="#fff"/>
      <path id="Path_50" data-name="Path 50" d="M294.373,15.878c-3.9,0-5.637-4.008-5.637-7.928C288.736,4.009,290.5,0,294.373,0c3.633,0,5.659,3.391,5.659,7.949s-2.026,7.928-5.659,7.928M296.817,3.59c-.2-2.092-1.1-3.347-2.445-3.347-1.322,0-2.224,1.321-2.422,3.347a36.251,36.251,0,0,0-.2,4.36,35.638,35.638,0,0,0,.2,4.316c.2,2.092,1.1,3.347,2.422,3.347,1.344,0,2.268-1.277,2.445-3.347.089-1.167.2-2.092.2-4.316a41.971,41.971,0,0,0-.2-4.36" transform="translate(-97.505 -0.001)" fill="#fff"/>
      <path id="Path_51" data-name="Path 51" d="M308.341,1.192c0-.2-.022-.44-.33-.44L306.887.729V.465c.859,0,1.982.022,2.841.022l3.5-.022c1.607,0,4.184.661,4.184,4.008,0,3.435-2.29,4.558-4.559,4.536a7.856,7.856,0,0,1-1.761-.176V15c0,.2.044.44.33.44l1.1.022v.264c-.793,0-2-.022-2.8-.022-.858,0-1.982.022-2.841.022v-.264l1.123-.022c.309,0,.33-.242.33-.44ZM311.093,8.5a3.858,3.858,0,0,0,1.123.154c1.476,0,2.18-1.5,2.18-4.1,0-2.951-.881-3.81-2.533-3.81h-.44c-.286,0-.33.242-.33.44Z" transform="translate(-103.634 -0.157)" fill="#fff"/>
      <path id="Path_52" data-name="Path 52" d="M340.734,15.726h-1.013l-1.85-6.562-2.225,6.562H334.59L330.516,1.171c-.066-.242-.176-.419-.44-.419L329.262.73V.466c.726,0,3.633.022,7.332.022,1.519,0,5.109-.022,5.615-.022V.73l-.529.022a1.268,1.268,0,0,0-.9.925l-1.321,4.14,1.872,6.563,2.951-10.7c.154-.55-.066-.925-.595-.925l-.66-.022V.466c.594,0,.991.022,1.585.022.507,0,.969-.022,1.454-.022V.73l-.507.022c-.33,0-.748.419-.9.925ZM333.489.752c-.221,0-.286.176-.221.374L336.4,12.467l1.277-3.831-2.2-7.465c-.066-.242-.177-.419-.441-.419Zm4.977,0c-.2,0-.264.176-.2.374L339.3,5.245l1.144-3.655c.177-.595,0-.837-.484-.837Z" transform="translate(-111.19 -0.158)" fill="#fff"/>
      <path id="Path_53" data-name="Path 53" d="M361.577,15.44c1.013,0,1.827-1.035,2.334-1.916a15.177,15.177,0,0,0,1.145-2.774h.242l-.285,4.977L357.7,15.7c-.858,0-1.982.022-2.841.022v-.264l1.124-.022c.308,0,.33-.242.33-.44V1.193c0-.2-.022-.44-.33-.44L354.86.73V.466c.859,0,1.982.022,2.841.022l7-.022.132,4.272h-.242a10.519,10.519,0,0,0-.859-2.092c-.44-.88-1.211-1.894-1.806-1.894H359.4c-.287,0-.331.242-.331.44V7.6c2.357,0,2.929-.66,3.259-3.061h.242v6.408H362.3c-.375-2.774-1.321-3.061-3.237-3.061V15c0,.2.044.44.331.44Z" transform="translate(-119.834 -0.158)" fill="#fff"/>
      <path id="Path_54" data-name="Path 54" d="M378.166,15.44c1.013,0,1.828-1.035,2.334-1.916a15.173,15.173,0,0,0,1.145-2.774h.242l-.286,4.977-7.311-.022c-.858,0-1.982.022-2.841.022v-.264l1.123-.022c.309,0,.33-.242.33-.44V1.193c0-.2-.022-.44-.33-.44L371.45.73V.466c.859,0,1.982.022,2.841.022l7-.022.132,4.272h-.242a10.509,10.509,0,0,0-.858-2.092c-.44-.88-1.211-1.894-1.806-1.894h-2.533c-.286,0-.33.242-.33.44V7.6c2.356,0,2.929-.66,3.259-3.061h.242v6.408h-.264c-.375-2.774-1.321-3.061-3.237-3.061V15c0,.2.044.44.33.44Z" transform="translate(-125.437 -0.158)" fill="#fff"/>
      <path id="Path_55" data-name="Path 55" d="M396.826,1.566c.352-.551.154-.815-.264-.815L395.57.729V.465c.727,0,1.256.023,1.96.023.574,0,1.322-.023,1.872-.023V.729l-.815.023a1.71,1.71,0,0,0-1.388.881l-2.841,4.294,4.735,9.029a.806.806,0,0,0,.726.485l.617.022v.264h-5.77v-.264l1.1-.022c.264,0,.375-.176.242-.419L392.576,8.26h-.331V15c0,.2.044.44.331.44l1.079.022v.264c-.815,0-1.96-.022-2.775-.022-.858,0-1.982.022-2.841.022v-.264l1.124-.022c.308,0,.33-.242.33-.44V1.192c0-.2-.022-.44-.33-.44L388.039.729V.465c.859,0,1.982.023,2.841.023.815,0,2-.023,2.819-.023V.729l-1.123.023c-.287,0-.331.242-.331.44V7.931h.374Z" transform="translate(-131.039 -0.157)" fill="#fff"/>
    </g>
  </g>
</svg>
