<svg xmlns="http://www.w3.org/2000/svg" width="50" height="50" viewBox="0 0 50 50">
  <g id="tictok" transform="translate(-748 -10151)">
    <g id="Ellipse_8" data-name="Ellipse 8" transform="translate(748 10151)" fill="#fff" stroke="#fff" stroke-width="1">
      <circle cx="25" cy="25" r="25" stroke="none"/>
      <circle cx="25" cy="25" r="24.5" fill="none"/>
    </g>
    <path id="Icon_akar-tiktok-fill" data-name="Icon akar-tiktok-fill" d="M18.187,5.3a4.447,4.447,0,0,1-.384-.224,5.4,5.4,0,0,1-.987-.838,4.648,4.648,0,0,1-1.112-2.3h0a2.788,2.788,0,0,1-.043-.818H12.309V14.092c0,.174,0,.346-.007.516,0,.021,0,.04,0,.063a.11.11,0,0,1,0,.029v.008a2.846,2.846,0,0,1-1.432,2.26,2.8,2.8,0,0,1-1.388.366,2.848,2.848,0,0,1,0-5.7,2.8,2.8,0,0,1,.871.139l0-3.415a6.229,6.229,0,0,0-4.8,1.406,6.58,6.58,0,0,0-1.436,1.77,6.133,6.133,0,0,0-.74,2.817,6.644,6.644,0,0,0,.36,2.226v.009a6.537,6.537,0,0,0,.91,1.66A6.817,6.817,0,0,0,6.1,19.62v-.009l.008.009a6.28,6.28,0,0,0,3.423,1.03,6.071,6.071,0,0,0,2.541-.561,6.375,6.375,0,0,0,2.063-1.551,6.447,6.447,0,0,0,1.125-1.868,6.992,6.992,0,0,0,.4-2.136V7.653c.041.024.583.383.583.383a7.747,7.747,0,0,0,2,.826,11.537,11.537,0,0,0,2.05.281V5.813A4.351,4.351,0,0,1,18.186,5.3Z" transform="translate(760.821 10164.875)" fill="#141419"/>
  </g>
</svg>
