<svg xmlns="http://www.w3.org/2000/svg" width="375" height="126.233"><defs><clipPath id="a"><path fill="none" d="M0 0h347.148v126.233H0z"/></clipPath><clipPath id="b"><path transform="translate(-14)" fill="none" d="M0 0h375v126.233H0z"/></clipPath></defs><path d="M33.801 118.461l6.638-5.221-1.814 5.53-6.061-.038v4.756l2.268 2.281h-9.9l2.268-2.32v-4.717h-9.438v-.271l7.215-19.76h5.443l-12.41 19.76h9.194v-6.419h5.36v6.419z"/><g clip-path="url(#a)" transform="translate(14)"><path d="M22.977 126.662H8.816l3.5-3.576v-3.465H2.87v-.271h-.474l.474-.755v-.3l7.484-20.494h7.681l-12.41 19.76h6.687v-6.419h7.145v6.419h.035l8.715-6.854-2.937 8.952-5.814-.037v3.49zm-9.92-1.785h5.63l-1.015-1.021v-10.921h-3.576v10.879zm8.951-7.016l1.973.013.691-2.108zM11.602 99.594l-4.45 12.186 7.654-12.186z"/></g><path d="M56.067 98.701l-11.751 27.068-.7-.271L55.325 98.43z"/><g clip-path="url(#b)" transform="translate(14)"><path d="M40.84 97.303l2.423.884-12.468 28.723-2.366-.914zm21.925 23.401l.042 5.066H45.366c5.937-6.728 12.658-15.7 12.658-22.389.082-2.591-1.154-4.64-3.793-4.64a8.278 8.278 0 00-2.144.31l-5.277 7.5-.412-5.723c2.309-1.083 5.525-2.32 7.834-2.32 5.484 0 9.483 2.281 9.483 6.729 0 5.993-7.051 11.6-13.689 15.467z"/><path d="M63.706 126.666H43.388l1.309-1.483q1.62-1.836 3.04-3.583H46.72l1.907-1.111a69.125 69.125 0 004.535-6.394c2.634-4.262 3.969-7.866 3.969-10.711v-.028a4.04 4.04 0 00-.9-2.965 2.667 2.667 0 00-2-.755 6.893 6.893 0 00-1.6.2l-6.527 9.278-.637-8.831.555-.26c1.915-.9 5.529-2.4 8.213-2.4 6.4 0 10.376 2.92 10.376 7.621 0 5.708-5.719 10.857-11.428 14.575h10.472zm-16.383-1.785h14.583l-.027-3.281H50.024q-1.264 1.597-2.7 3.277zm11.592-21.483c0 3.179-1.429 7.093-4.236 11.635q-.877 1.42-1.942 2.935a37.966 37.966 0 005.984-4.823c2.72-2.764 4.1-5.423 4.1-7.905a4.893 4.893 0 00-2.289-4.29 8.385 8.385 0 00-2.457-1.084 6.284 6.284 0 01.841 3.528zm-11.585-2.014l.188 2.61 2.624-3.73c-.881.302-1.827.674-2.811 1.117zm40.092 15.415c0 5.143-4.742 9.164-9.978 9.164-5.4 0-9.813-4.1-9.813-9.164a9.015 9.015 0 014.783-7.889 6.238 6.238 0 01-2.02-4.756c0-3.016 3.587-5.646 6.968-5.646 3.5 0 6.35 1.934 6.35 5.143 0 1.005-.413 2.9-3.092 4.331 4.741 1.817 6.8 4.447 6.8 8.817m-8.329-4.254c-3.257-1.353-5.03-2.2-6.432-3.4a4.88 4.88 0 00-1.814 3.867c0 6.342 6.968 11.253 10.637 11.253 2.309 0 3.711-2.359 3.711-4.486 0-3.132-2.639-5.8-6.1-7.231m-5.52-11.449c0 2.591 2.762 5.336 5.442 6.3l1.2.425c1.4-2.32-1.938-8.584-4.906-8.584a1.74 1.74 0 00-1.732 1.856"/><path d="M77.444 126.855c-5.9 0-10.705-4.511-10.705-10.057a9.857 9.857 0 014.287-8.081 7.16 7.16 0 01-1.525-4.564 6.085 6.085 0 012.558-4.656 8.783 8.783 0 015.3-1.882 8.265 8.265 0 015.033 1.553 5.545 5.545 0 012.209 4.483 4.989 4.989 0 01-.656 2.444 6.152 6.152 0 01-1.466 1.719c4.019 1.949 5.832 4.772 5.832 8.985a9.583 9.583 0 01-3.322 7.175 11.45 11.45 0 01-7.545 2.881zm-7.437-14.663a7.943 7.943 0 00-1.483 4.606c0 4.561 4 8.272 8.92 8.272a9.434 9.434 0 002.076-.234 14.307 14.307 0 01-5.334-3.166 11.933 11.933 0 01-4.232-8.662 6.32 6.32 0 01.053-.815zm2.708-1.868a4.029 4.029 0 00-.976 2.685c0 3.474 2.289 6.094 3.654 7.347a10.329 10.329 0 006.091 3.013 2.493 2.493 0 002.006-1.087 4.326 4.326 0 00.812-2.506c0-2.537-2.127-4.992-5.55-6.406a28.758 28.758 0 01-6.037-3.046zm.539-1.849c1.32 1.124 3.048 1.944 6.181 3.246a12.685 12.685 0 014.676 3.211 7.435 7.435 0 011.962 4.423 7.4 7.4 0 00.455-2.556c0-3.974-1.8-6.287-6.23-7.983l-.286-.11-1.3-.463a10.569 10.569 0 01-4.088-2.784 6.866 6.866 0 01-1.942-4.142 4.052 4.052 0 00-1.4 2.837 5.345 5.345 0 001.738 4.105zm2.045-8.34a.864.864 0 00-.839.963 4.976 4.976 0 001.485 3.161 8.725 8.725 0 003.368 2.3l.325.116a7.049 7.049 0 00-1.059-3.638c-.98-1.734-2.298-2.902-3.279-2.902zm2.6-.717q.087.071.173.146a9.941 9.941 0 012.056 2.6 10.481 10.481 0 011.187 3.152 6.26 6.26 0 01.106 1.047 3.593 3.593 0 001.392-2.711 3.747 3.747 0 00-1.512-3.068 6.239 6.239 0 00-3.396-1.166zm45.23-.717l1.773 8.043-7.3-7.734h-2.144v24.4l2.227 2.359h-9.813l2.226-2.359v-24.4h-2.144l-7.337 7.734 1.773-8.043z"/><path d="M101.672 97.809h22.173l2.623 11.9-9.25-9.8h-.867v23.153l3.4 3.606h-13.947l3.4-3.606V99.903h-.868l-9.285 9.784zm4.5 1.785h-3.065l-.927 4.207zm8.4 0h-3.575v24.171l-1.049 1.112h5.669l-1.049-1.112zm7.844 0h-3.03l3.954 4.19zm23.597 23.817l2.226 2.359h-9.813l2.226-2.359v-11.524a3.7 3.7 0 00-3.546-3.751 4.67 4.67 0 00-3.257 1.547v13.728l2.227 2.359h-9.813l2.226-2.359v-16.357c0-4.756 2.515-8.082 7.009-8.082 3.464 0 5.36 2.011 5.36 4.408a4.034 4.034 0 01-1.773 3.055 8.962 8.962 0 011.4-.116 5.325 5.325 0 015.525 5.53zm-5.484-20.031a3.557 3.557 0 00-3.257-3.635c-2.309 0-3.422 2.63-3.422 5.414v4.215a12.313 12.313 0 013.789-2.514c1.937-.812 2.886-1.972 2.886-3.48"/><path d="M150.309 126.662h-26.116l3.4-3.606v-16a9.826 9.826 0 012.027-6.4 7.371 7.371 0 015.875-2.578 6.763 6.763 0 014.57 1.529 4.964 4.964 0 011.682 3.772 4.2 4.2 0 01-.592 2.076 6.25 6.25 0 014.022 1.882 6.5 6.5 0 011.724 4.51v11.207zm-15.57-3.606l2.509 2.658 2.509-2.658v-11.169a2.8 2.8 0 00-2.653-2.858 3.634 3.634 0 00-2.365 1.036zm5.754 1.821h5.673l-1.049-1.112v-11.916a4.723 4.723 0 00-1.234-3.282 4.544 4.544 0 00-3.4-1.355 8.025 8.025 0 00-1.264.105l-.662.1-.1.048a4.4 4.4 0 011.833 1.218 4.814 4.814 0 011.248 3.2v11.878zm-12.163 0h5.674l-1.049-1.112v-18.606a8.7 8.7 0 01.96-4.189 4.729 4.729 0 01.81-1.068 5.364 5.364 0 00-3.733 1.9 8.087 8.087 0 00-1.612 5.252v16.712zm8.939-24.239a2.016 2.016 0 00-1.8 1.209 6.911 6.911 0 00-.73 3.312v2.313a12.96 12.96 0 012.549-1.432h.007c1-.421 2.339-1.154 2.339-2.657a2.677 2.677 0 00-2.362-2.745zm33.153 5.836v19.3h-2.227l-3.01-3.171a9.891 9.891 0 01-6.722 3.283 5.326 5.326 0 01-5.525-5.491v-11.6l-1.814-2.359h7.174v13.92a3.462 3.462 0 003.5 3.48 4.725 4.725 0 003.257-1.585v-13.457l-1.814-2.359z"/><path d="M161.428 105.536l9.887.054v21.076h-3.5l-2.656-2.8a10.32 10.32 0 01-6.696 2.912 6.217 6.217 0 01-6.418-6.383v-11.3l-2.734-3.555h9.879v14.816a2.575 2.575 0 002.612 2.588 3.651 3.651 0 002.365-1.073v-12.774zm-4.02 1.795h-4.469l.894 1.163v11.9a4.6 4.6 0 001.294 3.3 4.668 4.668 0 003.338 1.3 6.507 6.507 0 002.208-.412 4.467 4.467 0 01-1.912-1.051 4.3 4.3 0 01-1.354-3.174zm12.122.034l-4.467-.029.887 1.153v13.622l2.625 2.765h.951zm11.694 7.848h13.359v.735h-13.359z"/><path d="M180.331 114.321h15.144v2.52h-15.144zm20.231 2.438h5.36c.33 4.176 3.711 8.2 7.256 8.2 2.433 0 3.339-2.552 3.339-4.872 0-4.64-3.834-10.673-8.535-10.673a5.65 5.65 0 00-1.938.309l-2.6.928-.082-.077 1.567-11.871h12.864v5.027h-13.149l-.867 6.491 3.216-1.122a14.017 14.017 0 014.288-.812c5.484-.155 9.607 3.48 9.607 8.2 0 5.181-5.071 9.474-10.72 9.474-5.278 0-9.483-3.441-9.606-9.2"/><path d="M210.168 126.855a10.782 10.782 0 01-7.339-2.675 10.033 10.033 0 01-3.16-7.4l-.02-.912h7.1l.065.822a9.127 9.127 0 002.206 5.149 5.786 5.786 0 004.161 2.226 1.973 1.973 0 001.807-1.117 5.9 5.9 0 00.64-2.863 11.693 11.693 0 00-2.329-6.546 9.3 9.3 0 00-2.469-2.356 5.338 5.338 0 00-2.843-.879 4.751 4.751 0 00-1.642.259l-3.108 1.11-.244-.229-.289.1.044-.331-.324-.306 1.729-13.1h14.539v6.814h-13.267l-.571 4.283 1.842-.643a14.923 14.923 0 014.561-.863c.12 0 .241-.005.361-.005a10.789 10.789 0 017.222 2.595 8.613 8.613 0 012.941 6.5 9.043 9.043 0 01-.974 4.064 10.69 10.69 0 01-2.573 3.288 12.437 12.437 0 01-8.066 3.015zm-8.656-9.2a8.06 8.06 0 002.523 5.211 9.007 9.007 0 006.133 2.207h.051a8.987 8.987 0 01-2.549-2.059 11.058 11.058 0 01-2.538-5.358zm9.4-8.452a8.369 8.369 0 01.858.47 10.942 10.942 0 012.958 2.807 13.367 13.367 0 012.68 7.608 8.813 8.813 0 01-.313 2.378 7.977 7.977 0 002.9-5.974c0-4.167-3.6-7.31-8.378-7.31h-.311q-.194.006-.391.018zm-5.628-6.365h11.617v-3.242h-11.186zm31.891-4.137l-11.751 27.068-.7-.271 11.709-27.068z"/><path d="M235.948 97.303l2.423.884-12.469 28.723-2.367-.914zm24.729 19.496c0 5.143-4.742 9.164-9.978 9.164-5.4 0-9.813-4.1-9.813-9.164a9.015 9.015 0 014.783-7.889 6.238 6.238 0 01-2.02-4.756c0-3.016 3.587-5.646 6.968-5.646 3.5 0 6.35 1.934 6.35 5.143 0 1.005-.413 2.9-3.092 4.331 4.741 1.817 6.8 4.447 6.8 8.817m-8.329-4.254c-3.257-1.353-5.03-2.2-6.432-3.4a4.88 4.88 0 00-1.814 3.867c0 6.342 6.968 11.253 10.638 11.253 2.309 0 3.711-2.359 3.711-4.486 0-3.132-2.639-5.8-6.1-7.231m-5.525-11.446c0 2.591 2.762 5.336 5.442 6.3l1.2.425c1.4-2.32-1.938-8.584-4.906-8.584a1.74 1.74 0 00-1.732 1.856"/><path d="M250.699 126.855c-5.9 0-10.705-4.511-10.705-10.057a9.857 9.857 0 014.287-8.081 7.16 7.16 0 01-1.525-4.564 6.085 6.085 0 012.558-4.656 8.783 8.783 0 015.3-1.882 8.265 8.265 0 015.031 1.551 5.545 5.545 0 012.209 4.483 4.989 4.989 0 01-.656 2.444 6.153 6.153 0 01-1.466 1.719c4.019 1.949 5.832 4.772 5.832 8.985a9.583 9.583 0 01-3.322 7.175 11.45 11.45 0 01-7.543 2.883zm-7.437-14.663a7.943 7.943 0 00-1.483 4.606c0 4.561 4 8.272 8.92 8.272a9.433 9.433 0 002.076-.234 14.307 14.307 0 01-5.33-3.17 11.933 11.933 0 01-4.232-8.662 6.319 6.319 0 01.049-.811zm2.708-1.868a4.029 4.029 0 00-.976 2.685c0 3.474 2.289 6.094 3.654 7.347a10.329 10.329 0 006.091 3.013 2.493 2.493 0 002.006-1.087 4.326 4.326 0 00.812-2.506c0-2.537-2.127-4.992-5.55-6.406a28.758 28.758 0 01-6.037-3.046zm.539-1.849c1.32 1.125 3.048 1.944 6.181 3.246a12.685 12.685 0 014.676 3.211 7.435 7.435 0 011.962 4.423 7.4 7.4 0 00.456-2.556c0-3.974-1.8-6.287-6.23-7.983l-.286-.11-1.3-.463a10.569 10.569 0 01-4.088-2.784 6.866 6.866 0 01-1.942-4.142 4.052 4.052 0 00-1.4 2.837 5.345 5.345 0 001.738 4.105zm2.045-8.34a.864.864 0 00-.839.963 4.976 4.976 0 001.485 3.161 8.725 8.725 0 003.368 2.3l.325.115a7.048 7.048 0 00-1.059-3.638c-.98-1.733-2.298-2.901-3.279-2.901zm2.6-.717q.087.071.173.146a9.942 9.942 0 012.056 2.6 10.481 10.481 0 011.187 3.152 6.259 6.259 0 01.106 1.047 3.593 3.593 0 001.392-2.711 3.747 3.747 0 00-1.512-3.068 6.239 6.239 0 00-3.396-1.166zm45.105 19.082c0 4.486-3.752 7.27-8.823 7.27l-11.464-.039-1.278-8.159 6.885 6.96a15.338 15.338 0 005.278.851c3.134 0 6.35-.541 6.35-3.287 0-3.364-4.659-5.452-8.04-6.96l-5.154-2.281c-2.639-1.16-5.483-3.326-5.483-7 0-2.049.866-4.795 3.092-6.071 1.484-.851 3.381-1.083 5.978-1.083h9.772l1.154 8.236-6.226-6.883a12.091 12.091 0 00-4.7-.967c-3.711-.077-7.133.7-7.133 3.48 0 2.862 4.948 4.485 9.071 6.071 6.02 2.32 10.72 4.176 10.72 9.861"/><path d="M287.436 126.663l-12.223-.041-1.823-11.642 8.688 8.783a14.584 14.584 0 004.784.729 11.213 11.213 0 004.018-.55c1.275-.51 1.439-1.254 1.439-1.844 0-1.181-.778-2.309-2.378-3.449a30.721 30.721 0 00-5.134-2.7l-5.152-2.28a11.779 11.779 0 01-4.03-2.773 7.305 7.305 0 01-1.984-5.042c0-2.222.927-5.347 3.541-6.845 1.488-.853 3.348-1.2 6.422-1.2h10.548l1.665 11.882-8.043-8.892a11.278 11.278 0 00-4.17-.819h-.489a11.132 11.132 0 00-4.281.669c-1.318.581-1.471 1.377-1.471 1.924 0 2.014 4.147 3.586 7.48 4.85.343.13.684.259 1.019.388a32.666 32.666 0 017.837 3.791 8.734 8.734 0 012.523 2.872 8.4 8.4 0 01.932 4.03 7.783 7.783 0 01-.754 3.417 7.479 7.479 0 01-2.091 2.6 10.852 10.852 0 01-6.873 2.142zm-10.7-1.821l3.907.013-4.639-4.69zm-.974-21.165a7.39 7.39 0 00-.34 2.179c0 3.311 2.692 5.189 4.95 6.182l5.156 2.282a32.07 32.07 0 015.445 2.874 9.012 9.012 0 012.182 2.093 4.813 4.813 0 01.945 2.81v.128a5.776 5.776 0 001.268-3.724 6.353 6.353 0 00-2.75-5.481 31.543 31.543 0 00-7.4-3.547c-.332-.128-.67-.256-1.011-.385a37.515 37.515 0 01-5.621-2.474 5.979 5.979 0 01-2.823-2.938zm13.325-4.082l4.152 4.59-.643-4.59zm30.015 6.879v19.3h-2.227l-3.01-3.171a9.891 9.891 0 01-6.721 3.287 5.326 5.326 0 01-5.525-5.491v-11.6l-1.814-2.359h7.174v13.916a3.462 3.462 0 003.5 3.48 4.725 4.725 0 003.257-1.585v-13.457l-1.814-2.359z"/><path d="M310.108 105.536l9.887.054v21.076h-3.5l-2.655-2.8a10.321 10.321 0 01-6.692 2.914 6.438 6.438 0 01-4.6-1.817 6.374 6.374 0 01-1.819-4.566v-11.3l-2.733-3.555h9.879v14.814a2.575 2.575 0 002.612 2.588 3.652 3.652 0 002.365-1.073v-12.774zm-4.02 1.795h-4.469l.894 1.163v11.9a4.6 4.6 0 001.294 3.3 4.667 4.667 0 003.338 1.3 6.506 6.506 0 002.208-.412 4.467 4.467 0 01-1.911-1.051 4.3 4.3 0 01-1.354-3.174zm12.122.034l-4.462-.024.887 1.153v13.622l2.625 2.765h.951zm26.084 16.045l2.227 2.359h-9.813l2.226-2.359v-11.523a3.537 3.537 0 00-3.463-3.519 4.616 4.616 0 00-3.257 1.508v13.534l2.226 2.359h-9.813l2.227-2.359v-12.954l-2.227-1.392 7.587-2.63v2.978a9.827 9.827 0 016.6-3.093 5.343 5.343 0 015.484 5.53z"/><path d="M348.591 126.662h-26.034l3.4-3.606v-12.1l-3.389-2.119 10.534-3.651v2.314a9.686 9.686 0 015.7-2.069 6.325 6.325 0 014.6 1.876 6.475 6.475 0 011.772 4.546v11.207zm-15.485-3.606l2.468 2.615 2.468-2.615v-11.169a2.612 2.612 0 00-.787-1.865 2.568 2.568 0 00-1.783-.761 3.622 3.622 0 00-2.365 1zm5.671 1.821h5.674l-1.049-1.112v-11.916a4.7 4.7 0 00-1.269-3.3 4.5 4.5 0 00-3.322-1.333 6.586 6.586 0 00-2.236.416 4.449 4.449 0 011.937 1.127 4.385 4.385 0 011.315 3.133v11.878zm-12.08 0h5.673l-1.049-1.112v-16.076l-4.639 1.608 1.064.665v13.8z"/><path d="M30.399 28.231l5.439 5.093H24.629l5.274-4.857L6.008 3.805v24.426l5.438 5.093H.074l5.439-5.093V3.239L2.656.315h9.394l17.855 18.673V5.408L24.466.315h11.372l-5.439 5.093z" fill="#231815"/><path d="M35.838 33.568H24.629a.245.245 0 01-.166-.424l5.089-4.687-23.3-24.049v23.717l5.361 5.02a.245.245 0 01-.167.423H.074a.245.245 0 01-.167-.423l5.361-5.02V3.338L2.481.486a.244.244 0 01.175-.415h9.394a.245.245 0 01.179.075l17.431 18.23V5.514L24.299.494a.245.245 0 01.167-.423h11.372a.245.245 0 01.167.423l-5.361 5.02v22.611l5.361 5.02a.245.245 0 01-.167.423zm-10.581-.492h9.962l-4.99-4.667a.245.245 0 01-.077-.178V5.408a.245.245 0 01.077-.178L35.216.56H25.085l4.987 4.67a.244.244 0 01.077.178v13.58a.245.245 0 01-.421.169L11.946.56H3.237l2.451 2.508a.244.244 0 01.07.171v24.992a.245.245 0 01-.077.178L.693 33.076h10.136l-4.987-4.67a.244.244 0 01-.077-.178V3.805a.245.245 0 01.42-.17l23.9 24.662a.245.245 0 01-.01.35zm17.172-2.629V3.191L39.462.315h23.952v6.361L49.571.876v12.4l13.844-.047v6.366l-13.844-5.753v18.915l17.69-5.8v6.366h-27.8z" fill="#231815"/><path d="M67.261 33.568h-27.8a.245.245 0 01-.17-.42l2.892-2.8V3.295l-2.892-2.8a.245.245 0 01.17-.42h23.952a.245.245 0 01.244.244v6.357a.244.244 0 01-.339.226L49.815 1.248v11.789l13.6-.046a.244.244 0 01.245.245v6.366a.245.245 0 01-.338.226l-13.506-5.613V32.42l17.369-5.695a.245.245 0 01.321.232v6.366a.245.245 0 01-.245.245zm-27.195-.492h26.95v-5.781L49.649 32.99a.244.244 0 01-.321-.232v-18.91a.244.244 0 01.338-.226l13.506 5.613v-5.759l-13.6.046a.244.244 0 01-.245-.245V.876a.244.244 0 01.339-.226l13.505 5.658V.559h-23.1l2.528 2.457a.244.244 0 01.074.176v27.255a.244.244 0 01-.074.176zM109.947.315h11.317l-5.329 5-7.142 24.471v3.537h-6.318l-7.471-24.52-6.1 20.983v3.537h-6.318L73.249 3.144 70.227.315h13.515L80.72 3.144l7.911 25.7 6.153-21.173V.315h4.89l.055.047 8.79 28.481 6.813-23.436z" fill="#231815"/><path d="M70.227.07h13.515a.245.245 0 01.167.423l-2.91 2.725 7.626 24.772L94.54 7.636V.315a.245.245 0 01.245-.245h4.89a.244.244 0 01.16.06l.055.047a.244.244 0 01.073.113l8.549 27.7 6.542-22.507-5.276-4.99a.245.245 0 01.168-.422h11.318a.245.245 0 01.167.423l-5.28 4.953-7.113 24.375v3.5a.245.245 0 01-.245.245h-6.318a.245.245 0 01-.234-.173L95.009 9.659 89.15 29.82v3.5a.245.245 0 01-.245.245h-6.318a.245.245 0 01-.234-.172L73.034 3.276 70.06.491a.244.244 0 01.167-.423zm12.9.489H70.846l2.57 2.406a.244.244 0 01.066.106l9.286 30.005h5.893v-3.29a.245.245 0 01.01-.068l6.1-20.984a.245.245 0 01.233-.176.244.244 0 01.234.173l7.418 24.345h5.892v-3.29a.245.245 0 01.01-.068l7.146-24.473a.244.244 0 01.067-.11l4.878-4.576h-10.088l4.938 4.671a.245.245 0 01.067.246l-6.812 23.436a.245.245 0 01-.468 0L99.533.559h-4.5v7.112a.245.245 0 01-.01.068L88.87 28.912a.245.245 0 01-.468 0l-7.911-25.7a.244.244 0 01.067-.25zm82.193 23.899c0 5.47-5 8.865-11.757 8.865l-15.272-.047-1.7-9.95 9.175 8.488a22.153 22.153 0 007.032 1.038c4.175 0 8.46-.66 8.46-4.008 0-4.1-6.208-6.649-10.713-8.488l-6.87-2.78c-3.516-1.414-7.307-4.055-7.307-8.535a8.4 8.4 0 014.12-7.4c1.978-1.037 4.505-1.32 7.966-1.32h13.02l1.538 10.044-8.3-8.394a17.407 17.407 0 00-6.263-1.179c-4.945-.095-9.5.848-9.5 4.244 0 3.489 6.592 5.47 12.086 7.4 8.021 2.829 14.284 5.093 14.284 12.024" fill="#231815"/><path d="M153.563 33.568l-15.273-.047a.245.245 0 01-.24-.2l-1.7-9.95a.245.245 0 01.407-.221l9.137 8.452a21.784 21.784 0 006.9 1.008 17.168 17.168 0 005.712-.734c1.685-.617 2.5-1.608 2.5-3.03 0-1.729-1.163-3.328-3.556-4.888a43.116 43.116 0 00-7-3.374l-6.867-2.782a14.868 14.868 0 01-5.053-3.172 7.737 7.737 0 01-2.406-5.589 9.644 9.644 0 01.976-4.165 7.629 7.629 0 013.279-3.457c1.826-.958 4.167-1.348 8.08-1.348h13.02a.244.244 0 01.242.207l1.538 10.044a.244.244 0 01-.416.209l-8.264-8.355a17.259 17.259 0 00-6.125-1.142c-.223 0-.441-.006-.654-.006a16.82 16.82 0 00-6.091.89c-1.669.674-2.515 1.722-2.515 3.115 0 1.336 1.08 2.573 3.3 3.782a51.481 51.481 0 007.269 2.92l1.352.471c3.895 1.374 7.573 2.671 10.208 4.5a8.859 8.859 0 014.239 7.751 8.017 8.017 0 01-3.444 6.681 14.588 14.588 0 01-8.555 2.43zm-15.063-.536l13.158.04a21.327 21.327 0 01-5.972-1.028.245.245 0 01-.087-.052l-8.646-8zm16.7-.024q-.471.038-.981.06.491-.017.975-.06zM142.919 1.023a9.4 9.4 0 00-2.317.829 7.144 7.144 0 00-3.067 3.239 9.145 9.145 0 00-.923 3.948 7.264 7.264 0 002.264 5.245 14.389 14.389 0 004.889 3.063l6.868 2.783c4.586 1.872 10.866 4.435 10.866 8.714a3.551 3.551 0 01-2.548 3.381 11.022 11.022 0 002.881-1.481 7.545 7.545 0 003.244-6.286 8.4 8.4 0 00-4.029-7.35c-2.581-1.795-6.229-3.082-10.091-4.444-.444-.156-.9-.313-1.35-.471a51.8 51.8 0 01-7.342-2.952c-2.394-1.3-3.558-2.679-3.558-4.211 0-1.612.949-2.813 2.821-3.569a10.046 10.046 0 011.392-.438zm6.283-.463a17.7 17.7 0 015.607 1.179.245.245 0 01.083.055l7.766 7.858L161.266.56zm23.863 29.887V3.191L170.098.315h13.075l-2.967 2.876v11.364h12.856V3.191L190.096.315h13.075l-2.967 2.876v27.256l2.967 2.876h-13.076l2.966-2.876V14.933h-12.854v15.514l2.967 2.876h-13.076z" fill="#231815"/><path d="M203.17 33.568h-13.075a.245.245 0 01-.17-.42l2.892-2.8V15.176h-12.366v15.167l2.892 2.8a.245.245 0 01-.17.42h-13.075a.245.245 0 01-.17-.42l2.892-2.8V3.295l-2.892-2.8a.245.245 0 01.17-.42h13.075a.245.245 0 01.17.42l-2.892 2.8v11.016h12.366V3.295l-2.892-2.8a.245.245 0 01.17-.42h13.075a.245.245 0 01.17.42l-2.892 2.8v27.048l2.892 2.8a.245.245 0 01-.17.42zm-12.471-.492h11.868l-2.535-2.454a.245.245 0 01-.074-.176V3.191a.245.245 0 01.074-.176l2.533-2.456h-11.866l2.533 2.457a.245.245 0 01.074.176v11.363a.244.244 0 01-.089.189.244.244 0 01.089.189v15.514a.245.245 0 01-.074.176zm-20 0h11.868l-2.535-2.454a.244.244 0 01-.074-.176V14.933a.244.244 0 01.089-.189.244.244 0 01-.089-.189V3.191a.244.244 0 01.074-.176l2.533-2.456h-11.863l2.53 2.457a.245.245 0 01.074.176v27.255a.245.245 0 01-.074.176zM228.275.079c10.713 0 19.558 7.5 19.558 16.74s-8.845 16.74-19.558 16.74-19.554-7.498-19.554-16.742S217.563.079 228.275.079m5.824 31.4c4.5 0 8.9-2.876 8.9-8.959 0-9.1-10.328-20.371-20.547-20.371-4.5 0-8.9 2.876-8.9 8.959 0 9.1 10.328 20.371 20.547 20.371" fill="#231815"/><path d="M228.275-.166a22.388 22.388 0 017.659 1.331 20.326 20.326 0 016.3 3.632 17.135 17.135 0 014.272 5.4 14.715 14.715 0 010 13.247 17.135 17.135 0 01-4.272 5.4 20.326 20.326 0 01-6.3 3.632 22.706 22.706 0 01-15.317 0 20.326 20.326 0 01-6.3-3.632 17.136 17.136 0 01-4.272-5.4 14.715 14.715 0 010-13.247 17.135 17.135 0 014.272-5.4 20.326 20.326 0 016.3-3.632 22.387 22.387 0 017.658-1.331zm0 33.48a21.9 21.9 0 007.492-1.3 19.841 19.841 0 006.146-3.544 16.649 16.649 0 004.152-5.244 14.226 14.226 0 000-12.811 16.649 16.649 0 00-4.152-5.244 19.839 19.839 0 00-6.146-3.544 22.218 22.218 0 00-14.984 0 19.839 19.839 0 00-6.145 3.544 16.65 16.65 0 00-4.152 5.244 14.226 14.226 0 000 12.811 16.649 16.649 0 004.152 5.244 19.839 19.839 0 006.145 3.544 21.9 21.9 0 007.492 1.303zm-5.823-31.405a17.09 17.09 0 017.63 1.929 25.1 25.1 0 016.65 4.918c4.077 4.178 6.511 9.325 6.511 13.769a8.973 8.973 0 01-2.843 6.943 9.419 9.419 0 01-6.3 2.26 17.09 17.09 0 01-7.63-1.929 25.1 25.1 0 01-6.65-4.918c-4.077-4.178-6.511-9.325-6.511-13.769a8.973 8.973 0 012.843-6.943 9.419 9.419 0 016.3-2.26zm11.647 29.33a8.932 8.932 0 005.977-2.137 8.5 8.5 0 002.679-6.578c0-4.319-2.382-9.339-6.372-13.428a24.611 24.611 0 00-6.518-4.821 16.607 16.607 0 00-7.412-1.877 8.932 8.932 0 00-5.977 2.137 8.5 8.5 0 00-2.679 6.578c0 4.319 2.382 9.339 6.372 13.428a24.61 24.61 0 006.518 4.821 16.608 16.608 0 007.412 1.877zm46.805-23.992c0 3.866-3.3 5.234-9.229 7.969-3.735 1.744-8.186 4.1-8.186 8.158v7.073l2.967 2.877h-13.075l2.967-2.877V3.191L253.381.315h18.624c5.054 0 8.9 2.971 8.9 6.932m-17.415 13.91c.714-1.792 2.362-3.253 5.384-4.951a9.737 9.737 0 004.78-8.818c0-4.48-3.3-6.7-8.68-6.7h-1.484z" fill="#231815"/><path d="M253.381.07h18.624c5.213 0 9.144 3.085 9.144 7.176a5.3 5.3 0 01-2.313 4.471 34.771 34.771 0 01-6.411 3.422l-.647.3a25.4 25.4 0 00-5.44 3.178 6.136 6.136 0 00-2.6 4.757v6.97l2.892 2.8a.245.245 0 01-.17.42h-13.079a.245.245 0 01-.17-.42l2.892-2.8V3.295l-2.892-2.8a.244.244 0 01.17-.42zm9.9.489h-9.3l2.533 2.456a.244.244 0 01.074.176v27.256a.245.245 0 01-.074.176l-2.53 2.453h11.868l-2.534-2.457a.245.245 0 01-.074-.176v-7.067a5.522 5.522 0 01.371-2.007.245.245 0 01-.371-.21V.692a.243.243 0 01.04-.133zm6.784 15.16c.5-.251 1-.492 1.5-.725l.649-.3a34.538 34.538 0 006.315-3.363 4.79 4.79 0 002.125-4.086c0-3.812-3.721-6.687-8.655-6.687h-5.024a9.245 9.245 0 014.5 1.6 6.136 6.136 0 012.42 5.224 10.176 10.176 0 01-3.827 8.337zm-6.334 4.415c.874-1.409 2.442-2.693 5.02-4.141a9.507 9.507 0 004.655-8.6 5.672 5.672 0 00-2.223-4.832 10.31 10.31 0 00-6.213-1.62h-1.239zm70.571-7.464c5.6 2.075 8.625 5.659 9.229 9.714.6 3.584-.989 6.932-4.34 9.289a11.573 11.573 0 01-6.263 1.839c-4.23 0-7.306-.943-10.053-3.489a15.075 15.075 0 01-9.889 3.3 13.269 13.269 0 01-11.481-6.083 9.245 9.245 0 01-1.044-7.12c1.263-4.574 5.6-7.875 11.1-7.875 6.153 0 10.493 3.678 13.405 8.724l1.923 3.489c1.209-2.075 4.285-7.5 3.571-6.272l-1.428-.566c-6.1-2.311-12.965-6.508-12.965-11.27a6.538 6.538 0 011.978-4.244c2.637-2.594 7.142-2.452 10-.99 2.418 1.273 4.4 3.867 2.692 7.309a8.087 8.087 0 01-2.307 2.452l5.6 1.7c3.077-4.008 6.428-6.036 10.932-6.508l-1.648 6.225h-1.923c-2.2-.047-5.274-.377-7.087.377m-16.7 9.714c-2.582-4.716-4.725-8.582-8.79-8.582-4.23 0-6.813 2.829-7.911 6.413a9.014 9.014 0 00.989 6.837 12.969 12.969 0 0011.043 5.894 14.718 14.718 0 009.669-3.206c-2.088-2.027-2.911-3.819-5-7.356m10.328-11.647a8.24 8.24 0 002.362-2.452c1.593-3.207-.22-5.611-2.527-6.79a8.675 8.675 0 00-3.845-1.038c-3.461 0-5.659 1.792-5.878 3.678a3.219 3.219 0 001.758 3.442 41.091 41.091 0 008.13 3.159m2.967 7.592l-3.791 6.6c1.7 3.159 3.571 6.507 6.263 7.4 4.285 1.132 7.746-1.745 7.087-5.046-.6-3.348-4.34-6.837-9.559-8.959" fill="#231815"/><path d="M323.538-.17A10.3 10.3 0 01328.15.899a6.72 6.72 0 013 2.954 5.239 5.239 0 01-.2 4.681 7.573 7.573 0 01-2.01 2.245l5 1.514c3.111-4 6.51-6 11-6.468a.245.245 0 01.262.306l-1.648 6.225a.244.244 0 01-.236.182h-1.928c-.425-.009-.876-.029-1.354-.049a51.965 51.965 0 00-2.214-.063 11.621 11.621 0 00-2.788.264c5.022 2.035 8.118 5.446 8.746 9.659a8.711 8.711 0 01-.707 5.244 10.984 10.984 0 01-3.734 4.281 11.923 11.923 0 01-6.4 1.884c-4.387 0-7.411-1.022-10.06-3.409a13.428 13.428 0 01-4.576 2.443 17.7 17.7 0 01-5.306.778 14.578 14.578 0 01-6.845-1.673 12.513 12.513 0 01-4.846-4.528 9.485 9.485 0 01-1.071-7.312c1.331-4.818 5.885-8.055 11.333-8.055a13.8 13.8 0 018.058 2.514 19.42 19.42 0 015.559 6.332l1.716 3.115a748.372 748.372 0 003.223-5.648l-1.176-.466a34.873 34.873 0 01-8.83-4.75c-2.847-2.22-4.29-4.49-4.29-6.747a6.757 6.757 0 012.055-4.422 7.978 7.978 0 015.655-2.1zm-5.739 4.271a3.914 3.914 0 011.829-2.715 6.377 6.377 0 011.632-.782 6.755 6.755 0 00-3.047 1.678l-.008.007a6.305 6.305 0 00-1.9 4.062 5.943 5.943 0 001.127 3.309 13.706 13.706 0 002.975 3.053 34.386 34.386 0 008.706 4.68l1.24.491a.215.215 0 01.208-.12.245.245 0 01.212.123.206.206 0 01.006.226.244.244 0 01.207-.011 21.586 21.586 0 016.585 4.068 9.6 9.6 0 013.123 5.074 4.274 4.274 0 01-.919 3.6q-.114.14-.239.27a10.245 10.245 0 003.086-3.73 8.235 8.235 0 00.667-4.96c-.627-4.21-3.849-7.591-9.073-9.525a.223.223 0 00-.261-.089l-5.6-1.7a.244.244 0 01-.172-.258l-.106.079a.244.244 0 01-.218.037 41.469 41.469 0 01-8.183-3.183 3.462 3.462 0 01-1.878-3.684zm12.276 4.071a4.353 4.353 0 00.195-3.938 5.7 5.7 0 00-2.616-2.521h-.008a8.392 8.392 0 00-3.73-1.007 7.132 7.132 0 00-4.014 1.09 3.435 3.435 0 00-1.618 2.372v.012a2.971 2.971 0 001.643 3.193 40.519 40.519 0 007.958 3.1 7.655 7.655 0 002.19-2.302zm13.049 3.877l1.508-5.7c-4.07.509-7.213 2.367-10.1 5.97a10.746 10.746 0 013.279-.386c.751 0 1.505.032 2.234.064.474.02.922.04 1.341.049zm-16.238 12.655a.245.245 0 01-.211-.126l-1.929-3.491a18.932 18.932 0 00-5.413-6.172 13.321 13.321 0 00-7.778-2.426 11.821 11.821 0 00-7.364 2.459 7.852 7.852 0 014.617-1.392c4.234 0 6.444 4.034 9 8.706.388.658.74 1.267 1.05 1.8a22.153 22.153 0 003.907 5.5.239.239 0 00.27.279c2.589 2.4 5.546 3.424 9.887 3.424a12.673 12.673 0 003.527-.547 6.759 6.759 0 01-1.203.112 7.613 7.613 0 01-1.941-.259h-.015c-2.861-.952-4.824-4.593-6.4-7.519a.244.244 0 010-.238l.067-.117a.244.244 0 01-.072.006zm-4.652 5.018a23.191 23.191 0 01-3.794-5.41c-.31-.537-.661-1.147-1.049-1.8v-.007a34.626 34.626 0 00-3.808-6.016 6.143 6.143 0 00-4.767-2.44 7.286 7.286 0 00-4.968 1.8 9.6 9.6 0 00-2.708 4.434 8.75 8.75 0 00.962 6.643 12.372 12.372 0 002.867 3.112 12.681 12.681 0 007.967 2.666 14.63 14.63 0 009.297-2.983zm13.013 2.618a5.293 5.293 0 004.152-1.806 3.8 3.8 0 00.817-3.2c-.579-3.208-4.186-6.606-9.214-8.7l-3.616 6.3c1.523 2.826 3.417 6.283 6.053 7.165a7.121 7.121 0 001.807.24zM11.062 54.135v27.256l2.967 2.876H.954l2.967-2.876V54.135L.954 51.259h13.075z" fill="#231815"/><path d="M.954 51.014h13.075a.245.245 0 01.17.42l-2.892 2.8v27.049l2.892 2.8a.245.245 0 01-.17.42H.954a.245.245 0 01-.17-.42l2.892-2.8V54.239l-2.892-2.8a.245.245 0 01.17-.42zm12.472.489H1.557l2.533 2.456a.245.245 0 01.074.176v27.256a.244.244 0 01-.074.176l-2.533 2.457h11.868l-2.533-2.456a.244.244 0 01-.074-.176V54.135a.245.245 0 01.074-.176zm34.497-.244l2.362 9.808-9.724-9.431h-2.856v29.755l2.967 2.876H27.597l2.967-2.876V51.636h-2.858l-9.779 9.431 2.362-9.808z" fill="#231815"/><path d="M20.29 51.014h27.633a.245.245 0 01.238.187l2.362 9.808a.245.245 0 01-.408.233l-9.653-9.362h-2.513v29.407l2.892 2.8a.245.245 0 01-.17.42H27.597a.245.245 0 01-.17-.42l2.892-2.8V51.88h-2.514l-9.708 9.362a.245.245 0 01-.407-.233l2.362-9.808a.244.244 0 01.238-.187zm7.2.489h-7.008l-2.121 8.805zm10.008 0h-6.726a.243.243 0 01.039.133v29.755a.244.244 0 01-.074.176L28.2 84.024h11.872l-2.533-2.456a.244.244 0 01-.074-.176V51.636a.243.243 0 01.035-.133zm10.231 0h-6.957l9.074 8.8zm9.423 29.887V54.135l-2.967-2.876h23.953v6.365l-13.847-5.8v12.4l13.844-.047v6.366l-13.844-5.751v18.909l17.69-5.8v6.366h-27.8z" fill="#231815"/><path d="M81.984 84.511h-27.8a.245.245 0 01-.17-.42l2.892-2.8V54.238l-2.892-2.8a.245.245 0 01.17-.42h23.953a.245.245 0 01.245.245v6.361a.245.245 0 01-.339.226l-13.505-5.658v11.789l13.6-.046a.245.245 0 01.245.245v6.366a.245.245 0 01-.338.226l-13.506-5.613v18.205l17.369-5.695a.245.245 0 01.321.232v6.366a.245.245 0 01-.245.244zm-27.193-.487h26.95V78.24l-17.369 5.695a.245.245 0 01-.321-.232V64.792a.245.245 0 01.338-.226l13.506 5.613v-5.755l-13.6.046a.24.24 0 01-.173-.071.244.244 0 01-.072-.173V51.824a.245.245 0 01.339-.226l13.505 5.658v-5.754H54.791l2.533 2.456a.244.244 0 01.074.176V81.39a.245.245 0 01-.074.176zm73.233-2.634l2.967 2.876h-13.079l2.967-2.876V54.842l-10.218 25.039v4.385h-5.6l-13.3-27.774v22.682l5.439 5.092H85.824l5.439-5.092V55.786l-2.582-4.527h8.186l13.514 28.01 10.273-25.086-2.911-2.924h13.24l-2.967 2.876z" fill="#231815"/><path d="M130.987 84.511h-13.075a.245.245 0 01-.17-.42l2.892-2.8v-25.2l-9.729 23.841v4.337a.245.245 0 01-.245.245h-5.6a.244.244 0 01-.221-.139l-12.83-26.8v21.5l5.362 5.02a.244.244 0 01-.167.423h-11.38a.245.245 0 01-.167-.423l5.362-5.02V55.85l-2.55-4.471a.244.244 0 01.212-.366h8.186a.245.245 0 01.22.138l13.276 27.516 10-24.428-2.8-2.809a.244.244 0 01.173-.417h13.24a.245.245 0 01.17.42l-2.892 2.8v27.049l2.892 2.8a.245.245 0 01-.17.42zm-12.472-.489h11.869l-2.533-2.456a.245.245 0 01-.074-.176V54.135a.245.245 0 01.074-.176l2.533-2.456h-12.048l2.5 2.507a.245.245 0 01.053.265l-.152.371a.245.245 0 01.39.2v26.548a.245.245 0 01-.074.176zm-13.3 0h5.205v-4.141a.245.245 0 01.018-.092l.161-.395a.244.244 0 01-.43-.02L96.721 51.502H89.11l2.374 4.161a.244.244 0 01.032.121v23.39a.244.244 0 01-.077.178l-4.987 4.669h10.134l-4.987-4.669a.244.244 0 01-.077-.178V56.493a.244.244 0 01.465-.106zm46.976-2.632V54.135l-2.967-2.876h13.075l-2.967 2.876V83.89h8.241l10.438-8.865-3.3 9.242h-25.487z" fill="#231815"/><path d="M174.715 84.511h-25.491a.245.245 0 01-.17-.42l2.892-2.8V54.238l-2.892-2.8a.245.245 0 01.17-.42h13.075a.245.245 0 01.17.42l-2.893 2.8v29.407h7.907l10.37-8.807a.244.244 0 01.389.268l-3.3 9.242a.244.244 0 01-.227.163zm-6.92-.489h6.748l2.932-8.221zm-17.967 0h9.3a.243.243 0 01-.039-.133V54.135a.245.245 0 01.074-.176l2.534-2.456h-11.869l2.533 2.456a.245.245 0 01.074.176v27.256a.245.245 0 01-.074.176zm41.917-29.887v27.256l2.967 2.876h-13.075l2.967-2.876V54.135l-2.967-2.876h13.075z" fill="#231815"/><path d="M181.637 51.014h13.075a.245.245 0 01.17.42l-2.892 2.8v27.049l2.892 2.8a.245.245 0 01-.17.42h-13.075a.244.244 0 01-.17-.42l2.892-2.8V54.239l-2.892-2.8a.244.244 0 01.17-.42zm12.472.489H182.24l2.533 2.456a.244.244 0 01.074.176v27.256a.244.244 0 01-.074.176l-2.533 2.456h11.869l-2.533-2.456a.245.245 0 01-.074-.176V54.135a.245.245 0 01.074-.176zm34.553 27.671l5.439 5.093h-11.207l5.274-4.857-23.9-24.662v24.426l5.438 5.093h-11.37l5.439-5.093V54.182l-2.857-2.924h9.394l17.855 18.673v-13.58l-5.438-5.093h11.372l-5.439 5.093z" fill="#231815"/><path d="M234.1 84.511h-11.206a.245.245 0 01-.166-.424l5.089-4.687-23.3-24.048v23.716l5.361 5.02a.244.244 0 01-.167.423h-11.375a.244.244 0 01-.167-.423l5.361-5.02V54.281l-2.787-2.852a.244.244 0 01.175-.415h9.394a.244.244 0 01.177.076l17.434 18.233V56.457l-5.361-5.02a.244.244 0 01.167-.423h11.372a.244.244 0 01.167.423l-5.361 5.02v22.611l5.361 5.02a.244.244 0 01-.167.423zm-10.581-.489h9.962l-4.987-4.67a.244.244 0 01-.077-.178V56.351a.244.244 0 01.077-.178l4.987-4.67h-10.134l4.987 4.67a.244.244 0 01.077.178v13.581a.245.245 0 01-.421.169l-17.782-18.6h-8.714l2.451 2.508a.245.245 0 01.07.171v24.992a.244.244 0 01-.077.178l-4.987 4.67h10.143l-4.987-4.67a.244.244 0 01-.077-.178V54.747a.245.245 0 01.42-.17l23.9 24.662a.245.245 0 01-.01.35zm17.173-2.632V54.135l-2.967-2.876h23.952v6.365l-13.844-5.8v12.4l13.844-.047v6.366l-13.844-5.753v18.909l17.69-5.8v6.366h-27.8z" fill="#231815"/><path d="M265.523 84.511h-27.8a.245.245 0 01-.17-.42l2.892-2.8V54.238l-2.892-2.8a.244.244 0 01.17-.42h23.952a.245.245 0 01.245.245v6.361a.245.245 0 01-.339.226l-13.505-5.658v11.789l13.6-.046a.244.244 0 01.245.245v6.366a.244.244 0 01-.338.226l-13.506-5.613v18.205l17.369-5.695a.245.245 0 01.321.232v6.366a.245.245 0 01-.244.244zm-27.195-.489h26.95v-5.784l-17.364 5.695a.245.245 0 01-.321-.232V64.792a.244.244 0 01.338-.226l13.506 5.613v-5.755l-13.6.046a.244.244 0 01-.245-.245V51.824a.245.245 0 01.339-.226l13.505 5.658v-5.754h-23.1l2.533 2.456a.244.244 0 01.074.176V81.39a.245.245 0 01-.074.176zm56.2-32.764l-2.967 2.876v18.155c0 6.224 3.9 10.845 9.779 10.845 3.461 0 9.449-3.112 9.449-10.893v-15.89l-5.439-5.093h11.372l-5.439 5.093v15.891c-.055 7.309-5.054 12.119-12.526 12.119-7.966 0-14.339-5.328-14.339-12.072V54.134l-2.967-2.876z" fill="#231815"/><path d="M281.456 51.013h13.075a.245.245 0 01.17.42l-2.892 2.8v18.051c0 6.242 3.921 10.6 9.534 10.6a9.176 9.176 0 005.858-2.465 10.6 10.6 0 003.346-8.183V56.457l-5.361-5.02a.244.244 0 01.167-.423h11.372a.244.244 0 01.167.423l-5.361 5.02v15.785a12.254 12.254 0 01-3.556 8.976 12.927 12.927 0 01-9.219 3.387 15.99 15.99 0 01-10.314-3.564 11.365 11.365 0 01-4.269-8.752V54.238l-2.893-2.8a.244.244 0 01.17-.42zm12.472.489h-11.872l2.534 2.456a.244.244 0 01.074.176v18.155a10.884 10.884 0 004.092 8.378 15.5 15.5 0 0010 3.45 12.449 12.449 0 008.874-3.25 10.976 10.976 0 003.042-5.466 10.491 10.491 0 01-3.147 5.387 9.683 9.683 0 01-6.187 2.592 10.034 10.034 0 01-4.107-.84 9.2 9.2 0 01-3.17-2.331 11.874 11.874 0 01-2.746-7.919V54.134a.245.245 0 01.074-.176zm22.179 0H305.97l4.987 4.67a.244.244 0 01.077.178v15.891q0 .44-.024.858.027-.424.03-.86V56.351a.244.244 0 01.077-.178zm30.94 6.688c0 3.866-3.3 5.234-9.229 7.969-3.736 1.744-8.186 4.1-8.186 8.158v7.073l2.967 2.877h-13.075l2.967-2.877V54.134l-2.967-2.876h18.624c5.054 0 8.9 2.971 8.9 6.932M329.633 72.1c.714-1.792 2.362-3.253 5.384-4.951a9.738 9.738 0 004.78-8.818c0-4.48-3.3-6.7-8.68-6.7h-1.484z" fill="#231815"/><path d="M319.524 51.013h18.624c5.213 0 9.144 3.085 9.144 7.176a5.3 5.3 0 01-2.313 4.471 34.777 34.777 0 01-6.411 3.422l-.647.3a25.4 25.4 0 00-5.44 3.178 6.136 6.136 0 00-2.6 4.757v6.97l2.892 2.8a.245.245 0 01-.17.42h-13.075a.245.245 0 01-.17-.42l2.892-2.8V54.238l-2.892-2.8a.245.245 0 01.17-.42zm9.9.489h-9.3l2.533 2.456a.245.245 0 01.074.176v27.255a.245.245 0 01-.074.176l-2.533 2.457h11.868l-2.534-2.457a.245.245 0 01-.074-.176v-7.073a5.521 5.521 0 01.371-2.007.245.245 0 01-.371-.21V51.635a.243.243 0 01.043-.133zm6.784 15.16c.5-.251 1-.492 1.5-.725l.649-.3a34.534 34.534 0 006.315-3.363 4.791 4.791 0 002.125-4.086c0-3.812-3.721-6.687-8.655-6.687h-5.024a9.246 9.246 0 014.5 1.6 6.136 6.136 0 012.42 5.224 10.178 10.178 0 01-3.827 8.337zm-6.334 4.415c.874-1.409 2.442-2.693 5.02-4.141a9.508 9.508 0 004.655-8.6 5.671 5.671 0 00-2.223-4.832 10.31 10.31 0 00-6.213-1.62h-1.239z" fill="#231815"/></g></svg>