<svg xmlns="http://www.w3.org/2000/svg" width="1366" height="119.063"><defs><clipPath id="a"><path fill="none" d="M0 0h1329.769v119.063H0z"/></clipPath><clipPath id="b"><path transform="translate(-18)" fill="none" d="M0 0h1366v119.063H0z"/></clipPath></defs><path d="M65.426.608l10.543 9.872v26.326L41.358.608H23.143l5.541 5.667v48.447l-10.541 9.873h22.043l-10.543-9.873V7.372L75.969 55.18l-10.226 9.415H87.47l-10.543-9.873V10.48L87.47.608z" fill="#231815"/><g clip-path="url(#a)" transform="translate(18)"><path d="M69.471 64.794H47.743a.2.2 0 01-.134-.344l10.075-9.277L11.843 7.862v46.775l10.479 9.819a.2.2 0 01-.135.343H.143a.2.2 0 01-.137-.343l10.48-9.814V6.356L5.004.747a.2.2 0 01.139-.336h18.215a.2.2 0 01.143.061l34.27 35.841V10.567L47.291.756a.2.2 0 01.135-.343h22.045a.2.2 0 01.135.343l-10.48 9.814v44.067l10.48 9.819a.2.2 0 01-.135.343zm-21.218-.4h20.716l-10.177-9.53a.2.2 0 01-.063-.145V10.481a.2.2 0 01.063-.145L68.969.806H47.928l10.177 9.53a.2.2 0 01.063.145v26.326a.2.2 0 01-.341.137L23.273.807H5.616l5.21 5.331a.2.2 0 01.056.138v48.447a.2.2 0 01-.063.145L.643 64.398h21.042l-10.177-9.53a.2.2 0 01-.063-.145V7.373a.2.2 0 01.34-.138l46.327 47.808a.2.2 0 01-.008.283z" fill="#231815"/></g><path d="M92.369.608l5.751 5.575v52.836l-5.751 5.576h53.888v-12.34l-34.293 11.242V26.842l26.837 11.153v-12.34l-26.837.091V1.705l26.837 11.243V.608z" fill="#231815"/><path d="M146.257 64.794H92.368a.2.2 0 01-.138-.34l5.691-5.518V6.268L92.227.751a.2.2 0 01.138-.34h46.433a.2.2 0 01.2.2v12.34a.2.2 0 01-.275.183L112.162 2.003v23.544l26.638-.091a.2.2 0 01.2.2v12.34a.2.2 0 01-.274.183L112.162 27.14v36.085l34.033-11.158a.2.2 0 01.26.188v12.341a.2.2 0 01-.198.198zm-53.4-.4h53.2V52.529l-34.03 11.157a.2.2 0 01-.26-.188V26.843a.2.2 0 01.274-.183l26.563 11.038V25.856l-26.638.091a.194.194 0 01-.14-.058.2.2 0 01-.058-.14V1.706a.2.2 0 01.275-.183l26.562 11.128V.807H92.857l5.4 5.236a.2.2 0 01.06.142v52.834a.2.2 0 01-.06.142zM226.874.608l10.437 9.872-13.207 45.431L207.065.7l-.106-.091h-9.478v14.259l-11.929 41.043-15.335-49.818 5.857-5.485h-26.2l5.858 5.484 18.1 58.5h12.247v-6.853L197.9 17.062l14.49 47.533h12.247v-6.856l13.844-47.441 10.331-9.69z" fill="#231815"/><path d="M149.875.411h26.2a.2.2 0 01.135.343l-5.767 5.4 15.1 49.068 11.736-40.38V.609a.2.2 0 01.2-.2h9.478a.2.2 0 01.13.047l.106.091a.2.2 0 01.06.092l16.845 54.58 12.988-44.68L226.738.756a.2.2 0 01.136-.342h21.939a.2.2 0 01.135.342l-10.291 9.65-13.822 47.362v6.827a.2.2 0 01-.2.2H212.39a.2.2 0 01-.189-.14L197.91 17.756l-11.627 40.012v6.827a.2.2 0 01-.2.2h-12.245a.2.2 0 01-.189-.139l-18.09-58.454L149.74.756a.2.2 0 01.135-.343zm25.7.4h-25.2l5.492 5.142a.2.2 0 01.054.086l18.061 58.363h11.9V57.74a.2.2 0 01.008-.055l11.821-40.677a.2.2 0 01.38 0L212.532 64.4h11.9v-6.66a.2.2 0 01.008-.055l13.845-47.441a.2.2 0 01.055-.089l9.965-9.347h-20.934l10.075 9.53a.2.2 0 01.054.2l-13.206 45.429a.2.2 0 01-.379 0L206.892.813l-.007-.006h-9.206v14.062a.2.2 0 01-.008.055l-11.929 41.043a.2.2 0 01-.189.143.2.2 0 01-.189-.14L170.027 6.156a.2.2 0 01.054-.2z" fill="#231815"/><g clip-path="url(#b)" transform="translate(18)"><path d="M311.96 47.411c0 10.6-9.691 17.185-22.79 17.185l-29.606-.091-3.3-19.287 17.785 16.454a42.98 42.98 0 0013.632 2.011c8.094 0 16.4-1.28 16.4-7.77 0-7.953-12.034-12.889-20.766-16.454l-13.313-5.393c-6.816-2.742-14.164-7.861-14.164-16.545 0-4.845 2.237-11.335 7.987-14.351 3.834-2.011 8.734-2.56 15.443-2.56h25.24l2.981 19.47-16.083-16.271a33.731 33.731 0 00-12.14-2.285c-9.585-.183-18.424 1.645-18.424 8.226 0 6.764 12.78 10.6 23.43 14.351 15.548 5.485 27.689 9.872 27.689 23.31" fill="#231815"/><path d="M289.17 64.794l-29.606-.091a.2.2 0 01-.195-.165l-3.3-19.287a.2.2 0 01.33-.179l17.754 16.425a42.451 42.451 0 0013.528 1.987c4.871 0 8.523-.471 11.167-1.439a8.8 8.8 0 003.66-2.311 5.619 5.619 0 001.375-3.822c0-3.451-2.3-6.626-7.019-9.706-4.108-2.679-9.385-4.833-13.624-6.564l-13.312-5.393a28.558 28.558 0 01-9.7-6.088 14.731 14.731 0 01-4.584-10.64 18.412 18.412 0 011.857-7.949 14.515 14.515 0 016.232-6.579c3.5-1.834 8-2.582 15.535-2.582h25.24a.2.2 0 01.2.168l2.981 19.47a.2.2 0 01-.337.169L291.294 3.977a33.707 33.707 0 00-12.029-2.256 68.183 68.183 0 00-1.267-.012c-5.034 0-9.041.587-11.911 1.746-3.35 1.353-5.049 3.47-5.049 6.295 0 2.7 2.142 5.178 6.547 7.574a99.975 99.975 0 0014.132 5.678c.864.3 1.757.61 2.618.913 7.532 2.657 14.646 5.166 19.723 8.7 5.526 3.842 8.1 8.545 8.1 14.8a15.356 15.356 0 01-1.742 7.251 16.127 16.127 0 01-4.822 5.478 22.86 22.86 0 01-7.283 3.453 33.442 33.442 0 01-9.141 1.197zm-29.437-.487l29.44.091a33.047 33.047 0 009.032-1.186 22.467 22.467 0 007.157-3.391 14.892 14.892 0 006.4-12.409c0-6.113-2.52-10.713-7.929-14.475-5.033-3.5-12.123-6-19.628-8.648-.861-.3-1.753-.613-2.616-.912a100.232 100.232 0 01-14.191-5.7 18.417 18.417 0 01-4.859-3.554 6.447 6.447 0 01-1.9-4.367c0-3 1.782-5.243 5.3-6.662 2.917-1.178 6.974-1.775 12.059-1.775.416 0 .843 0 1.271.012a34.1 34.1 0 0112.21 2.3.2.2 0 01.067.045l15.653 15.83L304.333.807h-25.07c-7.468 0-11.915.735-15.351 2.537a14.122 14.122 0 00-6.064 6.4 18.008 18.008 0 00-1.817 7.774 14.349 14.349 0 004.469 10.361 28.17 28.17 0 009.572 6l13.313 5.394c4.256 1.737 9.552 3.9 13.692 6.6 4.844 3.159 7.2 6.442 7.2 10.038 0 3.029-1.781 5.218-5.295 6.5-2.688.985-6.385 1.463-11.3 1.463a42.782 42.782 0 01-13.7-2.022.2.2 0 01-.07-.042l-17.357-16.054zm65.111-5.288V6.185L319.093.609h25.347l-5.751 5.576v22.03h24.921V6.185L357.858.609h25.347l-5.751 5.576v52.834l5.751 5.576h-25.347l5.751-5.576V28.946h-24.921v30.073l5.751 5.576h-25.346z" fill="#231815"/><path d="M383.205 64.794h-25.347a.2.2 0 01-.138-.34l5.691-5.518V29.144h-24.525v29.792l5.691 5.518a.2.2 0 01-.138.34h-25.346a.2.2 0 01-.138-.34l5.691-5.518V6.268L318.955.751a.2.2 0 01.138-.34h25.347a.2.2 0 01.138.34l-5.691 5.518v21.747h24.525V6.268L357.723.751a.2.2 0 01.138-.34h25.347a.2.2 0 01.138.34l-5.691 5.518v52.667l5.691 5.518a.2.2 0 01-.138.34zm-24.858-.4h24.369l-5.4-5.236a.2.2 0 01-.06-.142V6.185a.2.2 0 01.06-.142l5.4-5.236h-24.369l5.4 5.236a.2.2 0 01.06.142v22.03a.2.2 0 01-.2.2h-24.919a.2.2 0 01-.2-.2V6.185a.2.2 0 01.06-.142l5.4-5.236h-24.367l5.4 5.236a.2.2 0 01.06.142v52.834a.2.2 0 01-.06.142l-5.4 5.236h24.369l-5.4-5.236a.2.2 0 01-.06-.142V28.946a.2.2 0 01.2-.2h24.921a.2.2 0 01.2.2v30.073a.2.2 0 01-.06.142zM429.743.151c20.767 0 37.913 14.534 37.913 32.45s-17.15 32.451-37.913 32.451-37.914-14.535-37.914-32.451S408.975.151 429.743.151m11.289 60.879c8.733 0 17.253-5.576 17.253-17.368 0-17.642-20.021-39.489-39.83-39.489-8.735 0-17.249 5.576-17.249 17.366 0 17.642 20.021 39.489 39.83 39.489" fill="#231815"/><path d="M429.743-.047a43.124 43.124 0 0114.753 2.563 39.128 39.128 0 0112.12 6.991 32.942 32.942 0 018.214 10.377 28.25 28.25 0 010 25.434 32.943 32.943 0 01-8.214 10.378 39.129 39.129 0 01-12.12 6.991 43.743 43.743 0 01-29.505 0 39.128 39.128 0 01-12.12-6.991 32.943 32.943 0 01-8.214-10.378 28.25 28.25 0 010-25.434 32.942 32.942 0 018.214-10.377 39.128 39.128 0 0112.12-6.991 43.126 43.126 0 0114.752-2.563zm0 64.9a42.728 42.728 0 0014.617-2.539 38.734 38.734 0 0012-6.92 32.549 32.549 0 008.115-10.255 27.854 27.854 0 000-25.081 32.548 32.548 0 00-8.117-10.253 38.734 38.734 0 00-12-6.92 43.349 43.349 0 00-29.235 0 38.734 38.734 0 00-12 6.92 32.548 32.548 0 00-8.117 10.256 27.854 27.854 0 000 25.081 32.549 32.549 0 008.117 10.253 38.734 38.734 0 0012 6.92 42.73 42.73 0 0014.62 2.539zM418.454 3.975a32.856 32.856 0 0114.668 3.71 48.384 48.384 0 0112.816 9.479 49.4 49.4 0 019.086 12.8 32.1 32.1 0 013.458 13.7c0 5.515-1.873 10.1-5.418 13.253a17.985 17.985 0 01-12.033 4.312 32.857 32.857 0 01-14.669-3.71 48.384 48.384 0 01-12.816-9.48 49.4 49.4 0 01-9.085-12.8 32.1 32.1 0 01-3.455-13.7c0-5.516 1.873-10.1 5.418-13.254a17.984 17.984 0 0112.03-4.31zm22.577 56.857A17.59 17.59 0 00452.8 56.62c3.458-3.078 5.285-7.559 5.285-12.958a31.708 31.708 0 00-3.417-13.523 49 49 0 00-9.012-12.7 47.984 47.984 0 00-12.71-9.4 32.465 32.465 0 00-14.492-3.668 17.59 17.59 0 00-11.77 4.212c-3.457 3.078-5.285 7.559-5.285 12.958a31.707 31.707 0 003.418 13.527 48.993 48.993 0 009.012 12.7 47.984 47.984 0 0012.71 9.4 32.466 32.466 0 0014.492 3.664zm88.605-46.786c0 7.5-6.389 10.146-17.891 15.448-7.242 3.382-15.868 7.953-15.868 15.814v13.711l5.751 5.576h-25.346l5.751-5.576V6.184L476.282.609h36.1c9.8 0 17.252 5.758 17.252 13.437m-33.757 26.966c1.384-3.474 4.58-6.307 10.437-9.6 8.094-4.571 9.265-12.706 9.265-17.094 0-8.684-6.39-12.98-16.827-12.98h-2.875z" fill="#231815"/><path d="M476.282.411h36.1c9.948 0 17.45 5.862 17.45 13.635 0 3.483-1.35 6.089-4.377 8.45-2.838 2.213-7.044 4.149-12.371 6.6l-1.259.58a49.491 49.491 0 00-10.606 6.2c-3.463 2.882-5.147 5.968-5.147 9.434v13.625l5.691 5.518a.2.2 0 01-.138.34h-25.343a.2.2 0 01-.138-.34l5.691-5.518V6.268L476.143.756a.2.2 0 01.138-.34zm24.858 63.986l-5.4-5.236a.2.2 0 01-.06-.142V45.308a10.656 10.656 0 011.488-5.411 16.622 16.622 0 013.8-4.327 49.834 49.834 0 0110.693-6.255l1.26-.58c10.65-4.9 16.517-7.6 16.517-14.689 0-7.547-7.332-13.239-17.054-13.239H476.77l5.4 5.235a.2.2 0 01.06.142v52.835a.2.2 0 01-.06.142l-5.4 5.236zm-5.263-63.255h2.875c5.34 0 9.527 1.1 12.445 3.273 3.039 2.261 4.579 5.594 4.579 9.905 0 4.473-1.217 12.664-9.366 17.266a37.487 37.487 0 00-6.86 4.7 13.048 13.048 0 00-3.49 4.795.2.2 0 01-.382-.073V1.34a.2.2 0 01.199-.198zm.2 38.945a14.105 14.105 0 013.21-4.089 37.331 37.331 0 016.932-4.756c7.974-4.5 9.164-12.534 9.164-16.921 0-4.179-1.487-7.405-4.42-9.588-2.849-2.12-6.956-3.194-12.209-3.194h-2.677zM628.89 24.558c10.863 4.022 16.72 10.969 17.892 18.83 1.172 6.947-1.918 13.437-8.413 18.008-4.366 3.108-10.011 3.565-12.141 3.565-8.2 0-14.164-1.829-19.489-6.764-5.325 4.57-12.354 6.4-19.17 6.4-9.479 0-17.891-4.571-22.258-11.792a17.927 17.927 0 01-2.023-13.8c2.449-8.867 10.863-15.266 21.513-15.266 11.928 0 20.341 7.13 25.985 16.911l3.728 6.765c2.343-4.022 8.306-14.535 6.922-12.157l-2.769-1.1c-11.821-4.479-25.134-12.615-25.134-21.846a12.68 12.68 0 013.837-8.23c5.112-5.028 13.845-4.754 19.382-1.92 4.686 2.468 8.52 7.5 5.219 14.169a15.679 15.679 0 01-4.474 4.754l10.863 3.29c5.964-7.769 12.461-11.7 21.193-12.614l-3.2 12.066h-3.727c-4.26-.092-10.223-.731-13.738.731m-32.375 18.83c-5.005-9.141-9.159-16.636-17.039-16.636-8.2 0-13.206 5.484-15.336 12.431a17.474 17.474 0 001.919 13.26 25.144 25.144 0 0021.406 11.426c7.668 0 13.845-2.194 18.743-6.216-4.047-3.93-5.644-7.4-9.691-14.26m20.021-22.578a15.964 15.964 0 004.579-4.754c3.089-6.215-.426-10.878-4.9-13.163a16.813 16.813 0 00-7.453-2.016c-6.709 0-10.97 3.474-11.4 7.131-.425 2.559.532 4.935 3.409 6.673 3.833 2.285 9.584 4.2 15.761 6.124m5.751 14.717l-7.348 12.8c3.3 6.124 6.922 12.615 12.141 14.351 8.306 2.194 15.016-3.382 13.738-9.781-1.172-6.49-8.413-13.254-18.531-17.368" fill="#231815"/><path d="M608.024-.057a19.689 19.689 0 018.815 2.042 12.748 12.748 0 015.694 5.6 9 9 0 01.869 4.068 11.321 11.321 0 01-1.257 4.765 15.243 15.243 0 01-4.23 4.587l10.368 3.14c6.014-7.792 12.572-11.674 21.246-12.582a.2.2 0 01.212.248l-3.2 12.066a.2.2 0 01-.191.147h-3.727c-.824-.018-1.7-.055-2.619-.095-1.407-.06-2.863-.123-4.3-.123a19.814 19.814 0 00-6.254.751c10.077 3.868 16.294 10.529 17.527 18.8a16.622 16.622 0 01-1.348 10.009 21.024 21.024 0 01-7.147 8.19c-4.814 3.427-11.053 3.6-12.255 3.6-8.527 0-14.37-2-19.494-6.7a25.687 25.687 0 01-8.961 4.838 34.032 34.032 0 01-10.2 1.495 27.984 27.984 0 01-13.139-3.211 23.987 23.987 0 01-9.288-8.676 18.113 18.113 0 01-2.045-13.957 19.958 19.958 0 012.926-6.188 20.79 20.79 0 014.83-4.878 23.579 23.579 0 0113.948-4.345 26.482 26.482 0 0115.462 4.823 37.365 37.365 0 0110.691 12.186l3.561 6.462c1.873-3.226 5.578-9.741 6.648-11.649l-2.572-1.013a67.336 67.336 0 01-17.049-9.169 27.229 27.229 0 01-5.912-6.073 12.174 12.174 0 01-2.3-6.789 11.055 11.055 0 011.137-4.474 12.383 12.383 0 012.761-3.895 15.192 15.192 0 0110.793-4zm20.334 24.63a.2.2 0 01-.057-.009l-10.863-3.29a.2.2 0 01-.064-.346 15.5 15.5 0 004.419-4.687c3.24-6.55-.528-11.477-5.135-13.9a19.284 19.284 0 00-8.633-2 14.8 14.8 0 00-10.519 3.882l-.006.006a12.544 12.544 0 00-3.768 8.08c0 8.986 12.917 17.081 25.006 21.661l2.613 1.036.069-.116c.067-.113.108-.181.222-.181a.2.2 0 01.172.1c.057.1.022.161-.053.3l-.162.292a1644.475 1644.475 0 01-2.557 4.51 931.9 931.9 0 01-4.36 7.6.2.2 0 01-.173.1.2.2 0 01-.171-.1l-3.726-6.768a36.97 36.97 0 00-10.576-12.057 26.093 26.093 0 00-15.236-4.752 23.185 23.185 0 00-13.716 4.27 20.4 20.4 0 00-4.738 4.786 19.562 19.562 0 00-2.868 6.065 17.715 17.715 0 002 13.649 23.59 23.59 0 009.135 8.531 27.587 27.587 0 0012.957 3.162 33.637 33.637 0 0010.085-1.476 25.242 25.242 0 008.955-4.878.2.2 0 01.264.005c5.075 4.7 10.864 6.711 19.354 6.711 1.181 0 7.309-.17 12.026-3.528a20.636 20.636 0 007.018-8.035 16.237 16.237 0 001.315-9.778c-1.232-8.26-7.541-14.892-17.765-18.677a.2.2 0 01-.007-.368 18.385 18.385 0 016.891-.964c1.45 0 2.91.063 4.322.123.921.04 1.791.077 2.607.095h3.57l3.083-11.64c-8.456.955-14.872 4.822-20.771 12.507a.2.2 0 01-.159.079zM608.762.684h.007a16.948 16.948 0 017.541 2.034 11.72 11.72 0 015.371 5.2 8.291 8.291 0 01.8 3.787 10.619 10.619 0 01-1.187 4.44v.006a16.253 16.253 0 01-4.636 4.818.2.2 0 01-.177.03c-5.811-1.805-11.818-3.767-15.8-6.143-2.761-1.667-3.972-4.043-3.5-6.87a7.316 7.316 0 013.427-5.073 14.492 14.492 0 018.154-2.229zm12.178 15.281c3.048-6.137-.487-10.685-4.813-12.9h-.006a16.543 16.543 0 00-7.362-1.986 14.1 14.1 0 00-7.939 2.16 6.927 6.927 0 00-3.256 4.8v.004a5.782 5.782 0 00.449 3.526 7.166 7.166 0 002.867 2.945c3.926 2.34 9.863 4.285 15.621 6.075a15.256 15.256 0 004.439-4.624zm-41.464 10.589c3.679 0 6.776 1.575 9.747 4.958 2.7 3.07 5.012 7.3 7.465 11.779a356.341 356.341 0 012.035 3.5c2.711 4.7 4.348 7.537 7.622 10.717a.2.2 0 01-.012.3 26.563 26.563 0 01-8.4 4.651 32.733 32.733 0 01-10.473 1.61 26.378 26.378 0 01-9.285-1.631 25.018 25.018 0 01-6.572-3.678 24.712 24.712 0 01-5.717-6.21 17.639 17.639 0 01-1.941-13.41v-.008a19.291 19.291 0 015.45-8.912 14.778 14.778 0 0110.081-3.666zm26.433 31.081c-3.208-3.156-4.845-5.994-7.53-10.648a385.18 385.18 0 00-2.035-3.5v-.006c-2.442-4.46-4.749-8.673-7.417-11.711-2.89-3.29-5.892-4.823-9.449-4.823a14.393 14.393 0 00-9.814 3.561 18.9 18.9 0 00-5.331 8.726 17.238 17.238 0 001.9 13.1 24.3 24.3 0 005.622 6.1 24.622 24.622 0 006.468 3.62 25.983 25.983 0 009.146 1.606 32.339 32.339 0 0010.347-1.589 26.17 26.17 0 008.093-4.436zm16.378-22.306a.2.2 0 01.075.015 41.571 41.571 0 0112.681 7.832c3.324 3.112 5.388 6.461 5.97 9.684a8.015 8.015 0 01-1.724 6.754 10.928 10.928 0 01-8.568 3.747 14.48 14.48 0 01-3.692-.493h-.012c-2.384-.793-4.636-2.624-6.885-5.6a69.806 69.806 0 01-5.368-8.846.2.2 0 010-.193l7.348-12.8a.2.2 0 01.176-.1zm8.434 27.635a10.535 10.535 0 008.262-3.6 7.628 7.628 0 001.641-6.429c-.568-3.143-2.591-6.416-5.852-9.469a41.066 41.066 0 00-12.4-7.688l-7.202 12.549a68.814 68.814 0 005.283 8.7c2.2 2.906 4.385 4.692 6.688 5.46a14.083 14.083 0 003.58.477zm71.011-56.78v52.835l5.751 5.576h-25.347l5.751-5.576V6.184L682.136.608h25.347z" fill="#231815"/><path d="M682.136.41h25.347a.2.2 0 01.138.34l-5.691 5.517v52.668l5.691 5.518a.2.2 0 01-.138.34h-25.347a.2.2 0 01-.138-.34l5.695-5.518V6.268L681.998.755a.2.2 0 01.138-.34zm24.858.4h-24.369l5.4 5.235a.2.2 0 01.06.142v52.832a.2.2 0 01-.06.142l-5.4 5.236h24.368l-5.4-5.236a.2.2 0 01-.06-.142V6.184a.2.2 0 01.06-.142zM771.06.609l4.579 19.013-18.85-18.282h-5.538v57.68l5.751 5.575h-25.346l5.75-5.575V1.34h-5.538l-18.956 18.282L717.491.609z" fill="#231815"/><path d="M717.491.411h53.569a.2.2 0 01.193.152l4.579 19.013a.2.2 0 01-.33.188L756.709 1.538h-5.26v57.4l5.691 5.517a.2.2 0 01-.138.34h-25.346a.2.2 0 01-.138-.34l5.69-5.517v-57.4h-5.26l-18.9 18.226a.2.2 0 01-.33-.189L717.299.563a.2.2 0 01.192-.152zm53.413.4h-53.257l-4.384 18.2L731.73 1.198a.2.2 0 01.137-.055h5.538a.2.2 0 01.2.2v57.68a.2.2 0 01-.06.142l-5.4 5.235h24.369l-5.4-5.235a.2.2 0 01-.06-.142V1.34a.2.2 0 01.2-.2h5.538a.2.2 0 01.138.056l18.36 17.806zm15.918 58.208V6.185L781.071.609h46.433v12.34L800.666 1.706v24.04l26.837-.091v12.341l-26.837-11.152v36.654l34.293-11.242v12.34h-53.888z" fill="#231815"/><path d="M834.959 64.794h-53.888a.2.2 0 01-.138-.34l5.691-5.518V6.268L780.933.751a.2.2 0 01.138-.34h46.433a.2.2 0 01.2.2v12.34a.2.2 0 01-.275.183L800.864 2.003v23.544l26.638-.091a.2.2 0 01.2.2v12.34a.2.2 0 01-.274.183l-26.563-11.038v36.084l34.033-11.158a.2.2 0 01.26.188v12.341a.2.2 0 01-.199.198zm-53.4-.4h53.2V52.529l-34.031 11.157a.2.2 0 01-.26-.188V26.843a.2.2 0 01.274-.183l26.563 11.038V25.856l-26.638.091a.2.2 0 01-.2-.2V1.706a.2.2 0 01.275-.183l26.563 11.128V.807h-45.746l5.4 5.236a.2.2 0 01.06.142v52.834a.2.2 0 01-.06.142zm140.508-5.375l5.751 5.576h-25.347l5.751-5.576V7.556l-19.809 48.539v8.5h-10.862l-25.768-53.839v43.967l10.543 9.872H840.28l10.544-9.872V9.384L845.819.609h15.868l26.2 54.3 19.915-48.63-5.646-5.67h25.666l-5.755 5.576z" fill="#231815"/><path d="M927.822 64.794h-25.347a.2.2 0 01-.138-.34l5.691-5.518V8.565l-19.413 47.568v8.463a.2.2 0 01-.2.2h-10.862a.2.2 0 01-.179-.113l-25.4-53.053v43.01l10.48 9.814a.2.2 0 01-.135.343h-22.046a.2.2 0 01-.135-.343l10.481-9.814V9.437l-4.972-8.73a.2.2 0 01.172-.3h15.868a.2.2 0 01.178.112l26.005 53.9 19.7-48.1-5.554-5.571a.2.2 0 01.14-.338h25.666a.2.2 0 01.138.34l-5.693 5.518v52.668l5.691 5.518a.2.2 0 01-.138.34zm-24.858-.4h24.369l-5.4-5.236a.2.2 0 01-.06-.142V6.185a.2.2 0 01.06-.142l5.4-5.236h-24.7l5.308 5.33a.2.2 0 01.043.215l-19.917 48.629a.2.2 0 01-.362.011L861.567.807h-15.4l4.837 8.48a.2.2 0 01.026.1v45.336a.2.2 0 01-.063.145l-10.178 9.53h21.043l-10.177-9.53a.2.2 0 01-.063-.145V10.756a.2.2 0 01.377-.085l25.719 53.727h10.539v-8.3a.2.2 0 01.015-.075l19.809-48.539a.2.2 0 01.381.075v51.46a.2.2 0 01-.06.142zm61.705-5.375V6.185L958.918.609h25.346l-5.752 5.576v57.68h15.975l20.234-17.185-6.389 17.916h-49.415z" fill="#231815"/><path d="M1008.333 64.794h-49.415a.2.2 0 01-.138-.34l5.691-5.518V6.268L958.78.751a.2.2 0 01.138-.34h25.346a.2.2 0 01.138.34l-5.69 5.517v57.4h15.7l20.179-17.138a.2.2 0 01.315.217l-6.389 17.916a.2.2 0 01-.184.131zm-48.927-.4h48.787l6.094-17.089-19.675 16.71a.2.2 0 01-.128.047h-15.972a.2.2 0 01-.2-.2V6.185a.2.2 0 01.06-.142l5.4-5.236h-24.369l5.4 5.236a.2.2 0 01.06.142v52.834a.2.2 0 01-.06.142zm79.81-58.21v52.835l5.751 5.576h-25.347l5.751-5.576V6.184l-5.75-5.576h25.347z" fill="#231815"/><path d="M1019.621.41h25.347a.2.2 0 01.138.34l-5.691 5.517v52.668l5.691 5.518a.2.2 0 01-.138.34h-25.347a.2.2 0 01-.138-.34l5.691-5.518V6.268l-5.691-5.513a.2.2 0 01.138-.34zm24.858.4h-24.369l5.4 5.235a.2.2 0 01.06.142v52.832a.2.2 0 01-.06.142l-5.4 5.236h24.369l-5.4-5.236a.2.2 0 01-.06-.142V6.184a.2.2 0 01.06-.142zm64.172 53.913l10.543 9.872h-21.725l10.224-9.415-46.326-47.807v47.35l10.543 9.872h-22.045l10.543-9.872V6.276L1054.87.609h18.21l34.612 36.2V10.481L1097.15.609h22.044l-10.543 9.872z" fill="#231815"/><path d="M1119.194 64.794h-21.725a.2.2 0 01-.134-.344l10.075-9.277-45.845-47.31v46.774l10.48 9.814a.2.2 0 01-.135.343h-22.045a.2.2 0 01-.135-.343l10.48-9.814V6.356l-5.482-5.61a.2.2 0 01.142-.336h18.21a.2.2 0 01.143.061l34.271 35.842V10.567L1097.015.756a.2.2 0 01.135-.343h22.044a.2.2 0 01.135.343l-10.48 9.814v44.067l10.48 9.814a.2.2 0 01-.135.343zm-21.218-.4h20.717l-10.177-9.53a.2.2 0 01-.063-.145V10.481a.2.2 0 01.063-.145l10.177-9.53h-21.042l10.177 9.53a.2.2 0 01.063.145v26.326a.2.2 0 01-.341.137L1072.997.807h-17.657l5.21 5.331a.2.2 0 01.056.138v48.447a.2.2 0 01-.063.145l-10.177 9.53h21.043l-10.177-9.53a.2.2 0 01-.063-.145V7.373a.2.2 0 01.34-.138l46.326 47.807a.2.2 0 01-.008.283zm31.866-5.375V6.185l-5.751-5.576h46.432v12.34l-26.836-11.243v24.04l26.837-.091v12.341l-26.837-11.152v36.654l34.293-11.242v12.34h-53.889z" fill="#231815"/><path d="M1177.98 64.794h-53.889a.2.2 0 01-.138-.34l5.691-5.518V6.268l-5.69-5.517a.2.2 0 01.138-.34h46.432a.2.2 0 01.2.2v12.34a.2.2 0 01-.275.183l-26.564-11.131v23.544l26.638-.091a.2.2 0 01.2.2v12.34a.2.2 0 01-.274.183l-26.563-11.038v36.084l34.034-11.158a.2.2 0 01.26.188v12.341a.2.2 0 01-.2.198zm-53.4-.4h53.2V52.529l-34.032 11.157a.2.2 0 01-.26-.188V26.843a.2.2 0 01.274-.183l26.563 11.038V25.856l-26.638.091a.2.2 0 01-.2-.2V1.706a.2.2 0 01.275-.183l26.563 11.128V.807h-45.746l5.4 5.236a.2.2 0 01.06.142v52.834a.2.2 0 01-.06.142zM1229.948.609l-5.751 5.575v35.194c0 12.066 7.562 21.024 18.957 21.024 6.709 0 18.317-6.033 18.317-21.115V10.481L1250.923.609h22.046l-10.544 9.872v30.805c-.107 14.168-9.8 23.492-24.281 23.492-15.441 0-27.8-10.33-27.8-23.4V6.184l-5.75-5.575z" fill="#231815"/><path d="M1204.602.411h25.346a.2.2 0 01.138.34l-5.691 5.517v35.11a25.121 25.121 0 001.349 8.31 19.683 19.683 0 003.807 6.6 17.167 17.167 0 005.915 4.349 18.787 18.787 0 007.689 1.571 18.074 18.074 0 0011.541-4.85c3-2.722 6.578-7.719 6.578-16.067V10.567L1250.792.756a.2.2 0 01.135-.343h22.046a.2.2 0 01.135.343l-10.485 9.811v30.719a26.547 26.547 0 01-1.817 9.721 21.376 21.376 0 01-4.993 7.48 22.07 22.07 0 01-7.711 4.8 28.5 28.5 0 01-9.958 1.691 30.722 30.722 0 01-19.816-6.845 21.759 21.759 0 01-8.178-16.754V6.268l-5.686-5.512a.2.2 0 01.138-.34zm24.857.4h-24.368l5.4 5.235a.2.2 0 01.06.142v35.19a21.369 21.369 0 008.037 16.451 30.326 30.326 0 0019.561 6.752 28.107 28.107 0 009.82-1.666 21.677 21.677 0 007.574-4.712 20.984 20.984 0 004.9-7.343 26.152 26.152 0 001.788-9.576v-30.8a.2.2 0 01.063-.145L1272.472.81h-21.043l10.178 9.529a.2.2 0 01.063.145v30.802c0 8.492-3.648 13.584-6.708 16.36a18.485 18.485 0 01-11.807 4.953 19.18 19.18 0 01-7.85-1.605 17.561 17.561 0 01-6.05-4.449 20.078 20.078 0 01-3.884-6.727 25.517 25.517 0 01-1.371-8.441V6.184a.2.2 0 01.06-.142zm100.169 13.235c0 7.5-6.389 10.146-17.891 15.448-7.242 3.382-15.868 7.953-15.868 15.814v13.711l5.751 5.576h-25.346l5.751-5.576V6.184l-5.752-5.575h36.1c9.8 0 17.252 5.758 17.252 13.437m-33.759 26.966c1.384-3.474 4.58-6.307 10.437-9.6 8.094-4.571 9.265-12.706 9.265-17.094 0-8.684-6.39-12.98-16.827-12.98h-2.875z" fill="#231815"/><path d="M1276.273.411h36.1c9.948 0 17.45 5.862 17.45 13.635 0 3.483-1.35 6.089-4.377 8.45-2.838 2.213-7.045 4.149-12.371 6.6l-1.259.58a49.493 49.493 0 00-10.606 6.2c-3.463 2.882-5.147 5.968-5.147 9.434v13.625l5.691 5.518a.2.2 0 01-.138.34h-25.346a.2.2 0 01-.138-.34l5.691-5.518V6.268l-5.689-5.512a.2.2 0 01.138-.34zm24.861 63.986l-5.4-5.236a.2.2 0 01-.06-.142V45.308a10.656 10.656 0 011.488-5.411 16.622 16.622 0 013.8-4.327 49.834 49.834 0 0110.693-6.255l1.26-.58c10.65-4.9 16.517-7.6 16.517-14.689 0-7.547-7.332-13.239-17.054-13.239h-35.614l5.4 5.235a.2.2 0 01.06.142v52.835a.2.2 0 01-.06.142l-5.4 5.236zm-5.262-63.255h2.875c5.34 0 9.527 1.1 12.445 3.273 3.039 2.261 4.58 5.594 4.58 9.905 0 4.473-1.217 12.664-9.366 17.266a37.487 37.487 0 00-6.86 4.7 13.048 13.048 0 00-3.49 4.795.2.2 0 01-.382-.073V1.34a.2.2 0 01.194-.198zm.2 38.945a14.1 14.1 0 013.21-4.089 37.327 37.327 0 016.932-4.756c7.974-4.5 9.164-12.534 9.164-16.921 0-4.179-1.487-7.405-4.42-9.588-2.849-2.12-6.956-3.194-12.209-3.194h-2.677z" fill="#231815"/><path d="M443.248 108.799l8.814-6.932-2.409 7.343-8.048-.051v6.316l3.011 3.03h-13.138l3.011-3.081v-6.265h-12.537v-.36l9.581-26.239h7.226l-16.479 26.239h12.209v-8.524h7.117v8.524z"/><path d="M445.635 118.928h-15.163l3.593-3.677v-5.669h-12.537v-.36h-.014l.014-.023v-.475l.026-.07 9.682-26.517h8.289l-16.479 26.238h11.019v-8.524h7.963v8.524h1.078l9.8-7.707-2.941 8.967-7.931-.051v5.715zm-13.151-.847h11.115l-2.417-2.432v-14.951h-6.269v14.9zm11.511-9.331l5.352.034 1.876-5.719zm-12.167-25.767l-8.561 23.446 14.725-23.446zm40.434-.424l-15.6 35.944-.93-.36 15.548-35.944z"/><path d="M471.047 81.665l1.783.651-15.944 36.73-1.72-.665.175-.4zm.648 1.138l-.188-.068-15.214 35.173.14.054zm27.502 28.974l.054 6.727h-23.157c7.883-8.935 16.807-20.848 16.807-29.731.11-3.44-1.533-6.162-5.037-6.162a11.034 11.034 0 00-2.847.41l-7.007 9.962-.548-7.6c3.066-1.438 7.336-3.081 10.4-3.081 7.281 0 12.592 3.03 12.592 8.934 0 7.96-9.362 15.4-18.176 20.54z"/><path d="M499.678 118.928h-24.52l.621-.7q2.742-3.108 5.054-6.023h-.118l.22-.128a92.917 92.917 0 006.162-8.676c3.573-5.782 5.384-10.7 5.384-14.624v-.014a6.1 6.1 0 00-1.41-4.491 4.273 4.273 0 00-3.2-1.234 10.391 10.391 0 00-2.589.357l-7.6 10.807-.654-9.075.264-.124c2.486-1.165 7.166-3.121 10.581-3.121a16.729 16.729 0 019.262 2.324 8.123 8.123 0 013.754 7.033c0 3.733-1.987 7.645-5.9 11.626a57.427 57.427 0 01-11.153 8.49h15.794zm-22.649-.847h21.8l-.047-5.88h-16.871q-2.226 2.839-4.882 5.88zm16.3-29.3c0 5.641-3.5 13.066-10.421 22.139a57.469 57.469 0 0011.469-8.649c3.756-3.817 5.661-7.529 5.661-11.032a7.26 7.26 0 00-3.377-6.329 13.779 13.779 0 00-5.987-2.017 4.651 4.651 0 011.009.789 6.92 6.92 0 011.641 5.098zm-15.423-3.141l.442 6.124 5.986-8.511a38.052 38.052 0 00-6.428 2.387zm53.48 20.951c0 6.83-6.3 12.17-13.248 12.17-7.171 0-13.029-5.443-13.029-12.17a11.97 11.97 0 016.351-10.475 8.281 8.281 0 01-2.683-6.316c0-4.005 4.764-7.5 9.252-7.5 4.653 0 8.431 2.567 8.431 6.829 0 1.336-.548 3.851-4.106 5.752 6.3 2.413 9.033 5.905 9.033 11.707m-11.06-5.648c-4.324-1.8-6.678-2.927-8.54-4.519a6.477 6.477 0 00-2.409 5.135c0 8.422 9.251 14.943 14.124 14.943 3.065 0 4.928-3.132 4.928-5.956 0-4.159-3.5-7.7-8.1-9.6m-7.335-15.2c0 3.44 3.669 7.086 7.226 8.37l1.587.565c1.862-3.081-2.573-11.4-6.514-11.4a2.311 2.311 0 00-2.3 2.465"/><path d="M518.137 119.184c-7.418 0-13.453-5.649-13.453-12.593a12.36 12.36 0 016.081-10.567 8.733 8.733 0 01-2.413-6.224 7.331 7.331 0 013.105-5.584 10.887 10.887 0 016.571-2.337 10.214 10.214 0 016.218 1.9 6.532 6.532 0 012.636 5.348c0 1.321-.484 3.733-3.566 5.682a14.939 14.939 0 016.249 4.393 11.6 11.6 0 012.244 7.384 11.975 11.975 0 01-4.158 8.961 14.431 14.431 0 01-9.514 3.637zm-7.808-21.858a11.47 11.47 0 00-4.8 9.265c0 6.477 5.655 11.746 12.606 11.746a13.569 13.569 0 006.086-1.467 4.759 4.759 0 01-.721.054 10.7 10.7 0 01-4.445-1.192 19.671 19.671 0 01-4.73-3.233c-2.006-1.842-5.372-5.713-5.372-10.942a6.966 6.966 0 011.376-4.231zm1.462-.348a6.059 6.059 0 00-1.988 4.581c0 4.9 3.194 8.57 5.1 10.318 2.737 2.513 6.194 4.2 8.6 4.2a4.046 4.046 0 003.274-1.749 6.44 6.44 0 001.23-3.784c0-3.683-3-7.213-7.841-9.211-4.128-1.714-6.501-2.835-8.375-4.355zm.284-.865c1.831 1.562 4.175 2.677 8.414 4.439a16.085 16.085 0 015.931 4.064 8.966 8.966 0 012.433 5.929 7.413 7.413 0 01-.912 3.536 10.968 10.968 0 003.021-7.489 10.794 10.794 0 00-2.067-6.865 14.908 14.908 0 00-6.694-4.446l-.376-.144-1.75-.623a13.244 13.244 0 01-5.119-3.491 8.173 8.173 0 01-2.389-5.278 3.135 3.135 0 01.386-1.536 10.171 10.171 0 00-.974.675 6.5 6.5 0 00-2.781 4.917 7.821 7.821 0 002.549 6.007zm4-13.167c2 .459 3.844 2.582 4.973 4.584a13.141 13.141 0 011.491 3.949 5.6 5.6 0 01-.115 2.884c3.137-1.782 3.614-4.03 3.614-5.231a5.712 5.712 0 00-2.305-4.677 9.369 9.369 0 00-5.7-1.728 9.081 9.081 0 00-1.961.218zm-.782.756a1.879 1.879 0 00-1.876 2.041c0 3.269 3.592 6.761 6.947 7.972l1.233.439a4.632 4.632 0 00.108-2.523 12.278 12.278 0 00-1.4-3.685c-1.452-2.578-3.421-4.244-5.014-4.244zM577.7 82.56l2.351 10.677-9.69-10.27h-2.847v32.4l2.956 3.133h-13.027l2.956-3.133v-32.4h-2.848l-9.745 10.27 2.354-10.681z"/><path d="M549.822 82.137h28.218l2.757 12.509-10.616-11.252h-2.24v31.809l3.514 3.724h-14.994l3.515-3.724V83.394h-2.241l-10.668 11.243zm7.136.847h-6.455l-1.953 8.861zm10.136 0h-6.27v32.553l-2.4 2.541h11.067l-2.4-2.541zm10.266 0h-6.4l8.35 8.853zm30.176 32.387l2.957 3.133h-13.03l2.956-3.133v-15.3a4.912 4.912 0 00-4.707-4.98 6.2 6.2 0 00-4.325 2.054v18.229l2.956 3.133h-13.03l2.956-3.133V93.65c0-6.316 3.339-10.732 9.307-10.732 4.6 0 7.116 2.671 7.116 5.854a5.354 5.354 0 01-2.354 4.057 11.9 11.9 0 011.862-.154 7.071 7.071 0 017.336 7.343zm-7.281-26.6c0-2.568-2.026-4.827-4.325-4.827-3.065 0-4.544 3.491-4.544 7.189v5.6a16.34 16.34 0 015.037-3.337c2.573-1.079 3.832-2.619 3.832-4.622"/><path d="M611.475 118.927h-14.994l3.514-3.724v-15.134a4.766 4.766 0 00-1.237-3.168 4.1 4.1 0 00-3.046-1.389 5.722 5.722 0 00-3.9 1.806v17.885l3.515 3.724h-14.996l3.515-3.724V93.65a12.306 12.306 0 012.514-8.006 9.049 9.049 0 017.216-3.15 8.234 8.234 0 015.563 1.84 5.841 5.841 0 011.977 4.438 5.379 5.379 0 01-1.514 3.5c.2-.011.4-.016.6-.016a7.6 7.6 0 015.679 2.3 7.872 7.872 0 012.08 5.465v15.185zm-13.03-.847h11.066l-2.4-2.541v-15.521a7.03 7.03 0 00-1.848-4.882 6.775 6.775 0 00-5.065-2.037 11.549 11.549 0 00-1.8.149l-1 .156q-.387.2-.82.381a16.446 16.446 0 00-1.98 1 5.208 5.208 0 011.1-.121 4.935 4.935 0 013.673 1.666 5.623 5.623 0 011.458 3.738v15.47zm-16.15 0h11.065l-2.4-2.541v-24.4a10.785 10.785 0 011.177-5.189 4.314 4.314 0 013.433-2.409 9.809 9.809 0 00-2-.195 8.229 8.229 0 00-6.566 2.845 11.481 11.481 0 00-2.317 7.463v21.889zm13.635-33.711a3.42 3.42 0 00-3.053 1.992 9.937 9.937 0 00-1.068 4.773v4.645a16.226 16.226 0 014.446-2.775c2.407-1.009 3.576-2.393 3.576-4.232a4.7 4.7 0 00-1.192-3.094 3.708 3.708 0 00-2.709-1.309zm43.466 8.511v25.623h-2.956l-4-4.211c-2.354 2.414-5.584 4.365-8.924 4.365a7.072 7.072 0 01-7.336-7.291v-15.4l-2.409-3.133h9.525v18.479a4.6 4.6 0 004.654 4.622 6.271 6.271 0 004.324-2.105V95.962l-2.409-3.133z"/><path d="M629.007 92.401l10.813.058v26.468h-3.562l-3.822-4.027c-2.722 2.662-5.951 4.181-8.916 4.181a7.792 7.792 0 01-5.568-2.19 7.709 7.709 0 01-2.191-5.524V96.106l-2.845-3.7h10.808v18.906a4.173 4.173 0 004.231 4.2 5.767 5.767 0 003.9-1.858V96.106zm-6.13.852h-8.242l1.972 2.565v15.549a6.868 6.868 0 001.942 4.924 6.952 6.952 0 004.97 1.943 11.131 11.131 0 006.26-2.218 5.118 5.118 0 01-5.346-1.042 4.956 4.956 0 01-1.558-3.66zm16.1.049l-8.239-.044 1.969 2.56v18.133l3.919 4.13h2.351zm13.667 11.183h17.738v.976h-17.738z"/><path d="M652.22 104.062h18.585v1.823H652.22zm17.738.847h-16.891v.128h16.891zm7.266 1.628h7.117c.438 5.545 4.927 10.886 9.635 10.886 3.23 0 4.435-3.389 4.435-6.47 0-6.162-5.091-14.172-11.332-14.172a7.51 7.51 0 00-2.573.41l-3.449 1.233-.109-.1 2.08-15.764h17.081v6.677h-17.465l-1.15 8.627 4.271-1.489a18.614 18.614 0 015.693-1.079c7.281-.2 12.756 4.622 12.756 10.886 0 6.881-6.733 12.581-14.234 12.581-7.007 0-12.592-4.569-12.756-12.221"/><path d="M689.98 119.184a13.559 13.559 0 01-9.23-3.352 12.581 12.581 0 01-3.949-9.283l-.009-.433h7.941l.031.39a12.9 12.9 0 003.113 7.278 8.43 8.43 0 006.1 3.218 3.367 3.367 0 003.061-1.866 8.6 8.6 0 00.95-4.18 14.207 14.207 0 00-.869-4.672 17.406 17.406 0 00-2.374-4.473 13.116 13.116 0 00-3.487-3.32 7.835 7.835 0 00-4.179-1.283 7.046 7.046 0 00-2.433.386l-3.691 1.319-.456-.429 2.157-16.347h17.876v7.522h-17.517l-1.01 7.577 3.62-1.262a19.038 19.038 0 015.821-1.1c.152 0 .306-.006.457-.006a13.569 13.569 0 019.084 3.252 10.685 10.685 0 013.65 8.064 11.257 11.257 0 01-1.214 5.058 13.437 13.437 0 01-3.236 4.132 15.664 15.664 0 01-10.208 3.814zm-12.314-12.221a11.646 11.646 0 003.659 8.244 12.717 12.717 0 008.658 3.13 14.623 14.623 0 003.739-.493 7.707 7.707 0 01-3.374-.967 11.184 11.184 0 01-3.107-2.537 13.825 13.825 0 01-3.282-7.377zm9.543-10.6a8.7 8.7 0 014.5 1.411 13.773 13.773 0 013.719 3.535 16.964 16.964 0 013.409 9.649 9.448 9.448 0 01-1.062 4.6 5.238 5.238 0 01-.68.941 14.37 14.37 0 002.539-1.766 12.6 12.6 0 003.034-3.872 10.417 10.417 0 001.125-4.68 9.848 9.848 0 00-3.367-7.431 12.725 12.725 0 00-8.521-3.038c-.143 0-.289 0-.434.006a18.121 18.121 0 00-4.266.643zm-4.576-7.55h17.055v-5.828h-16.29zm42.657-6.254l-15.6 35.944-.931-.36L724.3 82.2z"/><path d="M724.074 81.665l1.783.651-.179.412-15.764 36.317-1.721-.665.175-.4zm.648 1.138l-.188-.068-15.214 35.173.141.054zm31.224 23.788c0 6.83-6.3 12.17-13.248 12.17-7.171 0-13.029-5.443-13.029-12.17a11.97 11.97 0 016.351-10.475 8.281 8.281 0 01-2.683-6.316c0-4.005 4.763-7.5 9.252-7.5 4.653 0 8.431 2.567 8.431 6.829 0 1.336-.548 3.851-4.106 5.752 6.3 2.413 9.033 5.905 9.033 11.707m-11.06-5.648c-4.324-1.8-6.678-2.927-8.54-4.519a6.478 6.478 0 00-2.408 5.135c0 8.422 9.251 14.943 14.124 14.943 3.066 0 4.928-3.132 4.928-5.956 0-4.159-3.5-7.7-8.1-9.6m-7.335-15.2c0 3.44 3.669 7.086 7.226 8.37l1.588.565c1.862-3.081-2.573-11.4-6.514-11.4a2.311 2.311 0 00-2.3 2.465"/><path d="M742.699 119.184c-7.418 0-13.453-5.649-13.453-12.593a12.36 12.36 0 016.081-10.567 8.732 8.732 0 01-2.413-6.224 7.331 7.331 0 013.1-5.584 10.888 10.888 0 016.571-2.337 10.214 10.214 0 016.219 1.9 6.532 6.532 0 012.635 5.348c0 1.321-.484 3.733-3.566 5.682a14.94 14.94 0 016.249 4.393 11.6 11.6 0 012.244 7.384 11.974 11.974 0 01-4.158 8.961 14.431 14.431 0 01-9.509 3.637zm-7.808-21.858a11.469 11.469 0 00-4.8 9.265c0 6.477 5.655 11.746 12.606 11.746a13.571 13.571 0 006.086-1.467 4.764 4.764 0 01-.721.054 10.7 10.7 0 01-4.445-1.192 19.669 19.669 0 01-4.73-3.233c-2.006-1.842-5.372-5.713-5.372-10.942a6.965 6.965 0 011.374-4.231zm1.462-.348a6.059 6.059 0 00-1.988 4.581c0 4.9 3.194 8.57 5.1 10.318 2.737 2.513 6.194 4.2 8.6 4.2a4.046 4.046 0 003.274-1.749 6.44 6.44 0 001.23-3.784c0-3.683-3-7.213-7.841-9.211-4.129-1.714-6.503-2.835-8.378-4.355zm.287-.863c1.831 1.56 4.175 2.675 8.412 4.437a16.086 16.086 0 015.931 4.064 8.966 8.966 0 012.433 5.929 7.412 7.412 0 01-.912 3.536 10.969 10.969 0 003.021-7.489 10.794 10.794 0 00-2.067-6.865 14.909 14.909 0 00-6.694-4.446l-.38-.146-1.746-.621a13.245 13.245 0 01-5.119-3.491 8.173 8.173 0 01-2.389-5.278 3.136 3.136 0 01.386-1.536 10.169 10.169 0 00-.974.675 6.5 6.5 0 00-2.781 4.917 7.82 7.82 0 002.549 6.007zm3.995-13.17c2 .459 3.844 2.582 4.973 4.584a13.144 13.144 0 011.491 3.95 5.6 5.6 0 01-.115 2.884c3.136-1.782 3.614-4.03 3.614-5.23a5.712 5.712 0 00-2.305-4.677 9.369 9.369 0 00-5.7-1.728 9.08 9.08 0 00-1.961.217zm-.781.756a1.879 1.879 0 00-1.876 2.041c0 3.269 3.592 6.761 6.947 7.972l1.234.439a4.633 4.633 0 00.108-2.523 12.28 12.28 0 00-1.4-3.686c-1.454-2.577-3.423-4.242-5.016-4.242zm62.241 25.149c0 5.956-4.982 9.653-11.716 9.653l-15.219-.051-1.7-10.835 9.143 9.243a20.36 20.36 0 007.007 1.13c4.161 0 8.431-.719 8.431-4.365 0-4.467-6.186-7.24-10.676-9.242l-6.842-3.03c-3.5-1.54-7.281-4.416-7.281-9.294 0-2.722 1.149-6.367 4.1-8.062 1.971-1.13 4.49-1.438 7.938-1.438h12.975l1.533 10.938-8.267-9.14a16.064 16.064 0 00-6.241-1.283c-4.927-.1-9.471.925-9.471 4.622 0 3.8 6.57 5.956 12.045 8.062 7.993 3.081 14.234 5.545 14.234 13.094"/><path d="M790.379 118.927l-15.58-.053-.056-.357-1.9-12.131 10 10.109a19.887 19.887 0 006.772 1.071 15.573 15.573 0 005.618-.785 3.251 3.251 0 002.389-3.157c0-1.832-1.137-3.533-3.477-5.2a41.364 41.364 0 00-6.948-3.655l-6.841-3.029a14.89 14.89 0 01-5.1-3.5 8.96 8.96 0 01-2.436-6.183c0-2.747 1.131-6.6 4.318-8.429 1.851-1.061 4.212-1.494 8.149-1.494h13.343l1.776 12.668-9.131-10.095a15.724 15.724 0 00-5.988-1.212h-.009c-.216 0-.431-.007-.641-.007a15.281 15.281 0 00-5.991.953 3.43 3.43 0 00-2.407 3.252c0 1.4 1.051 2.7 3.211 3.988a48.745 48.745 0 007.214 3.165l1.348.514c3.894 1.5 7.571 2.918 10.218 4.93a10.037 10.037 0 014.287 8.56 9.146 9.146 0 01-3.492 7.391 11.671 11.671 0 01-3.85 2 16.157 16.157 0 01-4.796.686zm-14.857-.9l9.968.034a17.321 17.321 0 01-3.034-.807l-.087-.033-.065-.066-8.221-8.311zm.3-32.211a8.277 8.277 0 00-1.249 2 10.587 10.587 0 00-.907 4.243 8.137 8.137 0 002.216 5.614 14.057 14.057 0 004.812 3.292l6.843 3.03a42 42 0 017.1 3.739c2.579 1.837 3.832 3.764 3.832 5.89a3.819 3.819 0 01-.959 2.646 9.55 9.55 0 00.99-.692 8.325 8.325 0 003.174-6.73 9.248 9.248 0 00-3.952-7.885c-2.551-1.939-6.174-3.335-10.01-4.814-.442-.17-.9-.344-1.344-.512a49.311 49.311 0 01-7.346-3.229c-2.44-1.449-3.626-2.992-3.626-4.716a4.069 4.069 0 01.428-1.873zm12.7-2.836a15.782 15.782 0 013.172.986l.083.036.061.067 7.342 8.118-1.291-9.207zm43.354 9.9v25.623h-2.957l-4-4.211c-2.354 2.414-5.584 4.365-8.923 4.365a7.071 7.071 0 01-7.336-7.291v-15.4l-2.409-3.133h9.525v18.479a4.6 4.6 0 004.654 4.622 6.271 6.271 0 004.324-2.105V95.962l-2.409-3.133z"/><path d="M821.486 92.401l10.813.058v26.468h-3.563l-.125-.132-3.7-3.9c-2.722 2.662-5.951 4.181-8.916 4.181a7.483 7.483 0 01-7.76-7.715V96.106l-2.845-3.7h10.808v18.906a4.173 4.173 0 004.231 4.2 5.767 5.767 0 003.9-1.858V96.106zm-6.13.852h-8.242l1.972 2.565v15.549a6.868 6.868 0 001.942 4.924 6.952 6.952 0 004.97 1.943 11.13 11.13 0 006.26-2.218 5.119 5.119 0 01-5.346-1.042 4.955 4.955 0 01-1.557-3.66zm16.1.049l-8.239-.044 1.969 2.56v18.133l3.919 4.13h2.351zm33.321 22.071l2.956 3.133h-13.03l2.956-3.133v-15.3a4.7 4.7 0 00-4.6-4.673 6.128 6.128 0 00-4.325 2v17.973l2.956 3.133h-13.03l2.956-3.133v-17.2l-2.956-1.848 10.073-3.492v3.954c2.792-2.67 5.858-4.108 8.76-4.108a7.1 7.1 0 017.281 7.343z"/><path d="M868.718 118.927h-15l3.515-3.724v-15.13a4.269 4.269 0 00-4.175-4.249 5.681 5.681 0 00-3.9 1.756v17.623l3.515 3.724h-14.994l3.515-3.724v-16.8l-3.508-2.193 11.472-3.976v3.589a16.254 16.254 0 013.736-2.479 10.823 10.823 0 014.6-1.093 7.643 7.643 0 015.566 2.26 7.841 7.841 0 012.138 5.506v15.186zm-13.03-.847h11.066l-2.4-2.541v-15.521a7 7 0 00-1.9-4.917 6.8 6.8 0 00-4.958-2 9.985 9.985 0 00-4.241 1.012 14.119 14.119 0 00-2.035 1.179 5.626 5.626 0 011.841-.317 5.127 5.127 0 015.022 5.1v15.471zm-16.041 0h11.066l-2.4-2.541V93.424l-8.675 3.007 2.4 1.5v17.605z"/></g></svg>