<svg xmlns="http://www.w3.org/2000/svg" xmlns:xlink="http://www.w3.org/1999/xlink" viewBox="0 0 570.515 274.542">
  <g>
        <path d="M32.752 274.542a32.779 32.779 0 01-26.428-52.129c21.681-29.641 51.425-61.2 86.017-91.259a779.366 779.366 0 01103.342-75.8c36.3-22.153 70.8-38.537 99.752-47.381 16.706-5.1 31.873-7.782 45.081-7.967 17.766-.255 32.79 3.938 44.655 12.441 15.069 10.8 31.7 32.365 25.33 73.778-3.268 21.263-11.53 43.209-19.52 64.432-2.988 7.937-7.13 18.939-10.043 28.232 46.582-14.061 107.906-81.949 132.477-109.15a32.776 32.776 0 1148.645 43.94c-61.366 67.936-127.269 131.1-193.4 133.278-26.267.865-40.222-10.722-47.3-20.595-18.965-26.463-5.737-61.6 8.268-98.8 5.563-14.776 11.316-30.055 14.448-43.152 2.568-10.732 2.434-16.268 2.129-18.611-4.6-.758-16.993-.4-39.3 7.386-24.22 8.452-53.237 23.1-83.915 42.362-65.342 41.026-128.09 96.8-163.758 145.564a32.729 32.729 0 01-26.48 13.428" fill="#fff"/><path d="M58.83 229.633l8.807-.317-7.962 9.285-.967-8.363-40.915-.489 23.708 20.089 8.807-.315-8.079 9.421-1.079-8.7-24.259-20.552-4.867-.038 6.675-7.783 30.809.569-13.182-11.172-8.807.317 8.079-9.422 1.079 8.7z" fill="#231815"/><path d="M89.906 202.1l4.222.234-9.764 9.982-.325-4.217-10.923-5.139-10.015 10.239 3.809 7.778 9.867-.907-9.848 10.068-.355-8.733-13.947-28.049-4.292-4.28 4.4-4.5.042.043zm-36.6-8.492l9.541 19.166 9.804-10.024zm29.853-38.591a20.688 20.688 0 0118.427-4.9l.122.049-7.665 6.973c-5.87-.183-10.789 1.367-13.8 4.108-4.563 4.15-4.029 10.243.148 15.052 8.276 9.526 25.872 11.795 33.757 4.621a9.581 9.581 0 002.884-4.9 18.7 18.7 0 00.436-6.893l-14.7-5.961 6.025-5.482 9.221 10.616a21.723 21.723 0 01-6.878 18.926 20.722 20.722 0 01-29.719-1.8 21.9 21.9 0 011.738-30.412m34.909-29.846a20.489 20.489 0 0129.388 3.691 22.334 22.334 0 01-3.7 30.47 20.491 20.491 0 01-29.389-3.692 22.331 22.331 0 013.7-30.469m29.021 28.057c3.81-3.083 5.322-9.027.654-15.235-6.981-9.286-24.365-13.714-33.01-6.719-3.812 3.084-5.322 9.027-.656 15.235 6.982 9.285 24.366 13.714 33.012 6.719m19.129-64.11l-1.246 8.819 7.316 26.756 3.426 5.189 4.634 1.174-11.475 8.366.574-4.971-2.861-4.331-24.665-18.736-4.633-1.175L149 101.665l-.574 4.97 23.232 17.542-7.058-25.825-8.322-1.993zm46.121 16.332l3.959 1.211-11.546 7.689.65-4.279-9.212-7.656-11.846 7.892 1.853 8.638 9.585 1.383-11.647 7.756 1.647-8.79-6.884-31.2-3.105-5.263 5.2-3.465.031.053zM179.48 88.495l4.714 21.322 11.6-7.723zm67.312-37.608c2.061 4.55-.332 7.85-4.5 14.112-2.61 3.97-5.57 9.027-3.406 13.8l3.771 8.322 4.345 1.862-12.389 6.709 1.277-4.907-14.53-32.07-4.346-1.861 17.648-9.557c4.788-2.593 10.017-1.072 12.129 3.589m-9.085 25.3c-.278-2.475.5-5.04 2.462-8.588 2.7-4.917 1.034-10.164-.173-12.827-2.389-5.271-6.694-6.188-11.8-3.425l-1.406.761zm47.327-9.421l3.638 1.879-12.453 5.779 1.33-4.184-7.671-9.23-12.774 5.929.38 8.976 9.061 3-12.56 5.829 3.039-8.544-1.555-32.457-2.147-5.8 5.611-2.6.022.058zM255.97 44.248l1.07 22.184 12.508-5.804z" fill="#231815"/><path d="M316.733 55.674l3.915 2.7-12.547 4.01 1.526-3.08-12.146-14.588a10.676 10.676 0 00-1.675 8.118l1.942 8.905 3.8 2.737-13.214 4.223 2.193-4.655-7.632-35.017-3.8-2.737 18.708-5.978c5.164-1.649 9.826.944 10.935 6.032 1.018 4.665-1.474 7.405-5.921 12.066zm-21.587-5.869c.219-2.533 1.421-4.927 3.943-8.064 3.559-4.378 2.995-9.964 2.36-12.873-1.188-5.451-4.983-7.609-10.646-5.8l-1.388.444zM340.33 12.19a17.235 17.235 0 0115.811 8.618l-9.862.484c-3.792-4.066-8.141-6.2-12-6.014-5.61.276-9.56 5.357-9.951 12.548-.679 12.473 9.331 26.962 19.646 26.454 4.478-.219 7.877-3.5 9.281-8.515l2.38-.117c-4.113 7.057-10.623 11.375-17.765 11.725-11.051.543-19.513-9.134-18.838-21.545.681-12.535 10.243-23.1 21.295-23.639m58.316 26.69c5.118 9.24.264 22.267-10.927 28.92s-24.5 4.421-29.615-4.82-.263-22.267 10.929-28.92 24.5-4.421 29.614 4.82m-35.249 27.629c2.151 3.886 7.734 5.607 15.1 1.228 11.021-6.551 19.735-23.573 14.854-32.387-2.153-3.886-7.735-5.606-15.1-1.228-11.022 6.551-19.734 23.574-14.853 32.387m-8.155 52.267l-7.613-2.424 9.462-23.178c6.86 11.183 16.656 24.5 26.68 27.774 3.836 1.378 7.578.737 9.01-2.771a10.532 10.532 0 00.7-3l-8.374-10.682 8.8 2.251c.371 3.6.479 8.477-.773 11.546-2.975 7.288-8.562 11.487-15.226 9.311-8.98-2.933-13.557-15.044-15.749-25.759zm25.115 30.559c-3.592 9.072-15.991 12.3-26.761 8.926s-18.164-12.794-14.573-21.867 15.989-12.3 26.759-8.925 18.165 12.794 14.575 21.866m-40.577-12.7c-1.784 4.509 5.663 10.982 16.667 14.428s21.368 2.549 23.152-1.96-5.662-10.987-16.664-14.427-21.369-2.55-23.153 1.958m-5.535 51.339l-8.087-.267 3.223-24.536c9.635 8.784 22.7 18.813 33.372 19.241 4.117.283 7.614-1.326 8.1-5.039a10.116 10.116 0 00-.1-3.037l-10.99-7.9 9.2-.214c1.3 3.317 2.68 7.921 2.253 11.17-1.013 7.715-5.392 13.2-12.483 12.911-9.56-.384-17.2-10.663-22.142-20.249zm12.604 36.584l-8 3.332-7.61-21.736c13.246 3.042 30.386 5.608 40.98 1.275 4.139-1.574 6.844-4.443 5.693-7.732a8.373 8.373 0 00-1.424-2.473l-14.184-1.718 8.884-4.221c2.722 2.177 6.086 5.384 7.093 8.261 2.392 6.835.525 13.3-6.518 16.177-9.491 3.883-21.448-1.273-30.469-7.042zm79.471-20.054c2.925 6.432.006 13-6.394 16.473l-14.489 7.8-6.935-10.823 13.229 5.26a19.586 19.586 0 007.215-2.4c3.954-2.15 7.659-5.129 5.869-9.066-2.195-4.824-9.437-4.624-14.686-4.469l-7.991.261c-4.087.145-9.09-1.01-11.486-6.278-1.337-2.939-2.035-7.469-.058-10.824 1.319-2.237 3.561-3.871 6.839-5.651l12.331-6.7 6.829 11.019-12.345-5.6a15.38 15.38 0 00-6.563 1.837c-4.734 2.432-8.547 5.886-6.732 9.879 1.868 4.1 9.17 3.041 15.406 2.487 9.111-.8 16.252-1.359 19.961 6.791m15.901-38.475c2.689 4.158.732 7.713-2.6 14.405-2.083 4.239-4.369 9.587-1.549 13.949l4.919 7.6 4.617 1.216-11.536 8.27.617-4.969-18.956-29.3-4.619-1.216 16.432-11.778c4.459-3.2 9.919-2.435 12.674 1.824m-5.691 25.97c-.617-2.378-.179-4.992 1.306-8.727 2.045-5.176-.341-10.07-1.915-12.5-3.115-4.817-7.565-5.115-12.315-1.71l-1.309.938zm48.885-23.508l4.833.74-10.366 8.675.213-3.315-17.5-7.7a9.472 9.472 0 001.682 7.766l5.456 6.962 4.74.817-10.922 9.132.213-4.962-21.451-27.373-4.741-.816 15.457-12.932c4.265-3.57 9.769-3.235 12.886.743 2.857 3.647 1.586 7.063-.779 12.962zm-23 3.8c-.813-2.3-.634-4.88.508-8.658 1.63-5.285-1.167-9.921-2.949-12.195-3.34-4.263-7.838-4.575-12.517-.66l-1.148.96zm12.402-41.191l22.793 26.206 4.8.587-10.539 9.6-.014-4.942-22.792-26.206-4.8-.588 10.54-9.6zm48.447-2.34l8.707.55-8.74 8.553-.146-8.507-40.261-4.52 21.421 22.539 8.708.55-8.868 8.678-.225-8.85-21.917-23.063-4.791-.518 7.326-7.169 30.3 3.606-11.91-12.532-8.707-.549 8.863-8.678.224 8.85z" fill="#231815"/><path d="M517.3 83.103a21.165 21.165 0 0118.083-6.52l.13.039-7.085 7.579c-5.917.355-10.723 2.334-13.507 5.313-4.218 4.513-3.139 10.476 1.488 14.839 9.167 8.645 27.054 9.277 34.343 1.479a9.455 9.455 0 002.464-5.1 18.219 18.219 0 00-.174-6.842l-15.3-4.541 5.568-5.954 10.215 9.633a21.275 21.275 0 11-36.221-9.926" fill="#231815"/>
      </g>
</svg>
