<svg xmlns="http://www.w3.org/2000/svg" xmlns:xlink="http://www.w3.org/1999/xlink" width="1366" height="717.151" viewBox="0 0 1366 717.151">
  <defs>
    <clipPath id="clip-path">
      <rect id="Rectangle_191" data-name="Rectangle 191" width="1366" height="717.151" fill="none"/>
    </clipPath>
    <clipPath id="clip-path-3">
      <rect id="Rectangle_189" data-name="Rectangle 189" width="220.492" height="59.355" fill="none"/>
    </clipPath>
  </defs>
  <g id="bg-mv" transform="translate(296)">
    <g id="Group_2273" data-name="Group 2273" transform="translate(-296)">
      <g id="Group_2272" data-name="Group 2272" clip-path="url(#clip-path)">
        <rect id="Rectangle_184" data-name="Rectangle 184" width="1366" height="717.151" fill="#fffbda"/>
        <g id="Group_2271" data-name="Group 2271">
          <g id="Group_2270" data-name="Group 2270" clip-path="url(#clip-path)">
            <path id="Path_4856" data-name="Path 4856" d="M1.924,0V717.151H13.782C24.252,681.845,40.627,635.6,64.693,589.41c28.939-55.545,63.178-100.183,101.769-132.669,48.329-40.687,103.631-62.318,164.367-64.3,103.048-3.352,173.71-24.831,222.369-67.595,43.828-38.517,65.9-91.052,89.265-146.672,8.087-19.25,16.45-39.158,25.979-59.2,33.946-71.394,78.536-102.867,109.966-116.7,1.854-.817,3.673-1.567,5.476-2.286Z" transform="translate(1.835)" fill="#b1dac1"/>
            <rect id="Rectangle_185" data-name="Rectangle 185" width="3.686" height="717.151" transform="translate(0.072)"/>
            <path id="Path_4857" data-name="Path 4857" d="M778.1,0c-1.8.719-3.622,1.469-5.476,2.286-31.43,13.829-76.02,45.3-109.964,116.7-9.531,20.041-17.894,39.949-25.981,59.2-23.366,55.62-45.434,108.155-89.265,146.672-48.659,42.764-119.319,64.242-222.367,67.595-60.738,1.977-116.039,23.608-164.368,64.3-38.589,32.487-72.83,77.124-101.769,132.669C34.839,635.6,18.465,681.845,7.994,717.151h3.843c10.432-35,26.648-80.581,50.378-126.115,28.716-55.1,62.652-99.343,100.868-131.5,47.673-40.121,102.2-61.453,162.079-63.4,103.949-3.38,175.343-25.151,224.682-68.511,44.465-39.076,66.694-91.99,90.23-148.012,8.072-19.213,16.417-39.08,25.909-59.044C699.388,50.306,743.107,19.347,773.9,5.749A160.578,160.578,0,0,1,788.922,0Z" transform="translate(7.622)"/>
            <path id="Path_4858" data-name="Path 4858" d="M251.686,498.283H129.554V466.912H89.484V424.541l-29.8,1.026V371.844H35.265v-52.4H18.59V212.062h233.1Zm-118.219-3.911H247.773v-278.4H22.5v99.561H39.178v52.4H63.6v53.586l29.8-1.028V463h40.07Z" transform="translate(17.725 202.199)"/>
            <path id="Path_4859" data-name="Path 4859" d="M131.557,492.463H245.863v-278.4H20.593v99.561H37.268v52.4H61.69V419.61l29.8-1.028v42.51h40.07Z" transform="translate(19.635 204.107)" fill="#cbdcf1"/>
            <path id="Path_4860" data-name="Path 4860" d="M73.226,113.876V449.688L269.291,263.857Z" transform="translate(69.82 108.579)" fill="#e73820"/>
            <path id="Path_4861" data-name="Path 4861" d="M71.053,463.758V109.477L277.9,267.708ZM75.3,118.07V453.883L271.364,268.051Z" transform="translate(67.748 104.385)"/>
            <path id="Path_4862" data-name="Path 4862" d="M83.216,223.022a46.1,46.1,0,0,1-3.116-3.807,2.886,2.886,0,0,1-.318-2.159,16.19,16.19,0,0,1,1.934-4.479c3.5-4.946,6.743-10.08,11-14.483,2.315-2.395,4.19-5.212,6.292-7.816a11.419,11.419,0,0,1,1.631-1.635,1.492,1.492,0,0,1,2.108.025,3.041,3.041,0,0,0,1.578.682c1.764.139,3.559.018,5.306.256a3.322,3.322,0,0,0,3.143-.889c2.821-2.8,6.7-3.9,9.941-6.046,1.229-.817,2.172-.025,3.163.736a41.451,41.451,0,0,1-2.391,5.841c-3.741,6.284-7.513,12.561-11.553,18.654-3.087,4.653-6.591,9.033-9.943,13.508a2.182,2.182,0,0,1-1.3.881c-3.032.283-5.167,2.282-7.507,3.85-1.481.994-2.7,2.381-4.2,3.337a19.317,19.317,0,0,1-4.809,2.293c-2.319.682-3.4-.594-2.711-2.93.588-2.006,1.2-4,1.75-5.819" transform="translate(75.986 173.845)"/>
            <path id="Path_4863" data-name="Path 4863" d="M121.376,173.6a13.561,13.561,0,0,0,1.211-2.385c.692-2.715,2.844-4.012,5.024-5.212,2.1-1.16,3.329-.6,3.946,1.762.846,3.231,1.414,6.538,2.329,9.75,2,7.04,2.932,14.3,4.62,21.406.359,1.51.709,3.026.983,4.554a1.67,1.67,0,0,1-1.549,2.168c-2.088.242-2.876,1.907-3.866,3.354-.7,1.022-1.246,2.159-2.02,3.116-1.108,1.373-2.037,1.348-3.282.027a12.872,12.872,0,0,1-2.631-4.313c-1.8-4.634-3.852-9.177-5.919-13.7a5.529,5.529,0,0,0-2.008-2.159,6.612,6.612,0,0,1-3-4.532c-.9-4.657-1.764-9.322-2.631-13.985a5.122,5.122,0,0,1-.111-1.387c.088-.91.633-1.5,1.557-1.323a18.764,18.764,0,0,1,3.317.99c1.283.51,2.512,1.158,4.028,1.871" transform="translate(107.231 157.721)"/>
            <path id="Path_4864" data-name="Path 4864" d="M118.447,231.4a2.978,2.978,0,0,1,.07.994c-1.233,3.76-2.321,7.583-3.8,11.246a37.921,37.921,0,0,0-2.731,10.088,12.482,12.482,0,0,1-1.807,4.985,45.492,45.492,0,0,1-7.458,9.791c-.223.215-.414.582-.664.629-1.879.342-3.608,1.768-5.564,1.215-2.032-.576-3.221.412-4.489,1.635a38.112,38.112,0,0,1-3.145,2.741,1.488,1.488,0,0,1-2.123.021,2.67,2.67,0,0,1-.475-1.887,27.3,27.3,0,0,1,.895-3.376c1.451-5.241,2.688-10.557,4.444-15.692.832-2.436,2.551-4.606,4.061-6.763,2.1-2.991,4.389-5.845,6.572-8.779,1.36-1.826,2.821-3.135,5.431-2.848,1.029.111,2.352-.738,3.255-1.494,1.885-1.576,4.175-2.014,6.392-2.684.315-.1.719.1,1.139.178" transform="translate(82.227 220.44)"/>
            <path id="Path_4865" data-name="Path 4865" d="M123.049,220.081a32.835,32.835,0,0,0,5.817-1.33,5.649,5.649,0,0,0,2.3-2.772,14.743,14.743,0,0,1,4.47-5.28c1.621-1.246,2.375-.981,2.551,1,.561,6.343,1.059,12.692,1.535,19.043.3,3.946.512,7.9.762,11.852.031.465.08.93.082,1.395.008.926-.453,1.635-1.387,1.446-2.2-.447-3.743,1.364-5.761,1.5-.338.023-.682.574-.947.938-1.006,1.377-1.977,2.782-2.977,4.167a5.356,5.356,0,0,1-.774.856c-1.741,1.567-2.516,1.385-3.309-.785-1.336-3.655-2.557-7.337-2.655-11.287a5.743,5.743,0,0,0-1.586-3.788,22.431,22.431,0,0,1-1.448-1.823,7.038,7.038,0,0,1-1.186-6.155,33.18,33.18,0,0,0,.723-6.445c.1-2.4.49-2.9,2.8-2.817.311.012.621,0,.932,0l.053.281" transform="translate(112.792 200.177)"/>
            <path id="Path_4866" data-name="Path 4866" d="M117.372,228.781c-1.862,2.709-3.444,5.269-3.622,8.447a3.1,3.1,0,0,1-.459,1.3c-.391.682-.9,1.471-1.785,1.19a2.884,2.884,0,0,1-1.457-1.311,46.906,46.906,0,0,1-4.515-12.342,75.142,75.142,0,0,0-2.123-7.4,18.35,18.35,0,0,1-.856-6.908c.152-2.711.945-3.544,3.653-3.862a3.266,3.266,0,0,0,2.61-1.576,7.361,7.361,0,0,1,5.964-3.53,7.863,7.863,0,0,0,2.37-.8c1.274-.5,1.883-.352,2.42.93.508,1.213.676,2.575,1.235,3.759a12.994,12.994,0,0,1,.656,8.908c-.686,3.042-.193,6.347-.258,9.537a16.482,16.482,0,0,1-.279,3.008c-.379,1.8-.912,2-2.584,1.164-.272-.135-.537-.281-.969-.51" transform="translate(97.752 192.336)"/>
            <path id="Path_4867" data-name="Path 4867" d="M127.866,222.3a1.478,1.478,0,0,1-1.358-2.213c.858-1.743,1.789-3.454,2.79-5.118,1.086-1.811,2.1-3.567,2.106-5.816a8.777,8.777,0,0,1,3.124-6.312c4.815-4.636,9.4-9.525,14.841-13.479a3.568,3.568,0,0,1,3.977-.608,64.748,64.748,0,0,0,8.529,2.252c.3.074.617.1.914.191,1.524.469,1.77,1.172.666,2.274a33.266,33.266,0,0,1-3.835,3.4,20.867,20.867,0,0,0-4.4,4.427,67.173,67.173,0,0,1-5.874,6.3,2.845,2.845,0,0,1-1.619.856c-2.987.232-4.866,2.217-6.843,4.095-1.522,1.446-3.016,2.936-4.669,4.22-1.582,1.231-3.36,2.207-5.032,3.325-.776.52-1.491,1.129-2.258,1.659a8.185,8.185,0,0,1-1.059.547" transform="translate(120.444 179.64)"/>
            <path id="Path_4868" data-name="Path 4868" d="M98.8,183.344a15.774,15.774,0,0,1-.649,1.553c-.565,1.024-1.438,1.215-2.26.356a12.378,12.378,0,0,1-1.711-2.479c-1.918-3.383-3.831-6.771-5.671-10.2-1.063-1.985-1.985-4.046-2.967-6.073-.508-1.049-.987-2.11-1.522-3.143-.987-1.9-.6-3.159,1.475-3.758a5.677,5.677,0,0,0,3.114-2.278,6.7,6.7,0,0,1,3.815-2.9,3.869,3.869,0,0,0,1.3-.906c1.78-1.44,3.249-1.2,4.444.734,1.514,2.45,2.991,4.921,4.556,7.335,1.172,1.807,1.455,1.84,3.4,1,2.291-.994,2.821-.922,4.3,1.168,4.19,5.929,7.988,12.053,9.492,19.318a50.3,50.3,0,0,0,1.52,4.9c.273.86.391,1.731-.422,2.346s-1.608.2-2.395-.207a36.244,36.244,0,0,1-8.478-5.692,13.144,13.144,0,0,0-2.252-1.657,2.789,2.789,0,0,0-3.3.025c-1.807,1.424-3.7,1.348-5.782.561" transform="translate(79.618 145.493)"/>
            <path id="Path_4869" data-name="Path 4869" d="M84.152,223.93a7.8,7.8,0,0,0,.154-1.545c-.309-2.631,1.821-3.77,3.255-5.317a1.253,1.253,0,0,1,1.092-.182c2.317.83,4.97.735,6.956,2.475,2.2,1.928,4.472,3.667,4.417,7.167-.037,2.442.735,4.9,1.125,7.347a14.042,14.042,0,0,1,.258,2.311c-.012,1.569-.328,1.987-1.889,1.932-1.256-.043-1.588.568-1.883,1.565-1,3.364-.43,6.779-.418,10.176,0,.955.617,2.1-.725,2.618-1.143.438-1.791-.324-2.553-1.092a11.874,11.874,0,0,0-2.706-1.672A14.329,14.329,0,0,1,89,248.534c-2.2-1.844-4.391-3.7-6.447-5.7a9.674,9.674,0,0,1-3.186-7.042,13.222,13.222,0,0,0-1.076-4.966,13.356,13.356,0,0,1-.93-3.571c-.133-1.4.3-1.594,1.727-1.891,1.649-.344,3.251-.908,5.061-1.432" transform="translate(73.744 206.749)"/>
            <path id="Path_4870" data-name="Path 4870" d="M145.611,209.124a5.774,5.774,0,0,0,.393-1.1c.254-1.969,2.01-2.411,3.335-3.274a.931.931,0,0,1,.826.066c1.534,1.024,3.481,1.438,4.608,3.063,1.25,1.8,2.584,3.479,1.91,6.015a32.5,32.5,0,0,0-.518,5.548,10.606,10.606,0,0,1-.232,1.727c-.295,1.139-.6,1.385-1.727,1.063-.9-.26-1.256.123-1.653.8-1.34,2.264-1.545,4.85-2.155,7.324-.17.7.066,1.641-1,1.772-.91.109-1.242-.561-1.659-1.258a8.92,8.92,0,0,0-1.662-1.709,10.692,10.692,0,0,1-1.41-1.262c-1.262-1.741-2.52-3.491-3.651-5.317a7.249,7.249,0,0,1-1.035-5.7,9.959,9.959,0,0,0,.119-3.807,10.017,10.017,0,0,1-.029-2.766c.16-1.043.512-1.1,1.6-1.061,1.26.049,2.528-.07,3.94-.121" transform="translate(133.272 195.164)"/>
            <path id="Path_4871" data-name="Path 4871" d="M96.644,136.189h3.673a10.784,10.784,0,0,1,.057,2.291c-.768,3.96-1.41,7.957-3.571,11.5-1.451,2.379-2.692,4.888-4.157,7.257a47.5,47.5,0,0,1-3.077,4.077c-.717.916-1.453,1.819-2.233,2.682a5.9,5.9,0,0,1-1.391,1.2c-1.018.586-1.619.381-1.942-.746a13.437,13.437,0,0,1-.441-2.987c-.168-3.333-.273-6.669-.408-10.123-1.528-.277-2.469-1.809-4.3-1.317-.817.221-1.379-.692-1.1-1.6a35.262,35.262,0,0,1,1.432-3.932c2.057-4.612,4.136-9.215,6.279-13.786a26.878,26.878,0,0,1,2.448-4.223c.383-.535,1.254-.721,1.9-1.065A12.274,12.274,0,0,1,90.574,127c.432,1.35.826,2.393,2.575,2.86a4.92,4.92,0,0,1,3.28,4.167c.107.6.125,1.225.215,2.163" transform="translate(74.066 119.583)"/>
            <path id="Path_4872" data-name="Path 4872" d="M173.534,197.428a46.574,46.574,0,0,0-1.395,4.444,9.311,9.311,0,0,0,.211,5.071,5.341,5.341,0,0,1-.129,1.965,5.817,5.817,0,0,1-2.143-.256,16.5,16.5,0,0,1-2.983-2.233c-2.065-1.871-4.057-3.821-6.1-5.714a6,6,0,0,0-1.506-1.072,12.108,12.108,0,0,1-4.315-3.841c-1.2-1.526-2.44-3.018-3.661-4.526a8.893,8.893,0,0,1-1.006-1.278c-.426-.789-.037-1.641.744-1.461,2.354.545,4.087-1.436,6.3-1.366.33.01.7-.541,1.014-.867,2.329-2.393,4.356-2.709,7.044-.85a47.126,47.126,0,0,1,9.982,9.092,5.214,5.214,0,0,1,.649.965c.555,1.141.219,1.772-1.035,1.916a15.316,15.316,0,0,1-1.674.01" transform="translate(143.339 175.676)"/>
            <path id="Path_4873" data-name="Path 4873" d="M142.521,162.352q-1.251,3.466-2.5,6.931a33.438,33.438,0,0,0-1.227,3.764c-.465,2.034-1.229,4.147-1.041,6.146a45.834,45.834,0,0,1,.107,5.991c-.041,1.09-.608,2.5.809,3.124,1.168.514,1.778-.682,2.51-1.287a2.623,2.623,0,0,1,3.589-.24c1.506,1.082,3.034,2.133,4.595,3.131,1.8,1.151,2.577,1.057,3.532-.867,2.241-4.5,4.518-9.013,6.4-13.674.018-.047.035-.1.055-.15Z" transform="translate(131.305 154.801)"/>
            <path id="Path_4874" data-name="Path 4874" d="M128.031,158.272c-1.315-3.737-3.331-7.367-3.858-11.205-.035-.254-.082-.5-.123-.744l-14.1-10.785a9.25,9.25,0,0,0-4.524,6.275,4.062,4.062,0,0,1-2.35,2.971c-3.01,1.551-3.569,2.864-2.563,6.085a22.781,22.781,0,0,0,4.007,7.662,92.531,92.531,0,0,1,5.7,7.677A58.3,58.3,0,0,0,120.852,178.6a3.594,3.594,0,0,0,2.268.889c1.151-.061,1.4-1.2,1.557-2.163a3.864,3.864,0,0,0-.033-1.713c-1.18-3.774-.455-7.441.527-11.4.6.078.975.133,1.35.172,2.311.246,2.842-.223,2.5-2.483a20.287,20.287,0,0,0-.987-3.622" transform="translate(95.399 129.233)"/>
            <path id="Path_4875" data-name="Path 4875" d="M105.732,259.4a8.778,8.778,0,0,0-2.954-.205,19.159,19.159,0,0,0-2.934.727,7.777,7.777,0,0,1-7.81-2.305,2.663,2.663,0,0,0-2.514-.889,8.892,8.892,0,0,0-3.635,1.365,19.268,19.268,0,0,0-5.575,8.183,22.3,22.3,0,0,1-1.869,3.7c-1.2,1.993-2.622,3.856-3.717,5.9-1.328,2.485-2.487,5.06-3.671,7.621v5.358a3.676,3.676,0,0,0,.416-.078,7.555,7.555,0,0,0,1.274-.572q4.243-2.075,8.488-4.153A4.441,4.441,0,0,1,82.3,283.6c.43-.084,1.031-.215,1.309,0,1.659,1.272,3.083.363,4.565-.334a7.438,7.438,0,0,1,2.543-1.008,4.964,4.964,0,0,0,3.766-2.018c.942-1.137,1.819-2.332,2.813-3.421,1.143-1.252,2.4-2.4,3.577-3.62a17.989,17.989,0,0,0,2.162-2.412c1.926-2.891,2.241-6.417,3.622-9.531a4.322,4.322,0,0,0,.092-.813c-.229-.248-.551-.918-1.014-1.033" transform="translate(67.747 244.731)"/>
            <path id="Path_4876" data-name="Path 4876" d="M407.426,424.56H254.964V394.639h-34.79V360.822H186.357V327H152.539V293.186H118.722V259.369H84.9V175.057h33.817V141.238h33.817V107.421h33.819V73.6h33.817V39.786h34.79V9.864H407.426Zm-147.879-4.581h143.3V14.447h-143.3V44.368h-34.79V78.187H190.94V112H157.122v33.817H123.3V179.64H89.488v75.147H123.3V288.6h33.817v33.819H190.94v33.817h33.817v33.817h34.79Z" transform="translate(80.956 9.405)"/>
            <path id="Path_4877" data-name="Path 4877" d="M257.31,417.742h143.3V12.21H257.31V42.131h-34.79V75.95H188.7v33.817H154.885v33.817H121.068V177.4H87.251v75.147h33.817v33.817h33.817v33.819H188.7V354h33.817v33.817h34.79Z" transform="translate(83.193 11.642)" fill="#009ad2"/>
            <path id="Path_4878" data-name="Path 4878" d="M.037,13.211v4.053h426c-2.684,65.395-135.164,118.252-297.624,118.252-45.942,0-89.481-4.229-128.372-11.772v4.143c39.638,7.65,83.25,11.684,128.372,11.684,80.308,0,155.84-12.774,212.682-35.972,57.419-23.432,89.04-54.813,89.04-88.362V13.211Z" transform="translate(0.035 12.597)"/>
            <path id="Path_4879" data-name="Path 4879" d="M.037,15.287V121.766c38.89,7.542,82.429,11.772,128.372,11.772,162.46,0,294.94-52.857,297.624-118.25Z" transform="translate(0.035 14.576)" fill="#f0c700"/>
            <rect id="Rectangle_186" data-name="Rectangle 186" width="3.696" height="717.151" transform="translate(1313.078)"/>
            <path id="Path_4880" data-name="Path 4880" d="M357.987,717.151,894.712,0H890.1L353.371,717.151Z" transform="translate(336.935)"/>
            <path id="Path_4881" data-name="Path 4881" d="M973.89,717.151V0H892.46L355.734,717.151Z" transform="translate(339.188)" fill="#eb6300"/>
            <path id="Path_4882" data-name="Path 4882" d="M761.669,479.326H486.643l1.655-277.3,86.059.67,38.624-.688v36.856h33.885v24.6h28.187V296.72h86.616Zm-271.041-3.96H757.707V300.682H671.091V267.429H642.9v-24.6H609.019V206.043l-34.667.617-82.119-.635Z" transform="translate(464.008 192.617)"/>
            <path id="Path_4883" data-name="Path 4883" d="M488.683,473.408H755.762V298.723H669.146V265.47H640.959v-24.6H607.074V204.084l-34.667.617-82.119-.635Z" transform="translate(465.953 194.575)" fill="#009ad2"/>
            <path id="Path_4884" data-name="Path 4884" d="M508.294,258.458c-.088-.42-2.092-10.367,3.762-18.988,3.973-5.849,10.525-9.594,19.474-11.133,8.06-1.387,13.917-4.6,17.406-9.558a21.984,21.984,0,0,0,3.475-14.942l3.9-.7a25.654,25.654,0,0,1-4.1,17.872c-4.114,5.874-10.848,9.652-20.008,11.229-7.83,1.346-13.5,4.516-16.845,9.422-4.917,7.2-3.2,15.9-3.186,15.985Z" transform="translate(484.27 193.691)"/>
            <path id="Path_4885" data-name="Path 4885" d="M582.134,296.621a24.441,24.441,0,0,1-11.672-2.858c-6.308-3.415-10.832-9.672-13.446-18.591-2.233-7.626-6.03-12.893-11.283-15.657-7.716-4.063-16.161-1.365-16.245-1.338l-1.25-3.76c.406-.133,10.06-3.262,19.293,1.567,6.265,3.278,10.736,9.359,13.29,18.074,2.305,7.871,6.183,13.331,11.527,16.224A21.777,21.777,0,0,0,587.537,292l1.147,3.792a24.466,24.466,0,0,1-6.55.828" transform="translate(503.668 241.516)"/>
            <path id="Path_4886" data-name="Path 4886" d="M510.136,267.617l-3.956-.205c.027-.537.879-13.229,17.839-20.023,14.536-5.821,15.677-15.81,15.718-16.232l3.946.346c-.043.52-1.27,12.786-18.189,19.562-14.637,5.864-15.352,16.446-15.358,16.552" transform="translate(482.637 220.405)"/>
            <path id="Path_4887" data-name="Path 4887" d="M633.948,296.214a34.483,34.483,0,0,1-13.364-2.922c-14.4-6.04-22.237.727-22.565,1.018l-2.663-2.932c.4-.363,9.914-8.808,26.759-1.739,14.442,6.056,22.262-.26,22.588-.529l2.567,3.016c-.274.234-4.909,4.087-13.323,4.089" transform="translate(567.666 273.486)"/>
            <path id="Path_4888" data-name="Path 4888" d="M596.332,288.189l-3.956-.221c.024-.43.7-10.576,14.155-15.964,11.029-4.417,11.92-11.944,11.953-12.264l3.944.352c-.035.414-1.012,10.219-14.425,15.589-11,4.405-11.651,12.18-11.672,12.508" transform="translate(564.823 247.659)"/>
            <path id="Path_4889" data-name="Path 4889" d="M524.737,219.911c-3.651,0-8.429-1.008-13.921-4.557-10.234-6.615-17.152-2.536-17.443-2.358l-2.106-3.356c.371-.234,9.24-5.663,21.7,2.387,10.258,6.628,17.115,2.9,17.4,2.739l1.993,3.423a15.868,15.868,0,0,1-7.626,1.723" transform="translate(468.418 197.975)"/>
            <path id="Path_4890" data-name="Path 4890" d="M587.284,293.229c-3.434-.236-10.062-3.161-10.574-12.545-.444-8.07-5.976-8.957-6.6-9.031l.41-3.94c3.286.326,9.635,3.413,10.148,12.754.439,8.029,6.247,8.756,6.907,8.812Z" transform="translate(543.588 255.261)"/>
            <path id="Path_4891" data-name="Path 4891" d="M614.378,331.357c-2.667-2.174-6.39-8.388-1.393-16.349,4.3-6.845.291-10.762-.18-11.188l2.61-2.981c2.495,2.164,5.9,8.351.924,16.274-4.405,7.019.336,11.006.541,11.172Z" transform="translate(582.126 286.847)"/>
            <path id="Path_4892" data-name="Path 4892" d="M542.428,319.125c-.418-.084-10.258-2.248-14.116-16.528-3.215-11.9-11.285-13.409-11.365-13.422l.666-3.905c.434.074,10.654,1.975,14.524,16.294,3.225,11.946,11,13.665,11.082,13.68Z" transform="translate(492.903 272.001)"/>
            <path id="Path_4893" data-name="Path 4893" d="M527.88,273.936a17.07,17.07,0,0,1-3.475-.355c-5.188-1.076-9.705-4.52-13.424-10.24-3.026-4.655-6.609-7.41-10.646-8.187a15.786,15.786,0,0,0-10.973,2.344l-2.282-3.241c.262-.182,6.445-4.448,14-2.993,5.136.988,9.582,4.325,13.221,9.918,3.913,6.015,8.646,8.994,14.049,8.783a15.627,15.627,0,0,0,7.23-2.135l2.182,3.305a19.328,19.328,0,0,1-9.885,2.8" transform="translate(464.424 239.289)"/>
            <path id="Path_4894" data-name="Path 4894" d="M582.165,305.767c-4.63,0-11.9-1.266-20.482-7.224-12.881-8.943-22.194-6.425-22.285-6.4l-1.127-3.8c.443-.135,11.1-3.171,25.673,6.945,12.858,8.926,21.977,6.152,22.36,6.03l1.246,3.76a18.161,18.161,0,0,1-5.384.686" transform="translate(513.234 274.429)"/>
            <path id="Path_4895" data-name="Path 4895" d="M559,267.08c-.524-.211-12.793-5.384-12.326-24.231.4-16.081-10.256-20.176-10.363-20.217l1.365-3.719c.549.2,13.424,5.144,12.957,24.036-.4,15.987,9.441,20.287,9.861,20.463Z" transform="translate(511.362 208.731)"/>
            <path id="Path_4896" data-name="Path 4896" d="M579.964,340.832l-3.85-.93c.014-.057,1.389-6.068-1.6-9.527-1.758-2.037-4.829-2.889-9.117-2.518-17.741,1.518-26.141-13.022-26.493-13.641l3.448-1.952c.3.529,7.548,12.944,22.706,11.647,5.638-.483,9.838.826,12.473,3.9,4.3,5.011,2.508,12.7,2.43,13.026" transform="translate(513.842 297.74)"/>
            <path id="Path_4897" data-name="Path 4897" d="M500.5,348.446c-.141-.487-3.321-12.082,9.279-25.224,10.9-11.365,8.023-21.129,7.9-21.537l3.768-1.217c.164.5,3.825,12.328-8.806,25.5-10.926,11.393-8.441,20.984-8.33,21.387Z" transform="translate(476.784 286.493)"/>
            <path id="Path_4898" data-name="Path 4898" d="M606.8,344.15a15.781,15.781,0,0,1-6.175-1.281c-14.544-6.136-22.617-.393-22.953-.145l-2.379-3.167c.406-.307,10.1-7.417,26.872-.338,14.042,5.923,26.142-17.62,26.263-17.861l3.536,1.787a59.116,59.116,0,0,1-8.76,12.377c-5.38,5.716-10.955,8.627-16.4,8.627" transform="translate(548.535 306.412)"/>
            <path id="Path_4899" data-name="Path 4899" d="M609.638,278.245c-4.874,0-16.679-1.891-25.087-18.746-2.684-5.38-6.06-8.5-10.037-9.261-6.843-1.307-13.594,4.606-13.663,4.667l-2.643-2.95c.332-.3,8.224-7.294,17.031-5.61,5.265,1,9.59,4.835,12.858,11.387,9.232,18.511,22.522,16.55,23.083,16.456l.676,3.9a13.54,13.54,0,0,1-2.217.154" transform="translate(532.246 234.637)"/>
            <path id="Path_4900" data-name="Path 4900" d="M497.472,306.145c-.133-.342-3.19-8.457.678-14.747,2.325-3.78,6.538-6,12.526-6.6,16.237-1.623,18.535-11.909,18.624-12.346l3.89.758c-.106.555-2.815,13.6-22.121,15.53-4.681.467-7.888,2.055-9.535,4.716-2.846,4.6-.389,11.2-.365,11.266Z" transform="translate(473.121 259.783)"/>
            <path id="Path_4901" data-name="Path 4901" d="M546.214,354.891a13.249,13.249,0,0,1-5.441-1.1c-4.051-1.809-6.8-5.7-8.183-11.551-3.739-15.884-14.239-16.814-14.682-16.847l.24-3.954c.563.033,13.854,1.008,18.3,19.894,1.078,4.579,3.071,7.552,5.925,8.834,4.938,2.219,11.154-1.084,11.215-1.117l1.9,3.479a21.419,21.419,0,0,1-9.269,2.364" transform="translate(493.819 306.487)"/>
            <path id="Path_4902" data-name="Path 4902" d="M600.69,334.248c-.311-.022-7.669-.623-11.887-6.238-2.711-3.612-3.467-8.359-2.246-14.108,3.233-15.229-4.827-21.594-5.171-21.858l2.377-3.171c.428.32,10.453,8.021,6.669,25.849-.971,4.569-.457,8.23,1.522,10.883,3.114,4.177,8.974,4.686,9.033,4.692Z" transform="translate(554.345 275.438)"/>
            <path id="Path_4903" data-name="Path 4903" d="M642.459,323.417H484.088V39.493H630.295l26.511,73.43-25.091-5.685L650.359,160.1l-26.275-6.409,22.225,56.872-29.566-13.485,27.2,66.641L613.5,247.887Zm-155.007-3.364H637.568l-30.383-79.241,30.181,15.69-26.943-66.008,29.73,13.561L618.6,148.884l26.525,6.47L626.515,102.61l25.04,5.673-23.62-65.424H487.452Z" transform="translate(461.572 37.656)"/>
            <path id="Path_4904" data-name="Path 4904" d="M485.81,318.41H635.925l-30.383-79.241,30.183,15.69-26.944-66.008,29.732,13.561-21.561-55.17,26.526,6.47-18.607-52.744,25.04,5.673-23.62-65.424H485.81Z" transform="translate(463.214 39.299)" fill="#f0c700"/>
            <path id="Path_4940" data-name="Path 4940" d="M247.465,147.837a1.449,1.449,0,0,1-1.58-1.491,1.361,1.361,0,0,1,1.489-1.323,1.52,1.52,0,0,1,1.723,1.385c.078.811-.672,1.44-1.631,1.428" transform="translate(234.443 138.279)"/>
            <path id="Path_5009" data-name="Path 5009" d="M241.018,53.081,173.65,21.32H308.386Z" transform="translate(165.574 20.328)"/>
            <path id="Path_5010" data-name="Path 5010" d="M797.943,187.935H537.411a24,24,0,1,1,0-48H797.943a24,24,0,1,1,0,48M537.411,143.185a20.753,20.753,0,0,0,0,41.506H797.943a20.753,20.753,0,0,0,0-41.506Z" transform="translate(489.532 133.431)"/>
            <path id="Path_5011" data-name="Path 5011" d="M535.826,141.6a20.753,20.753,0,0,0,0,41.506H796.359a20.753,20.753,0,0,0,0-41.506Z" transform="translate(491.117 135.015)" fill="#34ac37"/>
            <path id="Path_5012" data-name="Path 5012" d="M529,160.267v1.561h-9.961c.373-2.6,1.182-3.643,3.94-5.743,2.43-1.85,3.723-2.813,3.723-4.317a2.447,2.447,0,0,0-2.627-2.331,3.246,3.246,0,0,0-2.059.615,2.722,2.722,0,0,0-.942,2.411H518.82a4.956,4.956,0,0,1,1.555-3.219,5.64,5.64,0,0,1,3.569-1.213c2.975,0,4.9,1.733,4.9,3.815,0,2.1-1.643,3.335-3.044,4.317-3.372,2.389-3.831,2.717-4.335,4.1Z" transform="translate(494.689 141.145)"/>
            <path id="Path_5013" data-name="Path 5013" d="M529.8,155.186a10.086,10.086,0,0,1,1.489-5.126,5.085,5.085,0,0,1,4.071-2.1A5.453,5.453,0,0,1,540,150.716a10.531,10.531,0,0,1,.92,4.259c0,1.887,0,7.187-5.562,7.187-2.868,0-5.56-1.926-5.56-6.976m2.868,4.028a3.251,3.251,0,0,0,2.692,1.311c3.415,0,3.438-3.3,3.438-5.339,0-4.337-1.907-5.685-3.438-5.685a3.164,3.164,0,0,0-2.934,2.487,11.783,11.783,0,0,0-.526,3.2,8.017,8.017,0,0,0,.768,4.028" transform="translate(505.161 141.078)"/>
            <path id="Path_5014" data-name="Path 5014" d="M551.414,160.267v1.561h-9.961c.371-2.6,1.182-3.643,3.94-5.743,2.43-1.85,3.722-2.813,3.722-4.317a2.445,2.445,0,0,0-2.625-2.331,3.246,3.246,0,0,0-2.059.615,2.722,2.722,0,0,0-.942,2.411h-2.254a4.955,4.955,0,0,1,1.555-3.219,5.637,5.637,0,0,1,3.569-1.213c2.975,0,4.9,1.733,4.9,3.815,0,2.1-1.643,3.335-3.044,4.317-3.372,2.389-3.831,2.717-4.335,4.1Z" transform="translate(516.06 141.145)"/>
            <path id="Path_5015" data-name="Path 5015" d="M561.269,148.138v9.1h1.948v1.561h-1.948V161.8h-1.948v-3.006H552.2v-1.907l7.445-8.75Zm-7.093,9.1h5.146v-6.089Z" transform="translate(526.521 141.248)"/>
            <path id="Path_5016" data-name="Path 5016" d="M580.154,149.374v1.659h-6.37v2.6h5.188v1.6h-5.188v3.217H580.9v1.735h-7.115v4.432h-2.037v-4.432H561.481V158.45h3.436v-4.815h6.829v-2.6h-6.019a27.614,27.614,0,0,1-3.065,3.854,5.37,5.37,0,0,0-1.4-1.272,22.5,22.5,0,0,0,4.292-6.552l2.08.539c-.416.828-.68,1.309-.963,1.772Zm-13.245,9.076h4.839v-3.217h-4.839Z" transform="translate(535.155 140.223)"/>
            <path id="Path_5017" data-name="Path 5017" d="M580.519,148.1v13.586h-2.08V150.14a7.61,7.61,0,0,1-2.889.7v-1.619a4.157,4.157,0,0,0,3.174-1.117Z" transform="translate(548.779 141.211)"/>
            <path id="Path_5018" data-name="Path 5018" d="M591.726,148.1v13.586h-2.08V150.14a7.609,7.609,0,0,1-2.889.7v-1.619a4.156,4.156,0,0,0,3.174-1.117Z" transform="translate(559.465 141.211)"/>
            <path id="Path_5019" data-name="Path 5019" d="M610.469,147.615v14.241c0,1.291-.2,1.657-3.786,1.948a5.154,5.154,0,0,0-.68-1.909h2.037c.285,0,.371-.1.371-.385v-3.682H600.2a11.813,11.813,0,0,1-3.131,6.206,5.712,5.712,0,0,0-1.619-1.33,11.594,11.594,0,0,0,3.043-8.326c.021-.578.021-1.233.021-6.763Zm-2.057,8.556v-2.737H600.62c-.022.789-.045,1.754-.131,2.737Zm-7.792-4.3h7.794v-2.622H600.62Z" transform="translate(567.757 140.749)"/>
            <path id="Path_5020" data-name="Path 5020" d="M614.14,148.1v13.586h-2.08V150.14a7.611,7.611,0,0,1-2.889.7v-1.619a4.156,4.156,0,0,0,3.174-1.117Z" transform="translate(580.836 141.211)"/>
            <path id="Path_5021" data-name="Path 5021" d="M629.16,148.108v1.6H622.7l-.459,4.124a5.784,5.784,0,0,1,2.977-.772,4.462,4.462,0,0,1,4.86,4.432c0,2.833-2.344,4.567-5.145,4.567a5.1,5.1,0,0,1-5.319-3.778h2.211a2.842,2.842,0,0,0,2.954,2.332,2.975,2.975,0,0,0,3.176-2.967,3.027,3.027,0,0,0-3.262-3.217,3.068,3.068,0,0,0-2.67,1.348l-1.817-.6.832-7.072Z" transform="translate(590.796 141.219)"/>
            <path id="Path_5022" data-name="Path 5022" d="M643.211,147.862v15.243h-2.233v-.985H632.4v1.293h-2.123V147.862ZM632.4,154.047h8.582v-4.509H632.4Zm0,6.437h8.582v-4.8H632.4Z" transform="translate(600.958 140.985)"/>
            <path id="Path_5023" data-name="Path 5023" d="M647.979,148.493a11.011,11.011,0,0,0-3.129,7.939,11.22,11.22,0,0,0,3.129,7.787H646.1a10.923,10.923,0,0,1-3.284-7.806,11.157,11.157,0,0,1,3.284-7.919Z" transform="translate(612.915 141.586)"/>
            <path id="Path_5024" data-name="Path 5024" d="M660.4,147.861l-.283.346a28.412,28.412,0,0,0,9.193,6.089,6.755,6.755,0,0,0-1.336,1.676c-1.246-.615-2.428-1.289-3.37-1.868v.828h-4.751v1.85h7.685v1.483h-7.685v4.376h3.678a12.709,12.709,0,0,0-1.446-.848,21.453,21.453,0,0,0,1.686-3.141l1.926.963c-.809,1.35-1.248,2.024-1.926,3.026h4.663V164.2H649.611v-1.561h8.21v-4.376H650.64v-1.483h7.181v-1.85h-4.29v-.887a32.49,32.49,0,0,1-3.372,2.159,5.7,5.7,0,0,0-1.272-1.639,22.172,22.172,0,0,0,3.657-2.176,35.41,35.41,0,0,0,5.845-5.415Zm-6.5,11a11.433,11.433,0,0,1,1.9,2.506l-1.75.789a17.835,17.835,0,0,0-1.731-2.524Zm9.566-5.491a35.3,35.3,0,0,1-3.174-2.428c-.307-.309-.656-.656-1.489-1.426a30.557,30.557,0,0,1-2.606,2.428c-.5.385-1.049.848-1.729,1.426Z" transform="translate(618.707 140.138)"/>
            <path id="Path_5025" data-name="Path 5025" d="M662.74,164.219a11.264,11.264,0,0,0,3.131-7.863,11.14,11.14,0,0,0-3.131-7.863h1.883a11.055,11.055,0,0,1,0,15.726Z" transform="translate(631.915 141.586)"/>
            <path id="Path_5026" data-name="Path 5026" d="M764.582,208.189H615.6a24,24,0,1,1,0-48H764.582a24,24,0,1,1,0,48M615.6,163.439a20.753,20.753,0,0,0,0,41.506H764.582a20.753,20.753,0,1,0,0-41.506Z" transform="translate(564.089 152.743)"/>
            <path id="Path_5027" data-name="Path 5027" d="M614.02,161.855a20.753,20.753,0,0,0,0,41.506H763a20.753,20.753,0,1,0,0-41.506Z" transform="translate(565.674 154.327)" fill="#34ac37"/>
            <rect id="Rectangle_187" data-name="Rectangle 187" width="5.976" height="1.502" transform="translate(1172.517 337.106)"/>
            <path id="Path_5028" data-name="Path 5028" d="M612.213,168.353v13.587h-2.08V170.394a7.611,7.611,0,0,1-2.889.7V169.47a4.156,4.156,0,0,0,3.174-1.117Z" transform="translate(578.999 160.523)"/>
            <path id="Path_5029" data-name="Path 5029" d="M627.935,180.521v1.561h-9.961c.373-2.6,1.182-3.643,3.94-5.743,2.43-1.85,3.723-2.813,3.723-4.317a2.447,2.447,0,0,0-2.627-2.331,3.246,3.246,0,0,0-2.059.615,2.722,2.722,0,0,0-.942,2.411h-2.254a4.956,4.956,0,0,1,1.555-3.219,5.64,5.64,0,0,1,3.569-1.213c2.975,0,4.9,1.733,4.9,3.815,0,2.1-1.643,3.335-3.043,4.317-3.372,2.389-3.831,2.717-4.335,4.1Z" transform="translate(589.022 160.457)"/>
            <path id="Path_5030" data-name="Path 5030" d="M642.164,167.87v14.241c0,1.291-.2,1.657-3.786,1.946a5.143,5.143,0,0,0-.68-1.907h2.036c.285,0,.373-.1.373-.387v-3.68H631.9a11.81,11.81,0,0,1-3.129,6.206,5.712,5.712,0,0,0-1.62-1.33,11.575,11.575,0,0,0,3.042-8.326c.024-.578.024-1.233.024-6.763Zm-2.057,8.556v-2.737h-7.794c-.02.789-.043,1.752-.131,2.737Zm-7.794-4.3h7.794v-2.622h-7.794Z" transform="translate(597.977 160.062)"/>
            <path id="Path_5031" data-name="Path 5031" d="M651.025,178.7c0,2.293-2.059,3.739-5.562,3.739-2.626,0-5.429-1.119-5.429-3.778,0-2.12,2.078-3.18,3.284-3.815-1.139-.5-2.758-1.33-2.758-3.237,0-2.178,2.409-3.335,4.794-3.335,2.364,0,4.817,1.137,4.817,3.411,0,1.774-1.512,2.563-2.78,3.161,2.166.963,3.633,1.965,3.633,3.854m-2.08-.039c0-1.446-1.86-2.331-3.633-3.044-1.926.9-3.305,1.617-3.305,3.139,0,1.426,1.686,2.139,3.393,2.139,1.51,0,3.546-.713,3.546-2.235m-5.517-8.382a1.7,1.7,0,0,0-.744,1.426c0,1.522,2.1,2.215,2.934,2.467,1.225-.5,2.452-1.311,2.452-2.506a1.957,1.957,0,0,0-.438-1.174,3.13,3.13,0,0,0-2.453-.867,4.593,4.593,0,0,0-1.75.654" transform="translate(610.266 160.447)"/>
            <path id="Path_5032" data-name="Path 5032" d="M663.7,168.116v15.243h-2.233v-.983h-8.582v1.291H650.76V168.116ZM652.883,174.3h8.582v-4.509h-8.582Zm0,6.435h8.582v-4.8h-8.582Z" transform="translate(620.492 160.297)"/>
            <path id="Path_5033" data-name="Path 5033" d="M668.466,168.748a11.011,11.011,0,0,0-3.129,7.939,11.22,11.22,0,0,0,3.129,7.787h-1.881a10.923,10.923,0,0,1-3.284-7.806,11.157,11.157,0,0,1,3.284-7.919Z" transform="translate(632.449 160.899)"/>
            <path id="Path_5034" data-name="Path 5034" d="M684.24,168.116v15.243h-2.233v-.983h-8.582v1.291H671.3V168.116ZM673.425,174.3h8.582v-4.509h-8.582Zm0,6.435h8.582v-4.8h-8.582Z" transform="translate(640.078 160.297)"/>
            <path id="Path_5035" data-name="Path 5035" d="M683.226,184.473a11.263,11.263,0,0,0,3.131-7.863,11.149,11.149,0,0,0-3.131-7.863h1.883a11.056,11.056,0,0,1,0,15.726Z" transform="translate(651.448 160.898)"/>
            <path id="Path_5037" data-name="Path 5037" d="M406.952,13.21H.037v4.057H13.116V45.693H.037v4.055H13.116V78.173H.037v4.055H13.116v28.427H.037v4.055H13.116v15.548c1.344.229,2.7.443,4.055.664V114.711H45.6v20.162q2.022.237,4.055.461V114.711H78.079v23.153q2.022.141,4.055.266V114.711h28.427v24.641q2.025.05,4.055.09V114.711h28.425v24.717c1.354-.025,2.7-.062,4.055-.1v-24.62h28.425v23.364c1.354-.086,2.708-.172,4.057-.266v-23.1h28.425v20.533q2.034-.229,4.055-.471V114.711h28.425v16.075c1.356-.223,2.709-.443,4.055-.674v-15.4h28.427v9.8c1.356-.3,2.711-.608,4.055-.92v-8.877h28.427v1.352q2.039-.609,4.055-1.235v-.117h.377q6.309-1.954,12.389-4.055H309.507V82.229h28.425V104.86c1.055-.418,2.118-.832,3.159-1.258.3-.125.594-.252.9-.375v-21h28.427v7.507q2.063-1.134,4.055-2.289V82.229h8.566c2.073-1.334,4.065-2.69,6.009-4.055H374.47V49.748H402.9V67.2c1.4-1.26,2.762-2.528,4.057-3.805V49.748h11.561c.93-1.344,1.819-2.7,2.639-4.055h-14.2V17.267h23.12c.025-.676.059-1.352.059-2.028V13.21ZM45.6,110.656H17.171V82.229H45.6Zm0-32.483H17.171V49.748H45.6Zm0-32.481H17.171V17.265H45.6Zm32.481,64.963H49.654V82.229H78.079Zm0-32.483H49.654V49.748H78.079Zm0-32.481H49.654V17.265H78.079Zm32.483,64.963H82.134V82.229h28.427Zm0-32.483H82.134V49.748h28.427Zm0-32.481H82.134V17.265h28.427Zm32.481,64.963H114.617V82.229h28.425Zm0-32.483H114.617V49.748h28.425Zm0-32.481H114.617V17.265h28.425Zm32.481,64.963H147.1V82.229h28.427Zm0-32.483H147.1V49.748h28.427Zm0-32.481H147.1V17.265h28.427Zm32.483,64.963H179.578V82.229h28.427Zm0-32.483H179.578V49.748h28.427Zm0-32.481H179.578V17.265h28.427Zm32.481,64.963H212.061V82.229h28.425Zm0-32.483H212.061V49.748h28.425Zm0-32.481H212.061V17.265h28.425Zm32.483,64.963H244.541V82.229h28.427Zm0-32.483H244.541V49.748h28.427Zm0-32.481H244.541V17.265h28.427Zm32.483,64.963H277.024V82.229h28.427Zm0-32.483H277.024V49.748h28.427Zm0-32.481H277.024V17.265h28.427Zm32.481,32.481H309.507V49.748h28.425Zm0-32.481H309.507V17.265h28.425Zm32.483,32.481H341.987V49.748h28.427Zm0-32.481H341.987V17.265h28.427Zm32.481,0H374.468V17.265H402.9Z" transform="translate(0.035 12.596)"/>
            <path id="Path_5038" data-name="Path 5038" d="M37.456,21.32,0,38.979v14.1H104.824Z" transform="translate(0 20.328)"/>
            <rect id="Rectangle_188" data-name="Rectangle 188" width="253.783" height="83.463" transform="translate(96.666 11.012)" fill="#eb6300"/>
            <path id="Path_5039" data-name="Path 5039" d="M309.881,95.714H47.209V3.361H309.881ZM51.653,91.27H305.437V7.807H51.653Z" transform="translate(45.013 3.205)"/>
            <g id="Group_2269" data-name="Group 2269" transform="translate(113.553 23.139)" style="mix-blend-mode: multiply;isolation: isolate">
              <g id="Group_2268" data-name="Group 2268">
                <g id="Group_2267" data-name="Group 2267" clip-path="url(#clip-path-3)">
                  <path id="Path_5040" data-name="Path 5040" d="M162,20.284c.365.279.461.207.461-.055.066-2.727.129-3.34.219-5.546.012-.207-.061-.248-.3-.334a42.481,42.481,0,0,0-11.25-1.748c-15.694.029-28.662,11.936-28.7,27.435C122.359,56.3,136.06,67.412,150.207,67.43A29.047,29.047,0,0,0,166.832,62c.17-.123.207-.158.17-.475-.279-2.059-.4-2.854-.723-4.688-.029-.152-.176-.2-.328-.031a19.281,19.281,0,0,1-15.714,7.464c-11.989-.047-21.525-12.092-21.525-26.839-.012-15.575,12.014-21.643,20.2-21.643A20.452,20.452,0,0,1,162,20.284" transform="translate(3.172 -11.124)"/>
                  <path id="Path_5041" data-name="Path 5041" d="M86.853,12.958H70.684c-.328,0-.359.182-.109.311a4.68,4.68,0,0,1,2.174,2.836c.68,2.946.631,12.827.692,18.257.025,1.166.025,19.881,0,20.555-.029,1.743-.266,5.831-.375,6.724-.207,1.805-.371,3.079-.973,3.844-.3.408-.285.463.2.463,1.481,0,6.048-.008,7.447,0,.4,0,.418-.049.266-.377-.594-1.227-.861-2.721-.873-6.111,0-.316-.037-4.106-.037-4.544V46.292c0-.328.012-.4.412-.414.172,0,8.3.014,8.7,0,7.271-.012,19.248-3.37,19.248-16.443,0-8.843-6.644-16.515-20.6-16.478m.176,29.847h-7.5c-.42,0-.432-.084-.443-.473V15.976c.012-.346.037-.43.412-.43h7.884a13.875,13.875,0,0,1,14.1,13.878c-.066,14.147-13.958,13.381-14.462,13.381" transform="translate(-46.418 -10.784)"/>
                  <path id="Path_5042" data-name="Path 5042" d="M170.218,12.2a27.485,27.485,0,0,0-27.206,27.861,28.075,28.075,0,0,0,27.874,28.39c13.46.084,26.8-10.594,26.8-28.292A27.522,27.522,0,0,0,170.218,12.2m1.688,53.2c-11.942-.061-23.239-12.549-23.239-26.919,0-17.675,13.077-23.186,20.287-23.241,11.637-.061,22.856,11.942,22.881,28.245.035,14.28-10.266,21.963-19.93,21.914" transform="translate(22.808 -11.51)"/>
                  <path id="Path_5043" data-name="Path 5043" d="M106.656,65.942h8.388c.51,0,.6-.127.242-.486a7.831,7.831,0,0,1-1.2-2.848c-.426-1.746-.389-3.305-.426-8.515V43.626c0-.262.1-.352.352-.352s1.58.006,3.2,0a9.1,9.1,0,0,1,4.087.832,8.005,8.005,0,0,1,3.2,2.868c6.364,9.383,8.152,11.989,13.12,18.22,2.9,3.633,6.329,4.921,9.269,4.944a7.2,7.2,0,0,0,6.208-3.292c.34-.535.272-1.155.1-1.239-.207-.147-.369-.293-.922.219a4.989,4.989,0,0,1-3.378,1.463c-1.834.025-3.639-.723-5.523-3.116a247.566,247.566,0,0,1-14.716-20.713c-.371-.582-.572-.752-.584-1,0-.078.242-.213.443-.315,2.157-1.254,8.644-5.329,8.656-13.8,0-7.058-4.069-15.392-18.2-15.392H104.476c-.371,0-.371.184-.068.365a6.3,6.3,0,0,1,2.8,3.256c.582,1.9.789,4.749.838,12.571,0,.365.023,20.865,0,21.68-.086,3.018-.049,8.6-.51,12.518-.086.656-.244.852-.438.852Zm10.732-25.554h-3.4c-.231,0-.328-.148-.328-.389V15.957c-.018-.35.109-.434.412-.41h5.565c3.34,0,12.063,2.036,12,12.493-.041,8.814-5.673,12.311-14.249,12.35" transform="translate(-14.21 -10.784)"/>
                  <path id="Path_5044" data-name="Path 5044" d="M126.372,65.259c-.17-.012-.4-.225-.535-.608-4.6-12.184-4.768-12.6-9.008-23.9-4.665-12.414-5.855-15.774-10.4-28.384-.109-.309-.189-.527-.395-.527s-.293.231-.4.522c-3.012,8.722-6.286,17.6-10.277,27.7-5.757,14.559-6.474,16.5-9.025,22.7-.881,2.157-1.154,2.868-2.163,3.839-.242.231-.291.395.164.395h5.759c.5,0,.6-.127.363-.43a2.442,2.442,0,0,1-.268-1.1,7.327,7.327,0,0,1,.457-2.309c.254-.674,5.489-15.032,5.648-15.507.135-.363.207-.424.524-.424h16.265c.6.012.6.041.711.357,2.96,8.431,4.343,12.045,5.509,16.521a3.729,3.729,0,0,1-.3,2.436c-.389.328-.268.455.115.455h8.005ZM112.444,44.644H97.684c-.279,0-.279-.311-.121-.613s5.722-15.118,7.216-18.994c.109-.3.242-.867.475-.867.291,0,.412.516.522.881,1.4,4.032,4.009,11.139,6.9,19.011.135.352.086.582-.23.582" transform="translate(-33.477 -11.845)"/>
                  <path id="Path_5045" data-name="Path 5045" d="M71.045,26.353H61.994V23.171h9.051ZM65.573,12.286v1.641H58.308v1.76h7.265v2.381H59.2v1.725H73.864V18.068h-6.39V15.687h7.314v-1.76H67.474V12.286Zm-5.437,9.166V28.91H62v-.844h9.049v.844h1.9V21.452Z" transform="translate(-57.957 -11.425)"/>
                  <path id="Path_5046" data-name="Path 5046" d="M64.464,33.294a7.968,7.968,0,0,1-1.707-1.629H62.72v7.072H60.989V31.97a9.285,9.285,0,0,1-2.157,1.451l-.7-1.866a10.836,10.836,0,0,0,4.925-4.925H58.326V24.917h2.663V22.081H62.72v2.836h2.239v1.713a13.4,13.4,0,0,1-1.813,3.055,8.28,8.28,0,0,0,2.3,1.979Zm3.692-11.213a13.923,13.923,0,0,1,1.008,3.231h2.028a19.633,19.633,0,0,0,1.094-3.231l1.774.412a21.872,21.872,0,0,1-1.031,2.819h1.705v1.659H71.077v2.145h3.354v1.67H71.077v2.289H75v1.688H71.077v3.973H69.256V34.763H65.132V33.075h4.124V30.786h-3.3v-1.67h3.3V26.971H65.664V25.312h1.715a15.169,15.169,0,0,0-.916-2.819Z" transform="translate(-58.127 -2.085)"/>
                  <path id="Path_5047" data-name="Path 5047" d="M67.456,31.882v1.809h6.31V35.41h-6.31v1.858H74.8V39H71.986v1.828h2.54v1.737h-2.54v3.917a2.07,2.07,0,0,1-.377,1.555,1.709,1.709,0,0,1-1.178.486H66.9l-.365-1.883h3.038c.4,0,.522-.291.522-.6V42.566H58.636V40.829H70.091V39H58.29V37.268h7.277V35.41H59.255V33.691h6.312V31.882ZM62.474,42.741a24.417,24.417,0,0,1,3.116,3.032l-1.756,1.354a17.063,17.063,0,0,0-2.92-3.231Z" transform="translate(-57.974 7.26)"/>
                </g>
              </g>
            </g>
            <path id="Path_5055" data-name="Path 5055" d="M142.46,295.833a7.015,7.015,0,0,1-1.364,5.5,3,3,0,0,1-.3.412.606.606,0,0,1-.813.193.614.614,0,0,1-.217-.887c.27-.547.615-1.059.858-1.617a8.387,8.387,0,0,0-.266-7.665c-1.256-2.243-2.973-4.257-5.747-4.856a1.3,1.3,0,0,1-.465-.19.488.488,0,0,1,.064-.893,1.851,1.851,0,0,1,.981-.109,5.377,5.377,0,0,1,3.2,1.659,36.944,36.944,0,0,1,2.631,3.241,8.778,8.778,0,0,1,1.352,3.913c.055.4.057.813.086,1.3" transform="translate(127.66 272.413)"/>
            <path id="Path_5056" data-name="Path 5056" d="M132.562,285.484c.268.27.553.424.582.613.055.385-.3.539-.6.486a.731.731,0,0,1-.5-.469c-.018-.158.277-.352.522-.631" transform="translate(125.898 272.206)"/>
            <path id="Path_5058" data-name="Path 5058" d="M145,306.709a1.3,1.3,0,0,1,1.725.24,9.335,9.335,0,0,1,2.364,3.507,1.667,1.667,0,0,1,.064.891c-.037.182-.3.451-.449.443-.215-.014-.578-.217-.6-.381-.26-1.746-1.487-2.836-2.62-4a5.339,5.339,0,0,1-.482-.7" transform="translate(138.252 292.23)"/>
            <path id="Path_5059" data-name="Path 5059" d="M144.683,305.977a.771.771,0,0,1-.643.92.532.532,0,0,1-.58-.553c-.031-.373.139-.713.527-.7.262.006.522.246.7.336" transform="translate(136.784 291.425)"/>
            <path id="Path_5115" data-name="Path 5115" d="M45.545,77.33a1.738,1.738,0,0,1-1.78,1.746c-1.364-.008-2.075-.639-2.037-1.811a1.919,1.919,0,0,1,2.016-1.821,1.834,1.834,0,0,1,1.8,1.885m-1.512.836a2.859,2.859,0,0,0,.451-.869.665.665,0,0,0-.776-.7.615.615,0,0,0-.578.758c.066.377.168.807.9.815" transform="translate(39.786 71.934)"/>
          </g>
        </g>
      </g>
    </g>
  </g>
</svg>
