<svg xmlns="http://www.w3.org/2000/svg" width="320" height="127" viewBox="0 0 320 127">
  <g id="btn-pocket-mb" transform="translate(-221 -5251)">
    <g id="Rectangle_81" data-name="Rectangle 81" transform="translate(221 5251)" fill="#e66f89" stroke="#1a1311" stroke-width="2">
      <rect width="320" height="127" rx="10" stroke="none"/>
      <rect x="1" y="1" width="318" height="125" rx="9" fill="none"/>
    </g>
    <rect id="Rectangle_103" data-name="Rectangle 103" width="316" height="77" transform="translate(223 5276)" fill="#fff"/>
    <g id="img_APP-2" data-name="img APP-2" transform="translate(268.791 5296)">
      <path id="パス_73-2" data-name="パス 73-2" d="M689.988,4688.054a7.96,7.96,0,0,0-5.427-1.744h-5.875v21.142h3.25v-7.607h2.916a7.676,7.676,0,0,0,4.047-.974,5.849,5.849,0,0,0,2.353-2.564,8.023,8.023,0,0,0,.72-3.353,6.227,6.227,0,0,0-1.981-4.9M688.745,4693l-.372,1.66-1.245,1.43a4.019,4.019,0,0,1-2.277.583h-2.916v-7.23h3.055a3.479,3.479,0,0,1,2.833,1.076,3.747,3.747,0,0,1,.92,2.486Z" transform="translate(-549.027 -4686.298)" fill="#f0493e"/>
      <path id="パス_74-2" data-name="パス 74-2" d="M702.805,4686.311h-.474l-8.864,21.142H696.6l2.116-5.225h7.316l2.066,5.225h3.572l-8.865-21.142m2.142,13.148h-5.087l2.6-6.392Z" transform="translate(-550.119 -4686.299)" fill="#f0493e"/>
      <path id="パス_75-2" data-name="パス 75-2" d="M726.695,4698.994a5.679,5.679,0,0,0,2.447-2.42,7.59,7.59,0,0,0,.872-3.616,6.479,6.479,0,0,0-.982-3.606,6.158,6.158,0,0,0-2.7-2.277,5.894,5.894,0,0,0-3.023-.761h-6.5v21.141h3.25v-7.611h3.285l4.843,7.611h3.793l-5.283-8.458m-.018-5.927a3.852,3.852,0,0,1-.932,2.531,3.764,3.764,0,0,1-3.023,1.083H720.06v-7.229h2.862a3.866,3.866,0,0,1,2.141.549l1.228,1.363Z" transform="translate(-551.843 -4686.299)" fill="#f0493e"/>
      <path id="パス_76-2" data-name="パス 76-2" d="M750.562,4701.855l-.1.11-1.49,1.186a6.811,6.811,0,0,1-3.547.947,6.953,6.953,0,0,1-3.573-.965,7.2,7.2,0,0,1-3.522-6.215,7.458,7.458,0,0,1,.932-3.649,7.072,7.072,0,0,1,2.557-2.658,6.755,6.755,0,0,1,3.556-.983,6.9,6.9,0,0,1,3.555.966l1.515,1.22.1.11,2.379-2.371-.109-.11a11.251,11.251,0,0,0-2.176-1.685,10.326,10.326,0,0,0-10.549,0,10.918,10.918,0,0,0-3.844,3.869,10.277,10.277,0,0,0-1.431,5.266,10.578,10.578,0,0,0,18.034,7.459l.11-.11-2.4-2.388" transform="translate(-553.172 -4686.298)" fill="#f0493e"/>
      <path id="パス_77-2" data-name="パス 77-2" d="M776.786,4691.628a11,11,0,0,0-3.869-3.869,10.328,10.328,0,0,0-10.549,0,10.922,10.922,0,0,0-3.844,3.869,10.278,10.278,0,0,0-1.431,5.266,10.522,10.522,0,0,0,10.558,10.559,10.647,10.647,0,0,0,9.144-5.267,10.372,10.372,0,0,0-.008-10.558m-2.065,5.266a7.314,7.314,0,0,1-.932,3.633,6.935,6.935,0,0,1-2.539,2.625,6.836,6.836,0,0,1-3.547.948,6.924,6.924,0,0,1-3.573-.965,7.194,7.194,0,0,1-3.522-6.214,7.441,7.441,0,0,1,.932-3.65,7.07,7.07,0,0,1,2.556-2.658,6.75,6.75,0,0,1,3.556-.983,6.921,6.921,0,0,1,3.555.965,7.2,7.2,0,0,1,2.565,2.65,7.351,7.351,0,0,1,.947,3.649Z" transform="translate(-554.817 -4686.299)" fill="#f0493e"/>
      <path id="パス_78-2" data-name="パス 78-2" d="M613.154,4695.585l8.748-9.082h-4.628l-7.9,8.235V4686.5h-3.582v20.963h3.582l-.031-8.369,1.239-1.2,7.2,9.567h4.463l-9.092-11.882" transform="translate(-543.644 -4686.313)" fill="#ffcf00"/>
      <path id="パス_79-2" data-name="パス 79-2" d="M631.4,4704.026v-5.382h8.461v-3.417H631.4v-5.3h9.567v-3.416H627.874v20.961h13.482v-3.44H631.4" transform="translate(-545.275 -4686.314)" fill="#553470"/>
      <path id="パス_80-2" data-name="パス 80-2" d="M647.061,4686.5v3.409H652.3v17.47h3.513v-17.47h5.383V4686.5H647.062" transform="translate(-546.692 -4686.313)" fill="#869d38"/>
      <path id="パス_81-2" data-name="パス 81-2" d="M549.869,4688.229a7.84,7.84,0,0,0-5.372-1.726h-5.808v20.9H541.9v-7.521h2.872a7.644,7.644,0,0,0,4.009-.96,5.813,5.813,0,0,0,2.325-2.531,7.849,7.849,0,0,0,.712-3.316,6.187,6.187,0,0,0-1.953-4.845m-1.229,4.9-.372,1.643-1.23,1.4-2.263.578H541.9V4689.6h3.017a3.483,3.483,0,0,1,2.81,1.064Z" transform="translate(-538.689 -4686.312)" fill="#0083ca"/>
      <path id="パス_82-2" data-name="パス 82-2" d="M575.459,4691.683a10.857,10.857,0,0,0-3.842-3.842,10.287,10.287,0,0,0-10.487,0,10.715,10.715,0,0,0-3.812,3.853,10.2,10.2,0,0,0-1.426,5.227A10.49,10.49,0,0,0,571.626,4706a10.673,10.673,0,0,0,3.854-3.822,10.261,10.261,0,0,0,1.416-5.259,10.063,10.063,0,0,0-1.436-5.237m-9.019,12.387a6.8,6.8,0,0,1-3.543-.961,7.041,7.041,0,0,1-2.573-2.593,7.152,7.152,0,0,1-.93-3.564,7.412,7.412,0,0,1,.917-3.626,7.1,7.1,0,0,1,2.541-2.646,6.755,6.755,0,0,1,3.522-.972,6.843,6.843,0,0,1,3.533.961,6.984,6.984,0,0,1,2.555,2.627,7.5,7.5,0,0,1,.02,7.231,6.89,6.89,0,0,1-2.531,2.6,6.75,6.75,0,0,1-3.513.937Z" transform="translate(-539.959 -4686.306)" fill="#ef509d"/>
      <path id="パス_83-2" data-name="パス 83-2" d="M597.406,4701.787l-.1.1-1.477,1.178a6.718,6.718,0,0,1-3.5.939,6.829,6.829,0,0,1-3.534-.951,7.074,7.074,0,0,1-3.492-6.146,7.36,7.36,0,0,1,.917-3.617,7.044,7.044,0,0,1,2.531-2.634,6.909,6.909,0,0,1,7.046-.01l1.5,1.2.093.113,2.352-2.345-.1-.1-2.159-1.672a10.209,10.209,0,0,0-10.444,0,10.767,10.767,0,0,0-3.8,3.822,10.175,10.175,0,0,0-1.417,5.217,10.44,10.44,0,0,0,15.676,9.049l2.181-1.666.1-.1-2.366-2.376" transform="translate(-541.874 -4686.306)" fill="#00907c"/>
    </g>
    <text id="のダウンロードはこちら" transform="translate(380.5 5336.737)" fill="#1a1311" font-size="12" font-family="BIZUDPGothic-Bold, BIZ UDPGothic" font-weight="700" letter-spacing="0.056em"><tspan x="-65.882" y="0">のダウンロードはこちら</tspan></text>
    <path id="Polygon_14" data-name="Polygon 14" d="M7.5,0,15,11H0Z" transform="translate(524 5307) rotate(90)" fill="#1a1311"/>
  </g>
</svg>
