<svg xmlns="http://www.w3.org/2000/svg" xmlns:xlink="http://www.w3.org/1999/xlink" width="442" height="110" viewBox="0 0 442 110">
  <defs>
    <filter id="Rectangle_82" x="0" y="0" width="442" height="110" filterUnits="userSpaceOnUse">
      <feOffset dy="6" input="SourceAlpha"/>
      <feGaussianBlur result="blur"/>
      <feFlood flood-color="#1a1311"/>
      <feComposite operator="in" in2="blur"/>
      <feComposite in="SourceGraphic"/>
    </filter>
  </defs>
  <g id="btn-payment" transform="translate(-683 -5251)">
    <g transform="matrix(1, 0, 0, 1, 683, 5251)" filter="url(#Rectangle_82)">
      <g id="Rectangle_82-2" data-name="Rectangle 82" fill="#e64a00" stroke="#1a1311" stroke-width="2">
        <rect width="442" height="104" rx="10" stroke="none"/>
        <rect x="1" y="1" width="440" height="102" rx="9" fill="none"/>
      </g>
    </g>
    <path id="Path_4551" data-name="Path 4551" d="M0,0H438V54H0Z" transform="translate(685 5276)" fill="#fff"/>
    <path id="Path_4599" data-name="Path 4599" d="M1.342.639a35.636,35.636,0,0,1-.223-3.961,39.574,39.574,0,0,1,.5-6.41L2.906-9.6a33.484,33.484,0,0,0-.475,5.924A32.777,32.777,0,0,0,2.678.469ZM4.857-8.643h5.631v1.248H4.857ZM10.887-.082A18.451,18.451,0,0,1,8.1.1Q4.055.1,4.055-2.279a2.752,2.752,0,0,1,.5-1.646l1.107.492a1.688,1.688,0,0,0-.316,1,.944.944,0,0,0,.686.943,5.958,5.958,0,0,0,2.08.293,17.3,17.3,0,0,0,2.637-.187Zm2.266-7.875a52.321,52.321,0,0,1,6.533-.768,4.353,4.353,0,0,1,2.865.85,3.693,3.693,0,0,1,1.207,3.006A4.015,4.015,0,0,1,22.75-2.15q-1.535,1.77-6.3,2.162l-.445-1.295A13.76,13.76,0,0,0,20.57-2.2a3.447,3.447,0,0,0,1.184-.937,2.827,2.827,0,0,0,.627-1.816A2.6,2.6,0,0,0,21.8-6.826a2.057,2.057,0,0,0-.65-.457A3.6,3.6,0,0,0,19.738-7.5a48.537,48.537,0,0,0-6.311.826Zm18.121,5.35Q30.19.58,28.842.58,27.881.58,27.2-.768a7.752,7.752,0,0,1-.727-2.3,25.978,25.978,0,0,1-.24-3.914q0-1.037.076-2.227l1.377.105q-.076,1.189-.076,2.262a13.55,13.55,0,0,0,.7,5.244q.287.609.539.609.164,0,.41-.375a9.694,9.694,0,0,0,.973-2.1Zm3.709,1.395a26.875,26.875,0,0,0-.732-4A24.355,24.355,0,0,0,33.026-8.59l1.248-.3A19,19,0,0,1,35.709-5.2a25.685,25.685,0,0,1,.639,3.668Zm3.6-7.623q5.391-.082,10.189-.275l.07,1.166a9.229,9.229,0,0,0-3.293.645,4.573,4.573,0,0,0-1.8,1.43,3.77,3.77,0,0,0-.773,2.309,2.186,2.186,0,0,0,.879,1.9,6.925,6.925,0,0,0,3.094.99L46.67.645A6.945,6.945,0,0,1,42.844-.762a3.634,3.634,0,0,1-1.189-2.766,4.309,4.309,0,0,1,1.078-2.8,5.5,5.5,0,0,1,2.15-1.535q-2.42.082-6.24.275Zm19.563-.99H59.43v2.121h2.391v1.166H59.43v3.6a12.058,12.058,0,0,1,2.748,1.793L61.522.012a16.5,16.5,0,0,0-2.1-1.594A2.167,2.167,0,0,1,58.4.34,3.009,3.009,0,0,1,57,.609a3.771,3.771,0,0,1-1.67-.346,1.789,1.789,0,0,1-1.072-1.734,1.755,1.755,0,0,1,.814-1.518,3.282,3.282,0,0,1,1.91-.516,5.547,5.547,0,0,1,1.16.135v-3.17H54.379V-7.705h3.768Zm0,7.594a4.1,4.1,0,0,0-1.219-.217,2.136,2.136,0,0,0-.867.158.813.813,0,0,0-.562.785.781.781,0,0,0,.41.7,2.014,2.014,0,0,0,1.066.246q1.172,0,1.172-1.318ZM51.784.586a38.586,38.586,0,0,1-.205-4.066,43.46,43.46,0,0,1,.445-6.346l1.289.188a33.815,33.815,0,0,0-.439,5.625A43.274,43.274,0,0,0,53.1.387ZM65.03-9.023H72.2v1.271H65.03ZM73.075-.012a26.809,26.809,0,0,1-4.02.287,12.21,12.21,0,0,1-3.51-.41,2.92,2.92,0,0,1-.955-.5,1.807,1.807,0,0,1-.674-1.494,2.849,2.849,0,0,1,.926-2.1l1.02.674A1.984,1.984,0,0,0,65.3-2.314q0,.656.791.932a6.134,6.134,0,0,0,1.342.246,14.719,14.719,0,0,0,1.576.082,24.083,24.083,0,0,0,3.885-.3Zm2.149-8.15h2.748q.211-.85.41-1.846l1.271.164q-.187.844-.4,1.682h6V-7H78.944a22.485,22.485,0,0,1-.926,2.7,6.82,6.82,0,0,1,3.563-.9,4.489,4.489,0,0,1,2.168.486,2.293,2.293,0,0,1,1.3,2.127q0,1.975-2.35,2.719a16.829,16.829,0,0,1-4.342.551L77.925-.48a16.05,16.05,0,0,0,4.049-.451q1.67-.51,1.67-1.7a1.291,1.291,0,0,0-.7-1.213,2.9,2.9,0,0,0-1.389-.287,7,7,0,0,0-2.115.357,8.658,8.658,0,0,0-2,.932l-1.031-.686Q77.1-5.2,77.649-7H75.223Zm19.791.627a22.8,22.8,0,0,0-5-1.512L90.5-10.09A28.106,28.106,0,0,1,95.554-8.7ZM88.329-3.24a35.367,35.367,0,0,1,.721-4.881l1.26.234a22.566,22.566,0,0,0-.574,3.469,6.975,6.975,0,0,1,1.957-1.037,5.962,5.962,0,0,1,1.98-.375,4.264,4.264,0,0,1,2.25.533,2.51,2.51,0,0,1,1.166,2.309A2.925,2.925,0,0,1,96.028-.574Q94.546.609,90.872.732L90.4-.48a11.952,11.952,0,0,0,3.738-.457,2.043,2.043,0,0,0,1.553-2.057,1.614,1.614,0,0,0-.686-1.43,2.475,2.475,0,0,0-1.43-.375,5.509,5.509,0,0,0-2.707.826A7.028,7.028,0,0,0,89.29-2.748Z" transform="translate(932.888 5308)" fill="#1a1311"/>
    <text id="ポケパル払い" transform="translate(765 5313)" fill="#df1f17" font-size="26" font-family="BIZUDPGothic-Bold, BIZ UDPGothic" font-weight="700" letter-spacing="0.056em"><tspan x="0" y="0">ポケパル払い</tspan></text>
    <path id="Polygon_15" data-name="Polygon 15" d="M7.5,0,15,11H0Z" transform="translate(1108 5296) rotate(90)" fill="#1a1311"/>
  </g>
</svg>
