<svg xmlns="http://www.w3.org/2000/svg" xmlns:xlink="http://www.w3.org/1999/xlink" width="109" height="46" viewBox="0 0 109 46">
  <defs>
    <filter id="Rectangle_15" x="0" y="0" width="109" height="46" filterUnits="userSpaceOnUse">
      <feOffset dy="6" input="SourceAlpha"/>
      <feGaussianBlur result="blur"/>
      <feFlood flood-color="#1a1311"/>
      <feComposite operator="in" in2="blur"/>
      <feComposite in="SourceGraphic"/>
    </filter>
  </defs>
  <g id="btn-menu" transform="translate(-1237 -30)">
    <g transform="matrix(1, 0, 0, 1, 1237, 30)" filter="url(#Rectangle_15)">
      <g id="Rectangle_15-2" data-name="Rectangle 15" fill="#fff" stroke="#1a1311" stroke-width="2">
        <rect width="109" height="40" rx="5" stroke="none"/>
        <rect x="1" y="1" width="107" height="38" rx="4" fill="none"/>
      </g>
    </g>
    <path id="Icon_feather-menu" data-name="Icon feather-menu" d="M4.5,18h18M4.5,9h18M4.5,27h18" transform="translate(1252.478 32)" fill="none" stroke="#1a1311" stroke-linecap="round" stroke-linejoin="round" stroke-width="3"/>
    <path id="Path_5289" data-name="Path 5289" d="M2.941-9.4q.182.826.539,2.045a6.734,6.734,0,0,1,3.111-.809q.152-.855.252-1.752l1.295.252q-.129.926-.264,1.635A4.374,4.374,0,0,1,9.938-6.984a4.032,4.032,0,0,1,1.225,3.041A3.993,3.993,0,0,1,9.709-.568,5.742,5.742,0,0,1,7.061.516L6.445-.574a5.422,5.422,0,0,0,2.414-.99A2.964,2.964,0,0,0,9.809-4.02a3.025,3.025,0,0,0-.721-2.062,2.982,2.982,0,0,0-1.43-.867,18.019,18.019,0,0,1-.9,2.877A9.1,9.1,0,0,1,5.086-1.494,3.881,3.881,0,0,1,2.438.047,1.541,1.541,0,0,1,1-.891a3.6,3.6,0,0,1-.34-1.635A5.459,5.459,0,0,1,2.461-6.6Q2.133-7.623,1.8-8.977Zm-.07,3.984A4.371,4.371,0,0,0,1.84-2.654a2.6,2.6,0,0,0,.188,1.072.577.577,0,0,0,.533.4q.609,0,1.652-1.16A20.254,20.254,0,0,1,2.871-5.414Zm3.5-1.676a5.14,5.14,0,0,0-2.543.814A19.547,19.547,0,0,0,5.021-3.422,10.969,10.969,0,0,0,6.375-7.09ZM14.062.639a35.636,35.636,0,0,1-.223-3.961,39.574,39.574,0,0,1,.5-6.41l1.289.135a33.484,33.484,0,0,0-.475,5.924A32.777,32.777,0,0,0,15.4.469Zm3.516-9.281h5.631v1.248H17.577ZM23.607-.082A18.451,18.451,0,0,1,20.824.1q-4.049,0-4.049-2.379a2.752,2.752,0,0,1,.5-1.646l1.107.492a1.688,1.688,0,0,0-.316,1,.944.944,0,0,0,.686.943,5.958,5.958,0,0,0,2.08.293,17.3,17.3,0,0,0,2.637-.187Zm4.142-6.85a16.864,16.864,0,0,0-.422,3.117A4.034,4.034,0,0,1,28.569-5.6a5.15,5.15,0,0,1,2.045-1.119q-.029-.6-.105-1.383H31.7q.035.428.07,1.143l.012.129a3.219,3.219,0,0,1,2.484,1.084,3.069,3.069,0,0,1,.609,1.969,2.992,2.992,0,0,1-1.342,2.643,3.742,3.742,0,0,1-2.063.58,3.219,3.219,0,0,1-1.957,1.623L28.733.34A2.7,2.7,0,0,0,30.28-.7a3.92,3.92,0,0,1-1.547-.879l.439-.914a3.166,3.166,0,0,0,1.441.82,11.624,11.624,0,0,0,.111-1.811q0-.961-.053-2.2a4.591,4.591,0,0,0-2.59,2.256,3.39,3.39,0,0,0-.51,1.594,4.433,4.433,0,0,0,.088.814l-1.137.24A14.368,14.368,0,0,1,26.231-3.5a16.48,16.48,0,0,1,.4-3.7Zm4.09,1.09q.064,1.207.064,1.934a15.533,15.533,0,0,1-.135,2.314A1.89,1.89,0,0,0,33.649-3.75,2.2,2.2,0,0,0,33.092-5.4,1.991,1.991,0,0,0,31.838-5.842Zm5.484.416H47.64v1.318H37.322Z" transform="translate(1288 55)" fill="#1a1311"/>
  </g>
</svg>
