<svg xmlns="http://www.w3.org/2000/svg" xmlns:xlink="http://www.w3.org/1999/xlink" width="442" height="110" viewBox="0 0 442 110">
  <defs>
    <filter id="Rectangle_81" x="0" y="0" width="442" height="110" filterUnits="userSpaceOnUse">
      <feOffset dy="6" input="SourceAlpha"/>
      <feGaussianBlur result="blur"/>
      <feFlood flood-color="#1a1311"/>
      <feComposite operator="in" in2="blur"/>
      <feComposite in="SourceGraphic"/>
    </filter>
  </defs>
  <g id="btn-pocket" transform="translate(-221 -5251)">
    <g transform="matrix(1, 0, 0, 1, 221, 5251)" filter="url(#Rectangle_81)">
      <g id="Rectangle_81-2" data-name="Rectangle 81" fill="#e66f89" stroke="#1a1311" stroke-width="2">
        <rect width="442" height="104" rx="10" stroke="none"/>
        <rect x="1" y="1" width="440" height="102" rx="9" fill="none"/>
      </g>
    </g>
    <rect id="Rectangle_103" data-name="Rectangle 103" width="438" height="54" transform="translate(223 5276)" fill="#fff"/>
    <g id="img_APP-2" data-name="img APP-2" transform="translate(-287.889 605.965)">
      <path id="パス_73-2" data-name="パス 73-2" d="M689.988,4688.054a7.96,7.96,0,0,0-5.427-1.744h-5.875v21.142h3.25v-7.607h2.916a7.676,7.676,0,0,0,4.047-.974,5.849,5.849,0,0,0,2.353-2.564,8.023,8.023,0,0,0,.72-3.353,6.227,6.227,0,0,0-1.981-4.9M688.745,4693l-.372,1.66-1.245,1.43a4.019,4.019,0,0,1-2.277.583h-2.916v-7.23h3.055a3.479,3.479,0,0,1,2.833,1.076,3.747,3.747,0,0,1,.92,2.486Z" transform="translate(-10.338)" fill="#f0493e"/>
      <path id="パス_74-2" data-name="パス 74-2" d="M702.805,4686.311h-.474l-8.864,21.142H696.6l2.116-5.225h7.316l2.066,5.225h3.572l-8.865-21.142m2.142,13.148h-5.087l2.6-6.392Z" transform="translate(-11.43 -0.001)" fill="#f0493e"/>
      <path id="パス_75-2" data-name="パス 75-2" d="M726.695,4698.994a5.679,5.679,0,0,0,2.447-2.42,7.59,7.59,0,0,0,.872-3.616,6.479,6.479,0,0,0-.982-3.606,6.158,6.158,0,0,0-2.7-2.277,5.894,5.894,0,0,0-3.023-.761h-6.5v21.141h3.25v-7.611h3.285l4.843,7.611h3.793l-5.283-8.458m-.018-5.927a3.852,3.852,0,0,1-.932,2.531,3.764,3.764,0,0,1-3.023,1.083H720.06v-7.229h2.862a3.866,3.866,0,0,1,2.141.549l1.228,1.363Z" transform="translate(-13.154 -0.001)" fill="#f0493e"/>
      <path id="パス_76-2" data-name="パス 76-2" d="M750.562,4701.855l-.1.11-1.49,1.186a6.811,6.811,0,0,1-3.547.947,6.953,6.953,0,0,1-3.573-.965,7.2,7.2,0,0,1-3.522-6.215,7.458,7.458,0,0,1,.932-3.649,7.072,7.072,0,0,1,2.557-2.658,6.755,6.755,0,0,1,3.556-.983,6.9,6.9,0,0,1,3.555.966l1.515,1.22.1.11,2.379-2.371-.109-.11a11.251,11.251,0,0,0-2.176-1.685,10.326,10.326,0,0,0-10.549,0,10.918,10.918,0,0,0-3.844,3.869,10.277,10.277,0,0,0-1.431,5.266,10.578,10.578,0,0,0,18.034,7.459l.11-.11-2.4-2.388" transform="translate(-14.483 0)" fill="#f0493e"/>
      <path id="パス_77-2" data-name="パス 77-2" d="M776.786,4691.628a11,11,0,0,0-3.869-3.869,10.328,10.328,0,0,0-10.549,0,10.922,10.922,0,0,0-3.844,3.869,10.278,10.278,0,0,0-1.431,5.266,10.522,10.522,0,0,0,10.558,10.559,10.647,10.647,0,0,0,9.144-5.267,10.372,10.372,0,0,0-.008-10.558m-2.065,5.266a7.314,7.314,0,0,1-.932,3.633,6.935,6.935,0,0,1-2.539,2.625,6.836,6.836,0,0,1-3.547.948,6.924,6.924,0,0,1-3.573-.965,7.194,7.194,0,0,1-3.522-6.214,7.441,7.441,0,0,1,.932-3.65,7.07,7.07,0,0,1,2.556-2.658,6.75,6.75,0,0,1,3.556-.983,6.921,6.921,0,0,1,3.555.965,7.2,7.2,0,0,1,2.565,2.65,7.351,7.351,0,0,1,.947,3.649Z" transform="translate(-16.128 -0.001)" fill="#f0493e"/>
      <path id="パス_78-2" data-name="パス 78-2" d="M613.154,4695.585l8.748-9.082h-4.628l-7.9,8.235V4686.5h-3.582v20.963h3.582l-.031-8.369,1.239-1.2,7.2,9.567h4.463l-9.092-11.882" transform="translate(-4.955 -0.015)" fill="#ffcf00"/>
      <path id="パス_79-2" data-name="パス 79-2" d="M631.4,4704.026v-5.382h8.461v-3.417H631.4v-5.3h9.567v-3.416H627.874v20.961h13.482v-3.44H631.4" transform="translate(-6.586 -0.016)" fill="#553470"/>
      <path id="パス_80-2" data-name="パス 80-2" d="M647.061,4686.5v3.409H652.3v17.47h3.513v-17.47h5.383V4686.5H647.062" transform="translate(-8.003 -0.015)" fill="#869d38"/>
      <path id="パス_81-2" data-name="パス 81-2" d="M549.869,4688.229a7.84,7.84,0,0,0-5.372-1.726h-5.808v20.9H541.9v-7.521h2.872a7.644,7.644,0,0,0,4.009-.96,5.813,5.813,0,0,0,2.325-2.531,7.849,7.849,0,0,0,.712-3.316,6.187,6.187,0,0,0-1.953-4.845m-1.229,4.9-.372,1.643-1.23,1.4-2.263.578H541.9V4689.6h3.017a3.483,3.483,0,0,1,2.81,1.064Z" transform="translate(0 -0.014)" fill="#0083ca"/>
      <path id="パス_82-2" data-name="パス 82-2" d="M575.459,4691.683a10.857,10.857,0,0,0-3.842-3.842,10.287,10.287,0,0,0-10.487,0,10.715,10.715,0,0,0-3.812,3.853,10.2,10.2,0,0,0-1.426,5.227A10.49,10.49,0,0,0,571.626,4706a10.673,10.673,0,0,0,3.854-3.822,10.261,10.261,0,0,0,1.416-5.259,10.063,10.063,0,0,0-1.436-5.237m-9.019,12.387a6.8,6.8,0,0,1-3.543-.961,7.041,7.041,0,0,1-2.573-2.593,7.152,7.152,0,0,1-.93-3.564,7.412,7.412,0,0,1,.917-3.626,7.1,7.1,0,0,1,2.541-2.646,6.755,6.755,0,0,1,3.522-.972,6.843,6.843,0,0,1,3.533.961,6.984,6.984,0,0,1,2.555,2.627,7.5,7.5,0,0,1,.02,7.231,6.89,6.89,0,0,1-2.531,2.6,6.75,6.75,0,0,1-3.513.937Z" transform="translate(-1.27 -0.008)" fill="#ef509d"/>
      <path id="パス_83-2" data-name="パス 83-2" d="M597.406,4701.787l-.1.1-1.477,1.178a6.718,6.718,0,0,1-3.5.939,6.829,6.829,0,0,1-3.534-.951,7.074,7.074,0,0,1-3.492-6.146,7.36,7.36,0,0,1,.917-3.617,7.044,7.044,0,0,1,2.531-2.634,6.909,6.909,0,0,1,7.046-.01l1.5,1.2.093.113,2.352-2.345-.1-.1-2.159-1.672a10.209,10.209,0,0,0-10.444,0,10.767,10.767,0,0,0-3.8,3.822,10.175,10.175,0,0,0-1.417,5.217,10.44,10.44,0,0,0,15.676,9.049l2.181-1.666.1-.1-2.366-2.376" transform="translate(-3.185 -0.008)" fill="#00907c"/>
    </g>
    <path id="Path_4598" data-name="Path 4598" d="M6.592-.639q3.439-.867,3.439-3.943A3.864,3.864,0,0,0,9.34-6.891a3.593,3.593,0,0,0-2.355-1.4,22.825,22.825,0,0,1-.943,4.453,13.306,13.306,0,0,1-1.02,2.291q-.879,1.535-2,1.535a1.926,1.926,0,0,1-1.482-.75A3.719,3.719,0,0,1,.867-1.928a5.393,5.393,0,0,1-.34-1.928,5.506,5.506,0,0,1,.92-3.076,5.445,5.445,0,0,1,2.42-2.086,5.867,5.867,0,0,1,2.379-.475A5.472,5.472,0,0,1,9.68-8.408a4.47,4.47,0,0,1,1.734,3.768q0,4.084-4.131,5.18Zm-.879-7.7a4.076,4.076,0,0,0-1.734.557,4.677,4.677,0,0,0-.885.762A4.514,4.514,0,0,0,1.875-3.9a3.475,3.475,0,0,0,.516,2.027q.316.451.627.451.422,0,.949-.932A16.151,16.151,0,0,0,5.713-8.338Zm15.35-.17,1.307,1.166a10.545,10.545,0,0,1-2.145,4.729A9.252,9.252,0,0,1,17.518-.357,11.777,11.777,0,0,1,14.77.756L14.09-.393A9.824,9.824,0,0,0,18.766-2.9a18.9,18.9,0,0,0-2.9-2.068l.768-.943a16.07,16.07,0,0,1,2.953,1.98,9.025,9.025,0,0,0,1.447-3.4H17a10.393,10.393,0,0,1-3.217,3.205l-.861-.937a9.36,9.36,0,0,0,3.053-2.959,8.06,8.06,0,0,0,.955-2.021l1.271.311a10.8,10.8,0,0,1-.527,1.225Zm.668.322a9.275,9.275,0,0,0-.984-1.969l.926-.211A7.041,7.041,0,0,1,22.68-8.449Zm1.635-.193a8.854,8.854,0,0,0-1-1.963l.92-.193a7.307,7.307,0,0,1,1,1.881Zm6.484-1.629h1.318V-8.1h4.154a14.918,14.918,0,0,1-.633,4.43A5.512,5.512,0,0,1,32.645-.809a10.6,10.6,0,0,1-3.4,1.471L28.59-.445A8.3,8.3,0,0,0,31.7-1.758a4.405,4.405,0,0,0,1.57-2,8.907,8.907,0,0,0,.586-3.158H27.266v2.842H25.9V-8.1H29.85ZM41.819-6.744a23.2,23.2,0,0,0-3.85-1.324l.41-1.26a17.387,17.387,0,0,1,3.885,1.313Zm-3.7,5.83a12.28,12.28,0,0,0,4.441-1.037,6.321,6.321,0,0,0,2.789-2.877,12.784,12.784,0,0,0,1.025-3.281l1.125.826a13.91,13.91,0,0,1-1.148,3.445A7.174,7.174,0,0,1,42.621-.469a15.613,15.613,0,0,1-4.23.938ZM49.938-8.941h9.193V.105H49.938ZM51.3-7.693v6.551h6.463V-7.693ZM61.561-5.426H71.88v1.318H61.561Zm13.3-4.5h1.365v3.48A40.982,40.982,0,0,1,82.02-4.236l-.656,1.26A40.3,40.3,0,0,0,76.225-5.1V.732H74.86ZM80-6.768a11.4,11.4,0,0,0-1.189-2.174l.908-.334A11.078,11.078,0,0,1,80.93-7.143Zm1.676-.387A10.162,10.162,0,0,0,80.5-9.334l.873-.287a8.327,8.327,0,0,1,1.189,2.039ZM91.6-9.826h1.283v2.121h2.391v1.166H92.882v3.6A12.058,12.058,0,0,1,95.63-1.148L94.974.012a16.5,16.5,0,0,0-2.1-1.594A2.167,2.167,0,0,1,91.85.34a3.009,3.009,0,0,1-1.395.27,3.771,3.771,0,0,1-1.67-.346,1.789,1.789,0,0,1-1.072-1.734,1.755,1.755,0,0,1,.814-1.518,3.282,3.282,0,0,1,1.91-.516,5.547,5.547,0,0,1,1.16.135v-3.17H87.831V-7.705H91.6Zm0,7.594a4.1,4.1,0,0,0-1.219-.217,2.136,2.136,0,0,0-.867.158.813.813,0,0,0-.562.785.781.781,0,0,0,.41.7,2.014,2.014,0,0,0,1.066.246q1.172,0,1.172-1.318ZM85.235.586A38.586,38.586,0,0,1,85.03-3.48a43.46,43.46,0,0,1,.445-6.346l1.289.188a33.815,33.815,0,0,0-.439,5.625,43.274,43.274,0,0,0,.223,4.4ZM98.481-9.023h7.166v1.271H98.481Zm8.045,9.012a26.809,26.809,0,0,1-4.02.287A12.21,12.21,0,0,1,99-.135a2.92,2.92,0,0,1-.955-.5,1.807,1.807,0,0,1-.674-1.494,2.849,2.849,0,0,1,.926-2.1l1.02.674a1.984,1.984,0,0,0-.562,1.248q0,.656.791.932a6.134,6.134,0,0,0,1.342.246,14.719,14.719,0,0,0,1.576.082,24.083,24.083,0,0,0,3.885-.3Zm2.149-8.15h2.748q.211-.85.41-1.846l1.271.164q-.187.844-.4,1.682h6V-7H112.4a22.485,22.485,0,0,1-.926,2.7,6.82,6.82,0,0,1,3.563-.9,4.489,4.489,0,0,1,2.168.486,2.293,2.293,0,0,1,1.3,2.127q0,1.975-2.35,2.719a16.829,16.829,0,0,1-4.342.551L111.376-.48a16.05,16.05,0,0,0,4.049-.451q1.67-.51,1.67-1.7a1.291,1.291,0,0,0-.7-1.213,2.9,2.9,0,0,0-1.389-.287,7,7,0,0,0-2.115.357,8.658,8.658,0,0,0-2,.932l-1.031-.686Q110.556-5.2,111.1-7h-2.426Zm19.791.627a22.8,22.8,0,0,0-5-1.512l.492-1.043A28.106,28.106,0,0,1,129.005-8.7ZM121.781-3.24a35.367,35.367,0,0,1,.721-4.881l1.26.234a22.566,22.566,0,0,0-.574,3.469,6.975,6.975,0,0,1,1.957-1.037,5.962,5.962,0,0,1,1.98-.375,4.264,4.264,0,0,1,2.25.533,2.51,2.51,0,0,1,1.166,2.309A2.925,2.925,0,0,1,129.48-.574Q128,.609,124.324.732L123.855-.48a11.952,11.952,0,0,0,3.738-.457,2.043,2.043,0,0,0,1.553-2.057,1.614,1.614,0,0,0-.686-1.43,2.475,2.475,0,0,0-1.43-.375,5.509,5.509,0,0,0-2.707.826,7.028,7.028,0,0,0-1.582,1.225Z" transform="translate(481.775 5308)" fill="#1a1311"/>
    <path id="Polygon_14" data-name="Polygon 14" d="M7.5,0,15,11H0Z" transform="translate(646 5296) rotate(90)" fill="#1a1311"/>
  </g>
</svg>
