<svg xmlns="http://www.w3.org/2000/svg" xmlns:xlink="http://www.w3.org/1999/xlink" width="630.492" height="121.759" viewBox="0 0 630.492 121.759">
  <defs>
    <clipPath id="clip-path">
      <rect id="Rectangle_67" data-name="Rectangle 67" width="630.492" height="121.759" fill="none"/>
    </clipPath>
  </defs>
  <g id="camping-ttl" transform="translate(0 0)">
    <g id="Group_67" data-name="Group 67" transform="translate(0 0)" clip-path="url(#clip-path)">
      <path id="Path_349" data-name="Path 349" d="M547.3,106.318c-.348-.715-.557-1.187-.8-1.638q-3.812-7.092-7.634-14.179c-.2-.378-.439-.743-.6-1.137-.487-1.171-.051-1.784,1.213-1.6,1.644.241,3.288.523,4.907.891q32.586,7.417,65.165,14.862c.65.148,1.307.275,2.3.482-.534-.717-.834-1.148-1.163-1.555q-4.762-5.889-9.528-11.773a13.38,13.38,0,0,1-1.271-1.852c-.521-.943-.387-1.344.594-1.731a30.2,30.2,0,0,1,3.347-1.142c6.537-1.731,13.085-3.425,19.629-5.139.383-.1.75-.257,1.4-.484-.753-.263-1.2-.426-1.655-.577q-7.02-2.363-14.042-4.722a8.09,8.09,0,0,1-1.355-.509,1.781,1.781,0,0,1-.376-2.966,7.868,7.868,0,0,1,.753-.607q4.729-3.63,9.457-7.262c.409-.314.79-.664,1.338-1.129-.673-.18-1.118-.324-1.572-.42-3.731-.784-7.452-1.621-11.2-2.319-2.933-.546-3.091-1.552-1.562-3.706,6.338-8.937,12.586-17.937,18.865-26.914.324-.462.624-.941,1.1-1.66-.733.142-1.146.2-1.551.3-10.318,2.551-20.63,5.128-30.957,7.646-3.439.84-6.917,1.518-10.371,2.3a1.886,1.886,0,0,1-2.129-.739c-.487-.683-.1-1.338.218-1.961,1.129-2.2,2.274-4.385,3.4-6.585a12.4,12.4,0,0,0,.464-1.272c-.795.177-1.366.286-1.927.431q-15.988,4.111-31.974,8.228c-.415.107-.831.224-1.25.31-1.727.353-2.437-.474-1.871-2.181.118-.356.272-.7.409-1.05q4.85-12.456,9.7-24.912c.224-.577.414-1.17.734-2.086-1.025.479-1.74.8-2.447,1.146Q530.213,19.189,505.37,31.27c-2.268,1.1-4.584,2.109-6.9,3.1-1.118.479-1.737.348-2.176-.283-.544-.781-.087-1.425.32-2.066.145-.226.3-.445.451-.667q2.478-3.672,4.952-7.348c.3-.437.565-.893.98-1.554-.806.143-1.372.224-1.93.347q-20.682,4.566-41.362,9.138c-.891.2-1.781.411-2.681.557-1.787.292-2.473-.5-1.9-2.17.1-.3.238-.6.361-.9q3.745-9.171,7.488-18.341c.212-.516.381-1.048.658-1.821-.841.322-1.391.516-1.929.739-6.5,2.683-12.99,5.389-19.5,8.049q-12.673,5.177-25.373,10.29a15.267,15.267,0,0,1-2.437.818,1.315,1.315,0,0,1-1.691-1.409,4.349,4.349,0,0,1,.135-.953q1.337-6.3,2.683-12.6c.241-1.137.451-2.28.733-3.7-.781.394-1.3.644-1.812.915q-20.843,11.07-41.687,22.142a10.875,10.875,0,0,1-1.59.776c-1.216.406-2.017-.264-1.9-1.541a6.977,6.977,0,0,1,.173-.787q3.031-14.089,6.06-28.18c.109-.509.17-1.028.292-1.784-.65.264-1.086.417-1.5.614-1.792.857-3.576,1.73-5.364,2.6q-29.5,14.283-59.006,28.566a17.782,17.782,0,0,1-2.352,1.048c-2.341.729-3.137-.022-2.63-2.414q1.734-8.191,3.475-16.383c.095-.451.149-.911.224-1.367a4.068,4.068,0,0,0-1.52.989q-9.258,8.621-18.515,17.241c-.392.366-.787.731-1.2,1.079a1.826,1.826,0,0,1-2.37.159c-.361-.233-.712-.482-1.064-.729q-7.974-5.606-15.952-11.211c-.462-.325-.947-.617-1.692-1.1.092,1.027.151,1.709.213,2.391.159,1.764.372,3.524.464,5.293.064,1.244-.193,1.414-1.389,1.75a3.262,3.262,0,0,1-2.191-.135c-1.944-.776-3.9-1.53-5.847-2.3q-23.748-9.374-47.5-18.747c-.516-.2-1.053-.359-1.891-.644.4.824.622,1.3.871,1.772,1.009,1.894,2.044,3.778,3.041,5.679q4.934,9.416,9.835,18.85c.35.677.964,1.443.324,2.235s-1.493.345-2.249.16Q167.712,24.515,115.422,11.6c-.426-.106-.871-.137-1.574-.244.378.5.558.759.753,1q7.911,9.969,15.826,19.938c.2.254.5.471.589.757a2.7,2.7,0,0,1,.21,1.47c-.19.6-.846.572-1.389.45-.523-.118-1.034-.289-1.546-.45q-12.368-3.885-24.735-7.771c-.649-.2-1.307-.38-2.224-.645.325.747.512,1.227.739,1.688q1.855,3.756,3.733,7.5c.3.594.616,1.176.11,1.789a1.529,1.529,0,0,1-1.622.375C95.779,35.961,87.257,34.508,78.746,33q-30.53-5.4-61.058-10.828a8.013,8.013,0,0,0-1.2-.008c.742,1.181,1.361,2.178,1.991,3.167Q27.2,39.067,35.932,52.8c1.65,2.6,1.212,3.517-1.3,4.459C29.657,59.123,24.738,61.139,19.8,63.1c-.58.23-1.156.476-1.977.815.669.347,1.12.6,1.586.823,3.831,1.82,7.673,3.619,11.5,5.453,2.457,1.177,2.51,1.5.687,3.545q-14.1,15.813-28.208,31.625c-.378.425-.723.879-1.24,1.509.726,0,1.188.025,1.647,0q11.5-.686,23-1.381,8.765-.52,17.534-1.022c.748-.044,1.582-.266,2.048.524.527.894-.2,1.509-.687,2.123-2.213,2.77-4.442,5.525-6.655,8.293a13.072,13.072,0,0,0-.734,1.2c.778-.3,1.227-.471,1.675-.649q26.149-10.3,52.3-20.6a7.26,7.26,0,0,1,1.526-.5c.933-.145,1.425.44,1.191,1.345-.106.412-.3.807-.372,1.224q-.91,5.4-1.782,10.8a7.28,7.28,0,0,0-.006,1.013c.664-.316,1.145-.532,1.614-.77q9.775-4.946,19.548-9.9,7.764-3.92,15.547-7.806c2.027-1.014,2.713-.566,2.7,1.739,0,.8-.023,1.61-.045,2.415q-.163,5.959-.33,11.917c-.012.453,0,.907,0,1.49.7-.16,1.17-.26,1.633-.373,2.345-.577,4.686-1.177,7.036-1.734q41.286-9.792,82.576-19.573c2.212-.524,2.655-.09,2.176,2.128q-1.747,8.105-3.489,16.213c-.075.347-.093.706-.163,1.257.678-.376,1.191-.652,1.7-.944q11.147-6.47,22.292-12.944c.372-.215.734-.45,1.12-.636,1.341-.649,2.047-.277,2.209,1.19.081.747.092,1.5.114,2.252.092,3.114.17,6.226.264,9.34.014.454.1.907.168,1.558.7-.31,1.227-.533,1.748-.773q18.3-8.4,36.593-16.807c.589-.271,1.181-.645,1.814-.21.7.481.563,1.21.443,1.908-.028.159-.061.317-.084.476-.334,2.276-.667,4.549-1.031,7.027a9.709,9.709,0,0,0,.966-.575c1.261-1,2.51-2.02,3.762-3.035,2.087-1.691,4.193-3.358,6.249-5.086a1.993,1.993,0,0,1,2.73-.322c1.023.681,2.184,1.149,3.252,1.767q9.834,5.683,19.655,11.39c.5.291,1.011.571,1.8,1.019-.174-.815-.272-1.324-.39-1.829q-1.337-5.723-2.688-11.444c-.157-.663-.229-1.28.39-1.75a1.471,1.471,0,0,1,1.67.036c1.394.694,2.787,1.387,4.164,2.117q19.647,10.4,39.29,20.819c.435.232.891.426,1.661.789-.431-.851-.666-1.33-.915-1.8q-4.841-9.192-9.685-18.384a4.63,4.63,0,0,1-.621-1.3,2.442,2.442,0,0,1,.184-1.493c.3-.523.9-.448,1.451-.249,1.513.549,3.053,1.03,4.549,1.619q30.192,11.908,60.376,23.836c.58.229,1.173.426,2.025.736-.188-.992-.32-1.712-.462-2.431q-2.1-10.664-4.207-21.33c-.42-2.142.339-2.8,2.462-2.176,1.031.3,2.052.638,3.077.958q19.138,5.982,38.278,11.961c.527.165,1.065.289,1.75.473-.132-.689-.2-1.107-.294-1.52q-1.412-6.2-2.835-12.4c-.445-1.932.117-2.526,2.039-2.12.21.045.415.109.624.162,3.747.946,7.5,1.868,11.241,2.845q32.329,8.441,64.657,16.9c.605.157,1.224.268,2.114.459" transform="translate(1.19 1.13)" fill="#f6ba00"/>
      <path id="Path_350" data-name="Path 350" d="M103.927,35.868c-1.432-2.891-2.719-5.481-4-8.074-.261-.529-.526-1.058-.765-1.6-.257-.58-.336-1.246.238-1.6a2,2,0,0,1,1.471-.168c5.8,1.776,11.581,3.607,17.37,5.416q4.612,1.442,9.23,2.862c.241.073.5.1,1.064.2-.521-.7-.855-1.167-1.207-1.618q-7.025-9.029-14.048-18.059a12.594,12.594,0,0,1-1.3-2.025c-.446-.883-.037-1.526.938-1.459a13.958,13.958,0,0,1,2.366.456q18.755,4.661,37.508,9.331,33.22,8.21,66.452,16.381c.355.087.717.145,1.28.257a10.9,10.9,0,0,0-.423-1.106q-6.659-12.7-13.331-25.382c-.3-.571-.68-1.1-.952-1.68-.513-1.095.1-2.008,1.3-1.863a7.787,7.787,0,0,1,1.838.563q17.174,6.729,34.341,13.476,10.345,4.067,20.682,8.15c.491.193,1,.35,1.74.61-.073-.871-.115-1.546-.188-2.216-.252-2.294-.537-4.585-.764-6.881-.14-1.408.9-2.094,2.178-1.454a10.75,10.75,0,0,1,1.347.879q8.688,6.134,17.372,12.273c.479.338.964.663,1.54,1.058.476-.411.921-.782,1.35-1.171Q299.579,21.4,310.607,11.376c.159-.145.3-.372.479-.418a3.141,3.141,0,0,1,1.488-.208c.639.185.77.841.684,1.471-.064.477-.173.95-.272,1.423q-1.836,8.831-3.674,17.66c-.128.611-.225,1.229-.38,2.086.692-.3,1.131-.462,1.552-.666q32.075-15.442,64.148-30.891c.871-.418,1.728-.865,2.6-1.289.666-.325,1.342-.86,2.09-.3.8.605.47,1.464.314,2.235-.426,2.106-.879,4.2-1.325,6.3q-2.3,10.79-4.595,21.579c-.089.414-.134.835-.236,1.5.566-.238.986-.381,1.375-.583q21.354-11.14,42.7-22.29a7.594,7.594,0,0,1,.857-.445c1.09-.4,1.846.117,1.795,1.261a10.3,10.3,0,0,1-.272,1.585q-1.519,7.333-3.039,14.666c-.106.507-.154,1.028-.25,1.689.462-.157.765-.241,1.053-.359Q440.878,17.9,464.052,8.405c.795-.325,1.563-.72,2.37-1.008,1.084-.387,1.851.233,1.666,1.355a7.449,7.449,0,0,1-.518,1.518q-3.749,9.342-7.508,18.678c-.194.482-.355.978-.614,1.7,1.313-.266,2.4-.474,3.484-.706q21.343-4.566,42.686-9.135c.21-.045.418-.1.63-.129.608-.082,1.3-.115,1.527.546a2.127,2.127,0,0,1-.123,1.484,19.142,19.142,0,0,1-1.39,2.165c-1.658,2.5-3.316,5.005-5.168,7.8a10.578,10.578,0,0,0,1.289-.4q28.636-14.045,57.264-28.1a6.066,6.066,0,0,1,.725-.348A1.157,1.157,0,0,1,562,5.231a9.635,9.635,0,0,1-.56,1.675q-4.939,12.769-9.884,25.533c-.208.538-.407,1.079-.7,1.856.7-.114,1.159-.156,1.605-.266q16.805-4.162,33.608-8.338a6.361,6.361,0,0,1,.781-.194c1.233-.142,1.815.593,1.411,1.79a7.685,7.685,0,0,1-.493,1.011q-1.806,3.511-3.612,7.019c-.235.459-.439.933-.751,1.607.537-.086.845-.112,1.14-.187q21.166-5.31,42.328-10.629a5,5,0,0,1,1.244-.3c.445.012,1.106.095,1.271.38a2.113,2.113,0,0,1,.02,1.479,4.642,4.642,0,0,1-.773,1.215q-9.691,13.963-19.386,27.927c-.325.468-.642.943-1.065,1.563.821.219,1.425.4,2.038.54q6.136,1.349,12.275,2.68a5.191,5.191,0,0,1,.932.244,1.259,1.259,0,0,1,.532,2.181,7.71,7.71,0,0,1-1.1.941q-5.2,4.069-10.415,8.131c-.454.356-.882.743-1.474,1.244.681.252,1.165.442,1.656.608q8.231,2.8,16.465,5.593c.1.036.208.054.311.086.532.16,1.065.369,1.092,1.017.03.743-.566.989-1.143,1.153q-4.188,1.174-8.383,2.313c-5.691,1.557-11.384,3.109-17.33,4.731.37.524.636.949.95,1.335q5.758,7.05,11.525,14.095a6.247,6.247,0,0,1,.771,1.028,1.1,1.1,0,0,1-1.067,1.733,4.25,4.25,0,0,1-.955-.138q-35.005-8.028-70.009-16.067c-.824-.188-1.641-.4-2.8-.691.409.812.652,1.322.919,1.818,2.605,4.817,5.226,9.626,7.81,14.454.379.709,1.215,1.431.519,2.33s-1.613.317-2.394.114q-22.285-5.8-44.558-11.654-16.355-4.3-32.7-8.631c-.355-.093-.715-.16-1.219-.274a9.234,9.234,0,0,0,.1,1.148c.961,4.241,1.938,8.478,2.9,12.718a7.3,7.3,0,0,1,.244,1.586,1.177,1.177,0,0,1-1.481,1.255,10.743,10.743,0,0,1-1.546-.436Q450.313,99.347,429.98,93.14c-.507-.156-1.022-.289-1.7-.479a10.562,10.562,0,0,0,.089,1.159q2.207,11.056,4.423,22.11a9.346,9.346,0,0,1,.224,1.429c.058,1.3-.664,1.868-1.949,1.558a7.99,7.99,0,0,1-1.059-.384q-31.482-12.591-62.963-25.186a4.369,4.369,0,0,0-1.837-.387c.254.5.5,1,.762,1.493q5.177,9.836,10.353,19.672a6.335,6.335,0,0,1,.594,1.314,1.193,1.193,0,0,1-1.526,1.569,7.316,7.316,0,0,1-1.608-.722Q352.064,104.8,330.346,93.313c-.552-.292-1.115-.568-1.968-1,.166.829.25,1.339.37,1.842.834,3.5,1.692,6.991,2.5,10.5.2.893.8,1.936-.216,2.677-.947.691-1.744-.124-2.487-.565q-12.48-7.382-24.931-14.812c-.227-.135-.462-.258-.762-.425-.47.372-.935.729-1.387,1.1q-5.6,4.61-11.194,9.22c-.638.521-1.255,1.38-2.23.793-.943-.568-.549-1.543-.439-2.356.325-2.394.711-4.78,1.069-7.169.037-.252.044-.51.084-1.016-.743.314-1.317.538-1.874.8q-17.461,8.1-34.92,16.207c-.487.227-.969.471-1.474.649-1.209.423-1.817-.009-1.9-1.321-.02-.32.006-.644,0-.966-.114-4.069-.229-8.138-.352-12.471-.68.369-1.187.622-1.674.908q-11.735,6.9-23.466,13.807a8.778,8.778,0,0,1-1.272.691,1.075,1.075,0,0,1-1.571-1.149,6.1,6.1,0,0,1,.2-.943q1.864-8.658,3.725-17.316c.064-.3.1-.61.18-1.129-.645.109-1.156.165-1.65.283q-28.27,6.759-56.539,13.521Q150.5,107.4,134.805,111a15.959,15.959,0,0,1-2.868.235c-.86.04-1.274-.47-1.344-1.275a11.475,11.475,0,0,1-.006-1.288q.173-6.2.352-12.4c.014-.53,0-1.061,0-1.859-.728.353-1.291.613-1.843.893q-17.309,8.789-34.616,17.579a10.163,10.163,0,0,1-1.61.731,1.173,1.173,0,0,1-1.611-1.213,4.892,4.892,0,0,1,.143-.952q1.031-5.541,2.064-11.082c.076-.414.126-.832.233-1.541-.7.23-1.235.372-1.744.575q-18.172,7.267-36.337,14.544-9.274,3.7-18.565,7.366a3.866,3.866,0,0,1-1.366.442,1.753,1.753,0,0,1-1.207-.552,1.478,1.478,0,0,1-.017-1.181,3.888,3.888,0,0,1,.747-1.036q4.062-5,8.131-10c.2-.244.376-.5.686-.922a7.135,7.135,0,0,0-1.143-.14c-6.6.386-13.19.8-19.786,1.176-6.436.37-12.872.728-19.311,1.034a11.213,11.213,0,0,1-2.851-.361,1.044,1.044,0,0,1-.709-1.716,6.575,6.575,0,0,1,.82-.989Q15.644,90.832,30.242,74.6c.353-.392.68-.807,1.089-1.3-.541-.26-.966-.478-1.4-.67Q23.3,69.7,16.666,66.78a6.836,6.836,0,0,1-1.151-.571,1.233,1.233,0,0,1,.14-2.283,4.8,4.8,0,0,1,.459-.151Q25.52,60.2,34.926,56.614c.288-.11.561-.255.95-.436-.31-.541-.552-1-.831-1.445q-9.372-14.85-18.747-29.7a18.965,18.965,0,0,1-1.31-2.216c-.519-1.14-.121-1.82,1.134-1.807a25.633,25.633,0,0,1,4,.383Q33.468,23.636,46.8,25.942q16.348,2.823,32.691,5.685,11.346,1.988,22.682,4.011c.467.082.939.124,1.753.23m444.566,71.58c-.348-.715-.557-1.187-.8-1.638q-3.812-7.092-7.634-14.179c-.2-.378-.439-.743-.6-1.137-.487-1.171-.051-1.784,1.213-1.6,1.644.241,3.288.523,4.907.891q32.586,7.417,65.165,14.862c.65.148,1.307.275,2.3.482-.534-.717-.834-1.148-1.163-1.555q-4.762-5.889-9.528-11.773a13.38,13.38,0,0,1-1.271-1.852c-.521-.943-.387-1.344.594-1.731a30.2,30.2,0,0,1,3.347-1.142c6.537-1.731,13.085-3.425,19.629-5.139.383-.1.75-.257,1.4-.484-.753-.263-1.2-.426-1.655-.577q-7.02-2.363-14.042-4.722A8.09,8.09,0,0,1,609,75.647a1.781,1.781,0,0,1-.376-2.966,7.868,7.868,0,0,1,.753-.607q4.729-3.63,9.457-7.262c.409-.314.79-.664,1.338-1.129-.673-.18-1.118-.324-1.572-.42-3.731-.784-7.452-1.621-11.2-2.319-2.933-.546-3.091-1.552-1.562-3.706C612.173,48.3,618.421,39.3,624.7,30.324c.324-.462.624-.941,1.1-1.66-.733.142-1.146.2-1.551.3-10.318,2.551-20.63,5.128-30.957,7.646-3.439.84-6.917,1.518-10.371,2.3a1.886,1.886,0,0,1-2.129-.739c-.487-.683-.1-1.338.218-1.961,1.129-2.2,2.274-4.385,3.4-6.585a12.4,12.4,0,0,0,.464-1.272c-.795.177-1.366.286-1.927.431q-15.988,4.111-31.974,8.228c-.415.107-.831.224-1.25.31-1.727.353-2.437-.474-1.871-2.181.118-.356.272-.7.409-1.05q4.85-12.456,9.7-24.912c.224-.577.414-1.17.734-2.086-1.025.479-1.74.8-2.447,1.146Q531.4,20.319,506.56,32.4c-2.268,1.1-4.584,2.109-6.9,3.1-1.118.479-1.737.348-2.176-.283-.544-.781-.087-1.425.32-2.066.145-.226.3-.445.451-.667q2.478-3.672,4.952-7.348c.3-.437.565-.893.98-1.554-.806.143-1.372.224-1.93.347q-20.682,4.566-41.362,9.138c-.891.2-1.781.411-2.681.557-1.787.292-2.473-.5-1.9-2.17.1-.3.238-.6.361-.9q3.745-9.171,7.488-18.341c.212-.516.381-1.048.658-1.821-.841.322-1.391.516-1.929.739-6.5,2.683-12.99,5.389-19.5,8.049q-12.673,5.177-25.373,10.29a15.267,15.267,0,0,1-2.437.818,1.315,1.315,0,0,1-1.691-1.409,4.349,4.349,0,0,1,.135-.953q1.337-6.3,2.683-12.6c.241-1.137.451-2.28.733-3.7-.781.394-1.3.644-1.812.915q-20.843,11.07-41.687,22.142a10.875,10.875,0,0,1-1.59.776c-1.216.406-2.017-.264-1.9-1.541a6.977,6.977,0,0,1,.173-.787q3.031-14.089,6.06-28.18c.109-.509.17-1.028.292-1.784-.65.264-1.086.417-1.5.614-1.792.857-3.576,1.73-5.364,2.6q-29.5,14.283-59.006,28.566a17.782,17.782,0,0,1-2.352,1.048c-2.341.729-3.137-.022-2.63-2.414q1.734-8.191,3.475-16.383c.095-.451.149-.911.224-1.367a4.068,4.068,0,0,0-1.52.989q-9.258,8.621-18.515,17.241c-.392.366-.787.731-1.2,1.079a1.826,1.826,0,0,1-2.37.159c-.361-.233-.712-.482-1.064-.729q-7.974-5.606-15.952-11.211c-.462-.325-.947-.617-1.692-1.1.092,1.027.151,1.709.213,2.391.159,1.764.372,3.524.464,5.293.064,1.244-.193,1.414-1.389,1.75a3.262,3.262,0,0,1-2.191-.135c-1.944-.776-3.9-1.53-5.847-2.3q-23.748-9.374-47.5-18.747c-.516-.2-1.053-.359-1.891-.644.4.824.622,1.3.871,1.772,1.009,1.894,2.044,3.778,3.041,5.679q4.934,9.416,9.835,18.85c.35.677.964,1.443.324,2.235s-1.493.345-2.249.16Q168.9,25.645,116.612,12.726c-.426-.106-.871-.137-1.574-.244.378.5.558.759.753,1q7.911,9.969,15.826,19.938c.2.254.5.471.589.757a2.7,2.7,0,0,1,.21,1.47c-.19.6-.846.572-1.389.45-.523-.118-1.034-.289-1.546-.45q-12.368-3.885-24.735-7.771c-.649-.2-1.307-.38-2.224-.645.325.747.512,1.227.739,1.688q1.855,3.756,3.733,7.5c.3.594.616,1.176.11,1.789a1.529,1.529,0,0,1-1.622.375c-8.513-1.495-17.034-2.947-25.545-4.451q-30.53-5.4-61.058-10.828a8.013,8.013,0,0,0-1.2-.008c.742,1.181,1.361,2.178,1.991,3.167Q28.394,40.2,37.122,53.929c1.65,2.6,1.212,3.517-1.3,4.459-4.974,1.865-9.894,3.881-14.835,5.837-.58.23-1.156.476-1.977.815.669.347,1.12.6,1.586.823,3.831,1.82,7.673,3.619,11.5,5.453,2.457,1.177,2.51,1.5.687,3.545q-14.1,15.813-28.208,31.625c-.378.425-.723.879-1.24,1.509.726,0,1.188.025,1.647,0q11.5-.686,23-1.381,8.765-.52,17.534-1.022c.748-.044,1.582-.266,2.048.524.527.894-.2,1.509-.687,2.123-2.213,2.77-4.442,5.525-6.655,8.293a13.072,13.072,0,0,0-.734,1.2c.778-.3,1.227-.471,1.675-.649q26.149-10.3,52.3-20.6a7.26,7.26,0,0,1,1.526-.5c.933-.145,1.425.44,1.191,1.345-.106.412-.3.807-.372,1.224q-.91,5.4-1.782,10.8a7.28,7.28,0,0,0-.006,1.013c.664-.316,1.145-.532,1.614-.77q9.775-4.946,19.548-9.9,7.764-3.92,15.547-7.806c2.027-1.014,2.713-.566,2.7,1.739,0,.8-.023,1.61-.045,2.415q-.163,5.959-.33,11.917c-.012.453,0,.907,0,1.49.7-.16,1.17-.26,1.633-.373,2.345-.577,4.686-1.177,7.036-1.734q41.286-9.792,82.576-19.573c2.212-.524,2.655-.09,2.176,2.128q-1.747,8.105-3.489,16.213c-.075.347-.093.706-.163,1.257.678-.376,1.191-.652,1.7-.944q11.147-6.47,22.292-12.944c.372-.215.734-.45,1.12-.636,1.341-.649,2.047-.277,2.209,1.19.081.747.092,1.5.114,2.252.092,3.114.17,6.226.264,9.34.014.454.1.907.168,1.558.7-.31,1.227-.533,1.748-.773q18.3-8.4,36.593-16.807c.589-.271,1.181-.645,1.814-.21.7.481.563,1.21.443,1.908-.028.159-.061.317-.084.476-.334,2.276-.667,4.549-1.031,7.027a9.709,9.709,0,0,0,.966-.575c1.261-1,2.51-2.02,3.762-3.035,2.087-1.691,4.193-3.358,6.249-5.086a1.993,1.993,0,0,1,2.73-.322c1.023.681,2.184,1.149,3.252,1.767q9.834,5.683,19.655,11.39c.5.291,1.011.571,1.8,1.019-.174-.815-.272-1.324-.39-1.829q-1.337-5.723-2.688-11.444c-.157-.663-.229-1.28.39-1.75a1.471,1.471,0,0,1,1.67.036c1.394.694,2.787,1.387,4.164,2.117q19.647,10.4,39.29,20.819c.435.232.891.426,1.661.789-.431-.851-.666-1.33-.915-1.8q-4.841-9.192-9.685-18.384a4.63,4.63,0,0,1-.621-1.3,2.442,2.442,0,0,1,.184-1.493c.3-.523.9-.448,1.451-.249,1.513.549,3.053,1.03,4.549,1.619Q397.842,103,428.027,114.931c.58.229,1.173.426,2.025.736-.188-.992-.32-1.712-.462-2.431q-2.1-10.664-4.207-21.33c-.42-2.142.339-2.8,2.462-2.176,1.031.3,2.052.638,3.077.958q19.138,5.982,38.278,11.961c.527.165,1.065.289,1.75.473-.132-.689-.2-1.107-.294-1.52q-1.412-6.2-2.835-12.4c-.445-1.932.117-2.526,2.039-2.12.21.045.415.109.624.162,3.747.946,7.5,1.868,11.241,2.845q32.329,8.441,64.657,16.9c.605.157,1.224.268,2.114.459" transform="translate(0 -0.001)" fill="#1a1311"/>
    </g>
    <g id="Group_81" data-name="Group 81" transform="translate(141.246 46.76)">
      <g id="Group_2237" data-name="Group 2237" transform="translate(98 0)">
        <path id="Path_383" data-name="Path 383" d="M25.753,14.157v5.836h-8.1c.151,2.6.264,5.157.264,7.68l-7.079.565-.715-8.245H0V14.157H9.6L9.337,10.88H1.619V5.233H8.847L8.433.565,15.587,0c.263,1.733.527,3.465.715,5.234h7.831V10.88H16.942c.113,1.092.226,2.185.3,3.277Z" transform="translate(0 0)"/>
        <path id="Path_384" data-name="Path 384" d="M50.435,6.108l1.054,5.045,12.35-.263v.3c0,3.5-1.28,8.133-4.518,10.844l-4.481-2.071,1.242-3.728-3.462.114,2.447,11.558L48.93,29.263c-1.13-4.179-2.184-8.4-3.088-12.725l-4.781.112V11.379l3.8-.075c-.226-1.318-.452-2.636-.64-3.953Z" transform="translate(-9.17 -1.364)"/>
        <path id="Path_385" data-name="Path 385" d="M78.728,3.734H90.249v6.4H78.728Zm2.221,17.922c8.7-1.732,13.1-6.175,15.023-13.027h7.417A22.46,22.46,0,0,1,84.337,28.207Z" transform="translate(-17.582 -0.834)"/>
        <path id="Path_386" data-name="Path 386" d="M125.334,14.682l-6.928,6.777-5.309-4.97c3.69-3.916,8.02-8.1,11.409-11.333l19.579,12.914L139.3,24.734Zm8.434-8.735a3.746,3.746,0,1,1,7.493,0,3.746,3.746,0,0,1-7.493,0m5.647,0a1.9,1.9,0,0,0-1.883-1.921,1.929,1.929,0,0,0-1.92,1.921,1.9,1.9,0,0,0,1.92,1.883,1.864,1.864,0,0,0,1.883-1.883" transform="translate(-25.257 -0.487)"/>
        <rect id="Rectangle_73" data-name="Rectangle 73" width="17.263" height="6.777" transform="translate(124.136 10.429)"/>
        <path id="Path_387" data-name="Path 387" d="M398.861,3.734h11.521v6.4H398.861Zm2.221,17.922c8.7-1.732,13.1-6.175,15.023-13.027h7.417a22.46,22.46,0,0,1-19.052,19.578Z" transform="translate(-253.429 -0.834)"/>
      </g>
    </g>
  </g>
</svg>
