<svg id="check-cic" xmlns="http://www.w3.org/2000/svg" xmlns:xlink="http://www.w3.org/1999/xlink" width="231.455" height="231.38" viewBox="0 0 231.455 231.38">
  <defs>
    <clipPath id="clip-path">
      <rect id="Rectangle_83" data-name="Rectangle 83" width="231.455" height="231.38" fill="#f6ba00" stroke="#1a1311" stroke-width="1"/>
    </clipPath>
  </defs>
  <g id="Group_84" data-name="Group 84" clip-path="url(#clip-path)">
    <path id="Path_395" data-name="Path 395" d="M123.877,6.411a2.288,2.288,0,0,0-2.6,2.187,2.229,2.229,0,0,0,2.282,2.607,4.143,4.143,0,0,0,2.783-.918l1.586,2.467a6.4,6.4,0,0,1-4.932,1.46c-2.919-.2-5.262-1.894-5-5.836a5.237,5.237,0,0,1,5.841-4.787,6.4,6.4,0,0,1,4.38,1.967L126.383,7.93a3.371,3.371,0,0,0-2.506-1.519" fill="#f6ba00" stroke="#1a1311" stroke-width="1"/>
    <path id="Path_396" data-name="Path 396" d="M138.236,8.924l-1.112,6.771a4.4,4.4,0,0,1-1.647.056,4.305,4.305,0,0,1-1.542-.581l.953-5.8c.118-.712.035-1.149-.94-1.309a3.187,3.187,0,0,0-2.224.635l-.976,5.945a3.948,3.948,0,0,1-1.643.038,3.823,3.823,0,0,1-1.545-.562l2.283-13.9,3.189.524-.842,5.119a5.143,5.143,0,0,1,3.548-.726c1.838.3,2.847,1.662,2.5,3.781" fill="#f6ba00" stroke="#1a1311" stroke-width="1"/>
    <path id="Path_397" data-name="Path 397" d="M148.547,13.1a8.676,8.676,0,0,1-.536,1.41l-6.517-1.744a2.148,2.148,0,0,0,1.789,1.915,5.174,5.174,0,0,0,2.968-.209l1.026,2.635a7.034,7.034,0,0,1-4.976.36,5.154,5.154,0,0,1-3.835-6.691,4.959,4.959,0,0,1,6.393-3.6c3.14.841,4.448,3.079,3.688,5.925m-6.6-2.378,3.708.993a1.692,1.692,0,0,0-1.411-1.931,2.129,2.129,0,0,0-2.3.938" fill="#f6ba00" stroke="#1a1311" stroke-width="1"/>
    <path id="Path_398" data-name="Path 398" d="M154.882,13.326a2.291,2.291,0,0,0-3.122,1.347,2.231,2.231,0,0,0,1.435,3.155,4.15,4.15,0,0,0,2.931-.078l.81,2.819a6.409,6.409,0,0,1-5.146-.021c-2.74-1.027-4.495-3.328-3.108-7.029a5.238,5.238,0,0,1,6.973-2.906,6.4,6.4,0,0,1,3.63,3.147L156.846,15.5a3.374,3.374,0,0,0-1.964-2.177" fill="#f6ba00" stroke="#1a1311" stroke-width="1"/>
    <path id="Path_399" data-name="Path 399" d="M165.085,26.066a4.1,4.1,0,0,1-1.925-.517,5.266,5.266,0,0,1-1.584-1.13l-.218-4.1-1.075.427-1.2,2.459a3.95,3.95,0,0,1-1.585-.435,3.791,3.791,0,0,1-1.317-.981l6.173-12.653,2.9,1.416-3.116,6.386,3.63-1.5,3.552,1.733-5,1.976Z" fill="#f6ba00" stroke="#1a1311" stroke-width="1"/>
    <path id="Path_400" data-name="Path 400" d="M177.27,25.045a2.289,2.289,0,0,0-3.347.593,2.23,2.23,0,0,0,.672,3.4,4.141,4.141,0,0,0,2.869.6l.141,2.93a6.4,6.4,0,0,1-5-1.2c-2.43-1.628-3.608-4.27-1.409-7.551a5.236,5.236,0,0,1,7.452-1.226,6.4,6.4,0,0,1,2.809,3.9l-2.774,1.136a3.373,3.373,0,0,0-1.411-2.569" fill="#f6ba00" stroke="#1a1311" stroke-width="1"/>
    <path id="Path_401" data-name="Path 401" d="M188.455,34.412l-4.347,5.305a4.383,4.383,0,0,1-1.454-.774,4.3,4.3,0,0,1-1.044-1.273l3.72-4.54c.457-.559.6-.979-.159-1.605a3.185,3.185,0,0,0-2.242-.559l-3.817,4.658a3.957,3.957,0,0,1-1.442-.789,3.827,3.827,0,0,1-1.056-1.258l8.921-10.889,2.5,2.047-3.287,4.012a5.125,5.125,0,0,1,3.435,1.144c1.44,1.179,1.633,2.861.274,4.521" fill="#f6ba00" stroke="#1a1311" stroke-width="1"/>
    <path id="Path_402" data-name="Path 402" d="M195.286,43.178a8.519,8.519,0,0,1-1.169.955l-4.771-4.767a2.148,2.148,0,0,0,.592,2.553,5.172,5.172,0,0,0,2.674,1.3l-.428,2.795a7.033,7.033,0,0,1-4.489-2.174,5.154,5.154,0,0,1,.023-7.711,4.958,4.958,0,0,1,7.336.076c2.3,2.3,2.313,4.889.232,6.972m-4.53-5.358,2.715,2.713a1.693,1.693,0,0,0-.256-2.378,2.13,2.13,0,0,0-2.459-.335" fill="#f6ba00" stroke="#1a1311" stroke-width="1"/>
    <path id="Path_403" data-name="Path 403" d="M200.68,46.536a2.291,2.291,0,0,0-3.377-.39,2.232,2.232,0,0,0-.329,3.452,4.149,4.149,0,0,0,2.58,1.392l-.7,2.849a6.407,6.407,0,0,1-4.449-2.584c-1.864-2.256-2.239-5.125.808-7.643a5.239,5.239,0,0,1,7.493.957,6.4,6.4,0,0,1,1.58,4.536l-2.985.3a3.364,3.364,0,0,0-.617-2.866" fill="#f6ba00" stroke="#1a1311" stroke-width="1"/>
    <path id="Path_404" data-name="Path 404" d="M203.193,62.665a4.118,4.118,0,0,1-1.412-1.405,5.249,5.249,0,0,1-.811-1.769l1.851-3.666-1.145-.165L199.414,57.2a3.931,3.931,0,0,1-1.158-1.165,3.815,3.815,0,0,1-.656-1.507l11.646-7.9,1.813,2.672-5.878,3.989,3.9.5,2.218,3.269-5.322-.773Z" fill="#f6ba00" stroke="#1a1311" stroke-width="1"/>
    <path id="Path_405" data-name="Path 405" d="M214.273,67.844a2.29,2.29,0,0,0-3.2-1.152,2.23,2.23,0,0,0-1.111,3.283,4.144,4.144,0,0,0,2.193,1.947l-1.337,2.61A6.4,6.4,0,0,1,207.08,71c-1.3-2.622-1-5.5,2.538-7.253a5.237,5.237,0,0,1,7.074,2.648,6.393,6.393,0,0,1,.5,4.776l-2.971-.394a3.369,3.369,0,0,0,.055-2.932" fill="#f6ba00" stroke="#1a1311" stroke-width="1"/>
    <path id="Path_406" data-name="Path 406" d="M219.311,81.541,212.9,83.976a4.2,4.2,0,0,1-1.147-3.02l5.489-2.084c.675-.256,1.011-.547.662-1.47a3.2,3.2,0,0,0-1.666-1.6L210.6,77.937a3.979,3.979,0,0,1-.858-1.4,3.844,3.844,0,0,1-.289-1.617l13.162-5,1.146,3.019-4.849,1.841a5.149,5.149,0,0,1,2.41,2.7c.659,1.741-.009,3.3-2.016,4.058" fill="#f6ba00" stroke="#1a1311" stroke-width="1"/>
    <path id="Path_407" data-name="Path 407" d="M220.854,92.555a8.464,8.464,0,0,1-1.489.244l-1.756-6.51a2.146,2.146,0,0,0-.76,2.507,5.163,5.163,0,0,0,1.667,2.461l-1.767,2.208a7.033,7.033,0,0,1-2.8-4.124,5.15,5.15,0,0,1,3.868-6.668,4.956,4.956,0,0,1,6.317,3.726c.845,3.137-.436,5.391-3.278,6.156m-1.252-6.9,1,3.705a1.694,1.694,0,0,0,.965-2.188,2.131,2.131,0,0,0-1.964-1.517" fill="#f6ba00" stroke="#1a1311" stroke-width="1"/>
    <path id="Path_408" data-name="Path 408" d="M223.842,98.175a2.29,2.29,0,0,0-2.729-2.027,2.23,2.23,0,0,0-2.011,2.823,4.145,4.145,0,0,0,1.536,2.5l-2.034,2.113a6.407,6.407,0,0,1-2.561-4.464c-.483-2.885.629-5.557,4.527-6.211a5.239,5.239,0,0,1,6.008,4.58,6.4,6.4,0,0,1-.9,4.716l-2.731-1.236a3.371,3.371,0,0,0,.9-2.791" fill="#f6ba00" stroke="#1a1311" stroke-width="1"/>
    <path id="Path_409" data-name="Path 409" d="M217.949,113.406a4.118,4.118,0,0,1-.52-1.924,5.209,5.209,0,0,1,.184-1.937l3.438-2.25-.911-.715-2.728.2a3.959,3.959,0,0,1-.42-1.589,3.847,3.847,0,0,1,.186-1.633l14.043-1.017.234,3.222-7.088.513,3.126,2.384.285,3.942-4.223-3.333Z" fill="#f6ba00" stroke="#1a1311" stroke-width="1"/>
    <path id="Path_410" data-name="Path 410" d="M224.962,123.408a2.291,2.291,0,0,0-2.2-2.595,2.232,2.232,0,0,0-2.6,2.293,4.145,4.145,0,0,0,.93,2.781l-2.461,1.6a6.409,6.409,0,0,1-1.482-4.93c.184-2.92,1.875-5.27,5.819-5.023a5.239,5.239,0,0,1,4.814,5.824,6.405,6.405,0,0,1-1.951,4.391l-2.38-1.825a3.375,3.375,0,0,0,1.51-2.514" fill="#f6ba00" stroke="#1a1311" stroke-width="1"/>
    <path id="Path_411" data-name="Path 411" d="M222.5,137.781l-6.775-1.085a4.361,4.361,0,0,1-.064-1.646,4.3,4.3,0,0,1,.574-1.544l5.8.928c.714.115,1.151.031,1.307-.945a3.191,3.191,0,0,0-.645-2.221l-5.949-.953a3.925,3.925,0,0,1-.045-1.643,3.815,3.815,0,0,1,.555-1.547l13.908,2.227-.512,3.191-5.123-.822a5.144,5.144,0,0,1,.741,3.546c-.294,1.839-1.651,2.854-3.771,2.514" fill="#f6ba00" stroke="#1a1311" stroke-width="1"/>
    <path id="Path_412" data-name="Path 412" d="M218.354,148.114a8.518,8.518,0,0,1-1.414-.53l1.723-6.522a2.146,2.146,0,0,0-1.909,1.8,5.154,5.154,0,0,0,.219,2.965l-2.631,1.035a7.027,7.027,0,0,1-.377-4.973,5.153,5.153,0,0,1,6.679-3.857,4.959,4.959,0,0,1,3.621,6.38c-.829,3.142-3.064,4.458-5.911,3.706m2.354-6.61-.979,3.711a1.692,1.692,0,0,0,1.925-1.417,2.129,2.129,0,0,0-.946-2.294" fill="#f6ba00" stroke="#1a1311" stroke-width="1"/>
    <path id="Path_413" data-name="Path 413" d="M218.162,154.453a2.29,2.29,0,0,0-1.359-3.116,2.231,2.231,0,0,0-3.15,1.448,4.148,4.148,0,0,0,.091,2.931l-2.816.822a6.4,6.4,0,0,1,0-5.147c1.014-2.744,3.309-4.509,7.016-3.138a5.24,5.24,0,0,1,2.936,6.962,6.4,6.4,0,0,1-3.131,3.643l-1.754-2.431a3.376,3.376,0,0,0,2.168-1.974" fill="#f6ba00" stroke="#1a1311" stroke-width="1"/>
    <path id="Path_414" data-name="Path 414" d="M205.462,164.709a4.109,4.109,0,0,1,.508-1.927,5.254,5.254,0,0,1,1.124-1.588l4.1-.235-.43-1.073L208.3,158.7a3.932,3.932,0,0,1,.428-1.586,3.824,3.824,0,0,1,.975-1.322l12.675,6.117-1.4,2.908-6.4-3.087,1.521,3.623-1.717,3.557-2-4.992Z" fill="#f6ba00" stroke="#1a1311" stroke-width="1"/>
    <path id="Path_415" data-name="Path 415" d="M206.524,176.9a2.29,2.29,0,0,0-.606-3.345,2.229,2.229,0,0,0-3.4.685,4.141,4.141,0,0,0-.586,2.872l-2.93.152a6.407,6.407,0,0,1,1.184-5.007c1.619-2.437,4.256-3.627,7.548-1.44a5.24,5.24,0,0,1,1.255,7.449,6.4,6.4,0,0,1-3.884,2.824l-1.147-2.769a3.369,3.369,0,0,0,2.563-1.421" fill="#f6ba00" stroke="#1a1311" stroke-width="1"/>
    <path id="Path_416" data-name="Path 416" d="M197.189,188.116l-5.32-4.329a4.376,4.376,0,0,1,.768-1.457,4.294,4.294,0,0,1,1.271-1.049l4.554,3.706c.559.455.981.6,1.6-.165a3.192,3.192,0,0,0,.553-2.245l-4.672-3.8a3.949,3.949,0,0,1,.783-1.445,3.8,3.8,0,0,1,1.256-1.061l10.922,8.887-2.038,2.506-4.026-3.274a5.137,5.137,0,0,1-1.132,3.439c-1.174,1.445-2.857,1.644-4.523.289" fill="#f6ba00" stroke="#1a1311" stroke-width="1"/>
    <path id="Path_417" data-name="Path 417" d="M188.45,194.978a8.683,8.683,0,0,1-.958-1.165l4.75-4.789a2.147,2.147,0,0,0-2.551.6A5.173,5.173,0,0,0,188.4,192.3l-2.795-.419a7.026,7.026,0,0,1,2.158-4.5,5.153,5.153,0,0,1,7.712,0,4.957,4.957,0,0,1-.052,7.336c-2.287,2.307-4.881,2.331-6.972.257m5.343-4.55-2.7,2.726a1.694,1.694,0,0,0,2.377-.266,2.128,2.128,0,0,0,.326-2.46" fill="#f6ba00" stroke="#1a1311" stroke-width="1"/>
    <path id="Path_418" data-name="Path 418" d="M185.119,200.385a2.29,2.29,0,0,0,.376-3.379,2.231,2.231,0,0,0-3.452-.315,4.142,4.142,0,0,0-1.383,2.586l-2.852-.692a6.407,6.407,0,0,1,2.567-4.462c2.248-1.873,5.117-2.259,7.646.779a5.239,5.239,0,0,1-.926,7.5,6.4,6.4,0,0,1-4.532,1.6l-.307-2.982a3.37,3.37,0,0,0,2.863-.63" fill="#f6ba00" stroke="#1a1311" stroke-width="1"/>
    <path id="Path_419" data-name="Path 419" d="M168.992,202.958a4.122,4.122,0,0,1,1.4-1.418,5.22,5.22,0,0,1,1.767-.817l3.675,1.839.16-1.146-1.544-2.259a3.928,3.928,0,0,1,1.161-1.163,3.817,3.817,0,0,1,1.505-.661l7.949,11.624L182.4,210.78l-4.012-5.867-.487,3.9-3.262,2.232.754-5.327Z" fill="#f6ba00" stroke="#1a1311" stroke-width="1"/>
    <path id="Path_420" data-name="Path 420" d="M163.867,214.059a2.291,2.291,0,0,0,1.139-3.2,2.23,2.23,0,0,0-3.289-1.1,4.148,4.148,0,0,0-1.938,2.2l-2.617-1.326a6.408,6.408,0,0,1,3.517-3.757c2.619-1.308,5.5-1.028,7.268,2.508a5.24,5.24,0,0,1-2.618,7.088,6.4,6.4,0,0,1-4.776.519l.382-2.975a3.37,3.37,0,0,0,2.932.042" fill="#f6ba00" stroke="#1a1311" stroke-width="1"/>
    <path id="Path_421" data-name="Path 421" d="M150.18,219.144l-2.457-6.406a4.38,4.38,0,0,1,1.393-.881,4.292,4.292,0,0,1,1.624-.276l2.1,5.483c.259.675.551,1.011,1.473.656a3.187,3.187,0,0,0,1.6-1.671l-2.157-5.626a3.962,3.962,0,0,1,1.4-.862,3.817,3.817,0,0,1,1.618-.294l5.042,13.149-3.017,1.158-1.857-4.845a5.14,5.14,0,0,1-2.7,2.418c-1.739.667-3.3,0-4.065-2" fill="#f6ba00" stroke="#1a1311" stroke-width="1"/>
    <path id="Path_422" data-name="Path 422" d="M139.184,220.732a8.594,8.594,0,0,1-.25-1.488l6.5-1.781a2.144,2.144,0,0,0-2.509-.751,5.168,5.168,0,0,0-2.457,1.678l-2.215-1.758a7.031,7.031,0,0,1,4.113-2.821,5.155,5.155,0,0,1,6.688,3.842,4.961,4.961,0,0,1-3.7,6.334c-3.133.859-5.392-.414-6.171-3.255m6.9-1.279-3.7,1.014a1.693,1.693,0,0,0,2.192.956,2.131,2.131,0,0,0,1.51-1.97" fill="#f6ba00" stroke="#1a1311" stroke-width="1"/>
    <path id="Path_423" data-name="Path 423" d="M133.586,223.737A2.291,2.291,0,0,0,135.6,221a2.23,2.23,0,0,0-2.831-2,4.142,4.142,0,0,0-2.491,1.546l-2.121-2.026a6.406,6.406,0,0,1,4.453-2.578c2.883-.495,5.559.606,6.229,4.5a5.238,5.238,0,0,1-4.555,6.026,6.394,6.394,0,0,1-4.72-.884l1.226-2.737a3.369,3.369,0,0,0,2.793.889" fill="#f6ba00" stroke="#1a1311" stroke-width="1"/>
    <path id="Path_424" data-name="Path 424" d="M118.332,217.9a4.1,4.1,0,0,1,1.923-.527,5.239,5.239,0,0,1,1.938.177l2.262,3.432.712-.912-.206-2.729a3.931,3.931,0,0,1,1.588-.425,3.821,3.821,0,0,1,1.633.181l1.063,14.043-3.222.244-.537-7.088-2.373,3.134-3.942.3,3.319-4.234Z" fill="#f6ba00" stroke="#1a1311" stroke-width="1"/>
    <path id="Path_425" data-name="Path 425" d="M108.345,224.954a2.291,2.291,0,0,0,2.585-2.208,2.232,2.232,0,0,0-2.3-2.591,4.145,4.145,0,0,0-2.777.941l-1.608-2.454a6.4,6.4,0,0,1,4.923-1.5c2.921.171,5.278,1.851,5.046,5.8a5.239,5.239,0,0,1-5.8,4.836,6.405,6.405,0,0,1-4.4-1.932l1.815-2.387a3.374,3.374,0,0,0,2.52,1.5" fill="#f6ba00" stroke="#1a1311" stroke-width="1"/>
    <path id="Path_426" data-name="Path 426" d="M93.959,222.546l1.058-6.775a4.378,4.378,0,0,1,1.645-.071,4.312,4.312,0,0,1,1.545.569l-.9,5.8c-.112.713-.027,1.15.949,1.3a3.179,3.179,0,0,0,2.217-.654l.929-5.949a3.947,3.947,0,0,1,1.642-.051,3.823,3.823,0,0,1,1.548.549l-2.17,13.907-3.191-.5.8-5.124a5.138,5.138,0,0,1-3.541.755c-1.839-.287-2.858-1.638-2.527-3.759" fill="#f6ba00" stroke="#1a1311" stroke-width="1"/>
    <path id="Path_427" data-name="Path 427" d="M83.62,218.444a8.66,8.66,0,0,1,.524-1.415l6.528,1.7a2.147,2.147,0,0,0-1.8-1.9,5.173,5.173,0,0,0-2.965.23l-1.045-2.626a7.029,7.029,0,0,1,4.971-.4,5.152,5.152,0,0,1,3.883,6.662,4.956,4.956,0,0,1-6.364,3.645c-3.144-.816-4.469-3.045-3.729-5.894m6.618,2.327-3.714-.965a1.692,1.692,0,0,0,1.425,1.921,2.131,2.131,0,0,0,2.289-.956" fill="#f6ba00" stroke="#1a1311" stroke-width="1"/>
    <path id="Path_428" data-name="Path 428" d="M77.257,218.261a2.289,2.289,0,0,0,3.11-1.369,2.229,2.229,0,0,0-1.459-3.144,4.142,4.142,0,0,0-2.928.1l-.831-2.814a6.4,6.4,0,0,1,5.144-.017c2.746,1.006,4.52,3.293,3.16,7a5.237,5.237,0,0,1-6.949,2.958,6.392,6.392,0,0,1-3.652-3.117l2.425-1.762a3.37,3.37,0,0,0,1.98,2.161" fill="#f6ba00" stroke="#1a1311" stroke-width="1"/>
    <path id="Path_429" data-name="Path 429" d="M66.967,205.609a4.111,4.111,0,0,1,1.93.5,5.239,5.239,0,0,1,1.591,1.119l.25,4.1,1.071-.435,1.18-2.468a3.968,3.968,0,0,1,1.587.422,3.849,3.849,0,0,1,1.327.971l-6.073,12.7-2.912-1.393,3.065-6.409-3.619,1.534-3.564-1.7,4.985-2.017Z" fill="#f6ba00" stroke="#1a1311" stroke-width="1"/>
    <path id="Path_430" data-name="Path 430" d="M54.779,206.721a2.292,2.292,0,0,0,3.344-.619,2.233,2.233,0,0,0-.7-3.4,4.145,4.145,0,0,0-2.875-.574l-.165-2.93a6.41,6.41,0,0,1,5.013,1.164c2.444,1.609,3.645,4.243,1.471,7.543a5.239,5.239,0,0,1-7.445,1.286,6.4,6.4,0,0,1-2.841-3.873l2.765-1.16a3.375,3.375,0,0,0,1.432,2.559" fill="#f6ba00" stroke="#1a1311" stroke-width="1"/>
    <path id="Path_431" data-name="Path 431" d="M43.525,197.429l4.309-5.338a4.365,4.365,0,0,1,1.459.763,4.3,4.3,0,0,1,1.053,1.265l-3.686,4.569c-.453.562-.6.983.171,1.6a3.184,3.184,0,0,0,2.247.544l3.782-4.687a3.939,3.939,0,0,1,1.448.778,3.845,3.845,0,0,1,1.066,1.25l-8.842,10.957L44.018,207.1l3.258-4.036a5.138,5.138,0,0,1-3.443-1.118c-1.45-1.17-1.656-2.851-.308-4.521" fill="#f6ba00" stroke="#1a1311" stroke-width="1"/>
    <path id="Path_432" data-name="Path 432" d="M36.628,188.72a8.549,8.549,0,0,1,1.161-.964l4.81,4.729a2.146,2.146,0,0,0-.613-2.547,5.172,5.172,0,0,0-2.685-1.281l.406-2.8A7.037,7.037,0,0,1,44.213,188a5.153,5.153,0,0,1,.039,7.712,4.958,4.958,0,0,1-7.336-.018c-2.318-2.278-2.353-4.871-.288-6.971m4.573,5.322-2.736-2.69a1.692,1.692,0,0,0,.275,2.376,2.13,2.13,0,0,0,2.461.314" fill="#f6ba00" stroke="#1a1311" stroke-width="1"/>
    <path id="Path_433" data-name="Path 433" d="M31.214,185.4a2.289,2.289,0,0,0,3.38.363,2.229,2.229,0,0,0,.3-3.452,4.152,4.152,0,0,0-2.59-1.374l.682-2.852a6.409,6.409,0,0,1,4.469,2.549c1.88,2.243,2.276,5.109-.753,7.648a5.237,5.237,0,0,1-7.5-.9,6.4,6.4,0,0,1-1.612-4.523l2.981-.318a3.371,3.371,0,0,0,.639,2.861" fill="#f6ba00" stroke="#1a1311" stroke-width="1"/>
    <path id="Path_434" data-name="Path 434" d="M28.576,169.287a4.111,4.111,0,0,1,1.424,1.4,5.193,5.193,0,0,1,.824,1.762L29,176.127l1.145.155,2.252-1.554a3.954,3.954,0,0,1,1.168,1.158,3.814,3.814,0,0,1,.666,1.5l-11.589,7.994-1.834-2.659,5.85-4.035-3.9-.47-2.244-3.253,5.329.732Z" fill="#f6ba00" stroke="#1a1311" stroke-width="1"/>
    <path id="Path_435" data-name="Path 435" d="M17.459,164.2a2.291,2.291,0,0,0,3.209,1.127,2.231,2.231,0,0,0,1.084-3.293,4.149,4.149,0,0,0-2.208-1.93l1.316-2.623a6.409,6.409,0,0,1,3.77,3.506c1.317,2.612,1.048,5.495-2.482,7.275a5.238,5.238,0,0,1-7.1-2.592,6.4,6.4,0,0,1-.535-4.775l2.975.372a3.377,3.377,0,0,0-.032,2.933" fill="#f6ba00" stroke="#1a1311" stroke-width="1"/>
    <path id="Path_436" data-name="Path 436" d="M12.321,150.544l6.4-2.484a4.405,4.405,0,0,1,.885,1.388,4.293,4.293,0,0,1,.284,1.623L14.412,153.2c-.673.262-1.008.555-.651,1.476a3.2,3.2,0,0,0,1.679,1.591l5.616-2.182a3.928,3.928,0,0,1,.869,1.4,3.852,3.852,0,0,1,.3,1.615L9.1,162.193l-1.17-3.011,4.836-1.879a5.137,5.137,0,0,1-2.429-2.685c-.675-1.736-.017-3.3,1.985-4.074" fill="#f6ba00" stroke="#1a1311" stroke-width="1"/>
    <path id="Path_437" data-name="Path 437" d="M10.7,139.548a8.571,8.571,0,0,1,1.487-.254l1.8,6.5a2.149,2.149,0,0,0,.742-2.513,5.171,5.171,0,0,0-1.686-2.451l1.751-2.221a7.039,7.039,0,0,1,2.834,4.1,5.154,5.154,0,0,1-3.82,6.7,4.958,4.958,0,0,1-6.346-3.682c-.869-3.131.395-5.394,3.234-6.183m1.3,6.9-1.026-3.7a1.693,1.693,0,0,0-.95,2.195,2.132,2.132,0,0,0,1.976,1.5" fill="#f6ba00" stroke="#1a1311" stroke-width="1"/>
    <path id="Path_438" data-name="Path 438" d="M7.668,133.975a2.29,2.29,0,0,0,2.746,2,2.229,2.229,0,0,0,1.987-2.838,4.15,4.15,0,0,0-1.555-2.484l2.015-2.13a6.4,6.4,0,0,1,2.6,4.442c.508,2.881-.582,5.561-4.474,6.246a5.236,5.236,0,0,1-6.044-4.528,6.4,6.4,0,0,1,.866-4.724l2.74,1.215a3.375,3.375,0,0,0-.877,2.8" fill="#f6ba00" stroke="#1a1311" stroke-width="1"/>
    <path id="Path_439" data-name="Path 439" d="M13.445,118.688a4.1,4.1,0,0,1,.535,1.92,5.2,5.2,0,0,1-.17,1.938l-3.42,2.274.914.709,2.727-.218a3.965,3.965,0,0,1,.432,1.585,3.844,3.844,0,0,1-.174,1.634L.257,129.65,0,126.43l7.082-.564L3.939,123.5l-.314-3.938,4.247,3.3Z" fill="#f6ba00" stroke="#1a1311" stroke-width="1"/>
    <path id="Path_440" data-name="Path 440" d="M6.356,108.726A2.288,2.288,0,0,0,8.573,111.3a2.231,2.231,0,0,0,2.582-2.312,4.157,4.157,0,0,0-.952-2.773l2.446-1.616a6.393,6.393,0,0,1,1.518,4.915c-.158,2.921-1.828,5.283-5.773,5.067A5.236,5.236,0,0,1,3.536,108.8a6.39,6.39,0,0,1,1.916-4.4L7.844,106.2a3.366,3.366,0,0,0-1.488,2.524" fill="#f6ba00" stroke="#1a1311" stroke-width="1"/>
    <path id="Path_441" data-name="Path 441" d="M8.714,94.316l6.78,1.035A4.365,4.365,0,0,1,15.57,97a4.315,4.315,0,0,1-.563,1.548l-5.8-.886c-.714-.11-1.15-.023-1.3.954a3.192,3.192,0,0,0,.661,2.216l5.955.909a3.961,3.961,0,0,1,.056,1.642,3.8,3.8,0,0,1-.545,1.551L.113,102.805.6,99.612l5.128.783a5.141,5.141,0,0,1-.767-3.538c.281-1.841,1.63-2.865,3.752-2.541" fill="#f6ba00" stroke="#1a1311" stroke-width="1"/>
    <path id="Path_442" data-name="Path 442" d="M12.768,83.985a8.515,8.515,0,0,1,1.416.519l-1.669,6.533a2.147,2.147,0,0,0,1.893-1.811,5.168,5.168,0,0,0-.243-2.963l2.622-1.055a7.026,7.026,0,0,1,.417,4.967,5.15,5.15,0,0,1-6.643,3.91,4.956,4.956,0,0,1-3.672-6.348c.8-3.147,3.025-4.48,5.879-3.752m-2.3,6.626.949-3.717A1.692,1.692,0,0,0,9.5,88.326a2.131,2.131,0,0,0,.965,2.285" fill="#f6ba00" stroke="#1a1311" stroke-width="1"/>
    <path id="Path_443" data-name="Path 443" d="M12.928,77.607a2.29,2.29,0,0,0,1.381,3.107,2.232,2.232,0,0,0,3.14-1.47,4.141,4.141,0,0,0-.111-2.93l2.811-.842a6.409,6.409,0,0,1,.036,5.147c-1,2.752-3.278,4.532-6.995,3.186a5.239,5.239,0,0,1-2.984-6.941A6.4,6.4,0,0,1,13.312,73.2l1.771,2.42a3.372,3.372,0,0,0-2.155,1.988" fill="#f6ba00" stroke="#1a1311" stroke-width="1"/>
    <path id="Path_444" data-name="Path 444" d="M25.544,67.273a4.108,4.108,0,0,1-.5,1.931,5.212,5.212,0,0,1-1.112,1.6l-4.1.266.439,1.069,2.472,1.172a3.963,3.963,0,0,1-.417,1.589,3.814,3.814,0,0,1-.966,1.329L8.647,70.2l1.382-2.919,6.42,3.042L14.9,66.709l1.692-3.571,2.035,4.979Z" fill="#f6ba00" stroke="#1a1311" stroke-width="1"/>
    <path id="Path_445" data-name="Path 445" d="M24.389,55.089a2.289,2.289,0,0,0,.631,3.34,2.228,2.228,0,0,0,3.39-.711,4.14,4.14,0,0,0,.565-2.876l2.928-.174a6.412,6.412,0,0,1-1.145,5.015c-1.6,2.449-4.228,3.658-7.536,1.5a5.238,5.238,0,0,1-1.312-7.438,6.4,6.4,0,0,1,3.863-2.853l1.168,2.76a3.368,3.368,0,0,0-2.552,1.44" fill="#f6ba00" stroke="#1a1311" stroke-width="1"/>
    <path id="Path_446" data-name="Path 446" d="M33.621,43.814,38.975,48.1a4.37,4.37,0,0,1-.756,1.463,4.309,4.309,0,0,1-1.262,1.059l-4.583-3.668c-.564-.451-.985-.594-1.6.177a3.2,3.2,0,0,0-.534,2.249l4.7,3.763a3.958,3.958,0,0,1-.771,1.451,3.846,3.846,0,0,1-1.247,1.071l-10.99-8.8,2.018-2.522L28,47.586a5.135,5.135,0,0,1,1.1-3.447c1.164-1.453,2.843-1.667,4.519-.325" fill="#f6ba00" stroke="#1a1311" stroke-width="1"/>
    <path id="Path_447" data-name="Path 447" d="M42.323,36.866a8.651,8.651,0,0,1,.967,1.158l-4.712,4.827a2.147,2.147,0,0,0,2.545-.622A5.178,5.178,0,0,0,42.4,39.54l2.8.4a7.033,7.033,0,0,1-2.123,4.513,5.154,5.154,0,0,1-7.712.065,4.958,4.958,0,0,1-.007-7.336c2.27-2.325,4.863-2.37,6.971-.313m-5.307,4.592L39.7,38.712A1.693,1.693,0,0,0,37.323,39a2.128,2.128,0,0,0-.307,2.462" fill="#f6ba00" stroke="#1a1311" stroke-width="1"/>
    <path id="Path_448" data-name="Path 448" d="M45.618,31.438a2.29,2.29,0,0,0-.351,3.382,2.232,2.232,0,0,0,3.455.29,4.153,4.153,0,0,0,1.364-2.6l2.855.671a6.4,6.4,0,0,1-2.532,4.481c-2.235,1.889-5.1,2.295-7.651-.722a5.239,5.239,0,0,1,.871-7.505,6.4,6.4,0,0,1,4.517-1.631l.33,2.981a3.367,3.367,0,0,0-2.858.65" fill="#f6ba00" stroke="#1a1311" stroke-width="1"/>
    <path id="Path_449" data-name="Path 449" d="M61.717,28.742a4.109,4.109,0,0,1-1.389,1.429A5.219,5.219,0,0,1,58.569,31l-3.688-1.809L54.73,30.34l1.562,2.246a3.972,3.972,0,0,1-1.151,1.172,3.854,3.854,0,0,1-1.5.672L45.6,22.875l2.651-1.845,4.058,5.832.455-3.9L56.009,20.7,55.3,26.034Z" fill="#f6ba00" stroke="#1a1311" stroke-width="1"/>
    <path id="Path_450" data-name="Path 450" d="M66.765,17.609a2.291,2.291,0,0,0-1.116,3.213,2.231,2.231,0,0,0,3.3,1.072,4.15,4.15,0,0,0,1.922-2.215L73.5,20.986A6.407,6.407,0,0,1,70,24.768c-2.609,1.327-5.492,1.068-7.285-2.455a5.24,5.24,0,0,1,2.567-7.107,6.4,6.4,0,0,1,4.773-.553L69.7,17.63a3.376,3.376,0,0,0-2.933-.021" fill="#f6ba00" stroke="#1a1311" stroke-width="1"/>
    <path id="Path_451" data-name="Path 451" d="M80.4,12.424,82.9,18.808a4.39,4.39,0,0,1-1.385.89,4.292,4.292,0,0,1-1.621.29l-2.146-5.464c-.264-.672-.558-1.006-1.477-.645a3.181,3.181,0,0,0-1.585,1.684l2.2,5.6a3.931,3.931,0,0,1-1.391.873,3.832,3.832,0,0,1-1.615.308L68.74,9.244l3.006-1.18,1.9,4.828a5.134,5.134,0,0,1,2.676-2.439c1.732-.68,3.295-.028,4.08,1.971" fill="#f6ba00" stroke="#1a1311" stroke-width="1"/>
    <path id="Path_452" data-name="Path 452" d="M91.375,10.755a8.46,8.46,0,0,1,.26,1.485l-6.489,1.831a2.149,2.149,0,0,0,2.516.732,5.158,5.158,0,0,0,2.441-1.7l2.229,1.74a7.032,7.032,0,0,1-4.09,2.851,5.152,5.152,0,0,1-6.714-3.79,4.956,4.956,0,0,1,3.653-6.359c3.125-.882,5.394.373,6.194,3.206m-6.887,1.332,3.691-1.042a1.691,1.691,0,0,0-2.2-.938,2.126,2.126,0,0,0-1.493,1.98" fill="#f6ba00" stroke="#1a1311" stroke-width="1"/>
    <path id="Path_453" data-name="Path 453" d="M96.986,7.7a2.29,2.29,0,0,0-2,2.752,2.231,2.231,0,0,0,2.847,1.98,4.14,4.14,0,0,0,2.48-1.565l2.137,2.012a6.405,6.405,0,0,1-4.436,2.61c-2.881.518-5.566-.564-6.264-4.456a5.24,5.24,0,0,1,4.512-6.062,6.4,6.4,0,0,1,4.729.851L99.787,8.563a3.367,3.367,0,0,0-2.8-.868" fill="#f6ba00" stroke="#1a1311" stroke-width="1"/>
    <path id="Path_454" data-name="Path 454" d="M112.266,13.419a4.107,4.107,0,0,1-1.92.542,5.214,5.214,0,0,1-1.939-.161l-2.287-3.412-.706.917.229,2.726a3.962,3.962,0,0,1-1.584.438,3.828,3.828,0,0,1-1.636-.168L101.247.27l3.22-.27.593,7.082,2.349-3.152,3.938-.33-3.285,4.26Z" fill="#f6ba00" stroke="#1a1311" stroke-width="1"/>
  </g>
</svg>
