<svg xmlns="http://www.w3.org/2000/svg" xmlns:xlink="http://www.w3.org/1999/xlink" width="110" height="110" viewBox="0 0 110 110">
  <defs>
    <clipPath id="clip-path">
      <rect id="Rectangle_18" data-name="Rectangle 18" width="30.646" height="30.14" fill="none"/>
    </clipPath>
  </defs>
  <g id="clock" transform="translate(-1091 -1407)">
    <g id="Ellipse_7" data-name="Ellipse 7" transform="translate(1091 1407)" fill="#fff" stroke="#1a1311" stroke-width="2">
      <circle cx="55" cy="55" r="55" stroke="none"/>
      <circle cx="55" cy="55" r="54" fill="none"/>
    </g>
    <g id="Ellipse_4" data-name="Ellipse 4" transform="translate(1097 1413)" fill="#fff" stroke="#1a1311" stroke-width="3">
      <circle cx="49" cy="49" r="49" stroke="none"/>
      <circle cx="49" cy="49" r="47.5" fill="none"/>
    </g>
    <g id="Group_18" data-name="Group 18" transform="translate(1138 1442.86)">
      <g id="Group_17" data-name="Group 17" transform="translate(0 0)" clip-path="url(#clip-path)">
        <path id="Path_259" data-name="Path 259" d="M5.351,0a13.758,13.758,0,0,1,.983,2.393C7.677,8.834,9.027,15.276,10.21,21.749a9.762,9.762,0,0,1-.3,4.424,5.116,5.116,0,0,1-6.04,3.84c-2.4-.543-4.185-3.3-3.824-6.152.294-2.329.784-4.635,1.188-6.95.808-4.63,1.6-9.264,2.434-13.89.177-.975.5-1.924.748-2.885L5.351,0" transform="translate(0 0)" fill="#00579d"/>
        <path id="Path_260" data-name="Path 260" d="M25.6,14.213c-.476.51-.71.993-1.066,1.109-5.427,1.754-10.863,3.483-16.317,5.149a5.192,5.192,0,0,1-1.884-.188,4.042,4.042,0,0,1,.018-1.262,9.026,9.026,0,0,0,.306-5.775c-.38-1.513.13-2.016,1.711-2.046a4.89,4.89,0,0,1,.84.079c5,.761,9.994,1.518,14.988,2.306a6.715,6.715,0,0,1,1.4.627" transform="translate(5.049 8.993)" fill="#cb0011"/>
      </g>
    </g>
    <g id="Group_19" data-name="Group 19">
      <circle id="Ellipse_5" data-name="Ellipse 5" cx="3" cy="3" r="3" transform="translate(1143 1418)" fill="#1a1311"/>
      <circle id="Ellipse_6" data-name="Ellipse 6" cx="3" cy="3" r="3" transform="translate(1143 1500)" fill="#1a1311"/>
    </g>
    <g id="Group_20" data-name="Group 20" transform="translate(-316 2608) rotate(-90)">
      <circle id="Ellipse_5-2" data-name="Ellipse 5" cx="3" cy="3" r="3" transform="translate(1143 1418)" fill="#1a1311"/>
      <circle id="Ellipse_6-2" data-name="Ellipse 6" cx="3" cy="3" r="3" transform="translate(1143 1500)" fill="#1a1311"/>
    </g>
  </g>
</svg>
