<svg xmlns="http://www.w3.org/2000/svg" xmlns:xlink="http://www.w3.org/1999/xlink" width="86" height="86" viewBox="0 0 86 86">
  <defs>
    <clipPath id="clip-path">
      <rect id="Rectangle_111" data-name="Rectangle 111" width="38.058" height="58.375" fill="none"/>
    </clipPath>
  </defs>
  <g id="cookie03" transform="translate(-757 -3620)">
    <g id="Rectangle_68" data-name="Rectangle 68" transform="translate(757 3620)" fill="#fff" stroke="#1a1311" stroke-width="3">
      <rect width="86" height="86" rx="10" stroke="none"/>
      <rect x="1.5" y="1.5" width="83" height="83" rx="8.5" fill="none"/>
    </g>
    <g id="Group_2194" data-name="Group 2194" transform="translate(782.508 3633.921)">
      <g id="Group_2193" data-name="Group 2193" clip-path="url(#clip-path)">
        <path id="Path_4296" data-name="Path 4296" d="M10.05,5.847c.2.093.291.145.389.181,1.307.489,2.623.955,3.92,1.47q2.218.877,4.406,1.823c2.01.872,4.018,1.749,6,2.68,1.088.512,2.128,1.124,3.175,1.715q2.017,1.142,4.012,2.325c.886.526,1.756,1.078,2.62,1.639.112.073.146.267.216.4a1.272,1.272,0,0,1-.451.141,1.28,1.28,0,0,1-.468-.2c-1.4-.759-2.8-1.51-4.181-2.288-1.049-.589-2.083-1.2-3.111-1.826a48.749,48.749,0,0,0-5.258-2.588c-1.562-.712-3.118-1.438-4.7-2.119-1-.434-2.042-.8-3.063-1.192s-2.038-.8-3.06-1.195q-.932-.357-1.878-.683a3.107,3.107,0,0,0-.63-.129.835.835,0,0,0-.982.546C6.655,7.5,6.279,8.437,5.975,9.4c-.2.638-.093.775.556.968,1.318.391,2.646.751,3.961,1.148a32.819,32.819,0,0,1,4.045,1.5c1.683.761,3.417,1.4,5.125,2.109a4.232,4.232,0,0,1,1.035.518,21.6,21.6,0,0,0,3.1,1.7c1.294.721,2.622,1.384,3.9,2.133,1.5.877,2.966,1.818,4.443,2.738a4.719,4.719,0,0,1,.456.367c-.184.324-.382.222-.546.142-.348-.169-.688-.354-1.021-.55-1.352-.792-2.69-1.611-4.055-2.38-1.442-.81-2.908-1.578-4.367-2.357-1.039-.553-2.058-1.155-3.135-1.627-1.768-.779-3.593-1.431-5.362-2.209a44.506,44.506,0,0,0-4.837-1.77c-.591-.184-1.2-.308-1.892-.48a14.864,14.864,0,0,0,.536,9.195,15.087,15.087,0,0,0,5.8,7.184c-.188.382-.362.721-.523,1.068-1.56,3.35-3.107,6.708-4.681,10.053C7.255,41.534,5.951,44.2,4.676,46.877q-2.284,4.8-4.55,9.614c-.209.442-.166.686.205.872.654.326,1.315.644,2,.9.616.234.843.089,1.114-.5.93-2.009,1.846-4.024,2.808-6.017C8.456,47.187,10.7,42.639,12.9,38.07c.858-1.781,1.639-3.6,2.463-5.4.5-1.092,1.018-2.177,1.55-3.31Q27.22,32.4,34.259,24.177c.217.154.44.309.659.47a1.118,1.118,0,0,0,1.8-.3,8.043,8.043,0,0,0,1.267-2.867,1.7,1.7,0,0,0-.664-1.878c-.262-.218-.544-.412-.851-.643A14.02,14.02,0,0,0,34.641,6.937,14.039,14.039,0,0,0,26.9.828,15.121,15.121,0,0,0,10.05,5.847M2.509,57.21,1.1,56.543C5.564,47.078,10,37.662,14.469,28.2l1.659.836c-.624,1.277-1.209,2.5-1.81,3.7-.92,1.846-1.886,3.67-2.77,5.533-1.437,3.028-2.807,6.087-4.239,9.118C6.2,49.736,5.041,52.064,3.9,54.4c-.442.9-.894,1.806-1.391,2.809M17.56,27.922c-.839-.382-1.709-.71-2.512-1.157a12.185,12.185,0,0,1-6.427-8.8,10.807,10.807,0,0,1-.057-3.4,3.817,3.817,0,0,1,.208-.809.351.351,0,0,1,.287-.178.363.363,0,0,1,.228.257,2.323,2.323,0,0,1-.023.575,11.234,11.234,0,0,0,4.163,10.305,14.409,14.409,0,0,0,9.39,3.206,1.176,1.176,0,0,1,.444.014.5.5,0,0,1,.239.328c.014.086-.1.223-.2.289a.594.594,0,0,1-.311.049,18.721,18.721,0,0,1-5.434-.682M30.193,5.175a3.229,3.229,0,0,1-.571-.187,16.257,16.257,0,0,0-7.078-1.945,14.958,14.958,0,0,0-5.226.523,4.58,4.58,0,0,0-2.589,1.581c-.216.3-.464.334-.658.176a.458.458,0,0,1,0-.688,6.025,6.025,0,0,1,.976-.921,7.213,7.213,0,0,1,2.847-1.147,18.025,18.025,0,0,1,9.458.623A8.436,8.436,0,0,1,29.8,4.454c.193.147.45.272.395.721m5.492,15.953.02.009c-.193.452-.376.91-.585,1.355-.095.2-.2.509-.5.347-.258-.14-.066-.371.013-.562.2-.5.4-.993.59-1.492.092-.241.142-.5.256-.727.052-.1.216-.146.329-.217.055.124.178.258.156.366a9.015,9.015,0,0,1-.28.923M8.242,7.51l-.484,1.8c-.455-.489-.185-.891-.121-1.267a4.5,4.5,0,0,1,.257-.729l.348.19M31.073,6.132c.113-.359.28-.436.529-.354a.323.323,0,0,1,.255.436.478.478,0,0,1-.594.236c-.111-.074-.154-.252-.19-.318" transform="translate(-0.001 0)" fill="#1a1311"/>
      </g>
    </g>
  </g>
</svg>
