<svg xmlns="http://www.w3.org/2000/svg" xmlns:xlink="http://www.w3.org/1999/xlink" width="86" height="86" viewBox="0 0 86 86">
  <defs>
    <clipPath id="clip-path">
      <rect id="Rectangle_70" data-name="Rectangle 70" width="60.69" height="54.126" fill="none"/>
    </clipPath>
  </defs>
  <g id="cookie02" transform="translate(-757 -3620)">
    <g id="Rectangle_68" data-name="Rectangle 68" transform="translate(757 3620)" fill="#fff" stroke="#1a1311" stroke-width="3">
      <rect width="86" height="86" rx="10" stroke="none"/>
      <rect x="1.5" y="1.5" width="83" height="83" rx="8.5" fill="none"/>
    </g>
    <g id="Group_2195" data-name="Group 2195" transform="translate(769.235 3635.937)">
      <g id="Group_73" data-name="Group 73" transform="translate(0 0.001)" clip-path="url(#clip-path)">
        <path id="Path_359" data-name="Path 359" d="M33.522,5.944a4.78,4.78,0,0,1,2.43-1.317,9.641,9.641,0,0,1,4.85.4,3.675,3.675,0,0,1,.721.413c3.8,2.524,7.576,5.079,11.4,7.569,2,1.305,4.089,2.484,6.121,3.748a3.077,3.077,0,0,1,1.644,2.889c-.079,1.272-.289,2.536-.379,3.807-.114,1.634-.164,3.273-.242,4.908a8.471,8.471,0,0,1-.043,1,12,12,0,0,0-.112,3.493c.325,2.647-.915,4.479-3,5.9-.273.187-.527.409-.809.58a4.821,4.821,0,0,1-1.156.61c-1.529.412-3.074.753-4.609,1.144-1.077.275-2.159.541-3.211.894-1.7.57-3.483.723-5.209,1.14-1.616.39-3.234.8-4.807,1.334-1.737.584-3.418,1.336-5.138,1.97-1.825.674-3.67,1.288-5.5,1.943-1.493.533-2.974,1.1-4.468,1.625-.628.22-1.284.364-1.919.566-2.465.78-4.925,1.58-7.394,2.35-.554.174-1.14.242-1.7.386a15.553,15.553,0,0,0-1.59.478,3.849,3.849,0,0,1-2.358.268c-.584-.144-1.228-.056-1.808-.212a5.217,5.217,0,0,1-3.774-3.1,12.368,12.368,0,0,1-1-4.6C.43,44.716.135,43.312.036,41.9c-.071-.995-.016-2-.013-3,0-.417.024-.835.023-1.251a3.806,3.806,0,0,1,1.461-3.125C2.686,33.554,3.8,32.5,4.94,31.48Q12,25.161,19.065,18.847a2.565,2.565,0,0,0,.91-1.606,20.8,20.8,0,0,1,1.33-4.38,21.6,21.6,0,0,0,.671-2.4c.043-.161.059-.331.112-.488.728-2.186,1.423-4.384,2.211-6.549A17.212,17.212,0,0,1,25.579.908,1.637,1.637,0,0,1,27.32.017c.3.039.613.013.917.046a1.332,1.332,0,0,1,.64.16c1.039.8,2.218,1.4,2.792,2.742a22.554,22.554,0,0,0,1.852,2.979M19.658,20.363c-.187.138-.327.225-.448.332-2.955,2.624-5.9,5.259-8.863,7.873-2.671,2.356-5.366,4.683-8.038,7.037a2.21,2.21,0,0,0-.515.74c-.3.668-.069,1,.681.977a4.578,4.578,0,0,0,1.051-.2c.374-.1.731-.271,1.1-.376Q30.812,29.336,57,21.926a3.2,3.2,0,0,0,2.142-1.956,1.335,1.335,0,0,0-.409-1.654,8.728,8.728,0,0,0-.928-.708c-2.658-1.779-5.3-3.588-7.991-5.315q-4.672-3-9.424-5.862a5.292,5.292,0,0,0-5.046-.043,4.271,4.271,0,0,0-.9.715c.279.586.525,1.111.78,1.634.767,1.573,1.494,3.169,2.319,4.711a11.267,11.267,0,0,1,1.324,4.267A2.589,2.589,0,0,1,38.2,19.8a9.856,9.856,0,0,1-3.686,2.782c-.623.239-1.271.42-1.877.7a4.134,4.134,0,0,1-2.441.292,5.747,5.747,0,0,0-3.508.409,4.3,4.3,0,0,1-2.447.315c-.3-.035-.606-.111-.91-.121A3.039,3.039,0,0,1,20.374,21.9c-.186-.514-.461-.995-.717-1.541M2.195,48.8a7.485,7.485,0,0,0,2.514,3.309,4.218,4.218,0,0,0,4.414.419,12.4,12.4,0,0,1,1.885-.633c.344-.107.7-.17,1.048-.272q4.322-1.263,8.641-2.539c.505-.15,1-.35,1.49-.538.6-.229,1.183-.489,1.786-.7,2.548-.884,5.107-1.734,7.647-2.637,1.518-.54,3.04-1.09,4.509-1.75a24.407,24.407,0,0,1,4.95-1.448,57.522,57.522,0,0,0,6.812-1.59c.577-.2,1.169-.363,1.76-.512,1.534-.387,3.083-.723,4.607-1.144a5.907,5.907,0,0,0,4.2-6.537,5.425,5.425,0,0,0-2.159.524c-1.647.507-3.315.96-4.927,1.564-3.414,1.281-6.919,2.261-10.412,3.284a3.765,3.765,0,0,1-.735.148,30.765,30.765,0,0,0-4.78.7,37.9,37.9,0,0,0-3.862,1.029c-1.8.658-3.529,1.493-5.3,2.212a17.985,17.985,0,0,1-3.866,1.264c-1.721.282-3.425.7-5.114,1.154-2.333.622-4.643,1.331-6.966,1.993-.481.137-.989.181-1.459.344C6.67,47.2,4.478,47.99,2.195,48.8M59.3,22.593c-.2.114-.328.2-.471.271a15.23,15.23,0,0,1-2.123.951Q31.5,30.973,6.29,38.091a18.23,18.23,0,0,1-4.377.879A4.821,4.821,0,0,0,1.488,42.5c.92-.2,1.851-.361,2.763-.6a25.125,25.125,0,0,0,3.673-1.061,11.777,11.777,0,0,1,4.783-.925,5.61,5.61,0,0,0,2.579-.561,22.141,22.141,0,0,1,2.453-1.041c1.1-.391,2.218-.728,3.336-1.059.823-.245,1.661-.443,2.493-.659.371-.1.75-.17,1.117-.281.318-.1.623-.236.936-.35,1.069-.389,2.143-.764,3.208-1.163a28.092,28.092,0,0,1,4.266-1.393c2.34-.474,4.67-1.01,6.976-1.626,2.038-.544,4.042-1.218,6.051-1.862,1.189-.381,2.372-.786,3.533-1.241,1.654-.648,3.266-1.409,4.934-2.015A28.912,28.912,0,0,1,58.612,25.1a.7.7,0,0,0,.462-.406,5.053,5.053,0,0,0,.222-2.106M39.721,36.938c-1.059-.891-2-1.628-2.874-2.437a1.651,1.651,0,0,0-1.631-.471,40.4,40.4,0,0,0-5.641,1.47c-.687.245-1.364.517-2.145.813.649.34,1.18.579,1.672.881.659.407.658.55.177,1.167-.377.484-.737.982-1.105,1.472l.138.178c.682-.284,1.367-.563,2.048-.853.255-.108.488-.272.748-.358a34.988,34.988,0,0,1,7.964-1.731c.158-.013.314-.062.648-.131m9.941-7.371c-1.439.489-2.851.961-4.256,1.457a.876.876,0,0,0-.407.368c-.851,1.429-1.687,2.866-2.523,4.3-.1.177-.171.373-.305.666,2.825-.71,5.456-1.6,8.073-2.464a12.456,12.456,0,0,0-.581-4.331M13.532,40.749a4.94,4.94,0,0,0,1.154.77,7.032,7.032,0,0,1,2.258,1.367.916.916,0,0,0,.841.219c1.349-.305,2.7-.589,4.145-.9.307-1.49.617-2.991.938-4.548a16.984,16.984,0,0,0-4.21,1.091c-1.683.63-3.346,1.3-5.127,2M10.773,41a2.458,2.458,0,0,0-1.734.345,8.893,8.893,0,0,1-2.637.98c-.925.173-1.831.443-2.743.678-.259.068-.512.163-.869.278.455.358.81.656,1.185.927A1,1,0,0,1,4.385,45.5a13.273,13.273,0,0,0-.358,1.573c1.651-.744,3.362-.648,4.814-1.53a1.206,1.206,0,0,1-.1-1.7c.364-.587.789-1.137,1.192-1.7.253-.356.517-.705.842-1.149M56.227,26.984a2.023,2.023,0,0,1,.455.236c.819.751.866,1.126.278,2.058-.088.141-.2.268-.291.4-.553.815-1.1,1.631-1.763,2.605l3.752-1.172a30.4,30.4,0,0,0,.3-5.168c-.9.266-1.87.19-2.733,1.036M34.5,16.078c.543,0,.764-.166.784-.518s-.2-.581-.619-.649a2.227,2.227,0,0,0-.416-.012.535.535,0,0,0-.59.471.575.575,0,0,0,.427.636,1.928,1.928,0,0,0,.413.072m-4.93.78a.841.841,0,0,0-.806-.79.58.58,0,0,0-.563.594.8.8,0,0,0,.8.786.591.591,0,0,0,.571-.59m2.47,3.906c.331.006.619-.079.694-.448.056-.281-.343-.649-.714-.688a.6.6,0,0,0-.681.561.668.668,0,0,0,.7.574m-5.446-13a1.43,1.43,0,0,0-.479-.3.637.637,0,0,0-.687.651.506.506,0,0,0,.52.527c.309.02.645-.379.646-.879M24.357,18.924a.577.577,0,0,0-.586.564.663.663,0,0,0,.674.59.505.505,0,0,0,.528-.514.629.629,0,0,0-.616-.64m6.271-8.177a.563.563,0,0,0-.642.489.6.6,0,0,0,.642.5.559.559,0,0,0,.6-.458c.063-.259-.246-.521-.6-.535m-5.4,1.788a.505.505,0,0,0-.462.569.471.471,0,0,0,.566.453c.308-.024.528-.17.531-.5a.606.606,0,0,0-.635-.518M29.3,3.125a2.973,2.973,0,0,0-.449.715c-.062.243.132.4.4.406.307.006.707-.312.615-.521s-.3-.335-.561-.6" transform="translate(0 -0.001)" fill="#1a1311"/>
        <path id="Path_360" data-name="Path 360" d="M24.7,5.675c.227-.252.337-.45.505-.541a2.592,2.592,0,0,1,1-.386,5.827,5.827,0,0,1,3.368.564c2.094,1.176,3.85,2.834,5.946,3.991.7.389,1.428.744,2.116,1.16,1.019.615,2.009,1.277,3.022,1.9.353.219.734.39,1.1.587.235.127.439.309.325.594-.135.343-.427.311-.7.167-.76-.4-1.521-.8-2.267-1.228-.865-.5-1.717-1.012-2.565-1.533a49.551,49.551,0,0,1-4.978-3.338A26.588,26.588,0,0,0,28.579,5.66a2.808,2.808,0,0,0-1.046-.18,2.977,2.977,0,0,0-2.254.288c-.083.059-.282-.04-.579-.094" transform="translate(10.85 2.073)" fill="#1a1311"/>
        <path id="Path_361" data-name="Path 361" d="M7,24.68c-.416,0-.835.024-1.248-.014-.125-.012-.34-.217-.325-.3a.693.693,0,0,1,.308-.413.858.858,0,0,1,.486-.068,10.778,10.778,0,0,0,3.21-.41,3.786,3.786,0,0,0,1.159-.438,16.745,16.745,0,0,1,3.664-1.579c1.507-.484,3.01-.982,4.519-1.458a2.415,2.415,0,0,1,.894-.134.68.68,0,0,1,.455.377c.039.092-.144.376-.285.432a27.68,27.68,0,0,1-2.654.977A24.967,24.967,0,0,0,11.058,24a2.454,2.454,0,0,1-.839.354c-1.065.177-2.137.309-3.207.459L7,24.68" transform="translate(2.383 8.724)" fill="#1a1311"/>
        <path id="Path_362" data-name="Path 362" d="M20.677,18.943a8.674,8.674,0,0,1,.954-.157,11.5,11.5,0,0,0,4.581-1.127,5.688,5.688,0,0,1,1.649-.56,4.2,4.2,0,0,0,2.89-2.058,5.478,5.478,0,0,1,.692-.823.449.449,0,0,1,.674-.012.487.487,0,0,1,.036.682A10.19,10.19,0,0,1,29.99,17.4a2.95,2.95,0,0,1-1.77.651,3.924,3.924,0,0,0-1.893.558,9.666,9.666,0,0,1-4.145,1.151,3.324,3.324,0,0,1-1.062-.14c-.2-.059-.354-.272-.528-.415l.086-.261" transform="translate(9.045 6.176)" fill="#1a1311"/>
        <path id="Path_363" data-name="Path 363" d="M42.788,13.992a4.077,4.077,0,0,1-.511.8,3.57,3.57,0,0,1-1.772.868q-3.18.667-6.347,1.386a9.568,9.568,0,0,0-1.163.439,1.6,1.6,0,0,1-.623.191.674.674,0,0,1-.505-.32.6.6,0,0,1,.222-.543,4.888,4.888,0,0,1,1.3-.545c1.976-.452,3.964-.849,5.941-1.294a10.517,10.517,0,0,0,1.9-.577c.586-.255.629-.482.426-1.069-.053-.157-.184-.3-.207-.45a1.913,1.913,0,0,1,.062-.52c.174.046.438.039.507.15.285.463.511.961.774,1.48" transform="translate(13.994 5.43)" fill="#1a1311"/>
        <path id="Path_364" data-name="Path 364" d="M37.991,12.145c-.275-.046-.6-.069-.638-.471-.026-.279.279-.479.656-.452s.648.249.612.53c-.043.356-.3.42-.63.393" transform="translate(16.408 4.928)" fill="#1a1311"/>
        <path id="Path_365" data-name="Path 365" d="M46.433,24.812c.107.088.322.187.39.35.035.085-.16.357-.3.41-1.2.446-2.389.905-3.61,1.274-1.675.505-3.372.934-5.061,1.4q-2.608.717-5.216,1.438c-.294.082-.592.154-.879.253a33.636,33.636,0,0,1-4,1.161c-1.9.4-3.759.969-5.636,1.468-.107.029-.222.131-.308.108a.81.81,0,0,1-.449-.249c-.047-.069.071-.314.177-.4a1.081,1.081,0,0,1,.461-.164c1.3-.305,2.608-.557,3.889-.917,1.79-.5,3.555-1.094,5.335-1.634q2.589-.784,5.187-1.539c1.307-.38,2.627-.712,3.931-1.1,1.861-.56,3.712-1.154,5.569-1.733.131-.04.269-.062.517-.117" transform="translate(9.382 10.899)" fill="#1a1311"/>
      </g>
    </g>
  </g>
</svg>
