<svg xmlns="http://www.w3.org/2000/svg" xmlns:xlink="http://www.w3.org/1999/xlink" width="86" height="86" viewBox="0 0 86 86">
  <defs>
    <clipPath id="clip-path">
      <rect id="Rectangle_110" data-name="Rectangle 110" width="34.439" height="67.397" fill="none"/>
    </clipPath>
  </defs>
  <g id="cookie01" transform="translate(-757 -3620)">
    <g id="Rectangle_68" data-name="Rectangle 68" transform="translate(757 3620)" fill="#fff" stroke="#1a1311" stroke-width="3">
      <rect width="86" height="86" rx="10" stroke="none"/>
      <rect x="1.5" y="1.5" width="83" height="83" rx="8.5" fill="none"/>
    </g>
    <g id="Group_2196" data-name="Group 2196" transform="translate(774.007 3633.41) rotate(-9)">
      <g id="Group_2191" data-name="Group 2191" transform="translate(0 0)" clip-path="url(#clip-path)">
        <path id="Path_4294" data-name="Path 4294" d="M23.694,1.79a6.111,6.111,0,0,0-3.9-1.776,18.433,18.433,0,0,0-3.1.214,7.677,7.677,0,0,1-2.5.133,1.29,1.29,0,0,0-.58.059c-2.6.718-5.2,1.419-7.788,2.18a7.07,7.07,0,0,0-4.278,3,9.9,9.9,0,0,0-.963,8.689c.174.515.356,1.028.517,1.547Q4.278,26.114,7.448,36.392c.838,2.716,1.663,5.437,2.524,8.147a17.811,17.811,0,0,0,.974,2.481,7.613,7.613,0,0,0,2.924,3.275,2.953,2.953,0,0,0,2.414.417c.736-.214,1.466-.448,2.195-.678.869-.273,1.735-.554,2.669-.852.087.283.16.511.229.74,1.036,3.457,2.039,6.926,3.12,10.368A54.411,54.411,0,0,0,26.225,65.8a2.458,2.458,0,0,0,1.937,1.548,3.254,3.254,0,0,0,3.7-4.1c-.076-.207-.126-.425-.186-.64-1.3-4.59-2.482-9.217-4.124-13.7-.2-.551-.361-1.116-.558-1.733.45-.155.844-.285,1.233-.425a7.5,7.5,0,0,0,2.876-1.329c2.587-2.508,4.011-5.441,3.011-9.129q-3.429-12.634-6.9-25.258c-.508-1.859-1-3.722-1.525-5.579a7.734,7.734,0,0,0-2-3.663M3.642,12.046a5.04,5.04,0,0,1,.347-1.577A8.363,8.363,0,0,1,5.978,7.741a.844.844,0,0,1,1.2.033,1.2,1.2,0,0,1,.167,1.553q-1.069,1.55-2.151,3.09a2,2,0,0,1-.257.265c-.673.4-1.329.073-1.3-.635M26.394,48.141c.789,2.858,1.541,5.727,2.372,8.572.671,2.3,1.438,4.572,2.156,6.859a1.767,1.767,0,0,1,.106.575,2.2,2.2,0,0,1-1.673,1.866,1.819,1.819,0,0,1-2.16-.7,4.027,4.027,0,0,1-.508-1.059q-2.132-6.906-4.239-13.818c-.151-.49-.3-.981-.468-1.54l4.187-1.459c.086.264.167.482.228.7M29.8,30.3c.206.888.4,1.78.613,2.666.319,1.29.6,2.6,1,3.861a5.067,5.067,0,0,1-1.191,5.337c-.669.721-1.409,1.377-2.122,2.055a4.013,4.013,0,0,1-.417.308,2.447,2.447,0,0,1-1.794.243.71.71,0,0,1-.609-.66,2.371,2.371,0,0,1,.238-1.653,12.657,12.657,0,0,1,1.1-1.569,5.717,5.717,0,0,0,1.359-4.4,25.967,25.967,0,0,0-.747-3.542,5.3,5.3,0,0,1-.189-2.047,2.265,2.265,0,0,1,.888-1.569.784.784,0,0,1,.967-.066,1.848,1.848,0,0,1,.9,1.037m-1.921-2.427c-.859.443-1.776.354-2.073-.209a1.488,1.488,0,0,1,.472-2.12,1.2,1.2,0,0,1,1.815.465c.384.722.315,1.59-.214,1.863M24.807,12.379a3.247,3.247,0,0,1-.609,3.129,2.8,2.8,0,0,1-1,.591c-.522.218-1.079.351-1.6.562a2.215,2.215,0,0,0-1.532,2.43c.128,1.376.343,2.743.514,4.115a5.519,5.519,0,0,1,.05.739,1.954,1.954,0,0,1-1.5,1.959c-.166.047-.343.058-.506.112a1.726,1.726,0,0,0-1.073,1,4.341,4.341,0,0,0,.032,3.441q.8,2.468,1.577,4.941a4.842,4.842,0,0,1,.261,2.191,1.49,1.49,0,0,1-1.3,1.326,1.185,1.185,0,0,1-1.359-.66,19.84,19.84,0,0,1-1.572-3.909c-.153-.57-.377-1.123-.562-1.685-.163-.492-.293-1-.481-1.477a5.278,5.278,0,0,0-.637-1.316,9.209,9.209,0,0,1-1.254-2.751c-.772-2.267-1.5-4.55-2.174-6.847a1.394,1.394,0,0,0-1.888-1.108,5.834,5.834,0,0,1-2.787-.1,1.6,1.6,0,0,1-1.236-1.162.463.463,0,0,1,.09-.4.392.392,0,0,1,.388,0c.956,1.062,2.171.711,3.323.6a4.05,4.05,0,0,1,1.537.066,2.128,2.128,0,0,1,1.308.96c.349,1.13.721,2.254,1.046,3.392.372,1.305.635,2.646,1.076,3.927a15.508,15.508,0,0,0,1.294,2.655,9.556,9.556,0,0,1,.982,2.142c.456,1.588.954,3.167,1.511,4.723a8.12,8.12,0,0,0,.968,1.656.383.383,0,0,0,.685-.16,2.4,2.4,0,0,0,.021-1.019c-.184-.844-.413-1.68-.653-2.51-.348-1.21-.729-2.412-1.08-3.622-.109-.378-.151-.776-.244-1.159a4.871,4.871,0,0,1,.6-3.066c.225-.55.815-.761,1.336-.993a2.379,2.379,0,0,1,.289-.069c.855-.254,1.1-.572,1.028-1.453s-.215-1.765-.318-2.649c-.069-.587-.164-1.177-.177-1.767a3.218,3.218,0,0,1,1.869-3.257,14.067,14.067,0,0,1,1.794-.684A1.715,1.715,0,0,0,24,13.6c-.018-.344-.069-.688-.117-1.03-.043-.307.026-.559.352-.635.343-.079.506.159.572.443M23.434,7.808a4.1,4.1,0,0,1-.171,2.968,1.046,1.046,0,0,1-.992.649.936.936,0,0,1-1.058-.5A16.429,16.429,0,0,1,20.224,8.7,4.976,4.976,0,0,0,19.14,6.881a1.111,1.111,0,0,0-.972-.436,2.4,2.4,0,0,1-1.653-.514,2.527,2.527,0,0,0-1.1-.33c-.633-.084-1.275-.109-1.914-.145a3.641,3.641,0,0,0-.736.017c-.724.1-.873.059-1.116-.4a1.185,1.185,0,0,1,.149-1.442,2.653,2.653,0,0,1,2.9-.8,3.656,3.656,0,0,0,2.46-.2A5.385,5.385,0,0,1,20,2.638a2.883,2.883,0,0,1,1.449,1.214c.186.227.334.488.5.733L22,4.562c.483,1.08,1.012,2.144,1.438,3.246" transform="translate(0 0)" fill="#1a1311"/>
        <path id="Path_4295" data-name="Path 4295" d="M18.564,35.36c.141.4.257.7.351,1.01q1.844,6.025,3.678,12.051c.08.267.283.635-.122.765s-.453-.29-.537-.553q-1.97-6.178-3.926-12.362a5.47,5.47,0,0,1-.146-.575c-.048-.242,0-.485.272-.515.153-.017.326.131.43.178" transform="translate(6.804 13.412)" fill="#1a1311"/>
      </g>
    </g>
  </g>
</svg>
