<svg xmlns="http://www.w3.org/2000/svg" xmlns:xlink="http://www.w3.org/1999/xlink" width="1253.58" height="1966.033" viewBox="0 0 1253.58 1966.033">
  <defs>
    <clipPath id="clip-path">
      <rect width="1253.58" height="1966.033" fill="none"/>
    </clipPath>
    <clipPath id="clip-path-2">
      <rect id="Rectangle_120" data-name="Rectangle 120" width="32.224" height="23.096" transform="translate(0 0)" fill="none" stroke="#1a1311" stroke-width="1"/>
    </clipPath>
    <clipPath id="clip-path-8">
      <rect id="Rectangle_121" data-name="Rectangle 121" width="9.311" height="13.603" transform="translate(0 0)" fill="none" stroke="#1a1311" stroke-width="1"/>
    </clipPath>
    <clipPath id="clip-path-9">
      <rect id="Rectangle_121-2" data-name="Rectangle 121" width="9.311" height="13.603" fill="none" stroke="#1a1311" stroke-width="1"/>
    </clipPath>
    <clipPath id="clip-path-10">
      <rect id="Rectangle_122" data-name="Rectangle 122" width="30.211" height="12.15" transform="translate(0 0)" fill="none" stroke="#1a1311" stroke-width="1"/>
    </clipPath>
    <clipPath id="clip-path-13">
      <rect id="Rectangle_123" data-name="Rectangle 123" width="27.02" height="12.248" transform="translate(0 0)" fill="none" stroke="#1a1311" stroke-width="1"/>
    </clipPath>
  </defs>
  <g id="draw-camp" opacity="0.1" clip-path="url(#clip-path)">
    <g id="Group_2209" data-name="Group 2209" transform="translate(-13 -5138)">
      <g id="_" data-name="〜" transform="translate(667 5138)">
        <g id="Group_2199" data-name="Group 2199" clip-path="url(#clip-path-2)">
          <path id="Path_4552" data-name="Path 4552" d="M28.732,23.1a13.037,13.037,0,0,1-6.223-1.523c-3.362-1.821-5.774-5.156-7.167-9.912C14.152,7.6,12.127,4.788,9.326,3.314A12.31,12.31,0,0,0,.665,2.6L0,.6a14.275,14.275,0,0,1,10.285.836c3.339,1.747,5.723,4.989,7.084,9.635,1.229,4.2,3.3,7.106,6.146,8.648a11.607,11.607,0,0,0,8.1.918l.611,2.021a13.008,13.008,0,0,1-3.492.442" fill="#1a1311" stroke="#1a1311" stroke-width="1"/>
        </g>
      </g>
      <g id="_2" data-name="〜" transform="matrix(0.719, 0.695, -0.695, 0.719, 355.544, 5182.048)">
        <g id="Group_2199-2" data-name="Group 2199" clip-path="url(#clip-path-2)">
          <path id="Path_4552-2" data-name="Path 4552" d="M28.732,23.1a13.037,13.037,0,0,1-6.223-1.523c-3.362-1.821-5.774-5.156-7.167-9.912C14.152,7.6,12.127,4.788,9.326,3.314A12.31,12.31,0,0,0,.665,2.6L0,.6a14.275,14.275,0,0,1,10.285.836c3.339,1.747,5.723,4.989,7.084,9.635,1.229,4.2,3.3,7.106,6.146,8.648a11.607,11.607,0,0,0,8.1.918l.611,2.021a13.008,13.008,0,0,1-3.492.442" fill="#1a1311" stroke="#1a1311" stroke-width="1"/>
        </g>
      </g>
      <g id="_3" data-name="〜" transform="translate(248.357 5484.639) rotate(-73)">
        <g id="Group_2199-3" data-name="Group 2199" clip-path="url(#clip-path-2)">
          <path id="Path_4552-3" data-name="Path 4552" d="M28.732,23.1a13.037,13.037,0,0,1-6.223-1.523c-3.362-1.821-5.774-5.156-7.167-9.912C14.152,7.6,12.127,4.788,9.326,3.314A12.31,12.31,0,0,0,.665,2.6L0,.6a14.275,14.275,0,0,1,10.285.836c3.339,1.747,5.723,4.989,7.084,9.635,1.229,4.2,3.3,7.106,6.146,8.648a11.607,11.607,0,0,0,8.1.918l.611,2.021a13.008,13.008,0,0,1-3.492.442" fill="#1a1311" stroke="#1a1311" stroke-width="1"/>
        </g>
      </g>
      <g id="_4" data-name="〜" transform="translate(988.357 5280.639) rotate(-73)">
        <g id="Group_2199-4" data-name="Group 2199" clip-path="url(#clip-path-2)">
          <path id="Path_4552-4" data-name="Path 4552" d="M28.732,23.1a13.037,13.037,0,0,1-6.223-1.523c-3.362-1.821-5.774-5.156-7.167-9.912C14.152,7.6,12.127,4.788,9.326,3.314A12.31,12.31,0,0,0,.665,2.6L0,.6a14.275,14.275,0,0,1,10.285.836c3.339,1.747,5.723,4.989,7.084,9.635,1.229,4.2,3.3,7.106,6.146,8.648a11.607,11.607,0,0,0,8.1.918l.611,2.021a13.008,13.008,0,0,1-3.492.442" fill="#1a1311" stroke="#1a1311" stroke-width="1"/>
        </g>
      </g>
      <g id="_5" data-name="〜" transform="translate(1218.749 5438.333) rotate(-70)">
        <g id="Group_2199-5" data-name="Group 2199" clip-path="url(#clip-path-2)">
          <path id="Path_4552-5" data-name="Path 4552" d="M28.732,23.1a13.037,13.037,0,0,1-6.223-1.523c-3.362-1.821-5.774-5.156-7.167-9.912C14.152,7.6,12.127,4.788,9.326,3.314A12.31,12.31,0,0,0,.665,2.6L0,.6a14.275,14.275,0,0,1,10.285.836c3.339,1.747,5.723,4.989,7.084,9.635,1.229,4.2,3.3,7.106,6.146,8.648a11.607,11.607,0,0,0,8.1.918l.611,2.021a13.008,13.008,0,0,1-3.492.442" fill="#1a1311" stroke="#1a1311" stroke-width="1"/>
        </g>
      </g>
      <g id="_6" data-name="〜" transform="matrix(-0.956, 0.292, -0.292, -0.956, 847.896, 5506.243)">
        <g id="Group_2199-6" data-name="Group 2199" clip-path="url(#clip-path-2)">
          <path id="Path_4552-6" data-name="Path 4552" d="M28.732,23.1a13.037,13.037,0,0,1-6.223-1.523c-3.362-1.821-5.774-5.156-7.167-9.912C14.152,7.6,12.127,4.788,9.326,3.314A12.31,12.31,0,0,0,.665,2.6L0,.6a14.275,14.275,0,0,1,10.285.836c3.339,1.747,5.723,4.989,7.084,9.635,1.229,4.2,3.3,7.106,6.146,8.648a11.607,11.607,0,0,0,8.1.918l.611,2.021a13.008,13.008,0,0,1-3.492.442" fill="#1a1311" stroke="#1a1311" stroke-width="1"/>
        </g>
      </g>
      <g id="Group_2201" data-name="Group 2201" transform="translate(529 5445)">
        <g id="Group_2200" data-name="Group 2200" clip-path="url(#clip-path-8)">
          <path id="Path_4553" data-name="Path 4553" d="M9.158,13.6c-1.83-.126-5.364-1.685-5.638-6.688C3.284,2.613.335,2.14,0,2.1L.219,0C1.97.174,5.355,1.819,5.629,6.8c.234,4.28,3.33,4.668,3.682,4.7Z" fill="#1a1311" stroke="#1a1311" stroke-width="1"/>
        </g>
      </g>
      <g id="Group_2202" data-name="Group 2202" transform="translate(89 5225)">
        <g id="Group_2200-2" data-name="Group 2200" transform="translate(0 0)" clip-path="url(#clip-path-9)">
          <path id="Path_4553-2" data-name="Path 4553" d="M.153,13.6c1.83-.126,5.364-1.685,5.638-6.688.236-4.3,3.185-4.775,3.52-4.815L9.092,0C7.341.174,3.956,1.819,3.682,6.8,3.448,11.079.352,11.467,0,11.5Z" transform="translate(0 0)" fill="#1a1311" stroke="#1a1311" stroke-width="1"/>
        </g>
      </g>
      <g id="Group_2204" data-name="Group 2204" transform="translate(847 5165)">
        <g id="Group_2203" data-name="Group 2203" clip-path="url(#clip-path-10)">
          <path id="Path_4554" data-name="Path 4554" d="M16.8,12.15a8.412,8.412,0,0,1-3.292-.683C5.752,8.2,1.448,11.257,1.269,11.39L0,9.7c.217-.164,5.384-3.954,14.326-.181C21.81,12.679,28.262.128,28.327,0l1.884.953a31.5,31.5,0,0,1-4.669,6.6c-2.868,3.047-5.84,4.6-8.745,4.6" fill="#1a1311" stroke="#1a1311" stroke-width="1"/>
        </g>
      </g>
      <g id="Group_2205" data-name="Group 2205" transform="translate(13 5367)">
        <g id="Group_2203-2" data-name="Group 2203" clip-path="url(#clip-path-10)">
          <path id="Path_4554-2" data-name="Path 4554" d="M16.8,12.15a8.412,8.412,0,0,1-3.292-.683C5.752,8.2,1.448,11.257,1.269,11.39L0,9.7c.217-.164,5.384-3.954,14.326-.181C21.81,12.679,28.262.128,28.327,0l1.884.953a31.5,31.5,0,0,1-4.669,6.6c-2.868,3.047-5.84,4.6-8.745,4.6" fill="#1a1311" stroke="#1a1311" stroke-width="1"/>
        </g>
      </g>
      <g id="Group_2206" data-name="Group 2206" transform="translate(1236.369 5212.85)">
        <g id="Group_2203-3" data-name="Group 2203" clip-path="url(#clip-path-10)">
          <path id="Path_4554-3" data-name="Path 4554" d="M16.8,12.15a8.412,8.412,0,0,1-3.292-.683C5.752,8.2,1.448,11.257,1.269,11.39L0,9.7c.217-.164,5.384-3.954,14.326-.181C21.81,12.679,28.262.128,28.327,0l1.884.953a31.5,31.5,0,0,1-4.669,6.6c-2.868,3.047-5.84,4.6-8.745,4.6" fill="#1a1311" stroke="#1a1311" stroke-width="1"/>
        </g>
      </g>
      <g id="Group_2208" data-name="Group 2208" transform="translate(93.656 5495.98) rotate(112)">
        <g id="Group_2207" data-name="Group 2207" clip-path="url(#clip-path-13)">
          <path id="Path_4555" data-name="Path 4555" d="M21.751,12.248a9.1,9.1,0,0,1-1.852-.189c-2.766-.574-5.174-2.41-7.157-5.46-1.614-2.481-3.523-3.95-5.676-4.365a8.416,8.416,0,0,0-5.85,1.25L0,1.757A10.575,10.575,0,0,1,7.465.161c2.738.527,5.108,2.306,7.048,5.288C16.6,8.655,19.122,10.243,22,10.131a8.31,8.31,0,0,0,3.854-1.139l1.163,1.763a10.311,10.311,0,0,1-5.269,1.493" fill="#1a1311" stroke="#1a1311" stroke-width="1"/>
        </g>
      </g>
    </g>
    <g id="Group_2209-2" data-name="Group 2209" transform="translate(-13 -4746)">
      <g id="_7" data-name="〜" transform="translate(667 5138)">
        <g id="Group_2199-7" data-name="Group 2199" clip-path="url(#clip-path-2)">
          <path id="Path_4552-7" data-name="Path 4552" d="M28.732,23.1a13.037,13.037,0,0,1-6.223-1.523c-3.362-1.821-5.774-5.156-7.167-9.912C14.152,7.6,12.127,4.788,9.326,3.314A12.31,12.31,0,0,0,.665,2.6L0,.6a14.275,14.275,0,0,1,10.285.836c3.339,1.747,5.723,4.989,7.084,9.635,1.229,4.2,3.3,7.106,6.146,8.648a11.607,11.607,0,0,0,8.1.918l.611,2.021a13.008,13.008,0,0,1-3.492.442" fill="#1a1311" stroke="#1a1311" stroke-width="1"/>
        </g>
      </g>
      <g id="_8" data-name="〜" transform="matrix(0.719, 0.695, -0.695, 0.719, 355.544, 5182.048)">
        <g id="Group_2199-8" data-name="Group 2199" clip-path="url(#clip-path-2)">
          <path id="Path_4552-8" data-name="Path 4552" d="M28.732,23.1a13.037,13.037,0,0,1-6.223-1.523c-3.362-1.821-5.774-5.156-7.167-9.912C14.152,7.6,12.127,4.788,9.326,3.314A12.31,12.31,0,0,0,.665,2.6L0,.6a14.275,14.275,0,0,1,10.285.836c3.339,1.747,5.723,4.989,7.084,9.635,1.229,4.2,3.3,7.106,6.146,8.648a11.607,11.607,0,0,0,8.1.918l.611,2.021a13.008,13.008,0,0,1-3.492.442" fill="#1a1311" stroke="#1a1311" stroke-width="1"/>
        </g>
      </g>
      <g id="_9" data-name="〜" transform="translate(248.357 5484.639) rotate(-73)">
        <g id="Group_2199-9" data-name="Group 2199" clip-path="url(#clip-path-2)">
          <path id="Path_4552-9" data-name="Path 4552" d="M28.732,23.1a13.037,13.037,0,0,1-6.223-1.523c-3.362-1.821-5.774-5.156-7.167-9.912C14.152,7.6,12.127,4.788,9.326,3.314A12.31,12.31,0,0,0,.665,2.6L0,.6a14.275,14.275,0,0,1,10.285.836c3.339,1.747,5.723,4.989,7.084,9.635,1.229,4.2,3.3,7.106,6.146,8.648a11.607,11.607,0,0,0,8.1.918l.611,2.021a13.008,13.008,0,0,1-3.492.442" fill="#1a1311" stroke="#1a1311" stroke-width="1"/>
        </g>
      </g>
      <g id="_10" data-name="〜" transform="translate(988.357 5280.639) rotate(-73)">
        <g id="Group_2199-10" data-name="Group 2199" clip-path="url(#clip-path-2)">
          <path id="Path_4552-10" data-name="Path 4552" d="M28.732,23.1a13.037,13.037,0,0,1-6.223-1.523c-3.362-1.821-5.774-5.156-7.167-9.912C14.152,7.6,12.127,4.788,9.326,3.314A12.31,12.31,0,0,0,.665,2.6L0,.6a14.275,14.275,0,0,1,10.285.836c3.339,1.747,5.723,4.989,7.084,9.635,1.229,4.2,3.3,7.106,6.146,8.648a11.607,11.607,0,0,0,8.1.918l.611,2.021a13.008,13.008,0,0,1-3.492.442" fill="#1a1311" stroke="#1a1311" stroke-width="1"/>
        </g>
      </g>
      <g id="_11" data-name="〜" transform="translate(1218.749 5438.333) rotate(-70)">
        <g id="Group_2199-11" data-name="Group 2199" clip-path="url(#clip-path-2)">
          <path id="Path_4552-11" data-name="Path 4552" d="M28.732,23.1a13.037,13.037,0,0,1-6.223-1.523c-3.362-1.821-5.774-5.156-7.167-9.912C14.152,7.6,12.127,4.788,9.326,3.314A12.31,12.31,0,0,0,.665,2.6L0,.6a14.275,14.275,0,0,1,10.285.836c3.339,1.747,5.723,4.989,7.084,9.635,1.229,4.2,3.3,7.106,6.146,8.648a11.607,11.607,0,0,0,8.1.918l.611,2.021a13.008,13.008,0,0,1-3.492.442" fill="#1a1311" stroke="#1a1311" stroke-width="1"/>
        </g>
      </g>
      <g id="_12" data-name="〜" transform="matrix(-0.956, 0.292, -0.292, -0.956, 847.896, 5506.243)">
        <g id="Group_2199-12" data-name="Group 2199" clip-path="url(#clip-path-2)">
          <path id="Path_4552-12" data-name="Path 4552" d="M28.732,23.1a13.037,13.037,0,0,1-6.223-1.523c-3.362-1.821-5.774-5.156-7.167-9.912C14.152,7.6,12.127,4.788,9.326,3.314A12.31,12.31,0,0,0,.665,2.6L0,.6a14.275,14.275,0,0,1,10.285.836c3.339,1.747,5.723,4.989,7.084,9.635,1.229,4.2,3.3,7.106,6.146,8.648a11.607,11.607,0,0,0,8.1.918l.611,2.021a13.008,13.008,0,0,1-3.492.442" fill="#1a1311" stroke="#1a1311" stroke-width="1"/>
        </g>
      </g>
      <g id="Group_2201-2" data-name="Group 2201" transform="translate(529 5445)">
        <g id="Group_2200-3" data-name="Group 2200" clip-path="url(#clip-path-8)">
          <path id="Path_4553-3" data-name="Path 4553" d="M9.158,13.6c-1.83-.126-5.364-1.685-5.638-6.688C3.284,2.613.335,2.14,0,2.1L.219,0C1.97.174,5.355,1.819,5.629,6.8c.234,4.28,3.33,4.668,3.682,4.7Z" fill="#1a1311" stroke="#1a1311" stroke-width="1"/>
        </g>
      </g>
      <g id="Group_2202-2" data-name="Group 2202" transform="translate(89 5225)">
        <g id="Group_2200-4" data-name="Group 2200" transform="translate(0 0)" clip-path="url(#clip-path-9)">
          <path id="Path_4553-4" data-name="Path 4553" d="M.153,13.6c1.83-.126,5.364-1.685,5.638-6.688.236-4.3,3.185-4.775,3.52-4.815L9.092,0C7.341.174,3.956,1.819,3.682,6.8,3.448,11.079.352,11.467,0,11.5Z" transform="translate(0 0)" fill="#1a1311" stroke="#1a1311" stroke-width="1"/>
        </g>
      </g>
      <g id="Group_2204-2" data-name="Group 2204" transform="translate(847 5165)">
        <g id="Group_2203-4" data-name="Group 2203" clip-path="url(#clip-path-10)">
          <path id="Path_4554-4" data-name="Path 4554" d="M16.8,12.15a8.412,8.412,0,0,1-3.292-.683C5.752,8.2,1.448,11.257,1.269,11.39L0,9.7c.217-.164,5.384-3.954,14.326-.181C21.81,12.679,28.262.128,28.327,0l1.884.953a31.5,31.5,0,0,1-4.669,6.6c-2.868,3.047-5.84,4.6-8.745,4.6" fill="#1a1311" stroke="#1a1311" stroke-width="1"/>
        </g>
      </g>
      <g id="Group_2205-2" data-name="Group 2205" transform="translate(13 5367)">
        <g id="Group_2203-5" data-name="Group 2203" clip-path="url(#clip-path-10)">
          <path id="Path_4554-5" data-name="Path 4554" d="M16.8,12.15a8.412,8.412,0,0,1-3.292-.683C5.752,8.2,1.448,11.257,1.269,11.39L0,9.7c.217-.164,5.384-3.954,14.326-.181C21.81,12.679,28.262.128,28.327,0l1.884.953a31.5,31.5,0,0,1-4.669,6.6c-2.868,3.047-5.84,4.6-8.745,4.6" fill="#1a1311" stroke="#1a1311" stroke-width="1"/>
        </g>
      </g>
      <g id="Group_2206-2" data-name="Group 2206" transform="translate(1236.369 5212.85)">
        <g id="Group_2203-6" data-name="Group 2203" clip-path="url(#clip-path-10)">
          <path id="Path_4554-6" data-name="Path 4554" d="M16.8,12.15a8.412,8.412,0,0,1-3.292-.683C5.752,8.2,1.448,11.257,1.269,11.39L0,9.7c.217-.164,5.384-3.954,14.326-.181C21.81,12.679,28.262.128,28.327,0l1.884.953a31.5,31.5,0,0,1-4.669,6.6c-2.868,3.047-5.84,4.6-8.745,4.6" fill="#1a1311" stroke="#1a1311" stroke-width="1"/>
        </g>
      </g>
      <g id="Group_2208-2" data-name="Group 2208" transform="translate(93.656 5495.98) rotate(112)">
        <g id="Group_2207-2" data-name="Group 2207" clip-path="url(#clip-path-13)">
          <path id="Path_4555-2" data-name="Path 4555" d="M21.751,12.248a9.1,9.1,0,0,1-1.852-.189c-2.766-.574-5.174-2.41-7.157-5.46-1.614-2.481-3.523-3.95-5.676-4.365a8.416,8.416,0,0,0-5.85,1.25L0,1.757A10.575,10.575,0,0,1,7.465.161c2.738.527,5.108,2.306,7.048,5.288C16.6,8.655,19.122,10.243,22,10.131a8.31,8.31,0,0,0,3.854-1.139l1.163,1.763a10.311,10.311,0,0,1-5.269,1.493" fill="#1a1311" stroke="#1a1311" stroke-width="1"/>
        </g>
      </g>
    </g>
    <g id="Group_2209-3" data-name="Group 2209" transform="translate(-13 -4354)">
      <g id="_13" data-name="〜" transform="translate(667 5138)">
        <g id="Group_2199-13" data-name="Group 2199" clip-path="url(#clip-path-2)">
          <path id="Path_4552-13" data-name="Path 4552" d="M28.732,23.1a13.037,13.037,0,0,1-6.223-1.523c-3.362-1.821-5.774-5.156-7.167-9.912C14.152,7.6,12.127,4.788,9.326,3.314A12.31,12.31,0,0,0,.665,2.6L0,.6a14.275,14.275,0,0,1,10.285.836c3.339,1.747,5.723,4.989,7.084,9.635,1.229,4.2,3.3,7.106,6.146,8.648a11.607,11.607,0,0,0,8.1.918l.611,2.021a13.008,13.008,0,0,1-3.492.442" fill="#1a1311" stroke="#1a1311" stroke-width="1"/>
        </g>
      </g>
      <g id="_14" data-name="〜" transform="matrix(0.719, 0.695, -0.695, 0.719, 355.544, 5182.048)">
        <g id="Group_2199-14" data-name="Group 2199" clip-path="url(#clip-path-2)">
          <path id="Path_4552-14" data-name="Path 4552" d="M28.732,23.1a13.037,13.037,0,0,1-6.223-1.523c-3.362-1.821-5.774-5.156-7.167-9.912C14.152,7.6,12.127,4.788,9.326,3.314A12.31,12.31,0,0,0,.665,2.6L0,.6a14.275,14.275,0,0,1,10.285.836c3.339,1.747,5.723,4.989,7.084,9.635,1.229,4.2,3.3,7.106,6.146,8.648a11.607,11.607,0,0,0,8.1.918l.611,2.021a13.008,13.008,0,0,1-3.492.442" fill="#1a1311" stroke="#1a1311" stroke-width="1"/>
        </g>
      </g>
      <g id="_15" data-name="〜" transform="translate(248.357 5484.639) rotate(-73)">
        <g id="Group_2199-15" data-name="Group 2199" clip-path="url(#clip-path-2)">
          <path id="Path_4552-15" data-name="Path 4552" d="M28.732,23.1a13.037,13.037,0,0,1-6.223-1.523c-3.362-1.821-5.774-5.156-7.167-9.912C14.152,7.6,12.127,4.788,9.326,3.314A12.31,12.31,0,0,0,.665,2.6L0,.6a14.275,14.275,0,0,1,10.285.836c3.339,1.747,5.723,4.989,7.084,9.635,1.229,4.2,3.3,7.106,6.146,8.648a11.607,11.607,0,0,0,8.1.918l.611,2.021a13.008,13.008,0,0,1-3.492.442" fill="#1a1311" stroke="#1a1311" stroke-width="1"/>
        </g>
      </g>
      <g id="_16" data-name="〜" transform="translate(988.357 5280.639) rotate(-73)">
        <g id="Group_2199-16" data-name="Group 2199" clip-path="url(#clip-path-2)">
          <path id="Path_4552-16" data-name="Path 4552" d="M28.732,23.1a13.037,13.037,0,0,1-6.223-1.523c-3.362-1.821-5.774-5.156-7.167-9.912C14.152,7.6,12.127,4.788,9.326,3.314A12.31,12.31,0,0,0,.665,2.6L0,.6a14.275,14.275,0,0,1,10.285.836c3.339,1.747,5.723,4.989,7.084,9.635,1.229,4.2,3.3,7.106,6.146,8.648a11.607,11.607,0,0,0,8.1.918l.611,2.021a13.008,13.008,0,0,1-3.492.442" fill="#1a1311" stroke="#1a1311" stroke-width="1"/>
        </g>
      </g>
      <g id="_17" data-name="〜" transform="translate(1218.749 5438.333) rotate(-70)">
        <g id="Group_2199-17" data-name="Group 2199" clip-path="url(#clip-path-2)">
          <path id="Path_4552-17" data-name="Path 4552" d="M28.732,23.1a13.037,13.037,0,0,1-6.223-1.523c-3.362-1.821-5.774-5.156-7.167-9.912C14.152,7.6,12.127,4.788,9.326,3.314A12.31,12.31,0,0,0,.665,2.6L0,.6a14.275,14.275,0,0,1,10.285.836c3.339,1.747,5.723,4.989,7.084,9.635,1.229,4.2,3.3,7.106,6.146,8.648a11.607,11.607,0,0,0,8.1.918l.611,2.021a13.008,13.008,0,0,1-3.492.442" fill="#1a1311" stroke="#1a1311" stroke-width="1"/>
        </g>
      </g>
      <g id="_18" data-name="〜" transform="matrix(-0.956, 0.292, -0.292, -0.956, 847.896, 5506.243)">
        <g id="Group_2199-18" data-name="Group 2199" clip-path="url(#clip-path-2)">
          <path id="Path_4552-18" data-name="Path 4552" d="M28.732,23.1a13.037,13.037,0,0,1-6.223-1.523c-3.362-1.821-5.774-5.156-7.167-9.912C14.152,7.6,12.127,4.788,9.326,3.314A12.31,12.31,0,0,0,.665,2.6L0,.6a14.275,14.275,0,0,1,10.285.836c3.339,1.747,5.723,4.989,7.084,9.635,1.229,4.2,3.3,7.106,6.146,8.648a11.607,11.607,0,0,0,8.1.918l.611,2.021a13.008,13.008,0,0,1-3.492.442" fill="#1a1311" stroke="#1a1311" stroke-width="1"/>
        </g>
      </g>
      <g id="Group_2201-3" data-name="Group 2201" transform="translate(529 5445)">
        <g id="Group_2200-5" data-name="Group 2200" clip-path="url(#clip-path-8)">
          <path id="Path_4553-5" data-name="Path 4553" d="M9.158,13.6c-1.83-.126-5.364-1.685-5.638-6.688C3.284,2.613.335,2.14,0,2.1L.219,0C1.97.174,5.355,1.819,5.629,6.8c.234,4.28,3.33,4.668,3.682,4.7Z" fill="#1a1311" stroke="#1a1311" stroke-width="1"/>
        </g>
      </g>
      <g id="Group_2202-3" data-name="Group 2202" transform="translate(89 5225)">
        <g id="Group_2200-6" data-name="Group 2200" transform="translate(0 0)" clip-path="url(#clip-path-9)">
          <path id="Path_4553-6" data-name="Path 4553" d="M.153,13.6c1.83-.126,5.364-1.685,5.638-6.688.236-4.3,3.185-4.775,3.52-4.815L9.092,0C7.341.174,3.956,1.819,3.682,6.8,3.448,11.079.352,11.467,0,11.5Z" transform="translate(0 0)" fill="#1a1311" stroke="#1a1311" stroke-width="1"/>
        </g>
      </g>
      <g id="Group_2204-3" data-name="Group 2204" transform="translate(847 5165)">
        <g id="Group_2203-7" data-name="Group 2203" clip-path="url(#clip-path-10)">
          <path id="Path_4554-7" data-name="Path 4554" d="M16.8,12.15a8.412,8.412,0,0,1-3.292-.683C5.752,8.2,1.448,11.257,1.269,11.39L0,9.7c.217-.164,5.384-3.954,14.326-.181C21.81,12.679,28.262.128,28.327,0l1.884.953a31.5,31.5,0,0,1-4.669,6.6c-2.868,3.047-5.84,4.6-8.745,4.6" fill="#1a1311" stroke="#1a1311" stroke-width="1"/>
        </g>
      </g>
      <g id="Group_2205-3" data-name="Group 2205" transform="translate(13 5367)">
        <g id="Group_2203-8" data-name="Group 2203" clip-path="url(#clip-path-10)">
          <path id="Path_4554-8" data-name="Path 4554" d="M16.8,12.15a8.412,8.412,0,0,1-3.292-.683C5.752,8.2,1.448,11.257,1.269,11.39L0,9.7c.217-.164,5.384-3.954,14.326-.181C21.81,12.679,28.262.128,28.327,0l1.884.953a31.5,31.5,0,0,1-4.669,6.6c-2.868,3.047-5.84,4.6-8.745,4.6" fill="#1a1311" stroke="#1a1311" stroke-width="1"/>
        </g>
      </g>
      <g id="Group_2206-3" data-name="Group 2206" transform="translate(1236.369 5212.85)">
        <g id="Group_2203-9" data-name="Group 2203" clip-path="url(#clip-path-10)">
          <path id="Path_4554-9" data-name="Path 4554" d="M16.8,12.15a8.412,8.412,0,0,1-3.292-.683C5.752,8.2,1.448,11.257,1.269,11.39L0,9.7c.217-.164,5.384-3.954,14.326-.181C21.81,12.679,28.262.128,28.327,0l1.884.953a31.5,31.5,0,0,1-4.669,6.6c-2.868,3.047-5.84,4.6-8.745,4.6" fill="#1a1311" stroke="#1a1311" stroke-width="1"/>
        </g>
      </g>
      <g id="Group_2208-3" data-name="Group 2208" transform="translate(93.656 5495.98) rotate(112)">
        <g id="Group_2207-3" data-name="Group 2207" clip-path="url(#clip-path-13)">
          <path id="Path_4555-3" data-name="Path 4555" d="M21.751,12.248a9.1,9.1,0,0,1-1.852-.189c-2.766-.574-5.174-2.41-7.157-5.46-1.614-2.481-3.523-3.95-5.676-4.365a8.416,8.416,0,0,0-5.85,1.25L0,1.757A10.575,10.575,0,0,1,7.465.161c2.738.527,5.108,2.306,7.048,5.288C16.6,8.655,19.122,10.243,22,10.131a8.31,8.31,0,0,0,3.854-1.139l1.163,1.763a10.311,10.311,0,0,1-5.269,1.493" fill="#1a1311" stroke="#1a1311" stroke-width="1"/>
        </g>
      </g>
    </g>
    <g id="Group_2209-4" data-name="Group 2209" transform="translate(-13 -3962)">
      <g id="_19" data-name="〜" transform="translate(667 5138)">
        <g id="Group_2199-19" data-name="Group 2199" clip-path="url(#clip-path-2)">
          <path id="Path_4552-19" data-name="Path 4552" d="M28.732,23.1a13.037,13.037,0,0,1-6.223-1.523c-3.362-1.821-5.774-5.156-7.167-9.912C14.152,7.6,12.127,4.788,9.326,3.314A12.31,12.31,0,0,0,.665,2.6L0,.6a14.275,14.275,0,0,1,10.285.836c3.339,1.747,5.723,4.989,7.084,9.635,1.229,4.2,3.3,7.106,6.146,8.648a11.607,11.607,0,0,0,8.1.918l.611,2.021a13.008,13.008,0,0,1-3.492.442" fill="#1a1311" stroke="#1a1311" stroke-width="1"/>
        </g>
      </g>
      <g id="_20" data-name="〜" transform="matrix(0.719, 0.695, -0.695, 0.719, 355.544, 5182.048)">
        <g id="Group_2199-20" data-name="Group 2199" clip-path="url(#clip-path-2)">
          <path id="Path_4552-20" data-name="Path 4552" d="M28.732,23.1a13.037,13.037,0,0,1-6.223-1.523c-3.362-1.821-5.774-5.156-7.167-9.912C14.152,7.6,12.127,4.788,9.326,3.314A12.31,12.31,0,0,0,.665,2.6L0,.6a14.275,14.275,0,0,1,10.285.836c3.339,1.747,5.723,4.989,7.084,9.635,1.229,4.2,3.3,7.106,6.146,8.648a11.607,11.607,0,0,0,8.1.918l.611,2.021a13.008,13.008,0,0,1-3.492.442" fill="#1a1311" stroke="#1a1311" stroke-width="1"/>
        </g>
      </g>
      <g id="_21" data-name="〜" transform="translate(248.357 5484.639) rotate(-73)">
        <g id="Group_2199-21" data-name="Group 2199" clip-path="url(#clip-path-2)">
          <path id="Path_4552-21" data-name="Path 4552" d="M28.732,23.1a13.037,13.037,0,0,1-6.223-1.523c-3.362-1.821-5.774-5.156-7.167-9.912C14.152,7.6,12.127,4.788,9.326,3.314A12.31,12.31,0,0,0,.665,2.6L0,.6a14.275,14.275,0,0,1,10.285.836c3.339,1.747,5.723,4.989,7.084,9.635,1.229,4.2,3.3,7.106,6.146,8.648a11.607,11.607,0,0,0,8.1.918l.611,2.021a13.008,13.008,0,0,1-3.492.442" fill="#1a1311" stroke="#1a1311" stroke-width="1"/>
        </g>
      </g>
      <g id="_22" data-name="〜" transform="translate(988.357 5280.639) rotate(-73)">
        <g id="Group_2199-22" data-name="Group 2199" clip-path="url(#clip-path-2)">
          <path id="Path_4552-22" data-name="Path 4552" d="M28.732,23.1a13.037,13.037,0,0,1-6.223-1.523c-3.362-1.821-5.774-5.156-7.167-9.912C14.152,7.6,12.127,4.788,9.326,3.314A12.31,12.31,0,0,0,.665,2.6L0,.6a14.275,14.275,0,0,1,10.285.836c3.339,1.747,5.723,4.989,7.084,9.635,1.229,4.2,3.3,7.106,6.146,8.648a11.607,11.607,0,0,0,8.1.918l.611,2.021a13.008,13.008,0,0,1-3.492.442" fill="#1a1311" stroke="#1a1311" stroke-width="1"/>
        </g>
      </g>
      <g id="_23" data-name="〜" transform="translate(1218.749 5438.333) rotate(-70)">
        <g id="Group_2199-23" data-name="Group 2199" clip-path="url(#clip-path-2)">
          <path id="Path_4552-23" data-name="Path 4552" d="M28.732,23.1a13.037,13.037,0,0,1-6.223-1.523c-3.362-1.821-5.774-5.156-7.167-9.912C14.152,7.6,12.127,4.788,9.326,3.314A12.31,12.31,0,0,0,.665,2.6L0,.6a14.275,14.275,0,0,1,10.285.836c3.339,1.747,5.723,4.989,7.084,9.635,1.229,4.2,3.3,7.106,6.146,8.648a11.607,11.607,0,0,0,8.1.918l.611,2.021a13.008,13.008,0,0,1-3.492.442" fill="#1a1311" stroke="#1a1311" stroke-width="1"/>
        </g>
      </g>
      <g id="_24" data-name="〜" transform="matrix(-0.956, 0.292, -0.292, -0.956, 847.896, 5506.243)">
        <g id="Group_2199-24" data-name="Group 2199" clip-path="url(#clip-path-2)">
          <path id="Path_4552-24" data-name="Path 4552" d="M28.732,23.1a13.037,13.037,0,0,1-6.223-1.523c-3.362-1.821-5.774-5.156-7.167-9.912C14.152,7.6,12.127,4.788,9.326,3.314A12.31,12.31,0,0,0,.665,2.6L0,.6a14.275,14.275,0,0,1,10.285.836c3.339,1.747,5.723,4.989,7.084,9.635,1.229,4.2,3.3,7.106,6.146,8.648a11.607,11.607,0,0,0,8.1.918l.611,2.021a13.008,13.008,0,0,1-3.492.442" fill="#1a1311" stroke="#1a1311" stroke-width="1"/>
        </g>
      </g>
      <g id="Group_2201-4" data-name="Group 2201" transform="translate(529 5445)">
        <g id="Group_2200-7" data-name="Group 2200" clip-path="url(#clip-path-8)">
          <path id="Path_4553-7" data-name="Path 4553" d="M9.158,13.6c-1.83-.126-5.364-1.685-5.638-6.688C3.284,2.613.335,2.14,0,2.1L.219,0C1.97.174,5.355,1.819,5.629,6.8c.234,4.28,3.33,4.668,3.682,4.7Z" fill="#1a1311" stroke="#1a1311" stroke-width="1"/>
        </g>
      </g>
      <g id="Group_2202-4" data-name="Group 2202" transform="translate(89 5225)">
        <g id="Group_2200-8" data-name="Group 2200" transform="translate(0 0)" clip-path="url(#clip-path-9)">
          <path id="Path_4553-8" data-name="Path 4553" d="M.153,13.6c1.83-.126,5.364-1.685,5.638-6.688.236-4.3,3.185-4.775,3.52-4.815L9.092,0C7.341.174,3.956,1.819,3.682,6.8,3.448,11.079.352,11.467,0,11.5Z" transform="translate(0 0)" fill="#1a1311" stroke="#1a1311" stroke-width="1"/>
        </g>
      </g>
      <g id="Group_2204-4" data-name="Group 2204" transform="translate(847 5165)">
        <g id="Group_2203-10" data-name="Group 2203" clip-path="url(#clip-path-10)">
          <path id="Path_4554-10" data-name="Path 4554" d="M16.8,12.15a8.412,8.412,0,0,1-3.292-.683C5.752,8.2,1.448,11.257,1.269,11.39L0,9.7c.217-.164,5.384-3.954,14.326-.181C21.81,12.679,28.262.128,28.327,0l1.884.953a31.5,31.5,0,0,1-4.669,6.6c-2.868,3.047-5.84,4.6-8.745,4.6" fill="#1a1311" stroke="#1a1311" stroke-width="1"/>
        </g>
      </g>
      <g id="Group_2205-4" data-name="Group 2205" transform="translate(13 5367)">
        <g id="Group_2203-11" data-name="Group 2203" clip-path="url(#clip-path-10)">
          <path id="Path_4554-11" data-name="Path 4554" d="M16.8,12.15a8.412,8.412,0,0,1-3.292-.683C5.752,8.2,1.448,11.257,1.269,11.39L0,9.7c.217-.164,5.384-3.954,14.326-.181C21.81,12.679,28.262.128,28.327,0l1.884.953a31.5,31.5,0,0,1-4.669,6.6c-2.868,3.047-5.84,4.6-8.745,4.6" fill="#1a1311" stroke="#1a1311" stroke-width="1"/>
        </g>
      </g>
      <g id="Group_2206-4" data-name="Group 2206" transform="translate(1236.369 5212.85)">
        <g id="Group_2203-12" data-name="Group 2203" clip-path="url(#clip-path-10)">
          <path id="Path_4554-12" data-name="Path 4554" d="M16.8,12.15a8.412,8.412,0,0,1-3.292-.683C5.752,8.2,1.448,11.257,1.269,11.39L0,9.7c.217-.164,5.384-3.954,14.326-.181C21.81,12.679,28.262.128,28.327,0l1.884.953a31.5,31.5,0,0,1-4.669,6.6c-2.868,3.047-5.84,4.6-8.745,4.6" fill="#1a1311" stroke="#1a1311" stroke-width="1"/>
        </g>
      </g>
      <g id="Group_2208-4" data-name="Group 2208" transform="translate(93.656 5495.98) rotate(112)">
        <g id="Group_2207-4" data-name="Group 2207" clip-path="url(#clip-path-13)">
          <path id="Path_4555-4" data-name="Path 4555" d="M21.751,12.248a9.1,9.1,0,0,1-1.852-.189c-2.766-.574-5.174-2.41-7.157-5.46-1.614-2.481-3.523-3.95-5.676-4.365a8.416,8.416,0,0,0-5.85,1.25L0,1.757A10.575,10.575,0,0,1,7.465.161c2.738.527,5.108,2.306,7.048,5.288C16.6,8.655,19.122,10.243,22,10.131a8.31,8.31,0,0,0,3.854-1.139l1.163,1.763a10.311,10.311,0,0,1-5.269,1.493" fill="#1a1311" stroke="#1a1311" stroke-width="1"/>
        </g>
      </g>
    </g>
    <g id="Group_2209-5" data-name="Group 2209" transform="translate(-13 -3570)">
      <g id="_25" data-name="〜" transform="translate(667 5138)">
        <g id="Group_2199-25" data-name="Group 2199" clip-path="url(#clip-path-2)">
          <path id="Path_4552-25" data-name="Path 4552" d="M28.732,23.1a13.037,13.037,0,0,1-6.223-1.523c-3.362-1.821-5.774-5.156-7.167-9.912C14.152,7.6,12.127,4.788,9.326,3.314A12.31,12.31,0,0,0,.665,2.6L0,.6a14.275,14.275,0,0,1,10.285.836c3.339,1.747,5.723,4.989,7.084,9.635,1.229,4.2,3.3,7.106,6.146,8.648a11.607,11.607,0,0,0,8.1.918l.611,2.021a13.008,13.008,0,0,1-3.492.442" fill="#1a1311" stroke="#1a1311" stroke-width="1"/>
        </g>
      </g>
      <g id="_26" data-name="〜" transform="matrix(0.719, 0.695, -0.695, 0.719, 355.544, 5182.048)">
        <g id="Group_2199-26" data-name="Group 2199" clip-path="url(#clip-path-2)">
          <path id="Path_4552-26" data-name="Path 4552" d="M28.732,23.1a13.037,13.037,0,0,1-6.223-1.523c-3.362-1.821-5.774-5.156-7.167-9.912C14.152,7.6,12.127,4.788,9.326,3.314A12.31,12.31,0,0,0,.665,2.6L0,.6a14.275,14.275,0,0,1,10.285.836c3.339,1.747,5.723,4.989,7.084,9.635,1.229,4.2,3.3,7.106,6.146,8.648a11.607,11.607,0,0,0,8.1.918l.611,2.021a13.008,13.008,0,0,1-3.492.442" fill="#1a1311" stroke="#1a1311" stroke-width="1"/>
        </g>
      </g>
      <g id="_27" data-name="〜" transform="translate(248.357 5484.639) rotate(-73)">
        <g id="Group_2199-27" data-name="Group 2199" clip-path="url(#clip-path-2)">
          <path id="Path_4552-27" data-name="Path 4552" d="M28.732,23.1a13.037,13.037,0,0,1-6.223-1.523c-3.362-1.821-5.774-5.156-7.167-9.912C14.152,7.6,12.127,4.788,9.326,3.314A12.31,12.31,0,0,0,.665,2.6L0,.6a14.275,14.275,0,0,1,10.285.836c3.339,1.747,5.723,4.989,7.084,9.635,1.229,4.2,3.3,7.106,6.146,8.648a11.607,11.607,0,0,0,8.1.918l.611,2.021a13.008,13.008,0,0,1-3.492.442" fill="#1a1311" stroke="#1a1311" stroke-width="1"/>
        </g>
      </g>
      <g id="_28" data-name="〜" transform="translate(988.357 5280.639) rotate(-73)">
        <g id="Group_2199-28" data-name="Group 2199" clip-path="url(#clip-path-2)">
          <path id="Path_4552-28" data-name="Path 4552" d="M28.732,23.1a13.037,13.037,0,0,1-6.223-1.523c-3.362-1.821-5.774-5.156-7.167-9.912C14.152,7.6,12.127,4.788,9.326,3.314A12.31,12.31,0,0,0,.665,2.6L0,.6a14.275,14.275,0,0,1,10.285.836c3.339,1.747,5.723,4.989,7.084,9.635,1.229,4.2,3.3,7.106,6.146,8.648a11.607,11.607,0,0,0,8.1.918l.611,2.021a13.008,13.008,0,0,1-3.492.442" fill="#1a1311" stroke="#1a1311" stroke-width="1"/>
        </g>
      </g>
      <g id="_29" data-name="〜" transform="translate(1218.749 5438.333) rotate(-70)">
        <g id="Group_2199-29" data-name="Group 2199" clip-path="url(#clip-path-2)">
          <path id="Path_4552-29" data-name="Path 4552" d="M28.732,23.1a13.037,13.037,0,0,1-6.223-1.523c-3.362-1.821-5.774-5.156-7.167-9.912C14.152,7.6,12.127,4.788,9.326,3.314A12.31,12.31,0,0,0,.665,2.6L0,.6a14.275,14.275,0,0,1,10.285.836c3.339,1.747,5.723,4.989,7.084,9.635,1.229,4.2,3.3,7.106,6.146,8.648a11.607,11.607,0,0,0,8.1.918l.611,2.021a13.008,13.008,0,0,1-3.492.442" fill="#1a1311" stroke="#1a1311" stroke-width="1"/>
        </g>
      </g>
      <g id="_30" data-name="〜" transform="matrix(-0.956, 0.292, -0.292, -0.956, 847.896, 5506.243)">
        <g id="Group_2199-30" data-name="Group 2199" clip-path="url(#clip-path-2)">
          <path id="Path_4552-30" data-name="Path 4552" d="M28.732,23.1a13.037,13.037,0,0,1-6.223-1.523c-3.362-1.821-5.774-5.156-7.167-9.912C14.152,7.6,12.127,4.788,9.326,3.314A12.31,12.31,0,0,0,.665,2.6L0,.6a14.275,14.275,0,0,1,10.285.836c3.339,1.747,5.723,4.989,7.084,9.635,1.229,4.2,3.3,7.106,6.146,8.648a11.607,11.607,0,0,0,8.1.918l.611,2.021a13.008,13.008,0,0,1-3.492.442" fill="#1a1311" stroke="#1a1311" stroke-width="1"/>
        </g>
      </g>
      <g id="Group_2201-5" data-name="Group 2201" transform="translate(529 5445)">
        <g id="Group_2200-9" data-name="Group 2200" clip-path="url(#clip-path-8)">
          <path id="Path_4553-9" data-name="Path 4553" d="M9.158,13.6c-1.83-.126-5.364-1.685-5.638-6.688C3.284,2.613.335,2.14,0,2.1L.219,0C1.97.174,5.355,1.819,5.629,6.8c.234,4.28,3.33,4.668,3.682,4.7Z" fill="#1a1311" stroke="#1a1311" stroke-width="1"/>
        </g>
      </g>
      <g id="Group_2202-5" data-name="Group 2202" transform="translate(89 5225)">
        <g id="Group_2200-10" data-name="Group 2200" transform="translate(0 0)" clip-path="url(#clip-path-9)">
          <path id="Path_4553-10" data-name="Path 4553" d="M.153,13.6c1.83-.126,5.364-1.685,5.638-6.688.236-4.3,3.185-4.775,3.52-4.815L9.092,0C7.341.174,3.956,1.819,3.682,6.8,3.448,11.079.352,11.467,0,11.5Z" transform="translate(0 0)" fill="#1a1311" stroke="#1a1311" stroke-width="1"/>
        </g>
      </g>
      <g id="Group_2204-5" data-name="Group 2204" transform="translate(847 5165)">
        <g id="Group_2203-13" data-name="Group 2203" clip-path="url(#clip-path-10)">
          <path id="Path_4554-13" data-name="Path 4554" d="M16.8,12.15a8.412,8.412,0,0,1-3.292-.683C5.752,8.2,1.448,11.257,1.269,11.39L0,9.7c.217-.164,5.384-3.954,14.326-.181C21.81,12.679,28.262.128,28.327,0l1.884.953a31.5,31.5,0,0,1-4.669,6.6c-2.868,3.047-5.84,4.6-8.745,4.6" fill="#1a1311" stroke="#1a1311" stroke-width="1"/>
        </g>
      </g>
      <g id="Group_2205-5" data-name="Group 2205" transform="translate(13 5367)">
        <g id="Group_2203-14" data-name="Group 2203" clip-path="url(#clip-path-10)">
          <path id="Path_4554-14" data-name="Path 4554" d="M16.8,12.15a8.412,8.412,0,0,1-3.292-.683C5.752,8.2,1.448,11.257,1.269,11.39L0,9.7c.217-.164,5.384-3.954,14.326-.181C21.81,12.679,28.262.128,28.327,0l1.884.953a31.5,31.5,0,0,1-4.669,6.6c-2.868,3.047-5.84,4.6-8.745,4.6" fill="#1a1311" stroke="#1a1311" stroke-width="1"/>
        </g>
      </g>
      <g id="Group_2206-5" data-name="Group 2206" transform="translate(1236.369 5212.85)">
        <g id="Group_2203-15" data-name="Group 2203" clip-path="url(#clip-path-10)">
          <path id="Path_4554-15" data-name="Path 4554" d="M16.8,12.15a8.412,8.412,0,0,1-3.292-.683C5.752,8.2,1.448,11.257,1.269,11.39L0,9.7c.217-.164,5.384-3.954,14.326-.181C21.81,12.679,28.262.128,28.327,0l1.884.953a31.5,31.5,0,0,1-4.669,6.6c-2.868,3.047-5.84,4.6-8.745,4.6" fill="#1a1311" stroke="#1a1311" stroke-width="1"/>
        </g>
      </g>
      <g id="Group_2208-5" data-name="Group 2208" transform="translate(93.656 5495.98) rotate(112)">
        <g id="Group_2207-5" data-name="Group 2207" clip-path="url(#clip-path-13)">
          <path id="Path_4555-5" data-name="Path 4555" d="M21.751,12.248a9.1,9.1,0,0,1-1.852-.189c-2.766-.574-5.174-2.41-7.157-5.46-1.614-2.481-3.523-3.95-5.676-4.365a8.416,8.416,0,0,0-5.85,1.25L0,1.757A10.575,10.575,0,0,1,7.465.161c2.738.527,5.108,2.306,7.048,5.288C16.6,8.655,19.122,10.243,22,10.131a8.31,8.31,0,0,0,3.854-1.139l1.163,1.763a10.311,10.311,0,0,1-5.269,1.493" fill="#1a1311" stroke="#1a1311" stroke-width="1"/>
        </g>
      </g>
    </g>
  </g>
</svg>
