<svg xmlns="http://www.w3.org/2000/svg" xmlns:xlink="http://www.w3.org/1999/xlink" width="218.193" height="45.556" viewBox="0 0 218.193 45.556">
  <defs>
    <clipPath id="clip-path">
      <rect id="Rectangle_19" data-name="Rectangle 19" width="218.193" height="45.556" fill="none"/>
    </clipPath>
  </defs>
  <g id="event" transform="translate(0 0)">
    <g id="Group_21" data-name="Group 21" transform="translate(0 0)" clip-path="url(#clip-path)">
      <path id="Path_261" data-name="Path 261" d="M40.231,8.223a64.214,64.214,0,0,1-15.265,12.6h5.325V44.549a16.756,16.756,0,0,1-5.915,1.006,15.629,15.629,0,0,1-5.917-1.006V24.257A56.221,56.221,0,0,1,4.734,28.575L0,19.76C12.484,14.85,23.547,8.1,31.593,0Z" transform="translate(0 0)"/>
      <path id="Path_262" data-name="Path 262" d="M65.137,21.876,54.251,32.526l-8.343-7.809c5.8-6.153,12.6-12.72,17.927-17.808L94.6,27.2,87.086,37.672ZM78.151,8.328a2.955,2.955,0,0,1,2.958-2.9,2.929,2.929,0,0,1,0,5.857,2.968,2.968,0,0,1-2.958-2.958m6.982,0a2.929,2.929,0,0,1,5.857,0,2.929,2.929,0,1,1-5.857,0" transform="translate(10.119 1.197)"/>
      <path id="Path_263" data-name="Path 263" d="M98.8,4.363h18.1V14.42H98.8Zm3.49,28.161c13.666-2.722,20.588-9.7,23.607-20.47h11.655c-2.189,16.921-14.673,28.221-29.937,30.764Z" transform="translate(21.777 0.962)"/>
      <path id="Path_264" data-name="Path 264" d="M177.408,33.977a128.513,128.513,0,0,0-12.484-9.525V44.213a16.755,16.755,0,0,1-5.915,1.006,15.629,15.629,0,0,1-5.917-1.006V1.26h11.832V20.429l3.669-4.851c6.982,1.538,11.715,5.265,15.857,8.874Z" transform="translate(33.744 0.278)"/>
    </g>
  </g>
</svg>
