<svg xmlns="http://www.w3.org/2000/svg" xmlns:xlink="http://www.w3.org/1999/xlink" width="322.71" height="103.74" viewBox="0 0 322.71 103.74">
  <defs>
    <clipPath id="clip-path">
      <rect id="Rectangle_71" data-name="Rectangle 71" width="46.939" height="47.251" fill="none"/>
    </clipPath>
    <clipPath id="clip-path-2">
      <rect id="Rectangle_70" data-name="Rectangle 70" width="48.151" height="42.943" fill="none"/>
    </clipPath>
    <clipPath id="clip-path-3">
      <rect id="Rectangle_69" data-name="Rectangle 69" width="43.51" height="51.064" fill="none"/>
    </clipPath>
  </defs>
  <g id="icon-camping-mb" transform="translate(28.344 -4053.187)">
    <g id="icon_おやつ_08" transform="matrix(0.985, -0.174, 0.174, 0.985, 215.321, 4089.731)">
      <g id="Rectangle_68" data-name="Rectangle 68" transform="translate(0 0)" fill="#fff" stroke="#1a1311" stroke-width="2">
        <rect width="68.232" height="68.232" rx="10" stroke="none"/>
        <rect x="1" y="1" width="66.232" height="66.232" rx="9" fill="none"/>
      </g>
      <g id="Group_76" data-name="Group 76" transform="translate(10.668 10.81)">
        <g id="Group_76-2" data-name="Group 76" transform="translate(0 0)" clip-path="url(#clip-path)">
          <path id="Path_366" data-name="Path 366" d="M3.889,16.115c-.071-.2-.12-.359-.182-.513a5.238,5.238,0,0,1,.609-5.151A7.688,7.688,0,0,1,8.973,7.373c.159-.04.32-.078.522-.127A6.333,6.333,0,0,1,12.819,1.38a5.618,5.618,0,0,1,6.606.553c3.468-3.209,9.2-2.248,10.891,1.594a6.949,6.949,0,0,1,6.042.9,5.9,5.9,0,0,1,3.065,5.139c4.8.188,7.76,5.929,4.926,9.719A6.869,6.869,0,0,1,46.9,25.272a6.143,6.143,0,0,1-3.8,5.141,6.746,6.746,0,0,1-5.867,8.968,1.392,1.392,0,0,0-.028.265,4.84,4.84,0,0,1-1.994,4.345,6.986,6.986,0,0,1-7.161,1c-.222-.085-.438-.186-.649-.277-3.39,3.9-9.249,3.342-11.774-1.992-.236.088-.477.181-.72.267a7.271,7.271,0,0,1-4.476.22,5.472,5.472,0,0,1-4.112-5.868c.018-.234.04-.468.064-.742-.147-.027-.26-.058-.374-.067a5.333,5.333,0,0,1-4.758-4.455A6.929,6.929,0,0,1,2.051,27.2c.1-.187.22-.37.364-.611A5.4,5.4,0,0,1,.094,20.93a5.827,5.827,0,0,1,3.8-4.816M6.567,35c.192-.012.385-.039.577-.035A.928.928,0,0,1,8.12,36.2c-.043.187-.113.369-.159.555a3.984,3.984,0,0,0,3.025,5.025,6.152,6.152,0,0,0,4.468-.686c.812-.429,1.093-.3,1.487.544a11.541,11.541,0,0,0,1.151,2.072,4.84,4.84,0,0,0,3.335,1.97,5.02,5.02,0,0,0,4.674-1.9,1.639,1.639,0,0,1,1.674-.557,2.933,2.933,0,0,1,.665.273,5.535,5.535,0,0,0,5.391-.371,3.42,3.42,0,0,0,1.562-4.4.887.887,0,0,1,.079-.952.792.792,0,0,1,.933-.142,3.327,3.327,0,0,0,2.266-.1c2.8-1.073,4.206-4.679,2.8-6.825-.394-.6-.155-1.154.5-1.492.213-.11.446-.183.665-.282a4.64,4.64,0,0,0,2.732-5.078,5.278,5.278,0,0,0-1.2-2.592c-.31-.368-.655-.706-.99-1.053-.677-.7-.71-1.144-.088-1.871a3.663,3.663,0,0,0,.87-2.39,4.857,4.857,0,0,0-4.9-4.841c-1.07.025-1.353-.309-1.216-1.349a3.533,3.533,0,0,0-.785-2.7A6,6,0,0,0,33.71,4.91a7.409,7.409,0,0,0-3.3-.054c-.958.181-1.209.056-1.576-.813a3.627,3.627,0,0,0-2.059-2.024,5.561,5.561,0,0,0-6.136.946,1.687,1.687,0,0,1-2.285.108A5.909,5.909,0,0,0,16.9,2.3,4.633,4.633,0,0,0,11.09,6.284a6.762,6.762,0,0,0,0,1.008,1.059,1.059,0,0,1-.874,1.286c-.413.134-.834.24-1.249.365a6.828,6.828,0,0,0-2.359,1.225,4.093,4.093,0,0,0-1.16,5.523c.465.9.209,1.55-.771,1.811a4,4,0,0,0-2.873,2.791,5.1,5.1,0,0,0-.273,1.555,3.428,3.428,0,0,0,2.141,3.584.874.874,0,0,1,.463,1.359,8,8,0,0,1-.488.714,5.222,5.222,0,0,0-.5,5.415A3.371,3.371,0,0,0,6.567,35" transform="translate(0 0)" fill="#1a1311"/>
          <path id="Path_367" data-name="Path 367" d="M7.914,2.957c3.6-1.48,7.874,1.351,8.048,4.952.235.072.487.146.736.223a6.082,6.082,0,0,1,2.471,1.446c1.678,1.629,1.933,3.476.687,5.716a2.87,2.87,0,0,1,.546.385,5.136,5.136,0,0,1-.745,7.989,3.443,3.443,0,0,1-.626.357c-.465.2-.839.123-1.037-.186s-.109-.66.293-1c.221-.186.466-.341.685-.531a4.381,4.381,0,0,0,1.557-4.132,3.842,3.842,0,0,0-1.219-2.164c-.713-.723-.765-.965-.289-1.821a2.767,2.767,0,0,0-.157-3.067,5.293,5.293,0,0,0-2.28-1.833c-.371-.173-.759-.3-1.136-.463a1.041,1.041,0,0,1-.7-.923A4.723,4.723,0,0,0,11.175,3.66,5.983,5.983,0,0,0,9.331,3.4a3.151,3.151,0,0,0-1.163.321c-.536.219-.894.165-1.152-.348C6.088,1.525,4.41.991,2.547.806a2.191,2.191,0,0,0-1.912.668c-.049.052-.1.126-.164.135-.13.019-.313.054-.388-.013a.411.411,0,0,1-.062-.379A1.7,1.7,0,0,1,.975.376a4.673,4.673,0,0,1,2.9-.261A5.733,5.733,0,0,1,7.914,2.957" transform="translate(20.126 4.562)" fill="#1a1311"/>
          <path id="Path_368" data-name="Path 368" d="M7.444,4.569c-.138.064-.309.141-.478.221A5.185,5.185,0,0,1,1.157,3.724,3.665,3.665,0,0,1,0,1.007,1.924,1.924,0,0,1,.282.142c.132-.226.393-.168.5.083A1.35,1.35,0,0,1,.894.713c.031,2.041,2.083,3.369,3.639,3.5a3.869,3.869,0,0,0,2.362-.5c.879-.519.991-.492,1.577.343A5.938,5.938,0,0,0,12.6,6.6a3.37,3.37,0,0,0,3.019-.835,1.734,1.734,0,0,1,1.513-.492,7.778,7.778,0,0,0,3.154-.22,6.2,6.2,0,0,0,1.631-.737,2.5,2.5,0,0,0,1.164-2.2,2.145,2.145,0,0,1,0-.432c.027-.126.119-.338.177-.337a.548.548,0,0,1,.416.182,1.851,1.851,0,0,1,.221.748,3.122,3.122,0,0,1-1.161,2.611,5.705,5.705,0,0,1-3,1.332A26.875,26.875,0,0,1,17,6.361c-.263.01-.505-.037-.735.181a4.347,4.347,0,0,1-3.268,1.1A6.534,6.534,0,0,1,8.531,5.868a14.487,14.487,0,0,1-1.087-1.3" transform="translate(9.894 34.234)" fill="#1a1311"/>
          <path id="Path_369" data-name="Path 369" d="M3.4,6.137A3.9,3.9,0,0,1,4.81.331,4.347,4.347,0,0,1,6.189,0c.124-.018.366.184.394.318.025.114-.166.3-.3.408C6.206.8,6.062.8,5.946.829A3.086,3.086,0,0,0,3.93,4.9a2.34,2.34,0,0,0,.338.548c.462.593.433.839-.176,1.3-.346.261-.7.509-1.032.787A5.818,5.818,0,0,0,1.407,9.693a2.964,2.964,0,0,0,.831,3.7,1.119,1.119,0,0,1,.259.249.58.58,0,0,1,.011.736.562.562,0,0,1-.715.165,1.873,1.873,0,0,1-.475-.32A3.77,3.77,0,0,1,.285,9.888,7.72,7.72,0,0,1,2.8,6.6c.185-.151.377-.292.6-.466" transform="translate(5.199 9.987)" fill="#1a1311"/>
          <path id="Path_370" data-name="Path 370" d="M1.517,0A1.4,1.4,0,0,1,3,1.361c-.045,1.13-.546,1.576-1.452,1.626A1.468,1.468,0,0,1,0,1.594,1.524,1.524,0,0,1,1.517,0m.057,2.036a.642.642,0,0,0,.618-.5A.649.649,0,0,0,1.585.863a.532.532,0,0,0-.561.531.608.608,0,0,0,.55.642" transform="translate(23.481 31.21)" fill="#1a1311"/>
          <path id="Path_371" data-name="Path 371" d="M1.413,0A1.524,1.524,0,0,1,3.06,1.529,1.6,1.6,0,0,1,1.522,3.123,1.5,1.5,0,0,1,0,1.623,1.644,1.644,0,0,1,1.413,0m.136.85c-.517.02-.822.283-.815.707a.833.833,0,0,0,.836.805A.705.705,0,0,0,2.329,1.6.744.744,0,0,0,1.549.85" transform="translate(5.611 28.456)" fill="#1a1311"/>
          <path id="Path_372" data-name="Path 372" d="M1.378,2.82A1.281,1.281,0,0,1,0,1.516,1.5,1.5,0,0,1,1.427,0,1.47,1.47,0,0,1,2.971,1.387,1.375,1.375,0,0,1,1.378,2.82M2.295,1.48A.726.726,0,0,0,1.568.754a.692.692,0,0,0-.676.69.919.919,0,0,0,.73.844.843.843,0,0,0,.673-.809" transform="translate(21.665 20.994)" fill="#1a1311"/>
          <path id="Path_373" data-name="Path 373" d="M.9,1.869a.416.416,0,0,1,0,.213c-.054.123-.139.3-.238.317a.667.667,0,0,1-.442-.122.578.578,0,0,1-.164-.311A1.563,1.563,0,0,1,.707.257a1.617,1.617,0,0,1,1.888.1,1.478,1.478,0,0,1,.446,1.759,1.9,1.9,0,0,1-.562.629c-.088.067-.328.015-.445-.064-.066-.043-.055-.261-.02-.384.045-.158.163-.3.222-.452A.717.717,0,0,0,2.021,1,.644.644,0,0,0,1.281.89a.709.709,0,0,0-.42.765c0,.048.017.095.037.213" transform="translate(31.449 19.3)" fill="#1a1311"/>
          <path id="Path_374" data-name="Path 374" d="M.916,0A1.584,1.584,0,0,1,2.457.961,1.5,1.5,0,0,1,2.2,2.645,1.454,1.454,0,0,1,.626,3.1a.774.774,0,0,1-.384-.181C.134,2.783.01,2.566.052,2.437c.036-.11.292-.192.458-.206s.319.1.484.115a.766.766,0,0,0,.767-.436.661.661,0,0,0-.042-.748A.73.73,0,0,0,.9.84C.787.868.675.917.56.95A.385.385,0,0,1,.028.724.4.4,0,0,1,.285.2,5.022,5.022,0,0,1,.916,0" transform="translate(15.305 29.721)" fill="#1a1311"/>
          <path id="Path_375" data-name="Path 375" d="M1.249,0A1.262,1.262,0,0,1,2.516,1.221a1.32,1.32,0,0,1-1.3,1.29A1.231,1.231,0,0,1,0,1.253,1.3,1.3,0,0,1,1.249,0M1.8,1.292c-.27-.2-.419-.384-.606-.436C.971.792.753,1.058.784,1.3a.411.411,0,0,0,.482.4c.157-.027.289-.214.536-.414" transform="translate(15.26 7.102)" fill="#1a1311"/>
          <path id="Path_376" data-name="Path 376" d="M2.37,1.148A1.34,1.34,0,0,1,1.288,2.389,1.277,1.277,0,0,1,0,1.2,1.162,1.162,0,0,1,1.162,0,1.157,1.157,0,0,1,2.37,1.148M1.255.549c-.182.311-.349.476-.35.641,0,.117.209.3.354.336a.282.282,0,0,0,.356-.33A2.67,2.67,0,0,0,1.255.549" transform="translate(12.238 17.63)" fill="#1a1311"/>
          <path id="Path_377" data-name="Path 377" d="M1.384,2.416A1.036,1.036,0,0,1,.005,1.263,1.4,1.4,0,0,1,1.5,0,1.427,1.427,0,0,1,2.878,1.4c0,.228-.035.456-.317.485s-.366-.173-.393-.409c-.006-.048,0-.1-.007-.145a.711.711,0,0,0-.613-.7.7.7,0,0,0-.784.393.774.774,0,0,0,.079.944,4.4,4.4,0,0,0,.54.449" transform="translate(30.517 27.007)" fill="#1a1311"/>
          <path id="Path_378" data-name="Path 378" d="M1.125,2.309A1.054,1.054,0,0,1,0,1.194,1.194,1.194,0,0,1,1.183,0,1.135,1.135,0,0,1,2.352,1.184,1.14,1.14,0,0,1,1.125,2.309M1.757,1.23A.605.605,0,0,0,1.18.618a.592.592,0,0,0-.536.494.664.664,0,0,0,.552.65.545.545,0,0,0,.561-.532" transform="translate(27.291 13.142)" fill="#1a1311"/>
          <path id="Path_379" data-name="Path 379" d="M1.484,2.271a6.28,6.28,0,0,0,.367-.541.611.611,0,0,0-.1-.791.749.749,0,0,0-.57-.151C.885.855.8,1.123.819,1.416a.542.542,0,0,1-.01.282c-.064.114-.174.278-.27.281a.745.745,0,0,1-.415-.19c-.065-.048-.081-.17-.1-.262A1.3,1.3,0,0,1,.6.228,1.283,1.283,0,0,1,2.091.246a1.165,1.165,0,0,1,.5,1.255c-.1.516-.424.762-1.109.771" transform="translate(10.991 24.149)" fill="#1a1311"/>
          <path id="Path_380" data-name="Path 380" d="M.438.625c.037.351.05.514.07.676a.551.551,0,0,0,.513.517A.635.635,0,0,0,1.691,1.5a.517.517,0,0,0-.136-.7L1.1.367c.362-.455.7-.477,1.082-.118a1.3,1.3,0,0,1,.18,1.591,1.379,1.379,0,0,1-1.559.611A1.143,1.143,0,0,1,.057,1.016C.093.91.225.837.438.625" transform="translate(35.326 31.612)" fill="#1a1311"/>
          <path id="Path_381" data-name="Path 381" d="M2.279,1.126A1.037,1.037,0,0,1,1.218,2.168C.4,2.163-.02,1.786,0,1.088A1.145,1.145,0,0,1,1.2,0,1.1,1.1,0,0,1,2.279,1.126m-.9.5a1.715,1.715,0,0,0,.27-.519A.4.4,0,0,0,1.184.687a.367.367,0,0,0-.346.452c.039.225.1.482.539.486" transform="translate(18.424 12.71)" fill="#1a1311"/>
        </g>
      </g>
    </g>
    <g id="icon_おやつ_07" transform="matrix(0.985, 0.174, -0.174, 0.985, 105.337, 4062.855)">
      <g id="Rectangle_68-2" data-name="Rectangle 68" transform="translate(0 0)" fill="#fff" stroke="#1a1311" stroke-width="2">
        <rect width="68.232" height="68.232" rx="10" stroke="none"/>
        <rect x="1" y="1" width="66.232" height="66.232" rx="9" fill="none"/>
      </g>
      <g id="Group_74" data-name="Group 74" transform="translate(9.707 12.738)">
        <g id="Group_73" data-name="Group 73" transform="translate(0 0)" clip-path="url(#clip-path-2)">
          <path id="Path_359" data-name="Path 359" d="M26.6,4.716a3.793,3.793,0,0,1,1.928-1.045,7.649,7.649,0,0,1,3.848.32,2.916,2.916,0,0,1,.572.328c3.012,2,6.011,4.03,9.042,6.005,1.59,1.036,3.244,1.971,4.857,2.974a2.441,2.441,0,0,1,1.3,2.292c-.063,1.009-.23,2.012-.3,3.02-.09,1.3-.13,2.6-.192,3.894a6.72,6.72,0,0,1-.034.79,9.523,9.523,0,0,0-.089,2.771,4.684,4.684,0,0,1-2.377,4.678c-.217.148-.418.324-.642.46a3.825,3.825,0,0,1-.917.484c-1.213.327-2.439.6-3.656.908-.854.218-1.713.429-2.548.709-1.349.452-2.763.573-4.133.9-1.282.309-2.566.638-3.814,1.059-1.378.464-2.712,1.06-4.077,1.563-1.448.534-2.912,1.022-4.364,1.542-1.184.423-2.359.871-3.545,1.289-.5.175-1.019.289-1.522.449-1.956.619-3.908,1.254-5.866,1.865-.44.138-.9.192-1.352.306a12.34,12.34,0,0,0-1.262.379,3.054,3.054,0,0,1-1.87.212c-.464-.114-.974-.045-1.434-.168a4.139,4.139,0,0,1-2.994-2.459,9.813,9.813,0,0,1-.8-3.651C.341,35.477.107,34.364.028,33.244c-.056-.789-.013-1.585-.01-2.377,0-.331.019-.662.018-.992A3.02,3.02,0,0,1,1.2,27.395c.935-.773,1.819-1.609,2.723-2.419q5.6-5.014,11.207-10.023a2.035,2.035,0,0,0,.722-1.274A16.5,16.5,0,0,1,16.9,10.2a17.139,17.139,0,0,0,.532-1.9c.034-.128.047-.263.089-.387.578-1.735,1.129-3.478,1.754-5.2a13.656,13.656,0,0,1,1.016-2A1.3,1.3,0,0,1,21.676.014c.241.031.486.01.727.037a1.057,1.057,0,0,1,.508.127c.824.633,1.76,1.113,2.215,2.175A17.9,17.9,0,0,0,26.6,4.716m-11,11.44c-.148.11-.259.178-.355.264C12.9,18.5,10.56,20.593,8.209,22.666c-2.119,1.869-4.257,3.716-6.378,5.583a1.753,1.753,0,0,0-.409.587c-.235.53-.055.792.54.775a3.632,3.632,0,0,0,.834-.16c.3-.082.58-.215.876-.3Q24.446,23.275,45.22,17.4a2.536,2.536,0,0,0,1.7-1.552,1.059,1.059,0,0,0-.324-1.312,6.925,6.925,0,0,0-.737-.562c-2.109-1.411-4.2-2.847-6.34-4.217Q35.812,7.376,32.041,5.1a4.2,4.2,0,0,0-4-.034,3.389,3.389,0,0,0-.715.568c.222.465.417.882.619,1.3.609,1.248,1.185,2.515,1.84,3.738a8.939,8.939,0,0,1,1.051,3.386,2.054,2.054,0,0,1-.526,1.654,7.82,7.82,0,0,1-2.924,2.207c-.494.19-1.008.333-1.489.552a3.28,3.28,0,0,1-1.937.232,4.56,4.56,0,0,0-2.783.324,3.415,3.415,0,0,1-1.941.25c-.241-.027-.481-.088-.722-.1a2.411,2.411,0,0,1-2.344-1.8c-.147-.408-.365-.789-.569-1.223M1.741,38.717a5.939,5.939,0,0,0,1.995,2.625,3.346,3.346,0,0,0,3.5.332,9.836,9.836,0,0,1,1.5-.5c.273-.085.556-.135.831-.216q3.429-1,6.856-2.014c.4-.119.79-.277,1.182-.427.474-.182.939-.388,1.417-.555,2.021-.7,4.052-1.376,6.067-2.092,1.2-.428,2.412-.864,3.578-1.389a19.364,19.364,0,0,1,3.927-1.149A45.638,45.638,0,0,0,38,32.069c.458-.159.927-.288,1.4-.407,1.217-.307,2.446-.573,3.655-.908a4.687,4.687,0,0,0,3.329-5.187,4.3,4.3,0,0,0-1.713.416c-1.306.4-2.63.762-3.909,1.241-2.709,1.016-5.489,1.794-8.261,2.606a2.987,2.987,0,0,1-.584.118,24.409,24.409,0,0,0-3.792.554,30.072,30.072,0,0,0-3.064.816c-1.426.522-2.8,1.184-4.208,1.755a14.27,14.27,0,0,1-3.067,1c-1.366.224-2.718.558-4.057.916-1.851.493-3.684,1.056-5.527,1.582-.381.108-.785.144-1.158.273-1.747.6-3.486,1.229-5.3,1.87m45.3-20.792c-.155.09-.26.162-.373.215a12.084,12.084,0,0,1-1.684.755q-19.994,5.68-40,11.327a14.463,14.463,0,0,1-3.473.7,3.825,3.825,0,0,0-.337,2.8c.73-.155,1.469-.287,2.192-.473a19.933,19.933,0,0,0,2.914-.842,9.344,9.344,0,0,1,3.795-.734,4.451,4.451,0,0,0,2.046-.445,17.567,17.567,0,0,1,1.946-.826c.871-.311,1.76-.578,2.647-.84.653-.194,1.318-.352,1.978-.523.295-.077.595-.135.886-.223.252-.077.494-.187.742-.277.848-.308,1.7-.606,2.545-.923a22.288,22.288,0,0,1,3.385-1.105c1.857-.376,3.706-.8,5.535-1.29,1.617-.432,3.207-.966,4.8-1.478.943-.3,1.882-.623,2.8-.984,1.312-.514,2.591-1.118,3.915-1.6A22.938,22.938,0,0,1,46.5,19.918a.551.551,0,0,0,.367-.322,4.009,4.009,0,0,0,.176-1.671M31.515,29.307c-.84-.707-1.586-1.292-2.28-1.933A1.31,1.31,0,0,0,27.94,27a32.05,32.05,0,0,0-4.475,1.166c-.545.194-1.083.41-1.7.645.515.269.936.459,1.327.7.523.323.522.436.14.926-.3.384-.585.779-.877,1.168l.11.142c.541-.225,1.085-.446,1.625-.677.2-.086.387-.216.594-.284A27.76,27.76,0,0,1,31,29.41c.126-.01.249-.049.514-.1M39.4,23.459c-1.142.388-2.262.763-3.377,1.156a.7.7,0,0,0-.323.292c-.675,1.134-1.338,2.274-2,3.414-.081.14-.136.3-.242.529,2.242-.563,4.329-1.271,6.405-1.955a9.883,9.883,0,0,0-.461-3.436M10.736,32.33a3.919,3.919,0,0,0,.916.611,5.579,5.579,0,0,1,1.792,1.085.727.727,0,0,0,.667.174c1.07-.242,2.145-.467,3.289-.713.243-1.182.49-2.373.745-3.608a13.475,13.475,0,0,0-3.34.866c-1.335.5-2.655,1.033-4.068,1.586m-2.189.2a1.95,1.95,0,0,0-1.376.274,7.056,7.056,0,0,1-2.092.778c-.734.137-1.453.352-2.177.538-.206.054-.407.129-.69.22.361.284.643.521.94.735A.794.794,0,0,1,3.479,36.1,10.53,10.53,0,0,0,3.2,37.346c1.31-.59,2.668-.514,3.82-1.214a.957.957,0,0,1-.081-1.345c.289-.466.626-.9.946-1.35.2-.282.41-.56.668-.911M44.61,21.409a1.605,1.605,0,0,1,.361.187c.65.6.687.893.22,1.633-.07.112-.156.212-.231.321-.439.646-.876,1.294-1.4,2.067l2.977-.93a24.118,24.118,0,0,0,.24-4.1c-.717.211-1.483.151-2.169.822m-17.24-8.652c.431,0,.606-.131.622-.411s-.156-.461-.491-.515a1.767,1.767,0,0,0-.33-.009.425.425,0,0,0-.468.373.456.456,0,0,0,.339.5,1.529,1.529,0,0,0,.328.057m-3.911.619a.667.667,0,0,0-.639-.627.46.46,0,0,0-.446.472.634.634,0,0,0,.633.623.469.469,0,0,0,.453-.468m1.96,3.1c.263,0,.491-.063.55-.355.045-.223-.272-.515-.566-.546a.476.476,0,0,0-.54.445.53.53,0,0,0,.556.456M21.1,6.159a1.134,1.134,0,0,0-.38-.236.505.505,0,0,0-.545.516.4.4,0,0,0,.412.418c.246.016.512-.3.513-.7m-1.773,8.856a.458.458,0,0,0-.465.448.526.526,0,0,0,.534.468.4.4,0,0,0,.419-.408.5.5,0,0,0-.489-.508M24.3,8.527a.447.447,0,0,0-.509.388.473.473,0,0,0,.509.4.444.444,0,0,0,.474-.363c.05-.206-.2-.413-.474-.425M20.016,9.945a.4.4,0,0,0-.367.451.373.373,0,0,0,.449.36c.244-.019.419-.135.421-.4a.481.481,0,0,0-.5-.411m3.228-7.466a2.359,2.359,0,0,0-.356.568c-.049.193.105.319.314.322.243,0,.561-.248.488-.413s-.241-.266-.445-.476" transform="translate(0 -0.001)" fill="#1a1311"/>
          <path id="Path_360" data-name="Path 360" d="M0,.756C.18.556.267.4.4.327A2.057,2.057,0,0,1,1.193.021,4.623,4.623,0,0,1,3.865.468C5.527,1.4,6.92,2.717,8.583,3.635c.558.308,1.133.59,1.679.92.808.488,1.594,1.013,2.4,1.51.28.174.582.309.872.466.186.1.348.246.258.472-.107.272-.339.247-.555.132-.6-.319-1.207-.635-1.8-.974-.686-.393-1.362-.8-2.035-1.216A39.314,39.314,0,0,1,5.452,2.3,21.094,21.094,0,0,0,3.077.745,2.228,2.228,0,0,0,2.247.6,2.362,2.362,0,0,0,.459.83C.393.877.235.8,0,.756" transform="translate(28.205 5.391)" fill="#1a1311"/>
          <path id="Path_361" data-name="Path 361" d="M1.249,3.824c-.33,0-.662.019-.99-.011C.159,3.8-.011,3.64,0,3.574a.55.55,0,0,1,.244-.328.681.681,0,0,1,.386-.054,8.551,8.551,0,0,0,2.546-.325A3,3,0,0,0,4.1,2.52,13.286,13.286,0,0,1,7,1.267C8.2.883,9.392.488,10.59.11A1.916,1.916,0,0,1,11.3,0a.539.539,0,0,1,.361.3c.031.073-.114.3-.226.343a21.961,21.961,0,0,1-2.106.775A19.808,19.808,0,0,0,4.469,3.284a1.947,1.947,0,0,1-.666.281c-.845.14-1.7.246-2.544.364l-.01-.105" transform="translate(6.196 22.679)" fill="#1a1311"/>
          <path id="Path_362" data-name="Path 362" d="M.069,3.874A6.882,6.882,0,0,1,.826,3.75,9.124,9.124,0,0,0,4.46,2.856a4.513,4.513,0,0,1,1.309-.444A3.33,3.33,0,0,0,8.062.778,4.346,4.346,0,0,1,8.611.125.357.357,0,0,1,9.146.116a.386.386,0,0,1,.029.541,8.085,8.085,0,0,1-1.717,1.99,2.341,2.341,0,0,1-1.4.516,3.113,3.113,0,0,0-1.5.443,7.669,7.669,0,0,1-3.289.914A2.637,2.637,0,0,1,.419,4.41C.26,4.363.138,4.194,0,4.081l.069-.207" transform="translate(23.513 16.055)" fill="#1a1311"/>
          <path id="Path_363" data-name="Path 363" d="M8.673,1.293a3.235,3.235,0,0,1-.405.638,2.832,2.832,0,0,1-1.406.689q-2.523.529-5.036,1.1A7.591,7.591,0,0,0,.9,4.068a1.273,1.273,0,0,1-.494.152.535.535,0,0,1-.4-.254.478.478,0,0,1,.176-.431A3.878,3.878,0,0,1,1.214,3.1c1.568-.359,3.145-.674,4.714-1.027a8.344,8.344,0,0,0,1.506-.458c.465-.2.5-.383.338-.848C7.73.645,7.626.536,7.608.412A1.518,1.518,0,0,1,7.657,0c.138.037.347.031.4.119.226.368.405.763.614,1.174" transform="translate(36.377 14.117)" fill="#1a1311"/>
          <path id="Path_364" data-name="Path 364" d="M.507.734C.289.7.03.679,0,.361-.019.139.223-.02.522,0s.514.2.485.42C.973.7.77.756.507.734" transform="translate(42.653 12.812)" fill="#1a1311"/>
          <path id="Path_365" data-name="Path 365" d="M19.9,0c.085.07.256.148.309.277.027.067-.127.283-.238.325-.949.354-1.9.718-2.864,1.011-1.329.4-2.676.741-4.015,1.109q-2.069.569-4.138,1.141c-.233.065-.469.122-.7.2a26.687,26.687,0,0,1-3.171.922C3.575,5.3,2.1,5.754.609,6.15c-.085.023-.176.1-.244.086a.642.642,0,0,1-.356-.2c-.038-.055.056-.249.14-.321a.857.857,0,0,1,.365-.13C1.543,5.345,2.584,5.145,3.6,4.86c1.421-.4,2.821-.868,4.233-1.3q2.054-.622,4.115-1.221c1.037-.3,2.084-.565,3.119-.876,1.477-.444,2.945-.916,4.418-1.375.1-.032.214-.049.41-.092" transform="translate(24.389 28.333)" fill="#1a1311"/>
        </g>
      </g>
    </g>
    <g id="icon_おやつ_06" transform="matrix(0.985, -0.174, 0.174, 0.985, -28.344, 4065.035)">
      <g id="Rectangle_68-3" data-name="Rectangle 68" transform="translate(0 0)" fill="#fff" stroke="#1a1311" stroke-width="2">
        <rect width="68.232" height="68.232" rx="10" stroke="none"/>
        <rect x="1" y="1" width="66.232" height="66.232" rx="9" fill="none"/>
      </g>
      <g id="Group_70" data-name="Group 70" transform="translate(12.361 8.584)">
        <g id="Group_69" data-name="Group 69" transform="translate(0 0)" clip-path="url(#clip-path-3)">
          <path id="Path_351" data-name="Path 351" d="M6.077,20.6c-.173-.091-.285-.155-.4-.211A9.651,9.651,0,0,1,.108,12.6,10.806,10.806,0,0,1,3.332,3.262,10.576,10.576,0,0,1,11.2,0a9.406,9.406,0,0,1,8.633,5.808c.074.194.142.39.222.608a.893.893,0,0,0,.216-.02,8.623,8.623,0,0,1,7.251.627A10.151,10.151,0,0,1,32.9,14.06a7.407,7.407,0,0,1-2.129,7.186,1.494,1.494,0,0,0-.11.131.838.838,0,0,0-.033.114c.172.323.373.684.561,1.052q3.525,6.972,7.047,13.948c1.638,3.248,3.286,6.49,4.877,9.759A3.242,3.242,0,0,1,39.6,50.975a2.979,2.979,0,0,1-1.194-.6Q28.886,42.27,19.359,34.174c-.562-.478-1.1-.985-1.708-1.529-.175.116-.37.254-.574.379a8.143,8.143,0,0,1-9.074.2,7.555,7.555,0,0,1-3.6-5.6,9.445,9.445,0,0,1,1.427-6.634c.071-.111.14-.222.249-.392M19.423,6.788a.7.7,0,0,0-.007-.153,8.736,8.736,0,0,0-8.782-5.6A9.219,9.219,0,0,0,4.578,3.716a9.928,9.928,0,0,0-3.072,9.971,8.212,8.212,0,0,0,4.453,5.521,1.415,1.415,0,0,0,1.305.032c.47-.2.96-.349,1.443-.515a2.675,2.675,0,0,1,1.623-.044,1.929,1.929,0,0,0,2.023-.569,2.353,2.353,0,0,1,2.066-.712c.218.023.44.016.7.023,0-.278,0-.493.005-.63a14.476,14.476,0,0,1-1.7-.509,6.555,6.555,0,0,0-3.408-.642,3.37,3.37,0,0,0-1.94.813,1.546,1.546,0,0,1-.3.254,1.621,1.621,0,0,1-.422.062,1.835,1.835,0,0,1,.115-.428,2.909,2.909,0,0,1,1.5-1.327,5.1,5.1,0,0,1,3.5-.2c.5.181,1,.335,1.506.5a5.774,5.774,0,0,0,.653.188.886.886,0,0,0,1.162-.707,2.121,2.121,0,0,0,.052-.839,10.139,10.139,0,0,0-.277-.979,9.786,9.786,0,0,1-.326-1.487A6.836,6.836,0,0,1,16.2,7.631a1.839,1.839,0,0,0,.24-1.771.616.616,0,0,1-.047-.222.484.484,0,0,1,.391-.543.455.455,0,0,1,.525.336,2.783,2.783,0,0,1-.068,2.415,6.59,6.59,0,0,0-.353.713c-.118.287-.21.586-.312.88a35.639,35.639,0,0,1,2.848-2.651M22.076,24.4a7.853,7.853,0,0,0,2.272-.515c.594-.37,1.187-.745,1.754-1.155a4.743,4.743,0,0,1,1.143-.608,11.805,11.805,0,0,0,2.066-.912,5.377,5.377,0,0,0,2.478-3.469,7.722,7.722,0,0,0-.3-4.583A9.333,9.333,0,0,0,26.176,7.7a7.385,7.385,0,0,0-5.6-.157c-1.093.408-1.2.564-1.163,1.743a.874.874,0,0,0,.472.884.985.985,0,0,1,.553,1.038,1.87,1.87,0,0,0,.026.9.4.4,0,0,1-.148.367.543.543,0,0,1-.45-.092.767.767,0,0,1-.186-.458,2.148,2.148,0,0,1,.037-.619.45.45,0,0,0-.2-.541,1.262,1.262,0,0,1-.655-1.337c.013-.314.036-.629.059-1.01a1.642,1.642,0,0,0-.843.629,14.849,14.849,0,0,1-.909,1.225,2.707,2.707,0,0,0-.642,2.324,18.56,18.56,0,0,0,.522,1.887c.484.136,1.189.046,1.268.858.139.03.252.046.359.08.24.079.4.232.361.5s-.25.359-.5.376c-.657.044-.959-.252-.957-.935a1.407,1.407,0,0,0-.025-.154l-.59-.145a6.916,6.916,0,0,1-.809,1.115.734.734,0,0,0-.286.83,2.353,2.353,0,0,1,.036.4,10.24,10.24,0,0,0,.644,2.987,1.177,1.177,0,0,0,.43.635c.112-.175.2-.323.3-.458a1.547,1.547,0,0,1,.867-.608.43.43,0,0,1,.562.245.394.394,0,0,1-.295.531c-.571.116-.779.539-1.013,1.034.245.252.483.519.743.763.29.272.611.511.9.787a4.124,4.124,0,0,0,1.43.8.48.48,0,0,0,.325.012,1.472,1.472,0,0,0,.975-.781,1.234,1.234,0,0,1,1.413-.78c.14.016.352.134.382.245.055.2-.144.272-.325.3a2.268,2.268,0,0,0-.446.079.563.563,0,0,0-.29.227c-.153.3-.269.616-.425.984M26.6,38.271c.054.1.072.187.123.23q1,.834,2.016,1.658c.212.172.386.081.533-.1s.3-.389.465-.567c.466-.5.941-.986,1.412-1.477,1.27-1.325,2.532-2.658,3.819-3.967a.536.536,0,0,0,.132-.7c-.261-.588-.5-1.184-.743-1.78-.363-.9-.553-.769-1.129-.2-1.072,1.069-2.136,2.143-3.181,3.239a42.857,42.857,0,0,0-3.447,3.66M8.833,19.756a21.835,21.835,0,0,0,.548,2.927c.277.854.247.91-.526,1.373.079.142.157.287.239.43.229.391.478.773.685,1.175s.146.546-.209.819c-.128.1-.256.2-.391.312.1.191.177.336.217.409a5.74,5.74,0,0,0-.8,1.345,15.983,15.983,0,0,0-.368,2.461,4.017,4.017,0,0,0,.09,1.015.3.3,0,0,0,.223.2.318.318,0,0,0,.228-.2,1.252,1.252,0,0,0,.015-.449,5.411,5.411,0,0,1,.379-2.878,2.08,2.08,0,0,1,1.654-1.436.555.555,0,0,0,.535-.493c.045-.259.147-.511.182-.772.124-.974.243-1.95.34-2.928a1.892,1.892,0,0,1,.974-1.625.769.769,0,0,0,.369-.536c.151-.545.328-1.083.521-1.615a9.428,9.428,0,0,1,.41-.866,1.178,1.178,0,0,0-.21-.048,1.34,1.34,0,0,0-.984.49,2.777,2.777,0,0,1-3.145.821,1.085,1.085,0,0,0-.973.072m9.186,4.222a8.064,8.064,0,0,1-2.346-2.723,15.343,15.343,0,0,0-1.209,1.419,2.019,2.019,0,0,0-.241,1.259,8.868,8.868,0,0,1-.171,2.6,1.559,1.559,0,0,1-.576.943,3.079,3.079,0,0,1-1.51.6.834.834,0,0,0-.807.808,2.791,2.791,0,0,0-.043.4,1.076,1.076,0,0,0,1.028,1.191.513.513,0,0,0,.646-.569,1.06,1.06,0,0,1,.016-.386c.452-1.162.716-1.538,1.912-1.407.019,0,.037,0,.056.006a.389.389,0,0,0,.486-.351,7.427,7.427,0,0,1,.258-.988,1.865,1.865,0,0,1,1.595-1.417,3.362,3.362,0,0,0,.375-.079l.53-1.3m7.233.93-3.2.824c0,.887.707,6.735.871,7.072.8-.821,1.6-1.628,2.385-2.447a.536.536,0,0,0,.1-.356q-.059-2.3-.135-4.6c-.005-.184-.017-.367-.024-.492M21.3,27.264l-.122-.047a9.724,9.724,0,0,1-2.86,4.864c1.036.841,2.01,1.633,3,2.442l.594-.689c-.119-1.215-.232-2.283-.333-3.352s-.19-2.145-.283-3.218m6.841-4.121a3.185,3.185,0,0,0-1.578.724.871.871,0,0,0-.371.814c.075,1.362.112,2.726.166,4.09.006.122.039.243.072.438.612-.617,1.179-1.174,1.723-1.749a.627.627,0,0,0,.15-.409c-.044-1.284-.1-2.569-.162-3.908M12.914,33.2c2.176.141,5.879-2.306,6.311-4.184a2.611,2.611,0,0,1-1.548.549c-1.162.173-1.162.177-1.741,1.163-.038.065-.073.134-.114.2a1.617,1.617,0,0,1-1.075.769c-.256.05-.492.2-.747.26-.675.153-.9.666-1.086,1.246M29.8,22.045c-.632.295-.97.658-.886,1.346.107.863.142,1.734.213,2.6a4,4,0,0,0,.082.413c.641-.662,1.227-1.268,1.811-1.873-.421-.859-.811-1.652-1.22-2.487m5.548,13.49a3.484,3.484,0,0,0,.172.582c.363.708.722,1.417,1.121,2.105,1.737,3,3.408,6.032,4.962,9.13a2,2,0,0,0,.228.39c.048.059.157.066.239.1.03-.1.111-.211.082-.282a5.569,5.569,0,0,0-.318-.6c-1.164-2.125-2.337-4.244-3.489-6.376-.829-1.531-1.629-3.078-2.444-4.617-.1-.2-.181-.426-.553-.426M30.8,26.14c-.148.542.162.844.316,1.188.17.38.371.745.562,1.115.182.353.35.715.558,1.053s.245.774.713,1.027a1.324,1.324,0,0,0-.038-.339c-.58-1.212-1.161-2.421-1.754-3.627a2.488,2.488,0,0,0-.357-.417" transform="translate(0 0)" fill="#1a1311"/>
          <path id="Path_352" data-name="Path 352" d="M.421,10.042a1.77,1.77,0,0,1-.4-1.434A.847.847,0,0,1,.195,8.2a.411.411,0,0,1,.343-.116c.1.026.19.166.232.276a1.049,1.049,0,0,1,0,.337A1.4,1.4,0,0,0,2.736,9.988a1.783,1.783,0,0,0,.881-1.505c.034-.3.037-.6.056-.907A5.184,5.184,0,0,1,5.733,3.917,5.088,5.088,0,0,0,7.422.8a3.633,3.633,0,0,1,.1-.5A.382.382,0,0,1,8,.014a.355.355,0,0,1,.282.431A10.381,10.381,0,0,1,7.99,2a6.632,6.632,0,0,1-.669,1.437,6.233,6.233,0,0,1-.847.978c-.417.437-.876.836-1.273,1.29a2.96,2.96,0,0,0-.632,2.4,2.751,2.751,0,0,1-.6,2.068,1.675,1.675,0,0,1-1.5.753,2.426,2.426,0,0,1-2.053-.886" transform="translate(2.584 2.378)" fill="#1a1311"/>
          <path id="Path_353" data-name="Path 353" d="M11.414,5.3a1.961,1.961,0,0,1-1.8.463A5.182,5.182,0,0,1,7.7,5.088a2.011,2.011,0,0,0-1.7-.075c-.533.127-1.055.3-1.588.434A9.316,9.316,0,0,0,2.182,6.567a9,9,0,0,1-1.124.538,1.4,1.4,0,0,1-.665.076A.555.555,0,0,1,.026,6.9c-.089-.2.07-.35.247-.45q.889-.5,1.777-1a10.037,10.037,0,0,1,1.239-.691,15.46,15.46,0,0,1,3.283-.87,2.454,2.454,0,0,1,1.645.31,4.642,4.642,0,0,0,1.614.514A1.3,1.3,0,0,0,11.4,3.265a6.075,6.075,0,0,1,.1-2.032,3.65,3.65,0,0,1,.353-.893c.173-.324.436-.413.644-.279s.241.35.066.659a3.151,3.151,0,0,0-.39,1.411,5.628,5.628,0,0,0,.032,1.13A1.961,1.961,0,0,1,11.414,5.3" transform="translate(17.401 11.681)" fill="#1a1311"/>
          <path id="Path_354" data-name="Path 354" d="M.136,2.126A1.6,1.6,0,0,1,.616.18c.554-.352,1.123-.2,1.862.537A1.952,1.952,0,0,1,3.828.583.667.667,0,0,1,4.19.72c.1.112.2.313.155.423s-.249.186-.4.22c-.094.021-.212-.064-.32-.1a1.081,1.081,0,0,0-.823.043c-.455.216-.591.168-.927-.22C1.817,1.017,1.763.938,1.7.87A.653.653,0,0,0,.58,1.027a5.725,5.725,0,0,0-.191.649,3.621,3.621,0,0,1-.253.449" transform="translate(19.754 19.567)" fill="#1a1311"/>
          <path id="Path_355" data-name="Path 355" d="M3.438,1.928a1.529,1.529,0,0,0-1.468-.58,3.122,3.122,0,0,0-.334.067C.855,1.583.507,1.42.082.553,0,.381-.072.175.143.049A.316.316,0,0,1,.612.228c.238.6.661.628,1.233.555A2.369,2.369,0,0,1,4.43,2.324c.082.189.1.38-.1.5s-.364.02-.474-.162c-.145-.242-.281-.49-.421-.736" transform="translate(21.625 8.626)" fill="#1a1311"/>
          <path id="Path_356" data-name="Path 356" d="M.73,2.04c-.112.292-.183.484-.259.675C.407,2.871.29,2.993.127,2.9A.4.4,0,0,1,0,2.584a2.126,2.126,0,0,1,.131-.549c.185-.519.415-.622.844-.535a1.217,1.217,0,0,0,1.3-.6A5.258,5.258,0,0,1,2.912.187.661.661,0,0,1,3.308,0a.462.462,0,0,1,.365.178c.05.1.006.357-.071.4-.5.248-.746.733-1.107,1.109A1.5,1.5,0,0,1,1.1,2.143c-.111-.019-.218-.06-.373-.1" transform="translate(26.866 17.51)" fill="#1a1311"/>
          <path id="Path_357" data-name="Path 357" d="M1.317,1.191C1.341.5,1.824.258,2.379.107A1.276,1.276,0,0,1,3.637.234,4.212,4.212,0,0,1,3.187.47c-.213.078-.439.119-.648.2-.289.115-.532.251-.494.656.031.324-.2.5-.516.576-.345.081-.688.178-1.031.273a.347.347,0,0,1-.441-.151.358.358,0,0,1,.111-.5,1.882,1.882,0,0,1,.519-.212c.2-.055.4-.079.63-.12" transform="translate(20.698 12.944)" fill="#1a1311"/>
          <path id="Path_358" data-name="Path 358" d="M1.249.332a2.541,2.541,0,0,1,.145.634.441.441,0,0,1-.258.305.351.351,0,0,1-.312-.148A.781.781,0,0,0,.247.564C.083.5-.058.372.024.17S.295-.02.462.034c.261.085.516.194.787.3" transform="translate(27.689 9.879)" fill="#1a1311"/>
        </g>
      </g>
    </g>
  </g>
</svg>
