<svg xmlns="http://www.w3.org/2000/svg" xmlns:xlink="http://www.w3.org/1999/xlink" width="1184.689" height="193.441" viewBox="0 0 1184.689 193.441">
  <defs>
    <clipPath id="clip-path">
      <rect id="Rectangle_72" data-name="Rectangle 72" width="41.84" height="63.361" fill="none"/>
    </clipPath>
    <clipPath id="clip-path-2">
      <rect id="Rectangle_71" data-name="Rectangle 71" width="59.162" height="59.556" fill="none"/>
    </clipPath>
    <clipPath id="clip-path-3">
      <rect id="Rectangle_70" data-name="Rectangle 70" width="60.69" height="54.126" fill="none"/>
    </clipPath>
    <clipPath id="clip-path-4">
      <rect id="Rectangle_69" data-name="Rectangle 69" width="54.84" height="64.361" fill="none"/>
    </clipPath>
    <clipPath id="clip-path-5">
      <rect id="Rectangle_108" data-name="Rectangle 108" width="55.037" height="53.22" fill="none"/>
    </clipPath>
    <clipPath id="clip-path-6">
      <rect id="Rectangle_109" data-name="Rectangle 109" width="57.155" height="67.453" fill="none"/>
    </clipPath>
  </defs>
  <g id="icon-camping" transform="translate(-90.656 -3563.373)">
    <g id="icon_おやつ_09" transform="matrix(0.985, 0.174, -0.174, 0.985, 1073.758, -39.269)">
      <g id="Rectangle_68" data-name="Rectangle 68" transform="translate(757 3620)" fill="#fff" stroke="#1a1311" stroke-width="3">
        <rect width="86" height="86" rx="10" stroke="none"/>
        <rect x="1.5" y="1.5" width="83" height="83" rx="8.5" fill="none"/>
      </g>
      <g id="Group_79" data-name="Group 79" transform="translate(780 3631.797)">
        <g id="Group_78" data-name="Group 78" transform="translate(0 0)" clip-path="url(#clip-path)">
          <path id="Path_382" data-name="Path 382" d="M16.722,37.512c-.082.136-.151.232-.2.336-2,4-4.013,8-5.986,12.014C8.6,53.788,6.725,57.74,4.8,61.67A2.974,2.974,0,0,1,2.765,63.3a2.244,2.244,0,0,1-2.7-2.69A5.566,5.566,0,0,1,.5,59.373c.627-1.25,1.3-2.474,1.928-3.725Q5.45,49.587,8.44,43.511c1.2-2.436,2.372-4.889,3.554-7.334.1-.212.2-.426.311-.672-.524-.357-1.023-.68-1.5-1.027a20.229,20.229,0,0,1-7.265-9.246A18.041,18.041,0,0,1,11.558,2.748,20.961,20.961,0,0,1,27.5.722a25.794,25.794,0,0,1,4.534,1.706,14.056,14.056,0,0,1,4.5,3.419A18.835,18.835,0,0,1,41.8,17.718c.4,7.028-2.5,12.465-8.314,16.359a27.879,27.879,0,0,1-3.127,1.639.792.792,0,0,0-.489.466,3.148,3.148,0,0,1-2.356,1.933,17.1,17.1,0,0,1-7.885.109c-.748-.129-1.476-.349-2.214-.528-.23-.056-.456-.119-.7-.184m-3.547-1.5c-.085.143-.159.257-.217.377C10.974,40.4,8.968,44.4,7.015,48.427,5.639,51.267,4.329,54.14,2.993,57c-.492,1.05-.977,2.1-1.468,3.151A1.626,1.626,0,0,0,1.489,61.7a1.231,1.231,0,0,0,2.185-.215c1.418-2.841,2.85-5.676,4.233-8.535,2.465-5.088,4.9-10.19,7.342-15.287.09-.189.161-.387.237-.573l-2.312-1.073M9.035,6.149c-.113.1-.251.2-.376.324A16.894,16.894,0,0,0,3.577,16.851a2.093,2.093,0,0,0,1.151,2.373q1.642.861,3.312,1.666a.819.819,0,0,1,.535.577,11.316,11.316,0,0,0,2.032,3.967,12.354,12.354,0,0,0,1.052,1.224.457.457,0,0,0,.419.075c.2-.095.152-.3.062-.469a1.164,1.164,0,0,0-.145-.192,18.6,18.6,0,0,1-1.973-2.993A8.923,8.923,0,0,1,8.9,18.842a12.809,12.809,0,0,1,1.646-6.42l.472-.821A23.368,23.368,0,0,1,9.707,8.994a23.98,23.98,0,0,1-.672-2.845M36.679,7.962a18.117,18.117,0,0,0-2.524-2.686,7.718,7.718,0,0,0-1.215-.967,24.692,24.692,0,0,0-6.788-2.633,1.887,1.887,0,0,0-1.993.54c-.066.073-.145.135-.217.2a14.077,14.077,0,0,0-2.205,2.748.68.68,0,0,1-.555.376,15.512,15.512,0,0,0-5.8,1.974,18.4,18.4,0,0,0-1.735,1.165,1.059,1.059,0,0,0-.245.254.163.163,0,0,0,.014.164c.052.046.149.095.2.075a1.741,1.741,0,0,0,.293-.2c.518-.339,1.012-.719,1.558-1A20.722,20.722,0,0,1,20.7,6.1a7.489,7.489,0,0,1,1.838-.178,14.722,14.722,0,0,1,9.2,3.569c.135.112.274.215.412.321a8.5,8.5,0,0,1,4.531-1.852M24.965,31.794a13.19,13.19,0,0,1,2.6.319,3.456,3.456,0,0,1,2.025,1.481c.176.283.347.567.535.871a17.852,17.852,0,0,0,4.825-3.039.747.747,0,0,0,.2-.287,4.979,4.979,0,0,0,.244-3.053,7.309,7.309,0,0,0-2.045-3.53,3.03,3.03,0,0,0-.337-.251c-.154.178-.284.326-.41.476a13.785,13.785,0,0,1-2.914,2.561,6.96,6.96,0,0,1-3.193,1.092,12.449,12.449,0,0,1-4.508-.412,9.341,9.341,0,0,1-4.943-2.761c-.086-.1-.258-.128-.535-.255a3.014,3.014,0,0,0,.217.717,5.16,5.16,0,0,0,.738.861,7.974,7.974,0,0,0,2.383,1.474,13.389,13.389,0,0,0,6.45.976c.154-.013.307-.01.518-.016a8.222,8.222,0,0,1-1.848,2.776m8.286-10.4c.095-.182.158-.283.2-.39a9.807,9.807,0,0,0,.755-4.92,7.76,7.76,0,0,0-2.875-5.342.629.629,0,0,0-.762-.125,11.284,11.284,0,0,0-1.306.72A15.75,15.75,0,0,0,28.03,12.4a10.5,10.5,0,0,0-3.091-1.508,9.47,9.47,0,0,0-4.018-.406,7.9,7.9,0,0,0-1.212.319c-.146.046-.321.162-.2.35a.424.424,0,0,0,.354.093A11.226,11.226,0,0,1,21.029,11,10.2,10.2,0,0,1,27.8,12.911a5.7,5.7,0,0,1,2.37,3.348,4.132,4.132,0,0,1-.941,4.069,8.926,8.926,0,0,1-1.674,1.342,5.141,5.141,0,0,1-3.652.844c-.073-.013-.158.057-.238.089l-.014.126a5.4,5.4,0,0,0,.532.161,3.991,3.991,0,0,0,2.062-.215,7.182,7.182,0,0,0,4.107-3.256,7.044,7.044,0,0,1,2.9,1.974M17.289,13.646c-.212.2-.375.339-.519.492a7.559,7.559,0,0,0-.271,9.84.984.984,0,0,0,.887.375,6.517,6.517,0,0,0,4.273-1.785,4.4,4.4,0,0,0,.386-.5c-.3-.174-.552-.3-.781-.452A9.592,9.592,0,0,1,19.722,20.5a2.9,2.9,0,0,1-.656-3.414c.055-.125.115-.247.189-.409a4.907,4.907,0,0,1-1.967-3.033M20.66,32.77a15.927,15.927,0,0,1-6.91-3.537,4.257,4.257,0,0,1-2.521,1.231c-.917.132-1.852.154-2.794.224a1.574,1.574,0,0,0,.148.2,19.774,19.774,0,0,0,6.717,4.7,1.427,1.427,0,0,0,.752.1,7.33,7.33,0,0,0,3.557-1.613A4.382,4.382,0,0,0,20.66,32.77m-4.3-19.986a18.149,18.149,0,0,1-.416-2.048,17.047,17.047,0,0,1,.06-2.013c-.221.129-.412.225-.588.343a11.274,11.274,0,0,0-5.246,10.209.724.724,0,0,0,.545.8c.709.207,1.406.443,2.118.628a3.443,3.443,0,0,0,.819.011,8.756,8.756,0,0,1,2.708-7.932m6.742,5.036c.165.136.316.257.465.385.179.156.347.333.538.475a1.252,1.252,0,0,0,1.349.116c.382-.3.723-.661.581-1.217a2.745,2.745,0,0,0-3.5-2.3,3.228,3.228,0,0,0-1.946,1.383,2.352,2.352,0,0,0,.65,3.627,5.822,5.822,0,0,0,1.695-1.412c-.141-.379-.3-.727.172-1.058M36.916,9.647c-.139.293.09.485.207.7A17.809,17.809,0,0,1,39.33,21.479a12.238,12.238,0,0,1-2.218,5.929.683.683,0,0,0-.172.308.56.56,0,0,0,.113.412.451.451,0,0,0,.425-.011,1.879,1.879,0,0,0,.422-.5,11.129,11.129,0,0,0,1.664-4.01,19.875,19.875,0,0,0-1.1-11.45,22.347,22.347,0,0,0-1.058-2.145c-.095-.184-.179-.422-.489-.369m-8.174,9.584c.639-1.3.927-2.444.089-3.622a6.944,6.944,0,0,0-1.19-1.488,3.222,3.222,0,0,0-1.382,1.234.554.554,0,0,0-.029.491,5.188,5.188,0,0,1,.69,2.095,3.292,3.292,0,0,1,1.821,1.29M19.27,25.959c.212.128.372.244.548.326a11.447,11.447,0,0,0,2.766.956A8.829,8.829,0,0,0,29.1,26.175a7.5,7.5,0,0,0,2.762-2.923c.095-.181.27-.372.022-.669a4.587,4.587,0,0,0-.352.448,7.977,7.977,0,0,1-2.287,2.577,8.421,8.421,0,0,1-7.157,1.134,21.946,21.946,0,0,1-2.233-.851c-.169-.065-.334-.251-.588.067m-4.481,1.759c-.042.03-.082.06-.125.09a1.72,1.72,0,0,0,.189.5,4.026,4.026,0,0,0,.673.672,12.477,12.477,0,0,0,6.761,2.444,5.379,5.379,0,0,0,1.072-.063c.082-.01.146-.154.217-.235-.083-.066-.166-.184-.255-.188-.316-.014-.637.039-.953.013a11.952,11.952,0,0,1-7.061-2.9,4.529,4.529,0,0,0-.518-.339m8.835,9.454c.181.35.181.357.372.4a4.589,4.589,0,0,0,2.65-.188,3.473,3.473,0,0,0,1.713-1.257,2.145,2.145,0,0,0-.029-2.57,1.65,1.65,0,0,0-.347-.323.236.236,0,0,0-.217.023.265.265,0,0,0-.07.2.42.42,0,0,0,.108.209,1.879,1.879,0,0,1-.508,2.776,3.967,3.967,0,0,1-3.043.8l-.628-.076m.868-6.589c-.149.056-.293.065-.337.136s.019.2.034.3a1.021,1.021,0,0,0,.353-.086c.037-.024-.024-.2-.05-.354M36.638,9.093l-.143-.283-.28.148c.044.075.073.188.136.215s.159-.04.287-.08M32.558,21.932c-.05-.106-.07-.218-.115-.227a.712.712,0,0,0-.258.043.7.7,0,0,0,.132.222c.037.029.132-.019.241-.039" transform="translate(0 0)" fill="#1a1311"/>
        </g>
      </g>
    </g>
    <g id="icon_おやつ_08" transform="matrix(0.985, -0.174, 0.174, 0.985, -398.293, 225.696)">
      <g id="Rectangle_68-2" data-name="Rectangle 68" transform="translate(757 3620)" fill="#fff" stroke="#1a1311" stroke-width="3">
        <rect width="86" height="86" rx="10" stroke="none"/>
        <rect x="1.5" y="1.5" width="83" height="83" rx="8.5" fill="none"/>
      </g>
      <g id="Group_76" data-name="Group 76" transform="translate(770.446 3633.625)">
        <g id="Group_76-2" data-name="Group 76" transform="translate(0 0)" clip-path="url(#clip-path-2)">
          <path id="Path_366" data-name="Path 366" d="M4.9,20.311c-.09-.254-.152-.453-.229-.647a6.6,6.6,0,0,1,.767-6.493,9.69,9.69,0,0,1,5.87-3.878c.2-.051.4-.1.658-.16a7.982,7.982,0,0,1,4.189-7.394,7.081,7.081,0,0,1,8.326.7C28.854-1.608,36.074-.4,38.209,4.445a8.758,8.758,0,0,1,7.616,1.139,7.43,7.43,0,0,1,3.863,6.477c6.047.238,9.781,7.473,6.209,12.25a8.658,8.658,0,0,1,3.222,7.541,7.743,7.743,0,0,1-4.785,6.48c2.035,5.139-1.986,11.039-7.4,11.3a1.754,1.754,0,0,0-.035.335,6.1,6.1,0,0,1-2.513,5.477,8.805,8.805,0,0,1-9.026,1.265c-.28-.107-.552-.235-.818-.349-4.273,4.914-11.657,4.213-14.84-2.511-.3.111-.6.228-.908.336a9.164,9.164,0,0,1-5.641.277,6.9,6.9,0,0,1-5.183-7.4c.022-.3.051-.59.08-.935-.186-.034-.328-.073-.471-.084a6.721,6.721,0,0,1-6-5.616,8.734,8.734,0,0,1,1-6.155c.132-.236.277-.467.458-.77A6.8,6.8,0,0,1,.118,26.38,7.344,7.344,0,0,1,4.9,20.311m3.375,23.8c.242-.015.485-.049.727-.044a1.17,1.17,0,0,1,1.231,1.565c-.055.236-.142.465-.2.7a5.021,5.021,0,0,0,3.812,6.334,7.754,7.754,0,0,0,5.631-.864c1.023-.541,1.378-.378,1.874.686A14.547,14.547,0,0,0,22.8,55.1,6.1,6.1,0,0,0,27,57.581a6.327,6.327,0,0,0,5.891-2.4,2.065,2.065,0,0,1,2.11-.7,3.7,3.7,0,0,1,.838.344,6.977,6.977,0,0,0,6.8-.468,4.31,4.31,0,0,0,1.969-5.543,1.118,1.118,0,0,1,.1-1.2,1,1,0,0,1,1.177-.179,4.193,4.193,0,0,0,2.856-.132c3.534-1.352,5.3-5.9,3.525-8.6-.5-.756-.2-1.455.626-1.881.268-.139.562-.231.838-.356a5.848,5.848,0,0,0,3.444-6.4A6.652,6.652,0,0,0,55.658,26.8c-.391-.464-.825-.89-1.248-1.327-.853-.881-.9-1.442-.111-2.359a4.617,4.617,0,0,0,1.1-3.012A6.122,6.122,0,0,0,49.223,14c-1.348.031-1.705-.389-1.532-1.7a4.454,4.454,0,0,0-.99-3.4,7.562,7.562,0,0,0-4.213-2.71,9.338,9.338,0,0,0-4.155-.067c-1.207.228-1.524.07-1.986-1.025a4.571,4.571,0,0,0-2.595-2.551,7.01,7.01,0,0,0-7.734,1.192,2.127,2.127,0,0,1-2.88.136A7.448,7.448,0,0,0,21.3,2.9,5.839,5.839,0,0,0,13.978,7.92a8.523,8.523,0,0,0,.006,1.271,1.335,1.335,0,0,1-1.1,1.621c-.52.169-1.051.3-1.574.46a8.605,8.605,0,0,0-2.973,1.543,5.159,5.159,0,0,0-1.462,6.961c.586,1.133.263,1.954-.971,2.283A5.037,5.037,0,0,0,2.28,25.576a6.426,6.426,0,0,0-.344,1.96c-.02,2.031.655,3.679,2.7,4.518a1.1,1.1,0,0,1,.583,1.714,10.081,10.081,0,0,1-.616.9,6.582,6.582,0,0,0-.631,6.825A4.249,4.249,0,0,0,8.277,44.11" transform="translate(0 0)" fill="#1a1311"/>
          <path id="Path_367" data-name="Path 367" d="M28.021,7.818c4.532-1.865,9.924,1.7,10.143,6.241.3.091.614.184.928.281a7.666,7.666,0,0,1,3.115,1.823c2.116,2.054,2.436,4.381.866,7.2a3.617,3.617,0,0,1,.689.485,6.474,6.474,0,0,1-.939,10.069,4.34,4.34,0,0,1-.789.45c-.586.252-1.057.155-1.307-.235s-.138-.832.37-1.261c.278-.235.588-.43.863-.669A5.522,5.522,0,0,0,43.922,27a4.842,4.842,0,0,0-1.536-2.727c-.9-.911-.964-1.216-.364-2.3a3.488,3.488,0,0,0-.2-3.866A6.671,6.671,0,0,0,38.95,15.8c-.468-.218-.957-.382-1.432-.583a1.312,1.312,0,0,1-.881-1.164c-.243-2.837-1.958-4.476-4.505-5.349a7.541,7.541,0,0,0-2.324-.328,3.972,3.972,0,0,0-1.466.4c-.676.276-1.127.208-1.452-.439-1.17-2.329-3.285-3-5.633-3.236a2.762,2.762,0,0,0-2.409.842c-.062.066-.131.159-.207.17-.164.024-.395.067-.489-.017a.518.518,0,0,1-.079-.478,2.143,2.143,0,0,1,1.2-1.058,5.889,5.889,0,0,1,3.659-.329,7.225,7.225,0,0,1,5.087,3.582" transform="translate(7.321 1.66)" fill="#1a1311"/>
          <path id="Path_368" data-name="Path 368" d="M18.254,36.455c-.174.08-.389.177-.6.278A6.535,6.535,0,0,1,10.33,35.39a4.62,4.62,0,0,1-1.455-3.424,2.425,2.425,0,0,1,.353-1.091c.166-.285.495-.212.63.1a1.7,1.7,0,0,1,.141.616c.039,2.572,2.626,4.247,4.587,4.408a4.877,4.877,0,0,0,2.977-.624c1.108-.654,1.25-.62,1.988.433a7.485,7.485,0,0,0,5.2,3.2,4.247,4.247,0,0,0,3.805-1.053,2.186,2.186,0,0,1,1.908-.62,9.8,9.8,0,0,0,3.975-.277,7.81,7.81,0,0,0,2.055-.929,3.152,3.152,0,0,0,1.468-2.779,2.7,2.7,0,0,1,0-.544c.034-.159.15-.426.224-.425a.69.69,0,0,1,.524.229,2.333,2.333,0,0,1,.278.943,3.934,3.934,0,0,1-1.463,3.291,7.191,7.191,0,0,1-3.783,1.678,33.873,33.873,0,0,1-3.447.184c-.332.013-.637-.046-.926.228A5.479,5.479,0,0,1,25.25,40.33a8.235,8.235,0,0,1-5.626-2.238,18.26,18.26,0,0,1-1.371-1.638" transform="translate(3.599 12.453)" fill="#1a1311"/>
          <path id="Path_369" data-name="Path 369" d="M8.948,16.69a4.916,4.916,0,0,1,1.775-7.318,5.479,5.479,0,0,1,1.739-.416c.156-.022.461.232.5.4.031.143-.209.373-.373.514-.1.09-.284.087-.43.128a3.89,3.89,0,0,0-2.541,5.136,2.95,2.95,0,0,0,.426.69c.582.748.545,1.057-.222,1.635-.436.329-.886.641-1.3.992a7.333,7.333,0,0,0-2.083,2.719,3.735,3.735,0,0,0,1.047,4.667,1.41,1.41,0,0,1,.326.313.731.731,0,0,1,.014.928.709.709,0,0,1-.9.208,2.361,2.361,0,0,1-.6-.4,4.751,4.751,0,0,1-1.3-5.467,9.731,9.731,0,0,1,3.168-4.14c.233-.19.475-.368.759-.588" transform="translate(1.891 3.633)" fill="#1a1311"/>
          <path id="Path_370" data-name="Path 370" d="M22.967,27.984A1.758,1.758,0,0,1,24.834,29.7c-.056,1.424-.689,1.986-1.83,2.049a1.851,1.851,0,0,1-1.948-1.756,1.921,1.921,0,0,1,1.912-2.009m.072,2.567a.809.809,0,0,0,.779-.628.819.819,0,0,0-.765-.85.671.671,0,0,0-.707.669.767.767,0,0,0,.693.81" transform="translate(8.541 11.353)" fill="#1a1311"/>
          <path id="Path_371" data-name="Path 371" d="M6.812,25.515a1.921,1.921,0,0,1,2.076,1.927A2.017,2.017,0,0,1,6.95,29.451,1.889,1.889,0,0,1,5.031,27.56a2.073,2.073,0,0,1,1.781-2.045m.171,1.071c-.652.025-1.036.357-1.028.891A1.05,1.05,0,0,0,7.01,28.492a.889.889,0,0,0,.956-.956.938.938,0,0,0-.983-.95" transform="translate(2.041 10.351)" fill="#1a1311"/>
          <path id="Path_372" data-name="Path 372" d="M21.163,22.378a1.615,1.615,0,0,1-1.736-1.643,1.885,1.885,0,0,1,1.8-1.908,1.853,1.853,0,0,1,1.945,1.744,1.732,1.732,0,0,1-2.007,1.806m1.155-1.688a.915.915,0,0,0-.917-.915.873.873,0,0,0-.852.87,1.158,1.158,0,0,0,.921,1.064,1.063,1.063,0,0,0,.848-1.019" transform="translate(7.881 7.637)" fill="#1a1311"/>
          <path id="Path_373" data-name="Path 373" d="M29.329,19.661a.524.524,0,0,1,.006.268c-.067.155-.176.374-.3.4a.841.841,0,0,1-.557-.153.728.728,0,0,1-.207-.392,1.97,1.97,0,0,1,.817-2.153,2.038,2.038,0,0,1,2.38.127,1.862,1.862,0,0,1,.562,2.217,2.4,2.4,0,0,1-.708.793c-.111.084-.413.018-.561-.08-.083-.055-.069-.329-.025-.484.056-.2.205-.373.28-.569a.9.9,0,0,0-.27-1.071.811.811,0,0,0-.933-.134.894.894,0,0,0-.53.964c.006.06.021.119.046.268" transform="translate(11.439 7.021)" fill="#1a1311"/>
          <path id="Path_374" data-name="Path 374" d="M14.878,26.649a2,2,0,0,1,1.943,1.212,1.885,1.885,0,0,1-.325,2.123,1.833,1.833,0,0,1-1.983.568.976.976,0,0,1-.484-.228c-.136-.167-.292-.44-.24-.6.045-.139.368-.242.578-.26s.4.128.61.145a.965.965,0,0,0,.967-.55.833.833,0,0,0-.053-.943.92.92,0,0,0-1.028-.4c-.148.035-.288.1-.433.139a.485.485,0,0,1-.671-.285.506.506,0,0,1,.323-.665,6.33,6.33,0,0,1,.8-.247" transform="translate(5.567 10.811)" fill="#1a1311"/>
          <path id="Path_375" data-name="Path 375" d="M15.257,6.368a1.59,1.59,0,0,1,1.6,1.539,1.664,1.664,0,0,1-1.635,1.626,1.552,1.552,0,0,1-1.536-1.587,1.643,1.643,0,0,1,1.574-1.579M15.955,8c-.34-.254-.529-.484-.763-.55-.284-.08-.559.254-.52.565a.518.518,0,0,0,.607.506c.2-.034.364-.27.676-.522" transform="translate(5.551 2.584)" fill="#1a1311"/>
          <path id="Path_376" data-name="Path 376" d="M13.961,17.255A1.689,1.689,0,0,1,12.6,18.819a1.609,1.609,0,0,1-1.622-1.5,1.494,1.494,0,0,1,2.987-.065M12.556,16.5c-.229.392-.44.6-.441.808,0,.148.263.378.446.423a.356.356,0,0,0,.448-.416,3.366,3.366,0,0,0-.453-.815" transform="translate(4.452 6.413)" fill="#1a1311"/>
          <path id="Path_377" data-name="Path 377" d="M29.107,27.261a1.306,1.306,0,0,1-1.737-1.453,1.762,1.762,0,0,1,1.886-1.59,1.8,1.8,0,0,1,1.735,1.766c0,.287-.044.575-.4.611s-.461-.218-.495-.516c-.007-.06-.006-.122-.008-.183a.9.9,0,0,0-.773-.886.887.887,0,0,0-.988.495.976.976,0,0,0,.1,1.189,5.549,5.549,0,0,0,.68.566" transform="translate(11.101 9.824)" fill="#1a1311"/>
          <path id="Path_378" data-name="Path 378" d="M25.889,14.694a1.328,1.328,0,0,1-1.418-1.4,1.5,1.5,0,0,1,1.491-1.505,1.456,1.456,0,1,1-.073,2.91m.8-1.359a.763.763,0,0,0-.727-.772.746.746,0,0,0-.676.623.837.837,0,0,0,.7.82.687.687,0,0,0,.707-.671" transform="translate(9.927 4.781)" fill="#1a1311"/>
          <path id="Path_379" data-name="Path 379" d="M11.726,24.516a7.916,7.916,0,0,0,.462-.682.77.77,0,0,0-.132-1,.944.944,0,0,0-.718-.19c-.367.083-.478.42-.45.79a.683.683,0,0,1-.013.356c-.08.143-.219.35-.34.354a.939.939,0,0,1-.523-.239c-.082-.06-.1-.214-.128-.33a1.67,1.67,0,0,1,2.606-1.615,1.468,1.468,0,0,1,.633,1.581c-.125.651-.534.96-1.4.971" transform="translate(3.998 8.785)" fill="#1a1311"/>
          <path id="Path_380" data-name="Path 380" d="M32.227,29.133c.046.443.063.648.089.852a.694.694,0,0,0,.647.652.8.8,0,0,0,.843-.406.652.652,0,0,0-.171-.888c-.193-.18-.384-.36-.569-.536.457-.574.884-.6,1.363-.149a1.64,1.64,0,0,1,.226,2.006,1.738,1.738,0,0,1-1.965.77,1.44,1.44,0,0,1-.943-1.809c.045-.134.212-.225.481-.492" transform="translate(12.85 11.499)" fill="#1a1311"/>
          <path id="Path_381" data-name="Path 381" d="M19.393,12.816a1.307,1.307,0,0,1-1.338,1.313c-1.026-.006-1.56-.481-1.534-1.361A1.444,1.444,0,0,1,18.038,11.4a1.38,1.38,0,0,1,1.355,1.418m-1.137.628a2.162,2.162,0,0,0,.34-.654.5.5,0,0,0-.583-.529.462.462,0,0,0-.436.569c.049.284.127.607.679.613" transform="translate(6.702 4.623)" fill="#1a1311"/>
        </g>
      </g>
    </g>
    <g id="icon_おやつ_07" transform="matrix(0.985, 0.174, -0.174, 0.985, 657.275, -71.083)">
      <g id="Rectangle_68-3" data-name="Rectangle 68" transform="translate(757 3620)" fill="#fff" stroke="#1a1311" stroke-width="3">
        <rect width="86" height="86" rx="10" stroke="none"/>
        <rect x="1.5" y="1.5" width="83" height="83" rx="8.5" fill="none"/>
      </g>
      <g id="Group_74" data-name="Group 74" transform="translate(769.235 3636.054)">
        <g id="Group_73" data-name="Group 73" transform="translate(0 0.001)" clip-path="url(#clip-path-3)">
          <path id="Path_359" data-name="Path 359" d="M33.522,5.944a4.78,4.78,0,0,1,2.43-1.317,9.641,9.641,0,0,1,4.85.4,3.675,3.675,0,0,1,.721.413c3.8,2.524,7.576,5.079,11.4,7.569,2,1.305,4.089,2.484,6.121,3.748a3.077,3.077,0,0,1,1.644,2.889c-.079,1.272-.289,2.536-.379,3.807-.114,1.634-.164,3.273-.242,4.908a8.471,8.471,0,0,1-.043,1,12,12,0,0,0-.112,3.493c.325,2.647-.915,4.479-3,5.9-.273.187-.527.409-.809.58a4.821,4.821,0,0,1-1.156.61c-1.529.412-3.074.753-4.609,1.144-1.077.275-2.159.541-3.211.894-1.7.57-3.483.723-5.209,1.14-1.616.39-3.234.8-4.807,1.334-1.737.584-3.418,1.336-5.138,1.97-1.825.674-3.67,1.288-5.5,1.943-1.493.533-2.974,1.1-4.468,1.625-.628.22-1.284.364-1.919.566-2.465.78-4.925,1.58-7.394,2.35-.554.174-1.14.242-1.7.386a15.553,15.553,0,0,0-1.59.478,3.849,3.849,0,0,1-2.358.268c-.584-.144-1.228-.056-1.808-.212a5.217,5.217,0,0,1-3.774-3.1,12.368,12.368,0,0,1-1-4.6C.43,44.716.135,43.312.036,41.9c-.071-.995-.016-2-.013-3,0-.417.024-.835.023-1.251a3.806,3.806,0,0,1,1.461-3.125C2.686,33.554,3.8,32.5,4.94,31.48Q12,25.161,19.065,18.847a2.565,2.565,0,0,0,.91-1.606,20.8,20.8,0,0,1,1.33-4.38,21.6,21.6,0,0,0,.671-2.4c.043-.161.059-.331.112-.488.728-2.186,1.423-4.384,2.211-6.549A17.212,17.212,0,0,1,25.579.908,1.637,1.637,0,0,1,27.32.017c.3.039.613.013.917.046a1.332,1.332,0,0,1,.64.16c1.039.8,2.218,1.4,2.792,2.742a22.554,22.554,0,0,0,1.852,2.979M19.658,20.363c-.187.138-.327.225-.448.332-2.955,2.624-5.9,5.259-8.863,7.873-2.671,2.356-5.366,4.683-8.038,7.037a2.21,2.21,0,0,0-.515.74c-.3.668-.069,1,.681.977a4.578,4.578,0,0,0,1.051-.2c.374-.1.731-.271,1.1-.376Q30.812,29.336,57,21.926a3.2,3.2,0,0,0,2.142-1.956,1.335,1.335,0,0,0-.409-1.654,8.728,8.728,0,0,0-.928-.708c-2.658-1.779-5.3-3.588-7.991-5.315q-4.672-3-9.424-5.862a5.292,5.292,0,0,0-5.046-.043,4.271,4.271,0,0,0-.9.715c.279.586.525,1.111.78,1.634.767,1.573,1.494,3.169,2.319,4.711a11.267,11.267,0,0,1,1.324,4.267A2.589,2.589,0,0,1,38.2,19.8a9.856,9.856,0,0,1-3.686,2.782c-.623.239-1.271.42-1.877.7a4.134,4.134,0,0,1-2.441.292,5.747,5.747,0,0,0-3.508.409,4.3,4.3,0,0,1-2.447.315c-.3-.035-.606-.111-.91-.121A3.039,3.039,0,0,1,20.374,21.9c-.186-.514-.461-.995-.717-1.541M2.195,48.8a7.485,7.485,0,0,0,2.514,3.309,4.218,4.218,0,0,0,4.414.419,12.4,12.4,0,0,1,1.885-.633c.344-.107.7-.17,1.048-.272q4.322-1.263,8.641-2.539c.505-.15,1-.35,1.49-.538.6-.229,1.183-.489,1.786-.7,2.548-.884,5.107-1.734,7.647-2.637,1.518-.54,3.04-1.09,4.509-1.75a24.407,24.407,0,0,1,4.95-1.448,57.522,57.522,0,0,0,6.812-1.59c.577-.2,1.169-.363,1.76-.512,1.534-.387,3.083-.723,4.607-1.144a5.907,5.907,0,0,0,4.2-6.537,5.425,5.425,0,0,0-2.159.524c-1.647.507-3.315.96-4.927,1.564-3.414,1.281-6.919,2.261-10.412,3.284a3.765,3.765,0,0,1-.735.148,30.765,30.765,0,0,0-4.78.7,37.9,37.9,0,0,0-3.862,1.029c-1.8.658-3.529,1.493-5.3,2.212a17.985,17.985,0,0,1-3.866,1.264c-1.721.282-3.425.7-5.114,1.154-2.333.622-4.643,1.331-6.966,1.993-.481.137-.989.181-1.459.344C6.67,47.2,4.478,47.99,2.195,48.8M59.3,22.593c-.2.114-.328.2-.471.271a15.23,15.23,0,0,1-2.123.951Q31.5,30.973,6.29,38.091a18.23,18.23,0,0,1-4.377.879A4.821,4.821,0,0,0,1.488,42.5c.92-.2,1.851-.361,2.763-.6a25.125,25.125,0,0,0,3.673-1.061,11.777,11.777,0,0,1,4.783-.925,5.61,5.61,0,0,0,2.579-.561,22.141,22.141,0,0,1,2.453-1.041c1.1-.391,2.218-.728,3.336-1.059.823-.245,1.661-.443,2.493-.659.371-.1.75-.17,1.117-.281.318-.1.623-.236.936-.35,1.069-.389,2.143-.764,3.208-1.163a28.092,28.092,0,0,1,4.266-1.393c2.34-.474,4.67-1.01,6.976-1.626,2.038-.544,4.042-1.218,6.051-1.862,1.189-.381,2.372-.786,3.533-1.241,1.654-.648,3.266-1.409,4.934-2.015A28.912,28.912,0,0,1,58.612,25.1a.7.7,0,0,0,.462-.406,5.053,5.053,0,0,0,.222-2.106M39.721,36.938c-1.059-.891-2-1.628-2.874-2.437a1.651,1.651,0,0,0-1.631-.471,40.4,40.4,0,0,0-5.641,1.47c-.687.245-1.364.517-2.145.813.649.34,1.18.579,1.672.881.659.407.658.55.177,1.167-.377.484-.737.982-1.105,1.472l.138.178c.682-.284,1.367-.563,2.048-.853.255-.108.488-.272.748-.358a34.988,34.988,0,0,1,7.964-1.731c.158-.013.314-.062.648-.131m9.941-7.371c-1.439.489-2.851.961-4.256,1.457a.876.876,0,0,0-.407.368c-.851,1.429-1.687,2.866-2.523,4.3-.1.177-.171.373-.305.666,2.825-.71,5.456-1.6,8.073-2.464a12.456,12.456,0,0,0-.581-4.331M13.532,40.749a4.94,4.94,0,0,0,1.154.77,7.032,7.032,0,0,1,2.258,1.367.916.916,0,0,0,.841.219c1.349-.305,2.7-.589,4.145-.9.307-1.49.617-2.991.938-4.548a16.984,16.984,0,0,0-4.21,1.091c-1.683.63-3.346,1.3-5.127,2M10.773,41a2.458,2.458,0,0,0-1.734.345,8.893,8.893,0,0,1-2.637.98c-.925.173-1.831.443-2.743.678-.259.068-.512.163-.869.278.455.358.81.656,1.185.927A1,1,0,0,1,4.385,45.5a13.273,13.273,0,0,0-.358,1.573c1.651-.744,3.362-.648,4.814-1.53a1.206,1.206,0,0,1-.1-1.7c.364-.587.789-1.137,1.192-1.7.253-.356.517-.705.842-1.149M56.227,26.984a2.023,2.023,0,0,1,.455.236c.819.751.866,1.126.278,2.058-.088.141-.2.268-.291.4-.553.815-1.1,1.631-1.763,2.605l3.752-1.172a30.4,30.4,0,0,0,.3-5.168c-.9.266-1.87.19-2.733,1.036M34.5,16.078c.543,0,.764-.166.784-.518s-.2-.581-.619-.649a2.227,2.227,0,0,0-.416-.012.535.535,0,0,0-.59.471.575.575,0,0,0,.427.636,1.928,1.928,0,0,0,.413.072m-4.93.78a.841.841,0,0,0-.806-.79.58.58,0,0,0-.563.594.8.8,0,0,0,.8.786.591.591,0,0,0,.571-.59m2.47,3.906c.331.006.619-.079.694-.448.056-.281-.343-.649-.714-.688a.6.6,0,0,0-.681.561.668.668,0,0,0,.7.574m-5.446-13a1.43,1.43,0,0,0-.479-.3.637.637,0,0,0-.687.651.506.506,0,0,0,.52.527c.309.02.645-.379.646-.879M24.357,18.924a.577.577,0,0,0-.586.564.663.663,0,0,0,.674.59.505.505,0,0,0,.528-.514.629.629,0,0,0-.616-.64m6.271-8.177a.563.563,0,0,0-.642.489.6.6,0,0,0,.642.5.559.559,0,0,0,.6-.458c.063-.259-.246-.521-.6-.535m-5.4,1.788a.505.505,0,0,0-.462.569.471.471,0,0,0,.566.453c.308-.024.528-.17.531-.5a.606.606,0,0,0-.635-.518M29.3,3.125a2.973,2.973,0,0,0-.449.715c-.062.243.132.4.4.406.307.006.707-.312.615-.521s-.3-.335-.561-.6" transform="translate(0 -0.001)" fill="#1a1311"/>
          <path id="Path_360" data-name="Path 360" d="M24.7,5.675c.227-.252.337-.45.505-.541a2.592,2.592,0,0,1,1-.386,5.827,5.827,0,0,1,3.368.564c2.094,1.176,3.85,2.834,5.946,3.991.7.389,1.428.744,2.116,1.16,1.019.615,2.009,1.277,3.022,1.9.353.219.734.39,1.1.587.235.127.439.309.325.594-.135.343-.427.311-.7.167-.76-.4-1.521-.8-2.267-1.228-.865-.5-1.717-1.012-2.565-1.533a49.551,49.551,0,0,1-4.978-3.338A26.588,26.588,0,0,0,28.579,5.66a2.808,2.808,0,0,0-1.046-.18,2.977,2.977,0,0,0-2.254.288c-.083.059-.282-.04-.579-.094" transform="translate(10.85 2.073)" fill="#1a1311"/>
          <path id="Path_361" data-name="Path 361" d="M7,24.68c-.416,0-.835.024-1.248-.014-.125-.012-.34-.217-.325-.3a.693.693,0,0,1,.308-.413.858.858,0,0,1,.486-.068,10.778,10.778,0,0,0,3.21-.41,3.786,3.786,0,0,0,1.159-.438,16.745,16.745,0,0,1,3.664-1.579c1.507-.484,3.01-.982,4.519-1.458a2.415,2.415,0,0,1,.894-.134.68.68,0,0,1,.455.377c.039.092-.144.376-.285.432a27.68,27.68,0,0,1-2.654.977A24.967,24.967,0,0,0,11.058,24a2.454,2.454,0,0,1-.839.354c-1.065.177-2.137.309-3.207.459L7,24.68" transform="translate(2.383 8.724)" fill="#1a1311"/>
          <path id="Path_362" data-name="Path 362" d="M20.677,18.943a8.674,8.674,0,0,1,.954-.157,11.5,11.5,0,0,0,4.581-1.127,5.688,5.688,0,0,1,1.649-.56,4.2,4.2,0,0,0,2.89-2.058,5.478,5.478,0,0,1,.692-.823.449.449,0,0,1,.674-.012.487.487,0,0,1,.036.682A10.19,10.19,0,0,1,29.99,17.4a2.95,2.95,0,0,1-1.77.651,3.924,3.924,0,0,0-1.893.558,9.666,9.666,0,0,1-4.145,1.151,3.324,3.324,0,0,1-1.062-.14c-.2-.059-.354-.272-.528-.415l.086-.261" transform="translate(9.045 6.176)" fill="#1a1311"/>
          <path id="Path_363" data-name="Path 363" d="M42.788,13.992a4.077,4.077,0,0,1-.511.8,3.57,3.57,0,0,1-1.772.868q-3.18.667-6.347,1.386a9.568,9.568,0,0,0-1.163.439,1.6,1.6,0,0,1-.623.191.674.674,0,0,1-.505-.32.6.6,0,0,1,.222-.543,4.888,4.888,0,0,1,1.3-.545c1.976-.452,3.964-.849,5.941-1.294a10.517,10.517,0,0,0,1.9-.577c.586-.255.629-.482.426-1.069-.053-.157-.184-.3-.207-.45a1.913,1.913,0,0,1,.062-.52c.174.046.438.039.507.15.285.463.511.961.774,1.48" transform="translate(13.994 5.43)" fill="#1a1311"/>
          <path id="Path_364" data-name="Path 364" d="M37.991,12.145c-.275-.046-.6-.069-.638-.471-.026-.279.279-.479.656-.452s.648.249.612.53c-.043.356-.3.42-.63.393" transform="translate(16.408 4.928)" fill="#1a1311"/>
          <path id="Path_365" data-name="Path 365" d="M46.433,24.812c.107.088.322.187.39.35.035.085-.16.357-.3.41-1.2.446-2.389.905-3.61,1.274-1.675.505-3.372.934-5.061,1.4q-2.608.717-5.216,1.438c-.294.082-.592.154-.879.253a33.636,33.636,0,0,1-4,1.161c-1.9.4-3.759.969-5.636,1.468-.107.029-.222.131-.308.108a.81.81,0,0,1-.449-.249c-.047-.069.071-.314.177-.4a1.081,1.081,0,0,1,.461-.164c1.3-.305,2.608-.557,3.889-.917,1.79-.5,3.555-1.094,5.335-1.634q2.589-.784,5.187-1.539c1.307-.38,2.627-.712,3.931-1.1,1.861-.56,3.712-1.154,5.569-1.733.131-.04.269-.062.517-.117" transform="translate(9.382 10.899)" fill="#1a1311"/>
        </g>
      </g>
    </g>
    <g id="icon_おやつ_06" transform="matrix(0.985, -0.174, 0.174, 0.985, -831.45, 194.568)">
      <g id="Rectangle_68-4" data-name="Rectangle 68" transform="translate(757 3620)" fill="#fff" stroke="#1a1311" stroke-width="3">
        <rect width="86" height="86" rx="10" stroke="none"/>
        <rect x="1.5" y="1.5" width="83" height="83" rx="8.5" fill="none"/>
      </g>
      <g id="Group_70" data-name="Group 70" transform="translate(772.58 3630.82)">
        <g id="Group_69" data-name="Group 69" transform="translate(0 0)" clip-path="url(#clip-path-4)">
          <path id="Path_351" data-name="Path 351" d="M7.66,25.967c-.218-.115-.36-.195-.5-.265A12.164,12.164,0,0,1,.136,15.877,13.62,13.62,0,0,1,4.2,4.111,13.33,13.33,0,0,1,14.117,0,11.856,11.856,0,0,1,25,7.32c.093.245.179.492.28.766a1.126,1.126,0,0,0,.272-.025,10.868,10.868,0,0,1,9.139.79,12.794,12.794,0,0,1,6.779,8.87,9.336,9.336,0,0,1-2.683,9.058,1.883,1.883,0,0,0-.139.165,1.056,1.056,0,0,0-.042.144c.217.407.471.862.707,1.326q4.443,8.787,8.883,17.58c2.065,4.094,4.141,8.18,6.147,12.3a4.086,4.086,0,0,1-4.434,5.955A3.754,3.754,0,0,1,48.4,63.5q-11.994-10.221-24-20.425c-.709-.6-1.387-1.241-2.152-1.927-.221.146-.467.32-.723.477-3.763,2.321-7.609,2.579-11.436.256a9.523,9.523,0,0,1-4.54-7.057,11.9,11.9,0,0,1,1.8-8.361c.089-.14.177-.28.314-.494M24.481,8.556a.887.887,0,0,0-.009-.192A11.011,11.011,0,0,0,13.4,1.309,11.62,11.62,0,0,0,5.771,4.684,12.513,12.513,0,0,0,1.9,17.251a10.35,10.35,0,0,0,5.612,6.959,1.783,1.783,0,0,0,1.645.041c.592-.251,1.21-.439,1.819-.649a3.371,3.371,0,0,1,2.045-.055,2.431,2.431,0,0,0,2.55-.717,2.966,2.966,0,0,1,2.6-.9c.275.029.554.02.877.029,0-.35.005-.621.007-.794a18.246,18.246,0,0,1-2.144-.642,8.262,8.262,0,0,0-4.3-.809,4.247,4.247,0,0,0-2.445,1.025,1.949,1.949,0,0,1-.381.32,2.043,2.043,0,0,1-.532.078A2.313,2.313,0,0,1,9.4,20.6,3.666,3.666,0,0,1,11.3,18.929a6.433,6.433,0,0,1,4.415-.254c.625.228,1.263.422,1.9.626a7.277,7.277,0,0,0,.822.237,1.117,1.117,0,0,0,1.465-.89,2.674,2.674,0,0,0,.065-1.058,12.78,12.78,0,0,0-.349-1.234,12.334,12.334,0,0,1-.411-1.874,8.616,8.616,0,0,1,1.213-4.864,2.318,2.318,0,0,0,.3-2.232.776.776,0,0,1-.059-.28.609.609,0,0,1,.493-.684.574.574,0,0,1,.662.424A3.507,3.507,0,0,1,21.73,9.89a8.306,8.306,0,0,0-.445.9c-.149.362-.264.739-.394,1.109,1.305-1.063,2.219-2.461,3.589-3.341m3.344,22.2a9.9,9.9,0,0,0,2.864-.649c.749-.467,1.5-.939,2.211-1.455a5.978,5.978,0,0,1,1.441-.766,14.879,14.879,0,0,0,2.6-1.149,6.777,6.777,0,0,0,3.124-4.373,9.733,9.733,0,0,0-.375-5.777,11.764,11.764,0,0,0-6.7-6.878,9.308,9.308,0,0,0-7.057-.2c-1.378.514-1.514.711-1.466,2.2a1.1,1.1,0,0,0,.595,1.114,1.242,1.242,0,0,1,.7,1.309,2.357,2.357,0,0,0,.033,1.128.507.507,0,0,1-.187.463.684.684,0,0,1-.568-.116.967.967,0,0,1-.234-.577,2.707,2.707,0,0,1,.047-.781.567.567,0,0,0-.254-.681,1.591,1.591,0,0,1-.825-1.686c.017-.4.046-.792.075-1.274a2.069,2.069,0,0,0-1.063.792,18.715,18.715,0,0,1-1.145,1.544,3.412,3.412,0,0,0-.809,2.929,23.393,23.393,0,0,0,.658,2.379c.611.171,1.5.058,1.6,1.081.175.038.318.058.452.1.3.1.51.293.455.633s-.315.452-.628.473c-.828.055-1.208-.318-1.206-1.178a1.773,1.773,0,0,0-.031-.194l-.744-.183a8.716,8.716,0,0,1-1.02,1.406A.926.926,0,0,0,20,21.437a2.966,2.966,0,0,1,.046.5,12.906,12.906,0,0,0,.812,3.765,1.483,1.483,0,0,0,.541.8c.141-.221.246-.407.373-.577a1.95,1.95,0,0,1,1.093-.766.541.541,0,0,1,.709.309.5.5,0,0,1-.371.669c-.719.146-.982.68-1.276,1.3.309.318.609.654.936.961.366.343.77.645,1.13.992a5.2,5.2,0,0,0,1.8,1,.6.6,0,0,0,.409.016,1.855,1.855,0,0,0,1.229-.985,1.556,1.556,0,0,1,1.781-.983c.177.02.443.169.481.309.069.254-.182.343-.409.378a2.859,2.859,0,0,0-.562.1.709.709,0,0,0-.366.286c-.192.378-.339.777-.536,1.24m5.7,17.482c.068.129.09.235.156.29q1.265,1.051,2.541,2.09c.267.217.486.1.672-.132s.375-.49.586-.715c.587-.626,1.186-1.242,1.78-1.862,1.6-1.67,3.192-3.35,4.813-5a.675.675,0,0,0,.166-.876c-.33-.741-.633-1.492-.936-2.244-.458-1.131-.7-.969-1.423-.246-1.351,1.347-2.692,2.7-4.009,4.082a54.018,54.018,0,0,0-4.345,4.613M11.133,24.9a27.521,27.521,0,0,0,.69,3.689c.349,1.076.311,1.147-.663,1.73.1.179.2.362.3.541.289.493.6.974.863,1.482.254.492.184.688-.263,1.032-.161.126-.323.256-.493.394.126.241.224.424.273.515a7.234,7.234,0,0,0-1.012,1.695,20.145,20.145,0,0,0-.464,3.1,5.064,5.064,0,0,0,.114,1.279.384.384,0,0,0,.281.25.4.4,0,0,0,.288-.25,1.578,1.578,0,0,0,.018-.566,6.82,6.82,0,0,1,.477-3.627,2.622,2.622,0,0,1,2.084-1.81.7.7,0,0,0,.675-.621c.056-.327.186-.645.229-.973.157-1.228.306-2.458.429-3.69a2.385,2.385,0,0,1,1.228-2.048.969.969,0,0,0,.466-.676c.191-.686.413-1.365.656-2.036a11.884,11.884,0,0,1,.517-1.092,1.485,1.485,0,0,0-.264-.06,1.689,1.689,0,0,0-1.24.617,3.5,3.5,0,0,1-3.963,1.034,1.367,1.367,0,0,0-1.227.09m11.578,5.322a10.164,10.164,0,0,1-2.957-3.432,19.339,19.339,0,0,0-1.523,1.789,2.545,2.545,0,0,0-.3,1.587,11.177,11.177,0,0,1-.216,3.272,1.965,1.965,0,0,1-.726,1.189,3.881,3.881,0,0,1-1.9.756A1.051,1.051,0,0,0,14.066,36.4a3.518,3.518,0,0,0-.054.5,1.356,1.356,0,0,0,1.3,1.5.647.647,0,0,0,.815-.717,1.336,1.336,0,0,1,.02-.486c.57-1.465.9-1.938,2.41-1.773.024,0,.047,0,.071.008a.49.49,0,0,0,.612-.442,9.36,9.36,0,0,1,.326-1.245,2.35,2.35,0,0,1,2.01-1.786,4.237,4.237,0,0,0,.472-.1l.668-1.637m9.117,1.172c-1.37.353-2.7.694-4.031,1.038,0,1.118.89,8.489,1.1,8.914,1.013-1.034,2.016-2.052,3.006-3.085a.676.676,0,0,0,.127-.449q-.075-2.9-.17-5.8c-.007-.231-.021-.463-.03-.62m-4.975,2.97-.154-.059a12.257,12.257,0,0,1-3.605,6.13c1.306,1.06,2.533,2.058,3.787,3.078.335-.387.608-.7.749-.868-.15-1.531-.293-2.878-.42-4.225s-.239-2.7-.357-4.056m8.622-5.194a4.015,4.015,0,0,0-1.989.913,1.1,1.1,0,0,0-.468,1.026c.094,1.717.141,3.436.209,5.155.008.154.05.306.09.552.771-.778,1.485-1.48,2.172-2.2a.79.79,0,0,0,.19-.515c-.055-1.619-.132-3.238-.2-4.926m-19.2,12.671c2.742.178,7.41-2.907,7.954-5.274a3.291,3.291,0,0,1-1.951.692c-1.465.218-1.465.224-2.194,1.466-.048.082-.092.169-.144.248a2.039,2.039,0,0,1-1.355.969c-.323.063-.62.255-.941.328-.851.192-1.138.839-1.369,1.57M37.56,27.786c-.8.371-1.223.829-1.117,1.7.135,1.088.179,2.185.268,3.278a5.04,5.04,0,0,0,.1.52c.808-.834,1.547-1.6,2.283-2.36-.531-1.083-1.023-2.082-1.538-3.134m6.993,17a4.392,4.392,0,0,0,.217.734c.458.892.91,1.786,1.414,2.653,2.189,3.779,4.3,7.6,6.254,11.507a2.522,2.522,0,0,0,.288.492c.06.075.2.084.3.122.038-.12.14-.265.1-.356a7.019,7.019,0,0,0-.4-.758c-1.467-2.678-2.946-5.349-4.4-8.037-1.045-1.93-2.053-3.88-3.081-5.819-.128-.246-.228-.537-.7-.537M38.821,32.947c-.187.683.2,1.064.4,1.5.214.479.468.939.709,1.406.229.445.441.9.7,1.327s.309.975.9,1.295a1.668,1.668,0,0,0-.048-.428c-.731-1.527-1.463-3.052-2.211-4.571a3.137,3.137,0,0,0-.45-.526" transform="translate(0 0)" fill="#1a1311"/>
          <path id="Path_352" data-name="Path 352" d="M3.021,14.949a2.231,2.231,0,0,1-.5-1.807,1.068,1.068,0,0,1,.213-.515.519.519,0,0,1,.433-.146c.123.033.239.209.293.348a1.322,1.322,0,0,1,0,.425,1.764,1.764,0,0,0,2.478,1.628,2.247,2.247,0,0,0,1.11-1.9c.043-.378.047-.761.071-1.143a6.534,6.534,0,0,1,2.6-4.612A6.413,6.413,0,0,0,11.845,3.3a4.579,4.579,0,0,1,.127-.629.482.482,0,0,1,.608-.362.447.447,0,0,1,.356.543,13.084,13.084,0,0,1-.374,1.961,8.359,8.359,0,0,1-.843,1.811,7.856,7.856,0,0,1-1.067,1.233c-.526.551-1.1,1.054-1.6,1.625a3.73,3.73,0,0,0-.8,3.027A3.467,3.467,0,0,1,7.5,15.116a2.111,2.111,0,0,1-1.887.949,3.057,3.057,0,0,1-2.588-1.117" transform="translate(0.766 0.705)" fill="#1a1311"/>
          <path id="Path_353" data-name="Path 353" d="M31.158,17.942a2.472,2.472,0,0,1-2.271.583,6.531,6.531,0,0,1-2.413-.853,2.535,2.535,0,0,0-2.147-.094c-.672.16-1.33.381-2,.547a11.741,11.741,0,0,0-2.8,1.411,11.34,11.34,0,0,1-1.416.679,1.76,1.76,0,0,1-.838.1.7.7,0,0,1-.464-.36c-.112-.256.088-.441.311-.568q1.12-.63,2.24-1.261a12.651,12.651,0,0,1,1.561-.871,19.486,19.486,0,0,1,4.137-1.1,3.093,3.093,0,0,1,2.074.391,5.851,5.851,0,0,0,2.035.647,1.64,1.64,0,0,0,1.98-1.819,7.657,7.657,0,0,1,.128-2.562,4.6,4.6,0,0,1,.445-1.126c.218-.408.549-.52.812-.352.245.158.3.441.084.83a3.972,3.972,0,0,0-.492,1.778,7.093,7.093,0,0,0,.041,1.424,2.472,2.472,0,0,1-1,2.575" transform="translate(5.159 3.464)" fill="#1a1311"/>
          <path id="Path_354" data-name="Path 354" d="M19.211,21.54a2.019,2.019,0,0,1,.605-2.453c.7-.443,1.415-.246,2.347.677a2.46,2.46,0,0,1,1.7-.169.84.84,0,0,1,.456.173c.122.141.247.395.195.534s-.314.234-.5.277c-.119.026-.267-.081-.4-.123a1.362,1.362,0,0,0-1.037.054c-.574.272-.745.212-1.169-.277-.077-.09-.145-.19-.226-.276a.823.823,0,0,0-1.411.2,7.216,7.216,0,0,0-.241.819,4.564,4.564,0,0,1-.319.566" transform="translate(5.857 5.802)" fill="#1a1311"/>
          <path id="Path_355" data-name="Path 355" d="M25.177,10.744a1.927,1.927,0,0,0-1.85-.731,3.935,3.935,0,0,0-.421.085c-.985.212-1.423.007-1.959-1.087-.107-.217-.194-.476.077-.636a.4.4,0,0,1,.591.226c.3.754.833.791,1.553.7a2.986,2.986,0,0,1,3.259,1.942c.1.238.132.479-.122.632s-.459.025-.6-.2c-.183-.3-.354-.617-.531-.927" transform="translate(6.412 2.558)" fill="#1a1311"/>
          <path id="Path_356" data-name="Path 356" d="M26.816,19.449c-.141.367-.23.611-.327.851-.08.2-.228.35-.433.238a.5.5,0,0,1-.16-.4,2.679,2.679,0,0,1,.165-.692c.233-.654.523-.785,1.064-.675a1.534,1.534,0,0,0,1.638-.754,6.627,6.627,0,0,1,.8-.9.833.833,0,0,1,.5-.235.582.582,0,0,1,.46.225c.063.127.008.45-.089.5-.632.313-.94.924-1.4,1.4a1.89,1.89,0,0,1-1.755.581c-.14-.024-.275-.076-.471-.131" transform="translate(7.966 5.192)" fill="#1a1311"/>
          <path id="Path_357" data-name="Path 357" d="M21.61,13.977c.03-.873.639-1.176,1.339-1.366a1.608,1.608,0,0,1,1.585.161,5.309,5.309,0,0,1-.566.3c-.268.1-.553.15-.817.255-.365.145-.671.316-.622.826.039.408-.252.633-.65.726-.435.1-.867.225-1.3.344a.437.437,0,0,1-.556-.191.451.451,0,0,1,.14-.633,2.372,2.372,0,0,1,.654-.267c.25-.069.51-.1.794-.152" transform="translate(6.137 3.838)" fill="#1a1311"/>
          <path id="Path_358" data-name="Path 358" d="M28.263,9.94a3.2,3.2,0,0,1,.183.8.555.555,0,0,1-.326.384.442.442,0,0,1-.394-.187.985.985,0,0,0-.727-.7c-.207-.08-.384-.242-.281-.5s.341-.239.552-.171c.33.107.65.245.992.375" transform="translate(8.21 2.929)" fill="#1a1311"/>
        </g>
      </g>
    </g>
    <g id="icon_おやつ_05" transform="matrix(0.985, 0.174, -0.174, 0.985, 224.118, -112.083)">
      <g id="Rectangle_68-5" data-name="Rectangle 68" transform="translate(757 3620)" fill="#fff" stroke="#1a1311" stroke-width="3">
        <rect width="86" height="86" rx="10" stroke="none"/>
        <rect x="1.5" y="1.5" width="83" height="83" rx="8.5" fill="none"/>
      </g>
      <g id="Group_2184" data-name="Group 2184" transform="matrix(0.985, -0.174, 0.174, 0.985, 768.279, 3641.572)">
        <g id="Group_2183" data-name="Group 2183" transform="translate(0 0)" clip-path="url(#clip-path-5)">
          <path id="Path_4274" data-name="Path 4274" d="M6.195,42.064a.515.515,0,0,0-.158-.091,2.939,2.939,0,0,1-2.529-2.5A52.448,52.448,0,0,1,1.8,32.283a7.659,7.659,0,0,0-.656-2.2A11.867,11.867,0,0,1,.125,23.494a11.538,11.538,0,0,1,2.694-5.3,26.47,26.47,0,0,1,4.025-3.672Q13.037,9.437,19.218,4.34q1.106-.913,2.19-1.853A10.8,10.8,0,0,1,28.506,0a6.79,6.79,0,0,1,2.481.671,11.753,11.753,0,0,0,3.934.9A6.282,6.282,0,0,1,40.033,4.64a2.686,2.686,0,0,1,.331,1.134.86.86,0,0,0,.467.724c3.514,2.058,7.039,4.1,10.523,6.206a7.347,7.347,0,0,1,3.3,8.63,5.275,5.275,0,0,1-1.674,2.4q-10.3,8.481-20.206,17.41c-3.288,2.943-6.671,5.784-10.061,8.613a24.357,24.357,0,0,1-3.5,2.4,8.8,8.8,0,0,1-2.594.927,6.753,6.753,0,0,1-7.354-3.6,43.775,43.775,0,0,1-3.068-7.418M39.817,7.82a4.138,4.138,0,0,1-2.049,2.046c-.824.473-1.641.966-2.432,1.494a5.957,5.957,0,0,0-2.935,5.7,5.891,5.891,0,0,1-.838,3.464,3.68,3.68,0,0,0-.3,3.37c.28.75.607,1.484.915,2.223.392.94.821,1.865,1.167,2.819a5.379,5.379,0,0,1,.326,1.622,3.163,3.163,0,0,1-5.246,2.666q-1.689-1.64-3.3-3.357a1.781,1.781,0,0,0-1.344-.658c-1.609-.051-1.8.026-2.429,1.515-.567,1.347-1.776,2-2.894,2.765a2.608,2.608,0,0,1-2.14.195,1.832,1.832,0,0,0-.368-.026,1.3,1.3,0,0,0-1.527,1.039c-.12.315-.19.65-.285.974a3.765,3.765,0,0,1-2.244,2.758c-.346.129-.673.312-1.022.429A1.711,1.711,0,0,0,9.614,40.2a2.3,2.3,0,0,1-1,1.395c-.216.157-.434.31-.692.495,1.09,2.387,2.11,4.732,3.23,7.03A3.6,3.6,0,0,0,14.439,51.3a14.673,14.673,0,0,0,2.033,0,6.238,6.238,0,0,0,3.253-1.218c.481-.381.879-.867,1.344-1.27q5.6-4.857,11.205-9.7c5.917-5.1,11.855-10.171,17.756-15.288A12.715,12.715,0,0,0,51.965,21.6a5.034,5.034,0,0,0,.969-3.408,4.711,4.711,0,0,0-2.257-3.914q-4.528-2.7-9.065-5.4c-.554-.33-1.111-.655-1.8-1.057M36.643,5.034A9.929,9.929,0,0,0,34.9,4.056a20.755,20.755,0,0,0-2.529-.513c-.721-.14-1.446-.267-2.158-.444-.415-.1-.8-.317-1.215-.447a4.628,4.628,0,0,0-3.078.051c-.261.1-.6.495-.574.719a1.435,1.435,0,0,0,.61.833,1.086,1.086,0,0,0,.79.073,1,1,0,0,1,1.324.65,1.08,1.08,0,0,0,1.373.63,9.536,9.536,0,0,1,1.378-.091,6.194,6.194,0,0,1,4.232,1.3,3.609,3.609,0,0,0,.785.475A.805.805,0,0,0,37,6.75a1.791,1.791,0,0,0-.359-1.716M4.162,19.768c.045.048.087.1.13.145a1.932,1.932,0,0,0,.4-.208Q11.842,13.618,18.983,7.52a2.374,2.374,0,0,0,.3-.345.1.1,0,0,0,.01-.081c-.01-.026-.038-.048-.134-.158C14.239,11.011,9.321,15.088,4.519,19.3a3.012,3.012,0,0,0-.358.463M22.115,4.106a.771.771,0,0,0-.2,1.129.988.988,0,0,0,1.406-.025.8.8,0,0,0,.023-1.156.84.84,0,0,0-1.233.051" transform="translate(0 -0.001)" fill="#1a1311"/>
          <path id="Path_4275" data-name="Path 4275" d="M32.592,17.419A10.263,10.263,0,0,0,29.827,20.6a8.093,8.093,0,0,1-1.758,1.876,12.993,12.993,0,0,1-3.385,2.546c-.384.176-.75.346-1.113.026-.33-.292-.231-.674-.124-1.035a1.386,1.386,0,0,1,.175-.425c.744-1.019,1.456-2.064,2.267-3.026a3.3,3.3,0,0,0,.918-1.662,4.559,4.559,0,0,1,.195-.81,1.685,1.685,0,0,0-.168-1.667,1.5,1.5,0,0,1-.125-1.329c.152-.66.275-1.327.369-2a1.853,1.853,0,0,0-.717-1.711c-.346-.3-.686-.617-1.007-.946a1.963,1.963,0,0,1-.17-2.4.79.79,0,0,1,.851-.419,8.509,8.509,0,0,1,3.1.712,5.135,5.135,0,0,1,1.141.76,3.188,3.188,0,0,1,.61.692,4.231,4.231,0,0,0,2.76,1.983,1.932,1.932,0,0,1,.74.369,1.741,1.741,0,0,1,.795,1.833,3.677,3.677,0,0,1-.935,1.974c-.107.112-.216.223-.331.325q-.66.576-1.327,1.149" transform="translate(15.147 4.943)" fill="#1a1311"/>
        </g>
      </g>
    </g>
    <g id="icon_おやつ_04" transform="matrix(0.985, -0.174, 0.174, 0.985, -1283.45, 144.754)">
      <g id="Rectangle_68-6" data-name="Rectangle 68" transform="translate(757 3620)" fill="#fff" stroke="#1a1311" stroke-width="3">
        <rect width="86" height="86" rx="10" stroke="none"/>
        <rect x="1.5" y="1.5" width="83" height="83" rx="8.5" fill="none"/>
      </g>
      <g id="Group_2187" data-name="Group 2187" transform="matrix(0.985, 0.174, -0.174, 0.985, 777.952, 3625.081)">
        <g id="Group_2186" data-name="Group 2186" clip-path="url(#clip-path-6)">
          <path id="Path_4276" data-name="Path 4276" d="M31.522,65.526a7.31,7.31,0,0,1-9.76-2.215c-.339.072-.707.167-1.079.225a5.356,5.356,0,0,1-5.335-1.81c-.3-.355-.558-.737-.846-1.121-3.583,1.2-6.673-.58-8.068-3.985a1.954,1.954,0,0,0-.369,0A5.194,5.194,0,0,1,.375,53.142,6.292,6.292,0,0,1,1.6,46.819a1.457,1.457,0,0,0,.347-1.314,7.577,7.577,0,0,1,2.626-7c.2-.186.422-.344.651-.526A6.327,6.327,0,0,1,7.775,30.2a6.268,6.268,0,0,1,2.617-7.782,6.215,6.215,0,0,1-.014-4.611,6.7,6.7,0,0,1,2.967-3.6A6.154,6.154,0,0,1,16.7,6.43c-.016-.124-.023-.257-.05-.385a4.485,4.485,0,0,1,1.935-4.821,5.656,5.656,0,0,1,6.286-.5A6.085,6.085,0,0,1,26.2,1.81c.623.607.6.616,1.4.3a6,6,0,0,1,5.312.38,3.656,3.656,0,0,1,1.8,2.215c.227-.061.429-.113.63-.169A6.944,6.944,0,0,1,40.1,4.8a3.869,3.869,0,0,1,2.373,2.57.9.9,0,0,0,.117.2,6.17,6.17,0,0,1,7.868,3.188,5.578,5.578,0,0,1,3.5.87,6.508,6.508,0,0,1,3.2,5.934A4.04,4.04,0,0,1,56.27,20a2.211,2.211,0,0,0-.419,2.032,6.246,6.246,0,0,1-2.133,6.294c-.163.145-.338.277-.529.432.025.136.041.269.074.4A7.7,7.7,0,0,1,51.887,35.7a4.713,4.713,0,0,1-1.189,1.12,1.279,1.279,0,0,0-.621,1.394,7.188,7.188,0,0,1-.63,4.167,5.808,5.808,0,0,1-1.68,2.1,3.222,3.222,0,0,0-.576.68.912.912,0,0,0-.063,1,3.743,3.743,0,0,1,.246,2.417,7.3,7.3,0,0,1-1.542,3.5,13.914,13.914,0,0,1-1.225,1.136c.35,3.088-.547,5.631-3.494,7.2a5.114,5.114,0,0,1-.149,3.476,5.806,5.806,0,0,1-5.778,3.549,4.237,4.237,0,0,1-2.539-1.053c-.347-.3-.735-.562-1.126-.857M23.243,1.419A4.594,4.594,0,0,0,18.992,2.65a3.021,3.021,0,0,0-.87,3.446c.288.766.092,1.223-.691,1.453-2.2.644-3.463,3.593-2.692,5.734a1.415,1.415,0,0,1-.671,2.016,5.208,5.208,0,0,0-2.184,6.178,5.415,5.415,0,0,1,.17,1.045.806.806,0,0,1-.5.859,4.743,4.743,0,0,0-2.279,2.7,3.856,3.856,0,0,0,.18,3.483c.408.7.18,1.231-.543,1.636a4.7,4.7,0,0,0-2.237,2.737,4.639,4.639,0,0,0,.02,2.994,1.662,1.662,0,0,1-.117,1.425,3.058,3.058,0,0,1-.543.607C4.117,40.852,3.048,43.012,3.8,45.776A1.249,1.249,0,0,1,3.508,47a11.047,11.047,0,0,0-.737.885A5.147,5.147,0,0,0,1.76,51.529a3.723,3.723,0,0,0,3.145,3.432,5.3,5.3,0,0,0,1.472.084,1.2,1.2,0,0,1,1.367.793,6.469,6.469,0,0,0,.38.73,7.052,7.052,0,0,0,2.5,2.57,3.682,3.682,0,0,0,3.69.2c.669-.332,1-.2,1.287.5a3.839,3.839,0,0,0,1.635,1.9,4.759,4.759,0,0,0,3.946.61,1.755,1.755,0,0,1,1.927.519,10.777,10.777,0,0,0,2.105,1.691,5.548,5.548,0,0,0,5.445.153c.366-.178.776-.541,1.093-.475.353.074.641.527.931.84a3.59,3.59,0,0,0,4.556.831,4.7,4.7,0,0,0,2.586-4.675,2.1,2.1,0,0,1,.913-1.979,5.213,5.213,0,0,1,.491-.3A4.414,4.414,0,0,0,43.5,55.344a8.305,8.305,0,0,0-.272-2.018c-.13-.666-.1-.821.508-1.093A3.263,3.263,0,0,0,45.279,50.7a7.236,7.236,0,0,0,.515-4.818,1.7,1.7,0,0,1,.9-2.14,4.912,4.912,0,0,0,2.316-5.077c-.031-.216-.044-.436-.078-.652A2.664,2.664,0,0,1,50.1,35.3a4.939,4.939,0,0,0,1.96-4.861,9.309,9.309,0,0,0-.274-1.286c-.264-.982-.219-1.164.676-1.661a4.2,4.2,0,0,0,1.7-1.843,4.608,4.608,0,0,0,.25-3.6,2.736,2.736,0,0,1,.477-2.69,3.812,3.812,0,0,0,.709-2.321,5.086,5.086,0,0,0-4.732-4.9A1.792,1.792,0,0,1,49,10.844a4.34,4.34,0,0,0-4.355-2.632,9.421,9.421,0,0,0-2.06.516,1.165,1.165,0,0,1-1.692-.849,2.317,2.317,0,0,0-1-1.452,4.521,4.521,0,0,0-5.108-.263.826.826,0,0,1-1.323-.441,1.481,1.481,0,0,1-.125-.391,2.264,2.264,0,0,0-1.369-1.744,4.541,4.541,0,0,0-4.772-.067A.886.886,0,0,1,26,3.357a6.372,6.372,0,0,1-.474-.568,3.787,3.787,0,0,0-2.284-1.37" transform="translate(0 0)" fill="#1a1311"/>
          <path id="Path_4277" data-name="Path 4277" d="M52.961,17.068c-.108.17-.292.5-.515.8a2.184,2.184,0,0,1-.475.454,2.544,2.544,0,0,0-.782,3.235,3.368,3.368,0,0,1-.795,3.572,2.328,2.328,0,0,1-.236.228,4.365,4.365,0,0,0-1.545,4.034,4.951,4.951,0,0,1-1.355,4.4,2.614,2.614,0,0,0-.81,1.9,5.031,5.031,0,0,0,.036,1.064,4.117,4.117,0,0,1-1.365,3.928,10.062,10.062,0,0,0-2.058,2.654,3.305,3.305,0,0,0-.4,1.572,9.519,9.519,0,0,1-.425,3.571,3.456,3.456,0,0,1-.87,1.365,2.882,2.882,0,0,0-1,3.171,3.758,3.758,0,0,1-1.714,4.032,2.411,2.411,0,0,0-1.14,1.251,1.634,1.634,0,0,0-.119,1.028,3.851,3.851,0,0,1-1.8,3.613,3.236,3.236,0,0,1-3.627-.227c-.416-.314-.835-.624-1.24-.953a.987.987,0,0,0-1.339-.106,2.588,2.588,0,0,1-.441.222,3.817,3.817,0,0,1-4.9-1.015c-.274-.307-.522-.637-.766-.968a2.209,2.209,0,0,0-2.173-.877c-.518.053-1.032.16-1.552.191A3.178,3.178,0,0,1,16.7,58.078c-.447-.554-.921-1.087-1.4-1.617a1.882,1.882,0,0,0-2.266-.665,4.122,4.122,0,0,1-2.268.145,3.087,3.087,0,0,1-2.41-1.907,4.2,4.2,0,0,0-1.611-1.819,1.587,1.587,0,0,0-1.089-.258c-.485.041-.978,0-1.467,0a2.213,2.213,0,0,1-1.8-3.041c.466-.9.9-1.819,1.428-2.682A2.149,2.149,0,0,0,4.087,44.3,4.213,4.213,0,0,1,4.982,40.3q.568-.755,1.181-1.475a3.345,3.345,0,0,0,.774-2.981,4.439,4.439,0,0,1,1.018-3.918A8.57,8.57,0,0,1,8.893,30.9a2.577,2.577,0,0,0,.946-2.648,4.8,4.8,0,0,1,1.394-4.358,16.868,16.868,0,0,0,1.09-1.439,1.316,1.316,0,0,0,.13-1.231,4.762,4.762,0,0,1,.976-4.763c.654-.737,1.3-1.483,1.94-2.226a1.3,1.3,0,0,0,.214-1.387,4.706,4.706,0,0,1-.322-1.1A3.757,3.757,0,0,1,16.9,8.193c.421-.307.881-.562,1.29-.879a1.942,1.942,0,0,0,.887-2.126,3.03,3.03,0,0,1,.12-1.455,1.889,1.889,0,0,1,2.579-1.189A8.309,8.309,0,0,1,23,3.356c.43.288.845.605,1.3.849a1.629,1.629,0,0,0,1.353.111c.386-.133.812-.147,1.2-.269a3.9,3.9,0,0,1,3.674.892,3.982,3.982,0,0,1,.64.638A4.409,4.409,0,0,0,32.836,6.74a1.709,1.709,0,0,0,1.35.07,4.154,4.154,0,0,1,1.2-.235,2.622,2.622,0,0,1,1.977.651c.4.374.84.715,1.206,1.118a4.864,4.864,0,0,0,1.7,1.123,1.705,1.705,0,0,0,1.362.052,6.266,6.266,0,0,1,2.686-.2,1.3,1.3,0,0,1,.691.224,9.173,9.173,0,0,1,1.872,1.575A4.768,4.768,0,0,0,50.307,13.1c2.316.3,2.926,1.972,2.654,3.967M3.306,49.077a1.529,1.529,0,0,0,.931,1.78,4.818,4.818,0,0,0,1.574.379,2.824,2.824,0,0,1,2.137.885,22.689,22.689,0,0,1,1.373,1.83,2.856,2.856,0,0,0,3.38,1.161,3.158,3.158,0,0,1,3.393.838c.516.491.99,1.028,1.467,1.558a2.362,2.362,0,0,0,2.054.824c.436-.038.87-.124,1.306-.153a3.427,3.427,0,0,1,3.058,1.068c.231.271.45.554.693.815,1.186,1.273,2.367,1.858,4.168.976a2.559,2.559,0,0,1,2.668.161c.43.292.868.576,1.292.877a2.052,2.052,0,0,0,1.311.388,2.664,2.664,0,0,0,2.421-3.294,2.008,2.008,0,0,1,.479-2.129c.383-.389.8-.751,1.217-1.1a2.466,2.466,0,0,0,.989-1.47,7.781,7.781,0,0,0,.089-1.716,4.143,4.143,0,0,1,1.236-3.436,3.5,3.5,0,0,0,1.05-2.668c0-.438-.03-.877-.061-1.315A4.908,4.908,0,0,1,42.951,41.6a14.018,14.018,0,0,1,1.461-1.447A3.418,3.418,0,0,0,45.7,36.806a4.285,4.285,0,0,1,.893-3.557,5.039,5.039,0,0,0,1.2-3.813,6.3,6.3,0,0,1,1.423-4.511A8.543,8.543,0,0,0,49.889,24a2.57,2.57,0,0,0,.307-2.129,3.972,3.972,0,0,1,1.162-4.192c.1-.094.194-.194.288-.294a1.992,1.992,0,0,0-.371-2.942,3.085,3.085,0,0,0-1.635-.483,4.294,4.294,0,0,1-3.45-1.791c-.269-.346-.6-.649-.835-1.014A2.329,2.329,0,0,0,42.6,10.28c-.3.061-.583.16-.879.217a3.361,3.361,0,0,1-2-.224,4.977,4.977,0,0,1-1.922-1.487c-1.034-1.233-2.008-1.922-3.8-1.12a1.1,1.1,0,0,1-.557.108A3.985,3.985,0,0,1,30.7,6.432c-.192-.233-.382-.469-.576-.7a2.906,2.906,0,0,0-2.887-.99c-.54.091-1.062.282-1.6.369a3.634,3.634,0,0,1-1.12.009,2.582,2.582,0,0,1-1.649-.995,2.756,2.756,0,0,0-1.808-1.048.954.954,0,0,0-1.243.946,3.3,3.3,0,0,0,.111,1.131,2.456,2.456,0,0,1-.264,1.9,4.648,4.648,0,0,1-2.018,1.757,3.1,3.1,0,0,0-1.217,1.181,2.778,2.778,0,0,0-.158,2.152,4.274,4.274,0,0,1-1.362,4.165c-.291.292-.608.555-.9.845a3.211,3.211,0,0,0-.771,3.7,2.505,2.505,0,0,1-.18,2.284,5.631,5.631,0,0,1-1.045,1.254A3.471,3.471,0,0,0,10.8,28.28,3.011,3.011,0,0,1,9.78,31.543c-.183.166-.393.3-.579.463a3.538,3.538,0,0,0-1.361,3.572,4.767,4.767,0,0,1-1.731,4.849A3.154,3.154,0,0,0,5.08,44.189a2.6,2.6,0,0,1-.372,2.5c-.2.294-.447.56-.623.868-.282.5-.521,1.015-.779,1.523" transform="translate(1.25 1.345)" fill="#1a1311"/>
          <path id="Path_4278" data-name="Path 4278" d="M18,15.581a1.681,1.681,0,0,1,1.32,1.958,1.747,1.747,0,0,1-2.105,1.453,1.677,1.677,0,0,1-1.367-2A1.8,1.8,0,0,1,18,15.581m-.61,2.661a1,1,0,0,0,1.19-.732,1.094,1.094,0,0,0-.795-1.254.969.969,0,0,0-1.178.737,1.07,1.07,0,0,0,.782,1.25" transform="translate(8.92 8.768)" fill="#1a1311"/>
          <path id="Path_4279" data-name="Path 4279" d="M12.25,13.985c-.17.419-.3.68-.385.957a1.213,1.213,0,0,0,.765,1.586,1.158,1.158,0,0,0,1.2-.316A1.062,1.062,0,0,0,14.052,15c-.081-.2-.252-.358-.339-.555a1.594,1.594,0,0,1-.056-.447,1.919,1.919,0,0,1,.522.031c.114.038.2.175.288.282a1.925,1.925,0,0,1-.141,2.418,1.87,1.87,0,0,1-2.379.4,1.83,1.83,0,0,1-.881-2.24,1.174,1.174,0,0,1,1.184-.9" transform="translate(6.179 7.889)" fill="#1a1311"/>
          <path id="Path_4280" data-name="Path 4280" d="M20.754,28.611c.149-.17.3-.341.444-.513a1.058,1.058,0,0,0,.221-1.279A1.259,1.259,0,0,0,20,26.243a1.191,1.191,0,0,0-.974.982,1.057,1.057,0,0,0,.579,1.086,1.412,1.412,0,0,0,.308.108c.23.061.569.055.49.4-.084.372-.41.272-.676.2a1.675,1.675,0,0,1-1.267-2.2,2.014,2.014,0,0,1,2.656-1.086,1.652,1.652,0,0,1,1.087,1.509,1.545,1.545,0,0,1-.867,1.475,1.371,1.371,0,0,1-.449.078l-.136-.188" transform="translate(10.36 14.428)" fill="#1a1311"/>
          <path id="Path_4281" data-name="Path 4281" d="M10.091,22.439A1.7,1.7,0,1,1,9.5,25.8a1.8,1.8,0,0,1-1.4-1.944,1.7,1.7,0,0,1,1.986-1.414M9.54,25.175a1.016,1.016,0,0,0,1.265-.745,1.039,1.039,0,0,0-.721-1.217,1.053,1.053,0,0,0-1.287.727.931.931,0,0,0,.743,1.234" transform="translate(4.562 12.643)" fill="#1a1311"/>
          <path id="Path_4282" data-name="Path 4282" d="M27.7,19.476a1.568,1.568,0,0,1-.6,3.077,1.748,1.748,0,0,1-1.284-1.818A1.559,1.559,0,0,1,27.7,19.476m-.072.663a.826.826,0,0,0-.982.633.782.782,0,0,0,.524.968.869.869,0,0,0,1.076-.616.8.8,0,0,0-.618-.985" transform="translate(14.551 10.966)" fill="#1a1311"/>
          <path id="Path_4283" data-name="Path 4283" d="M17.409,33.7a1.694,1.694,0,0,1,1.326,2.029A1.723,1.723,0,0,1,16.7,37.059a1.715,1.715,0,0,1,.71-3.357m.762,1.969a1.131,1.131,0,0,0-.766-1.353,1.162,1.162,0,0,0-1.317.712,1.126,1.126,0,0,0,.73,1.369,1.064,1.064,0,0,0,1.353-.727" transform="translate(8.648 18.989)" fill="#1a1311"/>
          <path id="Path_4284" data-name="Path 4284" d="M16.167,8.934c.169-.178.332-.344.488-.516a1.192,1.192,0,0,0,.3-1.142.808.808,0,0,0-.66-.655.842.842,0,0,0-.854.374,1.176,1.176,0,0,0-.011,1.38c.064.086.2.133.233.224a1.829,1.829,0,0,1,.05.44c-.152.008-.347.081-.447.014a1.6,1.6,0,0,1-.746-1.384,1.791,1.791,0,0,1,1.416-1.694,1.5,1.5,0,0,1,1.716.946,1.691,1.691,0,0,1-.629,2.03c-.246.156-.513.346-.852-.016" transform="translate(8.19 3.351)" fill="#1a1311"/>
          <path id="Path_4285" data-name="Path 4285" d="M12.128,31.716a1.6,1.6,0,0,1,1.243,1.921,1.55,1.55,0,0,1-1.852,1.217,1.652,1.652,0,0,1-1.289-1.979,1.58,1.58,0,0,1,1.9-1.159m-1.262,1.392a.9.9,0,0,0,.663,1.192,1.02,1.02,0,0,0,1.215-.7.973.973,0,0,0-.69-1.2.962.962,0,0,0-1.189.713" transform="translate(5.747 17.871)" fill="#1a1311"/>
          <path id="Path_4286" data-name="Path 4286" d="M13.537,26.307a.873.873,0,0,1-.558-1.014A1.7,1.7,0,0,1,14.7,23.742a1.769,1.769,0,0,1,1.786,1.591,1.715,1.715,0,0,1-1.031,1.792.644.644,0,0,1-.568-.084c-.178-.2-.02-.4.192-.526a2.18,2.18,0,0,0,.278-.172A1.075,1.075,0,1,0,13.637,25.3c-.058.283-.059.58-.1,1.009" transform="translate(7.318 13.394)" fill="#1a1311"/>
          <path id="Path_4287" data-name="Path 4287" d="M7.593,33.336a1.721,1.721,0,0,1-1.481-1.99,1.632,1.632,0,0,1,1.85-1.362,1.739,1.739,0,0,1,.66.3c.077.053.1.25.074.366-.014.067-.167.147-.258.149-.189,0-.379-.059-.569-.069a.973.973,0,0,0-.953.526.875.875,0,0,0,.067,1.006.961.961,0,0,0,1.082.394c.027-.006.053-.016.078-.023.224-.074.507-.288.64.039.142.353-.2.468-.455.543a4.938,4.938,0,0,1-.735.124" transform="translate(3.433 16.903)" fill="#1a1311"/>
          <path id="Path_4288" data-name="Path 4288" d="M23.346,37.229a1.357,1.357,0,0,1-1.7,1.106,1.4,1.4,0,0,1-1.086-1.658,1.413,1.413,0,0,1,1.717-1.111,1.371,1.371,0,0,1,1.07,1.663m-.494-.106a.828.828,0,1,0-.982.669.86.86,0,0,0,.982-.669" transform="translate(11.582 20.044)" fill="#1a1311"/>
          <path id="Path_4289" data-name="Path 4289" d="M30.692,11.708a1.235,1.235,0,0,1,1.014,1.453,1.452,1.452,0,0,1-1.666,1.123,1.256,1.256,0,0,1-1.007-1.467,1.408,1.408,0,0,1,1.66-1.109m-.541,1.935a.784.784,0,0,0,.9-.535.617.617,0,0,0-.44-.765.738.738,0,0,0-.888.535.6.6,0,0,0,.427.765" transform="translate(16.366 6.59)" fill="#1a1311"/>
          <path id="Path_4290" data-name="Path 4290" d="M23.633,27.942c0,.2-.014.352-.006.5a3.615,3.615,0,0,0,.075.807,1.229,1.229,0,0,0,1.093.859,1.151,1.151,0,0,0,1.1-.829,2.91,2.91,0,0,0,.088-.8c.009-.233-.017-.469-.028-.73.619.235.806.613.734,1.367a1.772,1.772,0,0,1-1.417,1.692,1.717,1.717,0,0,1-1.78-.91,1.584,1.584,0,0,1,.139-1.954" transform="translate(13.105 15.653)" fill="#1a1311"/>
          <path id="Path_4291" data-name="Path 4291" d="M22.1,20.536a7.288,7.288,0,0,0,.949-.145,1.045,1.045,0,0,0,.688-1.373.984.984,0,0,0-1.325-.605.945.945,0,0,0-.615.8c-.017.131.044.285,0,.4a1.53,1.53,0,0,1-.277.353c-.13-.114-.338-.2-.372-.341a1.616,1.616,0,0,1,3.074-.915,1.524,1.524,0,0,1-.693,1.965,1.14,1.14,0,0,1-1.428-.144" transform="translate(11.908 10.013)" fill="#1a1311"/>
          <path id="Path_4292" data-name="Path 4292" d="M22.077,10.48c.045-.307.086-.513.1-.72a.809.809,0,0,0-.551-.9c-.4-.131-.665.011-.91.45a.856.856,0,0,0,.109,1.181c.092.088.048.321.067.486-.175-.006-.388.048-.516-.033a1.384,1.384,0,0,1-.486-.524,1.878,1.878,0,0,1,.84-2.037,1.55,1.55,0,0,1,1.971.687,1.036,1.036,0,0,1-.13,1.218c-.081.1-.266.1-.5.186" transform="translate(11.177 4.66)" fill="#1a1311"/>
          <path id="Path_4293" data-name="Path 4293" d="M25.591,10.036c-.183.172-.377.343-.558.526-.221.221-.441.511-.239.788a1.184,1.184,0,0,0,.732.421,1.069,1.069,0,0,0,1.078-.447,1.712,1.712,0,0,1,.255-.314.235.235,0,0,1,.224-.022.405.405,0,0,1,.16.252.567.567,0,0,1-.1.3,1.97,1.97,0,0,1-2.539.624,1.228,1.228,0,0,1-.547-1.417,1.306,1.306,0,0,1,1.383-.895c.038.006.067.077.155.185" transform="translate(13.538 5.552)" fill="#1a1311"/>
        </g>
      </g>
    </g>
  </g>
</svg>
