<svg xmlns="http://www.w3.org/2000/svg" xmlns:xlink="http://www.w3.org/1999/xlink" width="206.567" height="18.334" viewBox="0 0 206.567 18.334">
  <defs>
    <clipPath id="clip-path">
      <rect id="Rectangle_56" data-name="Rectangle 56" width="206.567" height="18.334" fill="none"/>
    </clipPath>
  </defs>
  <g id="jiichiro-ttl" transform="translate(0 0)">
    <g id="Group_49" data-name="Group 49" transform="translate(0 0)" clip-path="url(#clip-path)">
      <path id="Path_328" data-name="Path 328" d="M0,12.756a3.708,3.708,0,0,0,2.032.646c1.154,0,1.593-1.2,1.593-3.14v-9.1h6V12.8c0,3.256-1.755,6.1-6.581,6.1A7.175,7.175,0,0,1,0,18.39Z" transform="translate(0 -0.61)"/>
      <rect id="Rectangle_53" data-name="Rectangle 53" width="6.004" height="17.226" transform="translate(12.03 0.554)"/>
      <rect id="Rectangle_54" data-name="Rectangle 54" width="6.004" height="17.226" transform="translate(20.435 0.554)"/>
      <path id="Path_329" data-name="Path 329" d="M72.031,6.645a5.225,5.225,0,0,0-2.956-.739,3.594,3.594,0,0,0-3.833,3.44,3.629,3.629,0,0,0,3.833,3.487,5.225,5.225,0,0,0,2.956-.739v5.657a7.761,7.761,0,0,1-3.371.6c-5.611,0-9.421-4.041-9.421-9.005S63.049.388,68.66.388a7.644,7.644,0,0,1,3.371.623Z" transform="translate(-31.022 -0.203)"/>
      <path id="Path_330" data-name="Path 330" d="M90.749,1.164h6V6.5h4.087V1.164h6V18.39h-6V11.924H96.753V18.39h-6Z" transform="translate(-47.524 -0.61)"/>
      <rect id="Rectangle_55" data-name="Rectangle 55" width="6.004" height="17.226" transform="translate(61.72 0.554)"/>
      <path id="Path_331" data-name="Path 331" d="M153.412,13.24H153.2V18.39h-5.981V1.164h6.143c3.348,0,8.1.231,8.1,6.327a4.984,4.984,0,0,1-2.494,4.179l4.18,6.72h-7.043ZM153.2,6.082V9.5h.508c1.2,0,1.94-.415,1.94-1.8,0-1.432-1.062-1.616-1.94-1.616Z" transform="translate(-77.098 -0.61)"/>
      <path id="Path_332" data-name="Path 332" d="M202.208,9.144c0,5.08-4.41,9.191-9.859,9.191-5.5,0-9.883-4.11-9.883-9.191,0-5.057,4.387-9.144,9.883-9.144,5.449,0,9.859,4.087,9.859,9.144m-13.739.047a3.876,3.876,0,0,0,7.735,0,3.873,3.873,0,0,0-7.735,0" transform="translate(-95.554 0)"/>
      <path id="Path_333" data-name="Path 333" d="M242.861,13.772V18.39h-6V1.164h6.4c3.279,0,7.9.208,7.9,6.419,0,5.149-4.826,6.189-7.9,6.189Zm0-7.689v3h.924c1.039,0,1.57-.347,1.57-1.455,0-1.386-.808-1.547-1.57-1.547Z" transform="translate(-124.038 -0.61)"/>
      <path id="Path_334" data-name="Path 334" d="M288.935,9.144c0,5.08-4.411,9.191-9.86,9.191-5.5,0-9.883-4.11-9.883-9.191,0-5.057,4.387-9.144,9.883-9.144,5.449,0,9.86,4.087,9.86,9.144M275.2,9.191a3.876,3.876,0,0,0,7.735,0,3.873,3.873,0,0,0-7.735,0" transform="translate(-140.971 0)"/>
      <path id="Path_335" data-name="Path 335" d="M325.857,6.645a5.225,5.225,0,0,0-2.956-.739,3.594,3.594,0,0,0-3.833,3.44,3.629,3.629,0,0,0,3.833,3.487,5.225,5.225,0,0,0,2.956-.739v5.657a7.761,7.761,0,0,1-3.371.6c-5.611,0-9.421-4.041-9.421-9.005s3.81-8.959,9.421-8.959a7.644,7.644,0,0,1,3.371.623Z" transform="translate(-163.947 -0.203)"/>
      <path id="Path_336" data-name="Path 336" d="M350.578,11.416V18.39h-6V1.165h6V7.953l3.648-6.788h6.859L356.235,9.13l5.519,9.26h-7.528Z" transform="translate(-180.448 -0.61)"/>
      <path id="Path_337" data-name="Path 337" d="M383.889,1.164H395.3V6.591h-5.4V7.63h4.78V11.9h-4.78v1.062h5.588V18.39H383.889Z" transform="translate(-201.036 -0.61)"/>
      <path id="Path_338" data-name="Path 338" d="M413.611,6.59h-2.332V1.164h10.668V6.59h-2.332v11.8h-6Z" transform="translate(-215.379 -0.61)"/>
    </g>
  </g>
</svg>
