<svg xmlns="http://www.w3.org/2000/svg" xmlns:xlink="http://www.w3.org/1999/xlink" width="392.79" height="1738.859" viewBox="0 0 392.79 1738.859">
  <defs>
    <clipPath id="clip-path">
      <rect width="392.79" height="1728.47" fill="none"/>
    </clipPath>
    <clipPath id="clip-path-2">
      <rect id="Rectangle_61" data-name="Rectangle 61" width="7.597" height="41.123" fill="none"/>
    </clipPath>
    <clipPath id="clip-path-3">
      <rect id="Rectangle_60" data-name="Rectangle 60" width="20.579" height="22.115" fill="none"/>
    </clipPath>
    <clipPath id="clip-path-4">
      <rect id="Rectangle_62" data-name="Rectangle 62" width="15.353" height="16.966" fill="none"/>
    </clipPath>
    <clipPath id="clip-path-6">
      <rect id="Rectangle_60-2" data-name="Rectangle 60" width="25.112" height="26.986" fill="none"/>
    </clipPath>
    <clipPath id="clip-path-7">
      <rect id="Rectangle_60-3" data-name="Rectangle 60" width="29.428" height="31.624" fill="none"/>
    </clipPath>
  </defs>
  <g id="limit-all-bgmb" transform="translate(7.5 -2975.986)">
    <g id="模様" transform="translate(-7.5 2975.986)" clip-path="url(#clip-path)">
      <g id="模様-2" data-name="模様" transform="translate(7.5 -2975.986)">
        <g id="Group_60" data-name="Group 60" transform="matrix(0.719, -0.695, 0.695, 0.719, 318.265, 2981.264)">
          <g id="Group_59" data-name="Group 59" transform="translate(0 0)" clip-path="url(#clip-path-2)">
            <path id="Path_341" data-name="Path 341" d="M2.5,7.051c.149-.879.288-1.433.34-2.055A9.222,9.222,0,0,1,4.252.5c.59-1,.933-.518,1.107,1.52.237,2.785.4,5.635.653,8.4.561,6.067.823,12.327,1.3,18.448.1,1.3.2,2.608.275,3.923.059,1.026-.094,1.748-.434,1.87-.586.21-.807,1.643-1.085,2.89-.2.88-.35,1.859-.567,2.686-.31,1.182-.572,1.161-.921.024a22.272,22.272,0,0,1-.738-3.719c-.507-3.994-1.081-7.909-1.661-11.809a6.439,6.439,0,0,0-.564-1.861,10.347,10.347,0,0,1-.841-3.9Q.4,12.95.034,6.919c-.024-.392-.043-.8-.031-1.2C.027,4.94.181,4.431.44,4.585a3.744,3.744,0,0,1,.931.854c.36.438.7,1,1.13,1.612" transform="translate(0 0.001)" fill="#1a1311"/>
          </g>
        </g>
        <g id="Group_2216" data-name="Group 2216" transform="translate(364.71 3148.241)">
          <g id="Group_57" data-name="Group 57" transform="translate(0 0)" clip-path="url(#clip-path-3)">
            <path id="Path_340" data-name="Path 340" d="M1.57,18.134a19.92,19.92,0,0,1-1.388-1.7,1.276,1.276,0,0,1-.142-.961,7.2,7.2,0,0,1,.861-2A53.051,53.051,0,0,1,5.8,7.026C6.833,5.958,7.669,4.7,8.605,3.543a5.076,5.076,0,0,1,.727-.728.665.665,0,0,1,.939.012,1.363,1.363,0,0,0,.7.3c.787.062,1.586.008,2.365.114a1.478,1.478,0,0,0,1.4-.4C16,1.6,17.726,1.109,19.169.153c.547-.364.969-.011,1.41.328a18.493,18.493,0,0,1-1.066,2.6c-1.667,2.8-3.347,5.6-5.148,8.312-1.375,2.074-2.936,4.025-4.43,6.019a.974.974,0,0,1-.577.393c-1.351.126-2.3,1.016-3.346,1.716-.659.443-1.2,1.061-1.872,1.486A8.615,8.615,0,0,1,2,22.033c-1.033.3-1.513-.264-1.209-1.3.263-.9.537-1.786.78-2.594" transform="translate(0 0)" fill="#1a1311"/>
          </g>
        </g>
        <g id="Group_2211" data-name="Group 2211" transform="translate(32.647 2976.449)">
          <g id="Group_61" data-name="Group 61" transform="translate(0 0)" clip-path="url(#clip-path-4)">
            <path id="Path_342" data-name="Path 342" d="M5.245,2.744A2.975,2.975,0,0,0,5.6,2.066C5.826.849,7.4.577,8.592.043a1.186,1.186,0,0,1,.742.04c1.38.634,3.128.888,4.142,1.894C14.6,3.092,15.8,4.128,15.19,5.695a14.168,14.168,0,0,0-.464,3.427,4.629,4.629,0,0,1-.21,1.069c-.264.7-.538.856-1.55.656a1.3,1.3,0,0,0-1.486.491c-1.2,1.4-1.387,3-1.933,4.526-.155.43.058,1.015-.9,1.1a1.57,1.57,0,0,1-1.49-.778,7.275,7.275,0,0,0-1.494-1.056A9.423,9.423,0,0,1,4.4,14.346c-1.134-1.076-2.263-2.158-3.28-3.287a3.375,3.375,0,0,1-.93-3.523A4.281,4.281,0,0,0,.292,5.184a4.3,4.3,0,0,1-.025-1.71C.41,2.829.728,2.792,1.7,2.818c1.132.031,2.27-.043,3.54-.075" transform="translate(0 0)" fill="#1a1311"/>
          </g>
        </g>
        <g id="Group_2230" data-name="Group 2230" transform="translate(241.519 3899.866)">
          <g id="Group_61-2" data-name="Group 61" transform="translate(0 0)" clip-path="url(#clip-path-4)">
            <path id="Path_342-2" data-name="Path 342" d="M5.245,2.744A2.975,2.975,0,0,0,5.6,2.066C5.826.849,7.4.577,8.592.043a1.186,1.186,0,0,1,.742.04c1.38.634,3.128.888,4.142,1.894C14.6,3.092,15.8,4.128,15.19,5.695a14.168,14.168,0,0,0-.464,3.427,4.629,4.629,0,0,1-.21,1.069c-.264.7-.538.856-1.55.656a1.3,1.3,0,0,0-1.486.491c-1.2,1.4-1.387,3-1.933,4.526-.155.43.058,1.015-.9,1.1a1.57,1.57,0,0,1-1.49-.778,7.275,7.275,0,0,0-1.494-1.056A9.423,9.423,0,0,1,4.4,14.346c-1.134-1.076-2.263-2.158-3.28-3.287a3.375,3.375,0,0,1-.93-3.523A4.281,4.281,0,0,0,.292,5.184a4.3,4.3,0,0,1-.025-1.71C.41,2.829.728,2.792,1.7,2.818c1.132.031,2.27-.043,3.54-.075" transform="translate(0 0)" fill="#1a1311"/>
          </g>
        </g>
        <g id="Group_2212" data-name="Group 2212" transform="translate(121.527 3859.507)">
          <g id="Group_57-2" data-name="Group 57" transform="translate(0 0)" clip-path="url(#clip-path-6)">
            <path id="Path_340-2" data-name="Path 340" d="M1.916,22.128A24.307,24.307,0,0,1,.222,20.058a1.558,1.558,0,0,1-.174-1.173A8.782,8.782,0,0,1,1.1,16.448,64.735,64.735,0,0,1,7.08,8.574c1.258-1.3,2.279-2.835,3.421-4.251a6.2,6.2,0,0,1,.887-.889.811.811,0,0,1,1.146.014,1.664,1.664,0,0,0,.858.371c.96.075,1.935.01,2.885.139a1.8,1.8,0,0,0,1.709-.483C19.52,1.951,21.63,1.354,23.391.187c.668-.444,1.182-.013,1.721.4a22.566,22.566,0,0,1-1.3,3.176c-2.035,3.418-4.085,6.83-6.282,10.143-1.678,2.531-3.583,4.911-5.406,7.345a1.189,1.189,0,0,1-.7.48c-1.649.154-2.811,1.24-4.083,2.094-.8.54-1.468,1.295-2.284,1.814a10.513,10.513,0,0,1-2.614,1.246c-1.261.372-1.847-.323-1.475-1.592.32-1.092.655-2.179.952-3.165" transform="translate(0 0)" fill="#1a1311"/>
          </g>
        </g>
        <g id="Group_58" data-name="Group 58" transform="translate(-7.5 3382.604)">
          <g id="Group_57-3" data-name="Group 57" transform="translate(0 0)" clip-path="url(#clip-path-7)">
            <path id="Path_340-3" data-name="Path 340" d="M2.245,25.931A28.484,28.484,0,0,1,.26,23.5a1.825,1.825,0,0,1-.2-1.375,10.291,10.291,0,0,1,1.231-2.855A75.86,75.86,0,0,1,8.3,10.048c1.475-1.527,2.67-3.322,4.009-4.981a7.259,7.259,0,0,1,1.039-1.042.951.951,0,0,1,1.343.017,1.95,1.95,0,0,0,1.006.434c1.125.088,2.268.012,3.381.163a2.113,2.113,0,0,0,2-.566c1.8-1.786,4.27-2.486,6.334-3.853C28.194-.3,28.8.2,29.428.688A26.444,26.444,0,0,1,27.9,4.41c-2.384,4.005-4.787,8-7.362,11.886-1.967,2.966-4.2,5.755-6.334,8.607a1.393,1.393,0,0,1-.825.562c-1.932.181-3.294,1.453-4.784,2.454-.943.633-1.721,1.517-2.677,2.126a12.319,12.319,0,0,1-3.063,1.461c-1.477.436-2.164-.378-1.728-1.865.375-1.28.767-2.554,1.116-3.709" transform="translate(0 0)" fill="#1a1311"/>
          </g>
        </g>
        <g id="Group_2233" data-name="Group 2233" transform="translate(320.567 3916.833)">
          <g id="Group_57-4" data-name="Group 57" clip-path="url(#clip-path-7)">
            <path id="Path_340-4" data-name="Path 340" d="M27.182,25.931A28.484,28.484,0,0,0,29.167,23.5a1.825,1.825,0,0,0,.2-1.375,10.291,10.291,0,0,0-1.231-2.855,75.86,75.86,0,0,0-7.008-9.228c-1.475-1.527-2.67-3.322-4.009-4.981a7.259,7.259,0,0,0-1.039-1.042.951.951,0,0,0-1.343.017,1.95,1.95,0,0,1-1.006.434c-1.125.088-2.268.012-3.381.163a2.113,2.113,0,0,1-2-.566C6.553,2.286,4.08,1.586,2.016.219,1.233-.3.631.2,0,.688A26.444,26.444,0,0,0,1.524,4.41c2.384,4.005,4.787,8,7.362,11.886,1.967,2.966,4.2,5.755,6.334,8.607a1.393,1.393,0,0,0,.825.562c1.932.181,3.294,1.453,4.784,2.454.943.633,1.721,1.517,2.677,2.126a12.319,12.319,0,0,0,3.063,1.461c1.477.436,2.164-.378,1.728-1.865-.375-1.28-.767-2.554-1.116-3.709" transform="translate(0.001 0)" fill="#1a1311"/>
          </g>
        </g>
        <g id="Group_2234" data-name="Group 2234" transform="translate(25.61 3916.833)">
          <g id="Group_57-5" data-name="Group 57" transform="translate(0)" clip-path="url(#clip-path-7)">
            <path id="Path_340-5" data-name="Path 340" d="M2.245,25.931A28.484,28.484,0,0,1,.26,23.5a1.825,1.825,0,0,1-.2-1.375,10.291,10.291,0,0,1,1.231-2.855A75.86,75.86,0,0,1,8.3,10.048c1.475-1.527,2.67-3.322,4.009-4.981a7.259,7.259,0,0,1,1.039-1.042.951.951,0,0,1,1.343.017,1.95,1.95,0,0,0,1.006.434c1.125.088,2.268.012,3.381.163a2.113,2.113,0,0,0,2-.566c1.8-1.786,4.27-2.486,6.334-3.853C28.194-.3,28.8.2,29.428.688A26.444,26.444,0,0,1,27.9,4.41c-2.384,4.005-4.787,8-7.362,11.886-1.967,2.966-4.2,5.755-6.334,8.607a1.393,1.393,0,0,1-.825.562c-1.932.181-3.294,1.453-4.784,2.454-.943.633-1.721,1.517-2.677,2.126a12.319,12.319,0,0,1-3.063,1.461c-1.477.436-2.164-.378-1.728-1.865.375-1.28.767-2.554,1.116-3.709" transform="translate(0 0)" fill="#1a1311"/>
          </g>
        </g>
        <g id="Group_2231" data-name="Group 2231" transform="translate(335.283 3739.604)">
          <g id="Group_57-6" data-name="Group 57" transform="translate(16 -20)" clip-path="url(#clip-path-7)">
            <path id="Path_340-6" data-name="Path 340" d="M2.245,25.931A28.484,28.484,0,0,1,.26,23.5a1.825,1.825,0,0,1-.2-1.375,10.291,10.291,0,0,1,1.231-2.855A75.86,75.86,0,0,1,8.3,10.048c1.475-1.527,2.67-3.322,4.009-4.981a7.259,7.259,0,0,1,1.039-1.042.951.951,0,0,1,1.343.017,1.95,1.95,0,0,0,1.006.434c1.125.088,2.268.012,3.381.163a2.113,2.113,0,0,0,2-.566c1.8-1.786,4.27-2.486,6.334-3.853C28.194-.3,28.8.2,29.428.688A26.444,26.444,0,0,1,27.9,4.41c-2.384,4.005-4.787,8-7.362,11.886-1.967,2.966-4.2,5.755-6.334,8.607a1.393,1.393,0,0,1-.825.562c-1.932.181-3.294,1.453-4.784,2.454-.943.633-1.721,1.517-2.677,2.126a12.319,12.319,0,0,1-3.063,1.461c-1.477.436-2.164-.378-1.728-1.865.375-1.28.767-2.554,1.116-3.709" transform="translate(0 0)" fill="#1a1311"/>
          </g>
        </g>
        <g id="Group_2232" data-name="Group 2232" transform="translate(187.179 2998.558)">
          <g id="Group_57-7" data-name="Group 57" transform="translate(0 0)" clip-path="url(#clip-path-7)">
            <path id="Path_340-7" data-name="Path 340" d="M2.245,25.931A28.484,28.484,0,0,1,.26,23.5a1.825,1.825,0,0,1-.2-1.375,10.291,10.291,0,0,1,1.231-2.855A75.86,75.86,0,0,1,8.3,10.048c1.475-1.527,2.67-3.322,4.009-4.981a7.259,7.259,0,0,1,1.039-1.042.951.951,0,0,1,1.343.017,1.95,1.95,0,0,0,1.006.434c1.125.088,2.268.012,3.381.163a2.113,2.113,0,0,0,2-.566c1.8-1.786,4.27-2.486,6.334-3.853C28.194-.3,28.8.2,29.428.688A26.444,26.444,0,0,1,27.9,4.41c-2.384,4.005-4.787,8-7.362,11.886-1.967,2.966-4.2,5.755-6.334,8.607a1.393,1.393,0,0,1-.825.562c-1.932.181-3.294,1.453-4.784,2.454-.943.633-1.721,1.517-2.677,2.126a12.319,12.319,0,0,1-3.063,1.461c-1.477.436-2.164-.378-1.728-1.865.375-1.28.767-2.554,1.116-3.709" transform="translate(0 0)" fill="#1a1311"/>
          </g>
        </g>
      </g>
      <g id="模様-3" data-name="模様" transform="translate(7.5 -2026.986)">
        <g id="Group_60-2" data-name="Group 60" transform="matrix(0.719, -0.695, 0.695, 0.719, 318.265, 2981.264)">
          <g id="Group_59-2" data-name="Group 59" transform="translate(0 0)" clip-path="url(#clip-path-2)">
            <path id="Path_341-2" data-name="Path 341" d="M2.5,7.051c.149-.879.288-1.433.34-2.055A9.222,9.222,0,0,1,4.252.5c.59-1,.933-.518,1.107,1.52.237,2.785.4,5.635.653,8.4.561,6.067.823,12.327,1.3,18.448.1,1.3.2,2.608.275,3.923.059,1.026-.094,1.748-.434,1.87-.586.21-.807,1.643-1.085,2.89-.2.88-.35,1.859-.567,2.686-.31,1.182-.572,1.161-.921.024a22.272,22.272,0,0,1-.738-3.719c-.507-3.994-1.081-7.909-1.661-11.809a6.439,6.439,0,0,0-.564-1.861,10.347,10.347,0,0,1-.841-3.9Q.4,12.95.034,6.919c-.024-.392-.043-.8-.031-1.2C.027,4.94.181,4.431.44,4.585a3.744,3.744,0,0,1,.931.854c.36.438.7,1,1.13,1.612" transform="translate(0 0.001)" fill="#1a1311"/>
          </g>
        </g>
        <g id="Group_2216-2" data-name="Group 2216" transform="translate(364.71 3148.241)">
          <g id="Group_57-8" data-name="Group 57" transform="translate(0 0)" clip-path="url(#clip-path-3)">
            <path id="Path_340-8" data-name="Path 340" d="M1.57,18.134a19.92,19.92,0,0,1-1.388-1.7,1.276,1.276,0,0,1-.142-.961,7.2,7.2,0,0,1,.861-2A53.051,53.051,0,0,1,5.8,7.026C6.833,5.958,7.669,4.7,8.605,3.543a5.076,5.076,0,0,1,.727-.728.665.665,0,0,1,.939.012,1.363,1.363,0,0,0,.7.3c.787.062,1.586.008,2.365.114a1.478,1.478,0,0,0,1.4-.4C16,1.6,17.726,1.109,19.169.153c.547-.364.969-.011,1.41.328a18.493,18.493,0,0,1-1.066,2.6c-1.667,2.8-3.347,5.6-5.148,8.312-1.375,2.074-2.936,4.025-4.43,6.019a.974.974,0,0,1-.577.393c-1.351.126-2.3,1.016-3.346,1.716-.659.443-1.2,1.061-1.872,1.486A8.615,8.615,0,0,1,2,22.033c-1.033.3-1.513-.264-1.209-1.3.263-.9.537-1.786.78-2.594" transform="translate(0 0)" fill="#1a1311"/>
          </g>
        </g>
        <g id="Group_2211-2" data-name="Group 2211" transform="translate(32.647 2976.449)">
          <g id="Group_61-3" data-name="Group 61" transform="translate(0 0)" clip-path="url(#clip-path-4)">
            <path id="Path_342-3" data-name="Path 342" d="M5.245,2.744A2.975,2.975,0,0,0,5.6,2.066C5.826.849,7.4.577,8.592.043a1.186,1.186,0,0,1,.742.04c1.38.634,3.128.888,4.142,1.894C14.6,3.092,15.8,4.128,15.19,5.695a14.168,14.168,0,0,0-.464,3.427,4.629,4.629,0,0,1-.21,1.069c-.264.7-.538.856-1.55.656a1.3,1.3,0,0,0-1.486.491c-1.2,1.4-1.387,3-1.933,4.526-.155.43.058,1.015-.9,1.1a1.57,1.57,0,0,1-1.49-.778,7.275,7.275,0,0,0-1.494-1.056A9.423,9.423,0,0,1,4.4,14.346c-1.134-1.076-2.263-2.158-3.28-3.287a3.375,3.375,0,0,1-.93-3.523A4.281,4.281,0,0,0,.292,5.184a4.3,4.3,0,0,1-.025-1.71C.41,2.829.728,2.792,1.7,2.818c1.132.031,2.27-.043,3.54-.075" transform="translate(0 0)" fill="#1a1311"/>
          </g>
        </g>
        <g id="Group_2230-2" data-name="Group 2230" transform="translate(241.519 3899.866)">
          <g id="Group_61-4" data-name="Group 61" transform="translate(0 0)" clip-path="url(#clip-path-4)">
            <path id="Path_342-4" data-name="Path 342" d="M5.245,2.744A2.975,2.975,0,0,0,5.6,2.066C5.826.849,7.4.577,8.592.043a1.186,1.186,0,0,1,.742.04c1.38.634,3.128.888,4.142,1.894C14.6,3.092,15.8,4.128,15.19,5.695a14.168,14.168,0,0,0-.464,3.427,4.629,4.629,0,0,1-.21,1.069c-.264.7-.538.856-1.55.656a1.3,1.3,0,0,0-1.486.491c-1.2,1.4-1.387,3-1.933,4.526-.155.43.058,1.015-.9,1.1a1.57,1.57,0,0,1-1.49-.778,7.275,7.275,0,0,0-1.494-1.056A9.423,9.423,0,0,1,4.4,14.346c-1.134-1.076-2.263-2.158-3.28-3.287a3.375,3.375,0,0,1-.93-3.523A4.281,4.281,0,0,0,.292,5.184a4.3,4.3,0,0,1-.025-1.71C.41,2.829.728,2.792,1.7,2.818c1.132.031,2.27-.043,3.54-.075" transform="translate(0 0)" fill="#1a1311"/>
          </g>
        </g>
        <g id="Group_2212-2" data-name="Group 2212" transform="translate(121.527 3859.507)">
          <g id="Group_57-9" data-name="Group 57" transform="translate(0 0)" clip-path="url(#clip-path-6)">
            <path id="Path_340-9" data-name="Path 340" d="M1.916,22.128A24.307,24.307,0,0,1,.222,20.058a1.558,1.558,0,0,1-.174-1.173A8.782,8.782,0,0,1,1.1,16.448,64.735,64.735,0,0,1,7.08,8.574c1.258-1.3,2.279-2.835,3.421-4.251a6.2,6.2,0,0,1,.887-.889.811.811,0,0,1,1.146.014,1.664,1.664,0,0,0,.858.371c.96.075,1.935.01,2.885.139a1.8,1.8,0,0,0,1.709-.483C19.52,1.951,21.63,1.354,23.391.187c.668-.444,1.182-.013,1.721.4a22.566,22.566,0,0,1-1.3,3.176c-2.035,3.418-4.085,6.83-6.282,10.143-1.678,2.531-3.583,4.911-5.406,7.345a1.189,1.189,0,0,1-.7.48c-1.649.154-2.811,1.24-4.083,2.094-.8.54-1.468,1.295-2.284,1.814a10.513,10.513,0,0,1-2.614,1.246c-1.261.372-1.847-.323-1.475-1.592.32-1.092.655-2.179.952-3.165" transform="translate(0 0)" fill="#1a1311"/>
          </g>
        </g>
        <g id="Group_58-2" data-name="Group 58" transform="translate(-7.5 3382.604)">
          <g id="Group_57-10" data-name="Group 57" transform="translate(0 0)" clip-path="url(#clip-path-7)">
            <path id="Path_340-10" data-name="Path 340" d="M2.245,25.931A28.484,28.484,0,0,1,.26,23.5a1.825,1.825,0,0,1-.2-1.375,10.291,10.291,0,0,1,1.231-2.855A75.86,75.86,0,0,1,8.3,10.048c1.475-1.527,2.67-3.322,4.009-4.981a7.259,7.259,0,0,1,1.039-1.042.951.951,0,0,1,1.343.017,1.95,1.95,0,0,0,1.006.434c1.125.088,2.268.012,3.381.163a2.113,2.113,0,0,0,2-.566c1.8-1.786,4.27-2.486,6.334-3.853C28.194-.3,28.8.2,29.428.688A26.444,26.444,0,0,1,27.9,4.41c-2.384,4.005-4.787,8-7.362,11.886-1.967,2.966-4.2,5.755-6.334,8.607a1.393,1.393,0,0,1-.825.562c-1.932.181-3.294,1.453-4.784,2.454-.943.633-1.721,1.517-2.677,2.126a12.319,12.319,0,0,1-3.063,1.461c-1.477.436-2.164-.378-1.728-1.865.375-1.28.767-2.554,1.116-3.709" transform="translate(0 0)" fill="#1a1311"/>
          </g>
        </g>
        <g id="Group_2233-2" data-name="Group 2233" transform="translate(320.567 3916.833)">
          <g id="Group_57-11" data-name="Group 57" clip-path="url(#clip-path-7)">
            <path id="Path_340-11" data-name="Path 340" d="M27.182,25.931A28.484,28.484,0,0,0,29.167,23.5a1.825,1.825,0,0,0,.2-1.375,10.291,10.291,0,0,0-1.231-2.855,75.86,75.86,0,0,0-7.008-9.228c-1.475-1.527-2.67-3.322-4.009-4.981a7.259,7.259,0,0,0-1.039-1.042.951.951,0,0,0-1.343.017,1.95,1.95,0,0,1-1.006.434c-1.125.088-2.268.012-3.381.163a2.113,2.113,0,0,1-2-.566C6.553,2.286,4.08,1.586,2.016.219,1.233-.3.631.2,0,.688A26.444,26.444,0,0,0,1.524,4.41c2.384,4.005,4.787,8,7.362,11.886,1.967,2.966,4.2,5.755,6.334,8.607a1.393,1.393,0,0,0,.825.562c1.932.181,3.294,1.453,4.784,2.454.943.633,1.721,1.517,2.677,2.126a12.319,12.319,0,0,0,3.063,1.461c1.477.436,2.164-.378,1.728-1.865-.375-1.28-.767-2.554-1.116-3.709" transform="translate(0.001 0)" fill="#1a1311"/>
          </g>
        </g>
        <g id="Group_2234-2" data-name="Group 2234" transform="translate(25.61 3916.833)">
          <g id="Group_57-12" data-name="Group 57" transform="translate(0)" clip-path="url(#clip-path-7)">
            <path id="Path_340-12" data-name="Path 340" d="M2.245,25.931A28.484,28.484,0,0,1,.26,23.5a1.825,1.825,0,0,1-.2-1.375,10.291,10.291,0,0,1,1.231-2.855A75.86,75.86,0,0,1,8.3,10.048c1.475-1.527,2.67-3.322,4.009-4.981a7.259,7.259,0,0,1,1.039-1.042.951.951,0,0,1,1.343.017,1.95,1.95,0,0,0,1.006.434c1.125.088,2.268.012,3.381.163a2.113,2.113,0,0,0,2-.566c1.8-1.786,4.27-2.486,6.334-3.853C28.194-.3,28.8.2,29.428.688A26.444,26.444,0,0,1,27.9,4.41c-2.384,4.005-4.787,8-7.362,11.886-1.967,2.966-4.2,5.755-6.334,8.607a1.393,1.393,0,0,1-.825.562c-1.932.181-3.294,1.453-4.784,2.454-.943.633-1.721,1.517-2.677,2.126a12.319,12.319,0,0,1-3.063,1.461c-1.477.436-2.164-.378-1.728-1.865.375-1.28.767-2.554,1.116-3.709" transform="translate(0 0)" fill="#1a1311"/>
          </g>
        </g>
        <g id="Group_2231-2" data-name="Group 2231" transform="translate(335.283 3739.604)">
          <g id="Group_57-13" data-name="Group 57" transform="translate(16 -20)" clip-path="url(#clip-path-7)">
            <path id="Path_340-13" data-name="Path 340" d="M2.245,25.931A28.484,28.484,0,0,1,.26,23.5a1.825,1.825,0,0,1-.2-1.375,10.291,10.291,0,0,1,1.231-2.855A75.86,75.86,0,0,1,8.3,10.048c1.475-1.527,2.67-3.322,4.009-4.981a7.259,7.259,0,0,1,1.039-1.042.951.951,0,0,1,1.343.017,1.95,1.95,0,0,0,1.006.434c1.125.088,2.268.012,3.381.163a2.113,2.113,0,0,0,2-.566c1.8-1.786,4.27-2.486,6.334-3.853C28.194-.3,28.8.2,29.428.688A26.444,26.444,0,0,1,27.9,4.41c-2.384,4.005-4.787,8-7.362,11.886-1.967,2.966-4.2,5.755-6.334,8.607a1.393,1.393,0,0,1-.825.562c-1.932.181-3.294,1.453-4.784,2.454-.943.633-1.721,1.517-2.677,2.126a12.319,12.319,0,0,1-3.063,1.461c-1.477.436-2.164-.378-1.728-1.865.375-1.28.767-2.554,1.116-3.709" transform="translate(0 0)" fill="#1a1311"/>
          </g>
        </g>
        <g id="Group_2232-2" data-name="Group 2232" transform="translate(187.179 2998.558)">
          <g id="Group_57-14" data-name="Group 57" transform="translate(0 0)" clip-path="url(#clip-path-7)">
            <path id="Path_340-14" data-name="Path 340" d="M2.245,25.931A28.484,28.484,0,0,1,.26,23.5a1.825,1.825,0,0,1-.2-1.375,10.291,10.291,0,0,1,1.231-2.855A75.86,75.86,0,0,1,8.3,10.048c1.475-1.527,2.67-3.322,4.009-4.981a7.259,7.259,0,0,1,1.039-1.042.951.951,0,0,1,1.343.017,1.95,1.95,0,0,0,1.006.434c1.125.088,2.268.012,3.381.163a2.113,2.113,0,0,0,2-.566c1.8-1.786,4.27-2.486,6.334-3.853C28.194-.3,28.8.2,29.428.688A26.444,26.444,0,0,1,27.9,4.41c-2.384,4.005-4.787,8-7.362,11.886-1.967,2.966-4.2,5.755-6.334,8.607a1.393,1.393,0,0,1-.825.562c-1.932.181-3.294,1.453-4.784,2.454-.943.633-1.721,1.517-2.677,2.126a12.319,12.319,0,0,1-3.063,1.461c-1.477.436-2.164-.378-1.728-1.865.375-1.28.767-2.554,1.116-3.709" transform="translate(0 0)" fill="#1a1311"/>
          </g>
        </g>
      </g>
    </g>
    <path id="Path_5289" data-name="Path 5289" d="M27.182,25.931A28.484,28.484,0,0,0,29.167,23.5a1.825,1.825,0,0,0,.2-1.375,10.291,10.291,0,0,0-1.231-2.855,75.86,75.86,0,0,0-7.008-9.228c-1.475-1.527-2.67-3.322-4.009-4.981a7.259,7.259,0,0,0-1.039-1.042.95.95,0,0,0-1.343.017,1.95,1.95,0,0,1-1.006.434c-1.125.088-2.268.012-3.381.163a2.113,2.113,0,0,1-2-.566C6.553,2.286,4.08,1.586,2.016.219,1.233-.3.631.2,0,.688A26.444,26.444,0,0,0,1.524,4.41c2.384,4.005,4.787,8,7.362,11.886,1.967,2.966,4.2,5.755,6.334,8.607a1.393,1.393,0,0,0,.825.562c1.932.181,3.294,1.453,4.784,2.454.943.633,1.721,1.517,2.677,2.126a12.319,12.319,0,0,0,3.063,1.461c1.477.436,2.164-.378,1.728-1.865-.375-1.28-.767-2.554-1.116-3.709" transform="translate(169.282 4654.604)" fill="#1a1311"/>
    <path id="Path_5290" data-name="Path 5290" d="M2.5,7.051c.149-.879.288-1.433.34-2.055A9.222,9.222,0,0,1,4.252.5c.59-1,.933-.518,1.107,1.52.237,2.785.4,5.635.653,8.4.561,6.067.823,12.327,1.3,18.448.1,1.3.2,2.608.275,3.923.059,1.026-.094,1.748-.434,1.87-.586.21-.807,1.643-1.085,2.89-.2.88-.35,1.859-.567,2.686-.31,1.182-.572,1.161-.921.024a22.272,22.272,0,0,1-.738-3.719c-.507-3.994-1.081-7.909-1.661-11.809a6.439,6.439,0,0,0-.564-1.861,10.347,10.347,0,0,1-.841-3.9Q.4,12.95.034,6.919c-.024-.392-.043-.8-.031-1.2C.027,4.94.181,4.431.44,4.585a3.744,3.744,0,0,1,.931.854c.36.438.7,1,1.13,1.612" transform="matrix(0.719, -0.695, 0.695, 0.719, 24.266, 4685.264)" fill="#1a1311"/>
  </g>
</svg>
