<svg id="line" xmlns="http://www.w3.org/2000/svg" width="34.448" height="34.448" viewBox="0 0 34.448 34.448">
  <path id="Path_4237" data-name="Path 4237" d="M26.984,34.448H7.464A7.464,7.464,0,0,1,0,26.984V7.464A7.464,7.464,0,0,1,7.464,0h19.52a7.464,7.464,0,0,1,7.464,7.464v19.52a7.464,7.464,0,0,1-7.464,7.464" fill="#fff"/>
  <path id="Path_4238" data-name="Path 4238" d="M41.2,29.445c0-5.612-5.626-10.178-12.542-10.178S16.114,23.833,16.114,29.445c0,5.031,4.462,9.245,10.489,10.042.408.088.964.269,1.1.618a2.579,2.579,0,0,1,.04,1.134s-.147.885-.179,1.074c-.055.317-.252,1.24,1.086.676s7.223-4.253,9.854-7.282h0a9.056,9.056,0,0,0,2.7-6.262" transform="translate(-11.488 -13.736)" fill="#0c1012"/>
  <path id="Path_4239" data-name="Path 4239" d="M48.136,45.276h-.88a.244.244,0,0,0-.244.244v5.465a.244.244,0,0,0,.244.244h.88a.244.244,0,0,0,.244-.244V45.52a.244.244,0,0,0-.244-.244" transform="translate(-33.517 -32.278)" fill="#fff"/>
  <path id="Path_4240" data-name="Path 4240" d="M59.715,45.276h-.88a.244.244,0,0,0-.244.244v3.247l-2.5-3.382a.266.266,0,0,0-.019-.025h0l-.015-.015h0l-.013-.011h-.006l-.013-.009h-.007L56,45.318H56l-.014-.006H55a.244.244,0,0,0-.244.244v5.465a.244.244,0,0,0,.244.244h.88a.244.244,0,0,0,.245-.244V47.739l2.507,3.387a.242.242,0,0,0,.062.06h0l.015.009h.007l.012.006h.019l.017.005h0a.235.235,0,0,0,.063.008h.88a.244.244,0,0,0,.244-.244V45.52a.244.244,0,0,0-.244-.244" transform="translate(-39.04 -32.278)" fill="#fff"/>
  <path id="Path_4241" data-name="Path 4241" d="M34.206,49.859h-2.39v-4.34a.244.244,0,0,0-.244-.244h-.88a.245.245,0,0,0-.245.244v5.464h0a.242.242,0,0,0,.068.169h0a.242.242,0,0,0,.169.068H34.2a.244.244,0,0,0,.244-.244V50.1a.244.244,0,0,0-.244-.244" transform="translate(-21.707 -32.278)" fill="#fff"/>
  <path id="Path_4242" data-name="Path 4242" d="M79.611,46.644a.244.244,0,0,0,.244-.244v-.88a.244.244,0,0,0-.244-.245H76.1a.243.243,0,0,0-.169.069h0a.244.244,0,0,0-.068.168h0v5.464h0a.242.242,0,0,0,.068.169h0a.243.243,0,0,0,.169.068h3.515a.244.244,0,0,0,.244-.245V50.1a.244.244,0,0,0-.244-.245H77.22v-.924h2.39a.244.244,0,0,0,.244-.244v-.88a.244.244,0,0,0-.244-.245H77.22v-.923Z" transform="translate(-54.078 -32.278)" fill="#fff"/>
</svg>
