<svg xmlns="http://www.w3.org/2000/svg" xmlns:xlink="http://www.w3.org/1999/xlink" width="63.702" height="63.702" viewBox="0 0 63.702 63.702">
  <defs>
    <clipPath id="clip-path">
      <rect id="Rectangle_111" data-name="Rectangle 111" width="26.021" height="39.912" fill="none"/>
    </clipPath>
  </defs>
  <g id="menu-3" transform="matrix(0.996, 0.087, -0.087, 0.996, 5.125, 0)">
    <g id="Rectangle_68" data-name="Rectangle 68" transform="translate(0)" fill="#fff" stroke="#1a1311" stroke-width="2">
      <rect width="58.801" height="58.801" rx="10" stroke="none"/>
      <rect x="1" y="1" width="56.801" height="56.801" rx="9" fill="none"/>
    </g>
    <g id="Group_2194" data-name="Group 2194" transform="translate(17.44 9.518)">
      <g id="Group_2193" data-name="Group 2193" clip-path="url(#clip-path)">
        <path id="Path_4296" data-name="Path 4296" d="M6.872,4c.135.064.2.1.266.124.894.334,1.793.653,2.68,1q1.516.6,3.013,1.246c1.375.6,2.747,1.2,4.1,1.832.744.35,1.455.769,2.171,1.173q1.379.781,2.743,1.59c.606.359,1.2.737,1.792,1.12.077.05.1.183.147.277a.87.87,0,0,1-.309.1.875.875,0,0,1-.32-.135c-.954-.519-1.911-1.032-2.859-1.564-.717-.4-1.425-.821-2.127-1.249a33.331,33.331,0,0,0-3.6-1.769c-1.068-.487-2.132-.983-3.21-1.449-.687-.3-1.4-.544-2.094-.815S7.879,4.931,7.18,4.663Q6.543,4.419,5.9,4.2a2.124,2.124,0,0,0-.431-.088.571.571,0,0,0-.671.373c-.244.645-.5,1.287-.708,1.944-.138.436-.064.53.38.662.9.267,1.809.514,2.709.785A22.439,22.439,0,0,1,9.94,8.9c1.15.521,2.336.96,3.5,1.442a2.893,2.893,0,0,1,.708.354A14.767,14.767,0,0,0,16.27,11.86c.885.493,1.792.946,2.667,1.458,1.026.6,2.028,1.243,3.038,1.872a3.227,3.227,0,0,1,.312.251c-.126.221-.261.152-.373.1-.238-.115-.471-.242-.7-.376-.925-.541-1.839-1.1-2.772-1.627-.986-.554-1.988-1.079-2.986-1.612-.71-.378-1.407-.789-2.143-1.113-1.209-.533-2.457-.978-3.666-1.511A30.43,30.43,0,0,0,6.341,8.09c-.4-.126-.821-.21-1.294-.328a10.163,10.163,0,0,0,.366,6.287,10.315,10.315,0,0,0,3.968,4.912c-.128.261-.247.493-.358.73-1.067,2.291-2.124,4.586-3.2,6.874C4.96,28.4,4.069,30.22,3.2,32.051Q1.636,35.335.086,38.625c-.143.3-.114.469.14.6.447.223.9.44,1.365.618.421.16.577.061.762-.34.636-1.374,1.263-2.752,1.92-4.114,1.508-3.122,3.041-6.232,4.546-9.356.587-1.218,1.12-2.46,1.684-3.689.343-.746.7-1.488,1.06-2.263a10.562,10.562,0,0,0,11.861-3.546c.148.105.3.211.451.321a.764.764,0,0,0,1.232-.2,5.5,5.5,0,0,0,.866-1.961,1.162,1.162,0,0,0-.454-1.284c-.179-.149-.372-.282-.582-.44a9.586,9.586,0,0,0-1.252-8.221A9.6,9.6,0,0,0,18.4.566,10.339,10.339,0,0,0,6.872,4M1.716,39.116.753,38.66l9.14-19.382,1.134.571c-.427.873-.826,1.706-1.238,2.533C9.161,23.645,8.5,24.892,7.9,26.165,6.913,28.235,5.976,30.327,5,32.4c-.758,1.606-1.55,3.2-2.33,4.8-.3.619-.611,1.235-.951,1.921M12.006,19.091c-.574-.261-1.169-.485-1.718-.791a8.331,8.331,0,0,1-4.394-6.013A7.389,7.389,0,0,1,5.856,9.96,2.61,2.61,0,0,1,6,9.407a.24.24,0,0,1,.2-.122.248.248,0,0,1,.156.176,1.588,1.588,0,0,1-.016.393A7.681,7.681,0,0,0,9.181,16.9a9.852,9.852,0,0,0,6.42,2.192.8.8,0,0,1,.3.009.339.339,0,0,1,.164.224c.009.059-.071.153-.134.2a.406.406,0,0,1-.213.034,12.8,12.8,0,0,1-3.715-.466M20.644,3.538a2.208,2.208,0,0,1-.39-.128,11.115,11.115,0,0,0-4.84-1.33,10.227,10.227,0,0,0-3.573.358,3.132,3.132,0,0,0-1.77,1.081c-.147.2-.317.228-.45.121a.313.313,0,0,1,0-.471,4.119,4.119,0,0,1,.667-.63,4.932,4.932,0,0,1,1.947-.784,12.324,12.324,0,0,1,6.467.426,5.768,5.768,0,0,1,1.674.864c.132.1.308.186.27.493M24.4,14.446l.014.006c-.132.309-.257.622-.4.926-.065.137-.135.348-.341.237-.177-.1-.045-.253.009-.384.138-.34.273-.679.4-1.02.063-.165.1-.341.175-.5.035-.069.147-.1.225-.148.038.084.122.177.107.25a6.164,6.164,0,0,1-.191.631M5.635,5.134,5.3,6.368c-.311-.334-.127-.609-.083-.866A3.077,3.077,0,0,1,5.4,5l.238.13m15.61-.942c.078-.246.191-.3.362-.242a.221.221,0,0,1,.174.3.327.327,0,0,1-.406.161c-.076-.051-.105-.172-.13-.217" transform="translate(-0.001 0)" fill="#1a1311"/>
      </g>
    </g>
  </g>
</svg>
