<svg xmlns="http://www.w3.org/2000/svg" width="175" height="103" viewBox="0 0 175 103">
  <g id="menu-type03" transform="translate(-414 -2285)">
    <g id="Union_5" data-name="Union 5" transform="translate(414 2304)" fill="#fffbd1">
      <path d="M 148.5463104248047 82.99980926513672 C 143.2481079101562 82.99980926513672 138.1695861816406 81.39694976806641 133.8598480224609 78.36451721191406 L 133.2843170166016 77.95957946777344 L 132.7088623046875 78.36458587646484 C 128.4000396728516 81.39697265625 123.3218841552734 82.99980926513672 118.0233612060547 82.99980926513672 C 112.7251586914062 82.99980926513672 107.6466369628906 81.39694976806641 103.3368835449219 78.36451721191406 L 102.7614288330078 77.95962524414062 L 102.1859741210938 78.36451721191406 C 97.87622833251953 81.39694976806641 92.79801940917969 82.99980926513672 87.50041198730469 82.99980926513672 C 82.20220184326172 82.99980926513672 77.12368011474609 81.39694976806641 72.81393432617188 78.36451721191406 L 72.23847961425781 77.95962524414062 L 71.66302490234375 78.36451721191406 C 67.353271484375 81.39694976806641 62.27474975585938 82.99980926513672 56.97654342651367 82.99980926513672 C 51.67834091186523 82.99980926513672 46.59981918334961 81.39694976806641 42.29006958007812 78.36451721191406 L 41.71454620361328 77.95957946777344 L 41.13909149169922 78.36458587646484 C 36.83027267456055 81.39697265625 31.75211334228516 82.99980926513672 26.45359039306641 82.99980926513672 C 23.01627159118652 82.99980926513672 19.68234062194824 82.33042144775391 16.54443168640137 81.01023864746094 C 13.51340866088867 79.73501586914062 10.79115867614746 77.90930938720703 8.45329475402832 75.58383178710938 C 6.115772247314453 73.25872039794922 4.280726909637451 70.55153656005859 2.999113321304321 67.53749084472656 C 1.672590613365173 64.41790008544922 0.9999997019767761 61.103515625 0.9999997019767761 57.68644714355469 C 0.9999997019767761 54.91924285888672 1.445931553840637 52.19931030273438 2.32543158531189 49.60221862792969 C 3.175931453704834 47.09078598022461 4.416749477386475 44.73444747924805 6.013454437255859 42.59867477416992 L 6.461090564727783 41.99990081787109 L 6.013454437255859 41.40112686157227 C 4.416749477386475 39.26533126831055 3.175908803939819 36.90899276733398 2.32543158531189 34.3975830078125 C 1.445931553840637 31.80046844482422 0.9999997019767761 29.0805606842041 0.9999997019767761 26.3133544921875 C 0.9999997019767761 22.89628791809082 1.672590613365173 19.58190155029297 2.999113321304321 16.46231079101562 C 4.280726909637451 13.44826412200928 6.115772247314453 10.74108219146729 8.45329475402832 8.415968894958496 C 10.79115867614746 6.090491771697998 13.51340866088867 4.264787197113037 16.54443168640137 2.989559888839722 C 19.68234062194824 1.669378042221069 23.01627159118652 0.9999917149543762 26.45359039306641 0.9999917149543762 C 31.75211334228516 0.9999917149543762 36.83027267456055 2.602832555770874 41.13909149169922 5.635219097137451 L 41.71454620361328 6.040218830108643 L 42.29006958007812 5.635287284851074 C 46.59981918334961 2.602855443954468 51.67834091186523 0.9999917149543762 56.97654342651367 0.9999917149543762 C 62.27520370483398 0.9999917149543762 67.35366058349609 2.60312819480896 71.66291046142578 5.636105537414551 L 72.23847961425781 6.041219234466553 L 72.81404876708984 5.636105537414551 C 77.12329864501953 2.60312819480896 82.20175170898438 0.9999917149543762 87.50041198730469 0.9999917149543762 C 92.79847717285156 0.9999917149543762 97.87660980224609 2.60312819480896 102.1858596801758 5.636105537414551 L 102.7614288330078 6.041219234466553 L 103.3369979858398 5.636105537414551 C 107.6462478637695 2.60312819480896 112.7247009277344 0.9999917149543762 118.0233612060547 0.9999917149543762 C 123.3218841552734 0.9999917149543762 128.4000396728516 2.602832555770874 132.7088623046875 5.635219097137451 L 133.2843170166016 6.040218830108643 L 133.8598480224609 5.635287284851074 C 138.1695861816406 2.602855443954468 143.2481079101562 0.9999917149543762 148.5463104248047 0.9999917149543762 C 151.983642578125 0.9999917149543762 155.3175659179688 1.669378042221069 158.4554748535156 2.989559888839722 C 161.4864959716797 4.264787197113037 164.2087554931641 6.090491771697998 166.5466156005859 8.415968894958496 C 168.8841400146484 10.74108219146729 170.7191772460938 13.44826412200928 172.0007934570312 16.46231079101562 C 173.3273162841797 19.58190155029297 173.9999084472656 22.89628791809082 173.9999084472656 26.3133544921875 C 173.9999084472656 29.0805606842041 173.5539703369141 31.80049133300781 172.6744842529297 34.3975830078125 C 171.823974609375 36.90901565551758 170.5831604003906 39.26533126831055 168.9864349365234 41.40112686157227 L 168.5387878417969 41.99990081787109 L 168.9864349365234 42.59867477416992 C 170.5831604003906 44.73444747924805 171.823974609375 47.09078598022461 172.6744842529297 49.60221862792969 C 173.5539703369141 52.19931030273438 173.9999084472656 54.91924285888672 173.9999084472656 57.68644714355469 C 173.9999084472656 61.103515625 173.3273162841797 64.41790008544922 172.0007934570312 67.53749084472656 C 170.7191772460938 70.55153656005859 168.8841400146484 73.25872039794922 166.5466156005859 75.58383178710938 C 164.2087554931641 77.90930938720703 161.4864959716797 79.73501586914062 158.4554748535156 81.01023864746094 C 155.3175659179688 82.33042144775391 151.983642578125 82.99980926513672 148.5463104248047 82.99980926513672 Z" stroke="none"/>
      <path d="M 148.5463104248047 81.99980926513672 C 151.8497467041016 81.99980926513672 155.0531616210938 81.35673522949219 158.0676727294922 80.08849334716797 C 160.9796142578125 78.86334991455078 163.5950927734375 77.10923767089844 165.8413848876953 74.87485504150391 C 168.0869598388672 72.64118957519531 169.8496704101562 70.04087829589844 171.0805511474609 67.14618682861328 C 172.3541412353516 64.15101623535156 172.9999084472656 60.96830368041992 172.9999084472656 57.68644714355469 C 172.9999084472656 52.42061614990234 171.3351135253906 47.410400390625 168.1855316162109 43.19742584228516 L 167.2902679443359 41.99990081787109 L 168.1855316162109 40.80237579345703 C 171.3351135253906 36.58940124511719 172.9999084472656 31.57918739318848 172.9999084472656 26.31335258483887 C 172.9999084472656 23.03149604797363 172.3541412353516 19.84878158569336 171.0805511474609 16.85361480712891 C 169.8496704101562 13.95892429351807 168.0869598388672 11.35861492156982 165.8413848876953 9.124948501586914 C 163.5950927734375 6.890567302703857 160.9796142578125 5.136448383331299 158.0676727294922 3.911305665969849 C 155.0531616210938 2.643067598342896 151.8497467041016 1.999996066093445 148.5463104248047 1.999996066093445 C 143.4551849365234 1.999996066093445 138.5756683349609 3.539853096008301 134.4352874755859 6.453114986419678 L 133.2842712402344 7.262996196746826 L 132.1333160400391 6.453020095825195 C 127.9939270019531 3.53982949256897 123.1147842407227 1.999996066093445 118.0233612060547 1.999996066093445 C 112.9318389892578 1.999996066093445 108.0524063110352 3.540115118026733 103.9125518798828 6.453876972198486 L 102.7614288330078 7.264067649841309 L 101.6103134155273 6.453876972198486 C 97.47045135498047 3.540115118026733 92.59133148193359 1.999996066093445 87.50040435791016 1.999996066093445 C 82.40888214111328 1.999996066093445 77.52945709228516 3.540115118026733 73.38959503173828 6.453876972198486 L 72.23847961425781 7.264067649841309 L 71.08735656738281 6.453876972198486 C 66.94750213623047 3.540115118026733 62.06807327270508 1.999996066093445 56.9765510559082 1.999996066093445 C 51.88540649414062 1.999996066093445 47.00588226318359 3.539853096008301 42.86550140380859 6.453114986419678 L 41.7144775390625 7.262996196746826 L 40.56352615356445 6.453020095825195 C 36.42414474487305 3.53982949256897 31.54500198364258 1.999996066093445 26.45359802246094 1.999996066093445 C 23.15016937255859 1.999996066093445 19.94673919677734 2.643067598342896 16.9322395324707 3.911305665969849 C 14.02028751373291 5.136448383331299 11.40481090545654 6.890567302703857 9.158525466918945 9.124948501586914 C 6.912954330444336 11.35861492156982 5.150239944458008 13.95892429351807 3.919358968734741 16.85361480712891 C 2.645763635635376 19.84878158569336 2.000001907348633 23.03149604797363 2.000001907348633 26.31335258483887 C 2.000001907348633 31.57918739318848 3.664787530899048 36.58940124511719 6.814383029937744 40.80237579345703 L 7.709644794464111 41.99990081787109 L 6.814383029937744 43.19742584228516 C 3.664787530899048 47.410400390625 2.000001907348633 52.42061614990234 2.000001907348633 57.68644714355469 C 2.000001907348633 60.96830368041992 2.645763635635376 64.15101623535156 3.919358968734741 67.14618682861328 C 5.150239944458008 70.04087829589844 6.912954330444336 72.64118957519531 9.158525466918945 74.87485504150391 C 11.40481090545654 77.10923767089844 14.02028751373291 78.86334991455078 16.9322395324707 80.08849334716797 C 19.94673919677734 81.35673522949219 23.15016937255859 81.99980926513672 26.45359802246094 81.99980926513672 C 31.54500198364258 81.99980926513672 36.42414474487305 80.45996856689453 40.56352615356445 77.54678344726562 L 41.7144775390625 76.73680877685547 L 42.86550140380859 77.54668426513672 C 47.00588226318359 80.45994567871094 51.88540649414062 81.99980926513672 56.9765510559082 81.99980926513672 C 62.06766891479492 81.99980926513672 66.94718933105469 80.45994567871094 71.08757019042969 77.54668426513672 L 72.23847961425781 76.73687744140625 L 73.38938140869141 77.54668426513672 C 77.52976226806641 80.45994567871094 82.40928649902344 81.99980926513672 87.50040435791016 81.99980926513672 C 92.59092712402344 81.99980926513672 97.47014617919922 80.45994567871094 101.6105270385742 77.54668426513672 L 102.7614288330078 76.73687744140625 L 103.9123382568359 77.54668426513672 C 108.0527191162109 80.45994567871094 112.932243347168 81.99980926513672 118.0233612060547 81.99980926513672 C 123.1147842407227 81.99980926513672 127.9939270019531 80.45996856689453 132.1333160400391 77.54678344726562 L 133.2842712402344 76.73680877685547 L 134.4352874755859 77.54668426513672 C 138.5756683349609 80.45994567871094 143.4551849365234 81.99980926513672 148.5463104248047 81.99980926513672 M 148.5463104248047 83.99980926513672 C 142.8625793457031 83.99980926513672 137.5964050292969 82.21637725830078 133.2843780517578 79.18235015869141 C 128.9732818603516 82.21637725830078 123.7070999145508 83.99980926513672 118.0233612060547 83.99980926513672 C 112.3396224975586 83.99980926513672 107.0734558105469 82.21637725830078 102.7614288330078 79.18235015869141 C 98.44940948486328 82.21637725830078 93.18414306640625 83.99980926513672 87.50040435791016 83.99980926513672 C 81.81666564941406 83.99980926513672 76.55049896240234 82.21637725830078 72.23847961425781 79.18235015869141 C 67.92645263671875 82.21637725830078 62.66028594970703 83.99980926513672 56.9765510559082 83.99980926513672 C 51.29281234741211 83.99980926513672 46.0266227722168 82.21637725830078 41.71459579467773 79.18235015869141 C 37.40350341796875 82.21637725830078 32.13733673095703 83.99980926513672 26.45359802246094 83.99980926513672 C 11.8436450958252 83.99980926513672 1.842680376284989e-06 72.21894836425781 1.842680376284989e-06 57.68644714355469 C 1.842680376284989e-06 51.80833053588867 1.937882781028748 46.3801383972168 5.212525844573975 41.99990081787109 C 1.937882781028748 37.61966323852539 1.842680376284989e-06 32.19147109985352 1.842680376284989e-06 26.31335258483887 C 1.842680376284989e-06 11.78085327148438 11.8436450958252 -3.944033778680023e-06 26.45359802246094 -3.944033778680023e-06 C 32.13733673095703 -3.944033778680023e-06 37.40350341796875 1.783424615859985 41.71459579467773 4.817448616027832 C 46.0266227722168 1.783424615859985 51.29281234741211 -3.944033778680023e-06 56.9765510559082 -3.944033778680023e-06 C 62.66028594970703 -3.944033778680023e-06 67.92645263671875 1.783424615859985 72.23847961425781 4.818353176116943 C 76.55049896240234 1.783424615859985 81.81666564941406 -3.944033778680023e-06 87.50040435791016 -3.944033778680023e-06 C 93.18414306640625 -3.944033778680023e-06 98.44940948486328 1.783424615859985 102.7614288330078 4.818353176116943 C 107.0734558105469 1.783424615859985 112.3396224975586 -3.944033778680023e-06 118.0233612060547 -3.944033778680023e-06 C 123.7070999145508 -3.944033778680023e-06 128.9732818603516 1.783424615859985 133.2843780517578 4.817448616027832 C 137.5964050292969 1.783424615859985 142.8625793457031 -3.944033778680023e-06 148.5463104248047 -3.944033778680023e-06 C 163.1562652587891 -3.944033778680023e-06 174.9999084472656 11.78085327148438 174.9999084472656 26.31335258483887 C 174.9999084472656 32.19147109985352 173.0620269775391 37.61966323852539 169.7873840332031 41.99990081787109 C 173.0620269775391 46.3801383972168 174.9999084472656 51.80833053588867 174.9999084472656 57.68644714355469 C 174.9999084472656 72.21894836425781 163.1562652587891 83.99980926513672 148.5463104248047 83.99980926513672 Z" stroke="none" fill="#1a1311"/>
    </g>
    <g id="Polygon_17" data-name="Polygon 17" transform="translate(489 2285)" fill="#e66f89">
      <path d="M 23.02347564697266 16 L 1.976524949073792 16 L 12.5 1.688073992729187 L 23.02347564697266 16 Z" stroke="none"/>
      <path d="M 12.5 3.376148223876953 L 3.95305061340332 15 L 21.04694938659668 15 L 12.5 3.376148223876953 M 12.5 0 L 25 17 L 0 17 L 12.5 0 Z" stroke="none" fill="#1a1311"/>
    </g>
  </g>
</svg>
