<svg xmlns="http://www.w3.org/2000/svg" xmlns:xlink="http://www.w3.org/1999/xlink" width="63.702" height="63.702" viewBox="0 0 63.702 63.702">
  <defs>
    <clipPath id="clip-path">
      <rect id="Rectangle_70" data-name="Rectangle 70" width="41.496" height="37.007" fill="none"/>
    </clipPath>
  </defs>
  <g id="menu-2" transform="matrix(0.996, -0.087, 0.087, 0.996, 0, 5.125)">
    <g id="Rectangle_68" data-name="Rectangle 68" transform="translate(0)" fill="#fff" stroke="#1a1311" stroke-width="2">
      <rect width="58.801" height="58.801" rx="10" stroke="none"/>
      <rect x="1" y="1" width="56.801" height="56.801" rx="9" fill="none"/>
    </g>
    <g id="Group_2195" data-name="Group 2195" transform="translate(8.365 10.897)">
      <g id="Group_73" data-name="Group 73" transform="translate(0 0)" clip-path="url(#clip-path)">
        <path id="Path_359" data-name="Path 359" d="M22.92,4.064a3.268,3.268,0,0,1,1.661-.9,6.592,6.592,0,0,1,3.316.276,2.513,2.513,0,0,1,.493.282c2.6,1.726,5.18,3.473,7.792,5.175,1.37.893,2.8,1.7,4.185,2.563a2.1,2.1,0,0,1,1.124,1.975c-.054.87-.2,1.734-.259,2.6-.078,1.117-.112,2.238-.165,3.356a5.791,5.791,0,0,1-.03.681,8.207,8.207,0,0,0-.077,2.388,4.036,4.036,0,0,1-2.049,4.032c-.187.128-.36.279-.553.4a3.3,3.3,0,0,1-.79.417c-1.045.281-2.1.515-3.151.782-.736.188-1.476.37-2.2.611-1.162.39-2.381.494-3.561.779-1.105.267-2.211.55-3.287.912-1.188.4-2.337.913-3.513,1.347-1.248.461-2.509.881-3.761,1.329-1.02.364-2.033.751-3.055,1.111-.429.151-.878.249-1.312.387-1.686.533-3.368,1.081-5.055,1.607-.379.119-.779.165-1.165.264a10.635,10.635,0,0,0-1.087.327,2.631,2.631,0,0,1-1.612.183c-.4-.1-.839-.038-1.236-.145A3.567,3.567,0,0,1,1,34.684a8.456,8.456,0,0,1-.687-3.146c-.017-.964-.218-1.924-.286-2.889-.048-.68-.011-1.366-.009-2.049,0-.285.017-.571.016-.855a2.6,2.6,0,0,1,1-2.136c.806-.666,1.568-1.387,2.347-2.084Q8.2,17.2,13.035,12.887a1.754,1.754,0,0,0,.622-1.1,14.222,14.222,0,0,1,.909-2.995,14.77,14.77,0,0,0,.459-1.638c.03-.11.04-.226.077-.334.5-1.495.973-3,1.512-4.478A11.768,11.768,0,0,1,17.489.621,1.119,1.119,0,0,1,18.68.012c.208.027.419.009.627.031a.911.911,0,0,1,.438.109c.711.545,1.516.959,1.909,1.875A15.421,15.421,0,0,0,22.92,4.064m-9.48,9.859c-.128.094-.223.154-.306.227-2.02,1.794-4.034,3.6-6.06,5.383-1.826,1.611-3.669,3.2-5.5,4.811a1.511,1.511,0,0,0-.352.506c-.2.457-.047.683.465.668a3.13,3.13,0,0,0,.718-.138c.256-.071.5-.185.755-.257q17.9-5.066,35.8-10.132a2.186,2.186,0,0,0,1.464-1.337.913.913,0,0,0-.279-1.131,5.968,5.968,0,0,0-.635-.484C37.7,10.823,35.9,9.586,34.056,8.405Q30.862,6.356,27.612,4.4a3.618,3.618,0,0,0-3.45-.03,2.92,2.92,0,0,0-.616.489c.191.4.359.76.533,1.117C24.6,7.049,25.1,8.14,25.665,9.194a7.7,7.7,0,0,1,.905,2.918,1.77,1.77,0,0,1-.454,1.425,6.739,6.739,0,0,1-2.52,1.9c-.426.163-.869.287-1.283.475a2.827,2.827,0,0,1-1.669.2,3.93,3.93,0,0,0-2.4.279,2.943,2.943,0,0,1-1.673.216c-.208-.024-.414-.076-.622-.083a2.078,2.078,0,0,1-2.02-1.55c-.127-.351-.315-.68-.49-1.054M1.5,33.365A5.118,5.118,0,0,0,3.22,35.628a2.884,2.884,0,0,0,3.018.286,8.476,8.476,0,0,1,1.289-.433c.235-.073.479-.116.716-.186q2.955-.864,5.908-1.736c.345-.1.681-.239,1.019-.368.408-.156.809-.335,1.221-.478,1.742-.6,3.492-1.186,5.228-1.8,1.038-.369,2.078-.745,3.083-1.2a16.688,16.688,0,0,1,3.384-.99,39.329,39.329,0,0,0,4.658-1.087c.395-.137.8-.248,1.2-.35,1.049-.265,2.108-.494,3.15-.782a4.039,4.039,0,0,0,2.869-4.47,3.709,3.709,0,0,0-1.476.358c-1.126.346-2.266.656-3.368,1.07-2.334.876-4.73,1.546-7.119,2.246a2.574,2.574,0,0,1-.5.1,21.035,21.035,0,0,0-3.268.477,25.916,25.916,0,0,0-2.64.7c-1.229.45-2.413,1.02-3.626,1.513a12.3,12.3,0,0,1-2.643.864c-1.177.193-2.342.481-3.5.789-1.6.425-3.175.91-4.763,1.363-.329.093-.676.124-1,.235-1.506.521-3,1.059-4.565,1.612M40.542,15.447c-.134.078-.224.14-.322.185a10.414,10.414,0,0,1-1.452.65Q21.538,21.177,4.3,26.044a12.464,12.464,0,0,1-2.993.6,3.3,3.3,0,0,0-.29,2.416c.629-.134,1.266-.247,1.889-.407a17.179,17.179,0,0,0,2.511-.725,8.052,8.052,0,0,1,3.27-.633,3.836,3.836,0,0,0,1.763-.384,15.139,15.139,0,0,1,1.677-.711c.751-.268,1.516-.5,2.281-.724.563-.167,1.136-.3,1.7-.451.254-.066.513-.116.764-.192.217-.066.426-.161.64-.239.731-.266,1.465-.523,2.194-.8a19.208,19.208,0,0,1,2.917-.953c1.6-.324,3.193-.691,4.77-1.112,1.393-.372,2.763-.833,4.137-1.273.813-.261,1.622-.537,2.416-.848,1.131-.443,2.233-.963,3.373-1.378a19.768,19.768,0,0,1,2.751-1.071.475.475,0,0,0,.316-.278,3.455,3.455,0,0,0,.152-1.44M27.159,25.255c-.724-.609-1.367-1.113-1.965-1.666a1.129,1.129,0,0,0-1.115-.322,27.62,27.62,0,0,0-3.857,1c-.469.167-.933.353-1.466.556.444.232.807.4,1.144.6.451.278.45.376.121.8-.258.331-.5.671-.756,1.007l.094.122c.466-.194.935-.385,1.4-.584.174-.074.334-.186.512-.245a23.922,23.922,0,0,1,5.445-1.184c.108-.009.215-.042.443-.09m6.8-5.039c-.984.335-1.949.657-2.91,1a.6.6,0,0,0-.278.252c-.582.977-1.153,1.959-1.725,2.942-.07.121-.117.255-.209.456,1.932-.485,3.731-1.1,5.52-1.685a8.517,8.517,0,0,0-.4-2.961m-24.7,7.645a3.377,3.377,0,0,0,.789.526,4.808,4.808,0,0,1,1.544.935.626.626,0,0,0,.575.15c.922-.209,1.848-.4,2.834-.614.21-1.019.422-2.045.642-3.11a11.613,11.613,0,0,0-2.878.746c-1.15.431-2.288.891-3.505,1.367m-1.886.168a1.681,1.681,0,0,0-1.186.236,6.08,6.08,0,0,1-1.8.67c-.633.118-1.252.3-1.876.463-.177.046-.35.111-.594.19.311.245.554.449.81.634A.684.684,0,0,1,3,31.108a9.075,9.075,0,0,0-.245,1.076c1.129-.509,2.3-.443,3.292-1.046a.825.825,0,0,1-.07-1.159c.249-.4.539-.777.815-1.163.173-.243.353-.482.576-.785m31.078-9.58a1.383,1.383,0,0,1,.311.161c.56.514.592.77.19,1.407-.06.1-.135.183-.2.277-.378.557-.755,1.115-1.205,1.781l2.565-.8a20.784,20.784,0,0,0,.207-3.534c-.618.182-1.278.13-1.869.709M23.587,10.993c.371,0,.523-.113.536-.354s-.135-.4-.423-.444a1.522,1.522,0,0,0-.284-.008.366.366,0,0,0-.4.322.393.393,0,0,0,.292.435,1.318,1.318,0,0,0,.282.049m-3.37.533a.575.575,0,0,0-.551-.54.4.4,0,0,0-.385.406.547.547,0,0,0,.545.537.4.4,0,0,0,.391-.4M21.906,14.2c.226,0,.423-.054.474-.306.038-.192-.234-.444-.488-.47a.41.41,0,0,0-.465.384.457.457,0,0,0,.479.393m-3.724-8.89a.978.978,0,0,0-.328-.2.435.435,0,0,0-.469.445.346.346,0,0,0,.355.36c.212.014.441-.259.442-.6m-1.528,7.632a.4.4,0,0,0-.4.386.453.453,0,0,0,.461.4.345.345,0,0,0,.361-.351.43.43,0,0,0-.421-.438m4.288-5.591a.385.385,0,0,0-.439.335.407.407,0,0,0,.439.344.382.382,0,0,0,.408-.313c.043-.177-.168-.356-.408-.366M17.249,8.57a.346.346,0,0,0-.316.389.322.322,0,0,0,.387.31c.211-.017.361-.116.363-.344a.415.415,0,0,0-.434-.354m2.782-6.434a2.033,2.033,0,0,0-.307.489c-.042.166.091.275.271.278.21,0,.483-.214.42-.356s-.208-.229-.384-.41" transform="translate(0 0)" fill="#1a1311"/>
        <path id="Path_360" data-name="Path 360" d="M24.7,5.373c.155-.172.23-.308.345-.37a1.772,1.772,0,0,1,.683-.264,3.984,3.984,0,0,1,2.3.386c1.432.8,2.632,1.938,4.065,2.729.481.266.976.509,1.447.793.7.42,1.374.873,2.067,1.3.241.15.5.267.752.4.16.087.3.212.222.406-.093.234-.292.213-.478.114-.52-.275-1.04-.547-1.55-.839-.591-.339-1.174-.692-1.754-1.048A33.879,33.879,0,0,1,29.4,6.7a18.179,18.179,0,0,0-2.046-1.337,1.92,1.92,0,0,0-.715-.123,2.035,2.035,0,0,0-1.541.2c-.057.04-.193-.028-.4-.064" transform="translate(-0.393 -0.076)" fill="#1a1311"/>
        <path id="Path_361" data-name="Path 361" d="M6.5,23.156c-.284,0-.571.017-.853-.01-.086-.008-.232-.149-.222-.206a.474.474,0,0,1,.211-.282.587.587,0,0,1,.333-.046,7.369,7.369,0,0,0,2.194-.28,2.589,2.589,0,0,0,.792-.3,11.449,11.449,0,0,1,2.505-1.08c1.03-.331,2.058-.671,3.09-1a1.651,1.651,0,0,1,.611-.092.465.465,0,0,1,.311.258c.027.063-.1.257-.195.3a18.926,18.926,0,0,1-1.815.668A17.07,17.07,0,0,0,9.277,22.69a1.678,1.678,0,0,1-.574.242c-.728.121-1.461.212-2.193.314L6.5,23.156" transform="translate(-0.086 -0.317)" fill="#1a1311"/>
        <path id="Path_362" data-name="Path 362" d="M20.65,17.4a5.931,5.931,0,0,1,.652-.107,7.863,7.863,0,0,0,3.132-.771,3.889,3.889,0,0,1,1.128-.383,2.87,2.87,0,0,0,1.976-1.407,3.746,3.746,0,0,1,.473-.563.307.307,0,0,1,.461-.008.333.333,0,0,1,.025.466,6.967,6.967,0,0,1-1.48,1.715,2.017,2.017,0,0,1-1.21.445,2.683,2.683,0,0,0-1.294.382,6.609,6.609,0,0,1-2.834.787,2.273,2.273,0,0,1-.726-.1c-.137-.04-.242-.186-.361-.283l.059-.178" transform="translate(-0.328 -0.224)" fill="#1a1311"/>
        <path id="Path_363" data-name="Path 363" d="M39.33,13.477a2.787,2.787,0,0,1-.349.55,2.441,2.441,0,0,1-1.211.593q-2.174.456-4.34.948a6.542,6.542,0,0,0-.8.3,1.1,1.1,0,0,1-.426.131.461.461,0,0,1-.345-.218.412.412,0,0,1,.152-.371,3.342,3.342,0,0,1,.888-.373c1.351-.309,2.71-.581,4.062-.885a7.191,7.191,0,0,0,1.3-.395c.4-.174.43-.33.291-.731-.036-.107-.126-.2-.142-.308a1.308,1.308,0,0,1,.042-.355c.119.031.3.027.346.1.195.317.349.657.529,1.012" transform="translate(-0.507 -0.197)" fill="#1a1311"/>
        <path id="Path_364" data-name="Path 364" d="M37.789,11.853c-.188-.031-.411-.047-.436-.322-.018-.191.191-.328.449-.309s.443.17.418.362c-.03.243-.2.287-.431.269" transform="translate(-0.595 -0.179)" fill="#1a1311"/>
        <path id="Path_365" data-name="Path 365" d="M38.5,24.812c.073.06.22.128.267.239.024.058-.109.244-.2.28-.818.305-1.634.619-2.468.871-1.145.345-2.306.639-3.46.956l-3.566.983c-.2.056-.4.105-.6.173a23,23,0,0,1-2.733.794c-1.3.271-2.57.662-3.854,1-.073.02-.152.09-.211.074a.554.554,0,0,1-.307-.17c-.032-.047.048-.215.121-.277a.739.739,0,0,1,.315-.112c.887-.209,1.783-.381,2.659-.627,1.224-.344,2.431-.748,3.648-1.117q1.77-.536,3.547-1.052c.894-.26,1.8-.487,2.688-.755,1.272-.383,2.538-.789,3.807-1.185.09-.028.184-.042.353-.08" transform="translate(-0.34 -0.396)" fill="#1a1311"/>
      </g>
    </g>
  </g>
</svg>
