<svg xmlns="http://www.w3.org/2000/svg" xmlns:xlink="http://www.w3.org/1999/xlink" width="63.702" height="63.702" viewBox="0 0 63.702 63.702">
  <defs>
    <clipPath id="clip-path">
      <rect id="Rectangle_110" data-name="Rectangle 110" width="23.547" height="46.081" fill="none"/>
    </clipPath>
  </defs>
  <g id="menu-1" transform="matrix(0.996, 0.087, -0.087, 0.996, 5.125, 0)">
    <g id="Rectangle_68" data-name="Rectangle 68" transform="translate(0)" fill="#fff" stroke="#1a1311" stroke-width="2">
      <rect width="58.801" height="58.801" rx="10" stroke="none"/>
      <rect x="1" y="1" width="56.801" height="56.801" rx="9" fill="none"/>
    </g>
    <g id="Group_2196" data-name="Group 2196" transform="translate(11.628 9.169) rotate(-9)">
      <g id="Group_2191" data-name="Group 2191" transform="translate(0 0)" clip-path="url(#clip-path)">
        <path id="Path_4294" data-name="Path 4294" d="M16.2,1.224A4.178,4.178,0,0,0,13.534.01a12.6,12.6,0,0,0-2.118.146A5.249,5.249,0,0,1,9.706.247a.882.882,0,0,0-.4.041c-1.776.491-3.557.97-5.325,1.49A4.834,4.834,0,0,0,1.06,3.83,6.767,6.767,0,0,0,.4,9.771c.119.352.244.7.353,1.058q2.17,7.026,4.338,14.054c.573,1.857,1.137,3.717,1.725,5.57a12.178,12.178,0,0,0,.666,1.7,5.2,5.2,0,0,0,2,2.239,2.019,2.019,0,0,0,1.651.285c.5-.146,1-.306,1.5-.464.594-.187,1.186-.379,1.825-.583.059.194.11.349.157.506.708,2.364,1.394,4.735,2.133,7.089a37.2,37.2,0,0,0,1.181,3.768,1.681,1.681,0,0,0,1.324,1.059,2.225,2.225,0,0,0,2.533-2.8c-.052-.142-.086-.291-.127-.437-.892-3.138-1.7-6.3-2.82-9.37-.138-.377-.246-.763-.382-1.185.308-.106.577-.195.843-.291a5.13,5.13,0,0,0,1.966-.909c1.769-1.715,2.743-3.72,2.059-6.242q-2.344-8.638-4.716-17.269C18.263,6.272,17.924,5,17.568,3.729a5.288,5.288,0,0,0-1.367-2.5M2.491,8.236a3.446,3.446,0,0,1,.237-1.079,5.718,5.718,0,0,1,1.36-1.865.577.577,0,0,1,.822.023.819.819,0,0,1,.114,1.062q-.731,1.06-1.47,2.113a1.365,1.365,0,0,1-.176.181c-.46.272-.909.05-.887-.434M18.047,32.916c.539,1.954,1.054,3.916,1.622,5.861.459,1.572.983,3.126,1.474,4.69a1.208,1.208,0,0,1,.073.393,1.5,1.5,0,0,1-1.144,1.276,1.244,1.244,0,0,1-1.477-.479,2.753,2.753,0,0,1-.348-.724q-1.458-4.722-2.9-9.448c-.1-.335-.2-.671-.32-1.053l2.862-1c.059.18.114.33.156.482m2.33-12.2c.141.607.27,1.217.419,1.823.218.882.409,1.775.685,2.64a3.465,3.465,0,0,1-.814,3.649c-.457.493-.963.942-1.451,1.405a2.744,2.744,0,0,1-.285.211,1.673,1.673,0,0,1-1.227.166.485.485,0,0,1-.416-.451,1.621,1.621,0,0,1,.162-1.13,8.654,8.654,0,0,1,.754-1.073,3.909,3.909,0,0,0,.929-3.009,17.754,17.754,0,0,0-.511-2.421,3.627,3.627,0,0,1-.129-1.4,1.549,1.549,0,0,1,.607-1.073.536.536,0,0,1,.661-.045,1.264,1.264,0,0,1,.616.709m-1.314-1.659c-.587.3-1.215.242-1.418-.143a1.017,1.017,0,0,1,.323-1.45.82.82,0,0,1,1.241.318c.263.494.215,1.087-.146,1.274m-2.1-10.592a2.22,2.22,0,0,1-.416,2.139,1.915,1.915,0,0,1-.686.4c-.357.149-.738.24-1.1.384a1.515,1.515,0,0,0-1.047,1.661c.088.941.234,1.876.351,2.813a3.774,3.774,0,0,1,.034.505,1.336,1.336,0,0,1-1.027,1.339c-.113.032-.234.04-.346.076A1.18,1.18,0,0,0,12,18.47a2.968,2.968,0,0,0,.022,2.353Q12.561,22.51,13.1,24.2a3.31,3.31,0,0,1,.178,1.5,1.019,1.019,0,0,1-.888.907.811.811,0,0,1-.929-.451,13.565,13.565,0,0,1-1.075-2.673c-.1-.39-.258-.768-.384-1.152-.111-.336-.2-.681-.329-1.01a3.609,3.609,0,0,0-.435-.9,6.3,6.3,0,0,1-.858-1.881c-.528-1.55-1.028-3.111-1.486-4.681A.953.953,0,0,0,5.6,13.1a3.989,3.989,0,0,1-1.906-.071,1.1,1.1,0,0,1-.845-.794.317.317,0,0,1,.061-.273.268.268,0,0,1,.265,0c.654.726,1.485.486,2.272.407a2.769,2.769,0,0,1,1.051.045,1.455,1.455,0,0,1,.894.656c.239.773.493,1.541.715,2.319.254.892.434,1.809.736,2.685a10.6,10.6,0,0,0,.885,1.815,6.534,6.534,0,0,1,.671,1.465c.312,1.086.653,2.166,1.033,3.229a5.552,5.552,0,0,0,.662,1.132.262.262,0,0,0,.468-.11,1.638,1.638,0,0,0,.014-.7c-.126-.577-.282-1.148-.447-1.716-.238-.827-.5-1.649-.739-2.476-.075-.259-.1-.531-.167-.792a3.33,3.33,0,0,1,.412-2.1c.154-.376.557-.52.913-.679a1.627,1.627,0,0,1,.2-.047c.585-.174.755-.391.7-.994S13.3,14.9,13.232,14.3c-.047-.4-.112-.8-.121-1.208a2.2,2.2,0,0,1,1.278-2.227,9.618,9.618,0,0,1,1.227-.467,1.172,1.172,0,0,0,.794-1.1c-.012-.235-.047-.47-.08-.7-.029-.21.018-.382.241-.434s.346.109.391.3m-.939-3.125a2.807,2.807,0,0,1-.117,2.03.716.716,0,0,1-.678.444.64.64,0,0,1-.723-.34,11.233,11.233,0,0,1-.676-1.521,3.4,3.4,0,0,0-.741-1.246.759.759,0,0,0-.665-.3,1.639,1.639,0,0,1-1.13-.351,1.728,1.728,0,0,0-.754-.226c-.433-.058-.872-.075-1.309-.1a2.489,2.489,0,0,0-.5.011c-.495.072-.6.041-.763-.277a.81.81,0,0,1,.1-.986,1.814,1.814,0,0,1,1.979-.545,2.5,2.5,0,0,0,1.682-.14,3.682,3.682,0,0,1,1.947.009,1.971,1.971,0,0,1,.991.83c.127.155.229.333.342.5l.034-.016c.331.739.692,1.466.983,2.219" transform="translate(0 0)" fill="#1a1311"/>
        <path id="Path_4295" data-name="Path 4295" d="M.491.123C.587.4.667.6.731.813q1.261,4.119,2.515,8.24c.055.182.194.434-.083.523s-.31-.2-.367-.378Q1.448,4.974.111.746a3.74,3.74,0,0,1-.1-.393C-.022.188.011.022.2,0,.3-.01.42.091.491.123" transform="translate(16.854 33.224)" fill="#1a1311"/>
      </g>
    </g>
  </g>
</svg>
