<svg xmlns="http://www.w3.org/2000/svg" width="172" height="105" viewBox="0 0 172 105">
  <g id="menu-type04" transform="translate(-587 -2114)">
    <g id="Union_2" data-name="Union 2" transform="translate(587 2147)" fill="#fffbd1">
      <path d="M 145.9998016357422 51.00020980834961 C 140.7969512939453 51.00020980834961 135.8097991943359 49.41755676269531 131.5774688720703 46.42333984375 L 130.9999389648438 46.01473236083984 L 130.4223937988281 46.42333984375 C 126.1901092529297 49.41755676269531 121.2029724121094 51.00020980834961 116.0001068115234 51.00020980834961 C 110.797233581543 51.00020980834961 105.8099517822266 49.4174690246582 101.5774307250977 46.42309951782227 L 100.999885559082 46.01449203491211 L 100.4223251342773 46.42309951782227 C 96.18997955322266 49.4174690246582 91.20295715332031 51.00020980834961 86.00041198730469 51.00020980834961 C 80.79751586914062 51.00020980834961 75.81021881103516 49.41744995117188 71.57762908935547 46.42303466796875 L 71.00008392333984 46.01442718505859 L 70.42253875732422 46.42303466796875 C 66.18997955322266 49.41744995117188 61.20269393920898 51.00020980834961 55.99980163574219 51.00020980834961 C 50.79693222045898 51.00020980834961 45.80978012084961 49.41755676269531 41.57749938964844 46.42333984375 L 40.99995422363281 46.01473236083984 L 40.42240905761719 46.42333984375 C 36.19010543823242 49.41755676269531 31.20295333862305 51.00020980834961 26.00010681152344 51.00020980834961 C 22.62467193603516 51.00020980834961 19.35071563720703 50.33936309814453 16.26923751831055 49.03599166870117 C 13.29234600067139 47.77688217163086 10.61862850189209 45.97414398193359 8.322345733642578 43.67786026000977 C 6.026062965393066 41.3815803527832 4.223323822021484 38.70786285400391 2.964215040206909 35.73097229003906 C 1.660845518112183 32.64949417114258 0.9999976754188538 29.37553596496582 0.9999976754188538 26.00010108947754 C 0.9999976754188538 22.62466621398926 1.660845518112183 19.35070991516113 2.964215040206909 16.26923179626465 C 4.223323822021484 13.29234027862549 6.026062965393066 10.61862277984619 8.322345733642578 8.32234001159668 C 10.61862850189209 6.026057720184326 13.29234600067139 4.223318576812744 16.26923751831055 2.964209794998169 C 19.35071563720703 1.660840272903442 22.62467193603516 0.9999923706054688 26.00010681152344 0.9999923706054688 C 31.20297622680664 0.9999923706054688 36.19012832641602 2.582644462585449 40.42240905761719 5.576840400695801 L 40.99995422363281 5.985448837280273 L 41.57749938964844 5.576840400695801 C 45.80975723266602 2.582644462585449 50.79690933227539 0.9999923706054688 55.99980163574219 0.9999923706054688 C 61.20269393920898 0.9999923706054688 66.18997955322266 2.58275318145752 70.42253875732422 5.577166080474854 L 71.00008392333984 5.985774993896484 L 71.57762908935547 5.577166080474854 C 75.81021881103516 2.58275318145752 80.79751586914062 0.9999923706054688 86.00041198730469 0.9999923706054688 C 91.20295715332031 0.9999923706054688 96.18997955322266 2.582731485366821 100.4223251342773 5.577079296112061 L 100.999885559082 5.985688209533691 L 101.5774307250977 5.577101230621338 C 105.8099517822266 2.582731485366821 110.797233581543 0.9999923706054688 116.0001068115234 0.9999923706054688 C 121.202995300293 0.9999923706054688 126.1901245117188 2.582644462585449 130.4223937988281 5.576840400695801 L 130.9999389648438 5.985448837280273 L 131.5774688720703 5.576840400695801 C 135.8097839355469 2.582644462585449 140.7969360351562 0.9999923706054688 145.9998016357422 0.9999923706054688 C 149.375244140625 0.9999923706054688 152.6492004394531 1.660840272903442 155.7306671142578 2.964209794998169 C 158.7075653076172 4.223318576812744 161.3812866210938 6.026057720184326 163.6775665283203 8.32234001159668 C 165.9738464355469 10.61862277984619 167.7765808105469 13.29234027862549 169.0356903076172 16.26923179626465 C 170.3390655517578 19.35070991516113 170.9999084472656 22.62466621398926 170.9999084472656 26.00010108947754 C 170.9999084472656 29.37553596496582 170.3390655517578 32.64949417114258 169.0356903076172 35.73097229003906 C 167.7765808105469 38.70786285400391 165.9738464355469 41.3815803527832 163.6775665283203 43.67786026000977 C 161.3812866210938 45.97414398193359 158.7075653076172 47.77688217163086 155.7306671142578 49.03599166870117 C 152.6492004394531 50.33936309814453 149.375244140625 51.00020980834961 145.9998016357422 51.00020980834961 Z" stroke="none"/>
      <path d="M 145.9998016357422 50.00021362304688 C 149.2406768798828 50.00021362304688 152.3835754394531 49.36594009399414 155.3411102294922 48.11498641967773 C 158.1987915039062 46.90630722045898 160.7656860351562 45.17553329467773 162.970458984375 42.97076034545898 C 165.1752319335938 40.76598739624023 166.906005859375 38.19910049438477 168.1146850585938 35.3414192199707 C 169.3656311035156 32.38387298583984 169.9999084472656 29.24098777770996 169.9999084472656 26.00010108947754 C 169.9999084472656 22.75921440124512 169.3656311035156 19.6163501739502 168.1146850585938 16.65878295898438 C 166.906005859375 13.801100730896 165.1752319335938 11.23421478271484 162.970458984375 9.029464721679688 C 160.7656860351562 6.824691772460938 158.1987915039062 5.093919277191162 155.3411407470703 3.885237455368042 C 152.3835754394531 2.634282827377319 149.2406768798828 2.000010251998901 145.9998016357422 2.000010251998901 C 141.0049133300781 2.000010251998901 136.2174835205078 3.51914644241333 132.155029296875 6.393191814422607 L 130.9999389648438 7.210396766662598 L 129.8448333740234 6.393191814422607 C 125.7824096679688 3.51914644241333 120.9949798583984 2.000010251998901 116.0000915527344 2.000010251998901 C 111.0052261352539 2.000010251998901 106.217658996582 3.519237518310547 102.1549758911133 6.393442153930664 L 100.9998626708984 7.210669040679932 L 99.84477233886719 6.393442153930664 C 95.78224945068359 3.519237518310547 90.99495697021484 2.000010251998901 86.00041198730469 2.000010251998901 C 81.00552368164062 2.000010251998901 76.21793365478516 3.519260168075562 72.15518188476562 6.393510341644287 L 71.00009155273438 7.210714817047119 L 69.84500122070312 6.393510341644287 C 65.78224945068359 3.519260168075562 60.99465942382812 2.000010251998901 55.99979400634766 2.000010251998901 C 51.00490951538086 2.000010251998901 46.21747589111328 3.51914644241333 42.15504455566406 6.393191814422607 L 40.99995422363281 7.210396766662598 L 39.84486389160156 6.393191814422607 C 35.78240966796875 3.51914644241333 30.99497604370117 2.000010251998901 26.00011253356934 2.000010251998901 C 22.75922775268555 2.000010251998901 19.61634063720703 2.634282827377319 16.65877151489258 3.885237455368042 C 13.80111312866211 5.093919277191162 11.23422718048096 6.824691772460938 9.029454231262207 9.029464721679688 C 6.824681282043457 11.23421478271484 5.093908786773682 13.801100730896 3.885226964950562 16.65878295898438 C 2.634272336959839 19.6163501739502 1.999999642372131 22.75921440124512 1.999999642372131 26.00010108947754 C 1.999999642372131 29.24098777770996 2.634272336959839 32.38387298583984 3.885226964950562 35.3414192199707 C 5.093908786773682 38.19910049438477 6.824681282043457 40.76598739624023 9.029454231262207 42.97076034545898 C 11.23422718048096 45.17553329467773 13.80111312866211 46.90630722045898 16.65879440307617 48.11498641967773 C 19.61634063720703 49.36594009399414 22.75922775268555 50.00021362304688 26.00011253356934 50.00021362304688 C 30.99495506286621 50.00021362304688 35.78240966796875 48.48105621337891 39.84486389160156 45.60698699951172 L 40.99995422363281 44.7897834777832 L 42.15506744384766 45.60698699951172 C 46.21749877929688 48.48105621337891 51.00493240356445 50.00021362304688 55.99979400634766 50.00021362304688 C 60.99461364746094 50.00021362304688 65.78220367431641 48.48094177246094 69.84500122070312 45.60667037963867 L 71.00009155273438 44.78946304321289 L 72.15518188476562 45.60667037963867 C 76.21797943115234 48.48094177246094 81.00556945800781 50.00021362304688 86.00041198730469 50.00021362304688 C 90.99493408203125 50.00021362304688 95.78224945068359 48.48098754882812 99.84474945068359 45.60676193237305 L 100.9998626708984 44.78950881958008 L 102.1549758911133 45.60673904418945 C 106.2176818847656 48.48096466064453 111.0052261352539 50.00021362304688 116.0000915527344 50.00021362304688 C 120.9949569702148 50.00021362304688 125.7823867797852 48.48105621337891 129.8448181152344 45.60698699951172 L 130.9999389648438 44.7897834777832 L 132.155029296875 45.60698699951172 C 136.2174835205078 48.48105621337891 141.0049285888672 50.00021362304688 145.9998016357422 50.00021362304688 M 145.9998016357422 52.00021362304688 C 140.4134063720703 52.00021362304688 135.2380065917969 50.23801040649414 130.9999389648438 47.23969268798828 C 126.7618865966797 50.23801040649414 121.5865020751953 52.00021362304688 116.0000915527344 52.00021362304688 C 110.413703918457 52.00021362304688 105.2379531860352 50.23775863647461 100.999885559082 47.23944091796875 C 96.76197814941406 50.23775863647461 91.58643341064453 52.00021362304688 86.00041198730469 52.00021362304688 C 80.41400146484375 52.00021362304688 75.2381591796875 50.2376708984375 71.00009155273438 47.23937225341797 C 66.76202392578125 50.2376708984375 61.58620452880859 52.00021362304688 55.99979400634766 52.00021362304688 C 50.41341018676758 52.00021362304688 45.23799896240234 50.23801040649414 40.99995422363281 47.23969268798828 C 36.76188659667969 50.23801040649414 31.58650016784668 52.00021362304688 26.00011253356934 52.00021362304688 C 11.6406135559082 52.00021362304688 -3.218217443645699e-07 40.35960006713867 -3.218217443645699e-07 26.00010108947754 C -3.218217443645699e-07 11.64060115814209 11.6406135559082 1.018038619804429e-05 26.00011253356934 1.018038619804429e-05 C 31.58650016784668 1.018038619804429e-05 36.76188659667969 1.762192010879517 40.99995422363281 4.76048755645752 C 45.23799896240234 1.762192010879517 50.41341018676758 1.018038619804429e-05 55.99979400634766 1.018038619804429e-05 C 61.58620452880859 1.018038619804429e-05 66.76202392578125 1.762510180473328 71.00009155273438 4.760805606842041 C 75.2381591796875 1.762510180473328 80.41400146484375 1.018038619804429e-05 86.00041198730469 1.018038619804429e-05 C 91.58643341064453 1.018038619804429e-05 96.76197814941406 1.762441992759705 100.999885559082 4.760737419128418 C 105.2379531860352 1.762441992759705 110.413703918457 1.018038619804429e-05 116.0000915527344 1.018038619804429e-05 C 121.5865020751953 1.018038619804429e-05 126.7618865966797 1.762192010879517 130.9999389648438 4.76048755645752 C 135.2380065917969 1.762192010879517 140.4134063720703 1.018038619804429e-05 145.9998016357422 1.018038619804429e-05 C 160.3592987060547 1.018038619804429e-05 171.9999084472656 11.64060115814209 171.9999084472656 26.00010108947754 C 171.9999084472656 40.35960006713867 160.3592987060547 52.00021362304688 145.9998016357422 52.00021362304688 Z" stroke="none" fill="#1a1311"/>
    </g>
    <g id="Ellipse_51" data-name="Ellipse 51" transform="translate(694.381 2114)" fill="#e64a00" stroke="#1a1311" stroke-width="2">
      <circle cx="17" cy="17" r="17" stroke="none"/>
      <circle cx="17" cy="17" r="16" fill="none"/>
    </g>
    <g id="Polygon_19" data-name="Polygon 19" transform="translate(687 2219) rotate(180)" fill="#e66f89">
      <path d="M 23.02347564697266 16 L 1.976524949073792 16 L 12.5 1.688073992729187 L 23.02347564697266 16 Z" stroke="none"/>
      <path d="M 12.5 3.376148223876953 L 3.95305061340332 15 L 21.04694938659668 15 L 12.5 3.376148223876953 M 12.5 0 L 25 17 L 0 17 L 12.5 0 Z" stroke="none" fill="#1a1311"/>
    </g>
  </g>
</svg>
