<svg xmlns="http://www.w3.org/2000/svg" width="173" height="104" viewBox="0 0 173 104">
  <g id="menu-type02" transform="translate(-241 -2115)">
    <g id="Union_8" data-name="Union 8" transform="translate(241 2115)" fill="#fffbd1">
      <path d="M 146.8486328125 82.99980926513672 C 141.6152954101562 82.99980926513672 136.5986633300781 81.39804077148438 132.3410034179688 78.36765289306641 L 131.7610626220703 77.95487976074219 L 131.1811828613281 78.36769866943359 C 126.9244995117188 81.39806365966797 121.9081802368164 82.99980926513672 116.6745223999023 82.99980926513672 C 111.441162109375 82.99980926513672 106.4245223999023 81.39804077148438 102.1668853759766 78.36765289306641 L 101.5870208740234 77.95492553710938 L 101.0071563720703 78.36765289306641 C 96.74949645996094 81.39804077148438 91.73316192626953 82.99980926513672 86.50041198730469 82.99980926513672 C 81.26706695556641 82.99980926513672 76.25041198730469 81.39804077148438 71.99275207519531 78.36765289306641 L 71.41288757324219 77.95492553710938 L 70.83302307128906 78.36765289306641 C 66.57538604736328 81.39804077148438 61.55875015258789 82.99980926513672 56.32538604736328 82.99980926513672 C 51.09204483032227 82.99980926513672 46.07538604736328 81.39804077148438 41.81772613525391 78.36765289306641 L 41.23779678344727 77.95487976074219 L 40.65790939331055 78.36769866943359 C 36.40124893188477 81.39806365966797 31.38493156433105 82.99980926513672 26.15127182006836 82.99980926513672 C 22.75618171691895 82.99980926513672 19.46313667297363 82.33097076416016 16.36359024047852 81.01183319091797 C 13.36888599395752 79.73733520507812 10.67904472351074 77.91246795654297 8.368795394897461 75.58789825439453 C 6.058135986328125 73.26290130615234 4.244067668914795 70.55564880371094 2.976954221725464 67.54129028320312 C 1.665136098861694 64.42058563232422 0.9999997019767761 61.10494613647461 0.9999997019767761 57.68644714355469 C 0.9999997019767761 52.20108413696289 2.714158773422241 46.9822883605957 5.95715856552124 42.59424209594727 L 6.396408557891846 41.99990081787109 L 5.95715856552124 41.40555953979492 C 2.714158773422241 37.01749038696289 0.9999997019767761 31.79869651794434 0.9999997019767761 26.3133544921875 C 0.9999997019767761 22.89485549926758 1.665136098861694 19.57921981811523 2.976954221725464 16.45851516723633 C 4.244067668914795 13.44415092468262 6.058135986328125 10.73690128326416 8.368795394897461 8.411900520324707 C 10.67904472351074 6.087332725524902 13.36888599395752 4.262468814849854 16.36359024047852 2.987968921661377 C 19.46313667297363 1.668832659721375 22.75618171691895 0.9999917149543762 26.15127182006836 0.9999917149543762 C 31.38493156433105 0.9999917149543762 36.40124893188477 2.601741790771484 40.65790939331055 5.632105350494385 L 41.23779678344727 6.044923782348633 L 41.81772613525391 5.632150650024414 C 46.07538604736328 2.601764440536499 51.09204483032227 0.9999917149543762 56.32538604736328 0.9999917149543762 C 61.55918121337891 0.9999917149543762 66.57579803466797 2.602059841156006 70.83290863037109 5.632968902587891 L 71.41288757324219 6.045923709869385 L 71.99286651611328 5.632991790771484 C 76.25 2.602059841156006 81.26661682128906 0.9999917149543762 86.50041198730469 0.9999917149543762 C 91.73358917236328 0.9999917149543762 96.74990844726562 2.602059841156006 101.0070419311523 5.632991790771484 L 101.5870208740234 6.045923709869385 L 102.1669998168945 5.632968902587891 C 106.4241104125977 2.602059841156006 111.4407272338867 0.9999917149543762 116.6745223999023 0.9999917149543762 C 121.9081802368164 0.9999917149543762 126.9244995117188 2.601741790771484 131.1811828613281 5.632105350494385 L 131.7610626220703 6.044923782348633 L 132.3410034179688 5.632150650024414 C 136.5986633300781 2.601764440536499 141.6152954101562 0.9999917149543762 146.8486328125 0.9999917149543762 C 150.2437286376953 0.9999917149543762 153.5367736816406 1.668832659721375 156.6363220214844 2.987968921661377 C 159.6310272216797 4.262468814849854 162.3208618164062 6.087332725524902 164.6311187744141 8.411900520324707 C 166.9417724609375 10.73690128326416 168.7558441162109 13.44415092468262 170.02294921875 16.45851516723633 C 171.3347778320312 19.57921981811523 171.9999084472656 22.89485549926758 171.9999084472656 26.3133544921875 C 171.9999084472656 31.79869651794434 170.2857513427734 37.01749038696289 167.042724609375 41.40553665161133 L 166.6034698486328 41.99990081787109 L 167.042724609375 42.59426498413086 C 170.2857513427734 46.9822883605957 171.9999084472656 52.20108413696289 171.9999084472656 57.68644714355469 C 171.9999084472656 61.10494613647461 171.3347778320312 64.42058563232422 170.02294921875 67.54129028320312 C 168.7558441162109 70.55564880371094 166.9417724609375 73.26290130615234 164.6311187744141 75.58789825439453 C 162.3208618164062 77.91246795654297 159.6310272216797 79.73733520507812 156.6363220214844 81.01183319091797 C 153.5367736816406 82.33097076416016 150.2437286376953 82.99980926513672 146.8486328125 82.99980926513672 Z" stroke="none"/>
      <path d="M 146.8486480712891 81.99980926513672 C 150.1084136962891 81.99980926513672 153.2696990966797 81.35782623291016 156.2447204589844 80.09171295166016 C 159.1200714111328 78.86799621582031 161.7030181884766 77.11551666259766 163.9218139648438 74.88297271728516 C 166.1414489746094 72.64956665039062 167.884033203125 70.04908752441406 169.1010894775391 67.15377807617188 C 170.3610534667969 64.15642547607422 170.9999084472656 60.97113800048828 170.9999084472656 57.68644714355469 C 170.9999084472656 52.4166145324707 169.3534545898438 47.40335464477539 166.238525390625 43.18861389160156 L 165.3600006103516 41.99990081787109 L 166.238525390625 40.81118774414062 C 169.3534545898438 36.5964469909668 170.9999084472656 31.58318710327148 170.9999084472656 26.31335258483887 C 170.9999084472656 23.02866363525391 170.3610534667969 19.84337615966797 169.1010894775391 16.84601974487305 C 167.884033203125 13.95071029663086 166.1414489746094 11.35023403167725 163.9218139648438 9.116828918457031 C 161.7030181884766 6.884281635284424 159.1200714111328 5.131805419921875 156.2447204589844 3.908091306686401 C 153.2696990966797 2.641972303390503 150.1084136962891 1.999996066093445 146.8486480712891 1.999996066093445 C 141.8243560791016 1.999996066093445 137.0081939697266 3.537710428237915 132.9208526611328 6.446877002716064 L 131.7610015869141 7.272400856018066 L 130.6012115478516 6.446733951568604 C 126.5148849487305 3.537662744522095 121.6991195678711 1.999996066093445 116.6745223999023 1.999996066093445 C 111.6498107910156 1.999996066093445 106.8337631225586 3.537948369979858 102.7470016479492 6.447591304779053 L 101.587028503418 7.273472309112549 L 100.4270477294922 6.447615146636963 C 96.34026336669922 3.537948369979858 91.52450561523438 1.999996066093445 86.50040435791016 1.999996066093445 C 81.47571563720703 1.999996066093445 76.65964508056641 3.537948369979858 72.57286071777344 6.447615146636963 L 71.41287994384766 7.273472309112549 L 70.25290679931641 6.447615146636963 C 66.16612243652344 3.537948369979858 61.35007476806641 1.999996066093445 56.32538223266602 1.999996066093445 C 51.30109786987305 1.999996066093445 46.48493194580078 3.537710428237915 42.39759826660156 6.446877002716064 L 41.23773956298828 7.272400856018066 L 40.07795333862305 6.446733951568604 C 35.99161911010742 3.537662744522095 31.17585945129395 1.999996066093445 26.15126419067383 1.999996066093445 C 22.89150238037109 1.999996066093445 19.73021697998047 2.641972303390503 16.75519180297852 3.908091306686401 C 13.87983512878418 5.131805419921875 11.29688262939453 6.884281635284424 9.078097343444824 9.116828918457031 C 6.85845422744751 11.35023403167725 5.115882873535156 13.95071029663086 3.898811340332031 16.84601974487305 C 2.638859033584595 19.84337615966797 2.000001907348633 23.02866363525391 2.000001907348633 26.31335258483887 C 2.000001907348633 31.58316230773926 3.646454334259033 36.5964469909668 6.761359214782715 40.81121063232422 L 7.639882564544678 41.99990081787109 L 6.761359214782715 43.18859100341797 C 3.646454334259033 47.40335464477539 2.000001907348633 52.4166374206543 2.000001907348633 57.68644714355469 C 2.000001907348633 60.97113800048828 2.638859033584595 64.15642547607422 3.898811340332031 67.15377807617188 C 5.115882873535156 70.04908752441406 6.85845422744751 72.64956665039062 9.078097343444824 74.88297271728516 C 11.29688262939453 77.11551666259766 13.87983512878418 78.86799621582031 16.75519180297852 80.09171295166016 C 19.73021697998047 81.35782623291016 22.89150238037109 81.99980926513672 26.15126419067383 81.99980926513672 C 31.17585945129395 81.99980926513672 35.99161911010742 80.46213531494141 40.07795333862305 77.55307006835938 L 41.23773956298828 76.72740173339844 L 42.39759826660156 77.55292510986328 C 46.48493194580078 80.46208953857422 51.30109786987305 81.99980926513672 56.32538223266602 81.99980926513672 C 61.34969329833984 81.99980926513672 66.16583251953125 80.46211242675781 70.25314331054688 77.55294799804688 L 71.41287994384766 76.72749328613281 L 72.57262420654297 77.55292510986328 C 76.65995788574219 80.46208953857422 81.47611999511719 81.99980926513672 86.50040435791016 81.99980926513672 C 91.52409362792969 81.99980926513672 96.33995056152344 80.46208953857422 100.4272842407227 77.55292510986328 L 101.587028503418 76.72749328613281 L 102.7467651367188 77.55294799804688 C 106.8340759277344 80.46211242675781 111.6501922607422 81.99980926513672 116.6745223999023 81.99980926513672 C 121.6991195678711 81.99980926513672 126.5148849487305 80.46213531494141 130.6012115478516 77.55307006835938 L 131.7610015869141 76.72740173339844 L 132.9208526611328 77.55292510986328 C 137.0081939697266 80.46208953857422 141.8243560791016 81.99980926513672 146.8486480712891 81.99980926513672 M 146.8486480712891 83.99980926513672 C 141.2298583984375 83.99980926513672 136.0238800048828 82.21637725830078 131.7611236572266 79.18235015869141 C 127.4993133544922 82.21637725830078 122.2933120727539 83.99980926513672 116.6745223999023 83.99980926513672 C 111.0557403564453 83.99980926513672 105.849739074707 82.21637725830078 101.587028503418 79.18235015869141 C 97.32426452636719 82.21637725830078 92.11917114257812 83.99980926513672 86.50040435791016 83.99980926513672 C 80.88162231445312 83.99980926513672 75.67564392089844 82.21637725830078 71.41287994384766 79.18235015869141 C 67.150146484375 82.21637725830078 61.94416809082031 83.99980926513672 56.32538223266602 83.99980926513672 C 50.70659637451172 83.99980926513672 45.5006217956543 82.21637725830078 41.23785781860352 79.18235015869141 C 36.97605133056641 82.21637725830078 31.77005004882812 83.99980926513672 26.15126419067383 83.99980926513672 C 11.70828723907471 83.99980926513672 1.842680376284989e-06 72.21894836425781 1.842680376284989e-06 57.68644714355469 C 1.842680376284989e-06 51.80833053588867 1.915739893913269 46.3801383972168 5.1529541015625 41.99990081787109 C 1.915739893913269 37.61966323852539 1.842680376284989e-06 32.19147109985352 1.842680376284989e-06 26.31335258483887 C 1.842680376284989e-06 11.78085327148438 11.70828723907471 -3.944033778680023e-06 26.15126419067383 -3.944033778680023e-06 C 31.77005004882812 -3.944033778680023e-06 36.97605133056641 1.783424615859985 41.23785781860352 4.817448616027832 C 45.5006217956543 1.783424615859985 50.70659637451172 -3.944033778680023e-06 56.32538223266602 -3.944033778680023e-06 C 61.94416809082031 -3.944033778680023e-06 67.150146484375 1.783424615859985 71.41287994384766 4.818353176116943 C 75.67564392089844 1.783424615859985 80.88162231445312 -3.944033778680023e-06 86.50040435791016 -3.944033778680023e-06 C 92.11917114257812 -3.944033778680023e-06 97.32426452636719 1.783424615859985 101.587028503418 4.818353176116943 C 105.849739074707 1.783424615859985 111.0557403564453 -3.944033778680023e-06 116.6745223999023 -3.944033778680023e-06 C 122.2933120727539 -3.944033778680023e-06 127.4993133544922 1.783424615859985 131.7611236572266 4.817448616027832 C 136.0238800048828 1.783424615859985 141.2298583984375 -3.944033778680023e-06 146.8486480712891 -3.944033778680023e-06 C 161.2916259765625 -3.944033778680023e-06 172.9999084472656 11.78085327148438 172.9999084472656 26.31335258483887 C 172.9999084472656 32.19147109985352 171.0841674804688 37.61966323852539 167.846923828125 41.99990081787109 C 171.0841674804688 46.3801383972168 172.9999084472656 51.80833053588867 172.9999084472656 57.68644714355469 C 172.9999084472656 72.21894836425781 161.2916259765625 83.99980926513672 146.8486480712891 83.99980926513672 Z" stroke="none" fill="#1a1311"/>
    </g>
    <g id="Polygon_18" data-name="Polygon 18" transform="translate(340 2219) rotate(180)" fill="#e66f89">
      <path d="M 23.02347564697266 16 L 1.976524949073792 16 L 12.5 1.688073992729187 L 23.02347564697266 16 Z" stroke="none"/>
      <path d="M 12.5 3.376148223876953 L 3.95305061340332 15 L 21.04694938659668 15 L 12.5 3.376148223876953 M 12.5 0 L 25 17 L 0 17 L 12.5 0 Z" stroke="none" fill="#1a1311"/>
    </g>
  </g>
</svg>
