<svg xmlns="http://www.w3.org/2000/svg" xmlns:xlink="http://www.w3.org/1999/xlink" width="122" height="121.998" viewBox="0 0 122 121.998">
  <defs>
    <clipPath id="clip-path">
      <rect id="Rectangle_198" data-name="Rectangle 198" width="122" height="121.998" fill="none"/>
    </clipPath>
  </defs>
  <g id="mv-07" transform="translate(0 0)">
    <g id="Group_2283" data-name="Group 2283" transform="translate(0 0)" clip-path="url(#clip-path)">
      <path id="Path_5167" data-name="Path 5167" d="M76.913,122a11.429,11.429,0,0,1-5.235-1.266L6.253,87.17A11.523,11.523,0,0,1,1.267,71.678L34.829,6.253A11.524,11.524,0,0,1,50.321,1.267l65.425,33.561a11.522,11.522,0,0,1,4.986,15.493L87.171,115.746A11.521,11.521,0,0,1,76.913,122M45.081,3.951a7.565,7.565,0,0,0-6.735,4.106L4.784,73.481A7.566,7.566,0,0,0,8.057,83.653l65.425,33.561a7.586,7.586,0,0,0,10.172-3.275l33.561-65.425a7.581,7.581,0,0,0-3.273-10.17L48.518,4.784a7.506,7.506,0,0,0-3.437-.833" transform="translate(0 0)"/>
      <path id="Path_5168" data-name="Path 5168" d="M43.148,2.02a7.563,7.563,0,0,0-6.735,4.106L2.85,71.551A7.586,7.586,0,0,0,6.125,81.723L71.55,115.284a7.581,7.581,0,0,0,10.17-3.273l33.563-65.425a7.565,7.565,0,0,0-3.275-10.172L46.583,2.851a7.52,7.52,0,0,0-3.435-.831" transform="translate(1.933 1.931)" fill="#fff"/>
      <path id="Path_5169" data-name="Path 5169" d="M49.866,10.782a8.3,8.3,0,0,0-5.287-2.408,24.87,24.87,0,0,0-4.2.291,10.427,10.427,0,0,1-3.388.178,1.729,1.729,0,0,0-.786.08c-3.519.974-7.048,1.923-10.551,2.954a9.577,9.577,0,0,0-5.8,4.067,13.408,13.408,0,0,0-1.3,11.774c.237.7.483,1.393.7,2.1q4.3,13.923,8.6,27.849c1.137,3.681,2.253,7.367,3.421,11.038a23.954,23.954,0,0,0,1.318,3.361,10.308,10.308,0,0,0,3.961,4.44,4.012,4.012,0,0,0,3.273.563c1-.29,1.985-.606,2.973-.919,1.178-.37,2.351-.749,3.615-1.154.119.383.219.692.311,1,1.4,4.683,2.762,9.384,4.229,14.049A73.668,73.668,0,0,0,53.3,97.513a3.331,3.331,0,0,0,2.623,2.1,4.408,4.408,0,0,0,5.019-5.552c-.1-.282-.17-.577-.254-.869C58.919,86.972,57.323,80.7,55.1,74.621c-.272-.745-.489-1.512-.757-2.347.612-.211,1.144-.385,1.672-.577,1.352-.491,2.836-.771,3.9-1.8,3.505-3.4,5.436-7.373,4.08-12.369Q59.341,40.407,54.643,23.3c-.689-2.519-1.361-5.045-2.068-7.558a10.454,10.454,0,0,0-2.709-4.963M22.7,24.677a6.748,6.748,0,0,1,.469-2.136,11.332,11.332,0,0,1,2.694-3.7,1.143,1.143,0,0,1,1.629.047,1.617,1.617,0,0,1,.225,2.1q-1.447,2.1-2.913,4.188a2.84,2.84,0,0,1-.348.36c-.912.538-1.8.1-1.757-.863M53.524,73.584c1.07,3.873,2.089,7.76,3.216,11.616.91,3.116,1.946,6.2,2.921,9.294a2.411,2.411,0,0,1,.143.781A2.97,2.97,0,0,1,57.536,97.8a2.46,2.46,0,0,1-2.924-.949,5.432,5.432,0,0,1-.691-1.436q-2.89-9.357-5.745-18.724c-.2-.663-.4-1.328-.632-2.087l5.671-1.974c.117.356.227.651.309.953M58.14,49.408c.282,1.2.536,2.412.833,3.611.432,1.749.81,3.519,1.356,5.233a6.87,6.87,0,0,1-1.612,7.232c-.908.976-1.909,1.864-2.876,2.786a5.772,5.772,0,0,1-.565.417,3.313,3.313,0,0,1-2.431.329.958.958,0,0,1-.824-.894,3.214,3.214,0,0,1,.319-2.24,17.477,17.477,0,0,1,1.494-2.128,7.742,7.742,0,0,0,1.843-5.96,35.391,35.391,0,0,0-1.013-4.8,7.172,7.172,0,0,1-.256-2.774,3.062,3.062,0,0,1,1.2-2.124A1.063,1.063,0,0,1,56.922,48a2.488,2.488,0,0,1,1.219,1.4m-2.6-3.288c-1.164.6-2.408.479-2.809-.282a2.017,2.017,0,0,1,.64-2.874,1.626,1.626,0,0,1,2.459.63c.52.98.426,2.156-.29,2.525M51.374,25.127a4.405,4.405,0,0,1-.825,4.241,3.776,3.776,0,0,1-1.358.8c-.708.3-1.461.475-2.173.761a3,3,0,0,0-2.075,3.292c.174,1.864.464,3.717.694,5.575a7.18,7.18,0,0,1,.068,1,2.646,2.646,0,0,1-2.034,2.653c-.225.065-.466.08-.687.155a2.334,2.334,0,0,0-1.453,1.352,5.891,5.891,0,0,0,.043,4.661q1.077,3.345,2.138,6.7a6.568,6.568,0,0,1,.354,2.967,2.019,2.019,0,0,1-1.761,1.8,1.607,1.607,0,0,1-1.841-.892,26.969,26.969,0,0,1-2.13-5.3c-.207-.773-.511-1.52-.763-2.283-.219-.665-.4-1.35-.649-2a7.26,7.26,0,0,0-.863-1.782,12.509,12.509,0,0,1-1.7-3.73q-1.57-4.6-2.946-9.276a1.886,1.886,0,0,0-2.557-1.5,7.928,7.928,0,0,1-3.777-.141A2.175,2.175,0,0,1,23.4,32.6a.621.621,0,0,1,.123-.54.532.532,0,0,1,.524,0c1.3,1.44,2.942.964,4.5.808a5.522,5.522,0,0,1,2.083.09,2.88,2.88,0,0,1,1.772,1.3c.475,1.532.976,3.054,1.416,4.595.5,1.77.863,3.588,1.457,5.323a21.228,21.228,0,0,0,1.755,3.6,13,13,0,0,1,1.332,2.9c.616,2.154,1.291,4.292,2.046,6.4a10.973,10.973,0,0,0,1.313,2.244.519.519,0,0,0,.929-.217,3.258,3.258,0,0,0,.027-1.381c-.248-1.144-.561-2.275-.884-3.4-.473-1.641-.99-3.269-1.463-4.908-.149-.513-.205-1.05-.333-1.571-.37-1.51.274-2.836.814-4.155.307-.745,1.107-1.031,1.811-1.346a3.083,3.083,0,0,1,.391-.092c1.158-.346,1.5-.777,1.393-1.97s-.291-2.392-.43-3.59c-.094-.8-.223-1.594-.241-2.394a4.361,4.361,0,0,1,2.531-4.413,19.414,19.414,0,0,1,2.433-.927,2.328,2.328,0,0,0,1.575-2.173c-.025-.468-.094-.933-.16-1.4-.059-.415.035-.759.477-.861.464-.108.685.215.775.6m-1.86-6.191a5.559,5.559,0,0,1-.233,4.022,1.416,1.416,0,0,1-1.344.878,1.265,1.265,0,0,1-1.434-.673,22.318,22.318,0,0,1-1.338-3.014,6.717,6.717,0,0,0-1.471-2.469,1.508,1.508,0,0,0-1.316-.593,3.249,3.249,0,0,1-2.242-.694,3.382,3.382,0,0,0-1.493-.448c-.857-.113-1.727-.147-2.594-.2a5.152,5.152,0,0,0-1,.023c-.982.143-1.182.08-1.512-.548a1.608,1.608,0,0,1,.2-1.954c1.121-.992,2.341-1.706,3.922-1.08A4.966,4.966,0,0,0,41,11.913a7.305,7.305,0,0,1,3.861.018,3.9,3.9,0,0,1,1.962,1.645c.254.307.454.661.679.994l.067-.031c.655,1.463,1.371,2.9,1.948,4.4" transform="translate(16.981 7.989)"/>
      <path id="Path_5170" data-name="Path 5170" d="M35.807,42.257c.19.546.348.953.475,1.367q2.5,8.163,4.984,16.33c.11.36.383.861-.164,1.037s-.614-.393-.728-.749q-2.67-8.371-5.321-16.75a7.524,7.524,0,0,1-.2-.777c-.065-.329,0-.659.368-.7.209-.023.442.178.583.241" transform="translate(33.307 40.171)"/>
    </g>
  </g>
</svg>
