<svg xmlns="http://www.w3.org/2000/svg" xmlns:xlink="http://www.w3.org/1999/xlink" width="123.252" height="123.252" viewBox="0 0 123.252 123.252">
  <defs>
    <clipPath id="clip-path">
      <rect id="Rectangle_200" data-name="Rectangle 200" width="123.252" height="123.252" fill="none"/>
    </clipPath>
  </defs>
  <g id="mv-09" transform="translate(0 0)">
    <g id="Group_2287" data-name="Group 2287" transform="translate(0 0)" clip-path="url(#clip-path)">
      <path id="Path_5180" data-name="Path 5180" d="M39.44,123.252a11.934,11.934,0,0,1-11.146-7.659L.787,43.686A11.949,11.949,0,0,1,7.663,28.294L79.568.789A11.947,11.947,0,0,1,94.96,7.661l27.505,71.907a11.952,11.952,0,0,1-6.874,15.391L43.686,122.466a11.871,11.871,0,0,1-4.245.785M83.808,3.882a7.98,7.98,0,0,0-2.853.53L9.047,31.919A8.07,8.07,0,0,0,4.41,42.3l27.507,71.9A8.045,8.045,0,0,0,42.3,118.841L114.2,91.334a8.065,8.065,0,0,0,4.637-10.38L91.336,9.049a8.1,8.1,0,0,0-7.529-5.167" transform="translate(0 0.001)"/>
      <path id="Path_5181" data-name="Path 5181" d="M81.946,2.022a7.988,7.988,0,0,0-2.853.53L7.187,30.059A8.065,8.065,0,0,0,2.55,40.439l27.505,71.905a8.049,8.049,0,0,0,10.382,4.637l71.907-27.505a8.052,8.052,0,0,0,4.637-10.382L89.474,7.189a7.967,7.967,0,0,0-4.236-4.457,8.057,8.057,0,0,0-3.293-.71" transform="translate(1.86 1.861)" fill="#fff"/>
      <path id="Path_5182" data-name="Path 5182" d="M51.8,88.146a8.584,8.584,0,0,1-11.463-2.6c-.4.084-.829.2-1.267.265A6.289,6.289,0,0,1,32.8,83.683c-.348-.417-.655-.866-.993-1.317-4.209,1.409-7.836-.682-9.476-4.681a2.2,2.2,0,0,0-.434.006A6.1,6.1,0,0,1,15.217,73.6a7.388,7.388,0,0,1,1.44-7.425,1.712,1.712,0,0,0,.405-1.544,8.9,8.9,0,0,1,3.086-8.224c.232-.219.5-.4.764-.618-1.256-3.79-.217-6.826,3-9.138a7.363,7.363,0,0,1,3.074-9.138,7.3,7.3,0,0,1-.015-5.417,7.864,7.864,0,0,1,3.485-4.224,7.229,7.229,0,0,1,3.936-9.136c-.019-.144-.027-.3-.058-.451A5.267,5.267,0,0,1,36.6,12.623a6.643,6.643,0,0,1,7.383-.584,7.18,7.18,0,0,1,1.563,1.271c.73.712.7.724,1.646.351a7.05,7.05,0,0,1,6.24.445,4.3,4.3,0,0,1,2.118,2.6c.267-.071.5-.132.739-.2a8.157,8.157,0,0,1,5.58.315,4.541,4.541,0,0,1,2.786,3.018,1.094,1.094,0,0,0,.14.236,7.251,7.251,0,0,1,9.239,3.744,6.554,6.554,0,0,1,4.111,1.023,7.649,7.649,0,0,1,3.758,6.97,4.743,4.743,0,0,1-1.039,2.861,2.6,2.6,0,0,0-.492,2.387,7.338,7.338,0,0,1-2.506,7.392c-.192.171-.4.324-.622.507.029.159.048.315.086.467a9.032,9.032,0,0,1-1.615,7.684,5.528,5.528,0,0,1-1.4,1.317,1.5,1.5,0,0,0-.73,1.636,8.412,8.412,0,0,1-.741,4.894,6.809,6.809,0,0,1-1.972,2.463,3.8,3.8,0,0,0-.676.8,1.073,1.073,0,0,0-.073,1.177,4.4,4.4,0,0,1,.288,2.838,8.6,8.6,0,0,1-1.811,4.111,16.738,16.738,0,0,1-1.44,1.333c.413,3.627-.641,6.613-4.1,8.456a6.007,6.007,0,0,1-.175,4.084A6.822,6.822,0,0,1,56.1,90.39a4.993,4.993,0,0,1-2.982-1.238c-.407-.357-.864-.661-1.323-1.006M42.075,12.852A5.393,5.393,0,0,0,37.083,14.3a3.549,3.549,0,0,0-1.021,4.048c.338.9.108,1.436-.814,1.705-2.584.758-4.067,4.22-3.16,6.736a1.66,1.66,0,0,1-.789,2.367,6.117,6.117,0,0,0-2.563,7.256,6.385,6.385,0,0,1,.2,1.229.945.945,0,0,1-.586,1.008,5.561,5.561,0,0,0-2.677,3.176,4.532,4.532,0,0,0,.211,4.092c.48.818.211,1.446-.637,1.92a5.528,5.528,0,0,0-2.627,3.216,5.444,5.444,0,0,0,.023,3.516,1.955,1.955,0,0,1-.136,1.674,3.6,3.6,0,0,1-.637.712c-2.258,2.214-3.512,4.752-2.623,8a1.468,1.468,0,0,1-.349,1.438,13.1,13.1,0,0,0-.864,1.039,6.055,6.055,0,0,0-1.189,4.28,4.372,4.372,0,0,0,3.694,4.03,6.224,6.224,0,0,0,1.728.1,1.4,1.4,0,0,1,1.607.931,7.393,7.393,0,0,0,.445.856,8.267,8.267,0,0,0,2.934,3.018,4.317,4.317,0,0,0,4.334.24c.787-.388,1.169-.238,1.511.588a4.5,4.5,0,0,0,1.92,2.231,5.584,5.584,0,0,0,4.635.718,2.059,2.059,0,0,1,2.264.611,12.755,12.755,0,0,0,2.473,1.985,6.521,6.521,0,0,0,6.394.18c.43-.211.91-.637,1.285-.559.415.086.755.616,1.093.985a4.213,4.213,0,0,0,5.351.975,5.516,5.516,0,0,0,3.038-5.491,2.466,2.466,0,0,1,1.071-2.323,6.259,6.259,0,0,1,.578-.351,5.191,5.191,0,0,0,2.665-4.243,9.75,9.75,0,0,0-.323-2.369c-.152-.783-.115-.966.6-1.286a3.829,3.829,0,0,0,1.816-1.8,8.5,8.5,0,0,0,.6-5.657,1.988,1.988,0,0,1,1.052-2.511A5.771,5.771,0,0,0,72.334,56.6c-.038-.255-.05-.513-.092-.768a3.127,3.127,0,0,1,1.373-3.185,5.8,5.8,0,0,0,2.3-5.708,11.086,11.086,0,0,0-.323-1.511c-.309-1.154-.257-1.367.793-1.951a4.952,4.952,0,0,0,2-2.162,5.422,5.422,0,0,0,.294-4.232,3.2,3.2,0,0,1,.561-3.16,4.489,4.489,0,0,0,.831-2.727c.052-2.73-2.6-5.806-5.559-5.756a2.1,2.1,0,0,1-2.191-1.517,5.1,5.1,0,0,0-5.113-3.091,11.112,11.112,0,0,0-2.419.607,1.369,1.369,0,0,1-1.989-1,2.708,2.708,0,0,0-1.179-1.707,5.309,5.309,0,0,0-6-.307.97.97,0,0,1-1.553-.518,1.8,1.8,0,0,1-.148-.459A2.663,2.663,0,0,0,52.319,15.4c-1.839-.92-3.713-1.279-5.607-.079a1.041,1.041,0,0,1-1.4-.192,7.44,7.44,0,0,1-.557-.668,4.454,4.454,0,0,0-2.682-1.609" transform="translate(13.596 10.292)"/>
      <path id="Path_5183" data-name="Path 5183" d="M76.5,30.713c-.125.2-.344.588-.6.943a2.626,2.626,0,0,1-.559.532c-1.373,1.012-1.438,2.344-.92,3.8a3.958,3.958,0,0,1-.931,4.2,3.066,3.066,0,0,1-.278.269,5.123,5.123,0,0,0-1.814,4.737A5.812,5.812,0,0,1,69.8,50.35a3.072,3.072,0,0,0-.95,2.235,5.786,5.786,0,0,0,.042,1.25,4.838,4.838,0,0,1-1.605,4.612,11.8,11.8,0,0,0-2.417,3.118,3.872,3.872,0,0,0-.472,1.845,11.15,11.15,0,0,1-.5,4.193,4.075,4.075,0,0,1-1.021,1.605A3.38,3.38,0,0,0,61.7,72.932a4.415,4.415,0,0,1-2.014,4.737,2.828,2.828,0,0,0-1.338,1.469,1.908,1.908,0,0,0-.14,1.208,4.528,4.528,0,0,1-2.11,4.243,3.8,3.8,0,0,1-4.261-.267c-.488-.369-.981-.732-1.455-1.117a1.16,1.16,0,0,0-1.574-.125,3.111,3.111,0,0,1-.518.259,4.48,4.48,0,0,1-5.749-1.192c-.323-.359-.614-.747-.9-1.137a2.6,2.6,0,0,0-2.552-1.031c-.609.063-1.213.188-1.822.225a3.732,3.732,0,0,1-3.36-1.325c-.526-.649-1.083-1.277-1.64-1.9A2.209,2.209,0,0,0,29.6,76.2a4.869,4.869,0,0,1-2.665.169,3.617,3.617,0,0,1-2.83-2.239,4.942,4.942,0,0,0-1.893-2.137,1.856,1.856,0,0,0-1.277-.3c-.572.046-1.15,0-1.724,0-1.757,0-2.782-2.27-2.108-3.571.547-1.056,1.056-2.137,1.676-3.149a2.529,2.529,0,0,0,.313-2.279A4.947,4.947,0,0,1,20.145,58c.444-.591.906-1.171,1.386-1.734a3.923,3.923,0,0,0,.908-3.5,5.213,5.213,0,0,1,1.2-4.6,10.371,10.371,0,0,1,1.1-1.215,3.024,3.024,0,0,0,1.114-3.109,5.629,5.629,0,0,1,1.636-5.117,20.049,20.049,0,0,0,1.281-1.692,1.544,1.544,0,0,0,.152-1.446,5.587,5.587,0,0,1,1.148-5.593c.766-.866,1.521-1.742,2.277-2.615a1.529,1.529,0,0,0,.25-1.628,5.555,5.555,0,0,1-.376-1.294,4.4,4.4,0,0,1,1.924-4.167c.492-.363,1.031-.661,1.515-1.035a2.281,2.281,0,0,0,1.041-2.5,3.571,3.571,0,0,1,.14-1.709,2.223,2.223,0,0,1,3.032-1.4,9.832,9.832,0,0,1,1.434.952c.5.338.991.71,1.525,1a1.919,1.919,0,0,0,1.588.132c.453-.157.954-.175,1.413-.317a4.583,4.583,0,0,1,4.314,1.046,4.552,4.552,0,0,1,.751.751,5.219,5.219,0,0,0,1.964,1.367,2.01,2.01,0,0,0,1.584.081,4.867,4.867,0,0,1,1.413-.275,3.074,3.074,0,0,1,2.323.764c.47.44.985.839,1.415,1.313a5.715,5.715,0,0,0,2,1.319,2,2,0,0,0,1.6.061,7.329,7.329,0,0,1,3.153-.236,1.528,1.528,0,0,1,.812.261,10.856,10.856,0,0,1,2.2,1.851,5.6,5.6,0,0,0,4.021,2.331c2.721.353,3.437,2.316,3.116,4.658M18.176,68.306A1.8,1.8,0,0,0,19.271,70.4a5.642,5.642,0,0,0,1.847.444,3.315,3.315,0,0,1,2.51,1.041,26.823,26.823,0,0,1,1.613,2.15,3.35,3.35,0,0,0,3.969,1.361,3.709,3.709,0,0,1,3.986.985c.607.578,1.162,1.208,1.722,1.83a2.774,2.774,0,0,0,2.412.968c.513-.044,1.021-.144,1.534-.179a4.025,4.025,0,0,1,3.592,1.254c.271.319.528.651.812.956,1.394,1.5,2.78,2.183,4.9,1.146a3.006,3.006,0,0,1,3.134.19c.507.344,1.02.676,1.519,1.029a2.407,2.407,0,0,0,1.54.457A3.131,3.131,0,0,0,57.2,80.161a2.358,2.358,0,0,1,.563-2.5c.449-.457.935-.879,1.429-1.292a2.907,2.907,0,0,0,1.162-1.726,9.192,9.192,0,0,0,.1-2.014,4.875,4.875,0,0,1,1.452-4.038,4.113,4.113,0,0,0,1.233-3.134c0-.515-.035-1.029-.071-1.544a5.769,5.769,0,0,1,1.669-4.389,17.05,17.05,0,0,1,1.715-1.7,4.006,4.006,0,0,0,1.513-3.928,5.034,5.034,0,0,1,1.048-4.176,5.92,5.92,0,0,0,1.405-4.48,7.394,7.394,0,0,1,1.674-5.3,10.574,10.574,0,0,0,.795-1.093,3.024,3.024,0,0,0,.359-2.5,4.668,4.668,0,0,1,1.363-4.923c.117-.111.228-.227.338-.346a2.339,2.339,0,0,0-.434-3.456,3.629,3.629,0,0,0-1.92-.566,5.038,5.038,0,0,1-4.051-2.1c-.317-.405-.7-.762-.981-1.19-.808-1.246-1.974-1.286-3.241-1.021-.348.071-.685.186-1.031.253a3.942,3.942,0,0,1-2.354-.263,5.82,5.82,0,0,1-2.258-1.745c-1.215-1.448-2.36-2.258-4.462-1.315a1.325,1.325,0,0,1-.653.127,4.684,4.684,0,0,1-3.214-1.576c-.225-.275-.445-.551-.674-.822a3.417,3.417,0,0,0-3.391-1.164c-.634.108-1.248.332-1.882.434a4.2,4.2,0,0,1-1.315.012,3.03,3.03,0,0,1-1.937-1.169,3.241,3.241,0,0,0-2.124-1.231,1.12,1.12,0,0,0-1.459,1.114,3.885,3.885,0,0,0,.131,1.327,2.9,2.9,0,0,1-.311,2.225,5.456,5.456,0,0,1-2.369,2.064A3.644,3.644,0,0,0,33.589,22.4a3.257,3.257,0,0,0-.186,2.529,5.019,5.019,0,0,1-1.6,4.892c-.34.342-.714.651-1.058.991a3.77,3.77,0,0,0-.9,4.349,2.941,2.941,0,0,1-.213,2.682A6.6,6.6,0,0,1,28.4,39.313a4.074,4.074,0,0,0-1.421,4.566,3.542,3.542,0,0,1-1.2,3.834c-.215.194-.461.353-.68.543a4.153,4.153,0,0,0-1.6,4.2,5.6,5.6,0,0,1-2.035,5.695,3.706,3.706,0,0,0-1.208,4.418,3.055,3.055,0,0,1-.436,2.932c-.236.346-.526.659-.733,1.02-.33.582-.613,1.192-.914,1.79" transform="translate(15.546 12.39)"/>
      <path id="Path_5184" data-name="Path 5184" d="M32.472,26.1a1.978,1.978,0,0,1,1.551,2.3,2.052,2.052,0,0,1-2.475,1.705,1.966,1.966,0,0,1-1.6-2.348A2.114,2.114,0,0,1,32.472,26.1m-.716,3.126a1.176,1.176,0,0,0,1.4-.86,1.282,1.282,0,0,0-.933-1.473,1.139,1.139,0,0,0-1.384.864,1.258,1.258,0,0,0,.92,1.469" transform="translate(27.515 23.973)"/>
      <path id="Path_5185" data-name="Path 5185" d="M26.779,24.566c-.2.492-.357.8-.453,1.125a1.424,1.424,0,0,0,.9,1.861,1.357,1.357,0,0,0,1.417-.371,1.248,1.248,0,0,0,.253-1.427c-.1-.232-.3-.42-.4-.651a1.743,1.743,0,0,1-.065-.526,2.3,2.3,0,0,1,.613.036c.134.044.24.205.338.33a2.261,2.261,0,0,1-.165,2.84,2.2,2.2,0,0,1-2.8.472,2.151,2.151,0,0,1-1.033-2.631,1.379,1.379,0,0,1,1.39-1.06" transform="translate(23.238 22.603)"/>
      <path id="Path_5186" data-name="Path 5186" d="M35.153,39.221c.175-.2.349-.4.522-.6a1.242,1.242,0,0,0,.257-1.5,1.476,1.476,0,0,0-1.661-.678,1.4,1.4,0,0,0-1.144,1.154,1.245,1.245,0,0,0,.68,1.277,1.673,1.673,0,0,0,.361.125c.271.071.668.065.576.472-.1.438-.482.319-.795.234a1.967,1.967,0,0,1-1.488-2.583,2.368,2.368,0,0,1,3.12-1.275,1.941,1.941,0,0,1,1.277,1.774,1.816,1.816,0,0,1-1.018,1.732,1.644,1.644,0,0,1-.528.092c-.054-.073-.106-.148-.159-.221" transform="translate(29.761 32.806)"/>
      <path id="Path_5187" data-name="Path 5187" d="M24.865,32.66a2,2,0,1,1-.687,3.946,2.111,2.111,0,0,1-1.644-2.283,2,2,0,0,1,2.331-1.663m-.645,3.214A1.193,1.193,0,0,0,25.706,35a1.222,1.222,0,0,0-.847-1.43,1.235,1.235,0,0,0-1.511.854,1.093,1.093,0,0,0,.872,1.45" transform="translate(20.713 30.02)"/>
      <path id="Path_5188" data-name="Path 5188" d="M41.7,29.829a1.841,1.841,0,0,1-.71,3.612,2.054,2.054,0,0,1-1.507-2.133A1.83,1.83,0,0,1,41.7,29.829m-.084.778a.971.971,0,0,0-1.154.745.914.914,0,0,0,.618,1.135,1.016,1.016,0,0,0,1.261-.722.937.937,0,0,0-.726-1.158" transform="translate(36.3 27.405)"/>
      <path id="Path_5189" data-name="Path 5189" d="M31.885,43.44a1.991,1.991,0,0,1,1.559,2.383A2.024,2.024,0,0,1,31.05,47.38a2.014,2.014,0,0,1,.835-3.94m.895,2.312a1.323,1.323,0,0,0-.9-1.588A1.36,1.36,0,0,0,30.335,45a1.32,1.32,0,0,0,.854,1.607,1.248,1.248,0,0,0,1.59-.854" transform="translate(27.089 39.924)"/>
      <path id="Path_5190" data-name="Path 5190" d="M30.6,20.385c.2-.209.39-.405.574-.607a1.4,1.4,0,0,0,.348-1.34.951.951,0,0,0-.776-.77.989.989,0,0,0-1,.438,1.384,1.384,0,0,0-.013,1.621c.075.1.234.157.275.263a2.162,2.162,0,0,1,.06.517c-.179.01-.407.1-.526.017a1.885,1.885,0,0,1-.877-1.626,2.106,2.106,0,0,1,1.665-1.989,1.765,1.765,0,0,1,2.014,1.112A1.987,1.987,0,0,1,31.6,20.4c-.286.184-.6.405-1-.019" transform="translate(26.374 15.522)"/>
      <path id="Path_5191" data-name="Path 5191" d="M26.8,41.54a1.871,1.871,0,0,1,1.459,2.254,1.821,1.821,0,0,1-2.175,1.43A1.941,1.941,0,0,1,24.573,42.9,1.857,1.857,0,0,1,26.8,41.54M25.32,43.174a1.056,1.056,0,0,0,.78,1.4,1.2,1.2,0,0,0,1.427-.822,1.141,1.141,0,1,0-2.206-.578" transform="translate(22.563 38.18)"/>
      <path id="Path_5192" data-name="Path 5192" d="M27.851,36.914a1.024,1.024,0,0,1-.655-1.19A1.99,1.99,0,0,1,29.212,33.9a2.08,2.08,0,0,1,2.1,1.868A2.019,2.019,0,0,1,30.1,37.876a.757.757,0,0,1-.666-.1c-.211-.23-.025-.468.225-.616a2.463,2.463,0,0,0,.328-.2,1.262,1.262,0,1,0-2.016-1.227,11.685,11.685,0,0,0-.119,1.185" transform="translate(25.014 31.192)"/>
      <path id="Path_5193" data-name="Path 5193" d="M22.37,43.814a2.021,2.021,0,0,1-1.74-2.337,1.914,1.914,0,0,1,2.174-1.6,2.018,2.018,0,0,1,.774.351c.092.061.113.292.084.43-.013.079-.194.173-.3.173-.225,0-.445-.069-.668-.081a1.139,1.139,0,0,0-1.119.616,1.036,1.036,0,0,0,.075,1.183,1.135,1.135,0,0,0,1.273.463c.033-.008.061-.019.094-.029.259-.084.593-.336.751.048.167.415-.238.549-.534.636a5.728,5.728,0,0,1-.864.146" transform="translate(18.952 36.668)"/>
      <path id="Path_5194" data-name="Path 5194" d="M37.726,47.175a1.593,1.593,0,0,1-2,1.3,1.64,1.64,0,0,1-1.275-1.947,1.661,1.661,0,0,1,2.018-1.306,1.608,1.608,0,0,1,1.256,1.953m-.58-.125a.972.972,0,1,0-1.154.785,1.009,1.009,0,0,0,1.154-.785" transform="translate(31.668 41.57)"/>
      <path id="Path_5195" data-name="Path 5195" d="M44.507,22.394A1.449,1.449,0,0,1,45.7,24.1a1.705,1.705,0,0,1-1.957,1.319A1.475,1.475,0,0,1,42.558,23.7a1.652,1.652,0,0,1,1.949-1.3m-.636,2.271a.921.921,0,0,0,1.058-.628.723.723,0,0,0-.517-.9.868.868,0,0,0-1.045.628.708.708,0,0,0,.5.9" transform="translate(39.134 20.576)"/>
      <path id="Path_5196" data-name="Path 5196" d="M37.476,37.962c0,.236-.017.413-.01.589a4.286,4.286,0,0,0,.09.949,1.44,1.44,0,0,0,1.283,1.008,1.358,1.358,0,0,0,1.3-.973,3.574,3.574,0,0,0,.1-.945c.012-.275-.019-.549-.035-.858.728.276.949.72.862,1.605A2.081,2.081,0,0,1,39.4,41.326a2.015,2.015,0,0,1-2.091-1.069,1.86,1.86,0,0,1,.163-2.295" transform="translate(34.045 34.717)"/>
      <path id="Path_5197" data-name="Path 5197" d="M36.134,31.443a8.982,8.982,0,0,0,1.116-.173,1.226,1.226,0,0,0,.808-1.611,1.161,1.161,0,0,0-1.557-.714,1.118,1.118,0,0,0-.722.945c-.019.157.052.338,0,.476a1.756,1.756,0,0,1-.324.413c-.152-.132-.4-.24-.438-.4A1.9,1.9,0,0,1,38.626,29.3a1.792,1.792,0,0,1-.816,2.31,1.338,1.338,0,0,1-1.676-.169" transform="translate(32.177 25.917)"/>
      <path id="Path_5198" data-name="Path 5198" d="M36.391,21.7c.052-.361.1-.6.121-.847a.952.952,0,0,0-.647-1.052c-.467-.154-.78.015-1.068.53a1,1,0,0,0,.127,1.388c.109.1.058.376.081.57-.205-.008-.457.056-.607-.038a1.6,1.6,0,0,1-.57-.616,2.2,2.2,0,0,1,.985-2.392,1.824,1.824,0,0,1,2.316.808,1.218,1.218,0,0,1-.154,1.43c-.094.113-.311.123-.584.219" transform="translate(31.036 17.563)"/>
      <path id="Path_5199" data-name="Path 5199" d="M39.607,20.83c-.215.2-.444.4-.657.616-.259.261-.517.6-.28.927a1.389,1.389,0,0,0,.858.493,1.255,1.255,0,0,0,1.267-.524,1.933,1.933,0,0,1,.3-.371.281.281,0,0,1,.263-.025.484.484,0,0,1,.186.3.665.665,0,0,1-.119.353,2.314,2.314,0,0,1-2.982.732,1.443,1.443,0,0,1-.643-1.663,1.532,1.532,0,0,1,1.624-1.05c.044.006.079.088.182.215" transform="translate(34.719 18.957)"/>
    </g>
  </g>
</svg>
