<svg xmlns="http://www.w3.org/2000/svg" xmlns:xlink="http://www.w3.org/1999/xlink" width="116.073" height="116.073" viewBox="0 0 116.073 116.073">
  <defs>
    <clipPath id="clip-path">
      <rect id="Rectangle_192" data-name="Rectangle 192" width="116.073" height="116.073" fill="none"/>
    </clipPath>
  </defs>
  <g id="mv-01" transform="translate(0 0)">
    <g id="Group_2274" data-name="Group 2274" transform="translate(0 0)" clip-path="url(#clip-path)">
      <path id="Path_5116" data-name="Path 5116" d="M25.152,116.071a12.353,12.353,0,0,1-12.14-10.328L.163,27.148A12.343,12.343,0,0,1,10.328,13.011L88.923.161a12.331,12.331,0,0,1,14.139,10.165l12.849,78.6a12.329,12.329,0,0,1-10.165,14.139h0l-78.6,12.849a12.432,12.432,0,0,1-2,.161M90.914,3.978a8.272,8.272,0,0,0-1.349.11L10.97,16.938a8.343,8.343,0,0,0-6.879,9.57L16.94,105.1a8.36,8.36,0,0,0,9.568,6.881l78.6-12.849a8.345,8.345,0,0,0,6.881-9.57l-12.849-78.6a8.349,8.349,0,0,0-8.221-6.99" transform="translate(0 0.001)"/>
      <path id="Path_5117" data-name="Path 5117" d="M88.953,2.02a8.4,8.4,0,0,0-1.347.11L9.009,14.979a8.364,8.364,0,0,0-6.879,9.57l12.851,78.6a8.337,8.337,0,0,0,9.566,6.879l78.6-12.849a8.346,8.346,0,0,0,6.879-9.57L97.174,9.01a8.378,8.378,0,0,0-8.221-6.99" transform="translate(1.959 1.959)" fill="#fff"/>
      <path id="Path_5118" data-name="Path 5118" d="M15.889,36.326c-.12-.341-.2-.607-.307-.867a8.85,8.85,0,0,1,1.028-8.7,12.988,12.988,0,0,1,7.87-5.2c.27-.069.54-.132.88-.215a10.7,10.7,0,0,1,5.617-9.911c3.833-2.186,7.659-1.743,11.161.934,5.859-5.42,15.537-3.8,18.4,2.692a11.728,11.728,0,0,1,10.208,1.526c3.179,2,5.156,4.8,5.178,8.682,8.106.321,13.111,10.019,8.323,16.424,3,2.684,4.717,5.993,4.319,10.109-.4,4.132-2.751,6.933-6.413,8.687,2.728,6.889-2.665,14.8-9.915,15.151a2.412,2.412,0,0,0-.047.449,8.168,8.168,0,0,1-3.37,7.34,11.8,11.8,0,0,1-12.1,1.7c-.376-.142-.741-.315-1.1-.467C49.9,91.243,40,90.3,35.735,81.291c-.4.148-.808.305-1.219.449a12.289,12.289,0,0,1-7.561.37A9.242,9.242,0,0,1,20.009,72.2c.03-.4.067-.792.106-1.253-.25-.045-.439-.1-.632-.114A9.009,9.009,0,0,1,11.445,63.3a11.707,11.707,0,0,1,1.337-8.25c.177-.319.37-.626.614-1.034a9.115,9.115,0,0,1-3.921-9.556,9.843,9.843,0,0,1,6.413-8.136m4.524,31.9c.325-.022.65-.065.975-.059a1.567,1.567,0,0,1,1.648,2.1c-.073.317-.189.624-.268.939A6.732,6.732,0,0,0,27.879,79.7a10.382,10.382,0,0,0,7.547-1.16c1.373-.725,1.847-.506,2.513.922a19.608,19.608,0,0,0,1.944,3.5,8.184,8.184,0,0,0,5.635,3.327,8.477,8.477,0,0,0,7.9-3.21,2.767,2.767,0,0,1,2.828-.939,5.13,5.13,0,0,1,1.123.461,9.355,9.355,0,0,0,9.109-.626c2.842-1.755,3.693-4.26,2.641-7.431a1.5,1.5,0,0,1,.132-1.609,1.339,1.339,0,0,1,1.578-.238,5.619,5.619,0,0,0,3.831-.179c4.737-1.81,7.1-7.9,4.725-11.531-.666-1.014-.262-1.95.839-2.521.36-.187.752-.309,1.123-.477A7.84,7.84,0,0,0,85.96,49.4a8.933,8.933,0,0,0-2.031-4.378c-.524-.62-1.107-1.192-1.674-1.776-1.144-1.184-1.2-1.934-.15-3.163a6.187,6.187,0,0,0,1.469-4.039A8.206,8.206,0,0,0,75.3,27.866c-1.806.041-2.285-.522-2.054-2.279a5.958,5.958,0,0,0-1.325-4.561,10.129,10.129,0,0,0-5.647-3.632A12.519,12.519,0,0,0,60.7,17.3c-1.619.305-2.042.093-2.661-1.375a6.142,6.142,0,0,0-3.478-3.421c-3.748-1.489-7.258-1.13-10.369,1.6a2.85,2.85,0,0,1-3.86.181,10.026,10.026,0,0,0-2.458-1.3,7.828,7.828,0,0,0-9.822,6.73,11.443,11.443,0,0,0,.01,1.7,1.79,1.79,0,0,1-1.479,2.172c-.7.226-1.408.406-2.109.616a11.505,11.505,0,0,0-3.986,2.07c-3.13,2.535-3.805,5.763-1.96,9.33.786,1.52.353,2.619-1.3,3.061a6.754,6.754,0,0,0-4.855,4.717,8.658,8.658,0,0,0-.461,2.625c-.026,2.726.878,4.934,3.618,6.058a1.476,1.476,0,0,1,.782,2.3,13.919,13.919,0,0,1-.825,1.207,8.819,8.819,0,0,0-.845,9.148,5.693,5.693,0,0,0,5.771,3.51" transform="translate(9.034 8.822)"/>
      <path id="Path_5119" data-name="Path 5119" d="M39.954,18.008c6.076-2.5,13.3,2.281,13.6,8.366.4.122.823.246,1.243.378A10.261,10.261,0,0,1,58.971,29.2c2.834,2.753,3.267,5.873,1.16,9.656a4.9,4.9,0,0,1,.926.652c4.4,4.813,2.866,10.58-1.26,13.5a5.911,5.911,0,0,1-1.058.6c-.786.339-1.418.207-1.751-.313-.345-.536-.185-1.117.494-1.692.372-.313.79-.575,1.156-.9a7.413,7.413,0,0,0,2.633-6.982,6.5,6.5,0,0,0-2.06-3.655c-1.205-1.221-1.292-1.631-.49-3.078a4.669,4.669,0,0,0-.266-5.18,8.931,8.931,0,0,0-3.85-3.1c-.626-.291-1.284-.512-1.92-.782a1.752,1.752,0,0,1-1.18-1.558c-.325-3.805-2.623-6-6.04-7.173a10.094,10.094,0,0,0-3.116-.437,5.362,5.362,0,0,0-1.966.542c-.906.37-1.511.28-1.946-.587-1.568-3.122-4.4-4.026-7.551-4.337a3.7,3.7,0,0,0-3.23,1.129c-.083.089-.175.213-.278.226-.221.033-.526.091-.654-.022a.7.7,0,0,1-.106-.64,2.868,2.868,0,0,1,1.611-1.42,7.915,7.915,0,0,1,4.906-.441,9.684,9.684,0,0,1,6.818,4.8" transform="translate(25.773 12.617)"/>
      <path id="Path_5120" data-name="Path 5120" d="M30.382,46.188c-.232.106-.522.238-.809.372a8.762,8.762,0,0,1-9.814-1.8,6.2,6.2,0,0,1-1.95-4.591,3.305,3.305,0,0,1,.473-1.463c.225-.38.666-.284.845.14a2.281,2.281,0,0,1,.189.827c.051,3.449,3.52,5.692,6.149,5.909a6.539,6.539,0,0,0,3.99-.837c1.485-.876,1.676-.831,2.665.581a10.036,10.036,0,0,0,6.97,4.294,5.7,5.7,0,0,0,5.1-1.41,2.921,2.921,0,0,1,2.554-.831,13.165,13.165,0,0,0,5.331-.37,10.468,10.468,0,0,0,2.753-1.249A4.223,4.223,0,0,0,56.8,42.035a3.464,3.464,0,0,1,0-.729c.045-.213.2-.571.3-.569a.924.924,0,0,1,.7.307,3.12,3.12,0,0,1,.372,1.264,5.272,5.272,0,0,1-1.962,4.412,9.644,9.644,0,0,1-5.07,2.249,45.652,45.652,0,0,1-4.62.248c-.445.016-.855-.063-1.243.3a7.354,7.354,0,0,1-5.521,1.863,11.039,11.039,0,0,1-7.543-3,24.838,24.838,0,0,1-1.836-2.194" transform="translate(17.262 37.296)"/>
      <path id="Path_5121" data-name="Path 5121" d="M19.524,28.037a6.589,6.589,0,0,1,2.379-9.81,7.367,7.367,0,0,1,2.332-.559.873.873,0,0,1,.666.54c.039.191-.282.5-.5.689-.136.12-.38.116-.575.171a5.214,5.214,0,0,0-3.409,6.885,3.953,3.953,0,0,0,.571.926c.782,1,.731,1.418-.3,2.19-.583.441-1.186.859-1.743,1.331a9.842,9.842,0,0,0-2.793,3.644,5.009,5.009,0,0,0,1.4,6.255,1.853,1.853,0,0,1,.437.421.983.983,0,0,1,.02,1.245.952.952,0,0,1-1.209.278,3.15,3.15,0,0,1-.8-.54,6.372,6.372,0,0,1-1.745-7.331,13.066,13.066,0,0,1,4.246-5.548c.313-.254.638-.494,1.018-.788" transform="translate(13.357 17.128)"/>
      <path id="Path_5122" data-name="Path 5122" d="M32.025,35.873a2.358,2.358,0,0,1,2.5,2.3c-.077,1.908-.924,2.663-2.454,2.747a2.479,2.479,0,0,1-2.612-2.354,2.575,2.575,0,0,1,2.562-2.692m.1,3.441a.992.992,0,1,0,.018-1.981.9.9,0,0,0-.947.9,1.028,1.028,0,0,0,.93,1.085" transform="translate(28.563 34.78)"/>
      <path id="Path_5123" data-name="Path 5123" d="M16.517,33.511A2.576,2.576,0,0,1,19.3,36.093a2.7,2.7,0,0,1-2.6,2.692,2.531,2.531,0,0,1-2.572-2.533,2.778,2.778,0,0,1,2.387-2.742m.23,1.436c-.874.035-1.389.479-1.379,1.194A1.412,1.412,0,0,0,16.783,37.5a1.192,1.192,0,0,0,1.282-1.282,1.257,1.257,0,0,0-1.318-1.274" transform="translate(13.699 32.49)"/>
      <path id="Path_5124" data-name="Path 5124" d="M30.231,31.873a2.164,2.164,0,0,1-2.326-2.2,2.529,2.529,0,0,1,2.409-2.556,2.485,2.485,0,0,1,2.61,2.34,2.324,2.324,0,0,1-2.692,2.421m1.55-2.263a1.226,1.226,0,0,0-1.229-1.227,1.173,1.173,0,0,0-1.142,1.166,1.554,1.554,0,0,0,1.235,1.426,1.419,1.419,0,0,0,1.136-1.365" transform="translate(27.053 26.283)"/>
      <path id="Path_5125" data-name="Path 5125" d="M37.813,28.813a.7.7,0,0,1,.008.36c-.091.207-.236.5-.4.536a1.136,1.136,0,0,1-.746-.207.967.967,0,0,1-.276-.524,2.638,2.638,0,0,1,1.093-2.887,2.731,2.731,0,0,1,3.191.169,2.493,2.493,0,0,1,.754,2.97,3.178,3.178,0,0,1-.949,1.064c-.15.114-.555.026-.752-.106-.112-.075-.093-.443-.033-.65.075-.268.274-.5.374-.762a1.211,1.211,0,0,0-.36-1.436,1.089,1.089,0,0,0-1.253-.179,1.2,1.2,0,0,0-.709,1.292c.006.081.026.16.061.36" transform="translate(35.191 24.875)"/>
      <path id="Path_5126" data-name="Path 5126" d="M24,34.6a2.674,2.674,0,0,1,2.6,1.625,2.527,2.527,0,0,1-.433,2.844,2.459,2.459,0,0,1-2.659.762,1.3,1.3,0,0,1-.65-.305c-.183-.225-.392-.591-.321-.809.059-.187.492-.323.774-.349.264-.024.54.173.817.195a1.292,1.292,0,0,0,1.3-.737,1.116,1.116,0,0,0-.071-1.264,1.237,1.237,0,0,0-1.379-.544c-.2.047-.384.132-.579.187a.65.65,0,0,1-.9-.382.678.678,0,0,1,.435-.89A7.988,7.988,0,0,1,24,34.6" transform="translate(21.763 33.542)"/>
      <path id="Path_5127" data-name="Path 5127" d="M24.518,15.191a2.136,2.136,0,0,1,2.143,2.064,2.235,2.235,0,0,1-2.194,2.18,2.081,2.081,0,0,1-2.058-2.129,2.2,2.2,0,0,1,2.109-2.115m.936,2.182c-.455-.341-.709-.648-1.022-.737-.38-.108-.75.341-.7.756a.7.7,0,0,0,.813.679c.266-.045.486-.362.906-.7" transform="translate(21.726 14.729)"/>
      <path id="Path_5128" data-name="Path 5128" d="M23.82,26.163a2.256,2.256,0,0,1-1.828,2.1,2.156,2.156,0,0,1-2.176-2.009,2,2,0,0,1,4-.087m-1.883-1.012c-.307.526-.589.8-.589,1.083,0,.2.351.508.595.567a.478.478,0,0,0,.6-.557,4.494,4.494,0,0,0-.607-1.093" transform="translate(19.211 23.485)"/>
      <path id="Path_5129" data-name="Path 5129" d="M37.836,36.349A1.75,1.75,0,0,1,35.508,34.4a2.359,2.359,0,0,1,2.529-2.131,2.41,2.41,0,0,1,2.324,2.365c0,.386-.059.77-.534.819s-.62-.291-.664-.691c-.01-.081-.01-.163-.012-.244a1.2,1.2,0,0,0-1.038-1.188A1.188,1.188,0,0,0,36.79,34a1.308,1.308,0,0,0,.134,1.593,7.26,7.26,0,0,0,.912.76" transform="translate(34.416 31.285)"/>
      <path id="Path_5130" data-name="Path 5130" d="M34.633,24.277a1.783,1.783,0,0,1-1.9-1.885,2.017,2.017,0,0,1,2-2.019,1.954,1.954,0,1,1-.1,3.9M35.7,22.453a1.022,1.022,0,0,0-.975-1.034,1,1,0,0,0-.906.835,1.124,1.124,0,0,0,.934,1.1.919.919,0,0,0,.947-.9" transform="translate(31.732 19.753)"/>
      <path id="Path_5131" data-name="Path 5131" d="M21.255,33.654a10.6,10.6,0,0,0,.62-.914A1.034,1.034,0,0,0,21.7,31.4a1.273,1.273,0,0,0-.963-.252c-.492.11-.64.563-.6,1.058a.916.916,0,0,1-.018.477c-.106.193-.293.469-.455.475a1.268,1.268,0,0,1-.7-.319c-.106-.083-.136-.288-.171-.443a2.194,2.194,0,0,1,.983-2.2,2.169,2.169,0,0,1,2.511.03,1.967,1.967,0,0,1,.849,2.121c-.167.872-.715,1.286-1.873,1.3" transform="translate(18.175 28.908)"/>
      <path id="Path_5132" data-name="Path 5132" d="M40.364,37.275c.061.595.085.869.118,1.142a.931.931,0,0,0,.867.874,1.071,1.071,0,0,0,1.132-.546.87.87,0,0,0-.232-1.19l-.762-.719c.613-.768,1.186-.806,1.828-.2a2.2,2.2,0,0,1,.3,2.688,2.33,2.33,0,0,1-2.633,1.032,1.928,1.928,0,0,1-1.264-2.424c.059-.179.286-.3.644-.66" transform="translate(38.415 35.115)"/>
      <path id="Path_5133" data-name="Path 5133" d="M28.973,21.9a1.753,1.753,0,0,1-1.794,1.761c-1.375-.008-2.092-.644-2.054-1.826A1.935,1.935,0,0,1,27.157,20a1.85,1.85,0,0,1,1.816,1.9m-1.524.843a2.882,2.882,0,0,0,.455-.876.67.67,0,0,0-.782-.709.62.62,0,0,0-.583.764c.067.38.169.813.91.821" transform="translate(24.357 19.393)"/>
    </g>
  </g>
</svg>
