<svg id="mv-04" xmlns="http://www.w3.org/2000/svg" xmlns:xlink="http://www.w3.org/1999/xlink" width="102.556" height="102.556" viewBox="0 0 102.556 102.556">
  <defs>
    <clipPath id="clip-path">
      <rect id="Rectangle_195" data-name="Rectangle 195" width="102.556" height="102.556" fill="none"/>
    </clipPath>
  </defs>
  <g id="Group_2278" data-name="Group 2278" transform="translate(0 0)" clip-path="url(#clip-path)">
    <path id="Path_5147" data-name="Path 5147" d="M71.662,102.556a10.3,10.3,0,0,1-3.279-.538L7.065,81.488a10.366,10.366,0,0,1-6.529-13.1L21.068,7.065A10.363,10.363,0,0,1,34.17.536L95.489,21.07a10.371,10.371,0,0,1,6.529,13.1L81.486,95.489a10.37,10.37,0,0,1-9.823,7.067M30.889,3.94A6.423,6.423,0,0,0,24.8,8.317L4.271,69.635a6.421,6.421,0,0,0,4.045,8.118L69.635,98.285a6.44,6.44,0,0,0,8.118-4.045l20.53-61.321A6.436,6.436,0,0,0,94.239,24.8L32.919,4.272a6.356,6.356,0,0,0-2.029-.331" transform="translate(0 0)"/>
    <path id="Path_5148" data-name="Path 5148" d="M67.716,96.366a6.418,6.418,0,0,0,8.116-4.047L96.366,31a6.424,6.424,0,0,0-4.045-8.118L31,2.353A6.423,6.423,0,0,0,22.883,6.4L2.353,67.717A6.441,6.441,0,0,0,6.4,75.834Z" transform="translate(1.919 1.918)" fill="#fff"/>
    <path id="Path_5149" data-name="Path 5149" d="M12.053,33.512c-.363-.439-.7-.8-.984-1.2a7.157,7.157,0,0,1-1.031-6.244,9.544,9.544,0,0,1,8.332-7.034,1.638,1.638,0,0,0,1.374-.827,11.937,11.937,0,0,1,4.246-3.877,6.249,6.249,0,0,1,3.87-.791,4.129,4.129,0,0,0,2.425-.5,7.613,7.613,0,0,1,3.671-.821c.528,0,1.055.09,1.581.078,2.807-.066,5.267,1.08,7.714,2.228a6.513,6.513,0,0,1,1.632,1.31,12.048,12.048,0,0,0,1.983,1.53,5.76,5.76,0,0,0,2.215.739,3.462,3.462,0,0,1,1.737.922c1.661,1.684,3.484,1.289,5.379.6a10.907,10.907,0,0,1,2-.573,2.582,2.582,0,0,1,1.337.183,6.574,6.574,0,0,0,2.478.382,22.806,22.806,0,0,1,3.47.214c2.577.472,4.375,2.135,5.866,4.172.415.565.731,1.2,1.135,1.778a9.417,9.417,0,0,1,1.5,3.445c.4,1.817,1.061,3.577,1.417,5.4a15.427,15.427,0,0,1,.053,3.357,2.058,2.058,0,0,1-.329.99,13.185,13.185,0,0,1-3.166,3.774,13.126,13.126,0,0,0-2.047,1.971,13.163,13.163,0,0,1-3.981,3.08,1.808,1.808,0,0,0-.907.944C62.541,54.27,59.934,59.729,57,65.025a3.23,3.23,0,0,1-.756.858,18.151,18.151,0,0,1-8.227,3.868,31.744,31.744,0,0,1-20.945-2.774,14.117,14.117,0,0,1-3.811-2.626,4.26,4.26,0,0,1-1.179-2.068c-1.216-4.917-2.476-9.821-3.722-14.73-.086-.341-.211-.675-.265-1.02a1.718,1.718,0,0,0-1.649-1.671,3.664,3.664,0,0,1-2.71-1.807,11.314,11.314,0,0,0-1.85-2.01,4.69,4.69,0,0,1-.793-6.19c.275-.446.61-.856.961-1.343m62.118,3.051a23.06,23.06,0,0,0-.351-2.39c-.485-1.942-1.037-3.868-1.575-5.8a2.5,2.5,0,0,0-.316-.663c-.6-.947-1.156-1.94-1.85-2.821-1.593-2.027-3.451-3.616-6.3-3.341a10.838,10.838,0,0,1-1.9-.055,5.122,5.122,0,0,1-2.589-.782,2.239,2.239,0,0,0-2.123-.138c-.986.357-1.975.714-2.981,1.012a4.271,4.271,0,0,1-4.049-.875,3.384,3.384,0,0,0-2.125-.776c-2.172-.047-2.025.072-3.123-1.844A4.42,4.42,0,0,0,42.8,16.076a46.266,46.266,0,0,0-4.655-1.928,13.112,13.112,0,0,0-4.989-.343,4.51,4.51,0,0,0-1.961.712,5.072,5.072,0,0,1-3.289.852,4.927,4.927,0,0,0-3.731,1.172c-1,.881-1.957,1.811-2.889,2.764a3.693,3.693,0,0,1-2.421,1.337,9.885,9.885,0,0,0-1.858.38,7,7,0,0,0-4.92,8.379,7,7,0,0,0,1.593,2.817c.676.754.665,1.006.09,1.838-.361.521-.739,1.031-1.047,1.583a3.258,3.258,0,0,0,.3,3.456c.793.887,1.55,1.811,2.271,2.758a2.72,2.72,0,0,0,1.174,1.006,12.011,12.011,0,0,0,8.231.649,3.517,3.517,0,0,1,2.382-.084,18.415,18.415,0,0,1,2.967,1.341,17.353,17.353,0,0,0,6.121,2.706,7.829,7.829,0,0,1,.791.281,6.2,6.2,0,0,0,1.421.347c2.158.064,4.275.963,6.468.32.1-.029.211.023.314.012a23.173,23.173,0,0,0,3.113-.376c1.5-.376,2.932-1,4.427-1.378a7.658,7.658,0,0,1,5.057.333,7.393,7.393,0,0,0,3.086.509A10.478,10.478,0,0,0,68.7,43.78a10.349,10.349,0,0,1,1.049-1.039c.743-.643,1.577-1.2,2.252-1.9,1.135-1.185,2.38-2.363,2.166-4.275M19.6,45.511c.2.815.351,1.5.528,2.176,1.066,4.082,2.22,8.145,3.166,12.254a5.912,5.912,0,0,0,2.6,3.813,29.007,29.007,0,0,0,17.163,5.3,20.619,20.619,0,0,0,9.784-2.217,23.1,23.1,0,0,0,2.77-1.91.955.955,0,0,0,.489-.975c-.2.057-.337.084-.464.131a44.985,44.985,0,0,1-13.192,2.651,31.145,31.145,0,0,1-10.356-.951,10.925,10.925,0,0,1-3.544-1.593A3.824,3.824,0,0,1,26.891,61.5c-.708-5.084-1.484-10.161-2.238-15.239-.049-.333-.131-.661-.207-1.035-.6.115-1.07.207-1.554.3a2.331,2.331,0,0,0,0,.378q1.377,7.363,2.757,14.724a2.575,2.575,0,0,1,.08.829.607.607,0,0,1-.378.419.621.621,0,0,1-.513-.24,1.9,1.9,0,0,1-.195-.7Q23.317,53.948,22,46.95c-.09-.472-.185-.944-.281-1.439Zm20.444,4.47a19.967,19.967,0,0,1-8.2-2.024,3.94,3.94,0,0,0-.057.587q.564,7.416,1.144,14.832a10.4,10.4,0,0,0,.275,1.326l1.692.4c.06-1.035.127-1.94.162-2.846.127-3.127.24-6.256.366-9.383a3.137,3.137,0,0,1,.133-.93.6.6,0,0,1,.464-.326.587.587,0,0,1,.435.359,4.817,4.817,0,0,1,.057,1.15q-.249,5.588-.509,11.172c-.016.333,0,.667,0,1.02l1.877.232c.719-5.191,1.425-10.268,2.16-15.565m14.65-1.764a20.99,20.99,0,0,0-5.815,1.213,1.631,1.631,0,0,0-1.166,1.1c-1.324,4.7-2.7,9.381-4.053,14.071-.086.292-.142.595-.25,1.062,1.029-.1,1.924-.238,2.825-.271a1.533,1.533,0,0,0,1.538-1.119c2.15-5.076,4.365-10.127,6.558-15.186.1-.22.187-.444.363-.866m-22.678,16c0-.343.016-.552,0-.756-.271-2.9-.538-5.8-.827-8.7q-.348-3.512-.756-7.016a1.285,1.285,0,0,0-.386-.786,13.1,13.1,0,0,0-3.568-2,5.407,5.407,0,0,0-.955-.183c.051.452.078.76.123,1.066q.371,2.553.751,5.106c.5,3.4.988,6.808,1.5,10.209.049.333.123.786.351.947a12.757,12.757,0,0,0,3.768,2.109M40.808,50.4c-.593,5.059-1.181,10.1-1.784,15.225.632.045,1.117.092,1.6.107.558.016,1.115,0,1.756,0,1.46-5.258,2.9-10.455,4.361-15.707a7.505,7.505,0,0,0-2.546.088,20.212,20.212,0,0,1-2.6.279c-.234.021-.474,0-.791,0m15-2.1c-2.361,5.527-4.71,11.028-7.123,16.68.887-.185,1.663-.357,2.443-.509a1.485,1.485,0,0,0,1.088-.856c2.472-4.529,4.981-9.036,7.474-13.553.129-.23.222-.482.337-.737-1.427-.345-2.774-.675-4.219-1.025m7.716.5a13.854,13.854,0,0,1-1.649.281,1.3,1.3,0,0,0-1.187.85c-2.259,4.328-4.55,8.64-6.829,12.958-.125.238-.234.487-.462.969,1.022-.366,1.825-.682,2.647-.94a1.866,1.866,0,0,0,1.16-1.107c1.973-4.078,3.973-8.145,5.965-12.215.1-.214.195-.437.355-.8" transform="translate(9.252 11.606)"/>
    <path id="Path_5150" data-name="Path 5150" d="M35.3,26.643a3.874,3.874,0,0,1-2.478-.579,2.87,2.87,0,0,0-1.076-.407,10.32,10.32,0,0,1-3.263-1.129,4.072,4.072,0,0,1-2.172-2.055A3.281,3.281,0,0,0,24.4,20.816a2.256,2.256,0,0,0-.3-.1c-.376-.119-.817-.244-.712-.743.107-.517.606-.606,1.016-.511A3.448,3.448,0,0,1,27.01,21.22a3.467,3.467,0,0,0,2.259,2.037c.836.251,1.673.507,2.507.772a7.355,7.355,0,0,1,1.478.53,5.345,5.345,0,0,0,2.712.715,1.606,1.606,0,0,1,.819.129,1.1,1.1,0,0,1,.478.71c.027.349-.287.528-.651.53-.386,0-.772,0-1.306,0" transform="translate(22.189 18.448)"/>
    <path id="Path_5151" data-name="Path 5151" d="M24.123,16.417a22.541,22.541,0,0,1,2.316.6c.737.273.977.669.8,1.043-.253.528-.733.443-1.191.386a9.153,9.153,0,0,0-4.248.482,3.95,3.95,0,0,0-.39.154c-.5.242-1.187.441-1.066,1.117.109.612.8.723,1.341.823.62.111,1.25.174,1.877.234.452.043.756.248.739.712s-.417.534-.772.528a10.056,10.056,0,0,1-1.45-.135c-.411-.066-.805-.23-1.216-.3A2.782,2.782,0,0,1,19.2,21.026a1.861,1.861,0,0,1,.2-2.5,5.662,5.662,0,0,1,3.955-1.946c.246-.019.491-.031.737-.047.01-.041.019-.08.031-.121" transform="translate(17.857 15.587)"/>
    <path id="Path_5152" data-name="Path 5152" d="M34.45,25.967a10.823,10.823,0,0,1-1.466-.2.683.683,0,0,1-.413-.493c0-.142.281-.38.468-.419,1.029-.209,2.068-.359,3.1-.55.431-.08.986-.062,1.045-.671a1.23,1.23,0,0,0-.809-1.236c-.376-.187-.758-.363-1.129-.561a3,3,0,0,1-.616-.4c-.273-.244-.476-.556-.255-.926a.656.656,0,0,1,1.008-.175c.791.511,1.565,1.053,2.32,1.618a2,2,0,0,1,.5.667c.778,1.47.259,2.647-1.37,3.008-.815.181-1.659.24-2.382.339" transform="translate(30.925 19.157)"/>
    <path id="Path_5153" data-name="Path 5153" d="M27.957,27.173a2.357,2.357,0,0,1,2.22-1.447c1.64-.142,3.283-.23,4.926-.337a1.9,1.9,0,0,1,.316.01c.3.027.606.135.528.487a.714.714,0,0,1-.511.4c-1.144.15-2.293.277-3.445.368a3.635,3.635,0,0,0-2.745,1.094,1.621,1.621,0,0,1-.918.454,4.894,4.894,0,0,1-3.156-.542c-.195-.1-.273-.429-.4-.651a2.143,2.143,0,0,1,.708-.3,4.958,4.958,0,0,1,.918.2c.507.1,1.02.172,1.562.259" transform="translate(23.518 24.104)"/>
    <path id="Path_5154" data-name="Path 5154" d="M18.288,22.916a3.722,3.722,0,0,1,.573.411,4.864,4.864,0,0,0,4.369,1.534,3.73,3.73,0,0,1,.417-.041c.657-.014,1.055.23,1.137.69a.977.977,0,0,1-.8,1.074,2.5,2.5,0,0,1-1.335.057,23.017,23.017,0,0,1-3.2-1.289,4.377,4.377,0,0,1-1.283-1.2.791.791,0,0,1,.131-1.238" transform="translate(17.013 21.758)"/>
  </g>
</svg>
