<svg xmlns="http://www.w3.org/2000/svg" xmlns:xlink="http://www.w3.org/1999/xlink" width="119.551" height="119.553" viewBox="0 0 119.551 119.553">
  <defs>
    <clipPath id="clip-path">
      <rect id="Rectangle_193" data-name="Rectangle 193" width="119.551" height="119.553" fill="none"/>
    </clipPath>
  </defs>
  <g id="mv-02" transform="translate(0 0)">
    <g id="Group_2275" data-name="Group 2275" transform="translate(0 0)" clip-path="url(#clip-path)">
      <path id="Path_5134" data-name="Path 5134" d="M98.026,119.552a12.709,12.709,0,0,1-1.311-.065l-84.947-8.474a13.078,13.078,0,0,1-11.7-14.3L8.539,11.769a13.072,13.072,0,0,1,14.3-11.7l84.947,8.476a13.1,13.1,0,0,1,11.7,14.3l-8.476,84.949a13.1,13.1,0,0,1-12.984,11.766M21.533,4a9.082,9.082,0,0,0-9.017,8.169L4.04,97.113a9.081,9.081,0,0,0,8.124,9.925l84.949,8.474a9.062,9.062,0,0,0,9.923-8.124l8.474-84.947a9.1,9.1,0,0,0-8.124-9.925L22.439,4.043A8.735,8.735,0,0,0,21.533,4" transform="translate(0 0)"/>
      <path id="Path_5135" data-name="Path 5135" d="M19.558,2.021a9.11,9.11,0,0,0-9.017,8.169L2.065,95.139a9.1,9.1,0,0,0,8.124,9.923l84.947,8.474a9.1,9.1,0,0,0,9.925-8.122l8.474-84.949a9.078,9.078,0,0,0-8.124-9.923L20.464,2.066c-.3-.03-.605-.045-.906-.045" transform="translate(1.975 1.976)" fill="#fff"/>
      <path id="Path_5136" data-name="Path 5136" d="M20.37,44.752c-.312-.164-.518-.281-.73-.384A17.6,17.6,0,0,1,9.484,30.157,19.724,19.724,0,0,1,15.363,13.13,19.309,19.309,0,0,1,29.716,7.182,17.15,17.15,0,0,1,45.457,17.775c.136.352.261.71.405,1.107a1.683,1.683,0,0,0,.4-.036A15.718,15.718,0,0,1,59.481,19.99a18.5,18.5,0,0,1,9.806,12.832,13.507,13.507,0,0,1-3.882,13.107,2.535,2.535,0,0,0-.2.237,1.014,1.014,0,0,0-.061.21c.314.587.682,1.246,1.02,1.918Q72.6,61.007,79.021,73.731c2.984,5.923,5.992,11.835,8.895,17.8a5.914,5.914,0,0,1-6.417,8.616,5.432,5.432,0,0,1-2.177-1.086Q61.969,84.269,44.592,69.5c-1.024-.872-2.005-1.8-3.113-2.788-.32.212-.676.463-1.046.69-5.446,3.36-11.009,3.732-16.548.37a13.779,13.779,0,0,1-6.571-10.21,17.233,17.233,0,0,1,2.6-12.1c.129-.2.255-.4.451-.716M44.709,19.561a1.042,1.042,0,0,0-.012-.277C41.563,12.037,35.476,8.742,28.68,9.076a16.826,16.826,0,0,0-11.044,4.884c-5.234,5.005-7.246,11.048-5.6,18.183C13.113,36.8,16.026,40,20.159,42.213a2.573,2.573,0,0,0,2.379.057c.856-.362,1.75-.635,2.632-.937a4.874,4.874,0,0,1,2.958-.079,3.519,3.519,0,0,0,3.69-1.038,4.294,4.294,0,0,1,3.767-1.3c.4.044.8.028,1.27.044,0-.508.006-.9.008-1.149a27.064,27.064,0,0,1-3.1-.929,11.94,11.94,0,0,0-6.213-1.173,6.153,6.153,0,0,0-3.536,1.483,2.893,2.893,0,0,1-.552.465,2.976,2.976,0,0,1-.771.113,3.493,3.493,0,0,1,.212-.781,5.291,5.291,0,0,1,2.741-2.42,9.313,9.313,0,0,1,6.387-.366c.906.328,1.827.611,2.745.906a10.62,10.62,0,0,0,1.192.342,1.616,1.616,0,0,0,2.12-1.287,3.927,3.927,0,0,0,.095-1.533c-.089-.607-.358-1.185-.506-1.786a17.782,17.782,0,0,1-.593-2.709,12.476,12.476,0,0,1,1.754-7.04,3.35,3.35,0,0,0,.439-3.229,1.151,1.151,0,0,1-.087-.4.883.883,0,0,1,.714-.991.835.835,0,0,1,.959.613,5.094,5.094,0,0,1-.125,4.406,11.845,11.845,0,0,0-.645,1.3c-.216.524-.382,1.068-.57,1.6,1.887-1.538,3.209-3.559,5.191-4.835m4.841,32.12a14.31,14.31,0,0,0,4.143-.937c1.082-.676,2.165-1.359,3.2-2.106a8.7,8.7,0,0,1,2.086-1.109,21.494,21.494,0,0,0,3.767-1.663,9.8,9.8,0,0,0,4.519-6.326,14.07,14.07,0,0,0-.542-8.359,17.022,17.022,0,0,0-9.694-9.953,13.468,13.468,0,0,0-10.212-.285c-2,.744-2.191,1.03-2.122,3.178a1.593,1.593,0,0,0,.862,1.612,1.807,1.807,0,0,1,1.009,1.894,3.378,3.378,0,0,0,.047,1.631.738.738,0,0,1-.273.672.988.988,0,0,1-.819-.17,1.394,1.394,0,0,1-.34-.835,3.949,3.949,0,0,1,.067-1.129.815.815,0,0,0-.366-.985,2.307,2.307,0,0,1-1.194-2.438c.026-.573.067-1.147.109-1.843a2.987,2.987,0,0,0-1.538,1.147A27.452,27.452,0,0,1,40.6,25.913a4.948,4.948,0,0,0-1.171,4.236,33.755,33.755,0,0,0,.953,3.443c.882.247,2.169.083,2.312,1.564.253.055.461.083.657.146.435.144.738.423.657.916s-.455.655-.908.684c-1.2.079-1.748-.459-1.744-1.7a2.12,2.12,0,0,0-.047-.281c-.388-.095-.8-.2-1.078-.263a12.428,12.428,0,0,1-1.473,2.035,1.339,1.339,0,0,0-.522,1.511,4.334,4.334,0,0,1,.067.722,18.629,18.629,0,0,0,1.175,5.446,2.131,2.131,0,0,0,.783,1.159c.2-.318.356-.589.54-.835a2.8,2.8,0,0,1,1.58-1.107.782.782,0,0,1,1.026.445.719.719,0,0,1-.538.969c-1.04.212-1.422.983-1.847,1.887.447.461.882.945,1.357,1.39.528.5,1.111.933,1.633,1.436a7.5,7.5,0,0,0,2.606,1.451.889.889,0,0,0,.593.024,2.7,2.7,0,0,0,1.78-1.426,2.248,2.248,0,0,1,2.575-1.422c.257.03.643.243.7.447.1.368-.265.494-.593.546a4.064,4.064,0,0,0-.813.144,1.02,1.02,0,0,0-.53.415c-.277.546-.492,1.123-.775,1.792m8.248,25.3a1.552,1.552,0,0,0,.225.419q1.83,1.522,3.676,3.022c.386.314.7.148.973-.188s.544-.712.846-1.036c.85-.908,1.716-1.8,2.575-2.7,2.318-2.416,4.619-4.847,6.965-7.234A.98.98,0,0,0,73.3,68c-.475-1.072-.916-2.159-1.355-3.247-.66-1.637-1.009-1.4-2.057-.356-1.954,1.948-3.9,3.91-5.8,5.907A77.662,77.662,0,0,0,57.8,76.978M25.4,43.212a40.215,40.215,0,0,0,1,5.337c.5,1.558.451,1.659-.959,2.5.144.261.287.526.437.785.417.714.868,1.41,1.248,2.144.368.712.265.995-.38,1.493-.235.182-.467.372-.716.57.184.346.324.613.4.746a10.494,10.494,0,0,0-1.463,2.452,29.3,29.3,0,0,0-.67,4.487,7.267,7.267,0,0,0,.164,1.851.558.558,0,0,0,.407.36.577.577,0,0,0,.415-.36,2.226,2.226,0,0,0,.026-.819,9.866,9.866,0,0,1,.692-5.248c.637-1.4,1.434-2.411,3.016-2.62a1,1,0,0,0,.973-.9c.085-.475.273-.933.334-1.408.227-1.778.443-3.556.621-5.337a3.45,3.45,0,0,1,1.776-2.964,1.4,1.4,0,0,0,.672-.979c.277-.993.6-1.976.951-2.944.194-.536.486-1.036.747-1.58a1.98,1.98,0,0,0-.382-.087,2.449,2.449,0,0,0-1.8.892,5.06,5.06,0,0,1-5.733,1.5,1.98,1.98,0,0,0-1.776.131m16.749,7.7a14.71,14.71,0,0,1-4.273-4.965,27.7,27.7,0,0,0-2.2,2.589,3.674,3.674,0,0,0-.439,2.3,16.134,16.134,0,0,1-.314,4.734,2.829,2.829,0,0,1-1.05,1.718,5.636,5.636,0,0,1-2.751,1.1,1.526,1.526,0,0,0-1.475,1.473,5.164,5.164,0,0,0-.075.72,1.96,1.96,0,0,0,1.877,2.171.931.931,0,0,0,1.175-1.034,2.037,2.037,0,0,1,.03-.706c.827-2.118,1.305-2.8,3.488-2.565l.1.01a.706.706,0,0,0,.884-.637,14.175,14.175,0,0,1,.471-1.8A3.407,3.407,0,0,1,40.5,53.424a6.03,6.03,0,0,0,.682-.142c.312-.767.609-1.5.963-2.369m13.194,1.7L49.5,54.11c0,1.618,1.291,12.282,1.592,12.9,1.465-1.495,2.917-2.968,4.347-4.461a.978.978,0,0,0,.186-.651c-.071-2.8-.158-5.594-.245-8.391-.01-.336-.032-.67-.043-.9m-7.2,4.3c-.075-.028-.148-.057-.221-.085A17.748,17.748,0,0,1,42.7,65.688c1.889,1.537,3.664,2.978,5.48,4.455.483-.56.88-1.018,1.084-1.256-.22-2.217-.423-4.165-.607-6.114s-.346-3.911-.518-5.869M60.618,49.39a5.8,5.8,0,0,0-2.879,1.319,1.6,1.6,0,0,0-.68,1.487c.14,2.484.206,4.971.307,7.457a7.84,7.84,0,0,0,.131.8c1.117-1.125,2.146-2.142,3.142-3.19a1.132,1.132,0,0,0,.273-.746c-.079-2.341-.188-4.685-.293-7.127M32.84,67.723c3.969.257,10.724-4.206,11.509-7.631a4.776,4.776,0,0,1-2.822,1c-2.12.314-2.118.322-3.176,2.12-.069.121-.131.243-.208.36a2.952,2.952,0,0,1-1.96,1.4c-.467.091-.9.37-1.362.477-1.23.279-1.647,1.214-1.981,2.272M63.634,47.386c-1.151.536-1.768,1.2-1.614,2.454.194,1.572.259,3.162.388,4.742a6.829,6.829,0,0,0,.15.753c1.167-1.208,2.235-2.312,3.3-3.415-.769-1.566-1.479-3.014-2.227-4.534m10.121,24.6a6.193,6.193,0,0,0,.312,1.062c.66,1.291,1.317,2.587,2.045,3.84,3.168,5.466,6.215,11,9.049,16.649a3.862,3.862,0,0,0,.417.712c.087.107.287.121.435.176.055-.174.2-.384.148-.516a10.008,10.008,0,0,0-.579-1.1c-2.124-3.876-4.261-7.742-6.364-11.628-1.511-2.794-2.968-5.614-4.455-8.422-.188-.354-.332-.777-1.009-.777m-8.3-17.133c-.271.987.295,1.54.575,2.167.31.692.678,1.359,1.026,2.033.332.643.639,1.3,1.018,1.92.368.6.445,1.41,1.3,1.873a2.4,2.4,0,0,0-.071-.617q-1.584-3.316-3.2-6.615a4.53,4.53,0,0,0-.651-.761" transform="translate(9.079 7.021)"/>
      <path id="Path_5137" data-name="Path 5137" d="M12.437,27.688a3.229,3.229,0,0,1-.72-2.614,1.548,1.548,0,0,1,.307-.746.748.748,0,0,1,.627-.212c.178.047.346.3.423.5a1.883,1.883,0,0,1,0,.615,2.549,2.549,0,0,0,3.583,2.355,3.251,3.251,0,0,0,1.608-2.745c.061-.548.067-1.1.1-1.653a9.452,9.452,0,0,1,3.757-6.672A9.3,9.3,0,0,0,25.2,10.833a6.616,6.616,0,0,1,.184-.91.7.7,0,0,1,.88-.524.647.647,0,0,1,.514.785,18.626,18.626,0,0,1-.542,2.838,11.933,11.933,0,0,1-1.22,2.622,11.319,11.319,0,0,1-1.542,1.782c-.761.8-1.6,1.525-2.322,2.353A5.4,5.4,0,0,0,20,24.16a5.025,5.025,0,0,1-1.092,3.771A3.057,3.057,0,0,1,16.182,29.3a4.418,4.418,0,0,1-3.745-1.616" transform="translate(11.408 9.164)"/>
      <path id="Path_5138" data-name="Path 5138" d="M46.15,27.624a3.575,3.575,0,0,1-3.287.844,9.5,9.5,0,0,1-3.49-1.234c-1-.674-2.066-.384-3.107-.136-.973.231-1.926.55-2.9.791a16.95,16.95,0,0,0-4.058,2.043,16.492,16.492,0,0,1-2.049.981,2.532,2.532,0,0,1-1.212.138,1.013,1.013,0,0,1-.67-.522c-.164-.37.125-.637.449-.819,1.082-.609,2.163-1.214,3.243-1.825a17.991,17.991,0,0,1,2.258-1.26,28.284,28.284,0,0,1,5.986-1.588,4.46,4.46,0,0,1,3,.566,8.465,8.465,0,0,0,2.944.937,2.372,2.372,0,0,0,2.863-2.632,11.1,11.1,0,0,1,.188-3.706,6.7,6.7,0,0,1,.641-1.629c.316-.589.8-.753,1.177-.508.354.227.439.637.121,1.2a5.769,5.769,0,0,0-.712,2.573A10.246,10.246,0,0,0,47.6,23.9a3.579,3.579,0,0,1-1.45,3.726" transform="translate(24.765 17.552)"/>
      <path id="Path_5139" data-name="Path 5139" d="M27.752,29.106a2.923,2.923,0,0,1,.876-3.55c1.01-.641,2.047-.356,3.4.981a3.546,3.546,0,0,1,2.462-.243,1.191,1.191,0,0,1,.66.249c.176.2.358.571.283.771s-.455.338-.724.4c-.172.04-.386-.115-.583-.176a1.958,1.958,0,0,0-1.5.079c-.833.392-1.08.3-1.691-.4-.113-.131-.21-.275-.33-.4a1.188,1.188,0,0,0-2.041.287,10.346,10.346,0,0,0-.348,1.183,6.22,6.22,0,0,1-.461.821" transform="translate(26.886 24.661)"/>
      <path id="Path_5140" data-name="Path 5140" d="M35.5,18.651a2.794,2.794,0,0,0-2.678-1.058,6.037,6.037,0,0,0-.609.123c-1.426.308-2.059.012-2.834-1.57-.154-.314-.281-.69.111-.92a.575.575,0,0,1,.856.326c.433,1.092,1.2,1.147,2.246,1.012a4.319,4.319,0,0,1,4.716,2.81c.148.342.192.692-.176.914s-.664.036-.864-.3c-.267-.441-.514-.894-.769-1.341" transform="translate(28.574 14.796)"/>
      <path id="Path_5141" data-name="Path 5141" d="M35.4,27.051c-.2.532-.332.884-.473,1.232-.115.283-.33.508-.627.344a.718.718,0,0,1-.231-.583,3.884,3.884,0,0,1,.239-1c.338-.945.757-1.135,1.54-.975a2.22,2.22,0,0,0,2.371-1.094,9.65,9.65,0,0,1,1.159-1.3,1.218,1.218,0,0,1,.724-.34.836.836,0,0,1,.664.324c.091.186.012.653-.129.722-.912.453-1.359,1.339-2.019,2.023a2.724,2.724,0,0,1-2.537.838c-.2-.034-.4-.109-.682-.188" transform="translate(33.298 22.806)"/>
      <path id="Path_5142" data-name="Path 5142" d="M30.777,21.291c.044-1.264.925-1.7,1.938-1.977a2.331,2.331,0,0,1,2.292.233,7.482,7.482,0,0,1-.819.429c-.388.142-.8.218-1.183.368-.528.21-.971.459-.9,1.2.055.589-.366.918-.941,1.05-.631.148-1.254.326-1.881.5a.633.633,0,0,1-.8-.277.65.65,0,0,1,.2-.914,3.449,3.449,0,0,1,.945-.388c.362-.1.738-.144,1.149-.22" transform="translate(27.737 18.69)"/>
      <path id="Path_5143" data-name="Path 5143" d="M37.1,16.9a4.636,4.636,0,0,1,.265,1.157.8.8,0,0,1-.471.556.637.637,0,0,1-.57-.271,1.431,1.431,0,0,0-1.052-1.018c-.3-.115-.558-.348-.407-.718s.494-.348.8-.249c.477.156.941.354,1.436.544" transform="translate(34.039 15.927)"/>
    </g>
  </g>
</svg>
