<svg xmlns="http://www.w3.org/2000/svg" xmlns:xlink="http://www.w3.org/1999/xlink" width="135.523" height="135.519" viewBox="0 0 135.523 135.519">
  <defs>
    <clipPath id="clip-path">
      <rect id="Rectangle_199" data-name="Rectangle 199" width="135.523" height="135.519" fill="none"/>
    </clipPath>
  </defs>
  <g id="mv-08" transform="translate(0 0)">
    <g id="Group_2285" data-name="Group 2285" transform="translate(0 0)" clip-path="url(#clip-path)">
      <path id="Path_5171" data-name="Path 5171" d="M52.987,135.52a12.661,12.661,0,0,1-3.266-.432,12.382,12.382,0,0,1-7.58-5.8L1.668,59.184A12.5,12.5,0,0,1,6.235,42.141l70.1-40.475A12.507,12.507,0,0,1,93.379,6.235l40.473,70.1a12.488,12.488,0,0,1-4.567,17.043l-70.1,40.473a12.357,12.357,0,0,1-6.2,1.668M82.539,3.97A8.417,8.417,0,0,0,78.32,5.1L8.218,45.578A8.539,8.539,0,0,0,5.1,57.2l40.475,70.1A8.535,8.535,0,0,0,57.2,130.415l70.1-40.473.992,1.719-.992-1.719a8.537,8.537,0,0,0,3.113-11.622L89.942,8.218a8.437,8.437,0,0,0-5.17-3.952,8.606,8.606,0,0,0-2.233-.3" transform="translate(0 -0.001)"/>
      <path id="Path_5172" data-name="Path 5172" d="M80.592,2.021a8.4,8.4,0,0,0-4.219,1.135L6.271,43.629A8.519,8.519,0,0,0,3.156,55.251l40.475,70.1a8.516,8.516,0,0,0,11.622,3.117l70.1-40.475a8.537,8.537,0,0,0,3.113-11.622L87.995,6.269a8.444,8.444,0,0,0-5.17-3.952,8.617,8.617,0,0,0-2.233-.3" transform="translate(1.946 1.948)" fill="#fff"/>
      <path id="Path_5173" data-name="Path 5173" d="M59.41,22.561a6.235,6.235,0,0,1,3.174-1.721,12.58,12.58,0,0,1,6.33.526,4.715,4.715,0,0,1,.941.538c4.961,3.3,9.9,6.631,14.884,9.883,2.614,1.7,5.339,3.243,7.988,4.893a4.017,4.017,0,0,1,2.147,3.771c-.1,1.662-.375,3.312-.493,4.973-.147,2.133-.216,4.272-.316,6.407a10.986,10.986,0,0,1-.055,1.3,15.654,15.654,0,0,0-.147,4.561c.424,3.457-1.2,5.847-3.911,7.7-.361.246-.689.534-1.059.76a6.288,6.288,0,0,1-1.508.8c-2,.538-4.015.984-6.018,1.495-1.406.359-2.817.705-4.191,1.167-2.219.744-4.547.943-6.8,1.489-2.108.509-4.219,1.049-6.273,1.74-2.269.764-4.463,1.744-6.711,2.575-2.379.878-4.789,1.681-7.179,2.536-1.948.7-3.883,1.434-5.833,2.121-.821.289-1.677.475-2.508.739-3.215,1.019-6.427,2.064-9.65,3.07-.725.226-1.489.314-2.225.5A20.561,20.561,0,0,0,27.913,85a5.018,5.018,0,0,1-3.076.35c-.764-.189-1.6-.073-2.361-.277a6.809,6.809,0,0,1-4.928-4.046,16.233,16.233,0,0,1-1.314-6.006c-.029-1.842-.414-3.675-.544-5.519-.092-1.3-.022-2.608-.016-3.913,0-.544.029-1.088.029-1.632a4.973,4.973,0,0,1,1.907-4.081c1.536-1.271,2.993-2.648,4.482-3.979q9.216-8.252,18.441-16.493a3.34,3.34,0,0,0,1.186-2.1,27.161,27.161,0,0,1,1.738-5.718,28.053,28.053,0,0,0,.874-3.131c.059-.21.079-.43.147-.636.951-2.854,1.858-5.723,2.887-8.55a22.441,22.441,0,0,1,1.671-3.292,2.141,2.141,0,0,1,2.276-1.163c.395.051.8.018,1.2.061a1.748,1.748,0,0,1,.837.208c1.353,1.041,2.893,1.833,3.643,3.581a29.694,29.694,0,0,0,2.418,3.891m-18.1,18.826c-.242.179-.424.293-.581.432-3.858,3.425-7.7,6.867-11.573,10.28-3.486,3.076-7,6.114-10.5,9.188a2.858,2.858,0,0,0-.674.964c-.385.872-.09,1.3.892,1.275a5.949,5.949,0,0,0,1.371-.261c.489-.136.955-.354,1.44-.491Q55.872,53.1,90.06,43.426a4.165,4.165,0,0,0,2.795-2.553,1.741,1.741,0,0,0-.532-2.159,11.173,11.173,0,0,0-1.214-.925c-3.471-2.322-6.918-4.686-10.431-6.941q-6.1-3.91-12.307-7.652c-2.141-1.3-4.4-.988-6.59-.057a5.65,5.65,0,0,0-1.175.933c.365.764.685,1.451,1.019,2.133,1,2.054,1.95,4.138,3.029,6.152a14.733,14.733,0,0,1,1.725,5.572,3.366,3.366,0,0,1-.862,2.72A12.868,12.868,0,0,1,60.7,44.282c-.811.31-1.66.548-2.447.907a5.417,5.417,0,0,1-3.188.381,7.5,7.5,0,0,0-4.58.534,5.631,5.631,0,0,1-3.194.411c-.4-.045-.792-.145-1.188-.157a3.967,3.967,0,0,1-3.858-2.96c-.244-.672-.6-1.3-.939-2.011m-22.8,37.126a9.759,9.759,0,0,0,3.286,4.319,5.5,5.5,0,0,0,5.763.548,16.243,16.243,0,0,1,2.461-.827c.448-.139.917-.222,1.369-.354q5.645-1.653,11.284-3.315c.66-.2,1.3-.458,1.943-.705.782-.3,1.546-.638,2.333-.911,3.323-1.155,6.664-2.265,9.982-3.443,1.986-.705,3.971-1.422,5.888-2.284a31.818,31.818,0,0,1,6.464-1.891,74.691,74.691,0,0,0,8.894-2.078c.752-.261,1.526-.471,2.3-.668,2.005-.507,4.026-.943,6.016-1.495a7.708,7.708,0,0,0,5.476-8.534,7.074,7.074,0,0,0-2.819.684C87,58.22,84.816,58.811,82.714,59.6c-4.459,1.673-9.033,2.952-13.6,4.288a4.853,4.853,0,0,1-.958.194,40.316,40.316,0,0,0-6.244.911,49.814,49.814,0,0,0-5.04,1.343c-2.347.858-4.606,1.948-6.924,2.889a23.658,23.658,0,0,1-5.048,1.65c-2.249.367-4.472.917-6.68,1.506-3.044.813-6.059,1.738-9.094,2.6-.627.179-1.29.238-1.9.45-2.877.994-5.741,2.021-8.721,3.078M93.063,44.3c-.255.149-.43.267-.617.354a19.524,19.524,0,0,1-2.769,1.241Q56.771,55.239,23.855,64.532a23.905,23.905,0,0,1-5.714,1.147,6.306,6.306,0,0,0-.556,4.614c1.2-.255,2.414-.471,3.608-.778a32.527,32.527,0,0,0,4.794-1.385,15.43,15.43,0,0,1,6.246-1.21A7.345,7.345,0,0,0,35.6,66.19a29.166,29.166,0,0,1,3.2-1.359c1.436-.513,2.9-.953,4.358-1.385,1.074-.318,2.168-.577,3.253-.86.485-.126.982-.22,1.461-.365.414-.126.811-.308,1.22-.458,1.395-.507,2.8-1,4.188-1.518a36.654,36.654,0,0,1,5.572-1.819c3.054-.617,6.1-1.318,9.11-2.123,2.657-.711,5.274-1.589,7.9-2.432,1.55-.5,3.1-1.025,4.614-1.62,2.157-.847,4.262-1.838,6.44-2.63,1.766-.642,3.382-1.664,5.25-2.047a.894.894,0,0,0,.6-.528,6.645,6.645,0,0,0,.291-2.75M67.506,63.026c-1.387-1.163-2.614-2.125-3.753-3.18a2.162,2.162,0,0,0-2.129-.617,53.05,53.05,0,0,0-7.365,1.919c-.9.32-1.781.676-2.8,1.063.85.444,1.542.754,2.186,1.151.86.532.856.717.232,1.522-.495.632-.964,1.283-1.444,1.923.059.079.12.155.179.234.89-.371,1.787-.735,2.675-1.114.33-.141.636-.356.976-.467a45.638,45.638,0,0,1,10.4-2.263c.2-.018.409-.081.845-.171M80.485,53.4c-1.878.638-3.724,1.255-5.558,1.9a1.15,1.15,0,0,0-.53.481c-1.11,1.866-2.2,3.742-3.294,5.617-.134.232-.226.487-.4.87,3.691-.925,7.128-2.092,10.541-3.217a16.158,16.158,0,0,0-.758-5.653M33.312,68a6.375,6.375,0,0,0,1.506,1,9.2,9.2,0,0,1,2.946,1.787,1.2,1.2,0,0,0,1.1.285c1.762-.4,3.532-.768,5.413-1.173.4-1.944.805-3.9,1.226-5.938A22.22,22.22,0,0,0,40,65.393c-2.192.823-4.366,1.7-6.69,2.61m-3.6.32a3.215,3.215,0,0,0-2.267.452A11.617,11.617,0,0,1,24,70.056c-1.2.224-2.388.577-3.579.884-.338.088-.668.212-1.135.363.593.467,1.057.856,1.548,1.21A1.31,1.31,0,0,1,21.37,74.2a17.419,17.419,0,0,0-.471,2.054c2.157-.972,4.392-.845,6.287-2a1.576,1.576,0,0,1-.134-2.212c.475-.768,1.031-1.487,1.554-2.221.334-.464.678-.921,1.1-1.5M89.056,50.029a2.6,2.6,0,0,1,.593.308c1.07.98,1.129,1.469.363,2.687-.114.185-.259.35-.381.528-.723,1.065-1.442,2.129-2.3,3.4l4.9-1.53c.106-2.247.674-4.437.4-6.749-1.18.348-2.443.249-3.569,1.353M60.684,35.791c.711,0,1-.216,1.025-.678s-.259-.758-.807-.847a2.955,2.955,0,0,0-.544-.016.7.7,0,0,0-.772.615.751.751,0,0,0,.558.831,2.688,2.688,0,0,0,.54.094M54.25,36.809A1.1,1.1,0,0,0,53.2,35.78a.752.752,0,0,0-.735.774A1.041,1.041,0,0,0,53.5,37.581a.774.774,0,0,0,.748-.772m3.221,5.1c.434.008.811-.1.907-.585.073-.365-.446-.847-.929-.9a.783.783,0,0,0-.892.733.875.875,0,0,0,.913.75m-7.11-16.976a1.87,1.87,0,0,0-.625-.391.832.832,0,0,0-.9.852.662.662,0,0,0,.678.687c.4.026.843-.5.843-1.149M47.442,39.507a.753.753,0,0,0-.764.737.868.868,0,0,0,.88.77.661.661,0,0,0,.689-.672.82.82,0,0,0-.805-.835M55.631,28.83a.736.736,0,0,0-.837.64.777.777,0,0,0,.837.656.732.732,0,0,0,.782-.6c.082-.338-.322-.68-.782-.7m-7.051,2.333a.664.664,0,0,0-.6.742.616.616,0,0,0,.739.593c.4-.033.691-.224.693-.658a.791.791,0,0,0-.829-.678m5.315-12.286a3.827,3.827,0,0,0-.587.935c-.081.316.175.522.517.528.4.01.921-.409.8-.68s-.4-.438-.733-.784" transform="translate(15.082 14.266)"/>
      <path id="Path_5174" data-name="Path 5174" d="M39.274,20.56c.3-.328.44-.589.66-.707a3.393,3.393,0,0,1,1.3-.5,7.613,7.613,0,0,1,4.4.737c2.734,1.534,5.028,3.7,7.764,5.211.919.509,1.864.972,2.764,1.514,1.33.8,2.624,1.668,3.944,2.485.462.285.958.509,1.438.768.306.165.572.4.424.774-.177.448-.56.407-.913.22-.992-.524-1.988-1.047-2.96-1.6-1.129-.646-2.241-1.32-3.349-2a64.761,64.761,0,0,1-6.5-4.356,34.626,34.626,0,0,0-3.909-2.555,3.663,3.663,0,0,0-1.365-.234,3.893,3.893,0,0,0-2.942.375c-.11.079-.369-.053-.756-.122" transform="translate(37.865 18.622)"/>
      <path id="Path_5175" data-name="Path 5175" d="M22.888,40.092c-.544,0-1.09.031-1.63-.02-.161-.014-.442-.283-.422-.391a.91.91,0,0,1,.4-.542,1.126,1.126,0,0,1,.636-.086,14.035,14.035,0,0,0,4.189-.536,4.973,4.973,0,0,0,1.514-.572,21.8,21.8,0,0,1,4.783-2.06c1.968-.632,3.928-1.283,5.9-1.9a3.1,3.1,0,0,1,1.167-.175.886.886,0,0,1,.6.491c.051.122-.189.491-.371.564a35.8,35.8,0,0,1-3.467,1.277,32.531,32.531,0,0,0-8,3.066,3.272,3.272,0,0,1-1.1.462c-1.391.232-2.791.4-4.186.6l-.018-.173" transform="translate(20.087 32.586)"/>
      <path id="Path_5176" data-name="Path 5176" d="M35.456,34.626a11.265,11.265,0,0,1,1.245-.2,15.047,15.047,0,0,0,5.983-1.471,7.368,7.368,0,0,1,2.153-.733,5.479,5.479,0,0,0,3.775-2.685,7.054,7.054,0,0,1,.9-1.076.586.586,0,0,1,.878-.016.637.637,0,0,1,.047.892,13.332,13.332,0,0,1-2.826,3.276,3.851,3.851,0,0,1-2.312.849,5.116,5.116,0,0,0-2.471.731,12.62,12.62,0,0,1-5.411,1.5,4.3,4.3,0,0,1-1.387-.181c-.261-.079-.462-.356-.689-.542l.112-.34" transform="translate(34.076 27.237)"/>
      <path id="Path_5177" data-name="Path 5177" d="M60.394,28.754a5.318,5.318,0,0,1-.668,1.051,4.664,4.664,0,0,1-2.314,1.133q-4.148.872-8.287,1.811a12.247,12.247,0,0,0-1.518.572,2.1,2.1,0,0,1-.813.249.88.88,0,0,1-.66-.418.789.789,0,0,1,.289-.707,6.476,6.476,0,0,1,1.7-.713c2.581-.589,5.177-1.108,7.758-1.687a13.8,13.8,0,0,0,2.479-.756c.764-.332.821-.627.556-1.4-.069-.2-.24-.383-.269-.587a2.532,2.532,0,0,1,.079-.678c.228.061.574.049.664.2.371.6.666,1.253,1.01,1.931" transform="translate(44.465 25.671)"/>
      <path id="Path_5178" data-name="Path 5178" d="M52.215,26.741c-.357-.059-.788-.09-.833-.613-.035-.367.365-.627.856-.591s.847.324.8.691c-.057.464-.389.548-.821.513" transform="translate(49.537 24.616)"/>
      <path id="Path_5179" data-name="Path 5179" d="M68.817,38.537c.139.114.42.246.509.456.045.112-.206.467-.391.536-1.561.583-3.119,1.182-4.714,1.664-2.186.66-4.4,1.22-6.605,1.825q-3.406.937-6.81,1.878c-.385.106-.774.2-1.149.33a43.629,43.629,0,0,1-5.219,1.516c-2.479.517-4.908,1.265-7.36,1.919-.139.035-.289.171-.4.139a1.065,1.065,0,0,1-.587-.326c-.061-.088.092-.409.23-.528a1.454,1.454,0,0,1,.6-.214c1.693-.4,3.4-.725,5.077-1.2,2.337-.658,4.641-1.428,6.967-2.133q3.379-1.025,6.772-2.009c1.707-.495,3.429-.929,5.13-1.442,2.432-.731,4.847-1.506,7.271-2.261.173-.053.354-.081.676-.153" transform="translate(34.783 37.154)"/>
    </g>
  </g>
</svg>
