<svg xmlns="http://www.w3.org/2000/svg" xmlns:xlink="http://www.w3.org/1999/xlink" width="99.316" height="99.318" viewBox="0 0 99.316 99.318">
  <defs>
    <clipPath id="clip-path">
      <rect id="Rectangle_197" data-name="Rectangle 197" width="99.316" height="99.318" fill="none"/>
    </clipPath>
  </defs>
  <g id="mv-06" transform="translate(0 0)">
    <g id="Group_2281" data-name="Group 2281" transform="translate(0 0)" clip-path="url(#clip-path)">
      <path id="Path_5163" data-name="Path 5163" d="M25.79,99.317a10.428,10.428,0,0,1-10.116-7.944L.3,28.252A10.432,10.432,0,0,1,7.947,15.676L71.066.3A10.436,10.436,0,0,1,83.643,7.946L99.017,71.065a10.418,10.418,0,0,1-7.649,12.577L28.251,99.02a10.379,10.379,0,0,1-2.461.3M73.525,3.976a6.451,6.451,0,0,0-1.519.183L8.888,19.537A6.452,6.452,0,0,0,4.16,27.31L19.536,90.431a6.446,6.446,0,0,0,7.773,4.727L90.428,79.78a6.436,6.436,0,0,0,4.727-7.773L79.781,8.889a6.475,6.475,0,0,0-6.256-4.912" transform="translate(0 0)"/>
      <path id="Path_5164" data-name="Path 5164" d="M71.573,2.021a6.546,6.546,0,0,0-1.523.183L6.932,17.582A6.442,6.442,0,0,0,2.2,25.356L17.582,88.476A6.46,6.46,0,0,0,25.355,93.2L88.474,77.825A6.457,6.457,0,0,0,93.2,70.052L77.825,6.933a6.447,6.447,0,0,0-6.252-4.912" transform="translate(1.954 1.956)" fill="#fff"/>
      <path id="Path_5165" data-name="Path 5165" d="M17.319,59.6a.59.59,0,0,0-.179-.1,3.354,3.354,0,0,1-2.888-2.851A59.6,59.6,0,0,1,12.3,48.439a8.739,8.739,0,0,0-.75-2.506A13.548,13.548,0,0,1,10.393,38.4a13.155,13.155,0,0,1,3.075-6.051,30.232,30.232,0,0,1,4.594-4.192q7.07-5.8,14.127-11.621c.842-.694,1.674-1.4,2.5-2.117a12.324,12.324,0,0,1,8.1-2.837,7.717,7.717,0,0,1,2.833.765,13.439,13.439,0,0,0,4.491,1.023,7.167,7.167,0,0,1,5.835,3.508,3.117,3.117,0,0,1,.38,1.3.985.985,0,0,0,.531.826c4.011,2.349,8.036,4.678,12.012,7.084a8.385,8.385,0,0,1,3.769,9.85,6.02,6.02,0,0,1-1.91,2.734Q58.977,48.355,47.664,58.546c-3.754,3.362-7.617,6.6-11.485,9.834a27.8,27.8,0,0,1-4,2.742,9.971,9.971,0,0,1-2.961,1.058,7.712,7.712,0,0,1-8.394-4.11,50.1,50.1,0,0,1-3.5-8.469M55.7,20.512a4.711,4.711,0,0,1-2.339,2.337c-.942.541-1.875,1.1-2.778,1.7a6.8,6.8,0,0,0-3.35,6.5,6.7,6.7,0,0,1-.956,3.956,4.2,4.2,0,0,0-.346,3.846c.321.856.692,1.694,1.045,2.538.449,1.072.938,2.129,1.334,3.218a6.113,6.113,0,0,1,.372,1.853,3.609,3.609,0,0,1-5.988,3.041q-1.93-1.871-3.771-3.83a2.029,2.029,0,0,0-1.532-.753c-1.837-.057-2.058.031-2.774,1.731-.647,1.538-2.026,2.284-3.3,3.155a2.969,2.969,0,0,1-2.443.222A2.3,2.3,0,0,0,28.45,50a1.481,1.481,0,0,0-1.741,1.186c-.138.36-.216.742-.327,1.113a4.292,4.292,0,0,1-2.561,3.148c-.393.148-.767.356-1.167.49a1.953,1.953,0,0,0-1.43,1.54,2.63,2.63,0,0,1-1.145,1.591c-.246.179-.5.354-.789.565,1.243,2.725,2.408,5.4,3.687,8.026a4.112,4.112,0,0,0,3.755,2.481,16.9,16.9,0,0,0,2.319-.006,7.122,7.122,0,0,0,3.714-1.393c.549-.435,1-.988,1.532-1.45q6.389-5.542,12.793-11.07C53.847,50.41,60.622,44.616,67.36,38.776a14.537,14.537,0,0,0,2.209-2.534,5.755,5.755,0,0,0,1.108-3.891,5.381,5.381,0,0,0-2.577-4.47q-5.17-3.087-10.348-6.161c-.633-.376-1.269-.748-2.05-1.208m-3.624-3.179a11.418,11.418,0,0,0-1.993-1.117,23.719,23.719,0,0,0-2.886-.584c-.822-.161-1.651-.3-2.463-.508-.476-.118-.919-.362-1.387-.51a5.3,5.3,0,0,0-3.515.057c-.3.112-.683.567-.653.822a1.627,1.627,0,0,0,.694.95,1.229,1.229,0,0,0,.9.083,1.142,1.142,0,0,1,1.513.742,1.233,1.233,0,0,0,1.568.72,10.959,10.959,0,0,1,1.574-.1,7.071,7.071,0,0,1,4.83,1.489,4.153,4.153,0,0,0,.9.541.915.915,0,0,0,1.328-.622,2.039,2.039,0,0,0-.409-1.959M15,34.151c.049.055.1.112.15.167a2.246,2.246,0,0,0,.458-.238q8.159-6.946,16.31-13.908a3.1,3.1,0,0,0,.338-.393.115.115,0,0,0,.01-.092c-.01-.031-.043-.055-.153-.183C26.5,24.155,20.89,28.81,15.407,33.623a3.385,3.385,0,0,0-.407.527M35.495,16.272a.877.877,0,0,0-.222,1.289,1.124,1.124,0,0,0,1.6-.028.913.913,0,0,0,.028-1.32.96.96,0,0,0-1.409.059" transform="translate(9.913 11.207)"/>
      <path id="Path_5166" data-name="Path 5166" d="M43.141,30.062A11.733,11.733,0,0,0,39.983,33.7a9.187,9.187,0,0,1-2.007,2.14,14.712,14.712,0,0,1-3.864,2.906c-.439.2-.856.4-1.269.031-.378-.332-.264-.769-.142-1.182a1.631,1.631,0,0,1,.2-.486c.85-1.163,1.662-2.357,2.589-3.454a3.766,3.766,0,0,0,1.049-1.9,5.126,5.126,0,0,1,.222-.923,1.924,1.924,0,0,0-.193-1.9,1.713,1.713,0,0,1-.144-1.517q.263-1.13.423-2.28a2.118,2.118,0,0,0-.82-1.955c-.4-.346-.783-.7-1.149-1.08a2.241,2.241,0,0,1-.195-2.74.9.9,0,0,1,.972-.478,9.762,9.762,0,0,1,3.545.812,5.835,5.835,0,0,1,1.3.868,3.677,3.677,0,0,1,.7.791,4.827,4.827,0,0,0,3.152,2.264,2.256,2.256,0,0,1,.844.421,1.987,1.987,0,0,1,.907,2.093,4.183,4.183,0,0,1-1.068,2.254c-.122.128-.244.254-.378.37-.5.441-1.009.875-1.515,1.312" transform="translate(31.518 18.258)"/>
    </g>
  </g>
</svg>
