<svg xmlns="http://www.w3.org/2000/svg" xmlns:xlink="http://www.w3.org/1999/xlink" width="113.047" height="113.048" viewBox="0 0 113.047 113.048">
  <defs>
    <clipPath id="clip-path">
      <rect id="Rectangle_194" data-name="Rectangle 194" width="113.047" height="113.048" fill="none"/>
    </clipPath>
  </defs>
  <g id="mv-03" transform="translate(0 0)">
    <g id="Group_2276" data-name="Group 2276" transform="translate(0 0)" clip-path="url(#clip-path)">
      <path id="Path_5144" data-name="Path 5144" d="M24.9,2.021a7.973,7.973,0,0,0-7.778,6.373L2.175,82.941a7.961,7.961,0,0,0,6.219,9.335l74.546,14.943A7.945,7.945,0,0,0,92.276,101l14.943-74.546A7.961,7.961,0,0,0,101,17.118L26.456,2.175A8.031,8.031,0,0,0,24.9,2.021" transform="translate(1.826 1.827)" fill="#fff"/>
      <path id="Path_5145" data-name="Path 5145" d="M86.332,113.049a11.858,11.858,0,0,1-2.32-.232L9.465,97.873A11.792,11.792,0,0,1,.231,84.012L15.174,9.465A11.8,11.8,0,0,1,29.036.231l74.546,14.943a11.791,11.791,0,0,1,9.234,13.862L97.873,103.582a11.83,11.83,0,0,1-11.541,9.467M26.723,3.848a7.973,7.973,0,0,0-7.778,6.373L4,84.767A7.942,7.942,0,0,0,10.221,94.1l74.546,14.943a7.961,7.961,0,0,0,9.335-6.219l14.943-74.545a7.942,7.942,0,0,0-6.219-9.337L28.282,4a8.031,8.031,0,0,0-1.559-.154" transform="translate(0 0)"/>
      <path id="Path_5146" data-name="Path 5146" d="M54.074,18.569c-.287.135-.421.209-.562.263-1.89.708-3.792,1.382-5.667,2.124q-3.2,1.268-6.368,2.635c-2.9,1.26-5.8,2.526-8.669,3.872-1.57.739-3.072,1.624-4.586,2.478q-2.915,1.648-5.8,3.36c-1.279.76-2.537,1.557-3.786,2.368-.162.1-.211.385-.312.584a1.894,1.894,0,0,0,.653.206,1.85,1.85,0,0,0,.676-.287c2.016-1.1,4.039-2.182,6.042-3.3,1.513-.851,3.01-1.738,4.494-2.64a70.594,70.594,0,0,1,7.6-3.739c2.258-1.03,4.508-2.079,6.784-3.063C46.026,22.8,47.524,22.277,49,21.7s2.945-1.161,4.422-1.727q1.348-.52,2.715-.988a4.438,4.438,0,0,1,.91-.187,1.209,1.209,0,0,1,1.42.788c.516,1.365,1.058,2.722,1.5,4.11.291.921.135,1.119-.8,1.4-1.9.563-3.822,1.085-5.724,1.66a47.162,47.162,0,0,0-5.844,2.17c-2.431,1.1-4.938,2.029-7.4,3.048a6.11,6.11,0,0,0-1.5.746,31.042,31.042,0,0,1-4.477,2.463c-1.873,1.039-3.79,2-5.638,3.08-2.168,1.268-4.285,2.627-6.419,3.956a6.549,6.549,0,0,0-.661.531c.267.468.552.32.788.2.5-.244,1-.512,1.477-.794,1.953-1.144,3.885-2.328,5.857-3.436,2.084-1.173,4.2-2.282,6.31-3.406,1.5-.8,2.975-1.669,4.531-2.353,2.557-1.125,5.193-2.067,7.748-3.192a64.65,64.65,0,0,1,6.99-2.558c.855-.265,1.736-.444,2.734-.693a21.485,21.485,0,0,1-.773,13.287,21.809,21.809,0,0,1-8.387,10.38c.27.552.523,1.041.756,1.542,2.256,4.843,4.489,9.695,6.763,14.526,1.826,3.878,3.71,7.727,5.551,11.6q3.3,6.939,6.577,13.892c.3.64.24.992-.3,1.262a31.607,31.607,0,0,1-2.884,1.3c-.889.339-1.218.131-1.61-.716-1.344-2.9-2.667-5.815-4.058-8.7-3.187-6.6-6.427-13.171-9.607-19.773-1.239-2.574-2.368-5.2-3.558-7.8-.725-1.578-1.471-3.147-2.241-4.784q-14.894,4.389-25.066-7.494c-.312.223-.634.447-.952.68-1.047.769-1.81.605-2.606-.432A11.607,11.607,0,0,1,13.7,41.163a2.457,2.457,0,0,1,.959-2.715c.381-.314.786-.6,1.232-.929-1.94-6.223-.7-11.991,2.644-17.374a20.287,20.287,0,0,1,11.18-8.827,21.849,21.849,0,0,1,24.355,7.251M64.97,92.79l2.035-.963C60.556,78.148,54.139,64.545,47.688,50.864l-2.4,1.207c.9,1.846,1.746,3.607,2.617,5.353,1.329,2.669,2.724,5.3,4,8,2.077,4.374,4.057,8.8,6.126,13.175,1.6,3.4,3.276,6.762,4.925,10.137.638,1.308,1.291,2.61,2.01,4.06M43.222,50.47c1.213-.552,2.471-1.026,3.632-1.673A17.609,17.609,0,0,0,56.14,36.088a15.662,15.662,0,0,0,.082-4.917,5.506,5.506,0,0,0-.3-1.167.508.508,0,0,0-.417-.259.526.526,0,0,0-.327.371,3.4,3.4,0,0,0,.03.832A16.232,16.232,0,0,1,49.194,45.84a20.833,20.833,0,0,1-13.569,4.633,1.706,1.706,0,0,0-.642.019.714.714,0,0,0-.345.472c-.021.126.148.324.284.417a.842.842,0,0,0,.449.072,27.08,27.08,0,0,0,7.85-.984M24.967,17.6a4.673,4.673,0,0,0,.826-.27,23.494,23.494,0,0,1,10.228-2.81,21.611,21.611,0,0,1,7.552.756,6.605,6.605,0,0,1,3.741,2.282c.312.43.672.484.952.257a.662.662,0,0,0,0-.994,8.728,8.728,0,0,0-1.411-1.333,10.45,10.45,0,0,0-4.116-1.658,26.019,26.019,0,0,0-13.664.9,12.152,12.152,0,0,0-3.541,1.827c-.278.211-.649.392-.571,1.041M17.032,40.651,17,40.666c.278.653.543,1.313.845,1.957.135.289.286.737.721.5.373-.2.093-.535-.019-.813q-.437-1.074-.853-2.157c-.133-.346-.2-.721-.369-1.051-.074-.147-.312-.209-.474-.312-.082.177-.257.373-.227.529a12.415,12.415,0,0,0,.4,1.331M56.688,20.974c.238.891.447,1.669.7,2.608.657-.708.268-1.289.175-1.831A6.507,6.507,0,0,0,57.19,20.7l-.5.276M23.7,18.982c-.164-.518-.4-.63-.765-.512a.468.468,0,0,0-.367.632.693.693,0,0,0,.857.339c.162-.109.223-.364.276-.459" transform="translate(12.291 9.145)"/>
    </g>
  </g>
</svg>
