<svg xmlns="http://www.w3.org/2000/svg" xmlns:xlink="http://www.w3.org/1999/xlink" width="100.825" height="100.825" viewBox="0 0 100.825 100.825">
  <defs>
    <clipPath id="clip-path">
      <rect id="Rectangle_196" data-name="Rectangle 196" width="100.825" height="100.825" fill="none"/>
    </clipPath>
  </defs>
  <g id="mv-05" transform="translate(0 0)">
    <g id="Group_2279" data-name="Group 2279" transform="translate(0 0)" clip-path="url(#clip-path)">
      <path id="Path_5155" data-name="Path 5155" d="M71.895,100.825a10.287,10.287,0,0,1-2.971-.442L7.3,81.738A10.3,10.3,0,0,1,.442,68.924L19.088,7.3A10.3,10.3,0,0,1,31.9.442l61.62,18.646A10.3,10.3,0,0,1,100.383,31.9L81.737,93.522a10.332,10.332,0,0,1-9.842,7.3m-1.852-4.142a6.437,6.437,0,0,0,7.994-4.28l18.646-61.62a6.437,6.437,0,0,0-4.28-7.994L30.78,4.143a6.439,6.439,0,0,0-7.994,4.28L4.142,70.043a6.432,6.432,0,0,0,4.28,7.994Z" transform="translate(0 0)"/>
      <path id="Path_5156" data-name="Path 5156" d="M68.2,94.837a6.42,6.42,0,0,0,7.994-4.278L94.837,28.936a6.421,6.421,0,0,0-4.28-7.994L28.934,2.3a6.439,6.439,0,0,0-7.994,4.28L2.3,68.2a6.436,6.436,0,0,0,4.28,8Z" transform="translate(1.846 1.846)" fill="#fff"/>
      <path id="Path_5157" data-name="Path 5157" d="M30.812,51.952a13.254,13.254,0,0,1-8.149-18.975c-.777-.356-1.575-.677-2.329-1.077a13.451,13.451,0,0,1-7.271-8.836c-1.324-5.465.626-13.187,8.5-15.594A13.358,13.358,0,0,1,36.736,13.2a13.086,13.086,0,0,1,1.33,12.144c-.092.251-.2.5-.287.746a.523.523,0,0,0,.01.188c7.533,2.374,11.821,10.2,8.39,18.453,4.952,1.535,8.314,4.713,9.605,9.785s-.145,9.473-3.842,13.214c.218.457.429.9.643,1.347q2.907,5.975,5.82,11.949a1.757,1.757,0,0,1-.057,2.141c-1.205,1.343-2.327,1.322-3.467-.352A18.163,18.163,0,0,1,54,81.133q-2.839-5.284-5.685-10.562a2.263,2.263,0,0,0-.228-.285c-.323.1-.668.2-1.01.3A13.245,13.245,0,0,1,29.8,58.989a17.121,17.121,0,0,1,.855-6.494c.044-.159.09-.318.155-.543m7.037-32.024A12.2,12.2,0,0,0,22.1,8.975a10.905,10.905,0,0,0-7.96,9.016,11.964,11.964,0,0,0,2.864,9.772,11.662,11.662,0,0,0,9.425,4.225,11.22,11.22,0,0,0,11.417-12.06M32.777,52.191a11.011,11.011,0,0,0,2.579,13.964,11.778,11.778,0,0,0,18.629-4.362,11.491,11.491,0,0,0-7.83-15.324,1.237,1.237,0,0,0-1.512.519,12.79,12.79,0,0,1-7.053,4.787,14.072,14.072,0,0,1-4.814.417M49.249,69.7c1.114,2.195,2.168,4.267,3.216,6.341.959,1.9,1.894,3.811,2.882,5.7a3,3,0,0,0,.909,1.014c.689.48,1.341.113,1.351-.731a1.7,1.7,0,0,0-.212-.748q-3.037-5.9-6.092-11.784c-.132-.26-.287-.507-.465-.817L49.249,69.7m-4.63-30.761c-.061-.463-.124-.926-.18-1.387a11.927,11.927,0,0,0-1.9-4.791,2.943,2.943,0,0,0-.926-.884.742.742,0,0,0-.71.054c-.136.128-.1.469-.088.714.008.113.14.218.22.325a11.451,11.451,0,0,1,2.248,7.4,7.988,7.988,0,0,1-4.988,7,7.087,7.087,0,0,0-1.385.773.536.536,0,0,0-.136.513.836.836,0,0,0,.541.335,1.268,1.268,0,0,0,.561-.174c.341-.132.672-.295,1.018-.408a7.741,7.741,0,0,0,3.456-2.273,8.851,8.851,0,0,0,2.267-7.2m-6.2-8.713c-.046-.6-.339-.88-.873-.84-.652.05-.993.5-.953,1.248.034.651.344.959.911.905a1.109,1.109,0,0,0,.915-1.313" transform="translate(11.583 6.292)"/>
      <path id="Path_5158" data-name="Path 5158" d="M28.858,18.536a6.871,6.871,0,0,1-1.336,5.392,2.937,2.937,0,0,1-.293.4.593.593,0,0,1-.8.189.6.6,0,0,1-.212-.869c.264-.536.6-1.037.84-1.584a8.214,8.214,0,0,0-.26-7.508c-1.23-2.2-2.912-4.169-5.629-4.757a1.272,1.272,0,0,1-.455-.186.478.478,0,0,1,.063-.874,1.812,1.812,0,0,1,.961-.107,5.266,5.266,0,0,1,3.132,1.624,36.179,36.179,0,0,1,2.577,3.174,8.6,8.6,0,0,1,1.324,3.832c.054.394.055.8.084,1.269" transform="translate(18.689 7.867)"/>
      <path id="Path_5159" data-name="Path 5159" d="M19.126,8.4c.26.264.541.415.57.6.054.377-.3.528-.589.476a.712.712,0,0,1-.492-.459c-.017-.155.272-.344.511-.618" transform="translate(17.002 7.668)"/>
      <path id="Path_5160" data-name="Path 5160" d="M29.8,40.885a7.258,7.258,0,0,0-1.081.448,3.6,3.6,0,0,1-3.358.036.784.784,0,0,1-.432-.578c.008-.4.392-.381.687-.369s.6.067.894.092a2.5,2.5,0,0,0,1.722-.352,4.191,4.191,0,0,1,2.711-.419,1.445,1.445,0,0,1,1.108.765,3.268,3.268,0,0,0,.794.872c.419.3.729.18.966-.283a3.588,3.588,0,0,0,.239-.656,4.04,4.04,0,0,1,2.514-2.673,6.649,6.649,0,0,0,3.8-4.121c.253-.662.5-.894.85-.771s.427.453.174,1.129a8.093,8.093,0,0,1-4.328,4.854,3.083,3.083,0,0,0-1.934,2.132,4.338,4.338,0,0,1-.232.658,1.714,1.714,0,0,1-2.721.98,2.654,2.654,0,0,1-.974-.957,1.275,1.275,0,0,0-1.4-.786" transform="translate(22.768 30)"/>
      <path id="Path_5161" data-name="Path 5161" d="M31.57,29.615a1.278,1.278,0,0,1,1.69.235,9.144,9.144,0,0,1,2.315,3.435,1.633,1.633,0,0,1,.063.872c-.036.178-.295.442-.44.434-.21-.013-.566-.212-.589-.373-.254-1.711-1.456-2.778-2.566-3.915a5.227,5.227,0,0,1-.473-.689" transform="translate(28.835 26.85)"/>
      <path id="Path_5162" data-name="Path 5162" d="M31.231,28.883a.756.756,0,0,1-.629.9.523.523,0,0,1-.568-.541c-.031-.365.136-.7.517-.691.256.008.511.243.681.331" transform="translate(27.429 26.079)"/>
    </g>
  </g>
</svg>
