<svg xmlns="http://www.w3.org/2000/svg" xmlns:xlink="http://www.w3.org/1999/xlink" width="112.582" height="112.582" viewBox="0 0 112.582 112.582">
  <defs>
    <clipPath id="clip-path">
      <rect id="Rectangle_201" data-name="Rectangle 201" width="112.582" height="112.582" fill="none"/>
    </clipPath>
  </defs>
  <g id="mv-10" transform="translate(0 0)">
    <g id="Group_2289" data-name="Group 2289" transform="translate(0 0)" clip-path="url(#clip-path)">
      <path id="Path_5200" data-name="Path 5200" d="M36.064,112.582a11.029,11.029,0,0,1-10.256-7.05L.724,39.965A11,11,0,0,1,7.048,25.806L72.617.724A10.989,10.989,0,0,1,86.774,7.048l25.083,65.567a10.992,10.992,0,0,1-6.324,14.159L39.965,111.857a10.948,10.948,0,0,1-3.9.725M76.516,3.731a7.2,7.2,0,0,0-2.567.476L8.38,29.29a7.263,7.263,0,0,0-4.173,9.342L29.289,104.2a7.26,7.26,0,0,0,9.343,4.173L104.2,83.29a7.263,7.263,0,0,0,4.173-9.342L83.292,8.38a7.188,7.188,0,0,0-3.811-4.013,7.29,7.29,0,0,0-2.965-.636" transform="translate(0 0.001)"/>
      <path id="Path_5201" data-name="Path 5201" d="M74.691,1.9a7.2,7.2,0,0,0-2.567.476L6.554,27.464a7.263,7.263,0,0,0-4.173,9.342l25.081,65.571a7.266,7.266,0,0,0,9.343,4.173l65.571-25.085a7.244,7.244,0,0,0,4.173-9.342L81.467,6.554a7.188,7.188,0,0,0-3.811-4.013A7.29,7.29,0,0,0,74.691,1.9" transform="translate(1.826 1.827)" fill="#fff"/>
      <path id="Path_5202" data-name="Path 5202" d="M37.186,56.146c-.1.166-.186.284-.249.413C34.477,61.484,32,66.4,29.57,71.343c-2.374,4.829-4.684,9.692-7.05,14.525a3.653,3.653,0,0,1-2.509,2.005,2.762,2.762,0,0,1-3.327-3.31,6.88,6.88,0,0,1,.544-1.522C18,81.5,18.834,80,19.6,78.46Q23.315,71,27,63.527c1.475-3,2.916-6.014,4.373-9.024.125-.26.243-.525.384-.824-.646-.441-1.259-.838-1.853-1.265a24.908,24.908,0,0,1-8.94-11.376A22.2,22.2,0,0,1,30.833,13.37a25.781,25.781,0,0,1,19.615-2.493,31.661,31.661,0,0,1,5.581,2.1,17.31,17.31,0,0,1,5.536,4.207,23.182,23.182,0,0,1,6.482,14.606c.488,8.648-3.083,15.338-10.233,20.13a34.138,34.138,0,0,1-3.846,2.015.97.97,0,0,0-.6.574,3.872,3.872,0,0,1-2.9,2.377,21.036,21.036,0,0,1-9.7.135c-.917-.159-1.815-.429-2.724-.65-.28-.069-.56-.147-.856-.225M32.821,54.3c-.1.176-.194.315-.266.464-2.442,4.935-4.908,9.857-7.311,14.809-1.694,3.494-3.3,7.029-4.951,10.546q-.9,1.936-1.806,3.876a2,2,0,0,0-.041,1.906,1.512,1.512,0,0,0,2.685-.264c1.747-3.5,3.507-6.984,5.211-10.5,3.032-6.261,6.024-12.54,9.032-18.812.112-.231.2-.476.294-.705-1-.46-1.9-.881-2.847-1.318M27.729,17.554c-.141.121-.311.251-.462.4a20.777,20.777,0,0,0-6.253,12.769,2.574,2.574,0,0,0,1.414,2.922q2.021,1.058,4.075,2.05a1.017,1.017,0,0,1,.66.709,13.827,13.827,0,0,0,2.5,4.88,15.244,15.244,0,0,0,1.291,1.508.562.562,0,0,0,.517.09c.243-.116.186-.368.074-.578a1.533,1.533,0,0,0-.176-.235,23.028,23.028,0,0,1-2.428-3.684,10.988,10.988,0,0,1-1.375-5.213,15.765,15.765,0,0,1,2.025-7.9c.206-.36.413-.719.58-1.009a28.45,28.45,0,0,1-1.616-3.208,28.972,28.972,0,0,1-.826-3.5m34.013,2.233a22.339,22.339,0,0,0-3.106-3.306,9.283,9.283,0,0,0-1.494-1.189,30.42,30.42,0,0,0-8.351-3.241,2.323,2.323,0,0,0-2.452.664c-.084.09-.182.166-.27.251a17.287,17.287,0,0,0-2.71,3.382.84.84,0,0,1-.685.462,19.088,19.088,0,0,0-7.138,2.428A22.567,22.567,0,0,0,33.4,20.671a1.275,1.275,0,0,0-.3.313.2.2,0,0,0,.018.2c.065.057.186.118.249.094a2.168,2.168,0,0,0,.362-.243c.636-.417,1.246-.885,1.915-1.236a25.5,25.5,0,0,1,6.433-2.3,9.281,9.281,0,0,1,2.264-.219A18.109,18.109,0,0,1,55.661,21.67c.165.137.337.264.505.4a10.449,10.449,0,0,1,5.576-2.28M47.33,49.109a16.592,16.592,0,0,1,3.194.392,4.261,4.261,0,0,1,2.491,1.823c.215.347.427.7.658,1.071a22.035,22.035,0,0,0,5.938-3.739.956.956,0,0,0,.249-.354,6.1,6.1,0,0,0,.3-3.756A8.973,8.973,0,0,0,57.645,40.2a4.049,4.049,0,0,0-.413-.309c-.19.219-.351.4-.507.586a16.943,16.943,0,0,1-3.586,3.153,8.578,8.578,0,0,1-3.929,1.343,15.274,15.274,0,0,1-5.546-.507,11.5,11.5,0,0,1-6.083-3.4c-.106-.123-.317-.157-.658-.313a3.55,3.55,0,0,0,.268.883,6.326,6.326,0,0,0,.9,1.059,9.871,9.871,0,0,0,2.934,1.813,16.5,16.5,0,0,0,7.937,1.2c.186-.018.376-.014.636-.02a10.124,10.124,0,0,1-2.274,3.415m10.193-12.8c.118-.223.2-.349.251-.482a12.1,12.1,0,0,0,.93-6.051A9.563,9.563,0,0,0,55.164,23.2a.773.773,0,0,0-.938-.153,14.014,14.014,0,0,0-1.606.885,19.635,19.635,0,0,0-1.52,1.312,12.9,12.9,0,0,0-3.8-1.855,11.63,11.63,0,0,0-4.943-.5,9.658,9.658,0,0,0-1.49.394c-.182.057-.4.2-.247.431a.514.514,0,0,0,.435.114,13.8,13.8,0,0,1,1.437-.3,12.564,12.564,0,0,1,8.335,2.346,7.016,7.016,0,0,1,2.916,4.118A5.085,5.085,0,0,1,52.581,35a10.939,10.939,0,0,1-2.06,1.651,6.314,6.314,0,0,1-4.493,1.038c-.088-.016-.2.071-.294.11-.006.053-.01.1-.016.155a6.435,6.435,0,0,0,.654.2,4.889,4.889,0,0,0,2.536-.264,8.826,8.826,0,0,0,5.053-4.007,8.673,8.673,0,0,1,3.562,2.43M37.883,26.78c-.26.247-.46.415-.638.605a9.3,9.3,0,0,0-.333,12.109,1.207,1.207,0,0,0,1.089.46,8.027,8.027,0,0,0,5.258-2.2,5.68,5.68,0,0,0,.474-.611c-.372-.215-.68-.366-.958-.556a11.78,11.78,0,0,1-1.9-1.377,3.568,3.568,0,0,1-.807-4.2c.069-.153.141-.3.233-.5a6.033,6.033,0,0,1-2.421-3.733m4.15,23.532a19.629,19.629,0,0,1-8.5-4.354,5.224,5.224,0,0,1-3.1,1.514c-1.128.163-2.278.188-3.435.276a1.732,1.732,0,0,0,.178.249,24.387,24.387,0,0,0,8.264,5.787,1.8,1.8,0,0,0,.926.121,9.042,9.042,0,0,0,4.377-1.984,5.386,5.386,0,0,0,1.294-1.61M36.745,25.718a21.816,21.816,0,0,1-.513-2.518,20.329,20.329,0,0,1,.076-2.477c-.274.157-.509.276-.725.421A13.87,13.87,0,0,0,29.129,33.7a.892.892,0,0,0,.672.987c.87.253,1.729.544,2.6.772a4.291,4.291,0,0,0,1.009.016,10.764,10.764,0,0,1,3.331-9.761m8.3,6.2c.2.168.39.317.572.474.221.192.427.409.662.584a1.536,1.536,0,0,0,1.661.143,1.421,1.421,0,0,0,.715-1.5c-.544-2.16-1.847-3.22-4.31-2.828a3.96,3.96,0,0,0-2.4,1.7,2.894,2.894,0,0,0,.8,4.463,7.154,7.154,0,0,0,2.084-1.737c-.17-.468-.372-.895.213-1.3M62.034,21.858c-.172.36.112.6.257.856A21.946,21.946,0,0,1,65,36.417a15.045,15.045,0,0,1-2.73,7.3.825.825,0,0,0-.212.38.672.672,0,0,0,.141.507.558.558,0,0,0,.521-.014,2.387,2.387,0,0,0,.521-.611,13.7,13.7,0,0,0,2.045-4.935A24.442,24.442,0,0,0,63.937,24.95a27.459,27.459,0,0,0-1.3-2.638c-.116-.225-.219-.519-.6-.454M51.976,33.652c.787-1.6,1.14-3.008.11-4.457a8.553,8.553,0,0,0-1.465-1.831,3.964,3.964,0,0,0-1.7,1.518.681.681,0,0,0-.035.605,6.373,6.373,0,0,1,.848,2.577,4.039,4.039,0,0,1,2.24,1.588M40.321,41.93c.26.157.458.3.674.4A13.988,13.988,0,0,0,44.4,43.5,10.857,10.857,0,0,0,52.42,42.2a9.258,9.258,0,0,0,3.4-3.6c.116-.221.329-.456.025-.821a5.5,5.5,0,0,0-.435.55A9.773,9.773,0,0,1,52.6,41.5a10.357,10.357,0,0,1-8.8,1.4,26.567,26.567,0,0,1-2.748-1.048c-.208-.078-.413-.307-.725.084m-5.515,2.164-.151.112a2.165,2.165,0,0,0,.231.617,4.805,4.805,0,0,0,.83.826,15.358,15.358,0,0,0,8.317,3.008,6.771,6.771,0,0,0,1.318-.078c.1-.012.18-.19.27-.29-.106-.08-.208-.225-.315-.231-.392-.018-.785.047-1.173.016a14.713,14.713,0,0,1-8.689-3.562,5.682,5.682,0,0,0-.638-.417M45.677,55.727c.225.431.223.439.46.494a5.65,5.65,0,0,0,3.261-.233A4.269,4.269,0,0,0,51.5,54.44a2.637,2.637,0,0,0-.033-3.161,2.009,2.009,0,0,0-.429-.4.28.28,0,0,0-.264.027.322.322,0,0,0-.088.251.529.529,0,0,0,.131.257c.891,1.05.593,2.458-.625,3.417a4.881,4.881,0,0,1-3.744.985l-.774-.094m1.069-8.106c-.184.067-.36.078-.415.166s.023.247.041.374a1.233,1.233,0,0,0,.437-.106c.045-.029-.031-.241-.063-.435M61.691,21.179c-.078-.155-.125-.253-.174-.351l-.347.182c.055.092.09.233.168.264s.2-.049.353-.1m-5.019,15.8c-.061-.131-.086-.268-.139-.28a.888.888,0,0,0-.317.055.828.828,0,0,0,.161.272c.045.035.163-.022.3-.047" transform="translate(15.92 9.573)"/>
    </g>
  </g>
</svg>
