<svg xmlns="http://www.w3.org/2000/svg" xmlns:xlink="http://www.w3.org/1999/xlink" width="743.512" height="627.495" viewBox="0 0 743.512 627.495">
  <defs>
    <clipPath id="clip-path">
      <rect id="Rectangle_202" data-name="Rectangle 202" width="743.512" height="627.495" fill="none"/>
    </clipPath>
  </defs>
  <g id="mv" transform="translate(0 -0.005)">
    <g id="Group_2290" data-name="Group 2290" transform="translate(0 0.005)" clip-path="url(#clip-path)">
      <path id="Path_5203" data-name="Path 5203" d="M199.2,243.1c-2.5,6.683-8.734,9.369-15.243,6.976q-13.852-5.092-27.786-9.958c-5.46-1.9-10.347-4.937-15.475-7.495q-6.6-3.291-13.067-6.83c-3.866-2.128-5.877-5.743-6.672-9.881a55.677,55.677,0,0,1-.93-10.254,152.739,152.739,0,0,1,7.713-48.875c5.066-15.306,12.071-29.6,22.2-42.249a75.618,75.618,0,0,1,17.381-16.227,48.841,48.841,0,0,1,10.538-5.264c.528-.187,1.041-.417,1.739-.7-.19-.847-.359-1.627-.538-2.4-4.929-21.4-2.572-41.9,7.824-61.318a67.275,67.275,0,0,1,22.608-25.2A15.5,15.5,0,0,1,218.262.732c14.2.059,28.4,0,42.593.084a11,11,0,0,1,7.263,2.56c1.8,1.532,3.715,2.928,5.67,4.455.471-.627.853-1.145,1.246-1.655A13.765,13.765,0,0,1,286.4.314q24.374.037,48.748.1c23.225.053,46.451.161,69.677.12a20.108,20.108,0,0,1,11.02,2.685c3.342,2.042,6.938,3.67,10.512,5.527.315-.41.615-.782.9-1.168A16.165,16.165,0,0,1,439.687.529C446.64.135,453.628-.156,460.579.1c5.761.215,11.217,2.308,16.569,4.418,9.61,3.79,19.2,7.637,28.8,11.456.526.209,1.068.377,1.7.6.435-.646.848-1.241,1.244-1.848a9.475,9.475,0,0,1,8.248-4.567c16.74-.074,33.48-.068,50.221-.088,4.508,0,9.016,0,13.649,0,.158-.329.336-.68.5-1.038a12.577,12.577,0,0,1,9.661-7.558,47.474,47.474,0,0,1,8.039-.782c8.78-.086,17.562,0,26.343-.014,5.106-.011,9.09,1.915,11.513,6.546a31.285,31.285,0,0,1,1.3,3.452c.756.044,1.629.129,2.5.138q24.127.265,48.254.522c3.692.043,7.386.123,11.074.3a15.193,15.193,0,0,1,6.824,1.731c5.947,3.312,11.958,6.51,17.919,9.8a9.4,9.4,0,0,1,5.349,9.179c-.165,6.063.064,12.137.164,18.206a12.306,12.306,0,0,1-1.951,6.5,5.341,5.341,0,0,1-4.862,2.831,53.74,53.74,0,0,0-8.413.425,14.815,14.815,0,0,0,1.218.965c3.456,2.209,6.909,4.422,10.39,6.592a6.434,6.434,0,0,1,3.217,5.971c-.167,7.545-.316,15.09-.573,22.632-.13,3.842-2.815,6.444-6.716,6.759-1.868.151-3.738.269-5.8.415v4.977c1.9,1.269,3.943,2.778,6.123,4.06,3.11,1.831,4.305,4.683,4.376,8.031.13,6.149.117,12.3.063,18.453a6.491,6.491,0,0,1-3.51,5.8c-2.463,1.459-4.778,3.165-7.2,4.7-1.053.67-.9,1.642-.9,2.614q.008,8.982.016,17.964c.006,10.91.147,21.823-.033,32.73a44.537,44.537,0,0,1-5.773,21.4c-7.236,12.815-17.887,21.861-31.184,27.91a67.59,67.59,0,0,1-21.537,5.745c-1.7.166-3.429-.106-5.145-.1q-31.884.072-63.768.151c-6.072.006-12.144-.213-18.217-.253a15.446,15.446,0,0,1-7.663-2.366c-3.267-1.875-6.477-3.848-9.726-5.756-2.334-1.371-4.727-2.644-7.022-4.076a7.309,7.309,0,0,0-4.158-1.132q-26.588.3-53.177.5c-15.757.113-31.515.141-47.271.274a5.263,5.263,0,0,1-4.332-1.711c-2.564-2.751-5.321-5.322-7.981-7.95a4.113,4.113,0,0,0-.792.417c-9.515,8.791-20.935,13.983-33.23,17.463a134.508,134.508,0,0,1-47.289,4.416,130.4,130.4,0,0,1-36.648-8.005,95.783,95.783,0,0,1-19.062-10.156c-5.783-3.858-11.852-7.288-18.119-11.1-.125,1-.251,1.593-.267,2.189-.13,4.916-.138,9.838-.384,14.748-.278,5.567-3.36,9.281-8.317,11.495a14.976,14.976,0,0,1-6.208,1.281c-9.355-.019-18.71.055-28.065.088-1.626.006-3.253,0-4.878-.045-3.341-.082-6.119-1.577-8.8-3.418-5.478-3.76-11.011-7.44-16.523-11.151-.332-.223-.684-.419-1.172-.716M568.114,128.6a74.255,74.255,0,0,1,7.217-2.737,61.186,61.186,0,0,1,39.317,2.25,25.211,25.211,0,0,1,7.138,4.262,50.136,50.136,0,0,0,7.954,5.294c1.346.783,2.669,1.622,4.071,2.288a4.526,4.526,0,0,1,2.636,4.575c.011,8.778.089,17.555.05,26.333a19.941,19.941,0,0,1-2.752,10.346c-3.018,5.017-7.366,7.7-13.364,7.689-6.226-.012-12.456-.343-18.678.48a41.929,41.929,0,0,1-7.353-.086c-2.86-.133-5.713-.5-8.572-.545-6.482-.111-12.966-.077-19.45-.136-2.022-.019-4.043-.15-6.389-.243.307-1.089.487-1.857.74-2.6.633-1.861,1.4-3.683,1.934-5.57a59.684,59.684,0,0,0,1.237-25.141c-4.222-29-17.524-53.141-39.5-72.512a8.554,8.554,0,0,0-2.234-1.491,2.643,2.643,0,0,1-1.741-3.121,62.127,62.127,0,0,0-4.377-31.573,12.131,12.131,0,0,1-.424-2.056c7.613-1.066,14.988-.528,22.34-.565,7.386-.037,14.773.016,22.159.079,7.371.063,14.742.186,22.012.282.976,2.6.849,10.035-.148,12.06l-50.115-.405V71.968a37.31,37.31,0,0,1,17.5,15.119h86.843c.051,1,.11,1.731.121,2.459.065,4.428.222,8.859.129,13.284a3.266,3.266,0,0,0,2.286,3.577,17,17,0,0,0,3.739,1.164,51.833,51.833,0,0,0,8.08.558c4.009-.144,8.016-.559,12-1.024a96.28,96.28,0,0,0,25.451-6.39,2.821,2.821,0,0,0,2.114-3.076c-.084-2.785-.008-5.578.1-8.365.068-1.77.515-2.14,2.248-2.144q2.832-.006,5.662.074a5.653,5.653,0,0,0,5.824-4.23,12.036,12.036,0,0,0,.352-2.917c.053-5.824.065-11.648.079-17.472a11.228,11.228,0,0,0-.128-1.715,4.321,4.321,0,0,0-4.468-4c-.656-.028-1.312-.049-1.969-.053q-29.667-.168-59.336-.337c-.554,0-1.108-.1-1.737-.158a5.842,5.842,0,0,1-.38-1.471c.06-2.7.086-5.416.309-8.11.171-2.071.48-2.231,2.694-2.216q14.65.095,29.3.21c9.765.084,19.531.144,29.295.333a5.636,5.636,0,0,0,4.8-2.447,7.643,7.643,0,0,0,1.7-5.013c-.034-5.25,0-10.5-.018-15.751a34.072,34.072,0,0,0-.219-3.676c-.29-2.575-1.639-3.726-4.265-3.708-1.477.011-2.953.079-4.43.069q-28.806-.2-57.612-.417c-2.794-.019-2.831-.016-3.081-2.816-.346-3.878-4.479-7.744-8.306-7.734-10.422.028-20.844.1-31.265.09a13.412,13.412,0,0,0-7.623,2.387c-1.969,1.315-3.472,2.917-3.532,5.553-.039,1.735-.522,2-2.357,2.038-.492.011-.985,0-1.477-.006q-29.17-.486-58.341-.949a24.459,24.459,0,0,0-5.608.5c-4.333.962-5.8,3.056-5.742,7.488q.072,5.412-.072,10.824a2.41,2.41,0,0,1-.909,1.766c-.78.466-1.257-.3-1.715-.928-.913-1.261-1.869-2.495-2.883-3.675-10.588-12.33-24.048-20.1-39.426-24.86A24.826,24.826,0,0,0,457.8,2.757c-5,.059-10.015.057-15.015-.125a15.458,15.458,0,0,0-11.011,4.078,8.872,8.872,0,0,0-3.217,7.341c.141,8.938.007,17.881-.089,26.822-.171,15.913-.409,31.825-.556,47.738a4.852,4.852,0,0,0,.878,2.685,61.471,61.471,0,0,1,8.194,15.915c7.211,21.015,7.643,42.294,2.173,63.73-2.331,9.137-6,17.7-11.932,25.162a3.074,3.074,0,0,0-.516,1.795c-.02,7.054.039,14.109,0,21.163a8.683,8.683,0,0,0,1.321,4.656,11.818,11.818,0,0,0,10.831,6.011c16,.057,32.007.212,48.01.33,3.283.024,6.565.076,9.847.07,10.338-.019,20.679-.222,31.011,0a13.865,13.865,0,0,0,9.084-2.934,57.287,57.287,0,0,0,16.571-20.164,25.22,25.22,0,0,1,2.047-3.342,5.559,5.559,0,0,1,4.2-2.275c2.761-.233,4.652,1.659,4.188,4.38a23.99,23.99,0,0,1-1.429,4.946,49.814,49.814,0,0,1-17.063,21.5c-.593.439-1.217.845-1.76,1.338-2.562,2.326-2.29,5.633.675,7.4a8.293,8.293,0,0,0,2.984,1.04,34.117,34.117,0,0,0,4.906.305q34.224-.03,68.447-.1a36.307,36.307,0,0,0,4.659.078c5.036-.67,10.09-1.3,15.064-2.311a70.045,70.045,0,0,0,28.181-12.323c10.3-7.634,17.42-17.5,20.833-29.909a22.513,22.513,0,0,0,.8-5.808q.116-27.071.076-54.143A4.115,4.115,0,0,1,693,133.447a16.424,16.424,0,0,0,7.222-5.365,8.3,8.3,0,0,0,1.8-5.226c0-5.493.137-10.987.205-16.481.028-2.285-1.809-3.37-3.86-2.29-.36.19-.67.473-1.02.685-15.176,9.2-31.525,14.232-49.377,13.154-7.277-.439-14.218-2.483-19.775-7.7a40.592,40.592,0,0,0-11.526-7.441,67.653,67.653,0,0,0-29.994-5.508,59.586,59.586,0,0,0-25.808,6.411c-.834.431-1.623.949-2.432,1.427,4.259,6.811,5.294,9.338,9.674,23.489M387.892,57.167c1.029,0,1.917.007,2.805,0q6.031-.058,12.06-.125c6.028-.074,10.412-3.065,13.669-7.886a5.8,5.8,0,0,0,.826-2.991c.223-10.251.443-20.5.5-30.753.018-3.3-.548-6.58-3.435-8.837A12.283,12.283,0,0,0,406.6,3.8q-27.574-.091-55.147-.219c-21.581-.1-43.162-.3-64.742-.274a10.161,10.161,0,0,0-9.125,4.883C275.1,12.24,272.452,16.2,269.8,20.149c-6.124,9.127-12.236,18.263-18.479,27.309a5.321,5.321,0,0,0,1.052,7.234,11.907,11.907,0,0,0,7.729,2.691q38.406-.093,76.812-.16c3.939-.009,7.877-.1,11.816-.123a3.33,3.33,0,0,1,2.742.655c-4.37,3.62-8.591,7.116-12.812,10.611a5.032,5.032,0,0,0-1.325,6.909,17.972,17.972,0,0,0,5.534,6.164,82.18,82.18,0,0,1,30.549,37.36c4.145,9.962,5.777,20.352,3.974,31.078-2.062,12.268-8.108,22.07-18.754,28.758a45.941,45.941,0,0,1-22.611,6.788c-11.518.56-22.275-2.326-32.5-7.423a8,8,0,0,0-4.233-.875,37.978,37.978,0,0,1-5.9-.005c-3.332-.321-6.643-.855-9.516-1.24-1.57,1.372-3.036,2.564-4.4,3.861-6.844,6.494-13.62,13.061-20.515,19.5a7.962,7.962,0,0,0-2.438,7.354,12.544,12.544,0,0,0,4.114,7.4,89.31,89.31,0,0,0,10.009,8.338c21.826,15.528,46.105,21.379,72.527,17.23,33.2-5.213,58.363-22.636,75.131-51.686,12.39-21.464,16.006-44.629,10.751-68.885-4.508-20.811-15.18-38.081-31.549-51.761-2.578-2.155-5.3-4.136-7.977-6.175-1.149-.876-2.121-1.8-1.643-3.887M193.716,180.457h.123q0,25.961-.026,51.923a5.085,5.085,0,0,0,.96,3.213,14.654,14.654,0,0,0,11.684,6.317c7.053.195,14.114.138,21.171.173,2.872.014,5.749.1,8.615-.04a11.439,11.439,0,0,0,11.029-11.329q.159-36.912.28-73.825a3.808,3.808,0,0,0-1.349-3.207,34.2,34.2,0,0,1-7.983-10.821c-5.558-11.329-6.369-23.175-3.281-35.225a43.3,43.3,0,0,0-.489-24.247,41.388,41.388,0,0,1-1.655-15.29c1.219-19.284,13.939-42.963,28.669-53.7a13.068,13.068,0,0,0,2.886-2.982,4.979,4.979,0,0,0-.217-5.972,5.246,5.246,0,0,0-4.706-2.1c-13.7.067-27.409.152-41.112.033A11.817,11.817,0,0,0,210.6,5.849a73.385,73.385,0,0,0-25.583,35.935,82.738,82.738,0,0,0-2.528,45.592c.311,1.358.726,2.7.955,4.069.278,1.663-.079,2.239-1.617,2.837a64.349,64.349,0,0,0-21.54,14.39,107.582,107.582,0,0,0-21.114,29.764A153.475,153.475,0,0,0,124.383,189.2a113.038,113.038,0,0,0-.566,24.793c.446,4.343,2.686,7.768,6.935,9.341,3.37,1.248,6.865,2.163,10.319,3.176,7.16,2.1,14.339,4.132,21.489,6.266a7.09,7.09,0,0,0,5.68-.679,11.47,11.47,0,0,0,5.679-10.7c-.125-1.305-.271-2.61-.342-3.919a100.42,100.42,0,0,1,1.93-24.711c1.587-8.156,3.768-16.115,7.751-23.5a10,10,0,0,0,1.041-4.477c.111-9.186.079-18.373.106-27.56.008-2.789-.084-5.588.135-8.361a9.2,9.2,0,0,1,1.3-4.131c1.724-2.674,5.257-2.422,6.9.293a8.267,8.267,0,0,1,.983,4.493q-.025,25.47-.011,50.939m152.645-39.951c-3.986-.7-6.253.3-8.188,3.5-.466.772-.873,1.582-1.371,2.332a6.6,6.6,0,0,1-7.415,3.092c-3.194-.618-4.651-2.153-5.318-5.6-.094-.483-.221-.963-.27-1.451a4.813,4.813,0,0,0-4.365-4.6c-3.688-.661-7.184-1.7-9.719-4.849a7.187,7.187,0,0,0-.732.9,12.245,12.245,0,0,1-17.33,4.125,3.3,3.3,0,0,0-2.535-.349c-3.773.6-6.986-.388-9.3-3.616-.43-.6-.908-1.164-1.374-1.736-2.259-2.774-4.361-2.489-5.9.807a15.84,15.84,0,0,0-.625,1.6c-.5,1.475-.868,3-1.486,4.426-2.272,5.23-7.076,5.813-10.831,2.768a8.845,8.845,0,0,1-3.173-9.031c.981-5.282-1.554-9.567-6.8-11.425a36.6,36.6,0,0,0,.228,9.789c2.244,15.939,10.192,28.173,24.048,36.433,10.575,6.3,22.212,7.527,34.034,5.7,18.525-2.869,30.94-13.7,37.895-30.964a17.66,17.66,0,0,0,.526-1.852m279.223,20.281a26.159,26.159,0,0,0-25.639-26.43c-14.5-.16-26.726,11.669-26.946,25.825-.242,15.562,13.592,26.651,25.41,26.651,16.093,0,26.933-11.985,27.176-26.046M307.6,127.188a11.069,11.069,0,0,0-7.87-10.461,8.782,8.782,0,0,0-11.152,5.86c-1.27,4.228.04,8.015,2.705,11.232,2.262,2.732,7.4,3.554,10.74,2.169a9.267,9.267,0,0,0,5.577-8.8m12.648-32.475c-1.155-3.618-2.314-7.245-3.435-10.757a4.628,4.628,0,0,0-.692-.157c-1.065-.026-2.13-.029-3.195-.058-2.336-.065-2.622-.279-3.361-2.437-.417-1.217-.84-2.432-1.214-3.51l-11.13-.984-1.2,3.722c1.015-.065,1.734-.081,2.445-.164,1.871-.218,3.736-.486,5.608-.7,1.895-.213,2.286-.009,3,1.742a31.242,31.242,0,0,1,.945,3.04c.246.837.467,1.681.731,2.634a32.638,32.638,0,0,0,3.392-.021c2.063-.228,3.169.729,3.9,2.579,1.256,3.2,2.648,6.348,4.008,9.507a15.193,15.193,0,0,0,.863,1.535,1.945,1.945,0,0,0,.47,0c.52-.234,1.038-.471,1.55-.721,3.442-1.682,3.47-1.71,6.045,1.021a2.517,2.517,0,0,0,2.8.875,24.3,24.3,0,0,1,4.119-.661c2.027-.187,2.645.306,3.073,2.289.251,1.161.446,2.333.705,3.7l4.576-1.709c-.512-1.485-.992-2.7-1.341-3.949a2.036,2.036,0,0,0-2.072-1.708c-1.2-.05-2.406-.176-3.5-.26-.668-1.479-.473-3.121-1.771-4.127L329.668,97.9c-.332-.258-.58-.369-.7-.56a4.417,4.417,0,0,0-4.124-2.134,38.988,38.988,0,0,1-4.593-.492m-26.6-24.175c-6.418.218-12.1,1.907-19.146,5.66-12.9,6.866-21.823,17.113-26.26,31.068a64.07,64.07,0,0,0-1.77,9.377c-.139.878-.436,2.172,1.012,2.342s1.4-1.043,1.519-2.016c.05-.406.121-.81.176-1.216a42.021,42.021,0,0,1,3.515-12.989q12.75-25.929,41.471-29.6a22.928,22.928,0,0,0,2.908-.436,1.358,1.358,0,0,0,.859-.96,1.332,1.332,0,0,0-.866-.961,33.371,33.371,0,0,0-3.419-.267M624.86,145.3c-.157-2.074-1.018-3.616-3.008-5.723-7.715-8.172-17.229-11.552-28.286-9.83-20.661,3.218-33.66,26.37-20.748,46.555a28.77,28.77,0,0,0,10.36,9.615c.74.415,1.522,1.014,2.318.139-.059-.287-.037-.511-.133-.588a19.319,19.319,0,0,0-1.752-1.315,29.706,29.706,0,0,1-10.66-11.35c-5.353-10.222-4.883-20.358,1.6-29.793,6.417-9.346,15.893-12.889,26.975-11.93,8.876.768,15.941,5.155,21.522,12.012.6.739,1.211,1.472,1.816,2.208M351.536,126.842a37.553,37.553,0,0,1-5.4,18.072c-.171.279-.441.573-.444.862,0,.513,0,1.267.3,1.474a1.513,1.513,0,0,0,1.461-.245,12.325,12.325,0,0,0,1.78-2.632c6.405-12.569,6.879-25.418,1.548-38.435a40.722,40.722,0,0,0-3.757-6.3,5,5,0,0,0-1.618-1.469,1.444,1.444,0,0,0-1.317-.017,1.493,1.493,0,0,0-.312,1.28,4.33,4.33,0,0,0,.818,1.491c5.109,6.862,6.974,14.7,6.936,25.918m-6.472-16.88-.716.177a20.12,20.12,0,0,0,.122,2.3,31.07,31.07,0,0,1-.077,10.51c-.7,3.976-1.654,7.86-4.748,10.812a3.282,3.282,0,0,0-.773,1.481,1.352,1.352,0,0,0,1.5,1.876,3.2,3.2,0,0,0,1.893-.917,11.8,11.8,0,0,0,1.894-2.847c3.353-7.123,3.64-14.5,1.685-22.037a5.937,5.937,0,0,0-.779-1.359M626.5,148.72c.215.926.428,1.852.647,2.776a50.692,50.692,0,0,1,1.378,5.962c1.049,9.5-2.437,17.3-9.223,23.793-.828.791-1.767,1.467-2.581,2.271-.262.258-.287.756-.42,1.145l.405.373a23.686,23.686,0,0,0,2.114-1.39,30.917,30.917,0,0,0,10.124-14.5,26.554,26.554,0,0,0,.1-17.363c-.415-1.2-.773-2.495-2.547-3.064m-361.217-38.4a19.745,19.745,0,0,0,1.949-.457c3.066-1.1,6.115-2.249,9.187-3.331.858-.3,1.484-.69,1.4-1.7-.1-1.187-1.067-1.18-1.827-1.111-3.712.335-7.417.76-11.44,1.186.265,1.968.484,3.6.728,5.412m46.243,20.368c1.574-.513,1.358-1.518,1.392-2.343a16.3,16.3,0,0,0-12.661-16.284,11.554,11.554,0,0,0-6.07,0c-.366.118-.656.477-1.439,1.073,12.257-.17,18.676,5.316,18.779,17.558M297.471,98.382a17.106,17.106,0,0,1-3.931-.251c-2.921-.9-4.282-.548-6.207,2.051,1.16,1.772,1.231,1.88,2.732.89a4.1,4.1,0,0,1,4.557-.345c2.164,1.1,2.877.494,2.849-2.344m27.884,7.506a5.11,5.11,0,0,0,1.392,3.906,4.525,4.525,0,0,1,1.148,4.064c-.023.1.169.251.359.511l1.741-.145a6.92,6.92,0,0,0-.04-2.344c-.875-2.077-1.921-4.081-2.953-6.218l-1.647.227M286.492,87.313c-.271-1.676-.515-3.02-.7-4.372-.286-2.1-.879-2.353-2.9-1.092.334,2.149.676,4.345,1.075,6.9l2.527-1.44m37.5,39.395c-.943.621-1.965.936-2.049,1.415-.313,1.787-.958,3.615-.2,5.619l2.25-.152Zm-12.2-24.064c.184-1.693.418-3.136.442-4.583.006-.369-.619-.993-1.018-1.051a1.459,1.459,0,0,0-1.153.838c-.415,1.527-.658,3.1-.992,4.795ZM335.2,137.49l-.008-.784c-.547-.2-1.166-.664-1.63-.543a17.432,17.432,0,0,0-5.949,2.361c1.174.524,1.983,1.231,2.529,1.066a48.354,48.354,0,0,0,5.059-2.1M260.06,121.76c1.157,1.975,1.153,1.96,2.5,1.581.853-.241,1.731-.4,2.579-.653,1.309-.4,1.38-.657.643-2.541l-5.72,1.614m52.591-6.807q-.156.328-.312.656c.29.411.6,1.187.866,1.175,1.8-.08,3.676.447,5.875-.636-.723-.538-1.145-1.115-1.608-1.149-1.6-.118-3.213-.045-4.822-.045m27.495,1.76-.763-.37c-1.32.927-2.683,1.817-2.933,3.918l2.766.9.93-4.447M280.3,114.482c-1.635,1.7-2.888,5.075-2.414,6.463,1.367-.857,1.653-1.373,2.72-4.791.2-.624.473-1.236-.305-1.672m-5.41-22.328c.015-1.393-.626-1.763-1.527-1.82a1.047,1.047,0,0,0-1.256,1.112c-.037.925.809,2.077,1.472,1.837.575-.208,1-.843,1.311-1.129m55.759,31.466c-.828-.483-1.312-.972-1.806-.982-.333-.006-.679.665-1.018,1.033.455.389.86.931,1.385,1.1.249.08.727-.557,1.439-1.151m-75.6-13.428c1.061.987,1.668.573,2.075-.047.173-.263-.044-.782-.12-1.561l-1.955,1.607" transform="translate(-53.484 -0.005)"/>
      <path id="Path_5204" data-name="Path 5204" d="M771.18,256.491q12.064,0,24.128,0c3.583,0,4.425.575,5.248,4.129a50.517,50.517,0,0,1-.379,23.878,29.286,29.286,0,0,1-5.169,11.326,11.789,11.789,0,0,1-10.623,4.931c-8.354-.46-16.731-.482-25.1-.7-2.214-.058-4.426-.161-6.638-.262-5.238-.239-10.086-4.946-10.146-10.206-.11-9.76-.051-19.523.012-29.284.018-2.839.7-3.445,3.555-3.455,8.37-.032,16.74-.012,25.111-.012v-.343" transform="translate(-330.843 -114.299)"/>
      <path id="Path_5205" data-name="Path 5205" d="M743.17,121.976c0-8.28-.024-16.559.023-24.839a21,21,0,0,1,.5-4.376c.562-2.547,1.959-3.555,4.544-3.544a8.887,8.887,0,0,1,7.359,3.319,33.8,33.8,0,0,1,3.987,6.164,53.894,53.894,0,0,1,5.226,25.532c-.22,5.188,1.752,8.724,5.583,11.816,3.565,2.877,6.933,6.006,10.288,9.132a12.367,12.367,0,0,1,2.231,3.214c.886,1.639.257,2.613-1.658,2.787-.244.022-.492.009-.738.01q-15.746.057-31.492.1c-1.31,0-2.619-.125-3.93-.171a1.757,1.757,0,0,1-1.862-1.85c-.037-.49-.018-.983-.018-1.475q0-12.911,0-25.822h-.048" transform="translate(-331.165 -39.759)"/>
      <path id="Path_5206" data-name="Path 5206" d="M879.051,232.469c-.03,8.294-1.028,14.735-3.75,20.833a9.378,9.378,0,0,1-1.388,2.3,1.926,1.926,0,0,1-2.458.493,2.094,2.094,0,0,1-1.18-2.237,5.237,5.237,0,0,1,.379-1.419c4.119-10.284,4.413-20.936,2.915-31.716a93.99,93.99,0,0,0-14.254-37.662,112.3,112.3,0,0,0-15.345-19.792,12.238,12.238,0,0,1-1.827-2.3,1.413,1.413,0,0,1,.125-1.328,1.381,1.381,0,0,1,1.306-.261,15.682,15.682,0,0,1,2.939,2.175,97.663,97.663,0,0,1,13.437,15.973A120.939,120.939,0,0,1,877.121,217.8a71.386,71.386,0,0,1,1.93,14.669" transform="translate(-375.221 -70.991)"/>
      <path id="Path_5207" data-name="Path 5207" d="M1013.575,383.817c-1.419-.077-4.122-.192-6.822-.385-.963-.069-2.232-.157-2.058-1.524.166-1.316,1.368-1.131,2.369-1.046a72.634,72.634,0,0,0,29.627-3.224,57.81,57.81,0,0,0,27.723-19.984,39.976,39.976,0,0,0,6.2-11.677,27.832,27.832,0,0,0,1.486-11.366c-.106-1.3.011-2.452,1.267-3.206a1.767,1.767,0,0,1,2.89,1.042,4.908,4.908,0,0,1,.174,1.454c0,18.279-7.913,32.04-23.948,40.8-11.629,6.351-23.936,9.066-38.906,9.119" transform="translate(-447.7 -147.504)"/>
      <path id="Path_5208" data-name="Path 5208" d="M1097.665,31.16c9.353.441,16.066.753,22.779,1.083a3.826,3.826,0,0,1,1.417.274.855.855,0,0,1-.043,1.553,4.941,4.941,0,0,1-1.681.208q-18.2,0-36.394-.046c-1.47,0-2.943-.155-4.41-.3-.854-.087-1.709-.431-1.749-1.414-.047-1.146.907-1.467,1.832-1.594a15.808,15.808,0,0,1,2.453-.1c6.147.124,12.292.266,15.8.343" transform="translate(-480.186 -13.732)"/>
      <path id="Path_5209" data-name="Path 5209" d="M822.367,392.711c-1.23,0-2.463.049-3.689-.018-.76-.042-1.535-.322-1.533-1.26,0-.957.788-1.169,1.554-1.212,2.615-.145,5.259-.056,7.839-.427a31.546,31.546,0,0,0,8.326-1.974c2.56-1.141,4.748-3.143,7.039-4.849.98-.73,1.792-1.68,2.7-2.5a4.97,4.97,0,0,1,1.369-1.011c.393-.156,1.124-.171,1.325.069a1.98,1.98,0,0,1,.346,1.511,3.585,3.585,0,0,1-.9,1.431c-2.663,3.051-5.6,5.894-9.293,7.542a40.414,40.414,0,0,1-8.721,2.4,47.865,47.865,0,0,1-6.357.424c0-.04,0-.081-.007-.121" transform="translate(-364.132 -169.044)"/>
      <path id="Path_5210" data-name="Path 5210" d="M1002.661,14.576h-7.128c-.246,0-.532.094-.729,0-.541-.26-1.363-.5-1.5-.924-.292-.927.629-1.189,1.317-1.415a4.895,4.895,0,0,1,1.451-.214,94.518,94.518,0,0,1,17.387,1.046,6.338,6.338,0,0,1,5.207,3.967c.159.393-.14.969-.228,1.461-.4-.2-.95-.3-1.164-.623-1.739-2.626-4.41-3.269-7.262-3.4-2.446-.114-4.9-.024-7.353-.024,0,.043,0,.085,0,.128" transform="translate(-442.608 -5.352)"/>
      <path id="Path_5211" data-name="Path 5211" d="M1154.943,44.778c1.687-.009,1.707.956,1.751,1.709.155,2.608.224,5.222.306,7.834a13.935,13.935,0,0,1-.108,1.468c-.226,2.956-1.47,4.561-4.353,5.083a21.705,21.705,0,0,1-4.888.113c-.385-.019-.74-.675-1.108-1.037.355-.282.7-.581,1.073-.835.119-.081.321-.031.481-.06,4.225-.771,6.173-3.051,6.383-7.383.109-2.264.3-4.524.463-6.89" transform="translate(-510.917 -19.956)"/>
      <path id="Path_5212" data-name="Path 5212" d="M1128.653,319.717a2.18,2.18,0,0,1-.128,4.343,2.246,2.246,0,0,1-1.978-2.38,2.089,2.089,0,0,1,2.105-1.963" transform="translate(-502.004 -142.473)"/>
      <path id="Path_5213" data-name="Path 5213" d="M835.118,151.929c-.006,1.05-.29,1.773-1.341,1.807a1.317,1.317,0,0,1-1.462-1.319,1.5,1.5,0,0,1,1.437-1.663c.942-.125,1.292.475,1.366,1.175" transform="translate(-370.89 -67.174)"/>
      <path id="Path_5214" data-name="Path 5214" d="M604.639,196.721c.2,14.58-3.981,28-10.768,40.706-13.156,24.625-33.167,41.06-59.694,49.64a6.151,6.151,0,0,1-2.129.512,1.934,1.934,0,0,1-1.479-.925,1.824,1.824,0,0,1,.657-1.593,10.413,10.413,0,0,1,2.5-.991,106.657,106.657,0,0,0,35.7-20.307c16.908-14.743,26.834-33.129,29.337-55.6,2.979-26.735-4.779-50.022-21.6-70.616-1.92-2.35-3.926-4.629-5.85-6.974a9,9,0,0,1-1.432-2.269,1.721,1.721,0,0,1,.238-1.558,2.069,2.069,0,0,1,1.723-.459,6.826,6.826,0,0,1,2.492,1.514,111.019,111.019,0,0,1,8.372,8.64,95.335,95.335,0,0,1,21.935,60.276" transform="translate(-236.416 -56.257)"/>
      <path id="Path_5215" data-name="Path 5215" d="M483.2,17.513c-11.043,0-27.533,0-44.023-.006a28.507,28.507,0,0,1-3.192-.146c-.849-.1-1.671-.449-1.674-1.472s.785-1.4,1.66-1.46c1.143-.084,2.294-.1,3.44-.075,14.107.277,28.213.666,42.321.826,19.2.217,38.393.261,57.589.38a7.42,7.42,0,0,1,2.2.094,2.138,2.138,0,0,1,1.284,1.225c.2.815-.443,1.38-1.258,1.505a11.806,11.806,0,0,1-1.962.038c-16.979-.272-33.958-.547-56.383-.91" transform="translate(-193.537 -6.395)"/>
      <path id="Path_5216" data-name="Path 5216" d="M642.48,57.244q0-4.548,0-9.1c0-.328.008-.656.021-.983.031-.777.185-1.638,1.078-1.678,1.1-.05,1.241.906,1.208,1.755-.145,3.768-.323,7.534-.492,11.3-.114,2.539-.226,5.078-.355,7.616a5.323,5.323,0,0,1-.228,1.681,1.3,1.3,0,0,1-.965.54c-.212.022-.6-.33-.671-.582a5.314,5.314,0,0,1-.122-1.456c-.008-3.032,0-6.065,0-9.1h.529" transform="translate(-286.062 -20.271)"/>
      <path id="Path_5217" data-name="Path 5217" d="M642.871,27.509c0,.9.115,1.294-.025,1.542a8.557,8.557,0,0,1-1.009,1.233,6.06,6.06,0,0,1-1.271-1.2c-.227-.383-.1-.962-.183-1.445-.326-1.842-1-3.469-2.827-4.336-.91-.432-1.6-1.049-1.014-2.094a1.634,1.634,0,0,1,2.38-.485,7.42,7.42,0,0,1,2.234,1.815,9.562,9.562,0,0,1,1.716,4.967" transform="translate(-283.555 -9.104)"/>
      <path id="Path_5218" data-name="Path 5218" d="M337.059,322.5q-.19,15.733-.38,31.466c-.023,1.9-.416,2.67-1.38,2.75-1.075.089-1.55-.776-1.52-2.8q.448-29.992.9-59.984a36.208,36.208,0,0,1,.241-4.659,2.175,2.175,0,0,1,1.2-1.565c1.026-.2,1.307.78,1.411,1.612a17.928,17.928,0,0,1,.092,2.454q-.213,15.365-.443,30.731l-.128,0" transform="translate(-148.736 -128.197)"/>
      <path id="Path_5219" data-name="Path 5219" d="M323.354,419.777a1.3,1.3,0,0,1-.149,2.166,14.722,14.722,0,0,1-3.257,2.142,17.245,17.245,0,0,1-7.4,1.506c-.75-.028-1.382-.378-1.221-1.162a1.586,1.586,0,0,1,1.131-.994,16.619,16.619,0,0,0,10.027-3.469c.218-.175.606-.137.873-.19" transform="translate(-138.719 -187.062)"/>
      <path id="Path_5220" data-name="Path 5220" d="M299.514,428.13a1.443,1.443,0,0,1-1.573-1.482,1.356,1.356,0,0,1,1.482-1.316,1.513,1.513,0,0,1,1.714,1.378c.078.805-.668,1.432-1.623,1.42" transform="translate(-132.765 -189.537)"/>
      <path id="Path_5221" data-name="Path 5221" d="M389.224,282.6c1.086.68,1.979,1.176,2.806,1.766a44.948,44.948,0,0,0,27.229,8.581C432,292.786,443.248,288.8,452.1,279.2a10.493,10.493,0,0,1,1.593-1.187l.471.364c-.129.486-.115,1.1-.411,1.436a39.621,39.621,0,0,1-3.558,3.735c-7.177,6.355-15.7,9.691-25.107,10.91a49.292,49.292,0,0,1-24.18-2.907,33.2,33.2,0,0,1-10.539-6.21c-.62-.556-1.578-1.006-1.143-2.745" transform="translate(-173.395 -123.891)"/>
      <path id="Path_5222" data-name="Path 5222" d="M445.08,253.345c.767-.433,1.094-.63,1.433-.807,1.8-.936,3.6-1.893,5.421-2.784.458-.223,1.2-.487,1.506-.281.733.486.277,1.171-.147,1.679a7.975,7.975,0,0,1-6.721,2.92c-.356-.012-.7-.33-1.491-.728" transform="translate(-198.334 -111.139)"/>
      <path id="Path_5223" data-name="Path 5223" d="M981.384,252.688a11.935,11.935,0,0,1,.856,2.085c1.169,5.612,2.346,11.223,3.376,16.861a8.52,8.52,0,0,1-.259,3.854,4.456,4.456,0,0,1-5.262,3.345,4.85,4.85,0,0,1-3.331-5.359c.257-2.03.683-4.037,1.034-6.054.7-4.034,1.4-8.069,2.121-12.1.153-.849.431-1.675.651-2.512l.814-.12" transform="translate(-435.242 -112.604)" fill="#0768ab"/>
      <path id="Path_5224" data-name="Path 5224" d="M1011.36,287.041c-.415.445-.619.865-.927.965q-7.092,2.294-14.215,4.487a4.534,4.534,0,0,1-1.64-.163,3.546,3.546,0,0,1,.016-1.1,7.867,7.867,0,0,0,.267-5.031c-.332-1.317.113-1.756,1.491-1.782a4.332,4.332,0,0,1,.731.068c4.353.664,8.707,1.323,13.056,2.009a5.913,5.913,0,0,1,1.222.547" transform="translate(-443.181 -126.743)" fill="#d61518"/>
      <path id="Path_5225" data-name="Path 5225" d="M984.048,330.84c-.9.626-1.415,1.243-1.961,1.273-.388.022-1.088-.7-1.173-1.173a1.082,1.082,0,0,1,1.3-1.3c.516.085.96.606,1.831,1.2" transform="translate(-437.1 -146.887)"/>
      <path id="Path_5226" data-name="Path 5226" d="M942.664,288.14c-.55.569-.842,1.125-1.259,1.244-.737.211-1.227-.3-1.289-1.04s.339-1.319,1.108-1.219c.432.057.808.548,1.44,1.014" transform="translate(-418.927 -127.945)"/>
      <path id="Path_5227" data-name="Path 5227" d="M984.5,243.951c.436.567.966.983.9,1.223-.127.434-.614.763-.951,1.136-.348-.355-.943-.693-.971-1.072-.026-.349.561-.741,1.026-1.287" transform="translate(-438.252 -108.711)"/>
      <path id="Path_5228" data-name="Path 5228" d="M1029.75,289.39c-.655.389-1.068.8-1.51.832-.24.019-.818-.736-.739-.9a1.838,1.838,0,0,1,1.063-.934c.235-.058.625.507,1.185,1" transform="translate(-457.867 -128.51)"/>
      <path id="Path_5229" data-name="Path 5229" d="M248.891,156.368a34.192,34.192,0,0,1-7.983-10.821c-5.558-11.329-6.37-23.175-3.281-35.225a43.306,43.306,0,0,0-.488-24.247,41.4,41.4,0,0,1-1.656-15.291c1.219-19.284,13.939-42.962,28.669-53.7a13.072,13.072,0,0,0,2.887-2.983,4.977,4.977,0,0,0-.217-5.971,5.244,5.244,0,0,0-4.706-2.1c-13.7.067-27.409.152-41.112.033a11.815,11.815,0,0,0-7.719,2.469A73.384,73.384,0,0,0,187.7,44.471a82.727,82.727,0,0,0-2.528,45.592c.311,1.358.726,2.7.955,4.069.278,1.663-.079,2.24-1.617,2.837a64.364,64.364,0,0,0-21.541,14.39,107.583,107.583,0,0,0-21.113,29.765,153.461,153.461,0,0,0-14.787,50.762,113.037,113.037,0,0,0-.566,24.793c.446,4.342,2.686,7.767,6.935,9.341,3.37,1.248,6.865,2.163,10.319,3.176,7.16,2.1,14.339,4.131,21.489,6.266a7.088,7.088,0,0,0,5.68-.679,11.471,11.471,0,0,0,5.68-10.7c-.125-1.306-.271-2.611-.342-3.919a100.447,100.447,0,0,1,1.93-24.711c1.587-8.156,3.767-16.115,7.751-23.5a10,10,0,0,0,1.041-4.477c.111-9.186.079-18.373.106-27.56.008-2.789-.084-5.588.135-8.361a9.206,9.206,0,0,1,1.3-4.131c1.724-2.674,5.257-2.422,6.9.293a8.267,8.267,0,0,1,.983,4.493q-.025,25.47-.011,50.939h.123q0,25.962-.026,51.924a5.078,5.078,0,0,0,.96,3.213,14.653,14.653,0,0,0,11.683,6.317c7.053.195,14.114.137,21.171.173,2.872.014,5.749.1,8.615-.04A11.44,11.44,0,0,0,249.96,233.4q.159-36.912.28-73.825a3.809,3.809,0,0,0-1.349-3.207m-25.969,84.916a1.443,1.443,0,0,1-1.573-1.482,1.355,1.355,0,0,1,1.481-1.316,1.512,1.512,0,0,1,1.714,1.378c.078.806-.668,1.433-1.623,1.42m17.736-3.712a14.709,14.709,0,0,1-3.256,2.143,17.244,17.244,0,0,1-7.4,1.506c-.75-.029-1.382-.378-1.221-1.163a1.586,1.586,0,0,1,1.131-.993,16.616,16.616,0,0,0,10.027-3.469c.218-.175.606-.136.873-.189a1.294,1.294,0,0,1-.149,2.165M244.623,197l-.128,0q-.19,15.733-.38,31.466c-.023,1.9-.416,2.67-1.38,2.75-1.075.09-1.55-.776-1.52-2.8q.448-29.993.9-59.984a36.2,36.2,0,0,1,.241-4.659,2.174,2.174,0,0,1,1.2-1.566c1.026-.2,1.307.781,1.411,1.612a17.834,17.834,0,0,1,.092,2.453q-.212,15.366-.443,30.731" transform="translate(-56.172 -2.692)" fill="#00a23e"/>
      <path id="Path_5230" data-name="Path 5230" d="M946.258,58.969c-.656-.028-1.312-.049-1.969-.053q-29.667-.168-59.336-.337c-.554,0-1.108-.1-1.737-.157a5.848,5.848,0,0,1-.38-1.471c.06-2.7.086-5.416.309-8.11.171-2.071.48-2.231,2.694-2.216q14.65.094,29.3.21c9.765.084,19.531.144,29.3.333a5.635,5.635,0,0,0,4.8-2.446,7.644,7.644,0,0,0,1.7-5.013c-.034-5.249,0-10.5-.017-15.75a34.209,34.209,0,0,0-.219-3.676c-.29-2.575-1.639-3.726-4.265-3.708-1.476.01-2.953.079-4.43.069q-28.806-.2-57.612-.417c-2.794-.019-2.831-.016-3.081-2.816-.346-3.878-4.479-7.744-8.306-7.734-10.422.028-20.843.1-31.265.09a13.408,13.408,0,0,0-7.623,2.387c-1.969,1.314-3.472,2.917-3.533,5.552-.039,1.736-.522,2-2.357,2.039-.492.011-.985,0-1.478-.007q-29.17-.486-58.341-.949a24.427,24.427,0,0,0-5.608.505c-4.333.962-5.8,3.056-5.742,7.488q.072,5.412-.072,10.824a2.411,2.411,0,0,1-.909,1.766c-.78.465-1.257-.3-1.715-.929-.912-1.261-1.869-2.494-2.883-3.675-10.588-12.33-24.048-20.1-39.426-24.86a24.842,24.842,0,0,0-7.745-1.047c-5,.058-10.015.057-15.015-.125A15.458,15.458,0,0,0,678.28,8.812a8.873,8.873,0,0,0-3.217,7.341c.141,8.938.007,17.881-.089,26.822-.171,15.913-.409,31.824-.556,47.738A4.851,4.851,0,0,0,675.3,93.4a61.461,61.461,0,0,1,8.194,15.916c7.211,21.015,7.643,42.294,2.173,63.73-2.331,9.137-6,17.7-11.932,25.162a3.075,3.075,0,0,0-.516,1.795c-.02,7.055.039,14.109,0,21.163a8.68,8.68,0,0,0,1.321,4.656,11.819,11.819,0,0,0,10.831,6.011c16,.057,32.007.212,48.01.33,3.283.024,6.565.075,9.847.07,10.338-.019,20.679-.222,31.011,0a13.872,13.872,0,0,0,9.084-2.934,57.29,57.29,0,0,0,16.571-20.164,25.307,25.307,0,0,1,2.047-3.342,5.562,5.562,0,0,1,4.2-2.275c2.761-.233,4.652,1.66,4.188,4.38a23.971,23.971,0,0,1-1.429,4.945,49.816,49.816,0,0,1-17.063,21.5c-.593.439-1.217.845-1.76,1.338-2.562,2.326-2.29,5.632.675,7.4a8.3,8.3,0,0,0,2.984,1.039,33.956,33.956,0,0,0,4.906.305q34.224-.03,68.447-.1a36.2,36.2,0,0,0,4.659.078c5.036-.67,10.09-1.3,15.064-2.311a70.06,70.06,0,0,0,28.181-12.323c10.3-7.635,17.42-17.5,20.833-29.909a22.52,22.52,0,0,0,.8-5.808q.116-27.071.076-54.143a4.114,4.114,0,0,1,2.822-4.357,16.432,16.432,0,0,0,7.222-5.365,8.3,8.3,0,0,0,1.8-5.226c0-5.494.137-10.987.205-16.481.028-2.285-1.809-3.371-3.86-2.29-.36.19-.67.473-1.02.685-15.176,9.2-31.525,14.232-49.377,13.155-7.277-.439-14.218-2.484-19.775-7.7a40.59,40.59,0,0,0-11.526-7.44,67.66,67.66,0,0,0-29.994-5.508,59.588,59.588,0,0,0-25.808,6.411c-.834.431-1.623.95-2.432,1.427,4.259,6.812,5.294,9.338,9.675,23.489a74.4,74.4,0,0,1,7.217-2.736,61.178,61.178,0,0,1,39.317,2.25,25.209,25.209,0,0,1,7.138,4.262,50.136,50.136,0,0,0,7.954,5.294c1.346.784,2.669,1.622,4.071,2.288a4.526,4.526,0,0,1,2.636,4.575c.011,8.778.089,17.556.05,26.333a19.939,19.939,0,0,1-2.752,10.345c-3.018,5.018-7.366,7.7-13.364,7.689-6.226-.013-12.456-.343-18.678.48a41.876,41.876,0,0,1-7.353-.086c-2.86-.133-5.712-.5-8.572-.544-6.482-.112-12.966-.077-19.45-.136-2.022-.019-4.043-.15-6.389-.243.307-1.089.487-1.857.74-2.6.633-1.861,1.4-3.683,1.934-5.57a59.68,59.68,0,0,0,1.237-25.141c-4.222-29-17.523-53.142-39.5-72.512a8.569,8.569,0,0,0-2.234-1.492,2.643,2.643,0,0,1-1.741-3.121A62.125,62.125,0,0,0,762.5,48.465a12.144,12.144,0,0,1-.424-2.056c7.613-1.066,14.988-.528,22.34-.564,7.386-.037,14.773.016,22.159.079,7.371.063,14.742.187,22.012.283.976,2.6.849,10.035-.149,12.06l-50.115-.405V74.072a37.306,37.306,0,0,1,17.5,15.118h86.844c.05,1,.109,1.731.12,2.459.066,4.428.222,8.859.13,13.285a3.266,3.266,0,0,0,2.286,3.577,17.012,17.012,0,0,0,3.739,1.164,51.766,51.766,0,0,0,8.08.558c4.009-.144,8.016-.559,12-1.024a96.259,96.259,0,0,0,25.451-6.39,2.82,2.82,0,0,0,2.114-3.076c-.084-2.785-.008-5.579.1-8.365.068-1.77.515-2.14,2.248-2.144q2.832-.006,5.662.074a5.653,5.653,0,0,0,5.824-4.231,12.012,12.012,0,0,0,.352-2.917c.053-5.824.065-11.648.079-17.472a11.228,11.228,0,0,0-.128-1.715,4.322,4.322,0,0,0-4.468-4m-2.239-32.04c1.688-.008,1.706.956,1.751,1.71.155,2.608.225,5.222.305,7.833a13.968,13.968,0,0,1-.108,1.468c-.226,2.956-1.47,4.561-4.352,5.083a21.7,21.7,0,0,1-4.888.113c-.386-.019-.74-.675-1.109-1.037.356-.282.7-.582,1.073-.836.119-.081.321-.031.482-.06,4.225-.77,6.173-3.051,6.382-7.383.109-2.264.3-4.523.463-6.89m-44.8-7.633a15.818,15.818,0,0,1,2.453-.1c6.146.124,12.292.266,15.8.344,9.353.441,16.066.753,22.779,1.082a3.815,3.815,0,0,1,1.417.275.855.855,0,0,1-.043,1.553,4.972,4.972,0,0,1-1.682.208q-18.2,0-36.393-.046c-1.471,0-2.944-.155-4.41-.3-.854-.087-1.709-.431-1.75-1.414-.047-1.146.907-1.467,1.831-1.594m27.421,160.056a2.18,2.18,0,0,1-.129,4.343,2.246,2.246,0,0,1-1.977-2.38,2.089,2.089,0,0,1,2.106-1.963m-69.655,57.16c.167-1.316,1.368-1.131,2.369-1.046a72.643,72.643,0,0,0,29.627-3.224,57.808,57.808,0,0,0,27.723-19.984,39.957,39.957,0,0,0,6.2-11.677,27.817,27.817,0,0,0,1.485-11.366c-.105-1.3.012-2.451,1.268-3.205a1.767,1.767,0,0,1,2.889,1.043,4.9,4.9,0,0,1,.174,1.454c0,18.279-7.913,32.04-23.948,40.8-11.63,6.352-23.936,9.066-38.906,9.119-1.419-.077-4.123-.192-6.822-.386-.963-.069-2.232-.156-2.059-1.523M712.021,59.486a21.035,21.035,0,0,1,.5-4.376c.562-2.547,1.96-3.554,4.545-3.545a8.889,8.889,0,0,1,7.359,3.319,33.762,33.762,0,0,1,3.987,6.164,53.884,53.884,0,0,1,5.226,25.532c-.22,5.188,1.752,8.724,5.583,11.816,3.565,2.877,6.933,6.006,10.288,9.132a12.369,12.369,0,0,1,2.231,3.214c.887,1.639.257,2.613-1.658,2.787-.245.022-.492.009-.738.01q-15.747.057-31.492.1c-1.309,0-2.619-.125-3.93-.171a1.758,1.758,0,0,1-1.862-1.85c-.037-.49-.018-.983-.018-1.475q0-12.912,0-25.823H712c0-8.28-.024-16.559.023-24.839M783.509,214.1a3.586,3.586,0,0,1-.9,1.431c-2.663,3.051-5.6,5.894-9.293,7.542a40.414,40.414,0,0,1-8.721,2.4,47.866,47.866,0,0,1-6.357.424c0-.04-.005-.081-.007-.121-1.23,0-2.463.049-3.689-.018-.76-.041-1.535-.321-1.533-1.26,0-.957.788-1.169,1.555-1.211,2.615-.145,5.259-.056,7.839-.427a31.546,31.546,0,0,0,8.326-1.974c2.56-1.141,4.748-3.143,7.039-4.849.98-.73,1.792-1.68,2.7-2.5a4.941,4.941,0,0,1,1.369-1.011c.392-.156,1.123-.171,1.325.069a1.98,1.98,0,0,1,.346,1.511M767.04,90.756a1.38,1.38,0,0,1,1.306-.26,15.676,15.676,0,0,1,2.939,2.175,97.676,97.676,0,0,1,13.437,15.974,120.92,120.92,0,0,1,17.17,40.272,71.362,71.362,0,0,1,1.93,14.669c-.031,8.294-1.029,14.735-3.75,20.833a9.37,9.37,0,0,1-1.388,2.3,1.925,1.925,0,0,1-2.458.493,2.094,2.094,0,0,1-1.18-2.237,5.226,5.226,0,0,1,.379-1.419c4.119-10.284,4.413-20.936,2.915-31.716a93.988,93.988,0,0,0-14.254-37.662,112.275,112.275,0,0,0-15.344-19.792,12.211,12.211,0,0,1-1.827-2.3,1.412,1.412,0,0,1,.125-1.329m2.666,57.674a50.516,50.516,0,0,1-.379,23.878,29.29,29.29,0,0,1-5.169,11.326,11.789,11.789,0,0,1-10.623,4.931c-8.354-.46-16.732-.482-25.1-.7-2.214-.058-4.426-.161-6.638-.262-5.238-.24-10.086-4.947-10.145-10.206-.11-9.761-.052-19.523.012-29.285.018-2.839.7-3.444,3.554-3.455,8.37-.032,16.74-.011,25.111-.011V144.3q12.065,0,24.128,0c3.583,0,4.425.575,5.248,4.129m-6.851-62.741c.941-.125,1.292.475,1.365,1.175-.006,1.05-.289,1.773-1.34,1.807a1.317,1.317,0,0,1-1.463-1.319,1.5,1.5,0,0,1,1.438-1.663M875.827,15.252c-.4-.2-.95-.3-1.164-.624-1.739-2.626-4.41-3.269-7.262-3.4-2.446-.113-4.9-.023-7.354-.023v.128h-7.128c-.246,0-.532.094-.729,0-.541-.259-1.363-.5-1.5-.924-.292-.928.629-1.189,1.316-1.415a4.917,4.917,0,0,1,1.451-.215,94.523,94.523,0,0,1,17.388,1.046,6.339,6.339,0,0,1,5.207,3.966c.158.393-.14.97-.228,1.461" transform="translate(-299.993 -2.108)" fill="#00a23e"/>
      <path id="Path_5231" data-name="Path 5231" d="M533.823,121.644c-4.508-20.81-15.18-38.081-31.549-51.761-2.578-2.154-5.3-4.136-7.977-6.175-1.15-.876-2.121-1.8-1.643-3.887,1.029,0,1.917.007,2.805,0q6.03-.057,12.06-.124c6.028-.073,10.413-3.065,13.67-7.886a5.812,5.812,0,0,0,.826-2.991c.223-10.25.443-20.5.5-30.753.017-3.3-.548-6.579-3.435-8.836a12.289,12.289,0,0,0-7.712-2.774q-27.573-.089-55.146-.218c-21.581-.1-43.162-.3-64.743-.274a10.161,10.161,0,0,0-9.125,4.882c-2.494,4.049-5.137,8.008-7.787,11.958-6.124,9.127-12.236,18.263-18.478,27.309a5.321,5.321,0,0,0,1.051,7.234,11.909,11.909,0,0,0,7.729,2.692q38.406-.094,76.811-.161c3.939-.009,7.877-.1,11.816-.123a3.331,3.331,0,0,1,2.743.655c-4.37,3.62-8.591,7.116-12.812,10.611A5.032,5.032,0,0,0,442.1,77.93a17.984,17.984,0,0,0,5.534,6.164,82.176,82.176,0,0,1,30.549,37.359c4.145,9.962,5.777,20.353,3.974,31.078-2.062,12.269-8.109,22.07-18.755,28.758a45.94,45.94,0,0,1-22.611,6.788c-11.518.56-22.275-2.326-32.5-7.424a8,8,0,0,0-4.233-.875,37.978,37.978,0,0,1-5.9-.006c-3.332-.32-6.643-.855-9.515-1.24-1.571,1.372-3.036,2.565-4.4,3.862-6.844,6.494-13.619,13.061-20.515,19.5a7.961,7.961,0,0,0-2.438,7.354,12.543,12.543,0,0,0,4.114,7.4,89.364,89.364,0,0,0,10.009,8.338c21.826,15.528,46.106,21.379,72.527,17.23,33.2-5.213,58.363-22.636,75.132-51.686,12.389-21.465,16.006-44.629,10.751-68.885M516.971,29.629c-.145,3.768-.323,7.535-.492,11.3-.114,2.539-.226,5.078-.355,7.616a5.319,5.319,0,0,1-.228,1.68,1.3,1.3,0,0,1-.965.541c-.212.021-.6-.329-.671-.582a5.316,5.316,0,0,1-.121-1.456c-.009-3.032,0-6.064,0-9.1h.529q0-4.55,0-9.1c0-.328.008-.656.021-.983.031-.777.185-1.638,1.078-1.678,1.1-.05,1.241.906,1.208,1.755m-5.739-14.863a1.634,1.634,0,0,1,2.38-.485,7.423,7.423,0,0,1,2.234,1.816,9.561,9.561,0,0,1,1.716,4.967c0,.9.115,1.293-.025,1.542a8.584,8.584,0,0,1-1.009,1.233,6.063,6.063,0,0,1-1.271-1.2c-.227-.382-.1-.962-.183-1.444-.327-1.842-1-3.47-2.827-4.337-.91-.432-1.6-1.049-1.014-2.094m-63.321-.99c-11.043,0-27.533,0-44.023-.006a28.64,28.64,0,0,1-3.192-.146c-.849-.1-1.671-.45-1.674-1.472s.785-1.4,1.66-1.46c1.143-.084,2.294-.1,3.441-.075,14.107.277,28.213.666,42.321.826,19.2.218,38.393.261,57.589.38a7.438,7.438,0,0,1,2.2.095,2.137,2.137,0,0,1,1.285,1.225c.2.815-.443,1.38-1.258,1.505a11.866,11.866,0,0,1-1.962.039c-16.979-.272-33.958-.548-56.383-.911M515.7,183.829c-13.156,24.625-33.167,41.061-59.694,49.64a6.163,6.163,0,0,1-2.13.513,1.934,1.934,0,0,1-1.478-.925,1.823,1.823,0,0,1,.657-1.593,10.435,10.435,0,0,1,2.5-.99,106.673,106.673,0,0,0,35.7-20.307c16.908-14.743,26.834-33.13,29.338-55.6,2.979-26.735-4.779-50.022-21.6-70.617-1.919-2.35-3.926-4.629-5.85-6.974a9,9,0,0,1-1.431-2.268,1.724,1.724,0,0,1,.237-1.559,2.072,2.072,0,0,1,1.724-.459,6.832,6.832,0,0,1,2.491,1.514,111.029,111.029,0,0,1,8.372,8.64,95.341,95.341,0,0,1,21.935,60.276c.2,14.58-3.982,28-10.768,40.706" transform="translate(-158.245 -2.659)" fill="#00a23e"/>
      <path id="Path_5232" data-name="Path 5232" d="M964.043,242.349c-14.5-.16-26.726,11.669-26.947,25.825-.241,15.561,13.592,26.651,25.411,26.65,16.093,0,26.932-11.984,27.175-26.046a26.158,26.158,0,0,0-25.639-26.43m-23.982,27.086c-.737.211-1.227-.3-1.289-1.039s.339-1.32,1.108-1.219c.433.057.808.549,1.44,1.014-.551.569-.843,1.125-1.259,1.244m23.774-26.2c.436.567.966.983.9,1.224-.128.434-.614.762-.95,1.135-.348-.355-.943-.692-.971-1.071-.025-.348.561-.741,1.026-1.287m-1.266,49.987c-.389.022-1.088-.7-1.173-1.172a1.082,1.082,0,0,1,1.3-1.3c.517.085.96.606,1.832,1.2-.9.626-1.416,1.243-1.961,1.273M967.7,270.88a4.457,4.457,0,0,1-5.262,3.345,4.851,4.851,0,0,1-3.331-5.359c.257-2.029.683-4.036,1.034-6.054.7-4.034,1.4-8.07,2.121-12.1.153-.849.431-1.675.651-2.512l.814-.12a12,12,0,0,1,.856,2.085c1.169,5.611,2.346,11.223,3.376,16.861a8.521,8.521,0,0,1-.26,3.854m19.52-2.074a1.832,1.832,0,0,1,1.063-.934c.234-.058.624.507,1.185,1-.655.389-1.067.8-1.509.832-.241.019-.818-.736-.739-.9m-1.457-.512c-.415.445-.619.865-.927.965q-7.092,2.294-14.216,4.487a4.533,4.533,0,0,1-1.64-.163,3.546,3.546,0,0,1,.016-1.1,7.867,7.867,0,0,0,.267-5.031c-.332-1.317.113-1.756,1.491-1.783a4.387,4.387,0,0,1,.731.069c4.353.664,8.707,1.323,13.056,2.009a5.9,5.9,0,0,1,1.223.547" transform="translate(-417.583 -107.996)" fill="#fff"/>
      <path id="Path_5233" data-name="Path 5233" d="M377.9,265.208c10.576,6.3,22.211,7.526,34.034,5.7,18.525-2.869,30.94-13.7,37.894-30.963a17.408,17.408,0,0,0,.526-1.853c-3.985-.695-6.254.3-8.188,3.5-.466.772-.873,1.582-1.37,2.332a6.6,6.6,0,0,1-7.415,3.091c-3.194-.618-4.651-2.153-5.318-5.6-.093-.483-.22-.963-.269-1.45a4.813,4.813,0,0,0-4.365-4.6c-3.688-.661-7.184-1.7-9.72-4.849a7.185,7.185,0,0,0-.732.9,12.246,12.246,0,0,1-17.33,4.125,3.3,3.3,0,0,0-2.535-.349c-3.773.6-6.986-.388-9.3-3.616-.43-.6-.908-1.164-1.374-1.736-2.259-2.774-4.361-2.489-5.9.807a15.83,15.83,0,0,0-.625,1.6c-.5,1.475-.869,3-1.486,4.426-2.272,5.23-7.076,5.813-10.83,2.768a8.844,8.844,0,0,1-3.173-9.031c.981-5.282-1.554-9.567-6.8-11.425a36.6,36.6,0,0,0,.227,9.789c2.245,15.939,10.192,28.173,24.048,36.433m27.756-26.223c1.8-.936,3.6-1.893,5.421-2.784.458-.223,1.2-.487,1.506-.281.732.486.277,1.171-.147,1.678a7.975,7.975,0,0,1-6.721,2.921c-.356-.012-.7-.33-1.491-.728.767-.433,1.094-.63,1.433-.807M373.3,256.3c1.085.68,1.979,1.176,2.806,1.766a44.948,44.948,0,0,0,27.229,8.581c12.738-.161,23.989-4.147,32.838-13.743a10.491,10.491,0,0,1,1.593-1.187l.471.364c-.129.486-.115,1.1-.411,1.436a39.62,39.62,0,0,1-3.557,3.735c-7.177,6.355-15.7,9.691-25.107,10.91a49.292,49.292,0,0,1-24.18-2.907,33.2,33.2,0,0,1-10.539-6.21c-.62-.556-1.578-1.006-1.143-2.745" transform="translate(-157.475 -97.586)" fill="#fff9bb"/>
      <path id="Path_5234" data-name="Path 5234" d="M482.3,161.562c-1.2-.05-2.406-.176-3.5-.26-.668-1.479-.473-3.122-1.771-4.127l-5.891,2.463c-.332-.258-.58-.369-.7-.561a4.416,4.416,0,0,0-4.124-2.133,39,39,0,0,1-4.593-.493c-1.155-3.617-2.314-7.245-3.435-10.757a4.7,4.7,0,0,0-.692-.157c-1.065-.026-2.13-.028-3.195-.058-2.336-.065-2.622-.279-3.361-2.436-.416-1.217-.84-2.432-1.214-3.51l-11.13-.985-1.2,3.722c1.015-.066,1.734-.081,2.445-.165,1.871-.218,3.736-.486,5.608-.7,1.895-.213,2.286-.009,3,1.742a31.239,31.239,0,0,1,.945,3.04c.246.837.467,1.681.731,2.635a32.644,32.644,0,0,0,3.392-.02c2.063-.228,3.169.729,3.9,2.579,1.256,3.2,2.648,6.347,4.008,9.506a15.146,15.146,0,0,0,.863,1.536,1.929,1.929,0,0,0,.47,0c.52-.233,1.038-.471,1.55-.721,3.442-1.682,3.47-1.71,6.045,1.021a2.517,2.517,0,0,0,2.8.875,24.246,24.246,0,0,1,4.119-.661c2.027-.187,2.645.305,3.073,2.289.251,1.161.446,2.333.705,3.7l4.576-1.709c-.512-1.485-.992-2.7-1.341-3.949a2.036,2.036,0,0,0-2.072-1.708" transform="translate(-194.948 -61.741)" fill="#fff9bb"/>
      <path id="Path_5235" data-name="Path 5235" d="M467.787,209.162c1.8-.08,3.676.447,5.875-.636-.723-.538-1.145-1.115-1.607-1.149-1.6-.117-3.213-.045-4.822-.045l-.312.656c.289.411.6,1.186.866,1.174" transform="translate(-208.067 -92.383)" fill="#f096a2"/>
      <path id="Path_5236" data-name="Path 5236" d="M413.8,147.021c.335,2.149.676,4.345,1.075,6.9l2.527-1.44c-.271-1.676-.515-3.02-.7-4.372-.286-2.1-.879-2.353-2.9-1.092" transform="translate(-184.397 -65.177)" fill="#f096a2"/>
      <path id="Path_5237" data-name="Path 5237" d="M463.167,174.982a1.458,1.458,0,0,0-1.152.838c-.415,1.527-.658,3.1-.992,4.795h2.721c.184-1.693.417-3.136.442-4.583.006-.369-.619-.993-1.018-1.051" transform="translate(-205.439 -77.976)" fill="#f096a2"/>
      <path id="Path_5238" data-name="Path 5238" d="M392.591,189.882c.858-.3,1.484-.69,1.4-1.7-.1-1.187-1.067-1.18-1.827-1.111-3.712.335-7.417.76-11.44,1.186.264,1.968.484,3.6.728,5.412a19.813,19.813,0,0,0,1.949-.457c3.066-1.1,6.114-2.25,9.187-3.332" transform="translate(-169.658 -83.354)" fill="#f096a2"/>
      <path id="Path_5239" data-name="Path 5239" d="M407.409,208.17c.2-.624.473-1.236-.305-1.672-1.635,1.7-2.888,5.075-2.414,6.463,1.367-.857,1.653-1.373,2.72-4.791" transform="translate(-180.29 -92.021)" fill="#f096a2"/>
      <path id="Path_5240" data-name="Path 5240" d="M424.548,179.586a4.1,4.1,0,0,1,4.557-.345c2.163,1.1,2.877.494,2.849-2.344a17.1,17.1,0,0,1-3.931-.251c-2.92-.9-4.281-.548-6.207,2.051,1.159,1.772,1.231,1.88,2.732.89" transform="translate(-187.967 -78.52)" fill="#f096a2"/>
      <path id="Path_5241" data-name="Path 5241" d="M395.82,165.885c.575-.208,1-.843,1.31-1.129.016-1.393-.625-1.764-1.526-1.82a1.047,1.047,0,0,0-1.256,1.112c-.037.925.809,2.077,1.472,1.837" transform="translate(-175.727 -72.608)" fill="#f096a2"/>
      <path id="Path_5242" data-name="Path 5242" d="M375.118,219.91c.853-.241,1.731-.4,2.579-.653,1.309-.4,1.381-.657.643-2.541l-5.72,1.614c1.157,1.974,1.153,1.96,2.5,1.581" transform="translate(-166.045 -96.575)" fill="#f096a2"/>
      <path id="Path_5243" data-name="Path 5243" d="M365.657,197.422c.173-.263-.044-.782-.121-1.561l-1.954,1.608c1.061.987,1.668.573,2.075-.047" transform="translate(-162.017 -87.281)" fill="#f096a2"/>
      <path id="Path_5244" data-name="Path 5244" d="M514.109,210.227l-.763-.37c-1.319.927-2.683,1.816-2.932,3.918l2.765.9c.351-1.679.641-3.062.93-4.447" transform="translate(-227.448 -93.518)" fill="#f096a2"/>
      <path id="Path_5245" data-name="Path 5245" d="M492.029,190.588l-1.647.227a5.108,5.108,0,0,0,1.392,3.906,4.527,4.527,0,0,1,1.148,4.064c-.023.1.169.251.359.511l1.741-.145a6.92,6.92,0,0,0-.04-2.344c-.875-2.076-1.922-4.081-2.953-6.218" transform="translate(-218.512 -84.932)" fill="#f096a2"/>
      <path id="Path_5246" data-name="Path 5246" d="M483.8,229.967c-.313,1.787-.958,3.615-.2,5.619l2.25-.152v-6.882c-.944.622-1.965.936-2.049,1.415" transform="translate(-215.34 -101.849)" fill="#f096a2"/>
      <path id="Path_5247" data-name="Path 5247" d="M497.008,249.017a48.516,48.516,0,0,0,5.059-2.1l-.008-.784c-.548-.2-1.166-.665-1.63-.543a17.453,17.453,0,0,0-5.949,2.361c1.174.524,1.984,1.231,2.529,1.066" transform="translate(-220.347 -109.432)" fill="#f096a2"/>
      <path id="Path_5248" data-name="Path 5248" d="M494.852,222.244c.455.389.86.931,1.386,1.1.248.08.727-.557,1.438-1.151-.828-.483-1.312-.972-1.805-.981-.333-.006-.679.665-1.019,1.033" transform="translate(-220.513 -98.578)" fill="#f096a2"/>
      <path id="Path_5249" data-name="Path 5249" d="M451.752,218.085A16.3,16.3,0,0,0,439.091,201.8a11.554,11.554,0,0,0-6.07,0c-.366.118-.656.476-1.439,1.073,12.257-.17,18.676,5.315,18.779,17.558,1.574-.513,1.358-1.518,1.392-2.343" transform="translate(-192.319 -89.745)" fill="#fff"/>
      <path id="Path_5250" data-name="Path 5250" d="M516.22,225.505a3.2,3.2,0,0,0,1.892-.916,11.787,11.787,0,0,0,1.895-2.847c3.353-7.122,3.64-14.5,1.685-22.036a5.934,5.934,0,0,0-.779-1.359l-.716.177a20,20,0,0,0,.121,2.3,31.067,31.067,0,0,1-.076,10.509c-.7,3.976-1.654,7.861-4.748,10.812a3.291,3.291,0,0,0-.773,1.481,1.352,1.352,0,0,0,1.5,1.876" transform="translate(-229.333 -88.389)" fill="#fff"/>
      <path id="Path_5251" data-name="Path 5251" d="M395.706,129.857a22.839,22.839,0,0,0,2.909-.436,1.359,1.359,0,0,0,.859-.96,1.334,1.334,0,0,0-.866-.961,33.371,33.371,0,0,0-3.419-.267c-6.418.218-12.1,1.907-19.146,5.66-12.9,6.866-21.823,17.113-26.26,31.068a64.075,64.075,0,0,0-1.77,9.377c-.139.878-.436,2.172,1.012,2.342s1.4-1.043,1.519-2.016c.05-.406.121-.81.176-1.216a42,42,0,0,1,3.516-12.989q12.749-25.93,41.47-29.6" transform="translate(-155.025 -56.7)" fill="#fff"/>
      <path id="Path_5252" data-name="Path 5252" d="M525.53,224.546c0,.513,0,1.267.3,1.474a1.516,1.516,0,0,0,1.461-.245,12.319,12.319,0,0,0,1.78-2.632c6.406-12.57,6.88-25.418,1.548-38.435a40.729,40.729,0,0,0-3.757-6.3,5.007,5.007,0,0,0-1.618-1.469,1.444,1.444,0,0,0-1.317-.017,1.493,1.493,0,0,0-.312,1.28,4.313,4.313,0,0,0,.818,1.49c5.108,6.863,6.973,14.7,6.936,25.919a37.55,37.55,0,0,1-5.4,18.072c-.17.279-.441.573-.443.862" transform="translate(-233.317 -78.775)" fill="#fff"/>
      <path id="Path_5253" data-name="Path 5253" d="M1018.208,300.79c-.827.792-1.766,1.467-2.58,2.271-.261.259-.287.757-.42,1.145l.405.374a23.619,23.619,0,0,0,2.114-1.39,30.925,30.925,0,0,0,10.124-14.5,26.556,26.556,0,0,0,.1-17.363c-.415-1.2-.773-2.495-2.547-3.064.215.925.428,1.851.647,2.776a50.593,50.593,0,0,1,1.378,5.962c1.05,9.5-2.437,17.3-9.223,23.793" transform="translate(-452.392 -119.543)" fill="#fff"/>
      <path id="Path_5254" data-name="Path 5254" d="M953.38,233.69c-20.661,3.218-33.66,26.37-20.749,46.554a28.779,28.779,0,0,0,10.361,9.615c.74.415,1.521,1.014,2.317.139-.059-.287-.037-.511-.133-.588a19.259,19.259,0,0,0-1.752-1.315,29.718,29.718,0,0,1-10.66-11.35c-5.352-10.222-4.883-20.358,1.6-29.793,6.417-9.346,15.893-12.89,26.975-11.93,8.875.768,15.94,5.155,21.522,12.012.6.739,1.211,1.472,1.816,2.208-.157-2.074-1.017-3.616-3.007-5.723-7.715-8.172-17.229-11.552-28.287-9.83" transform="translate(-413.298 -103.944)" fill="#fff"/>
      <path id="Path_5255" data-name="Path 5255" d="M611.03,762.584A132.165,132.165,0,0,1,502.756,706.84l-.011.011c-.078-.13-.157-.238-.235-.362-.369-.526-.746-1.046-1.108-1.578l-.087-.126a16.023,16.023,0,0,0-1.459-1.628l-.015.011a10.244,10.244,0,0,0-6.819-3.093h-.045a7.79,7.79,0,0,0-1.179.1c-1.538.3-4.377,1.4-7.279,5.379l0-.014a133.019,133.019,0,0,1-218.342.041l-.007.008a13.478,13.478,0,0,0-3.786-3.966l-.165-.111c-.322-.209-.628-.386-.908-.532-.24-.121-.48-.241-.725-.338-.1-.043-.2-.081-.289-.115a7.817,7.817,0,0,0-2.607-.455h-.044a9.336,9.336,0,0,0-5.371,1.9,18.134,18.134,0,0,0-3.694,3.938l-.008-.012a132.147,132.147,0,0,1-108.936,56.687C67.067,762.584,8.028,704.676,8.028,633.5S67.067,504.414,139.635,504.414a132.142,132.142,0,0,1,109.28,57.177h.009a13.425,13.425,0,0,0,1.892,2.246l.008-.006a11.383,11.383,0,0,0,4.681,2.791l.023.007a8.609,8.609,0,0,0,.881.184c.062.009.121.024.183.033a8.09,8.09,0,0,0,.862.064c.079,0,.154.014.235.014a8.364,8.364,0,0,0,5.215-1.9s1.379-.763,4.374-5.2l.009.012A133.033,133.033,0,0,1,484.967,562.1a10.8,10.8,0,0,0,6.987,4.738,7.864,7.864,0,0,0,1.023.088h.045a9.465,9.465,0,0,0,5.573-2.038h0a9.537,9.537,0,0,0,.792-.644l.065-.059a19.262,19.262,0,0,0,2.417-2.759c.247-.359.5-.713.75-1.069.133-.2.224-.345.224-.345h.018A132.17,132.17,0,0,1,611.03,504.414c72.568,0,131.607,57.907,131.607,129.085S683.6,762.584,611.03,762.584" transform="translate(-3.577 -224.777)" fill="#ed8599"/>
      <path id="Path_5256" data-name="Path 5256" d="M1141.119,625.806h0c-11.224-60.358-63.5-73.321-87.111-76.09-35-3.251-73.428,2.9-97.143,7.915-28.806,6.779-53.925,13.46-54,13.481l-3.146.664h0l-.1.022c-.8.176-6.214,1.646-4.173,8.912L898,589.8h0l.192.682c.521,1.469,2.38,4.712,8.453,3.421.493-.106.986-.21,1.48-.317q6.292-1.373,12.583-2.757v.005l.078-.022,22.755-4.986c5.852-1.282,11.707-2.546,17.555-3.84,19.532-3.266,43.052-5.667,63.275-3.431l0-.012c.179.018.342.045.519.065.576.066,1.145.14,1.716.214a81.835,81.835,0,0,1,26.03,7.216l.016-.012s.4.19,1.1.567a50.539,50.539,0,0,1,15.152,11.539c10,10.442,18.611,27.6,5.354,51.356a63.46,63.46,0,0,1-6.539,9.683c-7.9,9.657-17.746,16.844-28.794,22.451-3.214,1.632-6.473,3.106-9.767,4.447-1.324.493-32.636,11.967-77.259,11.967-.49-.007-.97.037-1.454.056l-.013-.037s-8.357-.145-12.988,2.565-3.073,8.985-2.064,11.991c1.175,3.581,2.452,7.128,3.667,10.7,2.05,6.016,4.078,12.039,6.142,18.05l0,.008,2.65,8.038s2.534,6.643,16.455,6.643c6.6.117,13.2.028,19.8.028a204,204,0,0,0,33.088-1.846,190.767,190.767,0,0,0,49.962-13.532c18.588-7.983,35.159-18.886,48.744-34.028,15.124-16.858,24.188-36.45,26.123-59.1a85.557,85.557,0,0,0-.892-21.763" transform="translate(-398.819 -244.559)"/>
      <path id="Path_5257" data-name="Path 5257" d="M709.4,626.2c-5.4-12.01-13.633-21.824-23.7-30.184a115.022,115.022,0,0,0-35.153-19.638c-10.043-3.592-20.312-6.312-31.053-6.855a3.871,3.871,0,0,1-2.418-1.082,9.353,9.353,0,0,1-1.908-3.151c-1.84-5.122-3.574-10.283-5.324-15.437a7.555,7.555,0,0,0-4.42-4.847,11.9,11.9,0,0,0-7.155-.677c-7.279,1.6-14.54,3.285-21.794,4.994a16.788,16.788,0,0,0-4.009,1.406,6.652,6.652,0,0,0-3.261,8.276c1.253,3.995,2.514,7.988,3.72,12a5.612,5.612,0,0,1-3.374,7.154,20.448,20.448,0,0,1-2.144.711q-12.039,3.586-24.083,7.157c-.7.208-1.423.358-2.341.586-.293-1.042-.538-1.912-.782-2.782q-4.886-17.415-9.783-34.828a18.721,18.721,0,0,0-4.2-8.193,7.8,7.8,0,0,0-5.949-2.787c-2.344.044-4.689.022-7.035.032-9.64.043-19.281.043-28.921.174a16.325,16.325,0,0,0-5.143.951,7.432,7.432,0,0,0-4.613,9.149c3.2,10.143,6.44,20.271,9.644,30.411,1.791,5.667,3.656,11.314,5.268,17.032,1.122,3.98-.371,6.41-4.334,7.66q-6.586,2.078-13.21,4.036a6.689,6.689,0,0,0-4.72,8.37c1.052,3.79,2.142,7.571,3.319,11.324a5.249,5.249,0,0,0,6.232,3.815,15.294,15.294,0,0,0,1.954-.47c4.505-1.3,9-2.627,13.515-3.9a14.553,14.553,0,0,1,2.953-.518c1.93-.131,2.782.451,3.337,2.29.458,1.522.781,3.085,1.179,4.625q7.135,27.626,14.268,55.251h0l.334,1.3q2.759,10.687,5.519,21.373l5.8,22.719c.009.044.016.089.024.134l1.456,5.676s0,.011.005.016l.382,1.5s2.594,10.372,11.629,10.372a17.179,17.179,0,0,0,4.861-1.018c9.578-3.04,19.121-6.187,28.705-9.208,9.61-3.067,7.54-11.364,7.54-11.364L565.134,675.4q-8.472-31.322-16.941-62.645c-.229-.848-.381-1.716-.568-2.572.757-.278,1.218-.477,1.7-.619q14.151-4.2,28.31-8.381c2.222-.526,25.855-5.868,43.228.262a54.3,54.3,0,0,1,16.56,9.639,37.868,37.868,0,0,1,12.133,17.85c3.058,9.748.327,19.1-7.009,25.274-2.6,2.037-10.791,7.24-26.836,7.509-1.1.032-2.193.064-3.289.1l0-.007-9.973.323c-2.012.173-7.01,1.346-7.067,8.747v0c0,.013,0,.024,0,.037,0,.32,0,.641,0,.961v.388q-.116,17.615-.239,35.231c.047,11.61,12.948,12.6,12.948,12.6,1.745.259,3.5.487,5.25.643a118.635,118.635,0,0,0,49.327-5.714c13.1-4.471,24.911-11.13,34.667-21.125,18.4-18.847,22.852-43.728,12.065-67.711" transform="translate(-208.076 -239.753)"/>
      <path id="Path_5258" data-name="Path 5258" d="M378.667,592.693c4.1.151,8.2.383,12.308.43,4.789.054,9.338,3.935,10.444,8.634,2.415,10.265,5.107,20.466,7.472,30.742a15.876,15.876,0,0,1-.134,6.456c-.649,3.261-3.253,5.243-6.667,5.492-1.751.128-3.517.055-5.276.054-5.949-.007-11.9.136-17.846-.075-7.331-.26-12.636-4.615-13.913-11.667-1.759-9.715-4.06-19.331-6.055-29a19.343,19.343,0,0,1-.325-4.731,6.042,6.042,0,0,1,5.433-5.95c3.155-.335,6.352-.289,9.532-.373,1.675-.044,3.351-.008,5.028-.007" transform="translate(-159.82 -264.109)"/>
      <path id="Path_5259" data-name="Path 5259" d="M241.313,659.579c-.07-.186-.139-.374-.211-.559a65.928,65.928,0,0,0-3.881-8.162c-.251-.44-.505-.876-.765-1.3-.3-.511-.626-1.012-.944-1.516a63.274,63.274,0,0,0-20.325-19.444c-.412-.25-.83-.485-1.246-.726-.517-.3-1.037-.6-1.558-.888-24.358-13.342-54.468-12.2-60.6-11.8h0a2.165,2.165,0,0,1-2.562-2.187v-1.746c.01-.4.215-1.72,2.514-1.72h37.15a8.105,8.105,0,0,0,8.139-7.911c.044-4.775-.009-9.551-.025-14.326a5.986,5.986,0,0,0-3.831-5.689,8.523,8.523,0,0,0-3.408-.635c-5.281-.047-28.695,0-33.976.028-4.675.02-6.2-1.494-6.174-6.059.046-7.54.089-15.081.073-22.621a21.479,21.479,0,0,0-.449-4.483,9.864,9.864,0,0,0-9.658-7.994c-10.139-.213-20.279-.34-30.419-.548a21.364,21.364,0,0,0-6.434.841c-3.872,1.117-6.459,3.489-7.37,7.441a26.648,26.648,0,0,0-.624,5.206c-.156,5.527-.17,11.058-.3,16.586s-2.2,7.869-7.695,8.729a34.845,34.845,0,0,1-5.246.416q-32.313.108-64.625.166a12.017,12.017,0,0,0-2.979.324,6.464,6.464,0,0,0-4.6,5.662c-.032,6.367-.081,12.736.105,19.1a7.139,7.139,0,0,0,5.384,7.1,19.432,19.432,0,0,0,5.428.732q28.289-.035,56.578-.2c3.771-.018,7.542-.14,11.314-.164,2.075-.013,3.367.788,3.813,2.217a5.105,5.105,0,0,1-4.022,6.819c-1.309.271-2.654.369-3.977.582a111.575,111.575,0,0,0-54.427,24.85,80.831,80.831,0,0,0-22.388,29,53.536,53.536,0,0,0-5.074,24.14c.489,14.557,6.528,26.512,17.7,35.81,9.855,8.206,21.444,12.536,33.937,14.784,65.074,13.141,86.108-23.684,92.877-50.667.048-.184.093-.378.139-.567q.1-.412.2-.821c3.205-14.235,2.615-41.224,2.615-41.224l.009,0q-.146-8.194-.266-16.389h0v-3.942a69.285,69.285,0,0,1,8.414-.035c6.342.522,28.938,4.431,32.154,33.556a34.172,34.172,0,0,1-.319,6.45c-1.025,5.882-5.062,17.469-20.727,26.62l-1.643.915c-1.595.966-6.416,4.724-1.668,12.789l-.014-.005c5.947,10.017,11.768,20.108,17.646,30.166a10.828,10.828,0,0,0,7.541,5.325,17.262,17.262,0,0,0,11.215-1.747,76.575,76.575,0,0,0,35.521-33.636,68.241,68.241,0,0,0,3.969-56.627M90.428,685.3c-.383,12.529-9.245,15.626-15.745,16.2-8.478.836-12.774-3.648-13.84-4.962-2.22-2.938-2.924-6.793-1.926-11.161a32.627,32.627,0,0,1,5.735-11.907,53.743,53.743,0,0,1,4.018-4.846l-.017-.043c.165-.164.319-.3.483-.464a48.88,48.88,0,0,1,4.7-4.359c10.938-9.545,16.985-10.614,16.985-10.614.041.849.1,1.424.093,2-.147,10.051-.292,20.1-.484,30.154" transform="translate(-0.888 -240.313)"/>
      <path id="Path_5260" data-name="Path 5260" d="M264.171,558.012h.008a13.441,13.441,0,0,0,1.892,2.246l.008-.006a11.386,11.386,0,0,0,4.681,2.791l.023.007a8.575,8.575,0,0,0,.881.184c.062.009.121.024.183.033a7.949,7.949,0,0,0,.861.064c.079,0,.155.014.234.014a8.365,8.365,0,0,0,5.215-1.9s1.379-.763,4.374-5.2l.009.012q2.206-3.109,4.58-6.063-.439-1.38-.876-2.761-.368-1.157-.733-2.315-4.223,5.042-7.986,10.528l-.208.282c-1.459,1.97-3,2.973-4.379,2.967-2.127,0-4.161-2.133-4.761-2.947l-.247-.338a137.445,137.445,0,0,0-225.667-.526l5.509-.014a132.963,132.963,0,0,1,216.4,2.945" transform="translate(-18.833 -221.198)"/>
      <path id="Path_5261" data-name="Path 5261" d="M1015.963,496.382a136.975,136.975,0,0,0-99.229,42.21l3.79,2.474a133.241,133.241,0,0,1,181.606-8.594l3.474-2.913a136.944,136.944,0,0,0-89.64-33.178" transform="translate(-408.51 -221.198)"/>
      <path id="Path_5262" data-name="Path 5262" d="M740.642,558.552c-.069-.246-.106-.47-.162-.707a4.978,4.978,0,0,1-2.77,1.047h0c-1.446,0-2.917-1-4.374-2.967l-.2-.264a137.722,137.722,0,0,0-175.92-44.168l2.86,3.526a133.3,133.3,0,0,1,169.617,43.5,10.8,10.8,0,0,0,6.988,4.738,7.863,7.863,0,0,0,1.023.088h.044A8.631,8.631,0,0,0,741.7,562.3Z" transform="translate(-248.303 -221.198)"/>
      <path id="Path_5263" data-name="Path 5263" d="M5.636,723.047A125.162,125.162,0,0,1,9.5,670.661,11.12,11.12,0,0,1,5.9,667.079a131.178,131.178,0,0,0-4.586,57.374Z" transform="translate(0 -297.263)"/>
      <path id="Path_5264" data-name="Path 5264" d="M782.924,809.976c-17.306,51.489-66.783,88.771-125,88.771A132.167,132.167,0,0,1,549.651,843l-.011.01c-.077-.129-.157-.237-.235-.362-.369-.527-.746-1.046-1.107-1.578l-.088-.127a16.083,16.083,0,0,0-1.459-1.628l-.015.012a10.245,10.245,0,0,0-6.82-3.093h-.044a7.8,7.8,0,0,0-1.179.1c-1.538.3-4.377,1.4-7.279,5.379l0-.014a133.019,133.019,0,0,1-218.342.041l-.007.008a13.465,13.465,0,0,0-3.786-3.966c-.055-.038-.11-.075-.166-.111-.321-.209-.627-.386-.908-.532-.24-.121-.48-.241-.725-.338-.1-.043-.2-.081-.29-.115a7.812,7.812,0,0,0-2.606-.455h-.045a9.336,9.336,0,0,0-5.37,1.9,18.118,18.118,0,0,0-3.694,3.938l-.008-.012a133.111,133.111,0,0,1-180.558,35.807l-1.643,4.237a137.59,137.59,0,0,0,186.317-38.147l.23-.313c.6-.822,2.638-2.953,4.765-2.955h.005c1.446,0,2.917,1,4.374,2.967l.184.248a137.488,137.488,0,0,0,226.159.024l.2-.272c1.457-1.969,2.928-2.967,4.374-2.967h0c2.127,0,4.161,2.133,4.761,2.947l.247.338A136.6,136.6,0,0,0,657.926,903.2c60.275,0,111.485-38.684,129.3-92.075Z" transform="translate(-50.473 -360.94)"/>
      <path id="Path_5265" data-name="Path 5265" d="M655.656,1021.173c-.352-.723-.563-1.2-.808-1.655q-3.849-7.16-7.707-14.316a12.933,12.933,0,0,1-.609-1.149c-.493-1.182-.053-1.8,1.224-1.614,1.66.243,3.32.528,4.956.9q32.9,7.488,65.8,15.006c.657.15,1.32.278,2.321.487-.54-.724-.843-1.16-1.175-1.571q-4.809-5.945-9.621-11.888a13.3,13.3,0,0,1-1.284-1.87c-.527-.951-.391-1.357.6-1.748a30.628,30.628,0,0,1,3.378-1.153c6.6-1.748,13.214-3.458,19.821-5.188.386-.1.757-.259,1.415-.488-.762-.266-1.215-.43-1.672-.584q-7.089-2.384-14.178-4.768a8.209,8.209,0,0,1-1.368-.513,1.8,1.8,0,0,1-.381-3,8.021,8.021,0,0,1,.759-.612q4.776-3.667,9.55-7.333c.412-.318.8-.671,1.35-1.139-.679-.183-1.129-.328-1.588-.424-3.766-.792-7.523-1.637-11.306-2.342-2.962-.552-3.121-1.568-1.578-3.743,6.4-9.023,12.708-18.111,19.049-27.176.327-.467.631-.951,1.109-1.676-.74.142-1.158.2-1.566.3-10.419,2.576-20.831,5.178-31.257,7.721-3.473.847-6.985,1.533-10.473,2.317a1.906,1.906,0,0,1-2.151-.747c-.492-.689-.1-1.35.221-1.979,1.14-2.218,2.3-4.428,3.429-6.649a12.245,12.245,0,0,0,.468-1.286c-.8.178-1.379.289-1.945.435q-16.143,4.151-32.286,8.309c-.42.108-.839.226-1.263.312-1.744.356-2.46-.479-1.889-2.2.119-.359.275-.707.412-1.06q4.9-12.577,9.8-25.155c.227-.584.418-1.181.742-2.107-1.035.485-1.758.811-2.471,1.158q-25.081,12.2-50.167,24.4c-2.29,1.112-4.629,2.128-6.97,3.13-1.129.483-1.754.351-2.2-.287-.548-.788-.087-1.437.325-2.084.145-.229.3-.45.455-.675q2.5-3.709,5-7.419c.3-.442.569-.9.989-1.571-.813.146-1.385.228-1.949.352q-20.883,4.61-41.766,9.227c-.9.2-1.8.414-2.707.562-1.8.295-2.5-.508-1.923-2.192.1-.307.241-.6.364-.9q3.783-9.26,7.562-18.519c.212-.522.384-1.06.664-1.84-.85.325-1.4.522-1.947.746-6.565,2.709-13.12,5.443-19.693,8.128q-12.8,5.227-25.62,10.39a15.26,15.26,0,0,1-2.462.826,1.327,1.327,0,0,1-1.706-1.422,4.436,4.436,0,0,1,.136-.963q1.351-6.362,2.71-12.723c.243-1.148.456-2.3.738-3.742-.788.4-1.314.651-1.829.924q-21.047,11.178-42.094,22.358a10.872,10.872,0,0,1-1.6.784c-1.229.411-2.038-.267-1.914-1.557a6.963,6.963,0,0,1,.173-.793q3.062-14.228,6.119-28.457c.111-.514.172-1.037.3-1.8-.657.267-1.1.42-1.515.619-1.808.867-3.611,1.747-5.417,2.621q-29.79,14.425-59.583,28.845a17.586,17.586,0,0,1-2.375,1.058c-2.362.737-3.167-.021-2.656-2.436q1.751-8.273,3.509-16.544c.1-.456.152-.92.226-1.38a4.1,4.1,0,0,0-1.534,1q-9.349,8.7-18.7,17.409c-.4.369-.8.738-1.209,1.089a1.844,1.844,0,0,1-2.394.161c-.365-.235-.719-.487-1.073-.736q-8.055-5.661-16.108-11.321c-.468-.328-.957-.624-1.71-1.112.092,1.037.153,1.725.215,2.413.161,1.781.375,3.56.468,5.345.065,1.257-.2,1.427-1.4,1.767a3.289,3.289,0,0,1-2.212-.137c-1.965-.783-3.937-1.545-5.9-2.321q-23.982-9.465-47.962-18.929c-.522-.206-1.063-.364-1.91-.651.408.833.629,1.319.879,1.789,1.019,1.914,2.064,3.815,3.071,5.736q4.983,9.507,9.931,19.032c.354.683.974,1.458.325,2.258s-1.507.349-2.269.161q-52.8-13.035-105.607-26.082c-.43-.106-.878-.139-1.588-.247.38.509.563.767.76,1.014q7.988,10.068,15.981,20.134c.2.254.5.476.595.764a2.722,2.722,0,0,1,.211,1.485c-.191.609-.853.577-1.4.453-.528-.12-1.044-.292-1.561-.454q-12.489-3.923-24.977-7.846c-.655-.206-1.319-.384-2.246-.653.329.754.517,1.24.747,1.7q1.873,3.791,3.768,7.571c.3.6.623,1.187.111,1.806a1.54,1.54,0,0,1-1.637.378c-8.6-1.508-17.2-2.975-25.8-4.494q-30.83-5.453-61.654-10.934a8.179,8.179,0,0,0-1.211-.007c.749,1.193,1.375,2.2,2.01,3.2q8.81,13.867,17.622,27.734c1.666,2.622,1.224,3.551-1.313,4.5-5.023,1.884-9.99,3.92-14.979,5.9-.587.232-1.168.48-2,.822.675.351,1.131.608,1.6.831,3.869,1.837,7.748,3.656,11.61,5.507,2.481,1.19,2.535,1.516.694,3.579q-14.241,15.968-28.484,31.934c-.382.429-.73.888-1.251,1.525.733,0,1.2.024,1.662,0q11.614-.692,23.227-1.395,8.853-.526,17.707-1.032c.755-.044,1.6-.268,2.067.529.533.9-.2,1.523-.694,2.144-2.235,2.8-4.487,5.578-6.721,8.374a13.386,13.386,0,0,0-.741,1.211c.786-.3,1.239-.477,1.691-.655q26.4-10.4,52.809-20.806a7.442,7.442,0,0,1,1.541-.5c.942-.145,1.438.446,1.2,1.359-.108.417-.305.815-.376,1.236q-.919,5.451-1.8,10.909a7.462,7.462,0,0,0-.006,1.022c.67-.318,1.156-.536,1.63-.776q9.87-5,19.738-9.992,7.841-3.958,15.7-7.883c2.047-1.024,2.739-.572,2.731,1.756,0,.813-.023,1.627-.045,2.439q-.165,6.016-.333,12.033c-.012.457,0,.916,0,1.505.708-.162,1.181-.263,1.649-.378,2.369-.582,4.731-1.188,7.1-1.751q41.69-9.887,83.382-19.763c2.233-.529,2.682-.091,2.2,2.148q-1.766,8.185-3.524,16.372c-.075.35-.094.713-.165,1.269.684-.38,1.2-.658,1.712-.954q11.255-6.533,22.509-13.07c.375-.218.741-.454,1.131-.642,1.354-.655,2.067-.279,2.23,1.2.083.753.093,1.515.115,2.274.091,3.143.171,6.287.267,9.43.013.459.1.917.17,1.574.705-.312,1.238-.539,1.765-.781q18.477-8.483,36.951-16.971c.595-.273,1.191-.652,1.83-.211.7.484.568,1.221.447,1.927-.027.161-.06.32-.084.481-.338,2.3-.674,4.594-1.042,7.1a9.511,9.511,0,0,0,.975-.582c1.273-1.012,2.536-2.04,3.8-3.064,2.107-1.706,4.234-3.391,6.311-5.134a2.013,2.013,0,0,1,2.757-.326c1.032.688,2.2,1.162,3.283,1.785q9.932,5.738,19.847,11.5c.507.294,1.021.577,1.822,1.028-.175-.822-.274-1.337-.394-1.847q-1.35-5.78-2.713-11.556c-.159-.67-.232-1.293.394-1.768a1.483,1.483,0,0,1,1.686.037c1.408.7,2.815,1.4,4.2,2.137q19.84,10.506,39.673,21.024c.441.233.9.428,1.678.8-.435-.86-.672-1.343-.922-1.82q-4.89-9.282-9.782-18.563a4.7,4.7,0,0,1-.625-1.313,2.471,2.471,0,0,1,.184-1.508c.3-.527.911-.452,1.466-.251,1.528.553,3.082,1.039,4.594,1.635q30.487,12.022,60.967,24.068c.586.231,1.184.431,2.045.744-.19-1-.324-1.73-.467-2.455q-2.125-10.769-4.249-21.538c-.423-2.163.343-2.827,2.488-2.2,1.039.3,2.071.644,3.105.967q19.326,6.041,38.653,12.078c.531.166,1.074.292,1.766.478-.133-.7-.2-1.119-.3-1.536q-1.426-6.262-2.863-12.522c-.45-1.951.117-2.551,2.058-2.14.212.045.42.109.63.162,3.783.956,7.573,1.886,11.349,2.872q32.647,8.525,65.288,17.069c.612.16,1.236.27,2.135.464" transform="translate(-46.866 -408.129)" fill="#f0c700"/>
      <path id="Path_5266" data-name="Path 5266" d="M204.042,946.323c-1.447-2.919-2.745-5.534-4.041-8.152-.264-.534-.532-1.068-.773-1.613-.26-.586-.339-1.258.24-1.616a2.027,2.027,0,0,1,1.486-.169c5.855,1.794,11.7,3.642,17.541,5.469q4.656,1.456,9.319,2.889c.244.075.5.1,1.074.2-.527-.707-.864-1.177-1.219-1.634q-7.094-9.117-14.186-18.235a12.694,12.694,0,0,1-1.313-2.044c-.45-.892-.038-1.542.947-1.475a13.975,13.975,0,0,1,2.389.461q18.938,4.7,37.873,9.422,33.545,8.291,67.1,16.541c.358.089.724.146,1.293.259a11.161,11.161,0,0,0-.427-1.117q-6.723-12.82-13.462-25.631c-.3-.575-.685-1.11-.961-1.7-.518-1.1.105-2.027,1.308-1.881a7.829,7.829,0,0,1,1.857.569q17.342,6.795,34.675,13.607,10.447,4.106,20.885,8.23c.5.2,1.006.354,1.757.616-.074-.88-.117-1.561-.191-2.238-.255-2.316-.542-4.629-.772-6.948-.14-1.421.91-2.114,2.2-1.469a10.769,10.769,0,0,1,1.36.888q8.774,6.194,17.543,12.393c.483.341.974.67,1.555,1.069.48-.416.93-.79,1.363-1.184q11.142-10.121,22.277-20.247c.161-.146.3-.376.485-.422a3.169,3.169,0,0,1,1.5-.21c.646.186.777.849.691,1.485-.064.483-.176.96-.274,1.437q-1.855,8.916-3.711,17.832c-.128.618-.227,1.241-.384,2.107.7-.3,1.141-.467,1.567-.672q32.39-15.592,64.775-31.193c.88-.423,1.746-.874,2.622-1.3.671-.328,1.355-.869,2.111-.3.812.612.475,1.478.317,2.258-.43,2.125-.886,4.245-1.338,6.365q-2.32,10.895-4.64,21.79c-.088.417-.134.843-.239,1.517.572-.241,1-.385,1.39-.59q21.562-11.249,43.119-22.508a7.732,7.732,0,0,1,.866-.448c1.1-.407,1.864.118,1.812,1.273a10.334,10.334,0,0,1-.274,1.6q-1.533,7.4-3.07,14.808c-.106.513-.155,1.038-.252,1.706.467-.158.773-.243,1.064-.363q23.4-9.581,46.806-19.17c.8-.329,1.578-.727,2.394-1.018,1.094-.391,1.868.236,1.682,1.368a7.555,7.555,0,0,1-.523,1.533q-3.787,9.433-7.582,18.862c-.2.487-.357.987-.619,1.719,1.324-.268,2.424-.48,3.518-.714q21.551-4.609,43.1-9.223c.212-.046.422-.1.637-.131.613-.083,1.308-.116,1.542.551a2.152,2.152,0,0,1-.125,1.5,19.639,19.639,0,0,1-1.4,2.188c-1.674,2.527-3.35,5.053-5.219,7.873a10.918,10.918,0,0,0,1.3-.408q28.915-14.181,57.823-28.376a6.117,6.117,0,0,1,.732-.353,1.168,1.168,0,0,1,1.64,1.425,9.464,9.464,0,0,1-.566,1.693q-4.985,12.893-9.979,25.782c-.211.543-.412,1.089-.707,1.873.7-.114,1.17-.157,1.62-.269q16.971-4.2,33.938-8.419a6.389,6.389,0,0,1,.787-.2c1.246-.142,1.834.6,1.425,1.807a7.853,7.853,0,0,1-.5,1.022q-1.823,3.543-3.646,7.087c-.237.463-.443.942-.76,1.623.543-.087.853-.113,1.153-.188q21.371-5.362,42.74-10.733a5,5,0,0,1,1.258-.3c.448.012,1.116.095,1.283.382a2.136,2.136,0,0,1,.02,1.495,4.682,4.682,0,0,1-.782,1.226q-9.785,14.1-19.574,28.2c-.329.473-.65.952-1.076,1.578.829.221,1.438.408,2.058.544q6.2,1.361,12.394,2.706a5.362,5.362,0,0,1,.94.246,1.271,1.271,0,0,1,.536,2.2,7.644,7.644,0,0,1-1.109.95q-5.256,4.109-10.517,8.212c-.459.359-.891.751-1.489,1.256.688.253,1.176.445,1.672.614q8.312,2.827,16.626,5.649c.1.034.211.054.314.085.537.163,1.077.373,1.1,1.028.029.75-.572,1-1.155,1.163q-4.227,1.187-8.464,2.337c-5.747,1.572-11.5,3.139-17.5,4.778.374.528.641.957.959,1.346q5.815,7.121,11.639,14.233a6.473,6.473,0,0,1,.779,1.038,1.11,1.11,0,0,1-1.079,1.751,4.355,4.355,0,0,1-.963-.14q-35.349-8.108-70.694-16.224c-.832-.191-1.656-.408-2.83-.7.414.819.658,1.335.93,1.836,2.63,4.865,5.275,9.721,7.885,14.6.383.716,1.227,1.445.524,2.352s-1.629.32-2.417.115q-22.5-5.86-44.994-11.77-16.514-4.337-33.017-8.714c-.358-.094-.723-.163-1.232-.276a9.416,9.416,0,0,0,.105,1.159c.97,4.282,1.956,8.56,2.927,12.842a7.3,7.3,0,0,1,.246,1.6,1.187,1.187,0,0,1-1.494,1.268,10.9,10.9,0,0,1-1.562-.441l-41.064-12.536c-.513-.156-1.031-.292-1.715-.483a10.474,10.474,0,0,0,.09,1.171q2.226,11.164,4.466,22.325a9.544,9.544,0,0,1,.227,1.444c.057,1.31-.671,1.886-1.969,1.572a8.008,8.008,0,0,1-1.069-.387q-31.79-12.716-63.577-25.433a4.425,4.425,0,0,0-1.856-.39c.256.5.507,1.008.77,1.508q5.227,9.932,10.454,19.864a6.45,6.45,0,0,1,.6,1.328,1.2,1.2,0,0,1-1.541,1.584,7.446,7.446,0,0,1-1.624-.729q-21.934-11.595-43.862-23.2c-.559-.3-1.128-.574-1.987-1.011.166.837.253,1.352.374,1.859.84,3.533,1.709,7.06,2.52,10.6.206.9.809,1.955-.218,2.7-.956.7-1.76-.126-2.511-.571q-12.6-7.454-25.175-14.957c-.23-.136-.466-.26-.77-.43-.474.376-.944.737-1.4,1.113q-5.652,4.656-11.3,9.31c-.643.527-1.266,1.394-2.251.8-.953-.573-.554-1.558-.443-2.38.327-2.417.717-4.826,1.078-7.239.038-.255.044-.516.085-1.026-.751.318-1.329.543-1.892.8q-17.632,8.179-35.261,16.365c-.492.228-.978.476-1.488.654-1.221.427-1.835-.009-1.915-1.333-.019-.324.006-.651,0-.976-.114-4.108-.231-8.217-.355-12.592-.686.371-1.2.627-1.69.917q-11.849,6.968-23.7,13.941a8.792,8.792,0,0,1-1.284.7,1.085,1.085,0,0,1-1.586-1.161,5.993,5.993,0,0,1,.2-.951q1.882-8.743,3.76-17.486c.065-.3.1-.615.183-1.139-.652.11-1.168.166-1.667.286q-28.546,6.824-57.091,13.652-15.82,3.765-31.667,7.407a16.247,16.247,0,0,1-2.9.237c-.869.041-1.287-.473-1.358-1.287a11.42,11.42,0,0,1-.006-1.3q.175-6.261.354-12.521c.016-.536,0-1.072,0-1.877-.735.355-1.3.618-1.861.9q-17.478,8.875-34.955,17.751a10.363,10.363,0,0,1-1.626.738,1.185,1.185,0,0,1-1.627-1.226,5.075,5.075,0,0,1,.145-.961q1.04-5.6,2.083-11.19c.077-.417.129-.84.236-1.557-.709.232-1.247.376-1.761.581q-18.347,7.339-36.691,14.686-9.364,3.742-18.746,7.439a3.9,3.9,0,0,1-1.379.445,1.758,1.758,0,0,1-1.217-.557,1.482,1.482,0,0,1-.018-1.192,3.924,3.924,0,0,1,.753-1.047q4.1-5.052,8.21-10.1c.2-.246.381-.509.693-.931a7.09,7.09,0,0,0-1.154-.141c-6.66.389-13.319.806-19.979,1.188-6.5.373-13,.734-19.5,1.043a11.343,11.343,0,0,1-2.879-.363,1.055,1.055,0,0,1-.717-1.733,6.54,6.54,0,0,1,.828-1q14.739-16.4,29.48-32.792c.355-.4.685-.814,1.1-1.308-.547-.262-.976-.481-1.416-.676q-6.7-2.957-13.393-5.909a6.9,6.9,0,0,1-1.163-.576,1.246,1.246,0,0,1,.142-2.306,4.862,4.862,0,0,1,.463-.151q9.5-3.613,19-7.232c.29-.111.565-.258.959-.439-.313-.546-.558-1.014-.839-1.46q-9.462-15-18.929-29.987a19.341,19.341,0,0,1-1.323-2.238c-.524-1.153-.121-1.838,1.145-1.826a26.024,26.024,0,0,1,4.04.386q13.474,2.264,26.937,4.591,16.508,2.851,33.01,5.742c7.637,1.337,15.269,2.7,22.9,4.05.47.083.948.125,1.77.231m448.909,72.28c-.352-.723-.563-1.2-.808-1.655q-3.85-7.16-7.707-14.316a12.933,12.933,0,0,1-.609-1.149c-.493-1.182-.053-1.8,1.224-1.614,1.66.243,3.32.528,4.956.9q32.9,7.488,65.8,15.005c.657.15,1.32.278,2.321.487-.54-.724-.843-1.16-1.175-1.571q-4.809-5.945-9.621-11.888a13.292,13.292,0,0,1-1.284-1.87c-.527-.951-.391-1.357.6-1.748a30.655,30.655,0,0,1,3.378-1.153c6.6-1.748,13.214-3.458,19.821-5.188.386-.1.757-.259,1.415-.488-.762-.266-1.215-.43-1.672-.584Q722.5,989.388,715.414,987a8.2,8.2,0,0,1-1.368-.513,1.8,1.8,0,0,1-.381-3,8.038,8.038,0,0,1,.759-.612q4.776-3.667,9.55-7.333c.412-.318.8-.671,1.35-1.139-.679-.183-1.129-.328-1.588-.424-3.766-.792-7.523-1.637-11.306-2.342-2.962-.552-3.121-1.568-1.578-3.743,6.4-9.023,12.708-18.111,19.049-27.176.327-.467.631-.951,1.109-1.676-.74.142-1.158.2-1.566.3-10.419,2.576-20.831,5.178-31.257,7.721-3.473.847-6.985,1.533-10.473,2.317a1.906,1.906,0,0,1-2.151-.747c-.492-.689-.1-1.351.221-1.979,1.14-2.218,2.3-4.428,3.429-6.649a12.254,12.254,0,0,0,.468-1.286c-.8.179-1.379.289-1.945.435q-16.143,4.151-32.286,8.309c-.42.108-.839.226-1.263.312-1.744.356-2.46-.48-1.889-2.2.119-.359.275-.707.412-1.06q4.9-12.577,9.8-25.155c.227-.584.418-1.181.742-2.107-1.035.485-1.758.811-2.471,1.158q-25.081,12.2-50.167,24.4c-2.29,1.112-4.629,2.128-6.97,3.13-1.129.483-1.754.351-2.2-.287-.548-.788-.086-1.437.325-2.084.145-.229.3-.45.455-.675q2.5-3.709,5-7.419c.3-.442.569-.9.988-1.571-.813.146-1.385.228-1.949.352q-20.883,4.61-41.766,9.227c-.9.2-1.8.414-2.707.562-1.8.295-2.5-.508-1.923-2.192.1-.307.241-.6.364-.9q3.783-9.26,7.562-18.519c.212-.522.384-1.06.664-1.84-.85.325-1.4.522-1.947.746-6.565,2.709-13.12,5.443-19.693,8.128q-12.8,5.227-25.62,10.39a15.25,15.25,0,0,1-2.462.826,1.327,1.327,0,0,1-1.706-1.422,4.436,4.436,0,0,1,.136-.963q1.351-6.361,2.71-12.723c.243-1.148.456-2.3.738-3.742-.788.4-1.314.651-1.829.924q-21.047,11.178-42.094,22.358a10.871,10.871,0,0,1-1.6.784c-1.228.411-2.038-.267-1.914-1.557a6.975,6.975,0,0,1,.173-.793q3.062-14.228,6.119-28.457c.111-.514.172-1.037.3-1.8-.657.267-1.1.42-1.515.619-1.808.866-3.611,1.747-5.417,2.621q-29.79,14.425-59.583,28.845a17.6,17.6,0,0,1-2.375,1.058c-2.362.737-3.167-.021-2.656-2.436q1.751-8.273,3.509-16.544c.1-.456.152-.92.226-1.38a4.1,4.1,0,0,0-1.534,1q-9.349,8.7-18.7,17.409c-.4.369-.8.738-1.209,1.089a1.844,1.844,0,0,1-2.394.161c-.365-.235-.718-.487-1.073-.736q-8.055-5.661-16.108-11.321c-.468-.328-.957-.624-1.71-1.112.092,1.037.153,1.725.215,2.413.161,1.781.375,3.56.468,5.345.065,1.257-.2,1.427-1.4,1.767a3.289,3.289,0,0,1-2.212-.137c-1.965-.783-3.937-1.544-5.9-2.321q-23.982-9.465-47.962-18.929c-.522-.206-1.063-.364-1.91-.651.408.833.629,1.319.879,1.789,1.02,1.914,2.064,3.815,3.071,5.736q4.983,9.507,9.931,19.032c.354.683.974,1.458.325,2.258s-1.507.349-2.269.161Q269.652,936,216.85,922.956c-.43-.107-.878-.139-1.588-.247.38.509.563.767.76,1.015Q224.01,933.791,232,943.858c.2.254.5.476.595.764a2.722,2.722,0,0,1,.211,1.485c-.191.609-.853.577-1.4.453-.528-.12-1.044-.292-1.561-.454q-12.489-3.923-24.977-7.846c-.655-.206-1.319-.384-2.246-.653.329.754.517,1.24.747,1.7q1.873,3.791,3.768,7.571c.3.6.623,1.187.111,1.806a1.54,1.54,0,0,1-1.637.378c-8.6-1.508-17.2-2.975-25.8-4.494q-30.83-5.453-61.654-10.934a8.181,8.181,0,0,0-1.211-.007c.749,1.193,1.375,2.2,2.01,3.2q8.81,13.867,17.622,27.734c1.666,2.622,1.224,3.551-1.313,4.5-5.023,1.884-9.99,3.919-14.979,5.9-.587.232-1.168.48-2,.822.675.351,1.131.607,1.6.831,3.868,1.837,7.748,3.656,11.61,5.507,2.481,1.19,2.535,1.516.694,3.579q-14.241,15.968-28.484,31.934c-.382.429-.73.888-1.251,1.525.733,0,1.2.024,1.662,0q11.614-.692,23.227-1.395,8.853-.526,17.707-1.032c.755-.044,1.6-.268,2.067.529.533.9-.2,1.523-.694,2.144-2.235,2.8-4.487,5.578-6.721,8.375a13.374,13.374,0,0,0-.741,1.211c.786-.3,1.239-.477,1.691-.655q26.4-10.4,52.809-20.806a7.435,7.435,0,0,1,1.541-.5c.942-.145,1.438.446,1.2,1.359-.108.417-.305.815-.376,1.236q-.919,5.451-1.8,10.909a7.459,7.459,0,0,0-.006,1.022c.67-.318,1.156-.536,1.63-.776q9.87-5,19.738-9.992,7.841-3.958,15.7-7.883c2.047-1.024,2.739-.572,2.731,1.756,0,.813-.023,1.627-.045,2.439q-.165,6.016-.333,12.034c-.012.457,0,.916,0,1.505.708-.162,1.181-.263,1.649-.378,2.369-.582,4.731-1.188,7.105-1.751q41.69-9.887,83.382-19.763c2.233-.529,2.682-.091,2.2,2.148q-1.766,8.185-3.524,16.372c-.075.35-.094.713-.165,1.269.684-.38,1.2-.658,1.713-.954q11.255-6.533,22.509-13.07c.375-.218.741-.454,1.131-.642,1.354-.655,2.067-.279,2.23,1.2.083.753.093,1.515.115,2.274.091,3.143.171,6.287.267,9.43.013.459.1.917.17,1.574.705-.312,1.238-.539,1.765-.781q18.477-8.483,36.951-16.971c.595-.273,1.191-.652,1.83-.211.7.485.568,1.221.447,1.927-.027.161-.06.32-.084.481-.338,2.3-.674,4.594-1.042,7.1a9.463,9.463,0,0,0,.975-.582c1.273-1.012,2.536-2.04,3.8-3.064,2.107-1.706,4.234-3.391,6.311-5.134a2.014,2.014,0,0,1,2.757-.327c1.032.688,2.2,1.162,3.283,1.785q9.932,5.738,19.847,11.5c.507.294,1.021.577,1.822,1.028-.175-.822-.274-1.337-.394-1.847q-1.35-5.78-2.713-11.556c-.159-.67-.232-1.293.394-1.768a1.483,1.483,0,0,1,1.686.037c1.408.7,2.815,1.4,4.2,2.137q19.84,10.506,39.673,21.023c.441.233.9.429,1.678.8-.435-.86-.672-1.343-.922-1.82q-4.89-9.282-9.782-18.563a4.7,4.7,0,0,1-.625-1.313,2.472,2.472,0,0,1,.184-1.509c.3-.527.911-.452,1.466-.251,1.528.553,3.082,1.039,4.594,1.635q30.487,12.022,60.967,24.068c.586.231,1.184.431,2.045.743-.19-1-.324-1.73-.467-2.455q-2.125-10.769-4.249-21.538c-.423-2.163.343-2.827,2.487-2.2,1.04.3,2.071.644,3.105.967q19.326,6.041,38.653,12.078c.531.166,1.074.292,1.766.478-.133-.7-.2-1.119-.3-1.536q-1.426-6.262-2.863-12.522c-.45-1.951.117-2.551,2.058-2.141.212.045.42.109.63.162,3.783.956,7.573,1.886,11.349,2.872q32.647,8.525,65.288,17.069c.612.16,1.236.27,2.135.464" transform="translate(-44.161 -405.559)"/>
      <path id="Path_5267" data-name="Path 5267" d="M783,1014.538c-.395,1.069-.751,1.913-1.02,2.784-.823,2.657-2.37,3.733-5.067,3.34a34.711,34.711,0,0,1-4.123-.891c-3.023-.827-3.7-2.44-2.955-5.109a32.491,32.491,0,0,1,2.891-7.215,58.807,58.807,0,0,1,25.748-24.279c4.206-2.072,8.009-.639,9.949,3.616a13.066,13.066,0,0,1,1.046,6.032q-.655,16.981-1.343,33.96a8.211,8.211,0,0,1-.492,2.371,3.011,3.011,0,0,1-3.129,2.129c-1.949-.057-3.9-.178-5.841-.371-2.071-.206-2.954-1.216-2.991-3.312-.017-.973.06-1.949.128-2.922a1.372,1.372,0,0,0-.523-1.421c-4.029-2.841-8.043-5.7-12.278-8.712m14.18-16.3a35.464,35.464,0,0,0-7.786,6.59c2.369,2.036,6.172,4.532,7.194,4.732.191-3.653.381-7.3.592-11.322" transform="translate(-342.927 -437.699)"/>
      <path id="Path_5268" data-name="Path 5268" d="M1062.876,1013.692c-.247.614-.416.946-.517,1.3q-.944,3.278-1.86,6.565a3.836,3.836,0,0,1-4.434,2.87,32.318,32.318,0,0,1-3.938-.986c-2.134-.67-3-2.444-2.408-4.791.746-2.939,1.516-5.871,2.275-8.806q1.588-6.134,3.178-12.267a19.314,19.314,0,0,1,.574-1.861c1.062-2.857,3.03-3.994,6-3.277a38.547,38.547,0,0,1,4.905,1.663,4.072,4.072,0,0,1,2.617,3.27c.613,3.356,1.25,6.707,1.881,10.061.127.674.267,1.346.448,2.255.591-.514,1.037-.879,1.457-1.271,3.53-3.289,7.069-6.568,10.572-9.884a4.612,4.612,0,0,1,3.167-1.464,41.29,41.29,0,0,1,5.655.316,4.273,4.273,0,0,1,3.253,2.457,4.174,4.174,0,0,1,.079,3.006q-2.156,8.672-4.28,17.351c-.5,2.051-1,4.1-1.5,6.155-.077.315-.162.629-.27.935-.718,2.045-1.769,2.816-3.907,2.6a39.993,39.993,0,0,1-5.126-.848c-2.073-.483-2.969-2.065-2.495-4.181.5-2.22,1.039-4.429,1.55-6.646.08-.351.1-.716.172-1.267a11,11,0,0,0-.954.594c-1.738,1.384-3.487,2.757-5.2,4.177a5.871,5.871,0,0,1-9.464-2.761c-.524-1.641-.909-3.327-1.432-5.267" transform="translate(-467.689 -442.154)"/>
      <path id="Path_5269" data-name="Path 5269" d="M608.148,1016.282c-.707,2.5-1.374,5-2.132,7.483-.744,2.43-2.114,3.156-4.578,2.535-1.471-.371-2.935-.76-4.4-1.146a2.707,2.707,0,0,1-2.262-3.344,8.1,8.1,0,0,1,.186-.79q2.787-11.524,5.578-23.046a10.335,10.335,0,0,1,.59-1.85,4.1,4.1,0,0,1,4.958-2.38c1.823.5,3.6,1.18,5.411,1.726a4.761,4.761,0,0,1,3.329,3.842q1.164,4.817,2.342,9.629c.112.455.28.9.476,1.512.56-.477,1.01-.848,1.446-1.234,3.371-2.979,6.713-5.991,10.118-8.93a6.543,6.543,0,0,1,5.91-1.539c1.005.22,2.006.462,3.013.668a3.646,3.646,0,0,1,2.808,4.4c-1.741,6.988-3.386,14-5.114,20.991a3.619,3.619,0,0,1-4.192,2.991c-1.615-.149-3.224-.416-4.818-.723a2.349,2.349,0,0,1-2.13-2.619,10.9,10.9,0,0,1,.35-2.236,29.055,29.055,0,0,0,.872-4.7c-.511.525-1,1.071-1.537,1.571a60.4,60.4,0,0,1-4.674,4.25,6.654,6.654,0,0,1-6.313,1.108,5.161,5.161,0,0,1-3.7-3.943c-.34-1.45-.848-2.861-1.28-4.289l-.261.057" transform="translate(-265.019 -442.756)"/>
      <path id="Path_5270" data-name="Path 5270" d="M190.238,1040.422a4.456,4.456,0,0,1-1.427-.772,8.9,8.9,0,0,1-1.567-2.42c-.6-1.5-1.01-3.084-1.507-4.631a3.24,3.24,0,0,1,.914-3.569c.945-.881,2.025-1.619,3.051-2.413.857-.662,1.781-1.25,2.571-1.982,1.93-1.791,1.943-3.621.044-5.462a16.16,16.16,0,0,0-2.415-1.918c-6.765-4.412-8.587-11.609-6.875-18.481a24.331,24.331,0,0,1,10.539-14.527,40.577,40.577,0,0,1,8.721-4.313c1.906-.706,2.98-.294,3.817,1.549.828,1.823,1.582,3.683,2.289,5.558a2.117,2.117,0,0,1-1.009,2.912c-.946.63-1.951,1.171-2.9,1.794a20.683,20.683,0,0,0-7.476,8.18,7.932,7.932,0,0,0-.861,4.4,3.726,3.726,0,0,0,1.475,2.784c1.09.8,2.159,1.637,3.29,2.376a17.352,17.352,0,0,1,6.814,7.444,13.012,13.012,0,0,1-.833,12.739,20.422,20.422,0,0,1-8.21,7.45c-1.919,1-3.922,1.833-5.919,2.666a17.718,17.718,0,0,1-2.522.632" transform="translate(-81.291 -436.531)"/>
      <path id="Path_5271" data-name="Path 5271" d="M244.872,1019.564c-.107.695-.242,1.25-.268,1.81-.065,1.406-.082,2.816-.115,4.224a3.626,3.626,0,0,1-3.144,3.924,35.038,35.038,0,0,1-4.825.654c-2.646.184-4.214-1.3-4.278-3.941q-.249-10.152-.467-20.3c-.054-2.571.991-3.844,3.53-4.453a8.182,8.182,0,0,1,7.349,1.483c3.6,2.785,7.3,5.437,10.956,8.145.218.161.429.333.656.479,1.705,1.107,3.034.746,3.713-1.162.5-1.42.781-2.922,1.154-4.389.306-1.206.59-2.419.906-3.623a3.806,3.806,0,0,1,3.376-3.056c2.089-.3,4.166-.694,6.256-.993a3.093,3.093,0,0,1,3.635,3.865c-1.159,6.007-2.361,12.006-3.546,18.007-.273,1.381-.544,2.762-.833,4.14a4.851,4.851,0,0,1-4.29,4.066,10.236,10.236,0,0,1-7.01-1.372c-3.88-2.473-7.882-4.754-11.837-7.109a8.967,8.967,0,0,0-.916-.394" transform="translate(-103.281 -444.868)"/>
      <path id="Path_5272" data-name="Path 5272" d="M1145.634,1017.648c.481.023.956.065,1.43.066,3.635,0,7.269,0,10.9,0a9.193,9.193,0,0,1,1.3.076c2.185.315,3,1.259,2.922,3.5-.048,1.462-.146,2.924-.3,4.379a3.447,3.447,0,0,1-3.683,3.315c-5.2.169-10.4.4-15.609.558a23.458,23.458,0,0,1-4.371-.159,6.27,6.27,0,0,1-5.593-6.814c.1-2.162.418-4.313.653-6.468.522-4.8,1.024-9.594,1.6-14.384a8.83,8.83,0,0,1,.84-2.936,4.935,4.935,0,0,1,4.665-2.955c6.292.026,12.585-.028,18.877-.009,2.734.008,4.131,1.585,3.986,4.355-.043.812-.038,1.629-.12,2.437-.281,2.751-1.823,4.168-4.574,4.29-3.739.166-7.477.353-11.215.54-.581.029-1.289-.049-1.072,1.116.524.023,1.094.074,1.663.07,3.635-.026,7.268-.077,10.9-.091,2.148-.008,2.819.711,2.748,2.836-.026.758-.022,1.519-.07,2.276-.116,1.8-.851,2.523-2.641,2.6-4.01.166-8.02.318-12.03.493-.527.023-1.29-.207-1.211.916" transform="translate(-504.713 -443.75)"/>
      <path id="Path_5273" data-name="Path 5273" d="M693.277,999.678c.089.535.147.889.217,1.311a5.857,5.857,0,0,0,1.007-.067q5.434-1.373,10.862-2.774c2.364-.605,3.3-.07,3.9,2.288a24.062,24.062,0,0,1,.536,2.705,2.8,2.8,0,0,1-1.685,3.031,11.832,11.832,0,0,1-1.843.609q-5.4,1.492-10.81,2.968a3.48,3.48,0,0,0-.512.25c.085.458.17.921.278,1.507.555-.119,1.022-.187,1.47-.319,4.1-1.2,8.2-2.427,12.306-3.629,1.9-.556,3.066.013,3.641,1.868.528,1.7,1,3.429,1.376,5.171a3.153,3.153,0,0,1-2.353,3.878c-5.674,1.626-11.339,3.28-17.029,4.846a13.262,13.262,0,0,1-3.682.442,5.762,5.762,0,0,1-5.939-5.11c-1.162-7.385-2.269-14.778-3.368-22.173a4.942,4.942,0,0,1,3.136-5.473,32.383,32.383,0,0,1,4.025-1.245c5.169-1.422,10.346-2.813,15.515-4.234a3.013,3.013,0,0,1,4.034,2.357c.289,1.267.551,2.541.8,3.817a3.571,3.571,0,0,1-2.1,4.137,16.576,16.576,0,0,1-2.615.863c-3.658.99-7.324,1.955-11.16,2.975" transform="translate(-303.723 -439.1)"/>
      <path id="Path_5274" data-name="Path 5274" d="M530.334,995.358c.776,2.553,1.491,4.935,2.224,7.311,1.629,5.279,3.273,10.554,4.895,15.835a10.984,10.984,0,0,1,.507,2.208,3.081,3.081,0,0,1-2.133,3.435q-2.108.855-4.249,1.627c-2.58.935-4.506.047-5.365-2.579-1.113-3.4-2.13-6.824-3.183-10.241q-1.817-5.9-3.626-11.805c-.142-.46-.322-.908-.519-1.463-.46.136-.87.233-1.262.378-1.982.731-3.946,1.515-5.945,2.194a7.313,7.313,0,0,1-2.379.384,3.3,3.3,0,0,1-3.193-2.542c-.428-1.566-.884-3.127-1.24-4.711a6.753,6.753,0,0,1-.133-2.235,2.719,2.719,0,0,1,1.969-2.336q14.343-5.253,28.664-10.566c.915-.338,1.818-.71,2.744-1.013a3.4,3.4,0,0,1,4.647,2.259q.716,2.071,1.293,4.189c.765,2.821-.276,4.73-3.037,5.725q-4.663,1.681-9.315,3.39c-.4.146-.789.32-1.364.554" transform="translate(-224.898 -436.258)"/>
      <path id="Path_5275" data-name="Path 5275" d="M844.614,1011.7q-.239-5.275-.477-10.55c-.086-1.922.416-2.833,2.232-3.486,2.786-1,5.52-1.261,8.252.434,3.681,2.284,7.471,4.389,11.22,6.562,1.889,1.095,3.484.2,3.409-2-.062-1.782-.331-3.557-.5-5.336-.17-1.827.416-2.857,2.143-3.274a63.087,63.087,0,0,1,6.359-1.186,4.845,4.845,0,0,1,2.34.418A2.216,2.216,0,0,1,881,995.3c.152,2.106.365,4.207.551,6.311.37,4.207.732,8.416,1.11,12.622.212,2.36-.7,3.591-2.969,4.024-1.7.324-3.4.686-5.1,1.022a6.1,6.1,0,0,1-3.752-.582c-3.668-1.6-7.4-3.057-11.116-4.556a4.648,4.648,0,0,0-1.1-.27,1.562,1.562,0,0,0-1.941,1.275,9.443,9.443,0,0,0-.159,1.771c-.086,1.782-.1,3.569-.251,5.345a3.094,3.094,0,0,1-2.49,2.868,49.636,49.636,0,0,1-5.09.924,3.556,3.556,0,0,1-1.572-.268c-1.616-.563-2-1.158-2.063-2.883q-.19-5.6-.4-11.2l-.047,0" transform="translate(-376.156 -442.429)"/>
      <path id="Path_5276" data-name="Path 5276" d="M440.264,1020.821c.356.53.636.982.951,1.408,1.642,2.223,3.3,4.432,4.933,6.663a7.458,7.458,0,0,1,.975,1.676,2.712,2.712,0,0,1-1.231,3.489,44.3,44.3,0,0,1-4.227,2.07,2.759,2.759,0,0,1-3.493-.889c-.552-.665-1.037-1.389-1.521-2.107-2-2.964-3.988-5.938-5.986-8.9-.265-.393-.568-.76-.955-1.275-.267.576-.493,1-.662,1.44q-1.36,3.564-2.695,7.137a3.61,3.61,0,0,1-4.468,2.262c-1.812-.543-3.564-1.287-5.334-1.964a1.349,1.349,0,0,1-.9-1.413,8.794,8.794,0,0,1,.379-2.548q5.12-13.347,10.332-26.659a10.444,10.444,0,0,1,.664-1.481,3.31,3.31,0,0,1,3.875-1.6c1.46.405,2.906.868,4.341,1.352a2.9,2.9,0,0,1,1.918,4c-.8,2.244-1.67,4.463-2.5,6.7-.181.486-.323.986-.557,1.705.671-.224,1.119-.347,1.546-.521q6.172-2.5,12.34-5.019a7.438,7.438,0,0,1,1.381-.462,2.144,2.144,0,0,1,2.6,1.171,47.241,47.241,0,0,1,2.053,4.416,2.365,2.365,0,0,1-.557,2.708,7.988,7.988,0,0,1-1.968,1.389c-3.326,1.582-6.682,3.1-10.025,4.645-.377.174-.741.377-1.208.616" transform="translate(-185.219 -444.721)"/>
      <path id="Path_5277" data-name="Path 5277" d="M328.257,1022.008c-2.849,1.158-5.6,2.284-8.359,3.394-1.2.486-2.419.947-3.635,1.406a2.145,2.145,0,0,0-1.4,1.625c-.446,1.759-1.085,2.207-2.873,2.082-1.73-.121-3.457-.273-5.182-.443a2.8,2.8,0,0,1-2.762-2.687,11.767,11.767,0,0,1,.2-3.217c1.436-7.5,2.954-14.975,4.38-22.472.851-4.475,4.738-6.727,9.019-5.125a12.978,12.978,0,0,1,4.723,3.367q7.275,7.547,14.517,15.125c.636.664,1.287,1.317,1.874,2.022a3.243,3.243,0,0,1-.293,4.636c-.906.856-1.791,1.735-2.728,2.557-2.169,1.9-4.4,1.67-6.154-.609-.424-.551-.863-1.089-1.319-1.661m-10.986-4.954,4.916-2.089-3.843-4.43c-.381,2.318-.7,4.259-1.073,6.52" transform="translate(-135.468 -443.86)"/>
      <path id="Path_5278" data-name="Path 5278" d="M385.752,988.451c1.645.3,3.315.512,4.928.936a3.592,3.592,0,0,1,2.613,4.532c-.385,1.466-.856,2.911-1.345,4.346-.429,1.257-.785,1.484-2.167,1.492a14.869,14.869,0,0,0-8.016,2.314,11.167,11.167,0,0,0-2.756,2.473c-1.423,1.815-.734,3.483,1.549,3.937a9.015,9.015,0,0,0,4.82-.256c1.273-.451,2.51-1.009,3.745-1.558,1.663-.738,2.782-.522,3.832.94.947,1.319,1.838,2.686,2.668,4.082a3.12,3.12,0,0,1-.578,4,22.52,22.52,0,0,1-9.915,5.335,15.918,15.918,0,0,1-12.638-2.077,13.152,13.152,0,0,1-6.04-12.56c.692-9.948,9.283-17.774,19.3-17.94" transform="translate(-163.277 -440.471)"/>
      <path id="Path_5279" data-name="Path 5279" d="M984.651,1002.735c-1.561,0-3.015-.014-4.469.005a3.028,3.028,0,0,1-2.6-1.1,3.588,3.588,0,0,1-.726-1.727c-.138-1.453-.111-2.922-.158-4.384-.081-2.514.6-3.317,3.143-3.51,4.81-.364,9.623-.686,14.435-1.027q6.893-.489,13.785-.981c.487-.034.975-.068,1.462-.066a2.886,2.886,0,0,1,3.117,2.991c.059,1.3.063,2.6,0,3.9-.117,2.29-1.267,3.388-3.595,3.578-3.079.252-6.153.589-9.236.752a3.061,3.061,0,0,0-3.152,2.547c-1.753,5.749-3.74,11.426-5.525,17.166-.7,2.253-1.76,2.483-3.641,2.244-1.448-.183-2.881-.5-4.307-.822-2.831-.632-3.672-2.109-2.842-4.855q2.137-7.078,4.249-14.164a3.3,3.3,0,0,0,.058-.552" transform="translate(-435.23 -441.138)"/>
      <path id="Path_5280" data-name="Path 5280" d="M928.709,1003.693c2.122-1.627,4-3.081,5.9-4.519,1.511-1.147,3.009-2.314,4.567-3.395a12.225,12.225,0,0,1,2.432-1.251,2.142,2.142,0,0,1,2.615.772c1.227,1.583,2.449,3.18,3.541,4.857a2.855,2.855,0,0,1-1.021,3.85q-8.03,5.675-16.068,11.337a5.892,5.892,0,0,0-1.926,2.134c-.983,1.869-2.047,3.7-3.089,5.533a2.672,2.672,0,0,1-3.314,1.326c-1.981-.729-3.931-1.548-5.86-2.4-1.15-.511-1.41-1.509-.819-2.895.955-2.242,1.855-4.516,2.97-6.678a4.446,4.446,0,0,0,.217-3.837c-1.656-4.7-3.2-9.436-4.807-14.152a3.107,3.107,0,0,1,2.456-4.377,41.051,41.051,0,0,1,4.191-.522c3.343-.308,4.415.423,5.282,3.618.6,2.195,1.139,4.4,1.706,6.607.323,1.254.646,2.508,1.029,4" transform="translate(-407.205 -440.898)"/>
      <path id="Path_5281" data-name="Path 5281" d="M575.034,1040.088c-1.347-.119-2.7-.176-4.04-.37a2.686,2.686,0,0,1-2.537-3.14q.618-12.242,1.216-24.485c.05-1.026.049-2.055.111-3.079.131-2.128,1.311-3.3,3.462-3.215s4.312.356,6.468.539a2.293,2.293,0,0,1,2.123,1.734,7,7,0,0,1,.369,2.382c-.535,8.914-1.171,17.823-1.647,26.741a2.908,2.908,0,0,1-3.411,2.938c-.7-.093-1.4-.086-2.108-.124,0,.026,0,.053-.006.079" transform="translate(-253.31 -448.2)"/>
      <path id="Path_5282" data-name="Path 5282" d="M1034.739,1036.788a3.228,3.228,0,0,1-2.588,3.423c-1.636.375-3.266.8-4.92,1.076a3.366,3.366,0,0,1-4.068-2.6q-2.7-10.884-5.371-21.777c-.633-2.588.436-4.2,3.066-4.652,1.709-.292,3.427-.534,5.145-.765a2.834,2.834,0,0,1,3.322,1.709,7.2,7.2,0,0,1,.589,1.679q2.379,10.627,4.724,21.263c.058.263.083.533.1.645" transform="translate(-453.464 -450.717)"/>
      <path id="Path_5283" data-name="Path 5283" d="M592.361,479.165c-54.562,0-97.3-18.176-97.3-41.378s42.74-41.378,97.3-41.378,97.3,18.176,97.3,41.378-42.74,41.378-97.3,41.378m0-79.361c-25.319,0-49.1,4.081-66.952,11.492-17.383,7.215-26.955,16.623-26.955,26.491s9.573,19.277,26.955,26.491c17.856,7.412,41.633,11.493,66.952,11.493s49.1-4.081,66.951-11.493c17.383-7.214,26.957-16.622,26.957-26.491S676.7,418.511,659.313,411.3c-17.855-7.411-41.633-11.492-66.951-11.492" transform="translate(-220.606 -176.649)"/>
      <path id="Path_5284" data-name="Path 5284" d="M595.089,402.532c-25.319,0-49.1,4.081-66.952,11.492-17.383,7.215-26.955,16.623-26.955,26.491s9.573,19.277,26.955,26.491c17.856,7.412,41.633,11.493,66.952,11.493s49.1-4.081,66.951-11.493C679.423,459.793,689,450.384,689,440.516s-9.574-19.277-26.957-26.491c-17.855-7.411-41.633-11.492-66.951-11.492" transform="translate(-223.334 -179.377)" fill="#f0c700"/>
      <path id="Path_5285" data-name="Path 5285" d="M691.4,442.158c-1.45,0-2.7-.013-3.957,0q-5.869.074-11.739.166c-.356.005-.712,0-1.067-.006a.833.833,0,0,1-.947-.928q.006-2.057.023-4.114a.948.948,0,0,1,1.028-1.054c1.218-.049,2.435-.138,3.654-.157,5.945-.092,11.89-.191,17.836-.225a3.75,3.75,0,0,0,2.7-1.114c1.382-1.271,2.865-2.434,4.287-3.663a3.2,3.2,0,0,1,2.371-.82c1.217.06,2.439.022,3.658.047.538.012,1.186-.148,1.456.527.306.762-.359,1.079-.789,1.475-1.01.928-2.039,1.836-3.054,2.758a8.7,8.7,0,0,0-.571.693c.812,0,1.344,0,1.877,0q14.407-.158,28.814-.319c.3,0,.61-.015.915-.016a.854.854,0,0,1,.971.924c-.016,1.523-.04,3.049-.157,4.566-.022.287-.44.665-.756.777a4.282,4.282,0,0,1-1.358.084c-11.689.1-23.378.215-35.067.256a3.383,3.383,0,0,0-2.989,1.367c-1.081,1.41-2.262,2.743-3.375,4.129-.405.5-.738,1.066-1.231,1.786.577.051.951.115,1.323.112q21.04-.185,42.079-.38c1.443-.013,1.572.1,1.544,1.551-.022,1.168-.059,2.336-.12,3.5-.052.995-.17,1.141-1.181,1.178-2.234.081-4.47.138-6.706.153-10.114.066-20.227.1-30.341.177-2.943.021-5.885.126-8.951.2a8.878,8.878,0,0,0,.534,7.328c1.842,3.291,4.8,5.177,8.226,6.412a19.5,19.5,0,0,0,8.389.992c6.667-.567,12.719-2.644,17.81-7.066a42.667,42.667,0,0,0,3.859-4.283,14.769,14.769,0,0,0,.862-1.222c1.577.6,3.129,1.187,4.676,1.787.7.272.76.763.365,1.331-.609.875-1.2,1.769-1.873,2.593a33.643,33.643,0,0,1-24.07,12.767c-4.127.344-8.354.6-12.384-.835a33.533,33.533,0,0,1-5.552-2.448c-5.862-3.394-8.182-8.752-8.146-15.319,0-.6.063-1.2.1-1.961H674.008a6.509,6.509,0,0,1-.32-3.263c0-2.815-.3-2.876,2.789-2.906,3.35-.033,6.7-.081,9.91-.12l5.013-7.418" transform="translate(-300.181 -191.725)"/>
      <path id="Path_5286" data-name="Path 5286" d="M585.981,436.413l-36.292.369a33.128,33.128,0,0,1,.014-5.31c.027-.3.562-.671.933-.789a5.275,5.275,0,0,1,1.513-.09q16.084-.175,32.169-.345,14.408-.157,28.816-.325c1.648-.019,1.752.062,1.712,1.689-.029,1.168-.112,2.334-.148,3.5-.022.679-.324,1.041-1.02,1.04-.2,0-.406.019-.609.02-9.093.044-17.659,2.436-25.991,5.847a78.832,78.832,0,0,0-16.2,9.034,15.894,15.894,0,0,0-4.923,5.527c-2.277,4.341-1.491,8.29,2.31,11.225a20.092,20.092,0,0,0,10.1,3.928,35.417,35.417,0,0,0,19.838-3.447,22.2,22.2,0,0,0,8.533-6.964c.742-1.017.867-1.061,2.023-.626,1.14.429,2.253.927,3.376,1.4.651.274.837.717.419,1.321-.4.584-.813,1.169-1.261,1.719a32.776,32.776,0,0,1-18.084,11.159c-6,1.491-16.472,1.348-21.9-.263a23.143,23.143,0,0,1-9.277-5.364c-3.381-3.148-4.285-7.075-3.424-11.416A21.384,21.384,0,0,1,566.19,446.9a52.573,52.573,0,0,1,15.641-8.68c1.405-.532,2.826-1.024,4.239-1.534l-.09-.269" transform="translate(-244.905 -191.582)"/>
      <path id="Path_5287" data-name="Path 5287" d="M642.772,466.59c-.712-4.351-1.573-8.342-4.159-11.976l5.172-1.693c.109.2.243.471.4.728a20.514,20.514,0,0,1,3.413,10.259c.028.769-.174,1.223-.971,1.441-1.207.33-2.387.761-3.86,1.24" transform="translate(-284.575 -201.831)"/>
      <path id="Path_5288" data-name="Path 5288" d="M634.44,469.763c-2.5,1.113-3.58,1.4-4.882,1.27-.632-3.954-1.511-7.889-4.008-11.471.673-.273,1.154-.492,1.651-.666.812-.284,1.638-.528,2.451-.811a1.067,1.067,0,0,1,1.43.46,19.754,19.754,0,0,1,3.359,11.218" transform="translate(-278.754 -204.087)"/>
    </g>
  </g>
</svg>
