<svg id="osusume-ttl" xmlns="http://www.w3.org/2000/svg" xmlns:xlink="http://www.w3.org/1999/xlink" width="303.322" height="27.162" viewBox="0 0 303.322 27.162">
  <defs>
    <clipPath id="clip-path">
      <rect id="Rectangle_166" data-name="Rectangle 166" width="303.322" height="27.162" fill="none"/>
    </clipPath>
  </defs>
  <g id="Group_2244" data-name="Group 2244" transform="translate(0 0)" clip-path="url(#clip-path)">
    <path id="Path_4587" data-name="Path 4587" d="M12.315,6.626h4.337v4.907H12.315v1.425h1.044c5.446,0,9.434,3.261,9.434,7.629A7.859,7.859,0,0,1,18.741,27.3l-4.021-3.388c.791-.475,2.438-1.519,2.438-3.229,0-1.646-1.425-3.07-3.64-3.07-.412,0-.791,0-1.2.031v2.945a5.872,5.872,0,0,1-6.11,5.888C1.931,26.475,0,23.689,0,20.681c0-3.767,2.532-6.078,7.028-7.123V11.532H2.248V6.626h4.78V3.587h5.287Zm-5.287,11.9c-1.488.507-2.5,1.2-2.5,2.09a1.148,1.148,0,0,0,1.235,1.235,1.244,1.244,0,0,0,1.266-1.33ZM22.54,15.205l-4.686-5.7,3.609-2.944a16.03,16.03,0,0,1,5,5.445Z" transform="translate(0 -1.244)"/>
    <path id="Path_4588" data-name="Path 4588" d="M52.61,4.845v-3.2h5.065v3.2h7.5V9.594h-7.5V12.6a7.546,7.546,0,0,1,1.963,5.128c0,4.4-2.85,7.693-6.712,9.4l-3.514-3.767a9.4,9.4,0,0,0,4.305-3.07,5.1,5.1,0,0,1-1.9.379c-3.831,0-6.078-2.089-6.078-4.78,0-3.324,2.913-5.35,6.87-5.414V9.594H42.321V4.845ZM52.768,15.2V14.28a2.353,2.353,0,0,0-.823-.127c-.727,0-1.772.411-1.772,1.3a1.2,1.2,0,0,0,1.33,1.076A1.265,1.265,0,0,0,52.768,15.2" transform="translate(-14.684 -0.572)"/>
    <path id="Path_4589" data-name="Path 4589" d="M90.423,4.845v-3.2h5.065v3.2h7.5V9.594h-7.5V12.6A7.546,7.546,0,0,1,97.45,17.73c0,4.4-2.85,7.693-6.712,9.4l-3.514-3.767a9.4,9.4,0,0,0,4.305-3.07,5.1,5.1,0,0,1-1.9.379c-3.831,0-6.078-2.089-6.078-4.78,0-3.324,2.913-5.35,6.87-5.414V9.594H80.134V4.845ZM90.581,15.2V14.28a2.353,2.353,0,0,0-.823-.127c-.727,0-1.772.411-1.772,1.3a1.2,1.2,0,0,0,1.33,1.076A1.265,1.265,0,0,0,90.581,15.2" transform="translate(-27.804 -0.572)"/>
    <path id="Path_4590" data-name="Path 4590" d="M142.346,18.3c0,4.432-3.166,7.6-4.875,8.864l-4.558-3.735c1.9-1.3,3.64-3.229,3.64-5.446a4.55,4.55,0,0,0-1.52-3.355c-2.406,6.458-6.427,10.985-11.745,10.985-3.2,0-6.458-2.628-6.458-6.014a10.436,10.436,0,0,1,4.906-9.212,32.544,32.544,0,0,1-.221-4.59h4.716l.38,2.786a20.465,20.465,0,0,1,4.369-.412c.285-1.3.507-2.532.7-3.609h5.666a43.466,43.466,0,0,1-.727,4.591,9.841,9.841,0,0,1,5.729,9.148M127.4,17.789h-3.8a11.41,11.41,0,0,1-.759-1.868,4.594,4.594,0,0,0-1.235,2.944c0,1.046.918,1.33,2.184,1.33,1.424,0,2.6-.95,3.609-2.406m-.158-4.274.506,3.767a21.489,21.489,0,0,0,1.868-4.115,16.348,16.348,0,0,0-2.374.348" transform="translate(-40.536 -1.581)"/>
    <path id="Path_4591" data-name="Path 4591" d="M191.085,6.332h-6.617l2.089.759a15.336,15.336,0,0,1-1.076,2.216h4.432V26.37a6.236,6.236,0,0,1-3.577.791,19.041,19.041,0,0,1-4.274-.538v-1.14a5.914,5.914,0,0,1-1.076.095,4.548,4.548,0,0,1-1.994-.411h-2.026v.759a4.584,4.584,0,0,1-2.058.443,4.393,4.393,0,0,1-2.057-.443V19.248l-.538.189-1.3-1.931v9.118a6.269,6.269,0,0,1-2.564.507,6.378,6.378,0,0,1-2.5-.507V9.307h4.463l-.6-2.659,1.456-.316h-6.4V2.406h10.415V0h5.382V2.406h10.416Zm-18.013,6.774h-2.058v2.532a5.145,5.145,0,0,0,2.058-2.532m8.168-6.774h-6.681A13.761,13.761,0,0,1,175.6,8.864l-1.9.443h6.427Zm1.8,16.492h1.8V17.633a29.2,29.2,0,0,1-6.268-.411V13.106h-1.14a8.557,8.557,0,0,1-2.755,5h8.358Zm-6.078-.7h1.963V20.957h-1.963Zm7.883-9.022h-2V13.9h2Z" transform="translate(-57.205 0)"/>
    <path id="Path_4592" data-name="Path 4592" d="M222.363,14.269V27.122a6.513,6.513,0,0,1-2.374.412,6.386,6.386,0,0,1-2.374-.412V26.2h-2.786v.886a6.7,6.7,0,0,1-2.532.444,6.585,6.585,0,0,1-2.532-.444V14.269ZM218.785,12.5a6.713,6.713,0,0,1-2.532.443,6.6,6.6,0,0,1-2.532-.443V1.163H232.9V12.5a6.718,6.718,0,0,1-2.532.443,6.6,6.6,0,0,1-2.532-.443Zm-3.957,9.909h2.786V17.751h-2.786ZM227.839,4.645h-9.054V8.7h9.054Zm9.022,9.624V27.09a6.7,6.7,0,0,1-2.532.444,6.587,6.587,0,0,1-2.532-.444V26.2h-3.135v.918a6.505,6.505,0,0,1-2.374.412,6.384,6.384,0,0,1-2.374-.412V14.269Zm-8.2,8.136H231.8V17.751h-3.135Z" transform="translate(-72.781 -0.403)"/>
    <path id="Path_4593" data-name="Path 4593" d="M283.709,25.248c-.855.684-3.846,1.168-6.154.513-.485-.456-.94-.911-1.4-1.367a9.359,9.359,0,0,1-5.442,1.795c-5.1,0-8.062-2.365-8.062-6.381,0-2.564,1.681-4.416,3.647-5.869-1.452-1.938-2.079-3.362-2.079-4.644,0-3.5,2.307-5.384,6.524-5.384,3.789,0,6.125,1.966,6.125,5.243,0,2.393-1.795,4.159-3.789,5.64.769.8,1.652,1.682,2.678,2.707a13.706,13.706,0,0,0,2.365-5.9h4.985a20.045,20.045,0,0,1-3.647,9.543c1.253,1.225,2.678,2.593,4.245,4.1m-11.168-4.416c-1.2-1.225-2.279-2.336-3.191-3.333-.94.769-1.567,1.51-1.567,2.308,0,1.311,1.083,1.966,2.906,1.766a4.019,4.019,0,0,0,1.851-.741m-2.45-9.458c1.14-.769,1.966-1.482,2.023-2.25a1.31,1.31,0,0,0-1.367-1.454c-1.111,0-1.738.542-1.652,1.482a4.689,4.689,0,0,0,1,2.222" transform="translate(-91.132 -1.357)"/>
    <path id="Path_4594" data-name="Path 4594" d="M323.794,6.024a36.059,36.059,0,0,1-8.577,7.081h2.992v13.33a9.428,9.428,0,0,1-3.325.565,8.786,8.786,0,0,1-3.323-.565v-11.4a31.626,31.626,0,0,1-7.712,2.427l-2.659-4.953A51.839,51.839,0,0,0,318.94,1.4Z" transform="translate(-104.503 -0.487)"/>
    <path id="Path_4595" data-name="Path 4595" d="M351.034,16.346l-6.116,5.983-4.688-4.387c3.258-3.457,7.081-7.147,10.072-10.006l17.286,11.4-4.222,5.884Zm7.313-7.612a1.66,1.66,0,0,1,1.661-1.629,1.646,1.646,0,0,1,0,3.291,1.667,1.667,0,0,1-1.661-1.663m3.922,0a1.645,1.645,0,0,1,3.291,0,1.645,1.645,0,1,1-3.291,0" transform="translate(-118.048 -2.465)"/>
    <path id="Path_4596" data-name="Path 4596" d="M390.674,5.985h10.172v5.651H390.674Zm1.961,15.823c7.679-1.529,11.569-5.452,13.264-11.5h6.549a19.83,19.83,0,0,1-16.82,17.286Z" transform="translate(-135.551 -2.076)"/>
    <path id="Path_4597" data-name="Path 4597" d="M451.166,21.11a72,72,0,0,0-7.014-5.352v11.1a9.425,9.425,0,0,1-3.324.565,8.8,8.8,0,0,1-3.325-.565V2.727h6.649V13.5l2.061-2.726a19.636,19.636,0,0,1,8.909,4.987Z" transform="translate(-151.799 -0.946)"/>
  </g>
</svg>
