<svg xmlns="http://www.w3.org/2000/svg" xmlns:xlink="http://www.w3.org/1999/xlink" width="463" height="699.079" viewBox="0 0 463 699.079">
  <defs>
    <clipPath id="clip-path">
      <rect id="Rectangle_137" data-name="Rectangle 137" width="377" height="660" transform="translate(-2 372)" fill="#fff"/>
    </clipPath>
    <clipPath id="clip-path-2">
      <rect id="Rectangle_107" data-name="Rectangle 107" width="230.228" height="220.255" fill="none" stroke="#1a1311" stroke-width="2"/>
    </clipPath>
    <clipPath id="clip-path-3">
      <rect id="Rectangle_107-2" data-name="Rectangle 107" width="230.228" height="220.255" fill="#00942c" stroke="#1a1311" stroke-width="2"/>
    </clipPath>
    <clipPath id="clip-path-4">
      <circle id="Ellipse_69" data-name="Ellipse 69" cx="75.5" cy="75.5" r="75.5" transform="translate(0.114 0.114)" fill="#028cca" stroke="#1a1311" stroke-width="2"/>
    </clipPath>
    <clipPath id="clip-path-5">
      <rect id="Rectangle_105" data-name="Rectangle 105" width="49.299" height="49.508" fill="none"/>
    </clipPath>
  </defs>
  <g id="oyatsu-mb" transform="translate(2 -371.921)">
    <g id="線" clip-path="url(#clip-path)">
      <g id="線-2" data-name="線" transform="translate(-277 -395.579)">
        <g id="Group_2175" data-name="Group 2175" transform="translate(-27.092 768.2)">
          <line id="Line_5" data-name="Line 5" y2="672.979" transform="translate(0)" fill="none" stroke="#1a1311" stroke-linecap="round" stroke-width="2"/>
          <line id="Line_5-2" data-name="Line 5" y2="672.979" transform="translate(36.415)" fill="none" stroke="#1a1311" stroke-linecap="round" stroke-width="2"/>
          <line id="Line_5-3" data-name="Line 5" y2="672.979" transform="translate(72.83)" fill="none" stroke="#1a1311" stroke-linecap="round" stroke-width="2"/>
          <line id="Line_5-4" data-name="Line 5" y2="672.979" transform="translate(109.245)" fill="none" stroke="#1a1311" stroke-linecap="round" stroke-width="2"/>
          <line id="Line_5-5" data-name="Line 5" y2="672.979" transform="translate(145.66)" fill="none" stroke="#1a1311" stroke-linecap="round" stroke-width="2"/>
          <line id="Line_5-6" data-name="Line 5" y2="672.979" transform="translate(182.076)" fill="none" stroke="#1a1311" stroke-linecap="round" stroke-width="2"/>
          <line id="Line_5-7" data-name="Line 5" y2="672.979" transform="translate(218.491)" fill="none" stroke="#1a1311" stroke-linecap="round" stroke-width="2"/>
          <line id="Line_5-8" data-name="Line 5" y2="672.979" transform="translate(254.906)" fill="none" stroke="#1a1311" stroke-linecap="round" stroke-width="2"/>
          <line id="Line_5-9" data-name="Line 5" y2="672.979" transform="translate(291.321)" fill="none" stroke="#1a1311" stroke-linecap="round" stroke-width="2"/>
          <line id="Line_5-10" data-name="Line 5" y2="672.979" transform="translate(327.736)" fill="none" stroke="#1a1311" stroke-linecap="round" stroke-width="2"/>
          <line id="Line_5-11" data-name="Line 5" y2="672.979" transform="translate(364.151)" fill="none" stroke="#1a1311" stroke-linecap="round" stroke-width="2"/>
          <line id="Line_5-12" data-name="Line 5" y2="672.979" transform="translate(400.566)" fill="none" stroke="#1a1311" stroke-linecap="round" stroke-width="2"/>
          <line id="Line_5-13" data-name="Line 5" y2="672.979" transform="translate(436.981)" fill="none" stroke="#1a1311" stroke-linecap="round" stroke-width="2"/>
          <line id="Line_5-14" data-name="Line 5" y2="672.979" transform="translate(473.397)" fill="none" stroke="#1a1311" stroke-linecap="round" stroke-width="2"/>
          <line id="Line_5-15" data-name="Line 5" y2="672.979" transform="translate(509.812)" fill="none" stroke="#1a1311" stroke-linecap="round" stroke-width="2"/>
          <line id="Line_5-16" data-name="Line 5" y2="672.979" transform="translate(546.227)" fill="none" stroke="#1a1311" stroke-linecap="round" stroke-width="2"/>
          <line id="Line_5-17" data-name="Line 5" y2="672.979" transform="translate(582.642)" fill="none" stroke="#1a1311" stroke-linecap="round" stroke-width="2"/>
          <line id="Line_5-18" data-name="Line 5" y2="672.979" transform="translate(619.057)" fill="none" stroke="#1a1311" stroke-linecap="round" stroke-width="2"/>
          <line id="Line_5-19" data-name="Line 5" y2="672.979" transform="translate(655.472)" fill="none" stroke="#1a1311" stroke-linecap="round" stroke-width="2"/>
          <line id="Line_5-20" data-name="Line 5" y2="672.979" transform="translate(691.887)" fill="none" stroke="#1a1311" stroke-linecap="round" stroke-width="2"/>
          <line id="Line_5-21" data-name="Line 5" y2="672.979" transform="translate(728.302)" fill="none" stroke="#1a1311" stroke-linecap="round" stroke-width="2"/>
          <line id="Line_5-22" data-name="Line 5" y2="672.979" transform="translate(764.717)" fill="none" stroke="#1a1311" stroke-linecap="round" stroke-width="2"/>
          <line id="Line_5-23" data-name="Line 5" y2="672.979" transform="translate(801.133)" fill="none" stroke="#1a1311" stroke-linecap="round" stroke-width="2"/>
          <line id="Line_5-24" data-name="Line 5" y2="672.979" transform="translate(837.548)" fill="none" stroke="#1a1311" stroke-linecap="round" stroke-width="2"/>
          <line id="Line_5-25" data-name="Line 5" y2="672.979" transform="translate(873.963)" fill="none" stroke="#1a1311" stroke-linecap="round" stroke-width="2"/>
          <line id="Line_5-26" data-name="Line 5" y2="672.979" transform="translate(910.378)" fill="none" stroke="#1a1311" stroke-linecap="round" stroke-width="2"/>
          <line id="Line_5-27" data-name="Line 5" y2="672.979" transform="translate(946.793)" fill="none" stroke="#1a1311" stroke-linecap="round" stroke-width="2"/>
          <line id="Line_5-28" data-name="Line 5" y2="672.979" transform="translate(983.208)" fill="none" stroke="#1a1311" stroke-linecap="round" stroke-width="2"/>
        </g>
        <g id="Group_2176" data-name="Group 2176" transform="translate(-46 1750.708) rotate(-90)">
          <line id="Line_5-29" data-name="Line 5" y2="1020.805" transform="translate(218.491 0)" fill="none" stroke="#1a1311" stroke-linecap="round" stroke-width="2"/>
          <line id="Line_5-30" data-name="Line 5" y2="1020.805" transform="translate(254.906 0)" fill="none" stroke="#1a1311" stroke-linecap="round" stroke-width="2"/>
          <line id="Line_5-31" data-name="Line 5" y2="1020.805" transform="translate(291.321 0)" fill="none" stroke="#1a1311" stroke-linecap="round" stroke-width="2"/>
          <line id="Line_5-32" data-name="Line 5" y2="1020.805" transform="translate(327.736 0)" fill="none" stroke="#1a1311" stroke-linecap="round" stroke-width="2"/>
          <line id="Line_5-33" data-name="Line 5" y2="1020.805" transform="translate(364.151 0)" fill="none" stroke="#1a1311" stroke-linecap="round" stroke-width="2"/>
          <line id="Line_5-34" data-name="Line 5" y2="1020.805" transform="translate(400.566 0)" fill="none" stroke="#1a1311" stroke-linecap="round" stroke-width="2"/>
          <line id="Line_5-35" data-name="Line 5" y2="1020.805" transform="translate(436.981 0)" fill="none" stroke="#1a1311" stroke-linecap="round" stroke-width="2"/>
          <line id="Line_5-36" data-name="Line 5" y2="1020.805" transform="translate(473.397 0)" fill="none" stroke="#1a1311" stroke-linecap="round" stroke-width="2"/>
          <line id="Line_5-37" data-name="Line 5" y2="1020.805" transform="translate(509.812 0)" fill="none" stroke="#1a1311" stroke-linecap="round" stroke-width="2"/>
          <line id="Line_5-38" data-name="Line 5" y2="1020.805" transform="translate(546.227 0)" fill="none" stroke="#1a1311" stroke-linecap="round" stroke-width="2"/>
          <line id="Line_5-39" data-name="Line 5" y2="1020.805" transform="translate(582.642 0)" fill="none" stroke="#1a1311" stroke-linecap="round" stroke-width="2"/>
          <line id="Line_5-40" data-name="Line 5" y2="1020.805" transform="translate(619.057 0)" fill="none" stroke="#1a1311" stroke-linecap="round" stroke-width="2"/>
          <line id="Line_5-41" data-name="Line 5" y2="1020.805" transform="translate(655.472 0)" fill="none" stroke="#1a1311" stroke-linecap="round" stroke-width="2"/>
          <line id="Line_5-42" data-name="Line 5" y2="1020.805" transform="translate(691.887 0)" fill="none" stroke="#1a1311" stroke-linecap="round" stroke-width="2"/>
          <line id="Line_5-43" data-name="Line 5" y2="1020.805" transform="translate(728.302 0)" fill="none" stroke="#1a1311" stroke-linecap="round" stroke-width="2"/>
          <line id="Line_5-44" data-name="Line 5" y2="1020.805" transform="translate(764.717 0)" fill="none" stroke="#1a1311" stroke-linecap="round" stroke-width="2"/>
          <line id="Line_5-45" data-name="Line 5" y2="1020.805" transform="translate(801.133 0)" fill="none" stroke="#1a1311" stroke-linecap="round" stroke-width="2"/>
          <line id="Line_5-46" data-name="Line 5" y2="1020.805" transform="translate(837.548 0)" fill="none" stroke="#1a1311" stroke-linecap="round" stroke-width="2"/>
          <line id="Line_5-47" data-name="Line 5" y2="1020.805" transform="translate(873.963 0)" fill="none" stroke="#1a1311" stroke-linecap="round" stroke-width="2"/>
          <line id="Line_5-48" data-name="Line 5" y2="1020.805" transform="translate(910.378 0)" fill="none" stroke="#1a1311" stroke-linecap="round" stroke-width="2"/>
          <line id="Line_5-49" data-name="Line 5" y2="1020.805" transform="translate(946.793 0)" fill="none" stroke="#1a1311" stroke-linecap="round" stroke-width="2"/>
          <line id="Line_5-50" data-name="Line 5" y2="1020.805" transform="translate(983.208 0)" fill="none" stroke="#1a1311" stroke-linecap="round" stroke-width="2"/>
        </g>
      </g>
    </g>
    <path id="装飾_04" d="M0,0H132.394V255.781Z" transform="translate(242.606 393.266)" fill="#e64a00" stroke="#1a1311" stroke-width="2"/>
    <g id="装飾_02" transform="translate(-2 371.921)">
      <g id="Group_2180" data-name="Group 2180" clip-path="url(#clip-path-2)">
        <path id="Path_4271" data-name="Path 4271" d="M0,0V220.255a216.072,216.072,0,0,1,17.972-49.441c8.285-15.9,18.089-28.684,29.138-37.986,13.838-11.65,29.672-17.843,47.062-18.409,29.5-.96,49.736-7.11,63.668-19.354C170.389,84.038,176.708,69,183.4,53.071c2.315-5.512,4.71-11.212,7.438-16.95,9.719-20.442,22.486-29.452,31.485-33.412A46.783,46.783,0,0,1,230.228.028Z" fill="#a7d3b4" stroke="#1a1311" stroke-width="2"/>
      </g>
    </g>
    <g id="装飾_02-2" data-name="装飾_02" transform="translate(144.772 840.745)">
      <g id="Group_2180-2" data-name="Group 2180" clip-path="url(#clip-path-3)">
        <path id="Path_4271-2" data-name="Path 4271" d="M230.228,220.255V0a216.072,216.072,0,0,1-17.972,49.441c-8.285,15.9-18.089,28.684-29.138,37.986-13.838,11.65-29.672,17.843-47.062,18.409-29.5.96-49.736,7.11-63.668,19.354-12.549,11.028-18.868,26.07-25.558,41.994-2.315,5.512-4.71,11.212-7.438,16.95-9.719,20.442-22.486,29.452-31.485,33.412A46.784,46.784,0,0,1,0,220.227Z" fill="#00942c" stroke="#1a1311" stroke-width="2"/>
      </g>
    </g>
    <g id="装飾_05" transform="translate(-688.703 -365.703)">
      <g id="Ellipse_68" data-name="Ellipse 68" transform="translate(998.703 1285.703)" fill="#028cca" stroke="#1a1311" stroke-width="2">
        <circle cx="75.5" cy="75.5" r="75.5" stroke="none"/>
        <circle cx="75.5" cy="75.5" r="74.5" fill="none"/>
      </g>
      <g id="Mask_Group_2" data-name="Mask Group 2" transform="translate(998.589 1285.589)" clip-path="url(#clip-path-4)">
        <g id="Group_2173" data-name="Group 2173" transform="translate(1.772 -32.056)">
          <g id="Group_2167" data-name="Group 2167" transform="translate(0 71.171)">
            <g id="Group_2166" data-name="Group 2166" clip-path="url(#clip-path-5)">
              <path id="Path_4252" data-name="Path 4252" d="M21.75,10.352a5.008,5.008,0,0,1,.7-3.553A5.248,5.248,0,0,1,26.1,4.715a4.773,4.773,0,0,0,3.257-1.788,4.117,4.117,0,0,0,.65-2.8L30.736,0a4.8,4.8,0,0,1-.767,3.345,5.472,5.472,0,0,1-3.744,2.1,4.546,4.546,0,0,0-3.152,1.763,4.319,4.319,0,0,0-.6,2.992Z" transform="translate(-14.067)" fill="#1a1311"/>
              <path id="Path_4253" data-name="Path 4253" d="M52.949,60.344a4.576,4.576,0,0,1-2.184-.535,5.471,5.471,0,0,1-2.516-3.479,4.547,4.547,0,0,0-2.112-2.93,4.321,4.321,0,0,0-3.04-.25l-.233-.7a5.011,5.011,0,0,1,3.61.293,5.248,5.248,0,0,1,2.487,3.382,4.764,4.764,0,0,0,2.157,3.036,4.075,4.075,0,0,0,2.843.322l.214.709a4.566,4.566,0,0,1-1.226.155" transform="translate(-27.817 -33.9)" fill="#1a1311"/>
              <path id="Path_4254" data-name="Path 4254" d="M20.633,36l-.74-.038c0-.1.164-2.476,3.338-3.747,2.72-1.09,2.933-2.959,2.941-3.038l.738.065c-.008.1-.237,2.393-3.4,3.661-2.739,1.1-2.873,3.077-2.874,3.1" transform="translate(-12.91 -18.937)" fill="#1a1311"/>
              <path id="Path_4255" data-name="Path 4255" d="M119.984,88.911a6.452,6.452,0,0,1-2.5-.547c-2.7-1.13-4.162.136-4.223.19l-.5-.548c.074-.068,1.856-1.648,5.008-.325,2.7,1.133,4.166-.048,4.227-.1l.48.564a3.969,3.969,0,0,1-2.493.765" transform="translate(-73.179 -56.56)" fill="#1a1311"/>
              <path id="Path_4256" data-name="Path 4256" d="M110.4,64.27l-.74-.041c0-.08.131-1.979,2.649-2.987,2.064-.827,2.231-2.235,2.237-2.3l.739.066c-.007.078-.19,1.912-2.7,2.917-2.058.824-2.18,2.279-2.184,2.341" transform="translate(-71.165 -38.254)" fill="#1a1311"/>
              <path id="Path_4257" data-name="Path 4257" d="M10.626,6.978A4.781,4.781,0,0,1,8.02,6.125c-1.915-1.238-3.21-.475-3.264-.442l-.394-.628C4.432,5.012,6.091,4,8.423,5.5c1.92,1.241,3.2.542,3.257.513l.373.641a2.976,2.976,0,0,1-1.427.322" transform="translate(-2.831 -3.037)" fill="#1a1311"/>
              <path id="Path_4258" data-name="Path 4258" d="M89.68,72.024A2.267,2.267,0,0,1,87.7,69.676c-.083-1.51-1.118-1.676-1.236-1.69l.077-.737a2.305,2.305,0,0,1,1.9,2.387c.082,1.5,1.169,1.639,1.293,1.649Z" transform="translate(-56.113 -43.642)" fill="#1a1311"/>
              <path id="Path_4259" data-name="Path 4259" d="M129.277,107.459a2.267,2.267,0,0,1-.261-3.06,1.549,1.549,0,0,0-.033-2.093l.488-.558a2.305,2.305,0,0,1,.173,3.046,1.516,1.516,0,0,0,.1,2.09Z" transform="translate(-83.428 -66.031)" fill="#1a1311"/>
              <path id="Path_4260" data-name="Path 4260" d="M35.873,91.868c-.078-.016-1.92-.421-2.642-3.093-.6-2.227-2.112-2.51-2.127-2.512l.125-.731c.081.014,1.994.37,2.718,3.049.6,2.235,2.059,2.557,2.074,2.56Z" transform="translate(-20.186 -55.507)" fill="#1a1311"/>
              <path id="Path_4261" data-name="Path 4261" d="M7.635,54.1a3.2,3.2,0,0,1-.65-.066A4.022,4.022,0,0,1,4.473,52.12,3.159,3.159,0,0,0,2.48,50.588a2.954,2.954,0,0,0-2.054.439L0,50.421a3.712,3.712,0,0,1,2.62-.56,3.863,3.863,0,0,1,2.474,1.856A3.015,3.015,0,0,0,7.724,53.36a2.917,2.917,0,0,0,1.353-.4l.408.619a3.62,3.62,0,0,1-1.85.524" transform="translate(0 -32.321)" fill="#1a1311"/>
              <path id="Path_4262" data-name="Path 4262" d="M61.526,91.544a6.73,6.73,0,0,1-3.833-1.352c-2.411-1.673-4.153-1.2-4.17-1.2l-.211-.711c.083-.025,2.077-.594,4.8,1.3,2.406,1.671,4.113,1.151,4.185,1.129l.233.7a3.386,3.386,0,0,1-1.007.128" transform="translate(-34.597 -57.228)" fill="#1a1311"/>
              <path id="Path_4263" data-name="Path 4263" d="M55.513,25.443c-.1-.04-2.394-1.007-2.307-4.534.075-3.01-1.919-3.776-1.939-3.783l.256-.7c.1.038,2.512.963,2.425,4.5-.074,2.992,1.767,3.8,1.845,3.829Z" transform="translate(-33.27 -10.662)" fill="#1a1311"/>
              <path id="Path_4264" data-name="Path 4264" d="M61.659,118.991l-.721-.174a2.311,2.311,0,0,0-.3-1.783,1.933,1.933,0,0,0-1.706-.471,5.315,5.315,0,0,1-4.958-2.553l.645-.365a4.571,4.571,0,0,0,4.249,2.18,2.612,2.612,0,0,1,2.334.729,3.025,3.025,0,0,1,.455,2.438" transform="translate(-35.028 -73.752)" fill="#1a1311"/>
              <path id="Path_4265" data-name="Path 4265" d="M13.585,110.339c-.026-.091-.621-2.261,1.736-4.72,2.04-2.127,1.5-3.954,1.478-4.031l.706-.227c.031.093.715,2.307-1.648,4.771-2.045,2.132-1.58,3.927-1.559,4Z" transform="translate(-8.76 -65.78)" fill="#1a1311"/>
              <path id="Path_4266" data-name="Path 4266" d="M97.764,127.382a2.953,2.953,0,0,1-1.156-.24c-2.722-1.148-4.232-.074-4.3-.027l-.445-.593c.076-.058,1.89-1.388,5.029-.064,2.627,1.109,4.892-3.3,4.915-3.342l.661.335a11.057,11.057,0,0,1-1.639,2.316,4.345,4.345,0,0,1-3.07,1.614" transform="translate(-59.619 -79.899)" fill="#1a1311"/>
              <path id="Path_4267" data-name="Path 4267" d="M83.7,50.742c-.912,0-3.121-.354-4.695-3.508A2.84,2.84,0,0,0,77.129,45.5a3.52,3.52,0,0,0-2.557.873l-.495-.552a4.187,4.187,0,0,1,3.187-1.05A3.524,3.524,0,0,1,79.67,46.9c1.728,3.464,4.215,3.1,4.319,3.08l.127.731a2.565,2.565,0,0,1-.415.029" transform="translate(-48.073 -29.024)" fill="#1a1311"/>
              <path id="Path_4268" data-name="Path 4268" d="M9.737,78.493a3.454,3.454,0,0,1,.127-2.76A2.9,2.9,0,0,1,12.208,74.5c3.039-.3,3.469-2.228,3.485-2.31l.728.141c-.02.1-.527,2.546-4.14,2.907a2.218,2.218,0,0,0-1.784.882,2.75,2.75,0,0,0-.068,2.108Z" transform="translate(-6.164 -46.847)" fill="#1a1311"/>
              <path id="Path_4269" data-name="Path 4269" d="M37.4,129.46a2.487,2.487,0,0,1-1.018-.206,2.9,2.9,0,0,1-1.531-2.162c-.7-2.972-2.664-3.146-2.748-3.152l.045-.74c.105.006,2.593.189,3.424,3.723a2.219,2.219,0,0,0,1.109,1.653,2.747,2.747,0,0,0,2.1-.209l.355.651a4.01,4.01,0,0,1-1.734.442" transform="translate(-20.836 -79.952)" fill="#1a1311"/>
              <path id="Path_4270" data-name="Path 4270" d="M101.826,97.778A3.31,3.31,0,0,1,99.6,96.611a3.15,3.15,0,0,1-.421-2.64c.605-2.85-.9-4.041-.967-4.09l.445-.593c.08.06,1.956,1.5,1.248,4.837a2.454,2.454,0,0,0,.285,2.037,2.594,2.594,0,0,0,1.691.878Z" transform="translate(-63.737 -57.944)" fill="#1a1311"/>
            </g>
          </g>
          <g id="Group_2168" data-name="Group 2168" transform="translate(21.001 33.835)">
            <g id="Group_2166-2" data-name="Group 2166" clip-path="url(#clip-path-5)">
              <path id="Path_4252-2" data-name="Path 4252" d="M21.75,10.352a5.008,5.008,0,0,1,.7-3.553A5.248,5.248,0,0,1,26.1,4.715a4.773,4.773,0,0,0,3.257-1.788,4.117,4.117,0,0,0,.65-2.8L30.736,0a4.8,4.8,0,0,1-.767,3.345,5.472,5.472,0,0,1-3.744,2.1,4.546,4.546,0,0,0-3.152,1.763,4.319,4.319,0,0,0-.6,2.992Z" transform="translate(-14.067)" fill="#1a1311"/>
              <path id="Path_4253-2" data-name="Path 4253" d="M52.949,60.344a4.576,4.576,0,0,1-2.184-.535,5.471,5.471,0,0,1-2.516-3.479,4.547,4.547,0,0,0-2.112-2.93,4.321,4.321,0,0,0-3.04-.25l-.233-.7a5.011,5.011,0,0,1,3.61.293,5.248,5.248,0,0,1,2.487,3.382,4.764,4.764,0,0,0,2.157,3.036,4.075,4.075,0,0,0,2.843.322l.214.709a4.566,4.566,0,0,1-1.226.155" transform="translate(-27.817 -33.9)" fill="#1a1311"/>
              <path id="Path_4254-2" data-name="Path 4254" d="M20.633,36l-.74-.038c0-.1.164-2.476,3.338-3.747,2.72-1.09,2.933-2.959,2.941-3.038l.738.065c-.008.1-.237,2.393-3.4,3.661-2.739,1.1-2.873,3.077-2.874,3.1" transform="translate(-12.91 -18.937)" fill="#1a1311"/>
              <path id="Path_4255-2" data-name="Path 4255" d="M119.984,88.911a6.452,6.452,0,0,1-2.5-.547c-2.7-1.13-4.162.136-4.223.19l-.5-.548c.074-.068,1.856-1.648,5.008-.325,2.7,1.133,4.166-.048,4.227-.1l.48.564a3.969,3.969,0,0,1-2.493.765" transform="translate(-73.179 -56.56)" fill="#1a1311"/>
              <path id="Path_4256-2" data-name="Path 4256" d="M110.4,64.27l-.74-.041c0-.08.131-1.979,2.649-2.987,2.064-.827,2.231-2.235,2.237-2.3l.739.066c-.007.078-.19,1.912-2.7,2.917-2.058.824-2.18,2.279-2.184,2.341" transform="translate(-71.165 -38.254)" fill="#1a1311"/>
              <path id="Path_4257-2" data-name="Path 4257" d="M10.626,6.978A4.781,4.781,0,0,1,8.02,6.125c-1.915-1.238-3.21-.475-3.264-.442l-.394-.628C4.432,5.012,6.091,4,8.423,5.5c1.92,1.241,3.2.542,3.257.513l.373.641a2.976,2.976,0,0,1-1.427.322" transform="translate(-2.831 -3.037)" fill="#1a1311"/>
              <path id="Path_4258-2" data-name="Path 4258" d="M89.68,72.024A2.267,2.267,0,0,1,87.7,69.676c-.083-1.51-1.118-1.676-1.236-1.69l.077-.737a2.305,2.305,0,0,1,1.9,2.387c.082,1.5,1.169,1.639,1.293,1.649Z" transform="translate(-56.113 -43.642)" fill="#1a1311"/>
              <path id="Path_4259-2" data-name="Path 4259" d="M129.277,107.459a2.267,2.267,0,0,1-.261-3.06,1.549,1.549,0,0,0-.033-2.093l.488-.558a2.305,2.305,0,0,1,.173,3.046,1.516,1.516,0,0,0,.1,2.09Z" transform="translate(-83.428 -66.031)" fill="#1a1311"/>
              <path id="Path_4260-2" data-name="Path 4260" d="M35.873,91.868c-.078-.016-1.92-.421-2.642-3.093-.6-2.227-2.112-2.51-2.127-2.512l.125-.731c.081.014,1.994.37,2.718,3.049.6,2.235,2.059,2.557,2.074,2.56Z" transform="translate(-20.186 -55.507)" fill="#1a1311"/>
              <path id="Path_4261-2" data-name="Path 4261" d="M7.635,54.1a3.2,3.2,0,0,1-.65-.066A4.022,4.022,0,0,1,4.473,52.12,3.159,3.159,0,0,0,2.48,50.588a2.954,2.954,0,0,0-2.054.439L0,50.421a3.712,3.712,0,0,1,2.62-.56,3.863,3.863,0,0,1,2.474,1.856A3.015,3.015,0,0,0,7.724,53.36a2.917,2.917,0,0,0,1.353-.4l.408.619a3.62,3.62,0,0,1-1.85.524" transform="translate(0 -32.321)" fill="#1a1311"/>
              <path id="Path_4262-2" data-name="Path 4262" d="M61.526,91.544a6.73,6.73,0,0,1-3.833-1.352c-2.411-1.673-4.153-1.2-4.17-1.2l-.211-.711c.083-.025,2.077-.594,4.8,1.3,2.406,1.671,4.113,1.151,4.185,1.129l.233.7a3.386,3.386,0,0,1-1.007.128" transform="translate(-34.597 -57.228)" fill="#1a1311"/>
              <path id="Path_4263-2" data-name="Path 4263" d="M55.513,25.443c-.1-.04-2.394-1.007-2.307-4.534.075-3.01-1.919-3.776-1.939-3.783l.256-.7c.1.038,2.512.963,2.425,4.5-.074,2.992,1.767,3.8,1.845,3.829Z" transform="translate(-33.27 -10.662)" fill="#1a1311"/>
              <path id="Path_4264-2" data-name="Path 4264" d="M61.659,118.991l-.721-.174a2.311,2.311,0,0,0-.3-1.783,1.933,1.933,0,0,0-1.706-.471,5.315,5.315,0,0,1-4.958-2.553l.645-.365a4.571,4.571,0,0,0,4.249,2.18,2.612,2.612,0,0,1,2.334.729,3.025,3.025,0,0,1,.455,2.438" transform="translate(-35.028 -73.752)" fill="#1a1311"/>
              <path id="Path_4265-2" data-name="Path 4265" d="M13.585,110.339c-.026-.091-.621-2.261,1.736-4.72,2.04-2.127,1.5-3.954,1.478-4.031l.706-.227c.031.093.715,2.307-1.648,4.771-2.045,2.132-1.58,3.927-1.559,4Z" transform="translate(-8.76 -65.78)" fill="#1a1311"/>
              <path id="Path_4266-2" data-name="Path 4266" d="M97.764,127.382a2.953,2.953,0,0,1-1.156-.24c-2.722-1.148-4.232-.074-4.3-.027l-.445-.593c.076-.058,1.89-1.388,5.029-.064,2.627,1.109,4.892-3.3,4.915-3.342l.661.335a11.057,11.057,0,0,1-1.639,2.316,4.345,4.345,0,0,1-3.07,1.614" transform="translate(-59.619 -79.899)" fill="#1a1311"/>
              <path id="Path_4267-2" data-name="Path 4267" d="M83.7,50.742c-.912,0-3.121-.354-4.695-3.508A2.84,2.84,0,0,0,77.129,45.5a3.52,3.52,0,0,0-2.557.873l-.495-.552a4.187,4.187,0,0,1,3.187-1.05A3.524,3.524,0,0,1,79.67,46.9c1.728,3.464,4.215,3.1,4.319,3.08l.127.731a2.565,2.565,0,0,1-.415.029" transform="translate(-48.073 -29.024)" fill="#1a1311"/>
              <path id="Path_4268-2" data-name="Path 4268" d="M9.737,78.493a3.454,3.454,0,0,1,.127-2.76A2.9,2.9,0,0,1,12.208,74.5c3.039-.3,3.469-2.228,3.485-2.31l.728.141c-.02.1-.527,2.546-4.14,2.907a2.218,2.218,0,0,0-1.784.882,2.75,2.75,0,0,0-.068,2.108Z" transform="translate(-6.164 -46.847)" fill="#1a1311"/>
              <path id="Path_4269-2" data-name="Path 4269" d="M37.4,129.46a2.487,2.487,0,0,1-1.018-.206,2.9,2.9,0,0,1-1.531-2.162c-.7-2.972-2.664-3.146-2.748-3.152l.045-.74c.105.006,2.593.189,3.424,3.723a2.219,2.219,0,0,0,1.109,1.653,2.747,2.747,0,0,0,2.1-.209l.355.651a4.01,4.01,0,0,1-1.734.442" transform="translate(-20.836 -79.952)" fill="#1a1311"/>
              <path id="Path_4270-2" data-name="Path 4270" d="M101.826,97.778A3.31,3.31,0,0,1,99.6,96.611a3.15,3.15,0,0,1-.421-2.64c.605-2.85-.9-4.041-.967-4.09l.445-.593c.08.06,1.956,1.5,1.248,4.837a2.454,2.454,0,0,0,.285,2.037,2.594,2.594,0,0,0,1.691.878Z" transform="translate(-63.737 -57.944)" fill="#1a1311"/>
            </g>
          </g>
          <g id="Group_2169" data-name="Group 2169" transform="translate(49.299)">
            <g id="Group_2166-3" data-name="Group 2166" clip-path="url(#clip-path-5)">
              <path id="Path_4252-3" data-name="Path 4252" d="M21.75,10.352a5.008,5.008,0,0,1,.7-3.553A5.248,5.248,0,0,1,26.1,4.715a4.773,4.773,0,0,0,3.257-1.788,4.117,4.117,0,0,0,.65-2.8L30.736,0a4.8,4.8,0,0,1-.767,3.345,5.472,5.472,0,0,1-3.744,2.1,4.546,4.546,0,0,0-3.152,1.763,4.319,4.319,0,0,0-.6,2.992Z" transform="translate(-14.067)" fill="#1a1311"/>
              <path id="Path_4253-3" data-name="Path 4253" d="M52.949,60.344a4.576,4.576,0,0,1-2.184-.535,5.471,5.471,0,0,1-2.516-3.479,4.547,4.547,0,0,0-2.112-2.93,4.321,4.321,0,0,0-3.04-.25l-.233-.7a5.011,5.011,0,0,1,3.61.293,5.248,5.248,0,0,1,2.487,3.382,4.764,4.764,0,0,0,2.157,3.036,4.075,4.075,0,0,0,2.843.322l.214.709a4.566,4.566,0,0,1-1.226.155" transform="translate(-27.817 -33.9)" fill="#1a1311"/>
              <path id="Path_4254-3" data-name="Path 4254" d="M20.633,36l-.74-.038c0-.1.164-2.476,3.338-3.747,2.72-1.09,2.933-2.959,2.941-3.038l.738.065c-.008.1-.237,2.393-3.4,3.661-2.739,1.1-2.873,3.077-2.874,3.1" transform="translate(-12.91 -18.937)" fill="#1a1311"/>
              <path id="Path_4255-3" data-name="Path 4255" d="M119.984,88.911a6.452,6.452,0,0,1-2.5-.547c-2.7-1.13-4.162.136-4.223.19l-.5-.548c.074-.068,1.856-1.648,5.008-.325,2.7,1.133,4.166-.048,4.227-.1l.48.564a3.969,3.969,0,0,1-2.493.765" transform="translate(-73.179 -56.56)" fill="#1a1311"/>
              <path id="Path_4256-3" data-name="Path 4256" d="M110.4,64.27l-.74-.041c0-.08.131-1.979,2.649-2.987,2.064-.827,2.231-2.235,2.237-2.3l.739.066c-.007.078-.19,1.912-2.7,2.917-2.058.824-2.18,2.279-2.184,2.341" transform="translate(-71.165 -38.254)" fill="#1a1311"/>
              <path id="Path_4257-3" data-name="Path 4257" d="M10.626,6.978A4.781,4.781,0,0,1,8.02,6.125c-1.915-1.238-3.21-.475-3.264-.442l-.394-.628C4.432,5.012,6.091,4,8.423,5.5c1.92,1.241,3.2.542,3.257.513l.373.641a2.976,2.976,0,0,1-1.427.322" transform="translate(-2.831 -3.037)" fill="#1a1311"/>
              <path id="Path_4258-3" data-name="Path 4258" d="M89.68,72.024A2.267,2.267,0,0,1,87.7,69.676c-.083-1.51-1.118-1.676-1.236-1.69l.077-.737a2.305,2.305,0,0,1,1.9,2.387c.082,1.5,1.169,1.639,1.293,1.649Z" transform="translate(-56.113 -43.642)" fill="#1a1311"/>
              <path id="Path_4259-3" data-name="Path 4259" d="M129.277,107.459a2.267,2.267,0,0,1-.261-3.06,1.549,1.549,0,0,0-.033-2.093l.488-.558a2.305,2.305,0,0,1,.173,3.046,1.516,1.516,0,0,0,.1,2.09Z" transform="translate(-83.428 -66.031)" fill="#1a1311"/>
              <path id="Path_4260-3" data-name="Path 4260" d="M35.873,91.868c-.078-.016-1.92-.421-2.642-3.093-.6-2.227-2.112-2.51-2.127-2.512l.125-.731c.081.014,1.994.37,2.718,3.049.6,2.235,2.059,2.557,2.074,2.56Z" transform="translate(-20.186 -55.507)" fill="#1a1311"/>
              <path id="Path_4261-3" data-name="Path 4261" d="M7.635,54.1a3.2,3.2,0,0,1-.65-.066A4.022,4.022,0,0,1,4.473,52.12,3.159,3.159,0,0,0,2.48,50.588a2.954,2.954,0,0,0-2.054.439L0,50.421a3.712,3.712,0,0,1,2.62-.56,3.863,3.863,0,0,1,2.474,1.856A3.015,3.015,0,0,0,7.724,53.36a2.917,2.917,0,0,0,1.353-.4l.408.619a3.62,3.62,0,0,1-1.85.524" transform="translate(0 -32.321)" fill="#1a1311"/>
              <path id="Path_4262-3" data-name="Path 4262" d="M61.526,91.544a6.73,6.73,0,0,1-3.833-1.352c-2.411-1.673-4.153-1.2-4.17-1.2l-.211-.711c.083-.025,2.077-.594,4.8,1.3,2.406,1.671,4.113,1.151,4.185,1.129l.233.7a3.386,3.386,0,0,1-1.007.128" transform="translate(-34.597 -57.228)" fill="#1a1311"/>
              <path id="Path_4263-3" data-name="Path 4263" d="M55.513,25.443c-.1-.04-2.394-1.007-2.307-4.534.075-3.01-1.919-3.776-1.939-3.783l.256-.7c.1.038,2.512.963,2.425,4.5-.074,2.992,1.767,3.8,1.845,3.829Z" transform="translate(-33.27 -10.662)" fill="#1a1311"/>
              <path id="Path_4264-3" data-name="Path 4264" d="M61.659,118.991l-.721-.174a2.311,2.311,0,0,0-.3-1.783,1.933,1.933,0,0,0-1.706-.471,5.315,5.315,0,0,1-4.958-2.553l.645-.365a4.571,4.571,0,0,0,4.249,2.18,2.612,2.612,0,0,1,2.334.729,3.025,3.025,0,0,1,.455,2.438" transform="translate(-35.028 -73.752)" fill="#1a1311"/>
              <path id="Path_4265-3" data-name="Path 4265" d="M13.585,110.339c-.026-.091-.621-2.261,1.736-4.72,2.04-2.127,1.5-3.954,1.478-4.031l.706-.227c.031.093.715,2.307-1.648,4.771-2.045,2.132-1.58,3.927-1.559,4Z" transform="translate(-8.76 -65.78)" fill="#1a1311"/>
              <path id="Path_4266-3" data-name="Path 4266" d="M97.764,127.382a2.953,2.953,0,0,1-1.156-.24c-2.722-1.148-4.232-.074-4.3-.027l-.445-.593c.076-.058,1.89-1.388,5.029-.064,2.627,1.109,4.892-3.3,4.915-3.342l.661.335a11.057,11.057,0,0,1-1.639,2.316,4.345,4.345,0,0,1-3.07,1.614" transform="translate(-59.619 -79.899)" fill="#1a1311"/>
              <path id="Path_4267-3" data-name="Path 4267" d="M83.7,50.742c-.912,0-3.121-.354-4.695-3.508A2.84,2.84,0,0,0,77.129,45.5a3.52,3.52,0,0,0-2.557.873l-.495-.552a4.187,4.187,0,0,1,3.187-1.05A3.524,3.524,0,0,1,79.67,46.9c1.728,3.464,4.215,3.1,4.319,3.08l.127.731a2.565,2.565,0,0,1-.415.029" transform="translate(-48.073 -29.024)" fill="#1a1311"/>
              <path id="Path_4268-3" data-name="Path 4268" d="M9.737,78.493a3.454,3.454,0,0,1,.127-2.76A2.9,2.9,0,0,1,12.208,74.5c3.039-.3,3.469-2.228,3.485-2.31l.728.141c-.02.1-.527,2.546-4.14,2.907a2.218,2.218,0,0,0-1.784.882,2.75,2.75,0,0,0-.068,2.108Z" transform="translate(-6.164 -46.847)" fill="#1a1311"/>
              <path id="Path_4269-3" data-name="Path 4269" d="M37.4,129.46a2.487,2.487,0,0,1-1.018-.206,2.9,2.9,0,0,1-1.531-2.162c-.7-2.972-2.664-3.146-2.748-3.152l.045-.74c.105.006,2.593.189,3.424,3.723a2.219,2.219,0,0,0,1.109,1.653,2.747,2.747,0,0,0,2.1-.209l.355.651a4.01,4.01,0,0,1-1.734.442" transform="translate(-20.836 -79.952)" fill="#1a1311"/>
              <path id="Path_4270-3" data-name="Path 4270" d="M101.826,97.778A3.31,3.31,0,0,1,99.6,96.611a3.15,3.15,0,0,1-.421-2.64c.605-2.85-.9-4.041-.967-4.09l.445-.593c.08.06,1.956,1.5,1.248,4.837a2.454,2.454,0,0,0,.285,2.037,2.594,2.594,0,0,0,1.691.878Z" transform="translate(-63.737 -57.944)" fill="#1a1311"/>
            </g>
          </g>
          <g id="Group_2170" data-name="Group 2170" transform="translate(50.699 90.749)">
            <g id="Group_2166-4" data-name="Group 2166" clip-path="url(#clip-path-5)">
              <path id="Path_4252-4" data-name="Path 4252" d="M21.75,10.352a5.008,5.008,0,0,1,.7-3.553A5.248,5.248,0,0,1,26.1,4.715a4.773,4.773,0,0,0,3.257-1.788,4.117,4.117,0,0,0,.65-2.8L30.736,0a4.8,4.8,0,0,1-.767,3.345,5.472,5.472,0,0,1-3.744,2.1,4.546,4.546,0,0,0-3.152,1.763,4.319,4.319,0,0,0-.6,2.992Z" transform="translate(-14.067)" fill="#1a1311"/>
              <path id="Path_4253-4" data-name="Path 4253" d="M52.949,60.344a4.576,4.576,0,0,1-2.184-.535,5.471,5.471,0,0,1-2.516-3.479,4.547,4.547,0,0,0-2.112-2.93,4.321,4.321,0,0,0-3.04-.25l-.233-.7a5.011,5.011,0,0,1,3.61.293,5.248,5.248,0,0,1,2.487,3.382,4.764,4.764,0,0,0,2.157,3.036,4.075,4.075,0,0,0,2.843.322l.214.709a4.566,4.566,0,0,1-1.226.155" transform="translate(-27.817 -33.9)" fill="#1a1311"/>
              <path id="Path_4254-4" data-name="Path 4254" d="M20.633,36l-.74-.038c0-.1.164-2.476,3.338-3.747,2.72-1.09,2.933-2.959,2.941-3.038l.738.065c-.008.1-.237,2.393-3.4,3.661-2.739,1.1-2.873,3.077-2.874,3.1" transform="translate(-12.91 -18.937)" fill="#1a1311"/>
              <path id="Path_4255-4" data-name="Path 4255" d="M119.984,88.911a6.452,6.452,0,0,1-2.5-.547c-2.7-1.13-4.162.136-4.223.19l-.5-.548c.074-.068,1.856-1.648,5.008-.325,2.7,1.133,4.166-.048,4.227-.1l.48.564a3.969,3.969,0,0,1-2.493.765" transform="translate(-73.179 -56.56)" fill="#1a1311"/>
              <path id="Path_4256-4" data-name="Path 4256" d="M110.4,64.27l-.74-.041c0-.08.131-1.979,2.649-2.987,2.064-.827,2.231-2.235,2.237-2.3l.739.066c-.007.078-.19,1.912-2.7,2.917-2.058.824-2.18,2.279-2.184,2.341" transform="translate(-71.165 -38.254)" fill="#1a1311"/>
              <path id="Path_4257-4" data-name="Path 4257" d="M10.626,6.978A4.781,4.781,0,0,1,8.02,6.125c-1.915-1.238-3.21-.475-3.264-.442l-.394-.628C4.432,5.012,6.091,4,8.423,5.5c1.92,1.241,3.2.542,3.257.513l.373.641a2.976,2.976,0,0,1-1.427.322" transform="translate(-2.831 -3.037)" fill="#1a1311"/>
              <path id="Path_4258-4" data-name="Path 4258" d="M89.68,72.024A2.267,2.267,0,0,1,87.7,69.676c-.083-1.51-1.118-1.676-1.236-1.69l.077-.737a2.305,2.305,0,0,1,1.9,2.387c.082,1.5,1.169,1.639,1.293,1.649Z" transform="translate(-56.113 -43.642)" fill="#1a1311"/>
              <path id="Path_4259-4" data-name="Path 4259" d="M129.277,107.459a2.267,2.267,0,0,1-.261-3.06,1.549,1.549,0,0,0-.033-2.093l.488-.558a2.305,2.305,0,0,1,.173,3.046,1.516,1.516,0,0,0,.1,2.09Z" transform="translate(-83.428 -66.031)" fill="#1a1311"/>
              <path id="Path_4260-4" data-name="Path 4260" d="M35.873,91.868c-.078-.016-1.92-.421-2.642-3.093-.6-2.227-2.112-2.51-2.127-2.512l.125-.731c.081.014,1.994.37,2.718,3.049.6,2.235,2.059,2.557,2.074,2.56Z" transform="translate(-20.186 -55.507)" fill="#1a1311"/>
              <path id="Path_4261-4" data-name="Path 4261" d="M7.635,54.1a3.2,3.2,0,0,1-.65-.066A4.022,4.022,0,0,1,4.473,52.12,3.159,3.159,0,0,0,2.48,50.588a2.954,2.954,0,0,0-2.054.439L0,50.421a3.712,3.712,0,0,1,2.62-.56,3.863,3.863,0,0,1,2.474,1.856A3.015,3.015,0,0,0,7.724,53.36a2.917,2.917,0,0,0,1.353-.4l.408.619a3.62,3.62,0,0,1-1.85.524" transform="translate(0 -32.321)" fill="#1a1311"/>
              <path id="Path_4262-4" data-name="Path 4262" d="M61.526,91.544a6.73,6.73,0,0,1-3.833-1.352c-2.411-1.673-4.153-1.2-4.17-1.2l-.211-.711c.083-.025,2.077-.594,4.8,1.3,2.406,1.671,4.113,1.151,4.185,1.129l.233.7a3.386,3.386,0,0,1-1.007.128" transform="translate(-34.597 -57.228)" fill="#1a1311"/>
              <path id="Path_4263-4" data-name="Path 4263" d="M55.513,25.443c-.1-.04-2.394-1.007-2.307-4.534.075-3.01-1.919-3.776-1.939-3.783l.256-.7c.1.038,2.512.963,2.425,4.5-.074,2.992,1.767,3.8,1.845,3.829Z" transform="translate(-33.27 -10.662)" fill="#1a1311"/>
              <path id="Path_4264-4" data-name="Path 4264" d="M61.659,118.991l-.721-.174a2.311,2.311,0,0,0-.3-1.783,1.933,1.933,0,0,0-1.706-.471,5.315,5.315,0,0,1-4.958-2.553l.645-.365a4.571,4.571,0,0,0,4.249,2.18,2.612,2.612,0,0,1,2.334.729,3.025,3.025,0,0,1,.455,2.438" transform="translate(-35.028 -73.752)" fill="#1a1311"/>
              <path id="Path_4265-4" data-name="Path 4265" d="M13.585,110.339c-.026-.091-.621-2.261,1.736-4.72,2.04-2.127,1.5-3.954,1.478-4.031l.706-.227c.031.093.715,2.307-1.648,4.771-2.045,2.132-1.58,3.927-1.559,4Z" transform="translate(-8.76 -65.78)" fill="#1a1311"/>
              <path id="Path_4266-4" data-name="Path 4266" d="M97.764,127.382a2.953,2.953,0,0,1-1.156-.24c-2.722-1.148-4.232-.074-4.3-.027l-.445-.593c.076-.058,1.89-1.388,5.029-.064,2.627,1.109,4.892-3.3,4.915-3.342l.661.335a11.057,11.057,0,0,1-1.639,2.316,4.345,4.345,0,0,1-3.07,1.614" transform="translate(-59.619 -79.899)" fill="#1a1311"/>
              <path id="Path_4267-4" data-name="Path 4267" d="M83.7,50.742c-.912,0-3.121-.354-4.695-3.508A2.84,2.84,0,0,0,77.129,45.5a3.52,3.52,0,0,0-2.557.873l-.495-.552a4.187,4.187,0,0,1,3.187-1.05A3.524,3.524,0,0,1,79.67,46.9c1.728,3.464,4.215,3.1,4.319,3.08l.127.731a2.565,2.565,0,0,1-.415.029" transform="translate(-48.073 -29.024)" fill="#1a1311"/>
              <path id="Path_4268-4" data-name="Path 4268" d="M9.737,78.493a3.454,3.454,0,0,1,.127-2.76A2.9,2.9,0,0,1,12.208,74.5c3.039-.3,3.469-2.228,3.485-2.31l.728.141c-.02.1-.527,2.546-4.14,2.907a2.218,2.218,0,0,0-1.784.882,2.75,2.75,0,0,0-.068,2.108Z" transform="translate(-6.164 -46.847)" fill="#1a1311"/>
              <path id="Path_4269-4" data-name="Path 4269" d="M37.4,129.46a2.487,2.487,0,0,1-1.018-.206,2.9,2.9,0,0,1-1.531-2.162c-.7-2.972-2.664-3.146-2.748-3.152l.045-.74c.105.006,2.593.189,3.424,3.723a2.219,2.219,0,0,0,1.109,1.653,2.747,2.747,0,0,0,2.1-.209l.355.651a4.01,4.01,0,0,1-1.734.442" transform="translate(-20.836 -79.952)" fill="#1a1311"/>
              <path id="Path_4270-4" data-name="Path 4270" d="M101.826,97.778A3.31,3.31,0,0,1,99.6,96.611a3.15,3.15,0,0,1-.421-2.64c.605-2.85-.9-4.041-.967-4.09l.445-.593c.08.06,1.956,1.5,1.248,4.837a2.454,2.454,0,0,0,.285,2.037,2.594,2.594,0,0,0,1.691.878Z" transform="translate(-63.737 -57.944)" fill="#1a1311"/>
            </g>
          </g>
          <g id="Group_2171" data-name="Group 2171" transform="translate(70.3 51.546)">
            <g id="Group_2166-5" data-name="Group 2166" clip-path="url(#clip-path-5)">
              <path id="Path_4252-5" data-name="Path 4252" d="M21.75,10.352a5.008,5.008,0,0,1,.7-3.553A5.248,5.248,0,0,1,26.1,4.715a4.773,4.773,0,0,0,3.257-1.788,4.117,4.117,0,0,0,.65-2.8L30.736,0a4.8,4.8,0,0,1-.767,3.345,5.472,5.472,0,0,1-3.744,2.1,4.546,4.546,0,0,0-3.152,1.763,4.319,4.319,0,0,0-.6,2.992Z" transform="translate(-14.067)" fill="#1a1311"/>
              <path id="Path_4253-5" data-name="Path 4253" d="M52.949,60.344a4.576,4.576,0,0,1-2.184-.535,5.471,5.471,0,0,1-2.516-3.479,4.547,4.547,0,0,0-2.112-2.93,4.321,4.321,0,0,0-3.04-.25l-.233-.7a5.011,5.011,0,0,1,3.61.293,5.248,5.248,0,0,1,2.487,3.382,4.764,4.764,0,0,0,2.157,3.036,4.075,4.075,0,0,0,2.843.322l.214.709a4.566,4.566,0,0,1-1.226.155" transform="translate(-27.817 -33.9)" fill="#1a1311"/>
              <path id="Path_4254-5" data-name="Path 4254" d="M20.633,36l-.74-.038c0-.1.164-2.476,3.338-3.747,2.72-1.09,2.933-2.959,2.941-3.038l.738.065c-.008.1-.237,2.393-3.4,3.661-2.739,1.1-2.873,3.077-2.874,3.1" transform="translate(-12.91 -18.937)" fill="#1a1311"/>
              <path id="Path_4255-5" data-name="Path 4255" d="M119.984,88.911a6.452,6.452,0,0,1-2.5-.547c-2.7-1.13-4.162.136-4.223.19l-.5-.548c.074-.068,1.856-1.648,5.008-.325,2.7,1.133,4.166-.048,4.227-.1l.48.564a3.969,3.969,0,0,1-2.493.765" transform="translate(-73.179 -56.56)" fill="#1a1311"/>
              <path id="Path_4256-5" data-name="Path 4256" d="M110.4,64.27l-.74-.041c0-.08.131-1.979,2.649-2.987,2.064-.827,2.231-2.235,2.237-2.3l.739.066c-.007.078-.19,1.912-2.7,2.917-2.058.824-2.18,2.279-2.184,2.341" transform="translate(-71.165 -38.254)" fill="#1a1311"/>
              <path id="Path_4257-5" data-name="Path 4257" d="M10.626,6.978A4.781,4.781,0,0,1,8.02,6.125c-1.915-1.238-3.21-.475-3.264-.442l-.394-.628C4.432,5.012,6.091,4,8.423,5.5c1.92,1.241,3.2.542,3.257.513l.373.641a2.976,2.976,0,0,1-1.427.322" transform="translate(-2.831 -3.037)" fill="#1a1311"/>
              <path id="Path_4258-5" data-name="Path 4258" d="M89.68,72.024A2.267,2.267,0,0,1,87.7,69.676c-.083-1.51-1.118-1.676-1.236-1.69l.077-.737a2.305,2.305,0,0,1,1.9,2.387c.082,1.5,1.169,1.639,1.293,1.649Z" transform="translate(-56.113 -43.642)" fill="#1a1311"/>
              <path id="Path_4259-5" data-name="Path 4259" d="M129.277,107.459a2.267,2.267,0,0,1-.261-3.06,1.549,1.549,0,0,0-.033-2.093l.488-.558a2.305,2.305,0,0,1,.173,3.046,1.516,1.516,0,0,0,.1,2.09Z" transform="translate(-83.428 -66.031)" fill="#1a1311"/>
              <path id="Path_4260-5" data-name="Path 4260" d="M35.873,91.868c-.078-.016-1.92-.421-2.642-3.093-.6-2.227-2.112-2.51-2.127-2.512l.125-.731c.081.014,1.994.37,2.718,3.049.6,2.235,2.059,2.557,2.074,2.56Z" transform="translate(-20.186 -55.507)" fill="#1a1311"/>
              <path id="Path_4261-5" data-name="Path 4261" d="M7.635,54.1a3.2,3.2,0,0,1-.65-.066A4.022,4.022,0,0,1,4.473,52.12,3.159,3.159,0,0,0,2.48,50.588a2.954,2.954,0,0,0-2.054.439L0,50.421a3.712,3.712,0,0,1,2.62-.56,3.863,3.863,0,0,1,2.474,1.856A3.015,3.015,0,0,0,7.724,53.36a2.917,2.917,0,0,0,1.353-.4l.408.619a3.62,3.62,0,0,1-1.85.524" transform="translate(0 -32.321)" fill="#1a1311"/>
              <path id="Path_4262-5" data-name="Path 4262" d="M61.526,91.544a6.73,6.73,0,0,1-3.833-1.352c-2.411-1.673-4.153-1.2-4.17-1.2l-.211-.711c.083-.025,2.077-.594,4.8,1.3,2.406,1.671,4.113,1.151,4.185,1.129l.233.7a3.386,3.386,0,0,1-1.007.128" transform="translate(-34.597 -57.228)" fill="#1a1311"/>
              <path id="Path_4263-5" data-name="Path 4263" d="M55.513,25.443c-.1-.04-2.394-1.007-2.307-4.534.075-3.01-1.919-3.776-1.939-3.783l.256-.7c.1.038,2.512.963,2.425,4.5-.074,2.992,1.767,3.8,1.845,3.829Z" transform="translate(-33.27 -10.662)" fill="#1a1311"/>
              <path id="Path_4264-5" data-name="Path 4264" d="M61.659,118.991l-.721-.174a2.311,2.311,0,0,0-.3-1.783,1.933,1.933,0,0,0-1.706-.471,5.315,5.315,0,0,1-4.958-2.553l.645-.365a4.571,4.571,0,0,0,4.249,2.18,2.612,2.612,0,0,1,2.334.729,3.025,3.025,0,0,1,.455,2.438" transform="translate(-35.028 -73.752)" fill="#1a1311"/>
              <path id="Path_4265-5" data-name="Path 4265" d="M13.585,110.339c-.026-.091-.621-2.261,1.736-4.72,2.04-2.127,1.5-3.954,1.478-4.031l.706-.227c.031.093.715,2.307-1.648,4.771-2.045,2.132-1.58,3.927-1.559,4Z" transform="translate(-8.76 -65.78)" fill="#1a1311"/>
              <path id="Path_4266-5" data-name="Path 4266" d="M97.764,127.382a2.953,2.953,0,0,1-1.156-.24c-2.722-1.148-4.232-.074-4.3-.027l-.445-.593c.076-.058,1.89-1.388,5.029-.064,2.627,1.109,4.892-3.3,4.915-3.342l.661.335a11.057,11.057,0,0,1-1.639,2.316,4.345,4.345,0,0,1-3.07,1.614" transform="translate(-59.619 -79.899)" fill="#1a1311"/>
              <path id="Path_4267-5" data-name="Path 4267" d="M83.7,50.742c-.912,0-3.121-.354-4.695-3.508A2.84,2.84,0,0,0,77.129,45.5a3.52,3.52,0,0,0-2.557.873l-.495-.552a4.187,4.187,0,0,1,3.187-1.05A3.524,3.524,0,0,1,79.67,46.9c1.728,3.464,4.215,3.1,4.319,3.08l.127.731a2.565,2.565,0,0,1-.415.029" transform="translate(-48.073 -29.024)" fill="#1a1311"/>
              <path id="Path_4268-5" data-name="Path 4268" d="M9.737,78.493a3.454,3.454,0,0,1,.127-2.76A2.9,2.9,0,0,1,12.208,74.5c3.039-.3,3.469-2.228,3.485-2.31l.728.141c-.02.1-.527,2.546-4.14,2.907a2.218,2.218,0,0,0-1.784.882,2.75,2.75,0,0,0-.068,2.108Z" transform="translate(-6.164 -46.847)" fill="#1a1311"/>
              <path id="Path_4269-5" data-name="Path 4269" d="M37.4,129.46a2.487,2.487,0,0,1-1.018-.206,2.9,2.9,0,0,1-1.531-2.162c-.7-2.972-2.664-3.146-2.748-3.152l.045-.74c.105.006,2.593.189,3.424,3.723a2.219,2.219,0,0,0,1.109,1.653,2.747,2.747,0,0,0,2.1-.209l.355.651a4.01,4.01,0,0,1-1.734.442" transform="translate(-20.836 -79.952)" fill="#1a1311"/>
              <path id="Path_4270-5" data-name="Path 4270" d="M101.826,97.778A3.31,3.31,0,0,1,99.6,96.611a3.15,3.15,0,0,1-.421-2.64c.605-2.85-.9-4.041-.967-4.09l.445-.593c.08.06,1.956,1.5,1.248,4.837a2.454,2.454,0,0,0,.285,2.037,2.594,2.594,0,0,0,1.691.878Z" transform="translate(-63.737 -57.944)" fill="#1a1311"/>
            </g>
          </g>
          <g id="Group_2172" data-name="Group 2172" transform="translate(24.555 126.681)">
            <g id="Group_2166-6" data-name="Group 2166" clip-path="url(#clip-path-5)">
              <path id="Path_4252-6" data-name="Path 4252" d="M21.75,10.352a5.008,5.008,0,0,1,.7-3.553A5.248,5.248,0,0,1,26.1,4.715a4.773,4.773,0,0,0,3.257-1.788,4.117,4.117,0,0,0,.65-2.8L30.736,0a4.8,4.8,0,0,1-.767,3.345,5.472,5.472,0,0,1-3.744,2.1,4.546,4.546,0,0,0-3.152,1.763,4.319,4.319,0,0,0-.6,2.992Z" transform="translate(-14.067)" fill="#1a1311"/>
              <path id="Path_4253-6" data-name="Path 4253" d="M52.949,60.344a4.576,4.576,0,0,1-2.184-.535,5.471,5.471,0,0,1-2.516-3.479,4.547,4.547,0,0,0-2.112-2.93,4.321,4.321,0,0,0-3.04-.25l-.233-.7a5.011,5.011,0,0,1,3.61.293,5.248,5.248,0,0,1,2.487,3.382,4.764,4.764,0,0,0,2.157,3.036,4.075,4.075,0,0,0,2.843.322l.214.709a4.566,4.566,0,0,1-1.226.155" transform="translate(-27.817 -33.9)" fill="#1a1311"/>
              <path id="Path_4254-6" data-name="Path 4254" d="M20.633,36l-.74-.038c0-.1.164-2.476,3.338-3.747,2.72-1.09,2.933-2.959,2.941-3.038l.738.065c-.008.1-.237,2.393-3.4,3.661-2.739,1.1-2.873,3.077-2.874,3.1" transform="translate(-12.91 -18.937)" fill="#1a1311"/>
              <path id="Path_4255-6" data-name="Path 4255" d="M119.984,88.911a6.452,6.452,0,0,1-2.5-.547c-2.7-1.13-4.162.136-4.223.19l-.5-.548c.074-.068,1.856-1.648,5.008-.325,2.7,1.133,4.166-.048,4.227-.1l.48.564a3.969,3.969,0,0,1-2.493.765" transform="translate(-73.179 -56.56)" fill="#1a1311"/>
              <path id="Path_4256-6" data-name="Path 4256" d="M110.4,64.27l-.74-.041c0-.08.131-1.979,2.649-2.987,2.064-.827,2.231-2.235,2.237-2.3l.739.066c-.007.078-.19,1.912-2.7,2.917-2.058.824-2.18,2.279-2.184,2.341" transform="translate(-71.165 -38.254)" fill="#1a1311"/>
              <path id="Path_4257-6" data-name="Path 4257" d="M10.626,6.978A4.781,4.781,0,0,1,8.02,6.125c-1.915-1.238-3.21-.475-3.264-.442l-.394-.628C4.432,5.012,6.091,4,8.423,5.5c1.92,1.241,3.2.542,3.257.513l.373.641a2.976,2.976,0,0,1-1.427.322" transform="translate(-2.831 -3.037)" fill="#1a1311"/>
              <path id="Path_4258-6" data-name="Path 4258" d="M89.68,72.024A2.267,2.267,0,0,1,87.7,69.676c-.083-1.51-1.118-1.676-1.236-1.69l.077-.737a2.305,2.305,0,0,1,1.9,2.387c.082,1.5,1.169,1.639,1.293,1.649Z" transform="translate(-56.113 -43.642)" fill="#1a1311"/>
              <path id="Path_4259-6" data-name="Path 4259" d="M129.277,107.459a2.267,2.267,0,0,1-.261-3.06,1.549,1.549,0,0,0-.033-2.093l.488-.558a2.305,2.305,0,0,1,.173,3.046,1.516,1.516,0,0,0,.1,2.09Z" transform="translate(-83.428 -66.031)" fill="#1a1311"/>
              <path id="Path_4260-6" data-name="Path 4260" d="M35.873,91.868c-.078-.016-1.92-.421-2.642-3.093-.6-2.227-2.112-2.51-2.127-2.512l.125-.731c.081.014,1.994.37,2.718,3.049.6,2.235,2.059,2.557,2.074,2.56Z" transform="translate(-20.186 -55.507)" fill="#1a1311"/>
              <path id="Path_4261-6" data-name="Path 4261" d="M7.635,54.1a3.2,3.2,0,0,1-.65-.066A4.022,4.022,0,0,1,4.473,52.12,3.159,3.159,0,0,0,2.48,50.588a2.954,2.954,0,0,0-2.054.439L0,50.421a3.712,3.712,0,0,1,2.62-.56,3.863,3.863,0,0,1,2.474,1.856A3.015,3.015,0,0,0,7.724,53.36a2.917,2.917,0,0,0,1.353-.4l.408.619a3.62,3.62,0,0,1-1.85.524" transform="translate(0 -32.321)" fill="#1a1311"/>
              <path id="Path_4262-6" data-name="Path 4262" d="M61.526,91.544a6.73,6.73,0,0,1-3.833-1.352c-2.411-1.673-4.153-1.2-4.17-1.2l-.211-.711c.083-.025,2.077-.594,4.8,1.3,2.406,1.671,4.113,1.151,4.185,1.129l.233.7a3.386,3.386,0,0,1-1.007.128" transform="translate(-34.597 -57.228)" fill="#1a1311"/>
              <path id="Path_4263-6" data-name="Path 4263" d="M55.513,25.443c-.1-.04-2.394-1.007-2.307-4.534.075-3.01-1.919-3.776-1.939-3.783l.256-.7c.1.038,2.512.963,2.425,4.5-.074,2.992,1.767,3.8,1.845,3.829Z" transform="translate(-33.27 -10.662)" fill="#1a1311"/>
              <path id="Path_4264-6" data-name="Path 4264" d="M61.659,118.991l-.721-.174a2.311,2.311,0,0,0-.3-1.783,1.933,1.933,0,0,0-1.706-.471,5.315,5.315,0,0,1-4.958-2.553l.645-.365a4.571,4.571,0,0,0,4.249,2.18,2.612,2.612,0,0,1,2.334.729,3.025,3.025,0,0,1,.455,2.438" transform="translate(-35.028 -73.752)" fill="#1a1311"/>
              <path id="Path_4265-6" data-name="Path 4265" d="M13.585,110.339c-.026-.091-.621-2.261,1.736-4.72,2.04-2.127,1.5-3.954,1.478-4.031l.706-.227c.031.093.715,2.307-1.648,4.771-2.045,2.132-1.58,3.927-1.559,4Z" transform="translate(-8.76 -65.78)" fill="#1a1311"/>
              <path id="Path_4266-6" data-name="Path 4266" d="M97.764,127.382a2.953,2.953,0,0,1-1.156-.24c-2.722-1.148-4.232-.074-4.3-.027l-.445-.593c.076-.058,1.89-1.388,5.029-.064,2.627,1.109,4.892-3.3,4.915-3.342l.661.335a11.057,11.057,0,0,1-1.639,2.316,4.345,4.345,0,0,1-3.07,1.614" transform="translate(-59.619 -79.899)" fill="#1a1311"/>
              <path id="Path_4267-6" data-name="Path 4267" d="M83.7,50.742c-.912,0-3.121-.354-4.695-3.508A2.84,2.84,0,0,0,77.129,45.5a3.52,3.52,0,0,0-2.557.873l-.495-.552a4.187,4.187,0,0,1,3.187-1.05A3.524,3.524,0,0,1,79.67,46.9c1.728,3.464,4.215,3.1,4.319,3.08l.127.731a2.565,2.565,0,0,1-.415.029" transform="translate(-48.073 -29.024)" fill="#1a1311"/>
              <path id="Path_4268-6" data-name="Path 4268" d="M9.737,78.493a3.454,3.454,0,0,1,.127-2.76A2.9,2.9,0,0,1,12.208,74.5c3.039-.3,3.469-2.228,3.485-2.31l.728.141c-.02.1-.527,2.546-4.14,2.907a2.218,2.218,0,0,0-1.784.882,2.75,2.75,0,0,0-.068,2.108Z" transform="translate(-6.164 -46.847)" fill="#1a1311"/>
              <path id="Path_4269-6" data-name="Path 4269" d="M37.4,129.46a2.487,2.487,0,0,1-1.018-.206,2.9,2.9,0,0,1-1.531-2.162c-.7-2.972-2.664-3.146-2.748-3.152l.045-.74c.105.006,2.593.189,3.424,3.723a2.219,2.219,0,0,0,1.109,1.653,2.747,2.747,0,0,0,2.1-.209l.355.651a4.01,4.01,0,0,1-1.734.442" transform="translate(-20.836 -79.952)" fill="#1a1311"/>
              <path id="Path_4270-6" data-name="Path 4270" d="M101.826,97.778A3.31,3.31,0,0,1,99.6,96.611a3.15,3.15,0,0,1-.421-2.64c.605-2.85-.9-4.041-.967-4.09l.445-.593c.08.06,1.956,1.5,1.248,4.837a2.454,2.454,0,0,0,.285,2.037,2.594,2.594,0,0,0,1.691.878Z" transform="translate(-63.737 -57.944)" fill="#1a1311"/>
            </g>
          </g>
        </g>
      </g>
    </g>
  </g>
</svg>
