<svg xmlns="http://www.w3.org/2000/svg" xmlns:xlink="http://www.w3.org/1999/xlink" width="140" height="393" viewBox="0 0 140 393">
  <defs>
    <clipPath id="clip-path">
      <rect id="Rectangle_12" data-name="Rectangle 12" width="95.102" height="87.58" fill="#1a1311"/>
    </clipPath>
    <clipPath id="clip-path-2">
      <rect id="Rectangle_13" data-name="Rectangle 13" width="102.251" height="85.792" fill="none"/>
    </clipPath>
    <clipPath id="clip-path-3">
      <rect id="Rectangle_14" data-name="Rectangle 14" width="97.695" height="85.898" fill="none"/>
    </clipPath>
  </defs>
  <g id="oyatsu-title" transform="translate(-876.023 -860)">
    <g id="Union_1" data-name="Union 1" transform="translate(876.023 860)" fill="#00942c">
      <path d="M 70 392 C 60.68484878540039 392 51.64884948730469 390.1723937988281 43.14300155639648 386.5679931640625 C 39.05474853515625 384.8355407714844 35.11149978637695 382.6911926269531 31.42284965515137 380.1944885253906 C 27.76894950866699 377.7213439941406 24.33295059204102 374.8810424804688 21.21030044555664 371.7525634765625 C 18.08760070800781 368.6239929199219 15.25259971618652 365.1814575195312 12.78400039672852 361.5206604003906 C 10.29189968109131 357.8248901367188 8.15149974822998 353.8741149902344 6.422200202941895 349.7779541015625 C 2.824300050735474 341.2555541992188 1 332.201904296875 1 322.8685607910156 C 1 309.4842529296875 4.822549819946289 296.5003356933594 12.05434989929199 285.320556640625 C 15.54384994506836 279.9260559082031 19.76625061035156 275.0419921875 24.60424995422363 270.8041381835938 C 29.46529960632324 266.5461120605469 34.8827018737793 262.9979858398438 40.70589828491211 260.2583618164062 L 42.62924957275391 259.3534851074219 L 40.70589828491211 258.4486389160156 C 34.8827018737793 255.7089996337891 29.46529960632324 252.1609039306641 24.60424995422363 247.9028472900391 C 19.76625061035156 243.6649932861328 15.54384994506836 238.781005859375 12.05434989929199 233.3864440917969 C 4.822549819946289 222.2066497802734 1 209.2227935791016 1 195.8384552001953 C 1 182.7175445556641 4.683949947357178 169.9506072998047 11.65359973907471 158.9177551269531 C 18.4375 148.1790008544922 28.01765060424805 139.5211486816406 39.35834884643555 133.8802947998047 L 41.15840148925781 132.9849548339844 L 39.35834884643555 132.089599609375 C 28.01765060424805 126.4486999511719 18.4375 117.790901184082 11.65359973907471 107.0521011352539 C 4.683949947357178 96.01930236816406 1 83.25234985351562 1 70.13144683837891 C 1 60.79809951782227 2.824300050735474 51.74444961547852 6.422200202941895 43.22204971313477 C 8.15149974822998 39.12590026855469 10.29189968109131 35.17509841918945 12.78400039672852 31.47934913635254 C 15.25259971618652 27.81855010986328 18.08760070800781 24.37599945068359 21.21030044555664 21.24744987487793 C 24.33295059204102 18.11894989013672 27.76894950866699 15.27865028381348 31.42284965515137 12.80550003051758 C 35.11149978637695 10.30879974365234 39.05474853515625 8.164449691772461 43.14300155639648 6.432000160217285 C 51.64884948730469 2.827600002288818 60.68484878540039 1 70 1 C 79.31514739990234 1 88.35115051269531 2.827600002288818 96.85700225830078 6.432000160217285 C 100.9452514648438 8.164449691772461 104.8884963989258 10.30879974365234 108.5771484375 12.80550003051758 C 112.2310485839844 15.27865028381348 115.6670532226562 18.11894989013672 118.7897033691406 21.24744987487793 C 121.9123992919922 24.37599945068359 124.7473983764648 27.81855010986328 127.2160034179688 31.47934913635254 C 129.7080993652344 35.17509841918945 131.8484954833984 39.12590026855469 133.5778045654297 43.22204971313477 C 137.1757049560547 51.74444961547852 139 60.79809951782227 139 70.13144683837891 C 139 83.25234985351562 135.3160552978516 96.01930236816406 128.3464050292969 107.0521011352539 C 121.5625 117.790901184082 111.9823532104492 126.4486999511719 100.6416473388672 132.089599609375 L 98.84159851074219 132.9849548339844 L 100.6416473388672 133.8802947998047 C 111.9823532104492 139.5211486816406 121.5625 148.1790008544922 128.3464050292969 158.9177551269531 C 135.3160552978516 169.9506072998047 139 182.7175445556641 139 195.8384552001953 C 139 209.2227935791016 135.1774444580078 222.2066497802734 127.9456481933594 233.3864440917969 C 124.4561462402344 238.781005859375 120.2337493896484 243.6649932861328 115.395751953125 247.9028472900391 C 110.5346984863281 252.1609039306641 105.117301940918 255.7089996337891 99.29409790039062 258.4486389160156 L 97.37075042724609 259.3534851074219 L 99.29409790039062 260.2583618164062 C 105.117301940918 262.9979858398438 110.5346984863281 266.5461120605469 115.395751953125 270.8041381835938 C 120.2337493896484 275.0419921875 124.4561462402344 279.9260559082031 127.9456481933594 285.320556640625 C 135.1774444580078 296.5003356933594 139 309.4842529296875 139 322.8685607910156 C 139 332.201904296875 137.1757049560547 341.2555541992188 133.5778045654297 349.7779541015625 C 131.8484954833984 353.8741149902344 129.7080993652344 357.8248901367188 127.2160034179688 361.5206604003906 C 124.7473983764648 365.1814575195312 121.9123992919922 368.6239929199219 118.7897033691406 371.7525634765625 C 115.6670532226562 374.8810424804688 112.2310485839844 377.7213439941406 108.5771484375 380.1944885253906 C 104.8884963989258 382.6911926269531 100.9452514648438 384.8355407714844 96.85700225830078 386.5679931640625 C 88.35115051269531 390.1723937988281 79.31514739990234 392 70 392 Z" stroke="none"/>
      <path d="M 70 391 C 79.18035125732422 391 88.08509826660156 389.1990356445312 96.466796875 385.6472473144531 C 100.4955978393555 383.9400024414062 104.3815002441406 381.8268432617188 108.0166015625 379.3663940429688 C 111.6177978515625 376.9288940429688 115.0042495727539 374.1295471191406 118.0819473266602 371.0461120605469 C 121.1596984863281 367.9625549316406 123.9539031982422 364.5696411132812 126.3869018554688 360.9615478515625 C 128.8428955078125 357.3193054199219 130.9523468017578 353.4257507324219 132.656494140625 349.3890075683594 C 136.2021942138672 340.9903564453125 138 332.0675964355469 138 322.8685607910156 C 138 309.6773986816406 134.2328948974609 296.8812866210938 127.1060028076172 285.8637084960938 C 123.6668014526367 280.5469055175781 119.5052032470703 275.7332458496094 114.7368469238281 271.556396484375 C 109.9459991455078 267.35986328125 104.6071014404297 263.8630981445312 98.86840057373047 261.1632080078125 L 95.02169799804688 259.3534851074219 L 98.86840057373047 257.5437927246094 C 104.6071014404297 254.8439025878906 109.9459991455078 251.3471527099609 114.7368469238281 247.1506042480469 C 119.5052032470703 242.9738006591797 123.6668014526367 238.1600952148438 127.1060028076172 232.8433074951172 C 134.2328948974609 221.8256988525391 138 209.0296478271484 138 195.8384552001953 C 138 182.9069061279297 134.3695068359375 170.3246002197266 127.5009536743164 159.4518432617188 C 120.8148498535156 148.8678436279297 111.373046875 140.3350067138672 100.1962966918945 134.7756500244141 L 96.59615325927734 132.9849548339844 L 100.1962966918945 131.1942443847656 C 111.373046875 125.6349029541016 120.8148498535156 117.1019973754883 127.5009536743164 106.5180511474609 C 134.3695068359375 95.64530181884766 138 83.06300354003906 138 70.13144683837891 C 138 60.93239974975586 136.2021942138672 52.00965118408203 132.656494140625 43.61100006103516 C 130.9523468017578 39.57424926757812 128.8428955078125 35.68069839477539 126.3869018554688 32.03844833374023 C 123.9539031982422 28.43034934997559 121.1596984863281 25.03745079040527 118.0819473266602 21.95389938354492 C 115.0042495727539 18.87044906616211 111.6177978515625 16.07110023498535 108.0166015625 13.63360023498535 C 104.3815002441406 11.17315006256104 100.4955978393555 9.060000419616699 96.466796875 7.352749824523926 C 88.08509826660156 3.800950050354004 79.18035125732422 2 70 2 C 60.81964874267578 2 51.91490173339844 3.800950050354004 43.53319931030273 7.352749824523926 C 39.50439834594727 9.060000419616699 35.61849975585938 11.17315006256104 31.98340034484863 13.63360023498535 C 28.38220024108887 16.07110023498535 24.99575042724609 18.87044906616211 21.91805076599121 21.95389938354492 C 18.84029960632324 25.03745079040527 16.04610061645508 28.43034934997559 13.61310005187988 32.03844833374023 C 11.15709972381592 35.68069839477539 9.047650337219238 39.57424926757812 7.343500137329102 43.61100006103516 C 3.797800064086914 52.00965118408203 2 60.93239974975586 2 70.13144683837891 C 2 83.06300354003906 5.630499839782715 95.64530181884766 12.49905014038086 106.5180511474609 C 19.18515014648438 117.1019973754883 28.62694931030273 125.6349029541016 39.8036994934082 131.1942443847656 L 43.40385055541992 132.9849548339844 L 39.8036994934082 134.7756500244141 C 28.62694931030273 140.3350067138672 19.18515014648438 148.8678436279297 12.49905014038086 159.4518432617188 C 5.630499839782715 170.3246002197266 2 182.9069061279297 2 195.8384552001953 C 2 209.0296478271484 5.767099857330322 221.8256988525391 12.89400005340576 232.8433074951172 C 16.33320045471191 238.1600952148438 20.49480056762695 242.9738006591797 25.26314926147461 247.1506042480469 C 30.05400085449219 251.3471527099609 35.39289855957031 254.8439025878906 41.13159942626953 257.5437927246094 L 44.97829818725586 259.3534851074219 L 41.13159942626953 261.1632080078125 C 35.39289855957031 263.8630981445312 30.05400085449219 267.35986328125 25.26314926147461 271.556396484375 C 20.49480056762695 275.7332458496094 16.33320045471191 280.5469055175781 12.89400005340576 285.8637084960938 C 5.767099857330322 296.8812866210938 2 309.6773986816406 2 322.8685607910156 C 2 332.0675964355469 3.797800064086914 340.9903564453125 7.343500137329102 349.3890075683594 C 9.047650337219238 353.4257507324219 11.15709972381592 357.3193054199219 13.61310005187988 360.9615478515625 C 16.04610061645508 364.5696411132812 18.84029960632324 367.9625549316406 21.91805076599121 371.0461120605469 C 24.99575042724609 374.1295471191406 28.38220024108887 376.9288940429688 31.98340034484863 379.3663940429688 C 35.61849975585938 381.8268432617188 39.50439834594727 383.9400024414062 43.53319931030273 385.6472473144531 C 51.91490173339844 389.1990356445312 60.81964874267578 391 70 391 M 70 393 C 31.34004974365234 393 0 361.6011047363281 0 322.8685607910156 C 0 294.7813415527344 16.47909927368164 270.5510864257812 40.28020095825195 259.3534851074219 C 16.47909927368164 248.1558990478516 0 223.9257049560547 0 195.8384552001953 C 0 168.2926025390625 15.85079956054688 144.4561004638672 38.91299819946289 132.9849548339844 C 15.85079956054688 121.5137481689453 0 97.67729949951172 0 70.13144683837891 C 0 31.39889907836914 31.34004974365234 0 70 0 C 108.6599502563477 0 140 31.39889907836914 140 70.13144683837891 C 140 97.67729949951172 124.1492004394531 121.5137481689453 101.0869979858398 132.9849548339844 C 124.1492004394531 144.4561004638672 140 168.2926025390625 140 195.8384552001953 C 140 223.9257049560547 123.5208969116211 248.1558990478516 99.71980285644531 259.3534851074219 C 123.5208969116211 270.5510864257812 140 294.7813415527344 140 322.8685607910156 C 140 361.6011047363281 108.6599502563477 393 70 393 Z" stroke="none" fill="#1a1311"/>
    </g>
    <g id="Group_9" data-name="Group 9" transform="translate(898.428 886.255)">
      <g id="Group_8" data-name="Group 8" clip-path="url(#clip-path)">
        <path id="Path_255" data-name="Path 255" d="M60.494,30.527c1.437-.038,2.816-.157,4.187-.1,9.769.435,17.943,4.2,24.047,11.935a27.767,27.767,0,0,1,2.448,30.51A31.541,31.541,0,0,1,76.546,86.73a7.111,7.111,0,0,1-4.62.72,4.462,4.462,0,0,1-3.106-2.193c-2.559-4.38-5.088-8.776-7.684-13.133-1.006-1.689-.667-2.7.619-3.934a8.541,8.541,0,0,1,2.081-1.509,13.877,13.877,0,0,0,6.817-17.649,16.056,16.056,0,0,0-8.755-9.2,9.2,9.2,0,0,0-.872-.326,1.3,1.3,0,0,0-.347,0,5.351,5.351,0,0,0-.054.6c.066,4.072.112,8.143.213,12.214A37.77,37.77,0,0,1,58.51,67.649c-3.841,9.506-10.85,15.425-20.59,18.259a28.585,28.585,0,0,1-7.976,1.085,48.108,48.108,0,0,1-8.664-.435A29.384,29.384,0,0,1,7.3,80.467,19.322,19.322,0,0,1,.012,65.718,22.051,22.051,0,0,1,2.1,55.774a33.286,33.286,0,0,1,9.221-11.945A45.957,45.957,0,0,1,33.743,33.593c.544-.087,1.1-.128,1.637-.239a2.1,2.1,0,0,0,1.657-2.809c-.184-.588-.716-.919-1.571-.913-1.554.01-3.107.06-4.661.067q-11.652.056-23.3.083a8,8,0,0,1-2.235-.3,2.94,2.94,0,0,1-2.218-2.924c-.077-2.62-.056-5.244-.044-7.867A2.662,2.662,0,0,1,4.9,16.357a4.95,4.95,0,0,1,1.226-.133q13.31-.039,26.619-.069a14.254,14.254,0,0,0,2.161-.171c2.264-.354,3.114-1.32,3.169-3.6s.061-4.555.126-6.831a10.966,10.966,0,0,1,.256-2.144A3.99,3.99,0,0,1,41.493.348,8.767,8.767,0,0,1,44.144,0C48.32.087,52.5.139,56.672.227A4.063,4.063,0,0,1,60.651,3.52a8.867,8.867,0,0,1,.185,1.846c.007,3.106-.011,6.212-.03,9.318-.011,1.88.618,2.5,2.543,2.5,2.175-.009,4.35-.03,6.525-.011a3.51,3.51,0,0,1,1.4.262,2.466,2.466,0,0,1,1.578,2.343c.006,1.967.028,3.934.01,5.9a3.339,3.339,0,0,1-3.352,3.259c-2.45.081-4.9.139-7.351.207-.241.007-.483.006-.725.013-1.129.033-1.185.111-.944,1.373M36.588,46.9a6.677,6.677,0,0,0-.891.379c-1.7,1.049-3.437,2.045-5.068,3.193a20.663,20.663,0,0,0-4.819,4.8,13.444,13.444,0,0,0-2.362,4.9,5.129,5.129,0,0,0,2.021,5.754A7.735,7.735,0,0,0,35.93,63.845a2.856,2.856,0,0,0,.456-1.433c.106-4.9.169-9.791.241-14.687,0-.237-.021-.474-.038-.823" transform="translate(0 0)" fill="#1a1311"/>
        <path id="Path_256" data-name="Path 256" d="M120.676,18.46c1.69.062,3.379.158,5.07.177a4.712,4.712,0,0,1,4.3,3.556c.994,4.228,2.1,8.43,3.077,12.662a6.543,6.543,0,0,1-.055,2.66,2.824,2.824,0,0,1-2.746,2.262c-.721.053-1.448.023-2.173.022-2.45,0-4.9.056-7.351-.031a5.678,5.678,0,0,1-5.73-4.805c-.724-4-1.672-7.963-2.494-11.947a7.954,7.954,0,0,1-.134-1.949,2.489,2.489,0,0,1,2.237-2.451c1.3-.138,2.617-.119,3.926-.153.69-.019,1.38,0,2.071,0" transform="translate(-38.137 -6.26)" fill="#1a1311"/>
      </g>
    </g>
    <g id="Group_11" data-name="Group 11" transform="translate(898.428 1012.7)">
      <g id="Group_10" data-name="Group 10" clip-path="url(#clip-path-2)">
        <path id="Path_257" data-name="Path 257" d="M30.5,20.015c.378-.094.675-.155.964-.241q4.961-1.471,9.919-2.948a8.485,8.485,0,0,0,.883-.293,2.311,2.311,0,0,0,1.39-2.947c-.5-1.651-1.016-3.3-1.532-4.941a2.74,2.74,0,0,1,1.343-3.409,6.95,6.95,0,0,1,1.651-.579c2.988-.7,5.979-1.4,8.977-2.057a4.9,4.9,0,0,1,2.947.279,3.109,3.109,0,0,1,1.82,2C59.581,7,60.3,9.124,61.054,11.234a3.856,3.856,0,0,0,.786,1.3,1.594,1.594,0,0,0,1,.445A44.644,44.644,0,0,1,75.626,15.8a47.381,47.381,0,0,1,14.479,8.09,34.594,34.594,0,0,1,9.762,12.432c4.443,9.879,2.608,20.127-4.969,27.89a35.539,35.539,0,0,1-14.28,8.7A48.866,48.866,0,0,1,60.3,75.268c-1.1-.1-2.193-.248-3.279-.439a5.447,5.447,0,0,1-2.745-1.365,4.32,4.32,0,0,1-1.474-3.4q.059-7.4.1-14.8,0-.26,0-.518a3.111,3.111,0,0,1,2.761-3.337,18.556,18.556,0,0,1,3.075-.363c2.1-.112,4.21-.1,6.307-.254a13.325,13.325,0,0,0,5.5-1.7,9.542,9.542,0,0,0,4.671-11.643,15.592,15.592,0,0,0-5-7.352,22.033,22.033,0,0,0-14.056-5.291,39.063,39.063,0,0,0-6.909.319,15.875,15.875,0,0,0-2.026.41q-6.654,1.949-13.3,3.936c-.2.058-.387.14-.7.255.077.352.139.71.234,1.059q5.346,19.78,10.7,39.558c.459,1.7,1,3.379,1.369,5.1a9.487,9.487,0,0,1,.155,2.867,3.588,3.588,0,0,1-2.731,3.274c-3.948,1.244-7.879,2.541-11.824,3.793a7.087,7.087,0,0,1-2,.42,4.819,4.819,0,0,1-4.79-4.273,47.021,47.021,0,0,0-1.1-4.625q-4.871-18.887-9.754-37.771c-.164-.634-.3-1.278-.486-1.9a1.121,1.121,0,0,0-1.374-.944,5.988,5.988,0,0,0-1.216.213C8.557,37.014,6.7,37.561,4.849,38.1a6.31,6.31,0,0,1-.8.194,2.162,2.162,0,0,1-2.567-1.571C.993,35.173.544,33.615.11,32.054a2.755,2.755,0,0,1,1.944-3.447Q4.782,27.8,7.5,26.944c1.632-.515,2.247-1.516,1.785-3.155-.664-2.355-1.433-4.681-2.17-7.016C5.791,12.6,4.455,8.424,3.138,4.247A3.061,3.061,0,0,1,5.038.478,6.712,6.712,0,0,1,7.157.086C11.127.032,15.1.033,19.069.015c.966,0,1.932,0,2.9-.013a3.213,3.213,0,0,1,2.45,1.148,7.71,7.71,0,0,1,1.728,3.375q2.028,7.168,4.03,14.345c.1.358.2.716.322,1.146" transform="translate(0 0)" fill="#1a1311"/>
      </g>
    </g>
    <g id="Group_13" data-name="Group 13" transform="translate(895.834 1139.521)">
      <g id="Group_12" data-name="Group 12" clip-path="url(#clip-path-3)">
        <path id="Path_258" data-name="Path 258" d="M97.7,39.134c-.024,10.573-3.926,19.581-10.873,27.38A56.537,56.537,0,0,1,66.765,80.674a73.132,73.132,0,0,1-17.333,5.089,10.7,10.7,0,0,1-5.79-.7,4.745,4.745,0,0,1-2.565-2.707c-.632-1.454-1.182-2.945-1.765-4.421-1.129-2.854-2.334-5.68-3.362-8.571a8.438,8.438,0,0,1,1.445-8.3,5.718,5.718,0,0,1,3.47-1.927,46.59,46.59,0,0,0,10.1-3.348A40.589,40.589,0,0,0,65.805,44.617a24.788,24.788,0,0,0,5.2-10.472,16.922,16.922,0,0,0,.223-6.074A13.325,13.325,0,0,0,66.567,20,20.153,20.153,0,0,0,57.5,15.667a34.434,34.434,0,0,0-16.109,0,28.185,28.185,0,0,0-4.162,1.548Q22.54,23.39,7.861,29.6a13.253,13.253,0,0,1-1.938.718,7.221,7.221,0,0,1-1.933.211,1.891,1.891,0,0,1-1.725-1.139c-.684-1.47-1.409-2.925-2-4.432-.634-1.623-.13-2.724,1.471-3.428q8.381-3.691,16.775-7.349c7.021-3.059,14.04-6.123,21.079-9.14,2.343-1,4.74-1.882,7.123-2.789A36.183,36.183,0,0,1,51,.745a27.289,27.289,0,0,1,13.433.2c10.509,2.73,19.4,8.041,26.008,16.8a36.366,36.366,0,0,1,6.854,16.028c.3,1.758.277,3.571.4,5.358" transform="translate(0 0)" fill="#1a1311"/>
      </g>
    </g>
  </g>
</svg>
