<svg xmlns="http://www.w3.org/2000/svg" xmlns:xlink="http://www.w3.org/1999/xlink" width="32" height="664" viewBox="0 0 32 664">
  <defs>
    <clipPath id="clip-path">
      <rect width="32" height="664" fill="none"/>
    </clipPath>
  </defs>
  <g id="pop-line" clip-path="url(#clip-path)">
    <g transform="translate(-1334 -5541)">
      <rect id="Rectangle_118" data-name="Rectangle 118" width="32" height="18" transform="translate(1334 5541)" fill="#fff"/>
    </g>
    <g transform="translate(-1334 -5503)">
      <rect id="Rectangle_118-2" data-name="Rectangle 118" width="32" height="18" transform="translate(1334 5541)" fill="#fff"/>
    </g>
    <g transform="translate(-1334 -5465)">
      <rect id="Rectangle_118-3" data-name="Rectangle 118" width="32" height="18" transform="translate(1334 5541)" fill="#fff"/>
    </g>
    <g transform="translate(-1334 -5427)">
      <rect id="Rectangle_118-4" data-name="Rectangle 118" width="32" height="18" transform="translate(1334 5541)" fill="#fff"/>
    </g>
    <g transform="translate(-1334 -5389)">
      <rect id="Rectangle_118-5" data-name="Rectangle 118" width="32" height="18" transform="translate(1334 5541)" fill="#fff"/>
    </g>
    <g transform="translate(-1334 -5351)">
      <rect id="Rectangle_118-6" data-name="Rectangle 118" width="32" height="18" transform="translate(1334 5541)" fill="#fff"/>
    </g>
    <g transform="translate(-1334 -5313)">
      <rect id="Rectangle_118-7" data-name="Rectangle 118" width="32" height="18" transform="translate(1334 5541)" fill="#fff"/>
    </g>
    <g transform="translate(-1334 -5275)">
      <rect id="Rectangle_118-8" data-name="Rectangle 118" width="32" height="18" transform="translate(1334 5541)" fill="#fff"/>
    </g>
    <g transform="translate(-1334 -5237)">
      <rect id="Rectangle_118-9" data-name="Rectangle 118" width="32" height="18" transform="translate(1334 5541)" fill="#fff"/>
    </g>
    <g transform="translate(-1334 -5199)">
      <rect id="Rectangle_118-10" data-name="Rectangle 118" width="32" height="18" transform="translate(1334 5541)" fill="#fff"/>
    </g>
    <g transform="translate(-1334 -5161)">
      <rect id="Rectangle_118-11" data-name="Rectangle 118" width="32" height="18" transform="translate(1334 5541)" fill="#fff"/>
    </g>
    <g transform="translate(-1334 -5123)">
      <rect id="Rectangle_118-12" data-name="Rectangle 118" width="32" height="18" transform="translate(1334 5541)" fill="#fff"/>
    </g>
    <g transform="translate(-1334 -5085)">
      <rect id="Rectangle_118-13" data-name="Rectangle 118" width="32" height="18" transform="translate(1334 5541)" fill="#fff"/>
    </g>
    <g transform="translate(-1334 -5047)">
      <rect id="Rectangle_118-14" data-name="Rectangle 118" width="32" height="18" transform="translate(1334 5541)" fill="#fff"/>
    </g>
    <g transform="translate(-1334 -5009)">
      <rect id="Rectangle_118-15" data-name="Rectangle 118" width="32" height="18" transform="translate(1334 5541)" fill="#fff"/>
    </g>
    <g transform="translate(-1334 -4971)">
      <rect id="Rectangle_118-16" data-name="Rectangle 118" width="32" height="18" transform="translate(1334 5541)" fill="#fff"/>
    </g>
    <g transform="translate(-1334 -4933)">
      <rect id="Rectangle_118-17" data-name="Rectangle 118" width="32" height="18" transform="translate(1334 5541)" fill="#fff"/>
    </g>
    <g transform="translate(-1334 -4895)">
      <rect id="Rectangle_118-18" data-name="Rectangle 118" width="32" height="18" transform="translate(1334 5541)" fill="#fff"/>
    </g>
  </g>
</svg>
