<svg xmlns="http://www.w3.org/2000/svg" xmlns:xlink="http://www.w3.org/1999/xlink" width="124.714" height="21.5" viewBox="0 0 124.714 21.5">
  <defs>
    <clipPath id="clip-path">
      <rect id="Rectangle_79" data-name="Rectangle 79" width="124.714" height="21.5" fill="none"/>
    </clipPath>
  </defs>
  <g id="present-ttl" transform="translate(-159.254 -4505)">
    <g id="Group_83" data-name="Group 83" transform="translate(159.254 4505.001)">
      <g id="Group_82" data-name="Group 82" transform="translate(0 0)" clip-path="url(#clip-path)">
        <path id="Path_388" data-name="Path 388" d="M7.231,15.913v5.562H0V.727H7.7c3.95,0,9.512.25,9.512,7.732,0,6.2-5.813,7.455-9.512,7.455Zm0-9.262v3.616H8.344c1.252,0,1.891-.418,1.891-1.752,0-1.669-.974-1.864-1.891-1.864Z" transform="translate(0 -0.31)"/>
        <path id="Path_389" data-name="Path 389" d="M40.128,15.273h-.251v6.2h-7.2V.727h7.4c4.032,0,9.762.278,9.762,7.621a6,6,0,0,1-3,5.033l5.035,8.094H43.381Zm-.251-8.622v4.116h.612c1.446,0,2.337-.5,2.337-2.169,0-1.725-1.279-1.947-2.337-1.947Z" transform="translate(-13.927 -0.31)"/>
        <path id="Path_390" data-name="Path 390" d="M69.225.727h13.74V7.263H76.456V8.515h5.757V13.66H76.456v1.279h6.731v6.537H69.225Z" transform="translate(-29.508 -0.31)"/>
        <path id="Path_391" data-name="Path 391" d="M110.8,6.7a9.161,9.161,0,0,0-4.7-1.224c-.612,0-1.2.223-1.2.64,0,.585.946,1.252,2.142,2.281,3.671,3.143,4.617,4.339,4.617,7.037,0,4.45-4.506,6.035-8.455,6.063A12.786,12.786,0,0,1,97.4,20.443V14.6a10.616,10.616,0,0,0,5.034,1.418c.807,0,1.7-.25,1.7-.723,0-.668-1.307-1.557-3.031-2.92-3.394-2.615-4.145-3.95-4.145-6.4C96.953,2.865,99.846,0,105.3,0A12.43,12.43,0,0,1,110.8.974Z" transform="translate(-41.327 0)"/>
        <path id="Path_392" data-name="Path 392" d="M126.379.727h13.74V7.263H133.61V8.515h5.757V13.66H133.61v1.279h6.731v6.537H126.379Z" transform="translate(-53.87 -0.31)"/>
        <path id="Path_393" data-name="Path 393" d="M162.551,12.8v8.678H155.32V.727h6.814l6.7,8.511V.727h7.232V21.475h-6.675Z" transform="translate(-66.206 -0.31)"/>
        <path id="Path_394" data-name="Path 394" d="M197.782,7.263h-2.809V.726h12.85V7.263h-2.81V21.475h-7.231Z" transform="translate(-83.109 -0.309)"/>
      </g>
    </g>
  </g>
</svg>
