<svg xmlns="http://www.w3.org/2000/svg" xmlns:xlink="http://www.w3.org/1999/xlink" width="213" height="50" viewBox="0 0 213 50">
  <defs>
    <filter id="Rectangle_42" x="0" y="0" width="213" height="50" filterUnits="userSpaceOnUse">
      <feOffset dy="6" input="SourceAlpha"/>
      <feGaussianBlur result="blur"/>
      <feFlood flood-color="#1a1311"/>
      <feComposite operator="in" in2="blur"/>
      <feComposite in="SourceGraphic"/>
    </filter>
  </defs>
  <g id="shopage-off" transform="translate(-261 -2511)">
    <g transform="matrix(1, 0, 0, 1, 261, 2511)" filter="url(#Rectangle_42)">
      <g id="Rectangle_42-2" data-name="Rectangle 42" fill="#028cca" stroke="#1a1311" stroke-width="2">
        <rect width="213" height="44" rx="22" stroke="none"/>
        <rect x="1" y="1" width="211" height="42" rx="21" fill="none"/>
      </g>
    </g>
    <path id="Path_5290" data-name="Path 5290" d="M-42.947-2.522A4.477,4.477,0,0,0-39.461-.937a2.7,2.7,0,0,0,1.511-.376,1.457,1.457,0,0,0,.67-1.271,1.47,1.47,0,0,0-.581-1.2,8.669,8.669,0,0,0-1.846-.882l-.26-.1-.465-.185-.171-.068a7.889,7.889,0,0,1-1.948-.937q-.068-.062-.171-.171a2.681,2.681,0,0,1-.731-1.894,2.881,2.881,0,0,1,1.025-2.3,4.317,4.317,0,0,1,2.9-.916,6.406,6.406,0,0,1,2.27.376,5.956,5.956,0,0,1,1.579.943l-.943,1.313a4.054,4.054,0,0,0-2.892-1.148,2.154,2.154,0,0,0-1.6.513,1.467,1.467,0,0,0-.424,1.06,1.314,1.314,0,0,0,.615,1.135,8.183,8.183,0,0,0,1.654.725l.547.2A7.632,7.632,0,0,1-36.248-4.86a2.858,2.858,0,0,1,.93,2.181A2.936,2.936,0,0,1-36.6-.144,4.89,4.89,0,0,1-39.468.6,5.757,5.757,0,0,1-44-1.319Zm10.551-9.1h1.846v5.113a3.18,3.18,0,0,1,2.789-1.559,2.771,2.771,0,0,1,2.311,1.012,3.568,3.568,0,0,1,.6,2.249V.349H-26.7V-4.566a2.49,2.49,0,0,0-.342-1.463,1.4,1.4,0,0,0-1.217-.526,2.083,2.083,0,0,0-1.518.711,3.386,3.386,0,0,0-.779,1.333V.349H-32.4Zm14.468,3.445a4.112,4.112,0,0,1,3.1,1.278,4.323,4.323,0,0,1,1.162,3.124A4.426,4.426,0,0,1-14.7-.752,4.113,4.113,0,0,1-17.95.629,4.076,4.076,0,0,1-21.258-.834a4.463,4.463,0,0,1-.971-2.939A4.131,4.131,0,0,1-20.4-7.451,4.338,4.338,0,0,1-17.929-8.176Zm-.027,1.4a2.128,2.128,0,0,0-1.436.554,3.057,3.057,0,0,0-.95,2.447,3.883,3.883,0,0,0,.232,1.381,2.577,2.577,0,0,0,.643.978,2.16,2.16,0,0,0,1.531.588,2.122,2.122,0,0,0,1.866-1,3.459,3.459,0,0,0,.52-1.948,3.287,3.287,0,0,0-.7-2.181A2.142,2.142,0,0,0-17.957-6.774ZM-9.4-7.909v1.121A3.573,3.573,0,0,1-6.552-8.135,3.586,3.586,0,0,1-3.776-6.986a4.14,4.14,0,0,1,1,2.926,4.484,4.484,0,0,1-.718,2.6A3.445,3.445,0,0,1-6.524.041,3.2,3.2,0,0,1-9.265-1.2V1.668H-11.1V-7.909Zm.137,5.12a2.8,2.8,0,0,0,2.3,1.415,2.092,2.092,0,0,0,1.654-.69,2.945,2.945,0,0,0,.629-2.017A2.957,2.957,0,0,0-5.212-5.94a2.1,2.1,0,0,0-1.757-.766,2.327,2.327,0,0,0-1.483.52,2.745,2.745,0,0,0-.813,1.107ZM6.887-7.909v1.121A3.573,3.573,0,0,1,9.737-8.135a3.586,3.586,0,0,1,2.775,1.148,4.14,4.14,0,0,1,1,2.926,4.484,4.484,0,0,1-.718,2.6A3.445,3.445,0,0,1,9.764.041,3.2,3.2,0,0,1,7.023-1.2V1.668H5.191V-7.909Zm.137,5.12a2.8,2.8,0,0,0,2.3,1.415,2.092,2.092,0,0,0,1.654-.69A2.945,2.945,0,0,0,11.6-4.081a2.957,2.957,0,0,0-.526-1.859A2.1,2.1,0,0,0,9.32-6.706a2.327,2.327,0,0,0-1.483.52,2.745,2.745,0,0,0-.813,1.107ZM21.012-4.97V-5.1q0-1.688-1.606-1.688a4.377,4.377,0,0,0-2.707.909L16-7.144a6.205,6.205,0,0,1,3.466-1.032A3.377,3.377,0,0,1,22.181-7.13,3.154,3.154,0,0,1,22.8-5.011v2.885A5.1,5.1,0,0,0,23.3.349H21.628a3.9,3.9,0,0,1-.39-1.3H21.19A2.919,2.919,0,0,1,20.069.205a3.167,3.167,0,0,1-1.661.383A2.916,2.916,0,0,1,16.384-.13a2.464,2.464,0,0,1-.834-1.914q0-2.926,4.73-2.926Zm0,1.285h-.547a5.446,5.446,0,0,0-2.4.41,1.238,1.238,0,0,0-.684,1.2,1.112,1.112,0,0,0,.41.909A1.538,1.538,0,0,0,18.8-.841a2.164,2.164,0,0,0,1.483-.588,2.11,2.11,0,0,0,.725-1.654ZM32.957-7.909v6.146A3.411,3.411,0,0,1,32.089.745a3.635,3.635,0,0,1-2.693.923A5.915,5.915,0,0,1,25.759.615L26.545-.67a4.223,4.223,0,0,0,2.721.9q1.9,0,1.9-1.777v-.6a2.665,2.665,0,0,1-2.058.882A3.441,3.441,0,0,1,26.73-2.16a3.208,3.208,0,0,1-1.107-2.509,3.335,3.335,0,0,1,.622-1.955A3.469,3.469,0,0,1,27.8-7.875a3.456,3.456,0,0,1,1.319-.26,2.835,2.835,0,0,1,2.14.9l.212-.67ZM31.166-5.5a1.97,1.97,0,0,0-1.839-1.176,1.721,1.721,0,0,0-1.395.595,2.1,2.1,0,0,0-.465,1.408,2.035,2.035,0,0,0,.465,1.388,1.733,1.733,0,0,0,1.381.574,1.892,1.892,0,0,0,1.853-1.217ZM43.624-3.425H37.465a2.651,2.651,0,0,0,.684,1.764,2.58,2.58,0,0,0,1.948.8,3.142,3.142,0,0,0,2.468-1.306L43.658-1.06a4.5,4.5,0,0,1-3.732,1.7A4.16,4.16,0,0,1,36.775-.615a4.325,4.325,0,0,1-1.142-3.1,4.8,4.8,0,0,1,.745-2.687,3.818,3.818,0,0,1,1.771-1.47,4.189,4.189,0,0,1,1.62-.314,3.67,3.67,0,0,1,2.345.766,3.825,3.825,0,0,1,1.354,2.181,5.563,5.563,0,0,1,.157,1.34ZM41.792-4.758a2.424,2.424,0,0,0-.369-1.176A1.946,1.946,0,0,0,39.714-6.8,2.007,2.007,0,0,0,38.073-6a2.452,2.452,0,0,0-.492,1.237Z" transform="translate(367 2537)" fill="#fff"/>
    <path id="Polygon_12" data-name="Polygon 12" d="M5,0l5,7H0Z" transform="translate(454 2528) rotate(90)" fill="#1a1311"/>
  </g>
</svg>
