<svg xmlns="http://www.w3.org/2000/svg" xmlns:xlink="http://www.w3.org/1999/xlink" width="230" height="78" viewBox="0 0 230 78">
  <defs>
    <filter id="shopage-on-mb" x="0" y="0" width="230" height="78" filterUnits="userSpaceOnUse">
      <feOffset dy="8" input="SourceAlpha"/>
      <feGaussianBlur result="blur"/>
      <feFlood flood-color="#1a1311"/>
      <feComposite operator="in" in2="blur"/>
      <feComposite in="SourceGraphic"/>
    </filter>
  </defs>
  <g id="shopage-on-mb-2" data-name="shopage-on-mb" transform="translate(-261 -2511)">
    <g transform="matrix(1, 0, 0, 1, 261, 2511)" filter="url(#shopage-on-mb)">
      <g id="shopage-on-mb-3" data-name="shopage-on-mb" fill="#028cca" stroke="#1a1311" stroke-width="2">
        <rect width="230" height="70" rx="35" stroke="none"/>
        <rect x="1" y="1" width="228" height="68" rx="34" fill="none"/>
      </g>
    </g>
    <path id="Path_5292" data-name="Path 5292" d="M-49.083-2.883A5.117,5.117,0,0,0-45.1-1.07a3.082,3.082,0,0,0,1.727-.43,1.665,1.665,0,0,0,.766-1.453,1.68,1.68,0,0,0-.664-1.375A9.907,9.907,0,0,0-45.38-5.336l-.3-.117-.531-.211q-.055-.023-.2-.078a9.016,9.016,0,0,1-2.227-1.07q-.078-.07-.2-.2a3.064,3.064,0,0,1-.836-2.164A3.292,3.292,0,0,1-48.489-11.8a4.933,4.933,0,0,1,3.313-1.047,7.321,7.321,0,0,1,2.594.43,6.807,6.807,0,0,1,1.8,1.078l-1.078,1.5a4.633,4.633,0,0,0-3.3-1.312,2.462,2.462,0,0,0-1.828.586,1.677,1.677,0,0,0-.484,1.211,1.5,1.5,0,0,0,.7,1.3,9.352,9.352,0,0,0,1.891.828l.625.227a8.722,8.722,0,0,1,2.828,1.453,3.266,3.266,0,0,1,1.063,2.492,3.356,3.356,0,0,1-1.461,2.9,5.588,5.588,0,0,1-3.281.852,6.579,6.579,0,0,1-5.18-2.2Zm12.058-10.4h2.109v5.844a3.635,3.635,0,0,1,3.188-1.781,3.167,3.167,0,0,1,2.641,1.156,4.078,4.078,0,0,1,.688,2.57V.4h-2.109V-5.219A2.846,2.846,0,0,0-30.9-6.891a1.6,1.6,0,0,0-1.391-.6,2.381,2.381,0,0,0-1.734.813,3.87,3.87,0,0,0-.891,1.523V.4h-2.109Zm16.534,3.938a4.7,4.7,0,0,1,3.547,1.461,4.941,4.941,0,0,1,1.328,3.57A5.058,5.058,0,0,1-16.8-.859,4.7,4.7,0,0,1-20.514.719,4.659,4.659,0,0,1-24.3-.953,5.1,5.1,0,0,1-25.4-4.312a4.722,4.722,0,0,1,2.086-4.2A4.958,4.958,0,0,1-20.491-9.344Zm-.031,1.6a2.432,2.432,0,0,0-1.641.633,3.494,3.494,0,0,0-1.086,2.8,4.438,4.438,0,0,0,.266,1.578,2.945,2.945,0,0,0,.734,1.117,2.469,2.469,0,0,0,1.75.672,2.425,2.425,0,0,0,2.133-1.148,3.953,3.953,0,0,0,.594-2.227,3.756,3.756,0,0,0-.8-2.492A2.448,2.448,0,0,0-20.522-7.742Zm9.777-1.3v1.281A4.084,4.084,0,0,1-7.488-9.3,4.1,4.1,0,0,1-4.316-7.984,4.732,4.732,0,0,1-3.167-4.641a5.125,5.125,0,0,1-.82,2.969A3.938,3.938,0,0,1-7.456.047a3.652,3.652,0,0,1-3.133-1.422V1.906h-2.094V-9.039Zm.156,5.852A3.2,3.2,0,0,0-7.964-1.57a2.391,2.391,0,0,0,1.891-.789,3.366,3.366,0,0,0,.719-2.3,3.38,3.38,0,0,0-.6-2.125,2.4,2.4,0,0,0-2.008-.875,2.66,2.66,0,0,0-1.7.594,3.137,3.137,0,0,0-.93,1.266ZM7.87-9.039v1.281A4.084,4.084,0,0,1,11.128-9.3,4.1,4.1,0,0,1,14.3-7.984a4.732,4.732,0,0,1,1.148,3.344,5.125,5.125,0,0,1-.82,2.969A3.938,3.938,0,0,1,11.159.047,3.652,3.652,0,0,1,8.027-1.375V1.906H5.933V-9.039Zm.156,5.852A3.2,3.2,0,0,0,10.652-1.57a2.391,2.391,0,0,0,1.891-.789,3.366,3.366,0,0,0,.719-2.3,3.38,3.38,0,0,0-.6-2.125,2.4,2.4,0,0,0-2.008-.875,2.66,2.66,0,0,0-1.7.594A3.137,3.137,0,0,0,8.027-5.8ZM24.014-5.68v-.148q0-1.93-1.836-1.93a5,5,0,0,0-3.094,1.039l-.8-1.445a7.092,7.092,0,0,1,3.961-1.18,3.86,3.86,0,0,1,3.1,1.2,3.6,3.6,0,0,1,.711,2.422v3.3A5.834,5.834,0,0,0,26.623.4H24.717a4.461,4.461,0,0,1-.445-1.484h-.055A3.336,3.336,0,0,1,22.936.234a3.62,3.62,0,0,1-1.9.438,3.332,3.332,0,0,1-2.312-.82,2.815,2.815,0,0,1-.953-2.187q0-3.344,5.406-3.344Zm0,1.469h-.625a6.225,6.225,0,0,0-2.742.469,1.415,1.415,0,0,0-.781,1.375,1.271,1.271,0,0,0,.469,1.039,1.758,1.758,0,0,0,1.156.367,2.473,2.473,0,0,0,1.7-.672,2.411,2.411,0,0,0,.828-1.891ZM37.666-9.039v7.023A3.9,3.9,0,0,1,36.673.852,4.154,4.154,0,0,1,33.6,1.906,6.759,6.759,0,0,1,29.439.7l.9-1.469A4.826,4.826,0,0,0,33.447.258q2.172,0,2.172-2.031v-.687a3.046,3.046,0,0,1-2.352,1.008,3.933,3.933,0,0,1-2.719-1.016,3.666,3.666,0,0,1-1.266-2.867,3.812,3.812,0,0,1,.711-2.234A3.964,3.964,0,0,1,31.775-9a3.95,3.95,0,0,1,1.508-.3,3.239,3.239,0,0,1,2.445,1.023l.242-.766Zm-2.047,2.75a2.252,2.252,0,0,0-2.1-1.344,1.967,1.967,0,0,0-1.594.68,2.4,2.4,0,0,0-.531,1.609,2.326,2.326,0,0,0,.531,1.586A1.981,1.981,0,0,0,33.5-3.1a2.163,2.163,0,0,0,2.117-1.391ZM49.856-3.914H42.817A3.03,3.03,0,0,0,43.6-1.9a2.949,2.949,0,0,0,2.227.914,3.591,3.591,0,0,0,2.82-1.492L49.9-1.211A5.145,5.145,0,0,1,45.63.727a4.754,4.754,0,0,1-3.6-1.43,4.943,4.943,0,0,1-1.3-3.547,5.49,5.49,0,0,1,.852-3.07A4.364,4.364,0,0,1,43.6-9a4.788,4.788,0,0,1,1.852-.359,4.194,4.194,0,0,1,2.68.875,4.372,4.372,0,0,1,1.547,2.492,6.358,6.358,0,0,1,.18,1.531ZM47.763-5.437a2.77,2.77,0,0,0-.422-1.344,2.224,2.224,0,0,0-1.953-.992,2.294,2.294,0,0,0-1.875.922,2.8,2.8,0,0,0-.562,1.414Z" transform="translate(376 2552)" fill="#fff"/>
    <path id="Polygon_12" data-name="Polygon 12" d="M7.5,0,15,11H0Z" transform="translate(469 2538) rotate(90)" fill="#1a1311"/>
  </g>
</svg>
