<svg xmlns="http://www.w3.org/2000/svg" xmlns:xlink="http://www.w3.org/1999/xlink" width="1273.291" height="515" viewBox="0 0 1273.291 515">
  <defs>
    <clipPath id="clip-path">
      <rect id="Rectangle_58" data-name="Rectangle 58" width="1236" height="515" rx="10" transform="translate(66 2977)" fill="#028cca" stroke="#1a1311" stroke-width="2"/>
    </clipPath>
    <clipPath id="clip-path-2">
      <rect id="Rectangle_44" data-name="Rectangle 44" width="271.316" height="36.497" fill="#fff"/>
    </clipPath>
  </defs>
  <g id="shop-limit-ttl" transform="translate(-29.709 -2979)">
    <g id="base" transform="translate(1 2)" clip-path="url(#clip-path)">
      <rect id="Rectangle_57" data-name="Rectangle 57" width="833" height="287" transform="translate(-136.143 2948.292) rotate(-21)" fill="#df1f17"/>
    </g>
    <g id="h1" transform="translate(97.193 3054.578) rotate(-11)">
      <g id="Group_36" data-name="Group 36" clip-path="url(#clip-path-2)">
        <path id="Path_284" data-name="Path 284" d="M17.17,8.333H30.312v28.3c-1.554,1.1-4.734,1.1-8.161.283V32.32H25.3V28.858H21.762c-.6,3.886-2.013,6.677-5.157,8.832l-2.65-2.684L11.517,36.56a24.876,24.876,0,0,0-2.65-4.628l1.307-.883H6.606L8.444,32.5c-1.1,1.766-3.357,4.416-5.512,5.265L0,34.229a32.991,32.991,0,0,0,3.71-3.18H.353V27.163H1.908V16.352H.46V12.466H1.908V8.333H6.854v4.133H9.68V8.333H14.7v4.133h1.448v3.886H14.7v10.81h1.448v3.5c1.025-2.473,1.025-4.346,1.025-8.8ZM6.854,18.012H9.68v-1.66H6.854ZM9.68,20.839H6.854v1.8H9.68Zm0,4.628H6.854v1.7H9.68ZM13.5,31.049a11.086,11.086,0,0,1,1.342,1.766,8.784,8.784,0,0,0,1.13-1.766Zm8.62-14.767H25.3V12.926h-3.18Zm0,7.983H25.3V20.874h-3.18Z" transform="translate(0 -2.26)" fill="#fff"/>
        <path id="Path_285" data-name="Path 285" d="M55.474,21.051v16.18a6.384,6.384,0,0,1-2.685.531,5.841,5.841,0,0,1-2.614-.531V8.333H63.423V21.051a5.285,5.285,0,0,1-2.473.53,5.131,5.131,0,0,1-2.473-.53Zm0-7.632h3V11.865h-3Zm3,2.473h-3v1.625h3Zm6.536-7.56H78.72V37.054a7.225,7.225,0,0,1-3.781.708,17.856,17.856,0,0,1-4.558-.566V35.712a4.808,4.808,0,0,1-1.8.318,5.437,5.437,0,0,1-2.473-.6H62.716a5.552,5.552,0,0,1-2.473.6,5.431,5.431,0,0,1-2.472-.6V23.065H71.053v9.821H73.42V21.051H69.958a5.284,5.284,0,0,1-2.473.53,5.127,5.127,0,0,1-2.473-.53Zm-2.3,19.607h3.392V26.6H62.716Zm3.392,2.649H62.716V31.9h3.392ZM69.958,13.42H73.42V11.865H69.958Zm3.462,2.473H69.958v1.625H73.42Z" transform="translate(-13.61 -2.26)" fill="#fff"/>
        <path id="Path_286" data-name="Path 286" d="M102.351,31.225V37.2a5.106,5.106,0,0,1-2.473.566A4.87,4.87,0,0,1,97.44,37.2V8.333h11.976c0,4.239-.388,7.843-2.9,11.34a22.569,22.569,0,0,1,3.145,10.987c-1.661.67-4.84.777-7.313.565m0-18.653V18.3a19.463,19.463,0,0,0,2.049-5.724Zm0,14.272h1.908a25.473,25.473,0,0,0-1.908-6.288Zm26,6.677-3.639,4.241a12.312,12.312,0,0,1-5.193-4.805v2.9c-3.32,1.66-10.245,1.377-11.658,1.307V32h2.367V8.333h15.756V23.347a6.989,6.989,0,0,1-.917.353l2.861,2.967a14.947,14.947,0,0,1-3.78,3.109,18.291,18.291,0,0,0,4.2,3.744M115.281,13.985h5.689V12.219h-5.689Zm0,5.122h5.689V17.165h-5.689ZM118.919,32a25.577,25.577,0,0,1-3.179-8.655h-.46V32Zm4.558-8.126a5.371,5.371,0,0,1-2.508-.53h-.707a28.819,28.819,0,0,0,1.342,2.792l2.331-2.262Z" transform="translate(-26.43 -2.26)" fill="#fff"/>
        <path id="Path_287" data-name="Path 287" d="M175.6,30.874l-.813,5.688c-2.12.212-5.193.318-8.479.353-6.853-.07-10.458-1.979-12.435-4.981a13.07,13.07,0,0,1-4.523,5.829l-3.921-4.1c3.639-3.78,4.451-6.641,4.628-10.81h5.477c-.036.954-.106,2.049-.248,3.18A6.355,6.355,0,0,0,157.9,29.6V20.594h-8.727V18.227a5.874,5.874,0,0,1-2.508-.495V9.784h11.269V7.17h6.006V9.784h11.2v7.949a6.623,6.623,0,0,1-2.684.495v2.367h-8.55V23.88h8.8v4.238h-8.8v2.932a77.745,77.745,0,0,0,11.694-.176m-23.635-14.52h17.876V14.376H151.968Z" transform="translate(-39.448 -1.945)" fill="#fff"/>
        <path id="Path_288" data-name="Path 288" d="M209.493,16.131h-12V9.772h12Zm-12,2.161h12V24.65h-12Zm3.943,13.1c9.707-2.247,13.9-7.164,15.9-15.219h8.436c-2.417,13.4-10.216,19.923-19.669,22.3Z" transform="translate(-53.57 -2.651)" fill="#fff"/>
        <path id="Path_289" data-name="Path 289" d="M255.808,25.548H244.193V19.487h19.2c.17,2.288.255,5.892.255,9.537,0,4.62-.128,9.325-.34,11.826h-19.16V34.789h11.657V32.881H245.083V27.371h10.725Z" transform="translate(-66.225 -5.286)" fill="#fff"/>
        <path id="Path_290" data-name="Path 290" d="M286.423,19.951l1.483,9.495-5.85.763c-.933-1.611-1.78-6.952-1.78-9.452a4.321,4.321,0,0,1,.043-.806Zm7.968,0,1.315,8.987-5.85.763c-1.1-1.78-1.992-7.884-1.7-9.75Zm-5.129,17.04c6.613-3.561,9.877-8.351,10.216-17.04h7.333c-.466,10.852-4.96,18.143-12.589,21.958Z" transform="translate(-76.024 -5.412)" fill="#fff"/>
        <path id="Path_291" data-name="Path 291" d="M331.4,30.69c7.46-3.392,11.656-8.987,12.674-15.091H327.454V8.816H353.4c0,11.7-4.706,22.763-15.854,27.553ZM351.7,4.238a4.218,4.218,0,1,1,8.436,0,4.218,4.218,0,0,1-8.436,0m6.358,0a2.135,2.135,0,0,0-2.119-2.161,2.171,2.171,0,0,0-2.162,2.161,2.135,2.135,0,0,0,2.162,2.119,2.1,2.1,0,0,0,2.119-2.119" transform="translate(-88.821)" fill="#fff"/>
      </g>
      <g id="Group_2219" data-name="Group 2219" transform="translate(487.433 -3017.002) rotate(11)">
        <path id="Path_4272" data-name="Path 4272" d="M0,0H44.037V104.716Z" transform="translate(40.815 3180.915) rotate(-103)" fill="#f6ba00" stroke="#1a1311" stroke-width="2"/>
        <path id="Path_4273" data-name="Path 4273" d="M0,0H17.773V42.263Z" transform="translate(46.174 3123.041) rotate(-85)" fill="#f6ba00" stroke="#1a1311" stroke-width="2"/>
      </g>
    </g>
  </g>
</svg>
