<svg xmlns="http://www.w3.org/2000/svg" xmlns:xlink="http://www.w3.org/1999/xlink" width="283.27" height="59.255" viewBox="0 0 283.27 59.255">
  <defs>
    <clipPath id="clip-path">
      <rect id="Rectangle_22" data-name="Rectangle 22" width="283.27" height="59.256" fill="#fffbd1" stroke="rgba(0,0,0,0)" stroke-width="1"/>
    </clipPath>
  </defs>
  <g id="ttl-bg" transform="translate(0 0)">
    <g id="Group_24" data-name="Group 24" transform="translate(0 0)" clip-path="url(#clip-path)">
      <path id="Path_282" data-name="Path 282" d="M4.215,15.248c.385.638.8,1.272,1.238,1.9h5.822v6.785q.916.888,1.9,1.762V17.151H26.523V30.494H19.287c.912.642,1.847,1.277,2.821,1.9h4.416v2.672q.937.536,1.9,1.063V32.4H41.771V42.42l.027.011c.619.253,1.248.5,1.877.748V32.4H57.019V45.743H50.631q2.854.986,5.816,1.9h.572v.177q.946.29,1.9.573v-.75H72.266v4.258c.631.145,1.268.286,1.9.428V47.647H87.514v7.3c.631.107,1.268.209,1.9.312v-7.61h13.344v9.464q.95.111,1.9.216v-9.68h13.343V58.515q.95.066,1.9.125V47.647h13.344V59.213q.951.023,1.9.042V47.647H148.5v11.6c.636-.012,1.269-.03,1.9-.046V47.647h13.344V58.614c.635-.04,1.271-.081,1.9-.125V47.647H179v9.638c.637-.071,1.271-.145,1.9-.22V47.647h13.344v7.546c.636-.1,1.271-.208,1.9-.317V47.647h13.344v4.6c.636-.143,1.272-.286,1.9-.432V47.647h13.344v.634q.957-.286,1.9-.579v-.055h.177q2.96-.919,5.816-1.9h-5.994V32.4H239.99V43.022c.495-.2.993-.391,1.482-.591.143-.058.28-.118.422-.175V32.4h13.344v3.523c.646-.355,1.278-.713,1.9-1.074V32.4h4.021c.974-.628,1.909-1.263,2.82-1.9h-6.841V17.151h13.344v8.193c.656-.592,1.3-1.186,1.9-1.787V17.151h5.428c.436-.631.853-1.265,1.238-1.9h-6.665V1.9h10.852c.013-.317.028-.634.028-.952V0H0V.951c0,.318.015.635.028.952H11.276V15.248ZM257.141,1.9h13.344V15.248H257.141Zm-15.248,0h13.344V15.248H241.894Zm0,15.248h13.344V30.494H241.894ZM226.646,1.9h13.343V15.248H226.646Zm0,15.248h13.343V30.494H226.646ZM211.4,1.9h13.344V15.248H211.4Zm0,15.248h13.344V30.494H211.4Zm0,15.248h13.344V45.743H211.4ZM196.151,1.9h13.344V15.248H196.151Zm0,15.248h13.344V30.494H196.151Zm0,15.248h13.344V45.743H196.151ZM180.9,1.9h13.343V15.248H180.9Zm0,15.248h13.343V30.494H180.9Zm0,15.248h13.343V45.743H180.9ZM165.655,1.9H179V15.248H165.655Zm0,15.248H179V30.494H165.655Zm0,15.248H179V45.743H165.655ZM150.408,1.9h13.344V15.248H150.408Zm0,15.248h13.344V30.494H150.408Zm0,15.248h13.344V45.743H150.408ZM135.16,1.9H148.5V15.248H135.16Zm0,15.248H148.5V30.494H135.16Zm0,15.248H148.5V45.743H135.16ZM119.912,1.9h13.344V15.248H119.912Zm0,15.248h13.344V30.494H119.912Zm0,15.248h13.344V45.743H119.912ZM104.666,1.9h13.343V15.248H104.666Zm0,15.248h13.343V30.494H104.666Zm0,15.248h13.343V45.743H104.666ZM89.418,1.9h13.344V15.248H89.418Zm0,15.248h13.344V30.494H89.418Zm0,15.248h13.344V45.743H89.418ZM74.169,1.9H87.513V15.248H74.169Zm0,15.248H87.513V30.494H74.169Zm0,15.248H87.513V45.743H74.169ZM58.923,1.9H72.266V15.248H58.923Zm0,15.248H72.266V30.494H58.923Zm0,15.248H72.266V45.743H58.923ZM43.675,1.9H57.019V15.248H43.675Zm0,15.248H57.019V30.494H43.675ZM28.427,1.9H41.771V15.248H28.427Zm0,15.248H41.771V30.494H28.427ZM13.18,1.9H26.523V15.248H13.18Z" transform="translate(0 0)" fill="#fffbd1" stroke="rgba(0,0,0,0)" stroke-width="1"/>
    </g>
  </g>
</svg>
