<svg xmlns="http://www.w3.org/2000/svg" width="195.077" height="83.742" viewBox="0 0 195.077 83.742">
  <g id="ttl" transform="translate(-324 -1958)">
    <g id="Union_23" data-name="Union 23" transform="translate(304 2041.742) rotate(-90)" fill="#028cca">
      <path d="M 41.87070083618164 214.0765991210938 C 36.35300064086914 214.0765991210938 31.00082588195801 212.9940948486328 25.96290016174316 210.8591766357422 C 21.09622573852539 208.7967987060547 16.72525024414062 205.8441314697266 12.97140121459961 202.0831451416016 C 9.217451095581055 198.3220520019531 6.270250797271729 193.9425811767578 4.211676120758057 189.0663757324219 C 2.080550909042358 184.0183563232422 1.000000953674316 178.6554718017578 1.000000953674316 173.1266937255859 C 1.000000953674316 167.9914245605469 1.936175942420959 162.9842529296875 3.782526016235352 158.2442321777344 C 5.566151142120361 153.6652221679688 8.13905143737793 149.4788818359375 11.4297513961792 145.8014678955078 L 12.02647590637207 145.1346282958984 L 11.4297513961792 144.4677734375 C 8.139025688171387 140.7904052734375 5.566151142120361 136.6040802001953 3.782526016235352 132.0250549316406 C 1.936175942420959 127.2849731445312 1.000000953674316 122.2776718139648 1.000000953674316 117.1421966552734 C 1.000000953674316 112.0978469848633 1.904500961303711 107.1731262207031 3.688400983810425 102.5048217773438 C 5.411701202392578 97.99510192871094 7.901401042938232 93.85627746582031 11.08835124969482 90.20335388183594 L 11.66190052032471 89.54595184326172 L 11.08835124969482 88.8885498046875 C 7.901401042938232 85.23560333251953 5.411701202392578 81.0968017578125 3.688400983810425 76.58707427978516 C 1.904500961303711 71.91877746582031 1.000000953674316 66.99404907226562 1.000000953674316 61.94969940185547 C 1.000000953674316 56.42092514038086 2.080550909042358 51.05805206298828 4.211676120758057 46.01005172729492 C 6.270250797271729 41.13382720947266 9.217451095581055 36.75434875488281 12.97140121459961 32.99325180053711 C 16.72525024414062 29.23227500915527 21.09622573852539 26.27960014343262 25.96290016174316 24.21722602844238 C 31.00082588195801 22.08230018615723 36.35300064086914 20.99979972839355 41.87070083618164 20.99979972839355 C 47.388427734375 20.99979972839355 52.74062728881836 22.08230018615723 57.77865219116211 24.21725082397461 C 62.64542770385742 26.27960014343262 67.01650238037109 29.2322998046875 70.77045440673828 32.9932746887207 C 74.52455139160156 36.75437545776367 77.47184753417969 41.13385009765625 79.53050231933594 46.01005172729492 C 81.66169738769531 51.05807495117188 82.74230194091797 56.42095184326172 82.74230194091797 61.94969940185547 C 82.74230194091797 66.99404907226562 81.83775329589844 71.91874694824219 80.05377960205078 76.58705139160156 C 78.33042907714844 81.09677886962891 75.84062957763672 85.23557281494141 72.65354919433594 88.88852691650391 L 72.07997894287109 89.54595184326172 L 72.65354919433594 90.20337677001953 C 75.84062957763672 93.85630035400391 78.33039855957031 97.99512481689453 80.05377960205078 102.5048522949219 C 81.83775329589844 107.1731491088867 82.74230194091797 112.0978775024414 82.74230194091797 117.1421966552734 C 82.74230194091797 122.2776489257812 81.80607604980469 127.2849502563477 79.95964813232422 132.0250244140625 C 78.17594909667969 136.6040191650391 75.60297393798828 140.7903747558594 72.31212615966797 144.4677734375 L 71.71537780761719 145.1346282958984 L 72.31212615966797 145.8014678955078 C 75.60295104980469 149.4788970947266 78.17594909667969 153.6652526855469 79.95964813232422 158.2442321777344 C 81.80607604980469 162.9842681884766 82.74230194091797 167.991455078125 82.74230194091797 173.1266937255859 C 82.74230194091797 178.6554565429688 81.66169738769531 184.0183258056641 79.53050231933594 189.0663452148438 C 77.47184753417969 193.9425506591797 74.52455139160156 198.322021484375 70.77045440673828 202.0831451416016 C 67.01650238037109 205.8441314697266 62.64542770385742 208.7967987060547 57.77865219116211 210.8591766357422 C 52.74062728881836 212.9940948486328 47.388427734375 214.0765991210938 41.87070083618164 214.0765991210938 Z" stroke="none"/>
      <path d="M 41.87070465087891 213.0765991210938 C 47.25362396240234 213.0765991210938 52.47457122802734 212.020751953125 57.38849258422852 209.9384155273438 C 62.13602066040039 207.9265899658203 66.40023040771484 205.0459899902344 70.06270599365234 201.3766784667969 C 73.72541046142578 197.7071228027344 76.60089111328125 193.4344635009766 78.6092529296875 188.6774139404297 C 80.68820190429688 183.7531280517578 81.7423095703125 178.5211181640625 81.7423095703125 173.1266937255859 C 81.7423095703125 168.1161499023438 80.82904815673828 163.2310638427734 79.02786254882812 158.6071929931641 C 77.28781127929688 154.1402740478516 74.77759552001953 150.05615234375 71.56694030761719 146.4683380126953 L 70.37346649169922 145.1346282958984 L 71.56696319580078 143.8009033203125 C 74.77759552001953 140.2131195068359 77.28781127929688 136.1290130615234 79.02786254882812 131.6620635986328 C 80.82904815673828 127.0381469726562 81.7423095703125 122.152961730957 81.7423095703125 117.1421966552734 C 81.7423095703125 112.220329284668 80.85991668701172 107.4157028198242 79.11967468261719 102.8618087768555 C 77.43846893310547 98.46244049072266 75.00943756103516 94.42469787597656 71.90001678466797 90.86077880859375 L 70.75286102294922 89.54593658447266 L 71.90001678466797 88.23109436035156 C 75.00943756103516 84.66717529296875 77.43846893310547 80.62946319580078 79.11967468261719 76.23009490966797 C 80.85991668701172 71.67620086669922 81.7423095703125 66.87156677246094 81.7423095703125 61.94969940185547 C 81.7423095703125 56.55527877807617 80.68820190429688 51.32328033447266 78.6092529296875 46.39899063110352 C 76.60089111328125 41.64196395874023 73.72541046142578 37.36930465698242 70.06270599365234 33.69972610473633 C 66.40023040771484 30.03041076660156 62.13602066040039 27.14983177185059 57.38849258422852 25.13798904418945 C 52.47457122802734 23.0556468963623 47.25362396240234 21.99980545043945 41.87070465087891 21.99980545043945 C 36.4877815246582 21.99980545043945 31.26691436767578 23.0556468963623 26.35307121276855 25.13798904418945 C 21.60565185546875 27.14980506896973 17.34154510498047 30.0303840637207 13.67917728424072 33.69969940185547 C 10.01657199859619 37.3692512512207 7.1412034034729 41.64191055297852 5.132940292358398 46.39896392822266 C 3.054072141647339 51.3232536315918 1.999993085861206 56.55525207519531 1.999993085861206 61.94969940185547 C 1.999993085861206 66.87159729003906 2.882335186004639 71.67622375488281 4.622519493103027 76.23011779785156 C 6.303650856018066 80.62948608398438 8.732598304748535 84.66722869873047 11.84188747406006 88.23112487792969 L 12.98899269104004 89.54593658447266 L 11.84188747406006 90.86075592041016 C 8.732598304748535 94.42467498779297 6.303650856018066 98.46240997314453 4.622519493103027 102.8617782592773 C 2.882335186004639 107.4156723022461 1.999993085861206 112.2203063964844 1.999993085861206 117.1421966552734 C 1.999993085861206 122.1529922485352 2.913229942321777 127.038200378418 4.714334964752197 131.6620941162109 C 6.454308986663818 136.1290740966797 8.96444034576416 140.2131805419922 12.17496681213379 143.8009338378906 L 13.3684139251709 145.1346282958984 L 12.17496681213379 146.4683074951172 C 8.96444034576416 150.0561218261719 6.454308986663818 154.1402282714844 4.714334964752197 158.607177734375 C 2.913229942321777 163.2310485839844 1.999993085861206 168.1160888671875 1.999993085861206 173.1266937255859 C 1.999993085861206 178.5211486816406 3.054072141647339 183.753173828125 5.132940292358398 188.6774444580078 C 7.1412034034729 193.4344940185547 10.01657199859619 197.7071533203125 13.67917728424072 201.3766937255859 C 17.34154510498047 205.0460205078125 21.60565185546875 207.9265899658203 26.35307121276855 209.9384155273438 C 31.26691436767578 212.020751953125 36.4877815246582 213.0765991210938 41.87070465087891 213.0765991210938 M 41.87070465087891 215.0765991210938 C 18.74609756469727 215.0765991210938 -6.924277840880677e-06 196.2945098876953 -6.924277840880677e-06 173.1266937255859 C -6.924277840880677e-06 162.3700103759766 4.040414333343506 152.5595703125 10.68457221984863 145.1346282958984 C 4.040414333343506 137.7097778320312 -6.924277840880677e-06 127.8993072509766 -6.924277840880677e-06 117.1421966552734 C -6.924277840880677e-06 106.5764083862305 3.899782657623291 96.92185974121094 10.33483505249023 89.54593658447266 C 3.899782657623291 82.1700439453125 -6.924277840880677e-06 72.51548767089844 -6.924277840880677e-06 61.94969940185547 C -6.924277840880677e-06 38.78190994262695 18.74609756469727 19.99980545043945 41.87070465087891 19.99980545043945 C 64.99530792236328 19.99980545043945 83.7423095703125 38.78190994262695 83.7423095703125 61.94969940185547 C 83.7423095703125 72.51548767089844 79.84230804443359 82.1700439453125 73.40707397460938 89.54593658447266 C 79.84230804443359 96.92185974121094 83.7423095703125 106.5764083862305 83.7423095703125 117.1421966552734 C 83.7423095703125 127.8993072509766 79.70167541503906 137.7097778320312 73.05733489990234 145.1346282958984 C 79.70167541503906 152.5595703125 83.7423095703125 162.3700103759766 83.7423095703125 173.1266937255859 C 83.7423095703125 196.2945098876953 64.99530792236328 215.0765991210938 41.87070465087891 215.0765991210938 Z" stroke="none" fill="#1a1311"/>
    </g>
  </g>
</svg>
