<svg xmlns="http://www.w3.org/2000/svg" width="96" height="102.927" viewBox="0 0 96 102.927">
  <g id="button_pc_top" transform="translate(1.5 1.5)">
    <path id="Path_144" data-name="Path 144" d="M35.984,100.927c8.715-8.641,25.963-12.106,39.389-8.006-2.8-16.6,4.855-32.776,18.627-45.2C80.543,49.977,76.1,32.654,82.552,20.1c-11.043,7.159-12.464,2.372-11.47-5.421C62.952,22.61,59.934,14.9,60.387,1c-9.364,17.817-24.42,20.249-32.17,9.49,1.408,12.365-7.063,22.646-20.879,19.456C17.791,37.1,13.2,51.695,1,50.084c12.2,1.611,15.87,28.979,5.071,37.795C20.249,82.565,34.767,89.306,35.984,100.927Z" transform="translate(-1 -1)" fill="#fff" stroke="#231815" stroke-linecap="round" stroke-linejoin="round" stroke-width="3"/>
    <path id="Path_181" data-name="Path 181" d="M35.984,100.927c8.715-8.641,25.963-12.106,39.389-8.006-2.8-16.6,4.855-32.776,18.627-45.2C80.543,49.977,76.1,32.654,82.552,20.1c-11.043,7.159-12.464,2.372-11.47-5.421C62.952,22.61,59.934,14.9,60.387,1c-9.364,17.817-24.42,20.249-32.17,9.49,1.408,12.365-7.063,22.646-20.879,19.456C17.791,37.1,13.2,51.695,1,50.084c12.2,1.611,15.87,28.979,5.071,37.795C20.249,82.565,34.767,89.306,35.984,100.927Z" transform="translate(-1 -1)" fill="#fff" stroke="#231815" stroke-linecap="round" stroke-linejoin="round" stroke-width="3"/>
    <path id="Path_180" data-name="Path 180" d="M0,35,23.348,17.5,0,0" transform="translate(29.002 64.673) rotate(-90)" fill="none" stroke="#231815" stroke-linecap="round" stroke-linejoin="round" stroke-width="3"/>
  </g>
</svg>
