<svg xmlns="http://www.w3.org/2000/svg" width="56" height="56" viewBox="0 0 56 56">
  <g id="line" transform="translate(-160 -5058)">
    <circle id="Ellipse_6" data-name="Ellipse 6" cx="28" cy="28" r="28" transform="translate(160 5058)"/>
    <g id="logo_line" transform="translate(173.503 5072.515)">
      <path id="Path_52" data-name="Path 52" d="M29.16,11.832C29.16,5.308,22.619,0,14.58,0S0,5.308,0,11.832C0,17.681,5.186,22.579,12.193,23.5c.475.1,1.121.313,1.285.719a3,3,0,0,1,.047,1.319s-.171,1.028-.208,1.248c-.064.368-.293,1.441,1.263.786s8.4-4.944,11.455-8.466h0a10.527,10.527,0,0,0,3.126-7.28" transform="translate(0 0)" fill="#3baa64"/>
      <path id="Path_53" data-name="Path 53" d="M28.413,17.386h-4.1a.278.278,0,0,1-.279-.279v0h0V10.745a.278.278,0,0,1,.279-.279h4.1a.279.279,0,0,1,.279.279v1.033a.279.279,0,0,1-.279.279H25.629v1.074h2.784a.279.279,0,0,1,.279.279v1.033a.279.279,0,0,1-.279.279H25.629V15.8h2.784a.279.279,0,0,1,.279.278v1.034a.279.279,0,0,1-.279.279" transform="translate(-4.103 -1.787)"/>
      <path id="Path_54" data-name="Path 54" d="M10.142,17.386a.279.279,0,0,0,.279-.279V16.073a.279.279,0,0,0-.279-.278H7.358v-5.05a.279.279,0,0,0-.279-.279H6.046a.278.278,0,0,0-.279.279V17.1h0v0a.278.278,0,0,0,.279.279h4.1Z" transform="translate(-0.984 -1.787)"/>
      <path id="Path_55" data-name="Path 55" d="M13.746,10.466H12.712a.279.279,0,0,0-.279.279v6.363a.279.279,0,0,0,.279.278h1.034a.279.279,0,0,0,.279-.278V10.745a.279.279,0,0,0-.279-.279" transform="translate(-2.122 -1.787)"/>
      <path id="Path_56" data-name="Path 56" d="M21.317,10.466H20.283a.279.279,0,0,0-.279.279v3.779l-2.911-3.932a.246.246,0,0,0-.022-.029l0,0-.017-.017-.006,0-.015-.012-.007-.006-.015-.01-.008,0-.016-.009-.008,0-.017-.007-.009,0-.017-.006-.01,0-.017,0-.012,0-.015,0H15.829a.278.278,0,0,0-.278.279v6.363a.278.278,0,0,0,.278.278h1.034a.279.279,0,0,0,.279-.278V13.33l2.915,3.937a.271.271,0,0,0,.071.07l0,0,.017.011.008,0,.013.007.014.006.008,0,.019.006h0a.267.267,0,0,0,.073.01h1.028a.279.279,0,0,0,.279-.278V10.745a.279.279,0,0,0-.279-.279" transform="translate(-2.654 -1.787)"/>
    </g>
  </g>
</svg>
