<svg xmlns="http://www.w3.org/2000/svg" xmlns:xlink="http://www.w3.org/1999/xlink" width="87.784" height="88.039" viewBox="0 0 87.784 88.039">
  <defs>
    <clipPath id="clip-path">
      <rect id="Rectangle_3110" data-name="Rectangle 3110" width="87.784" height="88.039" fill="none"/>
    </clipPath>
  </defs>
  <g id="circle" transform="translate(-78.504 -6671.52)">
    <g id="Group_2376" data-name="Group 2376" transform="translate(78.504 6671.52)">
      <path id="Path_3702" data-name="Path 3702" d="M32.984,9.244l2.224-.861.261.674L32.417,10.24l-2.46-6.352.829-.323Z" transform="translate(-3.338 -0.397)"/>
      <rect id="Rectangle_3104" data-name="Rectangle 3104" width="0.89" height="6.812" transform="matrix(0.963, -0.269, 0.269, 0.963, 31.461, 1.786)"/>
      <path id="Path_3703" data-name="Path 3703" d="M46.166,0l-.941.116-1.8,5.855L40.258.727l-.95.117.825,6.713.883-.108L40.4,2.433l2.859,4.74.62-.076,1.615-5.28.616,5,.883-.108Z" transform="translate(-4.38 0)"/>
      <rect id="Rectangle_3105" data-name="Rectangle 3105" width="6.813" height="0.889" transform="translate(44.288 6.854) rotate(-88.568)"/>
      <path id="Path_3704" data-name="Path 3704" d="M57.895.756l-.1.718-1.841-.248-.81,6.035-.881-.119.81-6.034L53.226.859l.1-.716Z" transform="translate(-5.93 -0.016)"/>
      <path id="Path_3705" data-name="Path 3705" d="M61.346,2.323l-.622,2.191,2.388.678-.2.7-2.389-.677-.641,2.256,2.67.758-.2.706-3.526-1L60.69,1.375l3.526,1-.2.7Z" transform="translate(-6.554 -0.153)"/>
      <g id="Group_2377" data-name="Group 2377" transform="translate(0 0)">
        <g id="Group_2376-2" data-name="Group 2376" clip-path="url(#clip-path)">
          <path id="Path_3706" data-name="Path 3706" d="M70.809,5.6A2.922,2.922,0,0,1,71.431,7.2a3.64,3.64,0,0,1-.385,1.829,3.623,3.623,0,0,1-1.168,1.453,2.878,2.878,0,0,1-1.633.525,4.291,4.291,0,0,1-1.918-.46l-1.917-.907,2.915-6.158,1.917.908a4.2,4.2,0,0,1,1.567,1.2m-2.05,4.524a2.661,2.661,0,0,0,1.465-1.475,2.71,2.71,0,0,0,.218-2.093,2.684,2.684,0,0,0-1.51-1.5L67.818,4.52,65.527,9.361l1.113.528a2.719,2.719,0,0,0,2.119.23" transform="translate(-7.176 -0.388)"/>
          <path id="Path_3707" data-name="Path 3707" d="M81.352,14.963a2.12,2.12,0,0,0-.013-1.236,2.358,2.358,0,0,0-.729-1.068,2.55,2.55,0,0,0-1.184-.6,2.329,2.329,0,0,0-1.295.118,2.955,2.955,0,0,0-1.174.85,2.916,2.916,0,0,0-.677,1.277,2.325,2.325,0,0,0,.066,1.295,2.539,2.539,0,0,0,.754,1.09,2.321,2.321,0,0,0,1.631.628,2.461,2.461,0,0,0,1.626-.722l-2.05-1.783.475-.546,2.766,2.406-.45.515a3.385,3.385,0,0,1-1.408.815,3.247,3.247,0,0,1-1.617.057,3.326,3.326,0,0,1-1.5-.765,3.438,3.438,0,0,1-1.013-1.471,3.258,3.258,0,0,1-.121-1.744,3.751,3.751,0,0,1,2.351-2.7,3.243,3.243,0,0,1,1.748-.125,3.65,3.65,0,0,1,2.693,2.467,3.075,3.075,0,0,1-.077,1.942Z" transform="translate(-8.398 -1.246)"/>
          <path id="Path_3708" data-name="Path 3708" d="M81.8,22a3.253,3.253,0,0,1,.242-1.735A3.76,3.76,0,0,1,84.9,18.1a3.246,3.246,0,0,1,1.735.235,3.6,3.6,0,0,1,2.1,2.765,3.232,3.232,0,0,1-.241,1.728A3.819,3.819,0,0,1,85.629,25a3.224,3.224,0,0,1-1.73-.234A3.6,3.6,0,0,1,81.8,22m2.348,2a2.334,2.334,0,0,0,1.3.143,3.284,3.284,0,0,0,2.278-1.727,2.358,2.358,0,0,0,.211-1.283,2.674,2.674,0,0,0-1.559-2.055,2.345,2.345,0,0,0-1.292-.142,3.279,3.279,0,0,0-2.278,1.727A2.342,2.342,0,0,0,82.6,21.96a2.653,2.653,0,0,0,1.553,2.049" transform="translate(-9.111 -2.013)"/>
          <path id="Path_3709" data-name="Path 3709" d="M86.706,29.4a3.246,3.246,0,0,1,.6-1.647,3.757,3.757,0,0,1,3.244-1.53,3.245,3.245,0,0,1,1.65.588,3.61,3.61,0,0,1,1.48,3.138,3.238,3.238,0,0,1-.593,1.641,3.82,3.82,0,0,1-3.254,1.534,3.22,3.22,0,0,1-1.644-.586A3.6,3.6,0,0,1,86.706,29.4m1.883,2.445a2.334,2.334,0,0,0,1.24.41,3.294,3.294,0,0,0,2.587-1.22,2.359,2.359,0,0,0,.471-1.21,2.664,2.664,0,0,0-1.1-2.334,2.355,2.355,0,0,0-1.235-.407,3.284,3.284,0,0,0-2.586,1.22,2.334,2.334,0,0,0-.474,1.217,2.645,2.645,0,0,0,1.1,2.325" transform="translate(-9.66 -2.921)"/>
          <path id="Path_3710" data-name="Path 3710" d="M96.379,38.807a2.916,2.916,0,0,1-.855,1.5A4,4,0,0,1,92,41.172a2.857,2.857,0,0,1-1.438-.934,4.3,4.3,0,0,1-.855-1.778L89.2,36.4l6.615-1.625.506,2.06a4.205,4.205,0,0,1,.057,1.974m-4.8,1.266a2.657,2.657,0,0,0,2.069.205,2.717,2.717,0,0,0,1.76-1.151,2.684,2.684,0,0,0,.213-2.121l-.293-1.2-5.2,1.279.293,1.2a2.719,2.719,0,0,0,1.16,1.79" transform="translate(-9.939 -3.874)"/>
          <path id="Path_3711" data-name="Path 3711" d="M91.117,45.193a2.006,2.006,0,0,1,.606-.879,1.7,1.7,0,0,1,.959-.379l.064.945a1.255,1.255,0,0,0-.778.451,1.42,1.42,0,0,0-.258,1.031,1.479,1.479,0,0,0,.386.978,1.029,1.029,0,0,0,.839.311.938.938,0,0,0,.619-.258,1.385,1.385,0,0,0,.334-.562,8.409,8.409,0,0,0,.213-.887,7.752,7.752,0,0,1,.278-1.1,1.744,1.744,0,0,1,.5-.73,1.625,1.625,0,0,1,.99-.355,1.751,1.751,0,0,1,1,.215,1.85,1.85,0,0,1,.717.75,2.8,2.8,0,0,1,.315,1.159,2.472,2.472,0,0,1-.371,1.6,1.771,1.771,0,0,1-1.221.774l-.067-.975a1.061,1.061,0,0,0,.66-.457,1.46,1.46,0,0,0,.232-.977,1.393,1.393,0,0,0-.349-.887.983.983,0,0,0-.829-.3.871.871,0,0,0-.59.251,1.356,1.356,0,0,0-.321.54,9.007,9.007,0,0,0-.219.882,8.209,8.209,0,0,1-.292,1.107,1.8,1.8,0,0,1-.508.739,1.611,1.611,0,0,1-1,.363,1.791,1.791,0,0,1-.954-.2,1.946,1.946,0,0,1-.765-.731,2.589,2.589,0,0,1-.356-1.2,2.916,2.916,0,0,1,.157-1.22" transform="translate(-10.134 -4.874)"/>
          <path id="Path_3712" data-name="Path 3712" d="M91.438,55.168l-.346,2.36-.715-.1.475-3.24,6.741.986-.129.88Z" transform="translate(-10.07 -6.037)"/>
          <rect id="Rectangle_3106" data-name="Rectangle 3106" width="0.889" height="6.813" transform="matrix(0.239, -0.971, 0.971, 0.239, 79.794, 53.418)"/>
          <path id="Path_3713" data-name="Path 3713" d="M92.745,70.929l-6.252-2.582.34-.822L91.5,69.45l-3.8-4,.238-.578,5.533-.158-4.671-1.929.34-.822,6.251,2.582-.365.886-6.123.178,4.212,4.447Z" transform="translate(-9.637 -6.903)"/>
          <rect id="Rectangle_3107" data-name="Rectangle 3107" width="0.889" height="6.813" transform="matrix(0.516, -0.857, 0.857, 0.516, 75.439, 63.604)"/>
          <path id="Path_3714" data-name="Path 3714" d="M86.578,80.847,86,80.409l1.125-1.478L82.284,75.24l.539-.706,4.844,3.69L88.8,76.739l.575.438Z" transform="translate(-9.168 -8.304)"/>
          <path id="Path_3715" data-name="Path 3715" d="M83.367,82.982l-1.6-1.623L80,83.1l-.514-.522,1.768-1.743-1.646-1.671L77.63,81.115l-.514-.522,2.611-2.572,4.789,4.861L81.9,85.453l-.515-.522Z" transform="translate(-8.592 -8.693)"/>
          <path id="Path_3716" data-name="Path 3716" d="M75.8,89.627a2.925,2.925,0,0,1-1.707-.251A4,4,0,0,1,72,86.41a2.861,2.861,0,0,1,.347-1.679,4.272,4.272,0,0,1,1.343-1.445l1.734-1.223,3.928,5.567-1.734,1.223a4.212,4.212,0,0,1-1.816.774m-2.931-4.01a2.664,2.664,0,0,0,.562,2,2.721,2.721,0,0,0,1.715,1.218,2.688,2.688,0,0,0,2.053-.575l1.007-.71-3.088-4.377-1.007.71a2.714,2.714,0,0,0-1.242,1.732" transform="translate(-8.021 -9.143)"/>
          <path id="Path_3717" data-name="Path 3717" d="M62.54,94.3a2.123,2.123,0,0,0,1.081.6,2.355,2.355,0,0,0,1.289-.108,2.549,2.549,0,0,0,1.1-.737,2.317,2.317,0,0,0,.536-1.184,2.945,2.945,0,0,0-.162-1.44,2.913,2.913,0,0,0-.778-1.219,2.329,2.329,0,0,0-1.159-.58,2.538,2.538,0,0,0-1.32.119,2.326,2.326,0,0,0-1.351,1.109,2.461,2.461,0,0,0-.172,1.771l2.562-.9.241.682-3.456,1.22-.228-.644a3.387,3.387,0,0,1-.014-1.628,3.265,3.265,0,0,1,.747-1.436,3.325,3.325,0,0,1,1.4-.926,3.43,3.43,0,0,1,1.78-.156,3.265,3.265,0,0,1,1.577.754,3.76,3.76,0,0,1,1.192,3.378,3.243,3.243,0,0,1-.753,1.582,3.436,3.436,0,0,1-1.483,1,3.475,3.475,0,0,1-1.99.133,3.072,3.072,0,0,1-1.652-1.025Z" transform="translate(-6.754 -9.892)"/>
          <path id="Path_3718" data-name="Path 3718" d="M56.184,91.221a3.263,3.263,0,0,1,1.389,1.069,3.764,3.764,0,0,1,.468,3.556,3.243,3.243,0,0,1-1.063,1.393,3.607,3.607,0,0,1-3.441.454,3.23,3.23,0,0,1-1.383-1.065,3.822,3.822,0,0,1-.47-3.566,3.223,3.223,0,0,1,1.059-1.387,3.608,3.608,0,0,1,3.44-.454m-2.9,1.049a2.34,2.34,0,0,0-.768,1.057,3.288,3.288,0,0,0,.374,2.835,2.365,2.365,0,0,0,1.01.817,2.673,2.673,0,0,0,2.558-.337,2.366,2.366,0,0,0,.763-1.053,3.287,3.287,0,0,0-.374-2.834,2.339,2.339,0,0,0-1.016-.823,2.65,2.65,0,0,0-2.548.336" transform="translate(-5.731 -10.136)"/>
          <path id="Path_3719" data-name="Path 3719" d="M47.346,91.827a3.245,3.245,0,0,1,1.141,1.329,3.767,3.767,0,0,1-.267,3.577A3.253,3.253,0,0,1,46.9,97.879a3.6,3.6,0,0,1-3.461-.258A3.234,3.234,0,0,1,42.3,96.3a3.822,3.822,0,0,1,.267-3.587,3.227,3.227,0,0,1,1.319-1.141,3.6,3.6,0,0,1,3.461.258m-3.056.434a2.335,2.335,0,0,0-.967.878,3.283,3.283,0,0,0-.212,2.851A2.357,2.357,0,0,0,43.933,97a2.667,2.667,0,0,0,2.573.191,2.358,2.358,0,0,0,.961-.874,3.285,3.285,0,0,0,.212-2.851,2.335,2.335,0,0,0-.827-1.012,2.647,2.647,0,0,0-2.563-.191" transform="translate(-4.677 -10.166)"/>
          <path id="Path_3720" data-name="Path 3720" d="M34.434,95.7a2.922,2.922,0,0,1-.884-1.481,4,4,0,0,1,.978-3.5,2.866,2.866,0,0,1,1.52-.794,4.288,4.288,0,0,1,1.969.131l2.043.57-1.837,6.561-2.042-.572a4.2,4.2,0,0,1-1.748-.92m1.258-4.8a2.657,2.657,0,0,0-1.2,1.7,2.712,2.712,0,0,0,.139,2.1,2.684,2.684,0,0,0,1.742,1.229l1.185.331,1.444-5.157-1.186-.332a2.713,2.713,0,0,0-2.127.131" transform="translate(-3.728 -10.012)"/>
          <path id="Path_3721" data-name="Path 3721" d="M31.6,87.958a2,2,0,0,1,.466.961,1.7,1.7,0,0,1-.143,1.021l-.855-.41a1.248,1.248,0,0,0-.007-.9,1.422,1.422,0,0,0-.771-.733,1.477,1.477,0,0,0-1.041-.147,1.028,1.028,0,0,0-.683.577.926.926,0,0,0-.081.666,1.384,1.384,0,0,0,.323.568,8.518,8.518,0,0,0,.666.623,7.608,7.608,0,0,1,.821.785,1.719,1.719,0,0,1,.387.8A1.611,1.611,0,0,1,30.5,92.8a1.743,1.743,0,0,1-.682.767,1.84,1.84,0,0,1-1.006.255,2.8,2.8,0,0,1-1.163-.3,2.47,2.47,0,0,1-1.208-1.111,1.773,1.773,0,0,1-.071-1.444l.881.423a1.056,1.056,0,0,0,.072.8,1.454,1.454,0,0,0,.735.682,1.384,1.384,0,0,0,.944.133.983.983,0,0,0,.666-.575.876.876,0,0,0,.073-.637,1.368,1.368,0,0,0-.313-.546q-.225-.244-.659-.626a8.131,8.131,0,0,1-.82-.8,1.8,1.8,0,0,1-.393-.806,1.611,1.611,0,0,1,.178-1.048,1.792,1.792,0,0,1,.643-.732,1.933,1.933,0,0,1,1.014-.3,2.563,2.563,0,0,1,1.22.281,2.922,2.922,0,0,1,.985.738" transform="translate(-2.925 -9.686)"/>
          <path id="Path_3722" data-name="Path 3722" d="M22.96,83.306l-1.879-1.468.445-.57,2.58,2.016-4.193,5.37-.7-.548Z" transform="translate(-2.141 -9.054)"/>
          <rect id="Rectangle_3108" data-name="Rectangle 3108" width="6.813" height="0.889" transform="translate(13.207 75.728) rotate(-46.58)"/>
          <path id="Path_3723" data-name="Path 3723" d="M7.877,76.459,13.2,72.291l.547.7L9.78,76.1l5.357-1.337.386.493-2.589,4.891,3.98-3.114.548.7L12.135,81.9l-.591-.754,2.862-5.415L8.461,77.205Z" transform="translate(-0.878 -8.054)"/>
          <rect id="Rectangle_3109" data-name="Rectangle 3109" width="6.813" height="0.89" transform="translate(5.231 65.328) rotate(-29.514)"/>
          <path id="Path_3724" data-name="Path 3724" d="M2.708,66.6l.665-.285L4.1,68.024l5.6-2.4.351.817-5.6,2.4.737,1.715-.665.286Z" transform="translate(-0.302 -7.311)"/>
          <path id="Path_3725" data-name="Path 3725" d="M2.266,62.6l2.2-.588-.642-2.4.709-.189.641,2.4,2.266-.606L6.724,58.53l.708-.189.946,3.541L1.787,63.644.84,60.1l.708-.189Z" transform="translate(-0.094 -6.5)"/>
          <path id="Path_3726" data-name="Path 3726" d="M.252,52.635a2.915,2.915,0,0,1,1.06-1.361,3.652,3.652,0,0,1,1.767-.609,3.606,3.606,0,0,1,1.846.257,2.874,2.874,0,0,1,1.289,1.13,4.3,4.3,0,0,1,.591,1.883l.206,2.111-6.781.661L.026,54.6a4.205,4.205,0,0,1,.227-1.962m4.933-.565a2.656,2.656,0,0,0-2.018-.5,2.709,2.709,0,0,0-1.907.889,2.69,2.69,0,0,0-.515,2.069l.12,1.225,5.331-.52-.12-1.226a2.713,2.713,0,0,0-.891-1.936" transform="translate(0 -5.642)"/>
          <path id="Path_3727" data-name="Path 3727" d="M2.786,38.812a2.11,2.11,0,0,0-1.053.648,2.351,2.351,0,0,0-.54,1.175,2.542,2.542,0,0,0,.1,1.322,2.313,2.313,0,0,0,.767,1.049,2.937,2.937,0,0,0,1.334.568A2.9,2.9,0,0,0,4.835,43.5a2.326,2.326,0,0,0,1.076-.722,2.536,2.536,0,0,0,.546-1.208,2.328,2.328,0,0,0-.3-1.721A2.453,2.453,0,0,0,4.7,38.824L4.226,41.5l-.713-.125.639-3.61.674.12a3.385,3.385,0,0,1,1.424.788,3.268,3.268,0,0,1,.881,1.357,3.311,3.311,0,0,1,.115,1.679,3.44,3.44,0,0,1-.739,1.626,3.264,3.264,0,0,1-1.433,1,3.532,3.532,0,0,1-1.84.136,3.571,3.571,0,0,1-1.687-.76A3.264,3.264,0,0,1,.54,42.275,3.435,3.435,0,0,1,.4,40.5a3.474,3.474,0,0,1,.865-1.8,3.074,3.074,0,0,1,1.7-.934Z" transform="translate(-0.038 -4.207)"/>
          <path id="Path_3728" data-name="Path 3728" d="M8.588,34.8a3.238,3.238,0,0,1-1.613.682,3.561,3.561,0,0,1-1.834-.249,3.56,3.56,0,0,1-1.494-1.092,3.261,3.261,0,0,1-.689-1.611,3.608,3.608,0,0,1,1.3-3.218,3.228,3.228,0,0,1,1.607-.68A3.586,3.586,0,0,1,7.7,28.89a3.576,3.576,0,0,1,1.5,1.09,3.226,3.226,0,0,1,.687,1.6,3.6,3.6,0,0,1-1.3,3.218M9.1,31.76a2.347,2.347,0,0,0-.543-1.189,2.993,2.993,0,0,0-1.2-.836A2.986,2.986,0,0,0,5.91,29.5a2.363,2.363,0,0,0-1.209.477,2.67,2.67,0,0,0-.965,2.393,2.36,2.36,0,0,0,.54,1.183,3,3,0,0,0,1.206.839,3,3,0,0,0,1.446.23,2.345,2.345,0,0,0,1.216-.479A2.655,2.655,0,0,0,9.1,31.76" transform="translate(-0.326 -3.187)"/>
          <path id="Path_3729" data-name="Path 3729" d="M12.424,26.8a3.248,3.248,0,0,1-1.72.333,3.766,3.766,0,0,1-2.977-2,3.253,3.253,0,0,1-.34-1.719,3.6,3.6,0,0,1,1.936-2.879,3.223,3.223,0,0,1,1.713-.332,3.823,3.823,0,0,1,2.986,2.006,3.241,3.241,0,0,1,.339,1.712A3.6,3.6,0,0,1,12.424,26.8m1.135-2.87a2.333,2.333,0,0,0-.285-1.276,2.99,2.99,0,0,0-1-1.067A2.982,2.982,0,0,0,10.9,21.06a2.353,2.353,0,0,0-1.281.216,2.67,2.67,0,0,0-1.44,2.141,2.352,2.352,0,0,0,.284,1.268,2.984,2.984,0,0,0,1,1.071,3,3,0,0,0,1.368.525,2.338,2.338,0,0,0,1.288-.219,2.651,2.651,0,0,0,1.434-2.133" transform="translate(-0.822 -2.249)"/>
          <path id="Path_3730" data-name="Path 3730" d="M15.38,13.666a2.923,2.923,0,0,1,1.725-.038A4,4,0,0,1,19.662,16.2a2.863,2.863,0,0,1-.061,1.714,4.293,4.293,0,0,1-1.084,1.647l-1.505,1.495-4.8-4.836,1.505-1.494a4.213,4.213,0,0,1,1.663-1.065m3.557,3.465a2.661,2.661,0,0,0-.889-1.879,2.709,2.709,0,0,0-1.894-.916,2.691,2.691,0,0,0-1.928.908l-.874.868,3.774,3.8L18,19.047a2.719,2.719,0,0,0,.937-1.915" transform="translate(-1.361 -1.506)"/>
          <path id="Path_3731" data-name="Path 3731" d="M23.65,14.973a2.019,2.019,0,0,1-1.065-.067,1.7,1.7,0,0,1-.818-.627l.778-.543a1.239,1.239,0,0,0,.786.435,1.424,1.424,0,0,0,1.017-.31,1.48,1.48,0,0,0,.64-.833,1.033,1.033,0,0,0-.166-.88.934.934,0,0,0-.54-.4,1.365,1.365,0,0,0-.653,0,8.113,8.113,0,0,0-.87.274,7.838,7.838,0,0,1-1.088.329,1.736,1.736,0,0,1-.885-.056,1.62,1.62,0,0,1-.816-.665,1.766,1.766,0,0,1-.332-.972,1.855,1.855,0,0,1,.274-1,2.8,2.8,0,0,1,.832-.865,2.471,2.471,0,0,1,1.56-.506,1.778,1.778,0,0,1,1.293.649l-.8.559a1.056,1.056,0,0,0-.731-.33,1.452,1.452,0,0,0-.955.3,1.386,1.386,0,0,0-.581.756.989.989,0,0,0,.173.863.874.874,0,0,0,.519.377,1.369,1.369,0,0,0,.629,0,8.977,8.977,0,0,0,.869-.267,8.134,8.134,0,0,1,1.1-.32,1.815,1.815,0,0,1,.9.054,1.623,1.623,0,0,1,.825.67,1.8,1.8,0,0,1,.32.921,1.935,1.935,0,0,1-.233,1.033,2.567,2.567,0,0,1-.845.923,2.9,2.9,0,0,1-1.128.495" transform="translate(-2.188 -0.923)"/>
        </g>
      </g>
    </g>
    <g id="Ellipse_42" data-name="Ellipse 42" transform="translate(90 6684)" fill="#fff" stroke="#000" stroke-width="0.5">
      <circle cx="32" cy="32" r="32" stroke="none"/>
      <circle cx="32" cy="32" r="31.75" fill="none"/>
    </g>
    <text id="限定" transform="translate(106 6722)" font-size="16" font-family="HeiseiKakuGoStd-W5, Heisei Kaku Gothic Std" letter-spacing="0.04em"><tspan x="0" y="0">限定</tspan></text>
  </g>
</svg>
