<svg xmlns="http://www.w3.org/2000/svg" xmlns:xlink="http://www.w3.org/1999/xlink" width="190" height="80" viewBox="0 0 190 80">
  <defs>
    <clipPath id="clip-path">
      <rect id="Rectangle_27" data-name="Rectangle 27" width="28.604" height="28.604" fill="#a87236"/>
    </clipPath>
  </defs>
  <g id="icon-topic1" transform="translate(-278 -875)">
    <path id="Path_3611" data-name="Path 3611" d="M19.324-22.246v2.822h-7.67V-.1H8.666V-19.424H1v-2.822Zm11.289,5.313a8.432,8.432,0,0,1,4.482,1.2,8.572,8.572,0,0,1,3.071,3.188A8.773,8.773,0,0,1,39.279-8.2a8.681,8.681,0,0,1-1.112,4.333A8.609,8.609,0,0,1,35.1-.7,8.432,8.432,0,0,1,30.613.5,8.432,8.432,0,0,1,26.131-.7,8.609,8.609,0,0,1,23.06-3.868,8.681,8.681,0,0,1,21.947-8.2a8.773,8.773,0,0,1,1.112-4.35,8.572,8.572,0,0,1,3.071-3.187A8.432,8.432,0,0,1,30.613-16.934Zm0,2.656a5.619,5.619,0,0,0-3.088.847,5.718,5.718,0,0,0-2.042,2.225,6.435,6.435,0,0,0-.714,3,6.365,6.365,0,0,0,.714,2.972A5.718,5.718,0,0,0,27.525-3a5.619,5.619,0,0,0,3.088.847A5.6,5.6,0,0,0,33.718-3a5.76,5.76,0,0,0,2.025-2.225A6.366,6.366,0,0,0,36.457-8.2a6.435,6.435,0,0,0-.714-3,5.76,5.76,0,0,0-2.025-2.225A5.6,5.6,0,0,0,30.613-14.277ZM52.2-16.934a7.436,7.436,0,0,1,3.9,1.046,7.7,7.7,0,0,1,2.789,2.922,8.889,8.889,0,0,1,1.046,4.4A10.317,10.317,0,0,1,58.886-3.8,7.87,7.87,0,0,1,56.03-.631,7.586,7.586,0,0,1,51.93.5a6.3,6.3,0,0,1-2.905-.764,8.716,8.716,0,0,1-2.54-1.959V7.969H43.762V-16.6h2.723v2.822a7.334,7.334,0,0,1,2.341-2.241A6.279,6.279,0,0,1,52.2-16.934Zm-.432,2.656a4.971,4.971,0,0,0-2.706.764,5.22,5.22,0,0,0-1.893,2.108,6.861,6.861,0,0,0-.681,3.138l.033,3.188a11.271,11.271,0,0,0,2.225,2.108,4.572,4.572,0,0,0,2.689.813,5.007,5.007,0,0,0,3.055-.93A6.107,6.107,0,0,0,56.429-5.5a7.26,7.26,0,0,0,.681-3.071,6.209,6.209,0,0,0-.664-2.905,5.251,5.251,0,0,0-1.859-2.042A5.129,5.129,0,0,0,51.764-14.277ZM67.07-24.57a2.132,2.132,0,0,1,1.61.681,2.219,2.219,0,0,1,.647,1.577,2.238,2.238,0,0,1-.647,1.561,2.108,2.108,0,0,1-1.61.7,2.108,2.108,0,0,1-1.61-.7,2.238,2.238,0,0,1-.647-1.561,2.219,2.219,0,0,1,.647-1.577A2.132,2.132,0,0,1,67.07-24.57ZM68.764-16.6V0H66.041V-14.045H63.418V-16.6Zm13.381-.332a7.829,7.829,0,0,1,3.154.581,6.9,6.9,0,0,1,1.826,1.046v2.756A10.338,10.338,0,0,0,85-13.763a7.193,7.193,0,0,0-2.855-.515,5.619,5.619,0,0,0-3.088.847,5.718,5.718,0,0,0-2.042,2.225,6.435,6.435,0,0,0-.714,3,6.365,6.365,0,0,0,.714,2.972A5.718,5.718,0,0,0,79.057-3a5.619,5.619,0,0,0,3.088.847A7.193,7.193,0,0,0,85-2.673a10.338,10.338,0,0,0,2.125-1.212v2.756A6.051,6.051,0,0,1,85.3-.066,8.031,8.031,0,0,1,82.145.5,8.432,8.432,0,0,1,77.662-.7a8.609,8.609,0,0,1-3.071-3.171A8.681,8.681,0,0,1,73.479-8.2a8.773,8.773,0,0,1,1.112-4.35,8.572,8.572,0,0,1,3.071-3.187A8.432,8.432,0,0,1,82.145-16.934ZM104.424-2.656V0H92.371V-2.656h4.416V-17.133a5.8,5.8,0,0,1-2.059,1.2,18.633,18.633,0,0,1-2.125.531v-2.855a8.943,8.943,0,0,0,3.354-1.627,13.18,13.18,0,0,0,2.357-2.357h1.461v19.59Z" transform="translate(319 926)" fill="#a87236"/>
    <path id="楕円形_14" data-name="楕円形 14" d="M95,1A210.644,210.644,0,0,0,58.2,4.128a141.747,141.747,0,0,0-29.984,8.509,81.714,81.714,0,0,0-11.46,5.847,48.6,48.6,0,0,0-8.582,6.655C3.413,29.876,1,34.876,1,40S3.413,50.124,8.171,54.861a48.6,48.6,0,0,0,8.582,6.655,81.714,81.714,0,0,0,11.46,5.847A141.747,141.747,0,0,0,58.2,75.872,210.644,210.644,0,0,0,95,79a210.644,210.644,0,0,0,36.8-3.128,141.747,141.747,0,0,0,29.984-8.509,81.714,81.714,0,0,0,11.46-5.847,48.6,48.6,0,0,0,8.582-6.655C186.587,50.124,189,45.124,189,40s-2.413-10.124-7.171-14.861a48.6,48.6,0,0,0-8.582-6.655,81.714,81.714,0,0,0-11.46-5.847A141.747,141.747,0,0,0,131.8,4.128,210.644,210.644,0,0,0,95,1m0-1c52.467,0,95,17.909,95,40S147.467,80,95,80,0,62.091,0,40,42.533,0,95,0Z" transform="translate(278 875)" fill="#a87236"/>
    <g id="Group_2255" data-name="Group 2255" transform="translate(431.698 875)">
      <g id="Group_2255-2" data-name="Group 2255" clip-path="url(#clip-path)">
        <path id="Path_3608" data-name="Path 3608" d="M28.6,14.3c-5.568-.171-8.905-.329-10.933-1.4.679-2.188,2.927-4.659,6.744-8.718-4.058,3.817-6.529,6.064-8.718,6.744C14.631,8.9,14.473,5.568,14.3,0c-.171,5.568-.329,8.9-1.4,10.933-2.188-.679-4.659-2.927-8.718-6.744,3.817,4.058,6.064,6.529,6.744,8.718C8.9,13.973,5.568,14.131,0,14.3c5.568.171,8.9.329,10.933,1.4-.679,2.188-2.927,4.659-6.744,8.718,4.058-3.817,6.529-6.064,8.718-6.744,1.067,2.028,1.225,5.364,1.4,10.933.171-5.568.329-8.9,1.4-10.933,2.188.679,4.659,2.927,8.718,6.744-3.817-4.058-6.064-6.529-6.744-8.718,2.028-1.067,5.364-1.225,10.933-1.4" fill="#a87236"/>
      </g>
    </g>
  </g>
</svg>
