<svg xmlns="http://www.w3.org/2000/svg" xmlns:xlink="http://www.w3.org/1999/xlink" width="222.847" height="91.555" viewBox="0 0 222.847 91.555">
  <defs>
    <clipPath id="clip-path">
      <rect id="Rectangle_53" data-name="Rectangle 53" width="222.847" height="91.555" fill="none"/>
    </clipPath>
  </defs>
  <g id="Group_2157" data-name="Group 2157" transform="translate(0)">
    <path id="Path_3157" data-name="Path 3157" d="M2.649.832H0V32.054H2.649V17.341H10.5V14.834H2.649V3.339h8.94V.832Z" transform="translate(0 -0.312)" fill="#fff"/>
    <g id="Group_2156" data-name="Group 2156" transform="translate(0)">
      <g id="Group_2155" data-name="Group 2155" clip-path="url(#clip-path)">
        <path id="Path_3158" data-name="Path 3158" d="M31.431,32.573a8.876,8.876,0,0,1-1.845-.213,7.105,7.105,0,0,1-1.94-.734A5.961,5.961,0,0,1,25.92,30.16,7.3,7.3,0,0,1,24.666,27.8a11.165,11.165,0,0,1-.473-3.5V.832h2.649V24.343a7.04,7.04,0,0,0,.686,3.406,3.928,3.928,0,0,0,1.751,1.726,5.239,5.239,0,0,0,2.247.5,5.031,5.031,0,0,0,2.152-.473,3.514,3.514,0,0,0,1.633-1.7,7.894,7.894,0,0,0,.614-3.453V.832h2.7V24.3a10.72,10.72,0,0,1-.781,4.47A6.006,6.006,0,0,1,35.9,31.249a6.6,6.6,0,0,1-2.365,1.064,10.229,10.229,0,0,1-2.105.26" transform="translate(-9.056 -0.311)" fill="#fff"/>
        <path id="Path_3159" data-name="Path 3159" d="M56.174,32.052V.831h2.649V16.489a13.1,13.1,0,0,0,2.791-2.318,18.306,18.306,0,0,0,2.507-3.453,20.909,20.909,0,0,0,1.868-4.47A23.019,23.019,0,0,0,66.865.831h2.7a25.552,25.552,0,0,1-.994,5.96A20.438,20.438,0,0,1,66.581,11.4a18.045,18.045,0,0,1-2.555,3.359,14.147,14.147,0,0,1-2.7,2.2v.425a16.952,16.952,0,0,1,2.626.19,5.265,5.265,0,0,1,2.129.8,4.764,4.764,0,0,1,1.561,1.893,11.946,11.946,0,0,1,.97,3.5l1.325,8.278H67.2l-.9-6.1a24.315,24.315,0,0,0-.8-4.091,3.523,3.523,0,0,0-1.537-2.105,6.541,6.541,0,0,0-3.193-.615h-1.94V32.052Z" transform="translate(-21.027 -0.311)" fill="#fff"/>
        <path id="Path_3160" data-name="Path 3160" d="M92.518,32.573a8.876,8.876,0,0,1-1.845-.213,7.105,7.105,0,0,1-1.94-.734,5.961,5.961,0,0,1-1.726-1.467A7.3,7.3,0,0,1,85.753,27.8a11.165,11.165,0,0,1-.473-3.5V.832h2.649V24.343a7.04,7.04,0,0,0,.686,3.406,3.928,3.928,0,0,0,1.751,1.726,5.239,5.239,0,0,0,2.247.5,5.031,5.031,0,0,0,2.152-.473A3.514,3.514,0,0,0,96.4,27.8a7.893,7.893,0,0,0,.614-3.453V.832h2.7V24.3a10.72,10.72,0,0,1-.781,4.47,6.005,6.005,0,0,1-1.939,2.484,6.6,6.6,0,0,1-2.365,1.064,10.229,10.229,0,0,1-2.105.26" transform="translate(-31.922 -0.311)" fill="#fff"/>
        <path id="Path_3161" data-name="Path 3161" d="M123.734,32.262a5.636,5.636,0,0,1-3.926-1.325,8.059,8.059,0,0,1-2.2-3.572,23.211,23.211,0,0,1-.994-5.109q-.26-2.862-.26-5.89a58.316,58.316,0,0,1,.567-8.775,11.891,11.891,0,0,1,2.129-5.629A5.512,5.512,0,0,1,123.64,0a5.915,5.915,0,0,1,3.831,1.183,7.54,7.54,0,0,1,2.271,3.382,21.056,21.056,0,0,1,1.089,5.251q.283,3.051.284,6.836a58.3,58.3,0,0,1-.284,5.843,22.323,22.323,0,0,1-1.041,5.015,7.916,7.916,0,0,1-2.223,3.477,5.632,5.632,0,0,1-3.832,1.277m-.046-2.555a3.042,3.042,0,0,0,1.915-.639,5.218,5.218,0,0,0,1.467-2.2,16.694,16.694,0,0,0,.946-4.3,64.933,64.933,0,0,0,.308-7A45.21,45.21,0,0,0,127.85,8.4a10.542,10.542,0,0,0-1.514-4.328A3.217,3.217,0,0,0,123.592,2.6a2.975,2.975,0,0,0-1.869.639,4.929,4.929,0,0,0-1.419,2.1A15.594,15.594,0,0,0,119.43,9.3a55.771,55.771,0,0,0-.283,6.173,58.607,58.607,0,0,0,.354,7.143,18.826,18.826,0,0,0,.969,4.352,4.682,4.682,0,0,0,1.444,2.152,2.988,2.988,0,0,0,1.774.592" transform="translate(-43.554)" fill="#fff"/>
        <path id="Path_3162" data-name="Path 3162" d="M148.108,32.052V.831h2.648V16.489a13.1,13.1,0,0,0,2.791-2.318,18.306,18.306,0,0,0,2.507-3.453,20.91,20.91,0,0,0,1.868-4.47A22.987,22.987,0,0,0,158.8.831h2.7a25.551,25.551,0,0,1-.994,5.96,20.438,20.438,0,0,1-1.987,4.612,18.045,18.045,0,0,1-2.555,3.359,14.148,14.148,0,0,1-2.7,2.2v.425a16.952,16.952,0,0,1,2.626.19,5.265,5.265,0,0,1,2.129.8,4.765,4.765,0,0,1,1.561,1.893,11.946,11.946,0,0,1,.97,3.5l1.325,8.278H159.13l-.9-6.1a24.318,24.318,0,0,0-.8-4.091,3.523,3.523,0,0,0-1.537-2.105,6.541,6.541,0,0,0-3.193-.615h-1.94V32.052Z" transform="translate(-55.44 -0.311)" fill="#fff"/>
        <path id="Path_3163" data-name="Path 3163" d="M174.265,32.053,179.99.832h4.351l5.724,31.221h-2.7L182.4,3.385h-.425l-4.968,28.667Zm3.359-9.935h9.035v2.461h-9.035Z" transform="translate(-65.231 -0.311)" fill="#fff"/>
        <path id="Path_3164" data-name="Path 3164" d="M218.417.832h2.648V32.053h-2.648Zm.757,21.618V19.943h3.5q.519,0,1.371-.071a6.334,6.334,0,0,0,1.845-.473,5.378,5.378,0,0,0,1.844-1.277,6.706,6.706,0,0,0,1.42-2.53,13.2,13.2,0,0,0,.567-4.211,13.279,13.279,0,0,0-.449-3.761,6.618,6.618,0,0,0-1.159-2.341A4.9,4.9,0,0,0,226.553,4a5.516,5.516,0,0,0-1.656-.544,10.248,10.248,0,0,0-1.466-.118h-4.258V.832h4.872a8.462,8.462,0,0,1,3.146.591,7.3,7.3,0,0,1,2.673,1.869A9.067,9.067,0,0,1,231.733,6.6a15.314,15.314,0,0,1,.687,4.872,13.764,13.764,0,0,1-1.184,6.032,8.2,8.2,0,0,1-3.429,3.689,11.056,11.056,0,0,1-5.463,1.254Z" transform="translate(-81.758 -0.311)" fill="#fff"/>
        <path id="Path_3165" data-name="Path 3165" d="M242.685,32.053,248.41.832h4.351l5.724,31.221h-2.7L250.822,3.385H250.4l-4.968,28.667Zm3.359-9.935h9.035v2.461h-9.035Z" transform="translate(-90.842 -0.311)" fill="#fff"/>
        <path id="Path_3166" data-name="Path 3166" d="M273.911,32.053V.832h5.345a11.135,11.135,0,0,1,3,.378,7.767,7.767,0,0,1,2.389,1.112,6.8,6.8,0,0,1,1.751,1.8,7.913,7.913,0,0,1,1.063,2.46,12.8,12.8,0,0,1,.355,3.145,12.891,12.891,0,0,1-.308,2.839,7.666,7.666,0,0,1-1.04,2.508,6.335,6.335,0,0,1-1.963,1.915,7.932,7.932,0,0,1-3.074,1.065v.472a6.565,6.565,0,0,1,2.578.544,3.974,3.974,0,0,1,1.75,1.679,11.137,11.137,0,0,1,1.112,3.406l1.514,7.9h-2.791l-1.372-7.711a13.607,13.607,0,0,0-.638-2.389,3.419,3.419,0,0,0-1.325-1.679,5.137,5.137,0,0,0-2.814-.616H276.56V32.053ZM276.56,17.2h1.513a12.323,12.323,0,0,0,2.035-.165A7.139,7.139,0,0,0,282,16.442a4.744,4.744,0,0,0,1.585-1.229,5.921,5.921,0,0,0,1.088-2.082,10.127,10.127,0,0,0,.4-3.026,10.361,10.361,0,0,0-.355-2.934,5.339,5.339,0,0,0-.969-1.915A4.725,4.725,0,0,0,282.331,4.1a5.928,5.928,0,0,0-1.679-.591,9.5,9.5,0,0,0-1.774-.166H276.56Z" transform="translate(-102.53 -0.311)" fill="#fff"/>
        <path id="Path_3167" data-name="Path 3167" d="M310.814,32.262a5.846,5.846,0,0,1-3.737-1.159,7.748,7.748,0,0,1-2.318-3.264,19.2,19.2,0,0,1-1.183-5.037,58.057,58.057,0,0,1-.331-6.481,50.649,50.649,0,0,1,.378-6.409,21.686,21.686,0,0,1,1.253-5.18,8.511,8.511,0,0,1,2.366-3.477A5.645,5.645,0,0,1,311,0a5.541,5.541,0,0,1,3.075.827,5.841,5.841,0,0,1,2.033,2.318,11.145,11.145,0,0,1,1.041,3.548,21.578,21.578,0,0,1,.1,4.565l-2.6.33A18.285,18.285,0,0,0,314.551,7a7.356,7.356,0,0,0-1.206-3.216A2.772,2.772,0,0,0,311,2.6a3.015,3.015,0,0,0-2.318,1.041,7.772,7.772,0,0,0-1.538,2.909,22.1,22.1,0,0,0-.85,4.352,51.048,51.048,0,0,0-.26,5.322,44.678,44.678,0,0,0,.567,7.995,9.4,9.4,0,0,0,1.632,4.233,3.267,3.267,0,0,0,2.578,1.254,3.211,3.211,0,0,0,2.7-1.3,7.916,7.916,0,0,0,1.325-3.76,26.026,26.026,0,0,0,0-5.866l2.6.283a28.453,28.453,0,0,1,.1,5.133,13.979,13.979,0,0,1-.924,4.186,6.43,6.43,0,0,1-2.152,2.839,6.007,6.007,0,0,1-3.642,1.041" transform="translate(-113.511 0)" fill="#fff"/>
        <path id="Path_3168" data-name="Path 3168" d="M339.958,32.262a5.636,5.636,0,0,1-3.926-1.325,8.059,8.059,0,0,1-2.2-3.572,23.21,23.21,0,0,1-.994-5.109q-.26-2.862-.26-5.89a58.316,58.316,0,0,1,.567-8.775,11.891,11.891,0,0,1,2.129-5.629A5.512,5.512,0,0,1,339.864,0a5.915,5.915,0,0,1,3.831,1.183,7.54,7.54,0,0,1,2.271,3.382,21.058,21.058,0,0,1,1.089,5.251q.283,3.051.284,6.836a58.3,58.3,0,0,1-.284,5.843,22.323,22.323,0,0,1-1.041,5.015,7.916,7.916,0,0,1-2.223,3.477,5.632,5.632,0,0,1-3.832,1.277m-.046-2.555a3.043,3.043,0,0,0,1.915-.639,5.219,5.219,0,0,0,1.467-2.2,16.694,16.694,0,0,0,.946-4.3,64.933,64.933,0,0,0,.308-7,45.2,45.2,0,0,0-.473-7.167,10.541,10.541,0,0,0-1.514-4.328A3.217,3.217,0,0,0,339.816,2.6a2.975,2.975,0,0,0-1.869.639,4.929,4.929,0,0,0-1.419,2.1,15.593,15.593,0,0,0-.875,3.951,55.77,55.77,0,0,0-.283,6.173,58.614,58.614,0,0,0,.354,7.143,18.828,18.828,0,0,0,.969,4.352,4.682,4.682,0,0,0,1.444,2.152,2.987,2.987,0,0,0,1.774.592" transform="translate(-124.491)" fill="#fff"/>
        <path id="Path_3169" data-name="Path 3169" d="M139.121,114.077v-2.811l3.86-6.371q.9-1.5,1.649-2.829t1.293-2.53a13.758,13.758,0,0,0,.824-2.324,9.238,9.238,0,0,0,.281-2.247,5.95,5.95,0,0,0-.338-2.1,3.292,3.292,0,0,0-.974-1.424,2.453,2.453,0,0,0-1.612-.524,2.678,2.678,0,0,0-1.386.375,2.567,2.567,0,0,0-1.012,1.18,5.729,5.729,0,0,0-.451,2.061,12.453,12.453,0,0,0,.263,3.016l-2.1-.187a10.847,10.847,0,0,1-.093-4.328,5.513,5.513,0,0,1,1.611-3.053,4.482,4.482,0,0,1,3.166-1.124,4.619,4.619,0,0,1,2.792.805,5.181,5.181,0,0,1,1.687,2.1,6.927,6.927,0,0,1,.581,2.867,11.21,11.21,0,0,1-.394,2.923,18.347,18.347,0,0,1-1.069,2.923q-.674,1.461-1.517,2.959t-1.78,3l-3.223,5.358v.3h7.982v1.987Z" transform="translate(-52.076 -33.261)" fill="#fff"/>
        <path id="Path_3170" data-name="Path 3170" d="M165.374,114.6a3.734,3.734,0,0,1-2.735-1.031,6.354,6.354,0,0,1-1.574-2.792,18.925,18.925,0,0,1-.694-3.971q-.169-2.212-.168-4.5a55.281,55.281,0,0,1,.412-7.327,10.355,10.355,0,0,1,1.518-4.571,3.648,3.648,0,0,1,3.166-1.555,3.726,3.726,0,0,1,3.317,1.649,10.737,10.737,0,0,1,1.48,4.627,56.5,56.5,0,0,1,.375,6.952q0,2.436-.187,4.684a20.857,20.857,0,0,1-.694,4.009,6.42,6.42,0,0,1-1.517,2.792,3.61,3.61,0,0,1-2.7,1.031m-.037-2.061a1.816,1.816,0,0,0,1.218-.469,3.807,3.807,0,0,0,.937-1.761,19.582,19.582,0,0,0,.618-3.655q.225-2.36.225-6.108a38.642,38.642,0,0,0-.3-5.227,9.4,9.4,0,0,0-.955-3.3,1.992,1.992,0,0,0-1.78-1.143,1.969,1.969,0,0,0-1.574.862,7.205,7.205,0,0,0-1.03,3.148,45.51,45.51,0,0,0-.357,6.558q0,3.448.225,5.6a16.216,16.216,0,0,0,.637,3.374,3.69,3.69,0,0,0,.955,1.666,1.81,1.81,0,0,0,1.181.45" transform="translate(-59.967 -33.261)" fill="#fff"/>
        <path id="Path_3171" data-name="Path 3171" d="M181.345,114.077v-2.811l3.86-6.371q.9-1.5,1.649-2.829t1.293-2.53a13.759,13.759,0,0,0,.824-2.324,9.238,9.238,0,0,0,.281-2.247,5.95,5.95,0,0,0-.338-2.1,3.292,3.292,0,0,0-.974-1.424,2.453,2.453,0,0,0-1.612-.524,2.678,2.678,0,0,0-1.386.375,2.568,2.568,0,0,0-1.012,1.18,5.729,5.729,0,0,0-.451,2.061,12.452,12.452,0,0,0,.263,3.016l-2.1-.187a10.847,10.847,0,0,1-.093-4.328,5.513,5.513,0,0,1,1.611-3.053,4.482,4.482,0,0,1,3.166-1.124,4.619,4.619,0,0,1,2.792.805,5.181,5.181,0,0,1,1.687,2.1,6.927,6.927,0,0,1,.581,2.867,11.21,11.21,0,0,1-.394,2.923,18.347,18.347,0,0,1-1.069,2.923q-.674,1.461-1.517,2.959t-1.78,3l-3.223,5.358v.3h7.982v1.987Z" transform="translate(-67.881 -33.261)" fill="#fff"/>
        <path id="Path_3172" data-name="Path 3172" d="M199.552,108.574V105.54a35.5,35.5,0,0,0,2-3.429q.956-1.855,1.781-3.916t1.5-4.235q.674-2.173,1.162-4.385h3.6v24.771h-2.1V91.6h-.186a33.433,33.433,0,0,1-1.443,5.452,47.629,47.629,0,0,1-2.118,5.04q-1.162,2.36-2.361,4.309v.188h10.081v1.986Z" transform="translate(-74.696 -33.53)" fill="#fff"/>
        <path id="Path_3173" data-name="Path 3173" d="M153.746,118.936c-22.013,0-39.922-10.27-39.922-22.893S131.733,73.15,153.746,73.15s39.922,10.27,39.922,22.893-17.909,22.893-39.922,22.893m0-44.762c-21.449,0-38.9,9.811-38.9,21.869s17.45,21.869,38.9,21.869,38.9-9.811,38.9-21.869-17.45-21.869-38.9-21.869" transform="translate(-42.607 -27.381)" fill="#fff"/>
      </g>
    </g>
  </g>
</svg>
