<svg xmlns="http://www.w3.org/2000/svg" width="180.537" height="110.817" viewBox="0 0 180.537 110.817">
  <g id="logo_PARCO" transform="translate(2.931 2.784)">
    <path id="fukidashi" d="M29.948,3.676s8.065,9.395,19.827,9.137C72.08,12.324,76.929,1.5,76.929,1.5s2.155,7.151,9.913,6.839S98.911,1.5,98.911,1.5a11.614,11.614,0,0,0,6.9,11.5c7.651,3.4,14.655-2.8,14.655-2.8s3.847,6.192,9.159,7.179a14.187,14.187,0,0,0,11.53-3.263s-1.135,7.456,4.166,8.746c3.229.786,6.094.663,12.213-2.655C162.9,17.3,173.477,8.245,173.477,8.245s-21.712,18.112-19.126,25.127c1.913,5.191,12.661,5.113,12.661,5.113s-9.482.871-7.327,8.267S177.357,56.76,177.357,56.76s-16.864-1.033-25.862,12.183c-8.856,13.01,2.067,28.437,2.067,28.437s-5.946-7.823-15.7-6.9a17.362,17.362,0,0,0-13.092,8.484s-1.94-6.69-9.051-6.962c-6.167-.236-9.483,6.962-9.483,6.962s-1.931-9.134-10.775-8.267c-11.1,1.088-15.086,16.969-15.086,16.969S78.037,93.739,66.154,90.7C54.462,87.707,47.62,99.836,47.62,99.836S46.7,89.5,36.683,85.75c-6.918-2.591-14.925,2.339-14.925,2.339S24.937,79.5,16.8,74.817C9.695,70.731,3.225,75.9,3.225,75.9s8.405-5.819,7.184-19.048C9.585,47.926,1.5,42.4,1.5,42.4a9.243,9.243,0,0,0,7.759-6.527c1.57-4.839-2.478-10.5-2.478-10.5s8.355-1.051,14.115-5.6c9.914-7.832,9.052-16.1,9.052-16.1" fill="#fff" stroke="#000" stroke-width="3"/>
    <g id="logo">
      <path id="Path_106" data-name="Path 106" d="M110.18,36.873h-.043c-8.7.017-15.894,6.618-15.917,15.214-.034,9.02,7.564,15.18,15.409,15.19a16.1,16.1,0,0,0,9.218-3.011c.1-.067.115-.087.1-.263-.155-1.141-.223-1.583-.4-2.6a.081.081,0,0,0-.077-.075.152.152,0,0,0-.1.058,10.693,10.693,0,0,1-8.639,4.14h-.074C103,65.5,97.709,58.82,97.709,50.642c-.007-8.636,6.662-12,11.2-12h.022a11.332,11.332,0,0,1,7.233,2.493.388.388,0,0,0,.189.1c.05,0,.067-.048.067-.129.037-1.512.071-1.852.121-3.075.007-.114-.033-.138-.168-.185a23.6,23.6,0,0,0-6.195-.97" fill="#231815"/>
      <path id="Path_107" data-name="Path 107" d="M47.053,37.26h-9.02c-.182,0-.2.1-.061.172a2.6,2.6,0,0,1,1.206,1.573c.377,1.633.35,7.113.384,10.125.013.646.013,11.023,0,11.4-.017.967-.149,3.234-.209,3.729a4.5,4.5,0,0,1-.539,2.132c-.165.226-.158.256.108.256l2.9,0,1.232,0c.222,0,.232-.027.148-.209a7.582,7.582,0,0,1-.485-3.388c0-.176-.02-2.277-.02-2.52V55.745c0-.182.007-.223.229-.23.063,0,2.087,0,3.5,0,.705,0,1.255,0,1.331,0,4.031-.006,10.673-1.869,10.673-9.117,0-4.893-3.667-9.138-11.37-9.138M42.94,53.811c-.232,0-.239-.047-.246-.262V38.934c.007-.192.02-.239.229-.239h4.4a7.7,7.7,0,0,1,7.789,7.7c-.033,7.078-6.309,7.424-7.739,7.424-.155,0-.253,0-.281,0H42.94" fill="#231815"/>
      <path id="Path_108" data-name="Path 108" d="M131.682,36.435h-.069a15.242,15.242,0,0,0-15.086,15.45,15.569,15.569,0,0,0,15.457,15.743h.088c7.434,0,14.772-5.913,14.772-15.689a15.264,15.264,0,0,0-15.162-15.5m.918,29.5h-.051c-6.621-.034-12.886-6.959-12.886-14.928,0-9.8,7.252-12.856,11.25-12.886h.047c6.436,0,12.627,6.644,12.64,15.662.02,7.893-5.657,12.152-11,12.152" fill="#231815"/>
      <path id="Path_109" data-name="Path 109" d="M82.667,37.26H74.631c-.206,0-.206.1-.037.2a3.492,3.492,0,0,1,1.553,1.8c.323,1.055.437,2.634.464,6.972,0,.2.014,11.57,0,12.021-.047,1.674-.027,4.766-.282,6.942-.047.36-.134.47-.24.472l.415.966h3.988c.283,0,.333-.07.134-.269a4.376,4.376,0,0,1-.667-1.58,21.843,21.843,0,0,1-.236-4.722v-5.8c0-.145.054-.195.2-.195H81.69a5.05,5.05,0,0,1,2.267.461,4.456,4.456,0,0,1,1.776,1.59c3.529,5.2,4.519,6.649,7.274,10.1a6.628,6.628,0,0,0,5.14,2.742h.02a3.994,3.994,0,0,0,3.423-1.826c.188-.3.151-.64.053-.687a.294.294,0,0,0-.171-.076c-.077,0-.179.048-.341.2a2.763,2.763,0,0,1-1.872.812h-.048A3.735,3.735,0,0,1,96.2,65.66a137.235,137.235,0,0,1-8.161-11.485c-.205-.323-.316-.418-.323-.553,0-.043.135-.117.246-.175a8.866,8.866,0,0,0,4.8-7.652c0-3.914-2.256-8.535-10.091-8.535M79.9,52.47c-.128,0-.182-.08-.182-.215V38.924c-.009-.175.047-.231.18-.231a.435.435,0,0,1,.05,0h3.085a6.53,6.53,0,0,1,6.655,6.928c-.023,4.887-3.146,6.828-7.9,6.847H79.9M74.631,37.26h0Z" fill="#231815"/>
      <path id="Path_110" data-name="Path 110" d="M64.809,36.054c-.114,0-.162.128-.222.29-1.671,4.836-3.486,9.757-5.7,15.362-3.193,8.073-3.591,9.148-5.005,12.587a5.127,5.127,0,0,1-1.2,2.128c-.135.128-.162.219.09.219h3.194c.279,0,.333-.071.2-.239a1.334,1.334,0,0,1-.148-.609,4.1,4.1,0,0,1,.252-1.281c.142-.374,3.045-8.335,3.132-8.6.075-.2.115-.236.29-.236h9.02c.33.006.333.024.394.2,1.64,4.676,2.408,6.68,3.055,9.162A2.072,2.072,0,0,1,72,66.387c-.216.182-.148.253.064.253H76.5l-.414-.966c-.095-.008-.222-.125-.3-.337-2.55-6.757-2.644-6.986-5-13.251-2.587-6.884-3.247-8.746-5.77-15.739-.061-.172-.105-.293-.219-.293M60.181,54.242c-.155,0-.155-.172-.067-.34s3.172-8.383,4-10.532c.061-.165.135-.482.263-.482.162,0,.229.286.29.488.778,2.237,2.223,6.178,3.826,10.543.074.195.047.323-.128.323H60.181" fill="#231815"/>
      <path id="Path_111" data-name="Path 111" d="M29.854,36.533H28.8v.909H24.772v.977H28.8v1.32H25.267V40.7H33.4v-.957H29.854v-1.32H33.91v-.977H29.854Zm3.035,5.082h-7.1v4.136h1.031v-.468h5.018v.468h1.054Zm-6.072.953h5.019v1.765H26.817Z" fill="#231815"/>
      <path id="Path_112" data-name="Path 112" d="M32.428,47.142a10.718,10.718,0,0,1-.606,1.792H30.7a7.718,7.718,0,0,0-.559-1.792l-.94.229a8.208,8.208,0,0,1,.508,1.563h-.95v.919h1.991v1.189H28.918v.927h1.829v1.269H28.46v.937h2.287v2.2h1.011v-2.2H33.93v-.937H31.758V51.969h1.859v-.927H31.758V49.853h2.027v-.919h-.946a11.88,11.88,0,0,0,.572-1.563Zm-5.305,0h-.96v1.573H24.688v.95h2.62A6,6,0,0,1,24.577,52.4l.39,1.034a5.123,5.123,0,0,0,1.2-.805v3.753h.96V52.457h.02a4.43,4.43,0,0,0,.947.9l.545-.9a4.633,4.633,0,0,1-1.276-1.1,7.489,7.489,0,0,0,1.007-1.694v-.95H27.123Z" fill="#231815"/>
      <path id="Path_113" data-name="Path 113" d="M29.834,57.759H28.787v1h-3.5v.954h3.5v1.03H24.752v.96H31.3V62.72H24.944v.964H31.3V65.61c0,.172-.067.333-.29.333H29.322l.2,1.045h1.96a.95.95,0,0,0,.654-.27,1.152,1.152,0,0,0,.208-.862V63.684h1.409V62.72H32.346V61.706h1.563v-.96H29.834v-1.03h3.5v-.954h-3.5Zm-2.762,6.022-.865.64a9.524,9.524,0,0,1,1.62,1.792l.973-.751a13.578,13.578,0,0,0-1.728-1.681" fill="#231815"/>
    </g>
  </g>
</svg>
