<svg xmlns="http://www.w3.org/2000/svg" width="138.401" height="64.4" viewBox="0 0 138.401 64.4">
  <g id="parco-tag" transform="translate(0.657 1.171)">
    <path id="Path_159" data-name="Path 159" d="M0,42.257c9.862-.689,17.4,5.28,17.016,16.759C50.662,49.833,64,49.833,93.59,62c6.768-9.642,17.21-11.708,24.364-7.117-2.2-6.054,8.025-13.014,16.046-12.152-8-5.623-11.3-20.286-5.47-29.4-10.943,6.507-17.573.23-21.247-11.479C83.724,12.871,68.788,11.035,50.042,0,34.841,9.588,27.265,8.28,19.53,4.147,19.984,11.264,15.356,18.611,4.838,17,10.729,24.58,9.475,33.992,0,42.257" fill="#231815" stroke="#b2ff9a" stroke-width="2"/>
    <text id="PARCO初" transform="translate(67 38.927)" fill="#b2ff9a" font-size="19" font-family="TenMinchoAntique-Medium, Ten Mincho Antique" font-weight="500"><tspan x="-40.232" y="0">PARCO初</tspan></text>
  </g>
</svg>
