<svg xmlns="http://www.w3.org/2000/svg" xmlns:xlink="http://www.w3.org/1999/xlink" width="554.766" height="106.62" viewBox="0 0 554.766 106.62">
  <defs>
    <clipPath id="clip-path"/>
  </defs>
  <g id="brand-1" transform="translate(0 -0.001)" clip-path="url(#clip-path)" style="mix-blend-mode: overlay;isolation: isolate">
    <path id="Path_76" data-name="Path 76" d="M12.257,94.59c0,3.988,1.477,6.5,4.871,6.646l4.433.146v1.772c-2.661,0-6.941-.149-10.339-.149-3.544,0-8.564.149-11.222.149v-1.772l4.871-.146c3.4-.149,4.874-2.514,4.874-6.646V5.689c0-1.33-.146-2.953-2.214-2.953L0,2.587V.818c5.611,0,11.073.146,16.687.146,4.725,0,9.3-.146,14.027-.146l17.278,73.1L66.746.818C70,.818,73.1.964,78.415.964c5.757,0,12.7-.146,18.31-.146V2.587l-6.792.149c-2.214,0-2.363,1.623-2.363,2.953V98.28c0,1.333.3,2.956,2.363,2.956l6.792.146v1.772c-5.611,0-12.553-.149-18.31-.149-5.465,0-13.439.149-18.9.149v-1.772l7.383-.146c2.07,0,2.214-1.623,2.214-2.956V5.248h-.883L42.974,103.155H36.623L13.143,5.248h-.886Z" transform="translate(0 1.399)"/>
    <path id="Path_77" data-name="Path 77" d="M66.891,106.526c-12.4,0-21.266-5.167-24.515-5.167-1.477,0-2.214,1.623-2.658,3.1H38.1V70.05h1.769c2.661,13.441,10.783,34.558,27.763,34.558,13.737,0,18.018-10.93,18.018-20.38,0-5.462-1.477-13.734-9.746-18.164-5.906-2.951-14.032-4.871-21.857-8.711-9.45-4.728-15.357-12.111-15.357-26.289C38.687,14.526,49.909.055,69.105.055c11.374,0,20.38,5.167,22.45,5.167,1.474,0,2.214-1.623,2.655-3.1h1.921V34.166H94.21C90.962,20.877,85.5,1.827,69.105,1.827c-10.187,0-16.538,9.6-16.538,19.2,0,6.941,2.214,13.737,10.634,18.164,5.757,2.953,13.88,4.728,21.705,8.567,9.748,4.872,15.655,11.962,15.655,24.959,0,19.047-12.108,33.813-33.67,33.813" transform="translate(65.121 0.095)"/>
    <path id="Path_78" data-name="Path 78" d="M121.7,8.2c2.363-3.693,1.035-5.468-1.772-5.468l-6.643-.146V.817c4.869,0,8.415.149,13.141.149,3.839,0,8.862-.149,12.553-.149V2.589l-5.465.146c-3.69,0-6.79,2.219-9.3,5.909l-19.05,28.8,31.749,60.55a5.411,5.411,0,0,0,4.872,3.249l4.135.146v1.772h-38.69v-1.772l7.386-.146c1.772,0,2.512-1.184,1.623-2.807L93.2,53.092H90.988v45.19c0,1.33.3,2.956,2.214,2.956l7.237.146v1.772c-5.462,0-13.141-.149-18.605-.149-5.76,0-13.292.149-19.05.149v-1.772l7.529-.146c2.07,0,2.216-1.626,2.216-2.956V5.691c0-1.33-.146-2.956-2.216-2.956l-7.529-.146V.817c5.757,0,13.29.149,19.05.149,5.465,0,13.436-.149,18.9-.149V2.589L93.2,2.735c-1.918,0-2.214,1.626-2.214,2.956v45.19H93.5Z" transform="translate(107.321 1.398)"/>
    <path id="Path_79" data-name="Path 79" d="M159.893,104.338h-7.678L104.96,12.63V94.589c0,3.988,1.477,6.5,4.872,6.646l4.43.146v1.772c-2.655,0-6.939-.146-10.336-.146-3.544,0-8.564.146-11.222.146v-1.772l4.874-.146c3.395-.146,4.871-2.512,4.871-6.646V5.691c0-1.33-.146-2.956-2.216-2.956L92.7,2.586V.817c5.611,0,9.006.149,14.62.149,4.725,0,8.713-.149,12.108-.149l38.544,74.427V9.381c0-3.988-1.626-6.5-4.874-6.646l-5.316-.149V.817c2.658,0,7.976.149,11.371.149,3.544,0,8.564-.149,11.222-.149V2.586l-5.021.149c-3.249.149-4.871,2.514-4.871,6.646Z" transform="translate(158.466 1.398)"/>
    <path id="Path_80" data-name="Path 80" d="M175.6,88.161c2.956,0,3.839-1.181,4.135-4.135l1.035-9.746h1.918l-1.918,30.272H122.731V94.512c7.535-5.319,18.164-13.88,25.7-24.368,8.266-11.371,12.255-22.74,12.255-38.986,0-13.585-3.839-27.468-15.652-27.468-10.927,0-18.9,10.19-18.9,19.494a33.461,33.461,0,0,0,.591,5.906h.737c.742-3.4,3.4-7.681,9.307-7.681,5.021,0,9.006,3.547,9.006,9.453,0,5.614-4.576,9.155-10.041,9.155-8.272,0-11.664-8.266-11.664-16.389C124.064,13.585,133.07,0,152.564,0c15.652,0,26.728,10.778,26.728,26.877,0,27.611-20.377,41.2-45.485,61.284Z" transform="translate(209.796 0.001)"/>
    <path id="Path_81" data-name="Path 81" d="M213.141,104.338h-7.678L158.208,12.63V94.589c0,3.988,1.477,6.5,4.869,6.646l4.433.146v1.772c-2.658,0-6.939-.146-10.336-.146-3.547,0-8.564.146-11.225.146v-1.772l4.874-.146c3.4-.146,4.874-2.512,4.874-6.646V5.691c0-1.33-.149-2.956-2.216-2.956l-7.532-.149V.817c5.611,0,9.009.149,14.623.149,4.725,0,8.713-.149,12.106-.149L211.22,75.244V9.381c0-3.988-1.626-6.5-4.872-6.646l-5.319-.149V.817c2.661,0,7.976.149,11.374.149,3.541,0,8.564-.149,11.222-.149V2.586l-5.021.149c-3.251.149-4.874,2.514-4.874,6.646Z" transform="translate(249.483 1.398)"/>
    <path id="Path_82" data-name="Path 82" d="M216.222.818c22.74-.149,38.1,22.149,38.1,51.243s-15.5,51.243-38.1,51.094l-21.412-.149c-5.76,0-13.292.149-19.05.149v-1.772l7.529-.146c2.07,0,2.216-1.626,2.216-2.956V5.69c0-1.33-.146-2.953-2.216-2.953l-7.529-.149V.818c5.757,0,13.29.146,19.05.146Zm-2.509,100.418c10.19,0,16.983-9.307,18.605-21.415.74-4.43,1.772-11.371,1.772-27.76,0-15.213-.737-23.629-1.623-28.059C230.547,12.78,223.754,2.737,213.86,2.737h-7.678c-1.918,0-2.216,1.623-2.216,2.953V98.281c0,1.33.3,2.956,2.216,2.956Z" transform="translate(300.444 1.399)"/>
  </g>
</svg>
