<svg xmlns="http://www.w3.org/2000/svg" xmlns:xlink="http://www.w3.org/1999/xlink" width="353.417" height="16.555" viewBox="0 0 353.417 16.555">
  <defs>
    <clipPath id="clip-path">
      <rect id="長方形_20" data-name="長方形 20" width="13.795" height="16.555" fill="#141419"/>
    </clipPath>
    <clipPath id="clip-path-3">
      <rect id="長方形_193" data-name="長方形 193" width="96.598" height="12.342" transform="translate(0 0)" fill="none"/>
    </clipPath>
  </defs>
  <g id="choi-mis" transform="translate(-264 -4424.701)">
    <g id="グループ_115" data-name="グループ 115" transform="translate(369.606 4424.701)">
      <g id="グループ_16" data-name="グループ 16" clip-path="url(#clip-path)">
        <path id="パス_75" data-name="パス 75" d="M13.521,8.6c-4.48.877-5.592,2.127-6.285,7.664a.342.342,0,0,1-.677,0C5.866,10.727,4.754,9.477.274,8.6a.328.328,0,0,1,0-.647C4.754,7.076,5.866,5.826,6.559.289a.342.342,0,0,1,.677,0c.693,5.537,1.805,6.787,6.285,7.664a.328.328,0,0,1,0,.647" transform="translate(0 0.001)" fill="#141419"/>
      </g>
    </g>
    <g id="グループ_117" data-name="グループ 117" transform="translate(498.016 4424.701)">
      <g id="グループ_16-2" data-name="グループ 16" clip-path="url(#clip-path)">
        <path id="パス_75-2" data-name="パス 75" d="M13.521,8.6c-4.48.877-5.592,2.127-6.285,7.664a.342.342,0,0,1-.677,0C5.866,10.727,4.754,9.477.274,8.6a.328.328,0,0,1,0-.647C4.754,7.076,5.866,5.826,6.559.289a.342.342,0,0,1,.677,0c.693,5.537,1.805,6.787,6.285,7.664a.328.328,0,0,1,0,.647" transform="translate(0 0.001)" fill="#141419"/>
      </g>
    </g>
    <g id="グループ_157" data-name="グループ 157" transform="translate(264 4426.914)">
      <g id="グループ_157-2" data-name="グループ 157" transform="translate(0 0)" clip-path="url(#clip-path-3)">
        <path id="パス_2237" data-name="パス 2237" d="M2.8,15.1A5.125,5.125,0,0,1,.745,13.183,5.293,5.293,0,0,1,0,10.389,5.3,5.3,0,0,1,.745,7.595,5.124,5.124,0,0,1,2.8,5.678a6.272,6.272,0,0,1,2.949-.686,6.482,6.482,0,0,1,2.684.531,4.981,4.981,0,0,1,1.946,1.534l-2.2,1.961A2.819,2.819,0,0,0,5.928,7.808a2.3,2.3,0,0,0-1.755.7,2.622,2.622,0,0,0-.664,1.88,2.622,2.622,0,0,0,.664,1.88,2.3,2.3,0,0,0,1.755.7A2.818,2.818,0,0,0,8.184,11.76l2.2,1.961a4.98,4.98,0,0,1-1.946,1.534,6.472,6.472,0,0,1-2.684.531A6.271,6.271,0,0,1,2.8,15.1" transform="translate(0 -3.444)"/>
        <path id="パス_2238" data-name="パス 2238" d="M44.373,7.384a3.669,3.669,0,0,1,.907,2.713v4.6H41.948V10.672q0-1.386-.988-1.386a1.155,1.155,0,0,0-.907.391,1.823,1.823,0,0,0-.346,1.231V14.7H36.374V3.757h3.333V7.281a3.37,3.37,0,0,1,2.271-.8,3.255,3.255,0,0,1,2.4.9" transform="translate(-25.094 -2.592)"/>
        <path id="パス_2239" data-name="パス 2239" d="M70.652,20.375a4.14,4.14,0,0,1-1.674-1.489,4.161,4.161,0,0,1,0-4.321,4.086,4.086,0,0,1,1.674-1.482,5.772,5.772,0,0,1,4.836,0,4.038,4.038,0,0,1,1.666,1.482,4.205,4.205,0,0,1,0,4.321,4.091,4.091,0,0,1-1.666,1.489,5.7,5.7,0,0,1-4.836,0M74.007,17.9a1.719,1.719,0,0,0,.368-1.172,1.69,1.69,0,0,0-.368-1.165,1.285,1.285,0,0,0-1.888,0,1.69,1.69,0,0,0-.368,1.165,1.719,1.719,0,0,0,.368,1.172,1.271,1.271,0,0,0,1.888,0" transform="translate(-47.17 -8.66)"/>
        <path id="パス_2240" data-name="パス 2240" d="M101.45,2.912A1.538,1.538,0,0,1,100.9,1.7,1.539,1.539,0,0,1,101.45.479,2.14,2.14,0,0,1,102.9,0a2.2,2.2,0,0,1,1.46.457,1.469,1.469,0,0,1,.546,1.18,1.625,1.625,0,0,1-.546,1.261,2.092,2.092,0,0,1-1.46.494,2.138,2.138,0,0,1-1.452-.479m-.214,1.128h3.333v8.066h-3.333Z" transform="translate(-69.607 0)"/>
        <path id="パス_2241" data-name="パス 2241" d="M141.3,16.075l-.03-4.7-2.241,3.775H137.5l-2.241-3.613v4.542h-3.17V5.753h2.861l3.362,5.5,3.273-5.5h2.861l.03,10.322Z" transform="translate(-91.126 -3.969)"/>
        <path id="パス_2242" data-name="パス 2242" d="M176.575,2.912a1.539,1.539,0,0,1-.553-1.217,1.54,1.54,0,0,1,.553-1.217A2.14,2.14,0,0,1,178.028,0a2.2,2.2,0,0,1,1.46.457,1.469,1.469,0,0,1,.546,1.18,1.625,1.625,0,0,1-.546,1.261,2.092,2.092,0,0,1-1.46.494,2.139,2.139,0,0,1-1.452-.479m-.214,1.128h3.333v8.066h-3.333Z" transform="translate(-121.434 0)"/>
        <path id="パス_2243" data-name="パス 2243" d="M192.623,20.693A5.842,5.842,0,0,1,191,20.118l.914-2.2a4.771,4.771,0,0,0,1.327.53,6.107,6.107,0,0,0,1.49.192,2.314,2.314,0,0,0,.8-.1.311.311,0,0,0,.229-.287q0-.192-.287-.265a7.828,7.828,0,0,0-.936-.148,12.324,12.324,0,0,1-1.681-.3,2.632,2.632,0,0,1-1.217-.715,2.073,2.073,0,0,1-.523-1.519,2.252,2.252,0,0,1,.472-1.4A3.183,3.183,0,0,1,193,12.921a6.142,6.142,0,0,1,2.249-.368,9.43,9.43,0,0,1,1.791.17,5.453,5.453,0,0,1,1.5.494l-.914,2.2a4.72,4.72,0,0,0-2.33-.59q-1.092,0-1.091.384,0,.192.3.273a6.818,6.818,0,0,0,.928.155,11.317,11.317,0,0,1,1.674.31,2.7,2.7,0,0,1,1.209.723,2.072,2.072,0,0,1,.523,1.518,2.208,2.208,0,0,1-.472,1.371,3.176,3.176,0,0,1-1.415.988,6.3,6.3,0,0,1-2.286.369,9.43,9.43,0,0,1-2.035-.221" transform="translate(-131.768 -8.66)"/>
        <path id="パス_2244" data-name="パス 2244" d="M227.068,17.506h-5.6a1.356,1.356,0,0,0,.59.7,2.008,2.008,0,0,0,1.032.243,2.609,2.609,0,0,0,.892-.133,3.119,3.119,0,0,0,.789-.457l1.74,1.755a4.525,4.525,0,0,1-3.524,1.3,5.8,5.8,0,0,1-2.566-.538,4.077,4.077,0,0,1-1.711-1.5,4.17,4.17,0,0,1-.007-4.313,4.083,4.083,0,0,1,1.636-1.482,5.39,5.39,0,0,1,4.571-.044,3.837,3.837,0,0,1,1.607,1.43,4.132,4.132,0,0,1,.6,2.256q0,.074-.044.781m-5.22-2.4a1.332,1.332,0,0,0-.443.8H224a1.359,1.359,0,0,0-.442-.789,1.279,1.279,0,0,0-.855-.287,1.3,1.3,0,0,0-.855.28" transform="translate(-150.465 -8.659)"/>
        <path id="パス_2245" data-name="パス 2245" d="M251.429,20.375a4.141,4.141,0,0,1-1.674-1.489,4.161,4.161,0,0,1,0-4.321,4.086,4.086,0,0,1,1.674-1.482,5.772,5.772,0,0,1,4.836,0,4.038,4.038,0,0,1,1.666,1.482,4.205,4.205,0,0,1,0,4.321,4.091,4.091,0,0,1-1.666,1.489,5.7,5.7,0,0,1-4.836,0m3.355-2.477a1.719,1.719,0,0,0,.368-1.172,1.69,1.69,0,0,0-.368-1.165,1.285,1.285,0,0,0-1.888,0,1.69,1.69,0,0,0-.368,1.165A1.719,1.719,0,0,0,252.9,17.9a1.271,1.271,0,0,0,1.888,0" transform="translate(-171.885 -8.66)"/>
        <path id="パス_2246" data-name="パス 2246" d="M290.768,13.452a3.671,3.671,0,0,1,.907,2.713v4.6h-3.333V16.741q0-1.386-.988-1.386a1.153,1.153,0,0,0-.907.391,1.823,1.823,0,0,0-.347,1.231v3.79h-3.333V12.7h3.171v.8a3.069,3.069,0,0,1,1.091-.708,3.746,3.746,0,0,1,1.342-.236,3.255,3.255,0,0,1,2.4.9" transform="translate(-195.077 -8.66)"/>
      </g>
    </g>
    <g id="グループ_158" data-name="グループ 158" transform="translate(392.41 4426.914)">
      <g id="グループ_157-3" data-name="グループ 157" transform="translate(0 0)" clip-path="url(#clip-path-3)">
        <path id="パス_2237-2" data-name="パス 2237" d="M2.8,15.1A5.125,5.125,0,0,1,.745,13.183,5.293,5.293,0,0,1,0,10.389,5.3,5.3,0,0,1,.745,7.595,5.124,5.124,0,0,1,2.8,5.678a6.272,6.272,0,0,1,2.949-.686,6.482,6.482,0,0,1,2.684.531,4.981,4.981,0,0,1,1.946,1.534l-2.2,1.961A2.819,2.819,0,0,0,5.928,7.808a2.3,2.3,0,0,0-1.755.7,2.622,2.622,0,0,0-.664,1.88,2.622,2.622,0,0,0,.664,1.88,2.3,2.3,0,0,0,1.755.7A2.818,2.818,0,0,0,8.184,11.76l2.2,1.961a4.98,4.98,0,0,1-1.946,1.534,6.472,6.472,0,0,1-2.684.531A6.271,6.271,0,0,1,2.8,15.1" transform="translate(0 -3.444)"/>
        <path id="パス_2238-2" data-name="パス 2238" d="M44.373,7.384a3.669,3.669,0,0,1,.907,2.713v4.6H41.948V10.672q0-1.386-.988-1.386a1.155,1.155,0,0,0-.907.391,1.823,1.823,0,0,0-.346,1.231V14.7H36.374V3.757h3.333V7.281a3.37,3.37,0,0,1,2.271-.8,3.255,3.255,0,0,1,2.4.9" transform="translate(-25.094 -2.592)"/>
        <path id="パス_2239-2" data-name="パス 2239" d="M70.652,20.375a4.14,4.14,0,0,1-1.674-1.489,4.161,4.161,0,0,1,0-4.321,4.086,4.086,0,0,1,1.674-1.482,5.772,5.772,0,0,1,4.836,0,4.038,4.038,0,0,1,1.666,1.482,4.205,4.205,0,0,1,0,4.321,4.091,4.091,0,0,1-1.666,1.489,5.7,5.7,0,0,1-4.836,0M74.007,17.9a1.719,1.719,0,0,0,.368-1.172,1.69,1.69,0,0,0-.368-1.165,1.285,1.285,0,0,0-1.888,0,1.69,1.69,0,0,0-.368,1.165,1.719,1.719,0,0,0,.368,1.172,1.271,1.271,0,0,0,1.888,0" transform="translate(-47.17 -8.66)"/>
        <path id="パス_2240-2" data-name="パス 2240" d="M101.45,2.912A1.538,1.538,0,0,1,100.9,1.7,1.539,1.539,0,0,1,101.45.479,2.14,2.14,0,0,1,102.9,0a2.2,2.2,0,0,1,1.46.457,1.469,1.469,0,0,1,.546,1.18,1.625,1.625,0,0,1-.546,1.261,2.092,2.092,0,0,1-1.46.494,2.138,2.138,0,0,1-1.452-.479m-.214,1.128h3.333v8.066h-3.333Z" transform="translate(-69.607 0)"/>
        <path id="パス_2241-2" data-name="パス 2241" d="M141.3,16.075l-.03-4.7-2.241,3.775H137.5l-2.241-3.613v4.542h-3.17V5.753h2.861l3.362,5.5,3.273-5.5h2.861l.03,10.322Z" transform="translate(-91.126 -3.969)"/>
        <path id="パス_2242-2" data-name="パス 2242" d="M176.575,2.912a1.539,1.539,0,0,1-.553-1.217,1.54,1.54,0,0,1,.553-1.217A2.14,2.14,0,0,1,178.028,0a2.2,2.2,0,0,1,1.46.457,1.469,1.469,0,0,1,.546,1.18,1.625,1.625,0,0,1-.546,1.261,2.092,2.092,0,0,1-1.46.494,2.139,2.139,0,0,1-1.452-.479m-.214,1.128h3.333v8.066h-3.333Z" transform="translate(-121.434 0)"/>
        <path id="パス_2243-2" data-name="パス 2243" d="M192.623,20.693A5.842,5.842,0,0,1,191,20.118l.914-2.2a4.771,4.771,0,0,0,1.327.53,6.107,6.107,0,0,0,1.49.192,2.314,2.314,0,0,0,.8-.1.311.311,0,0,0,.229-.287q0-.192-.287-.265a7.828,7.828,0,0,0-.936-.148,12.324,12.324,0,0,1-1.681-.3,2.632,2.632,0,0,1-1.217-.715,2.073,2.073,0,0,1-.523-1.519,2.252,2.252,0,0,1,.472-1.4A3.183,3.183,0,0,1,193,12.921a6.142,6.142,0,0,1,2.249-.368,9.43,9.43,0,0,1,1.791.17,5.453,5.453,0,0,1,1.5.494l-.914,2.2a4.72,4.72,0,0,0-2.33-.59q-1.092,0-1.091.384,0,.192.3.273a6.818,6.818,0,0,0,.928.155,11.317,11.317,0,0,1,1.674.31,2.7,2.7,0,0,1,1.209.723,2.072,2.072,0,0,1,.523,1.518,2.208,2.208,0,0,1-.472,1.371,3.176,3.176,0,0,1-1.415.988,6.3,6.3,0,0,1-2.286.369,9.43,9.43,0,0,1-2.035-.221" transform="translate(-131.768 -8.66)"/>
        <path id="パス_2244-2" data-name="パス 2244" d="M227.068,17.506h-5.6a1.356,1.356,0,0,0,.59.7,2.008,2.008,0,0,0,1.032.243,2.609,2.609,0,0,0,.892-.133,3.119,3.119,0,0,0,.789-.457l1.74,1.755a4.525,4.525,0,0,1-3.524,1.3,5.8,5.8,0,0,1-2.566-.538,4.077,4.077,0,0,1-1.711-1.5,4.17,4.17,0,0,1-.007-4.313,4.083,4.083,0,0,1,1.636-1.482,5.39,5.39,0,0,1,4.571-.044,3.837,3.837,0,0,1,1.607,1.43,4.132,4.132,0,0,1,.6,2.256q0,.074-.044.781m-5.22-2.4a1.332,1.332,0,0,0-.443.8H224a1.359,1.359,0,0,0-.442-.789,1.279,1.279,0,0,0-.855-.287,1.3,1.3,0,0,0-.855.28" transform="translate(-150.465 -8.659)"/>
        <path id="パス_2245-2" data-name="パス 2245" d="M251.429,20.375a4.141,4.141,0,0,1-1.674-1.489,4.161,4.161,0,0,1,0-4.321,4.086,4.086,0,0,1,1.674-1.482,5.772,5.772,0,0,1,4.836,0,4.038,4.038,0,0,1,1.666,1.482,4.205,4.205,0,0,1,0,4.321,4.091,4.091,0,0,1-1.666,1.489,5.7,5.7,0,0,1-4.836,0m3.355-2.477a1.719,1.719,0,0,0,.368-1.172,1.69,1.69,0,0,0-.368-1.165,1.285,1.285,0,0,0-1.888,0,1.69,1.69,0,0,0-.368,1.165A1.719,1.719,0,0,0,252.9,17.9a1.271,1.271,0,0,0,1.888,0" transform="translate(-171.885 -8.66)"/>
        <path id="パス_2246-2" data-name="パス 2246" d="M290.768,13.452a3.671,3.671,0,0,1,.907,2.713v4.6h-3.333V16.741q0-1.386-.988-1.386a1.153,1.153,0,0,0-.907.391,1.823,1.823,0,0,0-.347,1.231v3.79h-3.333V12.7h3.171v.8a3.069,3.069,0,0,1,1.091-.708,3.746,3.746,0,0,1,1.342-.236,3.255,3.255,0,0,1,2.4.9" transform="translate(-195.077 -8.66)"/>
      </g>
    </g>
    <g id="グループ_159" data-name="グループ 159" transform="translate(520.819 4426.914)">
      <g id="グループ_157-4" data-name="グループ 157" transform="translate(0 0)" clip-path="url(#clip-path-3)">
        <path id="パス_2237-3" data-name="パス 2237" d="M2.8,15.1A5.125,5.125,0,0,1,.745,13.183,5.293,5.293,0,0,1,0,10.389,5.3,5.3,0,0,1,.745,7.595,5.124,5.124,0,0,1,2.8,5.678a6.272,6.272,0,0,1,2.949-.686,6.482,6.482,0,0,1,2.684.531,4.981,4.981,0,0,1,1.946,1.534l-2.2,1.961A2.819,2.819,0,0,0,5.928,7.808a2.3,2.3,0,0,0-1.755.7,2.622,2.622,0,0,0-.664,1.88,2.622,2.622,0,0,0,.664,1.88,2.3,2.3,0,0,0,1.755.7A2.818,2.818,0,0,0,8.184,11.76l2.2,1.961a4.98,4.98,0,0,1-1.946,1.534,6.472,6.472,0,0,1-2.684.531A6.271,6.271,0,0,1,2.8,15.1" transform="translate(0 -3.444)"/>
        <path id="パス_2238-3" data-name="パス 2238" d="M44.373,7.384a3.669,3.669,0,0,1,.907,2.713v4.6H41.948V10.672q0-1.386-.988-1.386a1.155,1.155,0,0,0-.907.391,1.823,1.823,0,0,0-.346,1.231V14.7H36.374V3.757h3.333V7.281a3.37,3.37,0,0,1,2.271-.8,3.255,3.255,0,0,1,2.4.9" transform="translate(-25.094 -2.592)"/>
        <path id="パス_2239-3" data-name="パス 2239" d="M70.652,20.375a4.14,4.14,0,0,1-1.674-1.489,4.161,4.161,0,0,1,0-4.321,4.086,4.086,0,0,1,1.674-1.482,5.772,5.772,0,0,1,4.836,0,4.038,4.038,0,0,1,1.666,1.482,4.205,4.205,0,0,1,0,4.321,4.091,4.091,0,0,1-1.666,1.489,5.7,5.7,0,0,1-4.836,0M74.007,17.9a1.719,1.719,0,0,0,.368-1.172,1.69,1.69,0,0,0-.368-1.165,1.285,1.285,0,0,0-1.888,0,1.69,1.69,0,0,0-.368,1.165,1.719,1.719,0,0,0,.368,1.172,1.271,1.271,0,0,0,1.888,0" transform="translate(-47.17 -8.66)"/>
        <path id="パス_2240-3" data-name="パス 2240" d="M101.45,2.912A1.538,1.538,0,0,1,100.9,1.7,1.539,1.539,0,0,1,101.45.479,2.14,2.14,0,0,1,102.9,0a2.2,2.2,0,0,1,1.46.457,1.469,1.469,0,0,1,.546,1.18,1.625,1.625,0,0,1-.546,1.261,2.092,2.092,0,0,1-1.46.494,2.138,2.138,0,0,1-1.452-.479m-.214,1.128h3.333v8.066h-3.333Z" transform="translate(-69.607 0)"/>
        <path id="パス_2241-3" data-name="パス 2241" d="M141.3,16.075l-.03-4.7-2.241,3.775H137.5l-2.241-3.613v4.542h-3.17V5.753h2.861l3.362,5.5,3.273-5.5h2.861l.03,10.322Z" transform="translate(-91.126 -3.969)"/>
        <path id="パス_2242-3" data-name="パス 2242" d="M176.575,2.912a1.539,1.539,0,0,1-.553-1.217,1.54,1.54,0,0,1,.553-1.217A2.14,2.14,0,0,1,178.028,0a2.2,2.2,0,0,1,1.46.457,1.469,1.469,0,0,1,.546,1.18,1.625,1.625,0,0,1-.546,1.261,2.092,2.092,0,0,1-1.46.494,2.139,2.139,0,0,1-1.452-.479m-.214,1.128h3.333v8.066h-3.333Z" transform="translate(-121.434 0)"/>
        <path id="パス_2243-3" data-name="パス 2243" d="M192.623,20.693A5.842,5.842,0,0,1,191,20.118l.914-2.2a4.771,4.771,0,0,0,1.327.53,6.107,6.107,0,0,0,1.49.192,2.314,2.314,0,0,0,.8-.1.311.311,0,0,0,.229-.287q0-.192-.287-.265a7.828,7.828,0,0,0-.936-.148,12.324,12.324,0,0,1-1.681-.3,2.632,2.632,0,0,1-1.217-.715,2.073,2.073,0,0,1-.523-1.519,2.252,2.252,0,0,1,.472-1.4A3.183,3.183,0,0,1,193,12.921a6.142,6.142,0,0,1,2.249-.368,9.43,9.43,0,0,1,1.791.17,5.453,5.453,0,0,1,1.5.494l-.914,2.2a4.72,4.72,0,0,0-2.33-.59q-1.092,0-1.091.384,0,.192.3.273a6.818,6.818,0,0,0,.928.155,11.317,11.317,0,0,1,1.674.31,2.7,2.7,0,0,1,1.209.723,2.072,2.072,0,0,1,.523,1.518,2.208,2.208,0,0,1-.472,1.371,3.176,3.176,0,0,1-1.415.988,6.3,6.3,0,0,1-2.286.369,9.43,9.43,0,0,1-2.035-.221" transform="translate(-131.768 -8.66)"/>
        <path id="パス_2244-3" data-name="パス 2244" d="M227.068,17.506h-5.6a1.356,1.356,0,0,0,.59.7,2.008,2.008,0,0,0,1.032.243,2.609,2.609,0,0,0,.892-.133,3.119,3.119,0,0,0,.789-.457l1.74,1.755a4.525,4.525,0,0,1-3.524,1.3,5.8,5.8,0,0,1-2.566-.538,4.077,4.077,0,0,1-1.711-1.5,4.17,4.17,0,0,1-.007-4.313,4.083,4.083,0,0,1,1.636-1.482,5.39,5.39,0,0,1,4.571-.044,3.837,3.837,0,0,1,1.607,1.43,4.132,4.132,0,0,1,.6,2.256q0,.074-.044.781m-5.22-2.4a1.332,1.332,0,0,0-.443.8H224a1.359,1.359,0,0,0-.442-.789,1.279,1.279,0,0,0-.855-.287,1.3,1.3,0,0,0-.855.28" transform="translate(-150.465 -8.659)"/>
        <path id="パス_2245-3" data-name="パス 2245" d="M251.429,20.375a4.141,4.141,0,0,1-1.674-1.489,4.161,4.161,0,0,1,0-4.321,4.086,4.086,0,0,1,1.674-1.482,5.772,5.772,0,0,1,4.836,0,4.038,4.038,0,0,1,1.666,1.482,4.205,4.205,0,0,1,0,4.321,4.091,4.091,0,0,1-1.666,1.489,5.7,5.7,0,0,1-4.836,0m3.355-2.477a1.719,1.719,0,0,0,.368-1.172,1.69,1.69,0,0,0-.368-1.165,1.285,1.285,0,0,0-1.888,0,1.69,1.69,0,0,0-.368,1.165A1.719,1.719,0,0,0,252.9,17.9a1.271,1.271,0,0,0,1.888,0" transform="translate(-171.885 -8.66)"/>
        <path id="パス_2246-3" data-name="パス 2246" d="M290.768,13.452a3.671,3.671,0,0,1,.907,2.713v4.6h-3.333V16.741q0-1.386-.988-1.386a1.153,1.153,0,0,0-.907.391,1.823,1.823,0,0,0-.347,1.231v3.79h-3.333V12.7h3.171v.8a3.069,3.069,0,0,1,1.091-.708,3.746,3.746,0,0,1,1.342-.236,3.255,3.255,0,0,1,2.4.9" transform="translate(-195.077 -8.66)"/>
      </g>
    </g>
  </g>
</svg>
