<svg id="fukuoka-logo" xmlns="http://www.w3.org/2000/svg" width="95.401" height="24.708" viewBox="0 0 95.401 24.708">
  <g id="Group_99" data-name="Group 99">
    <g id="Group_97" data-name="Group 97" transform="translate(12.962)">
      <path id="Path_215" data-name="Path 215" d="M259.972,400.155a6.6,6.6,0,0,0-4.539-5.615,16.663,16.663,0,0,0-5.44-.672l-5.346.011c-.149,0-.255-.012-.294.058-.08.139.216.223.365.316a1.359,1.359,0,0,1,.541.532,2.816,2.816,0,0,1,.237,1.238c.179,2.708.194,9.477.192,10.218-.009,1.346-.068,8.145-.471,9.112a1.991,1.991,0,0,1-.147.327c-.141.206-.069.255.019.275,0,0,3,.014,3.146,0,0,0,.286.013.084-.282a1.905,1.905,0,0,1-.16-.429,5.3,5.3,0,0,1-.129-.97c-.082-2.4-.048-6-.016-6.353s.206-.343,1.224-.338c.972.026,1.861.031,3.052,0C257.284,407.422,260.274,404.592,259.972,400.155Zm-8.4,6.22a24.679,24.679,0,0,1-3.087,0c-.48-.006-.471-.177-.508-.781-.031-.5,0-8.625,0-8.625l.048-1.455c.009-.5.164-.617.414-.654a18.96,18.96,0,0,1,2.967.047c3.819.255,5.811,2.584,6.062,5.694C257.48,405.183,254.56,406.249,251.573,406.376Z" transform="translate(-244.339 -393.011)"/>
      <path id="Path_216" data-name="Path 216" d="M297.313,415.448a2.155,2.155,0,0,1-3.005.094c-1.488-1.157-5.155-6.726-5.155-6.726s-1.462-2.186-1.755-2.664c-.183-.293-.218-.4.188-.651a6.869,6.869,0,0,0,3.113-3.548,6.661,6.661,0,0,0-.335-4.935c-.928-1.689-2.426-3.474-6.931-3.535l-6.085-.006c-.173-.007-.216.093-.1.17.876.587,1.38.571,1.456,4.238.029,1.322.047,7.52.053,8.411-.009.367-.04,2.338-.05,3.4-.015,1.727-.016,1.949-.044,2.439-.028.47-.068,1.248-.15,2.287-.065.409-.188.388-.314.139-.17-.333-1.424-3.849-1.424-3.849l-2.467-6.544-4.048-11.3c-.109-.33-.477-.333-.579.056-.11.309-2.007,5.625-2.007,5.625s-.987,2.506-1.4,3.615c-.419,1.078-2.391,6.093-2.917,7.33-.509,1.3-1.078,2.667-1.747,4.254-.122.29-.185.451-.185.451s-.152.33-.315.638a1.618,1.618,0,0,1-.474.585c-.053.041-.039.148.1.137h2.546c.154,0,.146-.065.1-.144a1.266,1.266,0,0,1-.086-.937,15.125,15.125,0,0,1,.522-1.518c.309-.817.635-1.641.682-1.782.083-.244.779-2.143,1.073-2.882.273-.8.355-1.011.722-1.018,2.1-.032,3.592-.032,6.078.016.565.011.7.085.8.361.473,1.35,1.873,5.608,2.092,6.247a1.965,1.965,0,0,1,.1,1.234.8.8,0,0,1-.146.266c-.066.1-.02.165.057.165.108,0,6.06-.011,6.436-.011s.01-.351.108-.213a3.133,3.133,0,0,1-.611-1.8c-.079-1.263-.083-6.616-.05-7.139.012-.181.083-.262.286-.274a9.036,9.036,0,0,1,1.974.065,3.34,3.34,0,0,1,2.116,1.277c.5.763,2.148,3.117,2.823,4.067.38.537,1.817,2.486,2.176,2.943a7.844,7.844,0,0,0,2.063,2.147,3.989,3.989,0,0,0,4,.292,2.628,2.628,0,0,0,1.08-1C297.85,415.49,297.576,415.211,297.313,415.448Zm-25.389-9.211a41.694,41.694,0,0,1-5.032-.055c-.363-.036-.535-.057-.345-.567.942-2.544,2.065-5.5,2.8-7.307.212-.518.372-.518.562.013,1.194,3.37,2.393,6.834,2.559,7.341C272.645,406.2,272.49,406.2,271.923,406.238Zm9.854-1.337c-.661-.031-.661.016-.661-.66v-6.493c0-.853.026-1.836.042-2.331.04-.831.033-.884.4-.891.731-.033,1.042-.016,1.657-.014,2.3-.012,5.56,1.226,5.528,5.47a4.905,4.905,0,0,1-2.151,4.053A8.073,8.073,0,0,1,281.778,404.9Z" transform="translate(-249.44 -392.619)"/>
      <path id="Path_217" data-name="Path 217" d="M324.934,412.136c-.064-.31-.139-.489-.5-.019a8.053,8.053,0,0,1-10.824,1.343c-2.642-1.805-4.91-6.439-4.451-10.688a8.883,8.883,0,0,1,5.124-7.354,8.334,8.334,0,0,1,8.612,1.108c.254.2.316.11.333-.2l.028-1.911c-.013-.384-.147-.374-.412-.431a15.942,15.942,0,0,0-6.1-.5,11.892,11.892,0,0,0-6.335,2.85,11.34,11.34,0,0,0-3.884,9.241,11.179,11.179,0,0,0,7.265,9.878,12.133,12.133,0,0,0,11.006-1.259c.377-.246.392-.312.327-.648Z" transform="translate(-263.836 -392.855)"/>
      <path id="Path_218" data-name="Path 218" d="M350.5,396.461a12.028,12.028,0,0,0-8.315-3.485,11.371,11.371,0,0,0-8.544,4,11.807,11.807,0,0,0-2.685,7.586,11.884,11.884,0,0,0,11.229,11.951,10.6,10.6,0,0,0,8.809-3.71,11.882,11.882,0,0,0,2.951-7.994A12.029,12.029,0,0,0,350.5,396.461Zm-1.061,15.664a8.254,8.254,0,0,1-6.9,3.047,8.866,8.866,0,0,1-5.256-2.468,12.009,12.009,0,0,1-3.856-7.9,11.62,11.62,0,0,1,1.2-6.357,8.3,8.3,0,0,1,7-4.142,8.713,8.713,0,0,1,6.362,2.75,12.858,12.858,0,0,1,3.472,8.2C351.595,408.378,351.08,410,349.437,412.125Z" transform="translate(-271.507 -392.731)"/>
    </g>
    <g id="Group_98" data-name="Group 98" transform="translate(0 1.912)">
      <path id="Path_219" data-name="Path 219" d="M226.976,401.28a8.52,8.52,0,0,1-1.024.874,4.231,4.231,0,0,0-.5-1.121,7.084,7.084,0,0,0,1.646-1.461,6.712,6.712,0,0,0,.953-1.5h-1.439a6.868,6.868,0,0,0-.829.041V397a5.9,5.9,0,0,0,.776.041h.4V396.2a4.823,4.823,0,0,0-.063-.792h1.2a4.6,4.6,0,0,0-.062.8v.833h.311a2.732,2.732,0,0,0,.507-.031l.486.628a4.973,4.973,0,0,0-.218.473,8.613,8.613,0,0,1-.962,1.738,3.793,3.793,0,0,0,1.1.864c-.011-.216-.011-.309-.032-.5.279.021.569.031,1.046.031h3.644a8.808,8.808,0,0,0,1.056-.041,9.379,9.379,0,0,0-.042,1.059v2.592a9.085,9.085,0,0,0,.053,1.06H233.85v-.422h-3.51v.4h-1.129a7.392,7.392,0,0,0,.062-1.06v-2.561c0-.165,0-.257-.01-.463a3.041,3.041,0,0,0-.425.906,5.038,5.038,0,0,1-.8-.731v2.86a7.36,7.36,0,0,0,.052,1.09h-1.181a9.323,9.323,0,0,0,.062-1.111Zm2.133-5.565c.331.031.683.051,1.128.051h3.779a8.028,8.028,0,0,0,1.108-.051v1.08a6.73,6.73,0,0,0-.994-.051H230.1a6.888,6.888,0,0,0-.993.051Zm.58,2.3a5.71,5.71,0,0,0-.042-.792,9.189,9.189,0,0,0,1,.041h2.919a9.029,9.029,0,0,0,.984-.041,5.654,5.654,0,0,0-.041.782v.926a5.786,5.786,0,0,0,.041.8,8.6,8.6,0,0,0-1-.041h-2.9a9.2,9.2,0,0,0-1,.041,5.646,5.646,0,0,0,.042-.782Zm.652,3.878h1.242v-.741h-1.242Zm0,1.656h1.242v-.8h-1.242Zm.383-4.7h2.7v-.71h-2.7ZM232.6,401.9h1.253v-.741H232.6Zm0,1.656h1.253v-.8H232.6Z" transform="translate(-225.454 -395.405)"/>
      <path id="Path_220" data-name="Path 220" d="M234.035,412.452a9.688,9.688,0,0,0,1.118-.041,8.3,8.3,0,0,0-.052,1.122v6.944a.911.911,0,0,1-.342.8,2.274,2.274,0,0,1-1.19.2c-.342,0-.5-.01-1.077-.051a3.841,3.841,0,0,0-.331-1.1,10.958,10.958,0,0,0,1.428.123c.29,0,.394-.052.394-.206v-6.758h-6.429v6.912a10.174,10.174,0,0,0,.041,1.143h-1.221a9.546,9.546,0,0,0,.063-1.173V413.4a9.487,9.487,0,0,0-.041-1,8.931,8.931,0,0,0,1.19.051Zm-2.91,2.839a7.472,7.472,0,0,0,.808-1.718l1.046.36a9.968,9.968,0,0,1-.757,1.358h.622a5.265,5.265,0,0,0,.922-.051v1.08a7.429,7.429,0,0,0-.922-.041H231.25v2.458h.994V417.6a6.112,6.112,0,0,0-.041-.792h1.066a5.237,5.237,0,0,0-.051.864v1.358a8.855,8.855,0,0,0,.041,1.008h-1l-.01-.288h-2.951v.73h-1.014a7.628,7.628,0,0,0,.052-1.08v-1.7a8.639,8.639,0,0,0-.042-.9h1.046a5.69,5.69,0,0,0-.041.8v1.132h.942v-2.458h-1.511a7.508,7.508,0,0,0-.932.041v-1.08a5.929,5.929,0,0,0,.932.051Zm-1.522-1.759a6.8,6.8,0,0,1,.725,1.358l-.973.371a5.209,5.209,0,0,0-.7-1.327Z" transform="translate(-225.743 -400.736)"/>
    </g>
  </g>
</svg>
