<svg xmlns="http://www.w3.org/2000/svg" width="26.28" height="28.337" viewBox="0 0 26.28 28.337">
  <g id="icon-play-text-sp" transform="translate(-37.214 -36.648)">
    <path id="Polygon_1" data-name="Polygon 1" d="M6.922,0l6.922,11.687H0Z" transform="translate(56.016 51.141) rotate(90)" fill="#141419"/>
    <path id="Path_2164" data-name="Path 2164" d="M-5.8-5.631A2.733,2.733,0,0,1-6.238-4.1,2.844,2.844,0,0,1-7.483-3.067,4.52,4.52,0,0,1-9.364-2.7h-.773V0h-2.531V-8.4h3.445a4.08,4.08,0,0,1,2.6.674A2.554,2.554,0,0,1-5.8-5.631Zm-2.678.088a.984.984,0,0,0-.3-.779,1.291,1.291,0,0,0-.879-.264h-.48v2.074h.568Q-8.479-4.512-8.479-5.543ZM-4.428,0V-8.883h2.5V0ZM3.2,0V-.914H3.174A1.963,1.963,0,0,1,1.346.146a1.75,1.75,0,0,1-1.33-.5,1.872,1.872,0,0,1-.48-1.348q0-1.77,2.174-2.051L3.2-3.949a.568.568,0,0,0-.264-.48,1.2,1.2,0,0,0-.709-.187A4.67,4.67,0,0,0,.1-4.043V-5.666a5.69,5.69,0,0,1,1.219-.346,7.093,7.093,0,0,1,1.254-.135,3.148,3.148,0,0,1,2.218.653,2.912,2.912,0,0,1,.688,2.183V0ZM1.721-2.039a.553.553,0,0,0,.155.4.592.592,0,0,0,.442.158.787.787,0,0,0,.636-.293A1.135,1.135,0,0,0,3.2-2.52v-.229l-.844.117Q1.721-2.525,1.721-2.039ZM8.368,2.818a5.041,5.041,0,0,1-.756-.062,3.668,3.668,0,0,1-.721-.179V.7A1.5,1.5,0,0,0,7.328.9,1.784,1.784,0,0,0,7.876,1,.9.9,0,0,0,8.8.445l.193-.469L6.487-6h2.76l.727,2.895a7.187,7.187,0,0,1,.229,1.09h.023q.018-.129.05-.287T11.186-6h2.426L11.4.17A4.582,4.582,0,0,1,10.17,2.2,2.714,2.714,0,0,1,8.368,2.818Z" transform="translate(49.883 45.531)" fill="#141419"/>
  </g>
</svg>
