<svg xmlns="http://www.w3.org/2000/svg" width="32.851" height="36.604" viewBox="0 0 32.851 36.604">
  <g id="icon-play-text" transform="translate(-53.164 -10.434)">
    <path id="Polygon_1" data-name="Polygon 1" d="M8.5,0,17,15H0Z" transform="translate(77 30.037) rotate(90)" fill="#141419"/>
    <path id="Path_2163" data-name="Path 2163" d="M-7.252-7.039A3.416,3.416,0,0,1-7.8-5.127,3.556,3.556,0,0,1-9.354-3.834a5.65,5.65,0,0,1-2.351.458h-.967V0h-3.164V-10.5h4.307a5.1,5.1,0,0,1,3.248.842A3.192,3.192,0,0,1-7.252-7.039Zm-3.347.11a1.231,1.231,0,0,0-.374-.974,1.614,1.614,0,0,0-1.1-.33h-.6V-5.64h.71Q-10.6-5.64-10.6-6.929ZM-5.535,0V-11.1h3.12V0ZM4,0V-1.143H3.968A2.454,2.454,0,0,1,1.682.183,2.188,2.188,0,0,1,.02-.447a2.34,2.34,0,0,1-.6-1.685q0-2.212,2.717-2.563L4-4.937a.709.709,0,0,0-.33-.6,1.5,1.5,0,0,0-.886-.234,5.837,5.837,0,0,0-2.659.718V-7.083a7.113,7.113,0,0,1,1.523-.432,8.866,8.866,0,0,1,1.567-.168,3.935,3.935,0,0,1,2.772.817,3.64,3.64,0,0,1,.861,2.728V0ZM2.151-2.549a.691.691,0,0,0,.194.505.74.74,0,0,0,.553.2.983.983,0,0,0,.795-.366A1.419,1.419,0,0,0,4-3.149v-.286l-1.055.146Q2.151-3.157,2.151-2.549ZM10.46,3.523a6.3,6.3,0,0,1-.945-.077,4.585,4.585,0,0,1-.9-.223V.872a1.871,1.871,0,0,0,.546.256,2.23,2.23,0,0,0,.685.117A1.126,1.126,0,0,0,11,.557l.242-.586L8.109-7.5h3.45l.908,3.618a8.983,8.983,0,0,1,.286,1.362h.029q.022-.161.062-.359T13.983-7.5h3.032L14.254.212a5.727,5.727,0,0,1-1.542,2.542A3.392,3.392,0,0,1,10.46,3.523Z" transform="translate(69 21.537)" fill="#141419"/>
  </g>
</svg>
