<svg xmlns="http://www.w3.org/2000/svg" xmlns:xlink="http://www.w3.org/1999/xlink" width="276.724" height="16.239" viewBox="0 0 276.724 16.239">
  <defs>
    <clipPath id="clip-path">
      <rect id="Rectangle_188" data-name="Rectangle 188" width="276.724" height="16.239" fill="#fff"/>
    </clipPath>
  </defs>
  <g id="inv" transform="translate(0 0)">
    <g id="Group_153" data-name="Group 153" transform="translate(0 0)" clip-path="url(#clip-path)">
      <path id="Path_2179" data-name="Path 2179" d="M4.3,15.311c0,.2.045.45.337.45l1.215.022v.27c-.81,0-2.092-.022-2.9-.022-.9,0-2.047.022-2.947.022v-.27l1.147-.022c.315,0,.338-.248.338-.45V1.208c0-.2-.022-.45-.338-.45L0,.736V.466c.9,0,2.047.022,2.947.022.81,0,2.092-.022,2.9-.022v.27L4.633.758c-.292,0-.337.248-.337.45Z" transform="translate(0 -0.151)" fill="#fff"/>
      <path id="Path_2180" data-name="Path 2180" d="M19.576,16.233h-1.17l-7.2-13.968V14.749c0,.607.225.99.742,1.012l.675.022v.27c-.405,0-1.058-.022-1.576-.022-.539,0-1.3.022-1.709.022v-.27l.742-.022c.517-.022.742-.383.742-1.012V1.208c0-.2-.022-.45-.338-.45L9.342.735V.465c.855,0,1.372.023,2.226.023.72,0,1.327-.023,1.845-.023L19.283,11.8V1.77c0-.607-.247-.99-.741-1.012l-.81-.023V.465c.405,0,1.215.023,1.733.023.54,0,1.3-.023,1.709-.023v.27l-.764.023c-.495.022-.742.382-.742,1.012Z" transform="translate(-3.022 -0.151)" fill="#fff"/>
      <path id="Path_2181" data-name="Path 2181" d="M33.619,16.121H32.472L28.311,1.186c-.067-.248-.18-.428-.451-.428L27.028.736V.466c.766,0,1.778.022,2.565.022.877,0,2.227-.022,3.126-.022v.27L31.436.758c-.2,0-.269.18-.2.382l3.08,11.291L37.263,1.7c.18-.563-.068-.945-.608-.945L35.868.736V.466c.607,0,1.148.022,1.754.022.5,0,.967-.022,1.463-.022v.27l-.518.022c-.315,0-.763.428-.921.945Z" transform="translate(-8.744 -0.151)" fill="#fff"/>
      <path id="Path_2182" data-name="Path 2182" d="M49.41,15.311c0,.2.045.45.337.45l1.215.022v.27c-.81,0-2.092-.022-2.9-.022-.9,0-2.047.022-2.947.022v-.27l1.147-.022c.315,0,.338-.248.338-.45V1.208c0-.2-.022-.45-.338-.45L45.114.736V.466c.9,0,2.047.022,2.947.022.81,0,2.092-.022,2.9-.022v.27L49.747.758c-.292,0-.337.248-.337.45Z" transform="translate(-14.594 -0.151)" fill="#fff"/>
      <path id="Path_2183" data-name="Path 2183" d="M61.857.758c-.315,0-.36.248-.36.45v14.1c0,.2.045.45.36.45l1.26.022v.27c-.832,0-2.182-.022-3.014-.022-.877,0-2.092.022-2.969.022v-.27l1.214-.022c.293,0,.361-.247.361-.45V1.208c0-.2-.045-.45-.361-.45H57.4c-.54,0-1.26.832-1.889,1.957a16.194,16.194,0,0,0-.922,2.092h-.2L54.637.466H65.569l.248,4.341h-.2a13.324,13.324,0,0,0-.923-2.092C64.04,1.5,63.341.758,62.8.758Z" transform="translate(-17.595 -0.151)" fill="#fff"/>
      <path id="Path_2184" data-name="Path 2184" d="M82.443,15.346c.068.248.18.383.45.383l.832.022v.27c-.787,0-1.8-.022-2.564-.022-.9,0-2.2.022-3.1.022v-.27l1.3-.022c.225,0,.27-.18.225-.383l-1.26-4.521H74.413l-1.08,3.869c-.18.607.023,1.035.45,1.035l1.26.022v.27c-.607,0-1.507-.022-2.114-.022-.495,0-.99.022-1.484.022v-.27l.54-.022c.4,0,.764-.338.922-1.012L77.156.366h1.125ZM76.46,4.01l-1.934,6.455h3.711Z" transform="translate(-23.112 -0.119)" fill="#fff"/>
      <path id="Path_2185" data-name="Path 2185" d="M97.263.758c-.315,0-.36.248-.36.45v14.1c0,.2.045.45.36.45l1.259.022v.27c-.831,0-2.181-.022-3.014-.022-.877,0-2.092.022-2.968.022v-.27l1.214-.022c.292,0,.36-.247.36-.45V1.208c0-.2-.045-.45-.36-.45h-.945c-.54,0-1.259.832-1.889,1.957A16.193,16.193,0,0,0,90,4.807h-.2L90.043.466h10.931l.248,4.341h-.2a13.389,13.389,0,0,0-.923-2.092C99.445,1.5,98.747.758,98.207.758Z" transform="translate(-29.049 -0.151)" fill="#fff"/>
      <path id="Path_2186" data-name="Path 2186" d="M111.644,15.311c0,.2.045.45.337.45l1.215.022v.27c-.81,0-2.092-.022-2.9-.022-.9,0-2.047.022-2.947.022v-.27l1.147-.022c.315,0,.338-.248.338-.45V1.208c0-.2-.022-.45-.338-.45L107.348.736V.466c.9,0,2.047.022,2.947.022.81,0,2.092-.022,2.9-.022v.27l-1.215.022c-.292,0-.337.248-.337.45Z" transform="translate(-34.727 -0.151)" fill="#fff"/>
      <path id="Path_2187" data-name="Path 2187" d="M122.814,16.218c-3.981,0-5.758-4.094-5.758-8.1,0-4.026,1.8-8.119,5.758-8.119,3.711,0,5.78,3.464,5.78,8.119s-2.069,8.1-5.78,8.1m2.5-12.551c-.2-2.137-1.124-3.419-2.5-3.419-1.35,0-2.272,1.35-2.475,3.419a37.172,37.172,0,0,0-.2,4.453,36.545,36.545,0,0,0,.2,4.409c.2,2.137,1.124,3.419,2.475,3.419,1.372,0,2.316-1.3,2.5-3.419.091-1.192.2-2.137.2-4.409a42.827,42.827,0,0,0-.2-4.453" transform="translate(-37.867 -0.001)" fill="#fff"/>
      <path id="Path_2188" data-name="Path 2188" d="M145.442,16.233h-1.17l-7.2-13.968V14.749c0,.607.225.99.742,1.012l.675.022v.27c-.405,0-1.058-.022-1.576-.022-.539,0-1.3.022-1.709.022v-.27l.742-.022c.517-.022.742-.383.742-1.012V1.208c0-.2-.022-.45-.338-.45L135.208.735V.465c.855,0,1.372.023,2.226.023.72,0,1.327-.023,1.845-.023l5.87,11.337V1.77c0-.607-.247-.99-.741-1.012L143.6.735V.465c.405,0,1.215.023,1.733.023.54,0,1.3-.023,1.709-.023v.27l-.764.023c-.495.022-.742.382-.742,1.012Z" transform="translate(-43.74 -0.151)" fill="#fff"/>
      <path id="Path_2189" data-name="Path 2189" d="M168.584,1.59c.36-.563.158-.832-.269-.832L167.3.735V.465c.742,0,1.282.023,2,.023.585,0,1.35-.023,1.912-.023v.27l-.833.023a1.747,1.747,0,0,0-1.417.9l-2.9,4.386,4.836,9.222a.824.824,0,0,0,.742.5l.63.022v.27H166.38v-.27l1.124-.022c.271,0,.383-.18.248-.428l-3.51-6.906h-.337v6.883c0,.2.045.45.337.45l1.1.022v.27c-.833,0-2-.022-2.835-.022-.877,0-2.024.022-2.9.022v-.27l1.147-.022c.315,0,.338-.248.338-.45V1.208c0-.2-.022-.45-.338-.45L159.61.735V.465c.877,0,2.025.023,2.9.023.833,0,2.047-.023,2.879-.023v.27l-1.147.023c-.292,0-.337.247-.337.45V8.091h.382Z" transform="translate(-51.634 -0.151)" fill="#fff"/>
      <path id="Path_2190" data-name="Path 2190" d="M183.986,16.218c-3.981,0-5.758-4.094-5.758-8.1,0-4.026,1.8-8.119,5.758-8.119,3.711,0,5.78,3.464,5.78,8.119s-2.069,8.1-5.78,8.1m2.5-12.551c-.2-2.137-1.124-3.419-2.5-3.419-1.35,0-2.272,1.35-2.475,3.419a37.176,37.176,0,0,0-.2,4.453,36.548,36.548,0,0,0,.2,4.409c.2,2.137,1.124,3.419,2.475,3.419,1.372,0,2.316-1.3,2.5-3.419.091-1.192.2-2.137.2-4.409a42.827,42.827,0,0,0-.2-4.453" transform="translate(-57.657 -0.001)" fill="#fff"/>
      <path id="Path_2191" data-name="Path 2191" d="M202.858.465c1.641,0,4.273.607,4.273,3.824,0,2.676-1.934,3.509-3.958,3.779a4.1,4.1,0,0,1,3.171,2.024,7.156,7.156,0,0,1,.518,2.7c.179,2.384.495,2.991,1.169,2.991a2.195,2.195,0,0,0,1.08-.428l.089.248a4.69,4.69,0,0,1-2.362.787c-1.552,0-2.969-.742-3.081-4.026-.045-1.192-.067-2.856-.608-3.554a1.613,1.613,0,0,0-1.237-.585h-1.237v7.086c0,.2.045.45.338.45l1.17.022v.27c-.833,0-2.069-.022-2.9-.022-.877,0-2.025.022-2.9.022v-.27l1.147-.022c.315,0,.337-.248.337-.45V1.208c0-.2-.022-.45-.337-.45L196.38.735V.465c.877,0,2.024.023,2.9.023Zm-2.182,7.468c2.676,0,3.351-.45,3.351-3.554,0-2.789-.9-3.621-2.586-3.621h-.428c-.293,0-.338.247-.338.45Z" transform="translate(-63.529 -0.151)" fill="#fff"/>
      <path id="Path_2192" data-name="Path 2192" d="M221.957,15.761c1.034,0,1.866-1.057,2.384-1.957a15.5,15.5,0,0,0,1.17-2.834h.247l-.292,5.083L218,16.031c-.877,0-2.024.022-2.9.022v-.27l1.148-.022c.315,0,.337-.248.337-.45V1.208c0-.2-.022-.45-.337-.45L215.1.736V.466c.877,0,2.025.022,2.9.022l7.153-.022.135,4.363h-.247a10.746,10.746,0,0,0-.877-2.137c-.45-.9-1.237-1.934-1.845-1.934H219.73c-.293,0-.338.247-.338.45V7.753c2.407,0,2.991-.674,3.329-3.126h.248v6.545h-.27c-.383-2.834-1.35-3.126-3.307-3.126v7.265c0,.2.045.45.338.45Z" transform="translate(-69.583 -0.151)" fill="#fff"/>
      <path id="Path_2193" data-name="Path 2193" d="M242.187,15.346c.067.248.179.383.45.383l.832.022v.27c-.787,0-1.8-.022-2.565-.022-.9,0-2.2.022-3.1.022v-.27l1.3-.022c.225,0,.269-.18.225-.383l-1.26-4.521h-3.914l-1.08,3.869c-.18.607.022,1.035.45,1.035l1.26.022v.27c-.607,0-1.507-.022-2.114-.022-.5,0-.99.022-1.484.022v-.27l.539-.022c.4,0,.765-.338.922-1.012L236.9.366h1.124ZM236.2,4.01l-1.935,6.455h3.712Z" transform="translate(-74.789 -0.119)" fill="#fff"/>
      <path id="Path_2194" data-name="Path 2194" d="M259.839,16.233h-1.17l-7.2-13.968V14.749c0,.607.225.99.742,1.012l.675.022v.27c-.405,0-1.058-.022-1.576-.022-.539,0-1.3.022-1.709.022v-.27l.742-.022c.517-.022.742-.383.742-1.012V1.208c0-.2-.022-.45-.338-.45L249.6.735V.465c.855,0,1.372.023,2.226.023.72,0,1.327-.023,1.845-.023l5.87,11.337V1.77c0-.607-.247-.99-.741-1.012l-.81-.023V.465c.405,0,1.215.023,1.732.023.54,0,1.3-.023,1.709-.023v.27l-.764.023c-.495.022-.742.382-.742,1.012Z" transform="translate(-80.747 -0.151)" fill="#fff"/>
      <path id="Path_2195" data-name="Path 2195" d="M275.492,1.207c0-.2-.022-.45-.338-.45L274.007.735V.465c.877,0,2.025.022,2.9.022l3.577-.022c1.642,0,4.273.675,4.273,4.094,0,3.509-2.339,4.656-4.656,4.633a8.025,8.025,0,0,1-1.8-.18v6.3c0,.2.045.45.337.45l1.125.022v.27c-.81,0-2.047-.022-2.857-.022-.877,0-2.024.022-2.9.022v-.27l1.147-.022c.315,0,.338-.248.338-.45ZM278.3,8.675a3.938,3.938,0,0,0,1.147.158c1.507,0,2.227-1.53,2.227-4.184,0-3.014-.9-3.891-2.587-3.891h-.45c-.292,0-.337.248-.337.45Z" transform="translate(-88.641 -0.151)" fill="#fff"/>
      <path id="Path_2196" data-name="Path 2196" d="M296.787,16.218c-3.982,0-5.758-4.094-5.758-8.1,0-4.026,1.8-8.119,5.758-8.119,3.711,0,5.78,3.464,5.78,8.119s-2.069,8.1-5.78,8.1m2.5-12.551c-.2-2.137-1.124-3.419-2.5-3.419-1.35,0-2.272,1.35-2.475,3.419a36.986,36.986,0,0,0-.2,4.453,36.361,36.361,0,0,0,.2,4.409c.2,2.137,1.124,3.419,2.475,3.419,1.372,0,2.316-1.3,2.5-3.419.09-1.192.2-2.137.2-4.409a43.081,43.081,0,0,0-.2-4.453" transform="translate(-94.148 -0.001)" fill="#fff"/>
      <path id="Path_2197" data-name="Path 2197" d="M310.665,1.207c0-.2-.022-.45-.337-.45L309.18.735V.465c.877,0,2.025.022,2.9.022l3.577-.022c1.641,0,4.273.675,4.273,4.094,0,3.509-2.339,4.656-4.656,4.633a8.031,8.031,0,0,1-1.8-.18v6.3c0,.2.045.45.338.45l1.124.022v.27c-.809,0-2.046-.022-2.857-.022-.877,0-2.024.022-2.9.022v-.27l1.148-.022c.315,0,.337-.248.337-.45Zm2.812,7.468a3.942,3.942,0,0,0,1.147.158c1.507,0,2.226-1.53,2.226-4.184,0-3.014-.9-3.891-2.586-3.891h-.45c-.293,0-.338.248-.338.45Z" transform="translate(-100.019 -0.151)" fill="#fff"/>
      <path id="Path_2198" data-name="Path 2198" d="M343.273,16.053h-1.034l-1.889-6.7-2.272,6.7H337l-4.16-14.867c-.068-.248-.181-.428-.45-.428l-.832-.022V.466c.742,0,3.711.022,7.49.022,1.552,0,5.219-.022,5.735-.022v.27l-.54.022a1.3,1.3,0,0,0-.922.944l-1.35,4.229,1.912,6.7L346.895,1.7c.158-.562-.067-.944-.607-.944l-.675-.022V.466c.608,0,1.012.022,1.62.022.518,0,.99-.022,1.485-.022v.27L348.2.758c-.338,0-.765.428-.922.944Zm-7.4-15.3c-.225,0-.292.18-.225.382l3.194,11.584,1.3-3.914L337.9,1.186c-.068-.248-.18-.428-.45-.428Zm5.084,0c-.2,0-.27.18-.2.382l1.057,4.206,1.17-3.734c.18-.607,0-.855-.495-.855Z" transform="translate(-107.258 -0.151)" fill="#fff"/>
      <path id="Path_2199" data-name="Path 2199" d="M364.014,15.761c1.034,0,1.867-1.057,2.384-1.957a15.5,15.5,0,0,0,1.17-2.834h.248l-.292,5.083-7.468-.022c-.877,0-2.024.022-2.9.022v-.27l1.147-.022c.315,0,.338-.248.338-.45V1.208c0-.2-.022-.45-.338-.45L357.154.736V.466c.877,0,2.025.022,2.9.022l7.153-.022.135,4.363H367.1a10.776,10.776,0,0,0-.877-2.137c-.45-.9-1.237-1.934-1.845-1.934h-2.587c-.292,0-.337.247-.337.45V7.753c2.407,0,2.991-.674,3.329-3.126h.247v6.545h-.269c-.383-2.834-1.35-3.126-3.307-3.126v7.265c0,.2.045.45.337.45Z" transform="translate(-115.539 -0.151)" fill="#fff"/>
      <path id="Path_2200" data-name="Path 2200" d="M380.6,15.761c1.034,0,1.866-1.057,2.384-1.957a15.5,15.5,0,0,0,1.17-2.834h.247l-.292,5.083-7.469-.022c-.877,0-2.024.022-2.9.022v-.27l1.148-.022c.315,0,.337-.248.337-.45V1.208c0-.2-.022-.45-.337-.45L373.743.736V.466c.877,0,2.025.022,2.9.022L383.8.466l.135,4.363h-.247a10.745,10.745,0,0,0-.877-2.137c-.45-.9-1.237-1.934-1.845-1.934h-2.586c-.293,0-.338.247-.338.45V7.753c2.407,0,2.991-.674,3.329-3.126h.248v6.545h-.27c-.383-2.834-1.35-3.126-3.307-3.126v7.265c0,.2.045.45.338.45Z" transform="translate(-120.905 -0.151)" fill="#fff"/>
      <path id="Path_2201" data-name="Path 2201" d="M399.307,1.59c.36-.563.158-.832-.269-.832L398.026.735V.465c.742,0,1.282.023,2,.023.585,0,1.35-.023,1.912-.023v.27l-.833.023a1.747,1.747,0,0,0-1.417.9l-2.9,4.386,4.836,9.222a.824.824,0,0,0,.742.5l.63.022v.27H397.1v-.27l1.124-.022c.271,0,.383-.18.248-.428l-3.51-6.906h-.337v6.883c0,.2.045.45.337.45l1.1.022v.27c-.833,0-2-.022-2.835-.022-.877,0-2.024.022-2.9.022v-.27l1.147-.022c.315,0,.338-.248.338-.45V1.208c0-.2-.022-.45-.338-.45L390.333.735V.465c.877,0,2.025.023,2.9.023.833,0,2.047-.023,2.879-.023v.27l-1.147.023c-.292,0-.337.247-.337.45V8.091h.382Z" transform="translate(-126.272 -0.151)" fill="#fff"/>
    </g>
  </g>
</svg>
