<svg id="novelty-title" xmlns="http://www.w3.org/2000/svg" xmlns:xlink="http://www.w3.org/1999/xlink" width="71.87" height="14.159" viewBox="0 0 71.87 14.159">
  <defs>
    <clipPath id="clip-path">
      <rect id="Rectangle_127" data-name="Rectangle 127" width="71.87" height="14.159" fill="#fff"/>
    </clipPath>
  </defs>
  <g id="Group_106" data-name="Group 106" transform="translate(0 0)" clip-path="url(#clip-path)">
    <path id="Path_2123" data-name="Path 2123" d="M8.936,14.53H7.914L1.63,2.334v10.9c0,.53.2.864.647.884l.589.019v.236c-.353,0-.923-.019-1.375-.019-.472,0-1.139.019-1.493.019v-.236l.648-.019c.452-.019.648-.334.648-.884V1.411c0-.177-.02-.393-.295-.393L0,1V.763c.746,0,1.2.02,1.945.02.628,0,1.159-.02,1.61-.02l5.126,9.9V1.9c0-.53-.216-.864-.648-.884L7.325,1V.763c.354,0,1.061.02,1.513.02.471,0,1.139-.02,1.492-.02V1l-.668.02c-.432.02-.648.334-.648.884Z" transform="translate(0 -0.488)" fill="#fff"/>
    <path id="Path_2124" data-name="Path 2124" d="M35.438,14.159c-3.476,0-5.027-3.574-5.027-7.07C30.411,3.574,31.982,0,35.438,0c3.24,0,5.047,3.024,5.047,7.089s-1.807,7.07-5.047,7.07M37.618,3.2c-.177-1.866-.982-2.985-2.18-2.985-1.178,0-1.983,1.178-2.16,2.985A32.434,32.434,0,0,0,33.1,7.089a31.887,31.887,0,0,0,.177,3.849c.177,1.866.982,2.985,2.16,2.985,1.2,0,2.022-1.139,2.18-2.985.079-1.041.177-1.866.177-3.849A37.62,37.62,0,0,0,37.618,3.2" transform="translate(-19.454 0)" fill="#fff"/>
    <path id="Path_2125" data-name="Path 2125" d="M65.1,14.43h-1L60.468,1.391c-.059-.216-.157-.374-.393-.374L59.349,1V.762c.668,0,1.551.02,2.239.02.766,0,1.944-.02,2.73-.02V1L63.2,1.017c-.177,0-.236.157-.177.334l2.69,9.858,2.573-9.368c.157-.49-.059-.825-.53-.825L67.067,1V.762c.53,0,1,.02,1.532.02.432,0,.845-.02,1.276-.02V1l-.451.019c-.275,0-.668.374-.805.825Z" transform="translate(-37.965 -0.487)" fill="#fff"/>
    <path id="Path_2126" data-name="Path 2126" d="M94.987,14.117c.9,0,1.63-.923,2.081-1.709a13.539,13.539,0,0,0,1.021-2.474h.216l-.255,4.438-6.52-.02c-.766,0-1.767.02-2.533.02v-.236l1-.019c.275,0,.295-.216.295-.393V1.411c0-.177-.02-.393-.295-.393L89,1V.763c.766,0,1.767.019,2.533.019L97.775.763l.118,3.81h-.216a9.38,9.38,0,0,0-.766-1.866c-.393-.785-1.08-1.689-1.611-1.689H93.043c-.255,0-.295.216-.295.393V7.126c2.1,0,2.612-.589,2.907-2.73h.216v5.715h-.236c-.334-2.474-1.179-2.73-2.887-2.73v6.343c0,.177.04.393.295.393Z" transform="translate(-56.931 -0.488)" fill="#fff"/>
    <path id="Path_2127" data-name="Path 2127" d="M121.75,14.117c.962,0,1.669-1.021,2.121-1.807a13.338,13.338,0,0,0,.982-2.375h.216l-.236,4.438-6.108-.02c-.766,0-1.767.02-2.533.02v-.236l1-.019c.275,0,.295-.216.295-.393V1.411c0-.177-.02-.393-.295-.393l-1-.02V.763c.766,0,1.767.019,2.533.019.727,0,1.807-.019,2.534-.019V1l-1.021.02c-.255,0-.295.216-.295.393V13.724c0,.177.039.393.295.393Z" transform="translate(-74.327 -0.488)" fill="#fff"/>
    <path id="Path_2128" data-name="Path 2128" d="M148.163,1.018c-.275,0-.314.216-.314.393V13.724c0,.177.039.393.314.393l1.1.019v.236c-.727,0-1.9-.019-2.632-.019-.766,0-1.826.019-2.592.019v-.236l1.06-.019c.255,0,.314-.216.314-.393V1.411c0-.177-.039-.393-.314-.393h-.825c-.471,0-1.1.727-1.649,1.709a14.173,14.173,0,0,0-.8,1.827h-.177l.216-3.79H151.4l.216,3.79h-.177a11.677,11.677,0,0,0-.805-1.827c-.57-1.06-1.178-1.709-1.65-1.709Z" transform="translate(-90.608 -0.488)" fill="#fff"/>
    <path id="Path_2129" data-name="Path 2129" d="M173.784,8.265,170.74,1.372c-.079-.2-.157-.353-.393-.353L169.6,1V.763c.668,0,1.787.019,2.455.019.785,0,1.807-.019,2.592-.019V1l-1.1.02c-.2,0-.275.157-.2.334L176.1,7.538l2.513-5.616c.275-.511.2-.9-.216-.9L177.574,1V.763c.53,0,1.217.019,1.747.019.452,0,.609-.019,1.041-.019V1l-.353.02c-.471,0-.726.315-.962.825l-2.808,6.068v5.813c0,.177.039.393.295.393l1.1.019v.236c-.727,0-1.9-.019-2.632-.019-.746,0-1.826.019-2.573.019v-.236l1.061-.019c.275,0,.294-.216.294-.393Z" transform="translate(-108.493 -0.488)" fill="#fff"/>
  </g>
</svg>
