<svg xmlns="http://www.w3.org/2000/svg" xmlns:xlink="http://www.w3.org/1999/xlink" width="71.41" height="11.352" viewBox="0 0 71.41 11.352">
  <defs>
    <clipPath id="clip-path">
      <rect id="Rectangle_186" data-name="Rectangle 186" width="71.41" height="11.352" fill="none"/>
    </clipPath>
  </defs>
  <g id="viewmore" transform="translate(0 0)">
    <g id="Group_149" data-name="Group 149" transform="translate(0 0)" clip-path="url(#clip-path)">
      <path id="Path_2163" data-name="Path 2163" d="M4.607,11.705h-.8L.9,1.265C.849,1.092.771.966.582.966L0,.951V.762c.535,0,1.242.016,1.793.016C2.406.778,3.35.762,3.978.762V.951l-.9.016c-.142,0-.189.126-.142.268L5.095,9.127l2.06-7.5c.126-.393-.047-.66-.425-.66L6.18.951V.762c.425,0,.8.016,1.226.016.346,0,.676-.016,1.022-.016V.951L8.066.966c-.22,0-.534.3-.644.66Z" transform="translate(0 -0.542)"/>
      <path id="Path_2164" data-name="Path 2164" d="M32.652,11.139c0,.142.031.315.236.315l.849.016v.189c-.566,0-1.463-.016-2.029-.016-.629,0-1.431.016-2.059.016V11.47l.8-.016c.22,0,.236-.173.236-.315V1.281c0-.142-.016-.315-.236-.315l-.8-.016V.762c.629,0,1.431.016,2.059.016.566,0,1.463-.016,2.029-.016V.951l-.849.016c-.2,0-.236.173-.236.315Z" transform="translate(-21.096 -0.542)"/>
      <path id="Path_2165" data-name="Path 2165" d="M49.758,11.455c.723,0,1.3-.739,1.667-1.368a10.839,10.839,0,0,0,.818-1.981h.173l-.2,3.553-5.22-.016c-.613,0-1.415.016-2.028.016v-.189l.8-.016c.22,0,.236-.173.236-.315V1.282c0-.142-.016-.314-.236-.314l-.8-.016V.763c.613,0,1.415.016,2.028.016l5-.016.094,3.05h-.173A7.511,7.511,0,0,0,51.3,2.319c-.315-.629-.865-1.352-1.29-1.352H48.2c-.2,0-.236.173-.236.314V5.857c1.682,0,2.091-.472,2.327-2.186h.173V8.247h-.189c-.267-1.981-.944-2.186-2.312-2.186V11.14c0,.142.032.315.236.315Z" transform="translate(-31.991 -0.543)"/>
      <path id="Path_2166" data-name="Path 2166" d="M79.531,11.659h-.724L77.487,6.974,75.9,11.659h-.755L72.235,1.266c-.047-.173-.126-.3-.314-.3L71.339.951V.763c.519,0,2.595.016,5.236.016,1.085,0,3.648-.016,4.01-.016V.951l-.377.016a.906.906,0,0,0-.645.66l-.943,2.956,1.337,4.685,2.107-7.642c.11-.393-.047-.66-.425-.66L81.166.951V.763c.425,0,.708.016,1.132.016.361,0,.692-.016,1.038-.016V.951l-.361.016c-.236,0-.535.3-.645.66ZM74.358.967c-.157,0-.2.126-.157.268l2.233,8.1L77.345,6.6,75.773,1.266c-.047-.173-.126-.3-.315-.3Zm3.553,0c-.141,0-.189.126-.141.268l.739,2.94.818-2.61c.126-.425,0-.6-.346-.6Z" transform="translate(-50.759 -0.543)"/>
      <path id="Path_2167" data-name="Path 2167" d="M124.8,10.747c0,.425.157.692.519.708l.472.016v.189c-.284,0-.739-.016-1.1-.016-.377,0-.912.016-1.195.016v-.189l.519-.016c.362-.016.519-.268.519-.708V1.282c0-.142-.016-.314-.236-.314l-.8-.016V.763c.6,0,1.179.016,1.777.016.5,0,.99-.016,1.493-.016l1.84,7.783,2-7.783c.346,0,.676.016,1.243.016.613,0,1.352-.016,1.949-.016V.951l-.723.016c-.236,0-.252.173-.252.314V11.14c0,.142.032.315.252.315l.723.016v.189c-.6,0-1.336-.016-1.949-.016-.582,0-1.431.016-2.013.016v-.189l.786-.016c.22,0,.236-.173.236-.315V1.235h-.094l-2.688,10.425h-.677l-2.5-10.425H124.8Z" transform="translate(-87.869 -0.543)"/>
      <path id="Path_2168" data-name="Path 2168" d="M165.289,11.336c-2.783,0-4.025-2.862-4.025-5.66,0-2.814,1.258-5.676,4.025-5.676,2.594,0,4.041,2.421,4.041,5.676s-1.446,5.66-4.041,5.66m1.745-8.774c-.142-1.494-.786-2.39-1.745-2.39-.943,0-1.588.943-1.73,2.39a25.971,25.971,0,0,0-.141,3.113,25.533,25.533,0,0,0,.141,3.082c.142,1.494.786,2.39,1.73,2.39.959,0,1.619-.912,1.745-2.39.063-.833.141-1.494.141-3.082a30.116,30.116,0,0,0-.141-3.113" transform="translate(-114.743 0)"/>
      <path id="Path_2169" data-name="Path 2169" d="M195.548.763c1.148,0,2.988.425,2.988,2.673,0,1.871-1.352,2.453-2.767,2.642a2.863,2.863,0,0,1,2.217,1.415,4.983,4.983,0,0,1,.362,1.887c.126,1.667.346,2.091.818,2.091a1.528,1.528,0,0,0,.755-.3l.063.173a3.274,3.274,0,0,1-1.651.55c-1.085,0-2.076-.519-2.154-2.814a5.345,5.345,0,0,0-.425-2.484,1.13,1.13,0,0,0-.865-.409h-.865v4.953c0,.142.031.315.236.315l.818.015v.189c-.582,0-1.446-.016-2.028-.016-.613,0-1.415.016-2.028.016v-.189l.8-.015c.22,0,.236-.173.236-.315V1.282c0-.142-.016-.315-.236-.315l-.8-.016V.763c.613,0,1.415.016,2.028.016Zm-1.525,5.22c1.871,0,2.343-.314,2.343-2.484,0-1.95-.629-2.532-1.808-2.532h-.3c-.2,0-.236.173-.236.315Z" transform="translate(-135.915 -0.543)"/>
      <path id="Path_2170" data-name="Path 2170" d="M226.5,11.455c.723,0,1.3-.739,1.667-1.368a10.841,10.841,0,0,0,.818-1.981h.173l-.2,3.553-5.22-.016c-.613,0-1.415.016-2.028.016v-.189l.8-.016c.22,0,.236-.173.236-.315V1.282c0-.142-.016-.314-.236-.314l-.8-.016V.763c.613,0,1.415.016,2.028.016l5-.016.094,3.05h-.173a7.511,7.511,0,0,0-.613-1.494c-.315-.629-.865-1.352-1.289-1.352h-1.808c-.2,0-.236.173-.236.314V5.857c1.682,0,2.091-.472,2.327-2.186h.173V8.247h-.189c-.267-1.981-.944-2.186-2.312-2.186V11.14c0,.142.032.315.236.315Z" transform="translate(-157.745 -0.543)"/>
    </g>
  </g>
</svg>
