<svg xmlns="http://www.w3.org/2000/svg" width="120" height="119.999" viewBox="0 0 120 119.999">
  <path id="b-close" d="M60,0,52.546,12.993,41.455,2.922,38.4,17.587,24.728,11.458l1.624,14.893L11.458,24.727,17.587,38.4,2.923,41.454,12.994,52.546,0,60l12.994,7.453L2.923,78.544,17.587,81.6l-6.128,13.67,14.892-1.624-1.623,14.893L38.4,102.412l3.06,14.665,11.091-10.071L60,120l7.453-12.993,11.092,10.071L81.6,102.412l13.669,6.129L93.647,93.648l14.893,1.624L102.411,81.6l14.665-3.059L107.006,67.454,120,60l-12.994-7.454,10.071-11.092L102.411,38.4l6.129-13.67L93.648,26.352l1.623-14.894L81.6,17.588,78.544,2.922,67.452,12.993Z" transform="translate(0 0)" fill="#c782c3"/>
</svg>
