<svg xmlns="http://www.w3.org/2000/svg" xmlns:xlink="http://www.w3.org/1999/xlink" width="319.912" height="243.113" viewBox="0 0 319.912 243.113">
  <defs>
    <clipPath id="clip-path">
      <rect id="Rectangle_3174" data-name="Rectangle 3174" width="284.159" height="175.548" fill="none"/>
    </clipPath>
  </defs>
  <g id="credit" transform="matrix(0.966, 0.259, -0.259, 0.966, 45.435, 0)">
    <path id="Path_4260" data-name="Path 4260" d="M149.1,0l-7.016,19.07L135.059,0l-5.877,19.451L121.032.839l-4.68,19.774L107.062,2.54l-3.406,20.031L93.2,5.148,91.156,25.363,79.507,8.714l-.558,20.309L66.065,13.314,67.147,33.6,52.957,19.061l2.945,20.1L40.341,26.1l5.1,19.657-17-11.121,7.636,18.814L17.63,44.95,28.26,62.24l-19.7-4.913L22.564,72,2.278,71.825l17.277,10.6L0,87.774l19.555,5.345-17.28,10.6,20.284-.173L8.553,118.208l19.7-4.912L17.615,130.58l18.448-8.494L28.424,140.9l17-11.116-5.1,19.659,15.567-13.055-2.945,20.1L67.14,141.943,66.057,162.23l12.894-15.7.566,20.309,11.654-16.647L93.216,170.4l10.453-17.424,3.408,20.03,9.291-18.071,4.677,19.773,8.147-18.614,5.873,19.451,7.014-19.07,7.022,19.07,5.877-19.451,8.15,18.614,4.678-19.774,9.289,18.071,3.408-20.031L190.957,170.4,193,150.185l11.649,16.647.559-20.306L218.1,162.234l-1.082-20.287,14.19,14.541-2.946-20.1,15.562,13.06-5.1-19.657,17,11.121L248.082,122.1l18.446,8.5L255.9,113.308l19.7,4.913-14-14.672,20.285.174L264.6,93.12l19.555-5.346L264.6,82.431l17.282-10.6-20.287.173,14.008-14.668-19.7,4.912,10.635-17.285-18.448,8.5,7.641-18.812-17,11.116,5.1-19.657L228.265,39.163l2.945-20.1L217.018,33.6,218.1,13.317,205.209,29.023l-.567-20.313L192.989,25.36,190.944,5.145,180.49,22.57,177.083,2.539l-9.291,18.072L163.116.837l-8.147,18.614Z" transform="translate(0 0)" fill="#72beff"/>
    <g id="Group_2177" data-name="Group 2177" transform="translate(0 0)">
      <g id="Group_2176" data-name="Group 2176" transform="translate(0 0)" clip-path="url(#clip-path)">
        <path id="Path_4261" data-name="Path 4261" d="M56.65,62.562v3.387c-4,3.293-9.78,5.53-18.859,5.53-10.932,0-18.7-4.731-18.7-11.7,0-6.9,7.96-11.7,17.261-11.7,6.808,0,12.626,2.3,16.524,6.009v-5.5h2.493v9.748H53.357c-3.739-4.889-9.718-7.607-17-7.607-7.543,0-14.287,3.708-14.287,9.045,0,5.4,6.551,9.047,15.725,9.047,8.534,0,14.318-1.887,18.859-6.265" transform="translate(11.413 28.742)"/>
        <path id="Path_4262" data-name="Path 4262" d="M84.029,62.306c0,5.944-2.365,8.981-6.682,8.981-3.675,0-6.393-2.111-8.468-5.146-2.59-3.771-4.188-4.7-7.319-4.7H55.74v6.934h8.631v2.4H45.193v-2.4h7.671V50.8H45.193V48.4H68.366c6.043,0,9.909,2.654,9.909,6.393,0,3.836-3.964,6.489-9.909,6.489h-.158A11.456,11.456,0,0,1,71.5,64.925c1.66,2.462,3.483,3.71,5.88,3.71,2.908,0,4.092-1.823,4.092-6.329ZM55.74,58.886H68.366c4.38,0,6.936-1.438,6.936-3.932s-2.556-3.9-6.936-3.9H55.74Z" transform="translate(27.015 28.933)"/>
        <path id="Path_4263" data-name="Path 4263" d="M106.072,58.151h-2.494v-7.1H81.939v7.032H92.967V53.611H95.3V65.117H92.967V60.643H81.939v7.479h21.639v-7.1h2.494v9.748H71.394v-2.4h7.671V50.8H71.394V48.4h34.678Z" transform="translate(42.678 28.933)"/>
        <path id="Path_4264" data-name="Path 4264" d="M96.393,70.775v-2.4h7.669V50.8H96.393V48.4h21.094c10,0,16.46,4.378,16.46,11.186s-6.457,11.188-16.46,11.188Zm10.545-2.652h10.549c8.342,0,13.488-3.2,13.488-8.535s-5.146-8.534-13.488-8.534H106.938Z" transform="translate(57.622 28.933)"/>
        <path id="Path_4265" data-name="Path 4265" d="M122.593,70.775v-2.4h8.628V50.8h-8.628V48.4h20.041v2.4H134v17.58h8.631v2.4Z" transform="translate(73.284 28.933)"/>
        <path id="Path_4266" data-name="Path 4266" d="M143.446,70.775v-2.4h8.63V51.054h-11.25v7.1h-2.493V48.4H168.7v9.75H166.2v-7.1h-11.25V68.379h8.63v2.4Z" transform="translate(82.693 28.933)"/>
      </g>
    </g>
  </g>
</svg>
