<svg xmlns="http://www.w3.org/2000/svg" width="305.88" height="39.71" viewBox="0 0 305.88 39.71">
  <path id="date-3" d="M24.97,38.5H21.065V39c0,8.47-4.07,12.54-12.32,12.54H6.82V55H8.25c7.92,0,11.55-3.41,13.475-10.23h.55a36.189,36.189,0,0,0-1.265,9.075v19.69H4.51V77H39.49V73.535H24.97ZM66.935,77.605C79.53,77.605,88,69.19,88,57.75S79.53,37.9,66.935,37.9,45.925,46.31,45.925,57.75,54.34,77.605,66.935,77.605Zm0-3.41c-10.12,0-17.05-6.985-17.05-16.445s6.93-16.445,17.05-16.445S84.04,48.29,84.04,57.75,77.055,74.195,66.935,74.195Zm34.43,3.41a2.568,2.568,0,1,0,0-5.115,2.568,2.568,0,1,0,0,5.115Zm18.26-6.93c0-17.325,36.41-1.43,36.41-20.845,0-6.71-5.225-11.935-20.4-11.935-14.63,0-20.405,5.72-20.405,13.64v1.6h3.96V51.59c0-5.94,4.51-10.45,16.445-10.45,12.54,0,16.445,3.905,16.445,8.8,0,15.345-36.3-.33-36.3,20.9V77H155.32V73.755h-35.7Zm52.415,0c0-17.325,36.41-1.43,36.41-20.845,0-6.71-5.225-11.935-20.4-11.935-14.63,0-20.4,5.72-20.4,13.64v1.6h3.96V51.59c0-5.94,4.51-10.45,16.445-10.45,12.54,0,16.445,3.905,16.445,8.8,0,15.345-36.3-.33-36.3,20.9V77h39.545V73.755h-35.7Zm58.43,6.765c9.64,0,12.2-2.6,12.2-5.88,0-9.68-21.64-2.52-21.64-9.16,0-2.04,1.8-3.88,9.44-3.88,7.08,0,9.32,2.28,9.4,5.04h2.6c-.08-3.96-3.24-7.12-12-7.12-9.4,0-12.08,2.64-12.08,5.84,0,9.24,21.68,2.16,21.68,9.16,0,2.12-1.8,3.92-9.6,3.92-7.4,0-9.64-2.28-9.64-5v-.4h-2.64v.44C218.19,74.4,221.27,77.44,230.47,77.44Zm32.08,0c6.08,0,9.44-3.24,10.4-7.12h.44L272.83,77h2.68V56.88h-2.64v8.4c0,6.36-3.6,9.96-9.56,9.96s-9.56-3.6-9.56-9.96v-8.4h-2.6v8.88C251.15,73.12,255.51,77.44,262.55,77.44ZM288.03,77V68.84c0-6.52,3.72-10.2,9.88-10.2,6.2,0,9.84,3.68,9.84,10.2V77h2.64V68.36c0-7.52-4.44-11.92-11.72-11.92-6.28,0-9.76,3.32-10.68,7.12h-.44l.56-6.68h-2.68V77Z" transform="translate(-4.51 -37.895)" fill="#51a6ce"/>
</svg>
