<svg xmlns="http://www.w3.org/2000/svg" width="302.427" height="41.154" viewBox="0 0 302.427 41.154">
  <path id="date-1" d="M25.878,40.1H21.831v.513c0,8.778-4.218,13-12.768,13H7.068V57.2H8.55c8.208,0,11.97-3.534,13.965-10.6h.57A37.505,37.505,0,0,0,21.774,56V76.409H4.674V80H40.926V76.409H25.878ZM69.369,80.627c13.053,0,21.831-8.721,21.831-20.577S82.422,39.473,69.369,39.473,47.6,48.194,47.6,60.05,56.316,80.627,69.369,80.627Zm0-3.534c-10.488,0-17.67-7.239-17.67-17.043s7.182-17.043,17.67-17.043S87.1,50.246,87.1,60.05,79.857,77.093,69.369,77.093Zm35.682,3.534a2.662,2.662,0,1,0,0-5.3,2.662,2.662,0,1,0,0,5.3Zm18.924-7.182c0-17.955,37.734-1.482,37.734-21.6,0-6.954-5.415-12.369-21.147-12.369-15.162,0-21.147,5.928-21.147,14.136v1.653h4.1v-1.6c0-6.156,4.674-10.83,17.043-10.83,13,0,17.043,4.047,17.043,9.12,0,15.9-37.62-.342-37.62,21.66V80h40.983V76.637H123.975Zm71.079,7.182c13.053,0,21.831-8.721,21.831-20.577s-8.778-20.577-21.831-20.577S173.28,48.194,173.28,60.05,182,80.627,195.054,80.627Zm0-3.534c-10.488,0-17.67-7.239-17.67-17.043s7.182-17.043,17.67-17.043,17.727,7.239,17.727,17.043S205.542,77.093,195.054,77.093ZM236.751,80V62.192h12.6V60.008H236.457c-1.806-.756-4.452-1.932-4.452-4.2,0-1.848,1.806-3.7,9.324-3.7,7.182,0,9.282,2.1,9.282,5.292v.168h2.73v-.084c0-4.494-3.066-7.56-12.012-7.56-9.492,0-12.054,2.52-12.054,5.208,0,2.73,2.6,4.242,5.124,4.494v.378h-8.232v2.184h7.812V80Zm24.864,0V70.424c0-6.342,3.486-9.618,9.282-9.618,6.006,0,9.282,3.276,9.282,8.064v.336h2.73v-.5c0-6.3-3.906-10.29-11.13-10.29-5.964,0-9.24,3.234-10.164,6.762h-.462l.546-6.3h-2.814V80Zm35.868-25.872a1.886,1.886,0,1,0-2.142-1.89A1.893,1.893,0,0,0,297.483,54.128Zm1.89,9.324c0-3.444-1.6-5.04-5.292-5.04a10.234,10.234,0,0,0-3.78.672v2.394a8.154,8.154,0,0,1,3.066-.63c2.394,0,3.36.966,3.36,3.4v13.4h-8.82V80H307.1V77.648h-7.728Z" transform="translate(-4.674 -39.473)" fill="#51a6ce"/>
</svg>
