<svg xmlns="http://www.w3.org/2000/svg" width="294.455" height="39.71" viewBox="0 0 294.455 39.71">
  <path id="date-2" d="M24.97,38.5H21.065V39c0,8.47-4.07,12.54-12.32,12.54H6.82V55H8.25c7.92,0,11.55-3.41,13.475-10.23h.55a36.189,36.189,0,0,0-1.265,9.075v19.69H4.51V77H39.49V73.535H24.97ZM66.935,77.605C79.53,77.605,88,69.19,88,57.75S79.53,37.9,66.935,37.9,45.925,46.31,45.925,57.75,54.34,77.605,66.935,77.605Zm0-3.41c-10.12,0-17.05-6.985-17.05-16.445s6.93-16.445,17.05-16.445S84.04,48.29,84.04,57.75,77.055,74.195,66.935,74.195Zm34.43,3.41a2.568,2.568,0,1,0,0-5.115,2.568,2.568,0,1,0,0,5.115Zm18.26-6.93c0-17.325,36.41-1.43,36.41-20.845,0-6.71-5.225-11.935-20.4-11.935-14.63,0-20.405,5.72-20.405,13.64v1.6h3.96V51.59c0-5.94,4.51-10.45,16.445-10.45,12.54,0,16.445,3.905,16.445,8.8,0,15.345-36.3-.33-36.3,20.9V77H155.32V73.755h-35.7ZM186.615,38.5h-3.9V39c0,8.47-4.07,12.54-12.32,12.54h-1.925V55h1.43c7.92,0,11.55-3.41,13.475-10.23h.55a36.19,36.19,0,0,0-1.265,9.075v19.69h-16.5V77h34.98V73.535h-14.52Zm35.11,38.94c9.64,0,12.2-2.6,12.2-5.88,0-9.68-21.64-2.52-21.64-9.16,0-2.04,1.8-3.88,9.44-3.88,7.08,0,9.32,2.28,9.4,5.04h2.6c-.08-3.96-3.24-7.12-12-7.12-9.4,0-12.08,2.64-12.08,5.84,0,9.24,21.68,2.16,21.68,9.16,0,2.12-1.8,3.92-9.6,3.92-7.4,0-9.64-2.28-9.64-5v-.4h-2.64v.44C209.445,74.4,212.525,77.44,221.725,77.44Zm29.64,0c7.04,0,11.48-2.28,11.96-3.96v-.04h.4v.44c0,2.2,1.4,3.56,3.84,3.56a5.078,5.078,0,0,0,1.8-.28V75.04a5.594,5.594,0,0,1-1.36.2c-1.32,0-2-.68-2-2.16V66.44c0-6.12-3.88-10-12.28-10-8.28,0-12,3.76-12.32,7.68h2.6c.36-2.6,3.2-5.48,9.68-5.48,6.68,0,9.72,3.08,9.72,7.72v2.28a21.452,21.452,0,0,0-12.04-3.24c-6.76,0-9.36,2.6-9.36,6C242.005,74.88,244.6,77.44,251.365,77.44Zm.76-2.08c-5.76,0-7.52-1.72-7.52-4,0-2.24,1.76-3.96,7.52-3.96a21.326,21.326,0,0,1,11.28,2.92v1.8C261.125,73.8,257.445,75.36,252.125,75.36Zm35.36,2.08c7.96,0,11.48-3.48,11.48-9.2v-.32h-2.6v.28c0,4.4-2.64,7.04-8.88,7.04-5.88,0-8.76-2.88-8.76-7.28,0-4.08,2.32-6.8,6.2-8.52h12.52V57.36h-12.28V52.08h-2.24v3.44c0,1.36-.4,1.84-1.8,1.84h-7.6v2.08h9.28v.36c-3.32,1.24-6.68,4.4-6.68,9C276.125,73.8,279.765,77.44,287.485,77.44Z" transform="translate(-4.51 -37.895)" fill="#51a6ce"/>
</svg>
