<svg id="ft-1" xmlns="http://www.w3.org/2000/svg" width="34.312" height="34.724" viewBox="0 0 34.312 34.724">
  <ellipse id="Ellipse_20" data-name="Ellipse 20" cx="17.156" cy="17.362" rx="17.156" ry="17.362" transform="translate(0 0)" fill="#fff"/>
  <path id="Path_4243" data-name="Path 4243" d="M85.278,90.655a7.358,7.358,0,0,1-2.113.579A3.691,3.691,0,0,0,84.783,89.2a7.367,7.367,0,0,1-2.337.893,3.683,3.683,0,0,0-6.27,3.356A10.446,10.446,0,0,1,68.592,89.6a3.684,3.684,0,0,0,1.139,4.913,3.664,3.664,0,0,1-1.667-.46V94.1a3.682,3.682,0,0,0,2.952,3.608,3.688,3.688,0,0,1-1.662.063,3.684,3.684,0,0,0,3.437,2.555,7.383,7.383,0,0,1-4.57,1.575,7.5,7.5,0,0,1-.878-.051,10.465,10.465,0,0,0,16.11-8.816q0-.239-.011-.476A7.479,7.479,0,0,0,85.278,90.655Z" transform="translate(-58.887 -78.079)" fill="#222"/>
</svg>
