<svg id="ft-3" xmlns="http://www.w3.org/2000/svg" width="34.356" height="34.724" viewBox="0 0 34.356 34.724">
  <ellipse id="Ellipse_18" data-name="Ellipse 18" cx="17.178" cy="17.362" rx="17.178" ry="17.362" transform="translate(0 0)" fill="#fff"/>
  <g id="Group_2162" data-name="Group 2162" transform="translate(8.312 8.681)">
    <path id="Path_4235" data-name="Path 4235" d="M13.3,5.741c2.463,0,2.755.009,3.727.054a5.105,5.105,0,0,1,1.713.318,3.055,3.055,0,0,1,1.751,1.751,5.105,5.105,0,0,1,.318,1.713c.044.973.054,1.264.054,3.727s-.009,2.755-.054,3.727a5.1,5.1,0,0,1-.318,1.713,3.055,3.055,0,0,1-1.751,1.751,5.1,5.1,0,0,1-1.713.318c-.972.044-1.264.054-3.727.054s-2.755-.009-3.727-.054a5.1,5.1,0,0,1-1.713-.318,3.055,3.055,0,0,1-1.751-1.751,5.1,5.1,0,0,1-.318-1.713c-.044-.973-.054-1.264-.054-3.727s.009-2.755.054-3.727a5.105,5.105,0,0,1,.318-1.713A3.055,3.055,0,0,1,7.863,6.112a5.1,5.1,0,0,1,1.713-.318c.973-.044,1.264-.054,3.727-.054m0-1.662c-2.505,0-2.819.011-3.8.056a6.77,6.77,0,0,0-2.239.429,4.717,4.717,0,0,0-2.7,2.7A6.77,6.77,0,0,0,4.135,9.5c-.045.984-.056,1.3-.056,3.8s.011,2.819.056,3.8a6.77,6.77,0,0,0,.429,2.239,4.717,4.717,0,0,0,2.7,2.7,6.77,6.77,0,0,0,2.239.429c.984.045,1.3.056,3.8.056s2.819-.011,3.8-.056a6.77,6.77,0,0,0,2.239-.429,4.717,4.717,0,0,0,2.7-2.7,6.77,6.77,0,0,0,.429-2.239c.045-.984.056-1.3.056-3.8s-.011-2.819-.056-3.8a6.77,6.77,0,0,0-.429-2.239,4.717,4.717,0,0,0-2.7-2.7A6.77,6.77,0,0,0,17.1,4.132c-.984-.045-1.3-.056-3.8-.056Z" transform="translate(-4.079 -4.079)" fill="#222"/>
    <path id="Path_4236" data-name="Path 4236" d="M131.371,126.635a4.736,4.736,0,1,0,4.736,4.736,4.736,4.736,0,0,0-4.736-4.736Zm0,7.811a3.075,3.075,0,1,1,3.075-3.075A3.075,3.075,0,0,1,131.371,134.446Z" transform="translate(-122.148 -122.148)" fill="#222"/>
    <circle id="Ellipse_19" data-name="Ellipse 19" cx="1.107" cy="1.107" r="1.107" transform="translate(13.04 3.193)" fill="#222"/>
  </g>
</svg>
