<svg xmlns="http://www.w3.org/2000/svg" width="314.732" height="239.176" viewBox="0 0 314.732 239.176">
  <g id="icon-day" transform="matrix(0.966, 0.259, -0.259, 0.966, 44.7, 0)">
    <path id="Path_4244" data-name="Path 4244" d="M146.681,0l-6.9,18.761L132.872,0,127.09,19.136,119.072.825l-4.6,19.454L105.329,2.5l-3.351,19.707L91.694,5.065,89.681,24.952,78.22,8.573l-.549,19.981L65,13.1l1.064,19.957L52.1,18.753,55,38.524,39.688,25.676l5.018,19.339L27.98,34.074l7.512,18.509L17.344,44.223,27.8,61.232,8.422,56.4,22.2,70.833,2.242,70.662l17,10.43L0,86.353l19.239,5.258-17,10.425,19.955-.17L8.414,116.295l19.38-4.832-10.464,17L35.48,120.11l-7.515,18.508,16.727-10.936-5.018,19.341,15.315-12.844-2.9,19.773,13.962-14.306L64.987,159.6l12.685-15.45.556,19.981,11.466-16.378,2.012,19.888L101.99,150.5l3.353,19.705,9.141-17.778,4.6,19.452,8.015-18.313,5.778,19.136,6.9-18.761,6.909,18.761,5.781-19.136,8.018,18.313,4.6-19.454,9.139,17.778,3.353-19.707,10.283,17.142,2.012-19.888,11.461,16.378.55-19.977,12.676,15.453L213.5,139.648l13.96,14.306-2.9-19.773,15.31,12.849-5.019-19.339,16.725,10.94-7.512-18.509,18.148,8.361-10.456-17.01,19.38,4.834-13.776-14.435,19.957.171-17-10.431,19.239-5.26L260.319,81.1l17-10.425-19.958.17,13.781-14.43-19.379,4.832,10.463-17L244.078,52.6l7.517-18.508L234.867,45.024l5.019-19.339L224.569,38.529l2.9-19.775L213.5,33.059,214.57,13.1,201.887,28.554,201.328,8.57,189.865,24.949,187.853,5.062,177.568,22.2,174.216,2.5l-9.141,17.78L160.475.824l-8.015,18.313Z" transform="translate(0 0)" fill="#df8bea"/>
    <g id="Group_2169" data-name="Group 2169" transform="translate(40.741 69.76)">
      <path id="Path_4245" data-name="Path 4245" d="M3.169,22.337a5.706,5.706,0,0,0,2.3,3.546,8.321,8.321,0,0,0,4.868,1.358c4.376,0,7.13-2.264,7.13-5.849,0-3.735-2.679-5.77-7.7-5.77a26.1,26.1,0,0,0-3.018.189V12.868a21.478,21.478,0,0,0,2.792.187c2.491,0,4.338-.566,5.51-1.735A5.2,5.2,0,0,0,16.563,7.66c0-3.244-2.264-5.132-6.075-5.132-2.3,0-3.961.643-5.018,2A7.068,7.068,0,0,0,4.263,7.243L1.132,6.527A8.6,8.6,0,0,1,3.169,2.756C4.829.945,7.394,0,10.676,0c5.472,0,8.943,2.867,8.943,7.4A6.627,6.627,0,0,1,16.978,12.9a7.748,7.748,0,0,1-3.546,1.358,8.081,8.081,0,0,1,4.64,1.624,6.906,6.906,0,0,1,2.528,5.7c0,5.093-3.923,8.262-10.225,8.262-3.81,0-6.64-1.019-8.451-3.094A9.809,9.809,0,0,1,0,23.09Z" fill="#001c5c"/>
      <path id="Path_4246" data-name="Path 4246" d="M0,22.011V19.654H7.548V2.358H0V0H20.755C30.6,0,36.949,4.307,36.949,11S30.6,22.011,20.755,22.011ZM10.378,19.4H20.755c8.207,0,13.268-3.145,13.268-8.4s-5.062-8.4-13.268-8.4H10.378Z" transform="translate(29.198 6.322)"/>
      <path id="Path_4247" data-name="Path 4247" d="M34.591,19.654H40.25v2.358H22.768V19.654h8.488l-3.425-5.187H12.264L8.836,19.654h8.491v2.358H0V19.654H5.66l11.51-17.3H8.491V0H21.508ZM13.93,11.95H26.194L20.062,2.642Z" transform="translate(66.767 6.322)"/>
      <path id="Path_4248" data-name="Path 4248" d="M18.742,0H35.723V2.358H30.061L19.276,14.716v4.937h8.49v2.358H7.957V19.654h8.49V14.716L5.66,2.358H0V0H17.137V2.358H9.246l8.71,10.062L26.634,2.358H18.742Z" transform="translate(103.707 6.323)"/>
      <path id="Path_4249" data-name="Path 4249" d="M33.018,16.667c0,4.056-4.559,6.352-12.578,6.352-7.547,0-13.427-2.171-17.986-6.1v5.6H0V12.769H1.982c3.93,4.9,10.376,7.641,18.457,7.641,6.1,0,9.655-1.352,9.655-3.743,0-2.484-3.994-3.617-13.49-4.026C5.44,12.171.786,10.315.786,6.259.786,2.421,5.378,0,12.736,0a26.036,26.036,0,0,1,17.2,6.008V.5h2.454v9.59H30.409C26.634,5.377,20.031,2.611,12.736,2.611c-5.409,0-9.026,1.448-9.026,3.648,0,2.295,3.837,3.458,12.863,3.867,12.137.534,16.445,2.264,16.445,6.541" transform="translate(141.621 5.819)"/>
      <path id="Path_4250" data-name="Path 4250" d="M.41,18.017c.061-.975.061-1.195.061-2.232V14.653L.189,3.458C.159,2.138.126,1.195,0,0H3.114c-.094,1.195-.157,2.138-.189,3.458l-.253,11.2c-.03,1.32-.03,1.32-.03,1.446,0,.567.03,1.132.093,1.918ZM.063,20.941H3.112V23.9H.063Z" transform="translate(187.021 5.381)"/>
    </g>
  </g>
</svg>
