<svg xmlns="http://www.w3.org/2000/svg" xmlns:xlink="http://www.w3.org/1999/xlink" width="1360" height="808.966" viewBox="0 0 1360 808.966">
  <defs>
    <linearGradient id="linear-gradient" x2="1.021" y2="1" gradientUnits="objectBoundingBox">
      <stop offset="0" stop-color="#ea91d1"/>
      <stop offset="1" stop-color="#5eafde"/>
    </linearGradient>
    <clipPath id="clip-path">
      <rect id="Rectangle_3175" data-name="Rectangle 3175" width="192.681" height="700.859" fill="none"/>
    </clipPath>
    <clipPath id="clip-path-2">
      <rect id="Rectangle_3176" data-name="Rectangle 3176" width="414.993" height="577.21" fill="none"/>
    </clipPath>
  </defs>
  <g id="main-bg" transform="translate(0 207)">
    <path id="bg" d="M0,0H1360V808.837H0Z" transform="translate(0 -207)" fill="url(#linear-gradient)"/>
    <g id="Group_2183" data-name="Group 2183" transform="translate(2.664 -98.893)" opacity="0.2">
      <g id="Group_2182" data-name="Group 2182" transform="translate(0 0)" clip-path="url(#clip-path)">
        <path id="Path_4267" data-name="Path 4267" d="M15.267.631C.195,24.792-3,54.428,2.552,82.019c5.7,28.294,20.869,53.709,39.821,75.14C63.1,180.6,88.341,199.374,114.166,216.783c13.634,9.192,27.486,18.053,41.14,27.213,11.817,7.927,26.442,16.242,32.487,29.831,6.719,15.1-2.9,30.769-15.222,39.467-12.76,9.011-28.173,13.4-41.927,20.6-25.6,13.4-50.154,33.247-66.059,57.624-7.7,11.8-12.683,25.644-10.137,39.845,2.46,13.725,10.984,25.75,20.967,35.144,11.373,10.7,24.866,18.721,37.262,28.118,11.677,8.852,22.414,19.345,30.473,31.64,7.706,11.757,12.8,25.3,12.837,39.475.04,17.016-6.681,33.063-12.646,48.689-5.8,15.208-11.393,31.35-9.922,47.881,1.059,11.9,6.472,23.852,15.809,31.523a32.327,32.327,0,0,0,15.2,7c1.689.286,2.415-2.3.713-2.587-13.439-2.275-22.973-13.45-27-25.978-5.006-15.558-1.008-32.288,4.165-47.255,5.306-15.353,12.439-30.218,15.2-46.34a70.333,70.333,0,0,0-4.471-39.639c-5.25-12.439-13.524-23.42-23.039-32.917-10.308-10.289-22.28-18.362-34.108-26.757-12.465-8.849-24.757-18.569-32.544-31.994a46.8,46.8,0,0,1-2.342-43.84c6.139-13.689,16.563-25.376,27.248-35.713a189.385,189.385,0,0,1,35.55-27.052c13.228-7.788,27.689-12.679,41.23-19.78,11.837-6.208,23.066-15.625,26.674-29.041,3.418-12.708-2.578-24.3-11.67-32.935-10.722-10.178-24.067-17.853-36.362-25.938-27.064-17.8-54.583-35.288-78.722-57.034-21.632-19.486-40.774-42.523-52.1-69.579C1.771,79.953-1.115,49.2,8.192,21.723A94.7,94.7,0,0,1,17.583,1.985C18.5.515,16.18-.832,15.267.631" transform="translate(0 0)" fill="#fff"/>
      </g>
    </g>
    <g id="Group_2185" data-name="Group 2185" transform="translate(939.961 -206.34)" opacity="0.2">
      <g id="Group_2184" data-name="Group 2184" transform="translate(0)" clip-path="url(#clip-path-2)">
        <path id="Path_4268" data-name="Path 4268" d="M79.983.815c-25.13,57.727-50.376,115.7-67.6,176.379C4.559,204.74-4.442,235.307,2.463,263.98,8.272,288.1,26.35,305.6,47.673,316.936c22.371,11.9,47.082,17.143,71.367,23.568,25.6,6.771,51.763,15.441,70.895,34.638,17.039,17.1,27.475,39.285,41.806,58.463,6.888,9.217,14.724,17.788,24.267,24.314,11.06,7.564,23.949,11.624,36.915,14.514,13.593,3.029,27.456,4.926,40.817,8.943a107.632,107.632,0,0,1,33.545,16.947A114.253,114.253,0,0,1,408.5,558.129a104.909,104.909,0,0,1,3.369,17.593c.206,1.974,3.323,2,3.116,0a114.881,114.881,0,0,0-28.644-64.043c-16.537-18.6-37.964-30.421-62.082-36.018-13.7-3.181-27.709-5.032-41.241-8.942-12.854-3.715-24.631-9.63-34.491-18.759-17.416-16.127-27.934-37.975-41.551-57.082-6.865-9.633-14.557-18.677-23.919-25.976-10.2-7.95-21.816-13.76-33.871-18.32-24.553-9.29-50.681-13.239-75.444-21.829-22.511-7.808-45.659-19.719-59.067-40.217-16.383-25.049-12.086-56-5.385-83.5C24.233,139.724,48.535,81.169,73.544,23.4q4.55-10.511,9.129-21.01c.792-1.82-1.89-3.409-2.69-1.572" transform="translate(0 0)" fill="#fff"/>
      </g>
    </g>
  </g>
</svg>
