<svg xmlns="http://www.w3.org/2000/svg" xmlns:xlink="http://www.w3.org/1999/xlink" width="26" height="26" viewBox="0 0 26 26">
  <defs>
    <linearGradient id="linear-gradient" x1="0.5" x2="0.5" y2="1" gradientUnits="objectBoundingBox">
      <stop offset="0" stop-color="#f4ace0"/>
      <stop offset="1" stop-color="#86caf0"/>
    </linearGradient>
  </defs>
  <path id="sc-1" d="M39.029,4c-3.532,0-3.973.016-5.359.078a9.586,9.586,0,0,0-3.156.6,6.644,6.644,0,0,0-3.8,3.8,9.558,9.558,0,0,0-.6,3.156c-.065,1.387-.078,1.828-.078,5.359s.016,3.973.078,5.359a9.592,9.592,0,0,0,.6,3.156,6.644,6.644,0,0,0,3.8,3.8,9.6,9.6,0,0,0,3.156.6c1.387.065,1.828.078,5.359.078s3.973-.016,5.359-.078a9.62,9.62,0,0,0,3.156-.6,6.644,6.644,0,0,0,3.8-3.8,9.592,9.592,0,0,0,.6-3.156c.065-1.387.078-1.828.078-5.359s-.016-3.973-.078-5.359a9.614,9.614,0,0,0-.6-3.156,6.381,6.381,0,0,0-1.5-2.3,6.334,6.334,0,0,0-2.3-1.5,9.564,9.564,0,0,0-3.156-.6C43,4.013,42.561,4,39.029,4Zm0,2.34c3.47,0,3.884.017,5.254.077a7.162,7.162,0,0,1,2.413.45,4.278,4.278,0,0,1,2.468,2.467,7.178,7.178,0,0,1,.447,2.413c.062,1.371.076,1.783.076,5.254s-.016,3.884-.08,5.254a7.316,7.316,0,0,1-.456,2.413,4.128,4.128,0,0,1-.974,1.5,4.056,4.056,0,0,1-1.5.971,7.23,7.23,0,0,1-2.421.447c-1.38.062-1.786.076-5.264.076s-3.885-.016-5.264-.08a7.372,7.372,0,0,1-2.422-.456,4.026,4.026,0,0,1-1.494-.974,3.947,3.947,0,0,1-.975-1.495,7.378,7.378,0,0,1-.455-2.421c-.049-1.365-.066-1.786-.066-5.248s.017-3.885.066-5.266a7.369,7.369,0,0,1,.455-2.42,3.854,3.854,0,0,1,.975-1.5,3.845,3.845,0,0,1,1.494-.973,7.2,7.2,0,0,1,2.406-.456c1.381-.049,1.788-.065,5.264-.065Zm0,3.985A6.675,6.675,0,1,0,45.7,17,6.675,6.675,0,0,0,39.029,10.325Zm0,11.009A4.333,4.333,0,1,1,43.362,17,4.332,4.332,0,0,1,39.029,21.333Zm8.5-11.272A1.56,1.56,0,1,1,45.969,8.5,1.561,1.561,0,0,1,47.529,10.061Z" transform="translate(-26.029 -4)" fill="url(#linear-gradient)"/>
</svg>
